<?xml version="1.0" encoding="UTF-8"?>
<!DOCTYPE svg PUBLIC "-//W3C//DTD SVG 1.1//EN" "http://www.w3.org/Graphics/SVG/1.1/DTD/svg11.dtd">
<!-- Creator: CorelDRAW -->
<svg xmlns="http://www.w3.org/2000/svg" xml:space="preserve" shape-rendering="geometricPrecision" text-rendering="geometricPrecision" image-rendering="optimizeQuality" fill-rule="evenodd" clip-rule="evenodd"
viewBox="0 0 240 180"
 xmlns:xlink="http://www.w3.org/1999/xlink">
<a>
 <g id="Layer_x0020_1">
  <metadata id="CorelCorpID_0Corel-Layer"/>
  <rect fill="none" width="240" height="180"/>
  <g id="Apex_Spiny" onclick="parent.replacechar('Apex_Spiny')" onmousemove="parent.showtooltip('Apex_Spiny', 'Apex spiny')" onmouseout="parent.hidetooltip('Apex_Spiny')" cursor="pointer" >
   <path id="_67142560" fill="#78B43C" stroke="black" stroke-width="0.0762" stroke-linejoin="bevel" d="M213.813 135.811c-0.2986,-5.3058 -0.1176,-8.0642 -0.1435,-12.014 -2.193,5.0603 -4.7678,-1.6916 -3.2336,-13.6673 -5.5426,10.4902 -9.8836,-3.742 -10.3121,-8.7065 -0.1558,4.6757 -4.0941,21.1597 -11.1677,8.6406 2.0067,16.9462 -0.6409,18.7073 -2.7687,13.6775 0.3792,3.9218 0.3877,7.7881 0.1775,12.0697 -0.1049,0.0261 24.3224,0.1105 27.4481,0z"/>
   <polygon id="_67141816" fill="none" stroke="black" stroke-width="0.0762" stroke-linejoin="bevel" points="200.215,105.09 200.417,135.811 "/>
   <path id="_66519048" fill="none" stroke="black" stroke-width="0.0762" stroke-linejoin="bevel" d="M209.531 112.671c-0.9721,4.833 -5.4898,18.5964 -8.6942,19.9888"/>
   <path id="_66490256" fill="none" stroke="black" stroke-width="0.0762" stroke-linejoin="bevel" d="M190.515 115.534c0.8141,2.6001 6.8293,9.5345 9.6134,10.7427"/>
   <path id="_66490152" fill="none" stroke="black" stroke-width="0.0762" stroke-linejoin="bevel" d="M190.856 132.292c0.6828,1.0767 0.893,2.4425 2.2064,3.1255"/>
   <path id="_66488304" fill="none" stroke="black" stroke-width="0.0762" stroke-linejoin="bevel" d="M186.391 135.864c-0.2361,5.8047 4.728,16.1009 10.8742,21.1441 2.4955,3.1784 1.0771,6.3564 0.6043,10.4804 1.0243,0.6565 1.7597,0.5514 2.6792,0.5514 1.6546,-5.1481 0.5779,-6.8552 2.8628,-10.7952 2.0752,-3.5987 10.4279,-12.7919 10.4015,-21.3282"/>
  </g>
  <g id="Apex_Premorse" onclick="parent.replacechar('Apex_Premorse')" onmousemove="parent.showtooltip('Apex_Premorse', 'Apex premorse')" onmouseout="parent.hidetooltip('Apex_Premorse')" cursor="pointer" >
   <path id="_66893784" fill="#78B43C" stroke="black" stroke-width="0.0762" stroke-linejoin="bevel" d="M106.367 136.414l27.8139 0.0526c-0.4633,-6.4579 -1.4008,-24.188 -1.5715,-30.5392 -1.1163,5.8933 -2.9776,11.9923 -3.2248,-0.2252 -1.3426,5.0623 -3.0995,4.7999 -3.24,-1.6411 -0.7342,4.3785 -2.7049,8.3636 -2.8001,1.1781 -1.105,4.0801 -2.0548,0.8888 -2.2563,-1.3347 -0.1702,1.7106 -1.2764,2.1312 -1.7042,-1.6473 -0.021,2.5657 -1.313,8.6353 -1.6734,3.0275 0.1359,6.6719 -3.4344,4.5989 -4.0376,-0.4711 -0.3865,4.4173 -2.5777,6.0652 -3.2943,0.1539 0.0395,2.1334 -0.799,9.1924 -1.1044,10.3295 -0.7761,-0.0838 -0.9304,-4.077 -1.9177,-8.5024 -0.1617,1.843 1.3872,13.8962 -1.5367,4.0929l0.5471 25.5265z"/>
   <polygon id="_66893016" fill="none" stroke="black" stroke-width="0.0762" stroke-linejoin="bevel" points="119.742,106.177 119.876,134.76 "/>
   <polygon id="_3668352" fill="none" stroke="black" stroke-width="0.0762" stroke-linejoin="bevel" points="122.792,108.046 122.97,134.76 "/>
   <polygon id="_3667736" fill="none" stroke="black" stroke-width="0.0762" stroke-linejoin="bevel" points="111.254,109.094 111.388,134.76 "/>
   <polygon id="_65832160" fill="none" stroke="black" stroke-width="0.0762" stroke-linejoin="bevel" points="115.718,110.951 115.896,133.699 "/>
   <polygon id="_65831728" fill="none" stroke="black" stroke-width="0.0762" stroke-linejoin="bevel" points="125.753,107.857 125.887,134.23 "/>
   <polygon id="_66291080" fill="none" stroke="black" stroke-width="0.0762" stroke-linejoin="bevel" points="128.273,109.284 128.451,135.998 "/>
   <polygon id="_66290976" fill="none" stroke="black" stroke-width="0.0762" stroke-linejoin="bevel" points="132.251,109.814 132.429,135.526 "/>
   <polygon id="_66508392" fill="none" stroke="black" stroke-width="0.0762" stroke-linejoin="bevel" points="108.029,113.514 108.207,135.438 "/>
   <path id="base" fill="none" stroke="black" stroke-width="0.0762" stroke-linejoin="bevel" d="M106.346 136.445c0.0847,6.0151 4.394,15.2975 10.5535,20.3942 3.3444,3.3891 1.6937,6.2853 1.1921,10.6315 1.0565,0.6727 1.849,0.5692 2.826,0.5692 1.7172,-5.4328 0.7235,-6.7492 3.1008,-10.8623 2.166,-3.8031 9.9932,-11.5074 10.1413,-20.6845"/>
  </g>
  <g id="Apex_Obtuse" onclick="parent.replacechar('Apex_Obtuse')" onmousemove="parent.showtooltip('Apex_Obtuse', 'Apex obtuse')" onmouseout="parent.hidetooltip('Apex_Obtuse')" cursor="pointer" >
   <path id="_27686584" fill="#78B43C" stroke="black" stroke-width="0.0762" stroke-linejoin="bevel" d="M25.724 136.878l28.5578 0c-0.0272,0 -0.0272,-3.1852 -0.162,-4.1836 0.0766,-7.3982 -3.7852,-23.5315 -13.2261,-25.9126 -9.408,2.3118 -13.2863,13.9506 -14.3332,21.7557 -0.1619,1.0258 -0.9178,8.2325 -0.8365,8.3405z"/>
   <polygon id="_27685840" fill="none" stroke="black" stroke-width="0.0762" stroke-linejoin="bevel" points="41.2443,108.509 40.5157,136.338 "/>
   <path id="_66516744" fill="none" stroke="black" stroke-width="0.0762" stroke-linejoin="bevel" d="M35.4412 117.309c0.4586,1.9702 2.672,4.8047 5.3712,5.8571"/>
   <path id="_65712016" fill="none" stroke="black" stroke-width="0.0762" stroke-linejoin="bevel" d="M48.9374 123.166c-0.5939,4.8859 -4.8047,9.2585 -8.125,9.9604"/>
   <path id="_66263744" fill="none" stroke="black" stroke-width="0.0762" stroke-linejoin="bevel" d="M30.1775 132.343c0.891,2.1865 1.8626,3.5629 3.4281,4.3459"/>
   <path id="base_0" fill="none" stroke="black" stroke-width="0.0762" stroke-linejoin="bevel" d="M25.724 136.878c0.0862,6.1182 4.6056,14.5853 10.8708,19.7694 3.4018,3.4473 1.7227,6.3931 1.2125,10.8138 1.0747,0.6843 1.8807,0.579 2.8745,0.579 1.7466,-5.5259 0.736,-6.865 3.154,-11.0486 2.2032,-3.8684 10.2888,-10.8485 10.4394,-20.183"/>
  </g>
  <g id="Apex_Caudate" onclick="parent.replacechar('Apex_Caudate')" onmousemove="parent.showtooltip('Apex_Caudate', 'Apex caudate')" onmouseout="parent.hidetooltip('Apex_Caudate')" cursor="pointer" >
    <metadata id="CorelCorpID_1">
     <odm name="Nom" value="Apiculate" type="0"/>
    </metadata>
   <path id="_66389528" fill="#78B43C" stroke="black" stroke-width="0.0762" stroke-linejoin="bevel" d="M213.965 45.9805c-0.1555,-5.1582 -2.0219,-8.8135 -2.3067,-9.6687 -1.4779,-4.2512 -6.6622,-8.1395 -7.1026,-8.7358 -1.037,-0.3887 -2.6962,-4.449 -3.1626,-5.7286 -0.4407,-1.2093 -1.0769,-12.3863 -1.8109,-11.8352 -0.6669,-0.4194 -0.9039,10.6456 -1.3515,11.8352 -0.4593,1.2208 -2.0999,4.977 -3.2661,6.0658 -0.6483,0.8813 -5.5473,4.8732 -6.8178,9.0208 -0.3367,0.8033 -1.8921,4.8472 -2.0994,9.0465 -0.1036,0.0261 -0.2073,0 27.9176,0z"/>
   <polygon id="_66506176" fill="none" stroke="black" stroke-width="0.0762" stroke-linejoin="bevel" points="199.708,21.0697 199.838,44.8917 "/>
   <path id="_66419432" fill="none" stroke="black" stroke-width="0.0762" stroke-linejoin="bevel" d="M206.111 31.905c-0.8557,4.3031 -2.8515,8.9173 -5.9102,10.1096"/>
   <path id="_66500448" fill="none" stroke="black" stroke-width="0.0762" stroke-linejoin="bevel" d="M194.835 31.3087c0.8037,2.3848 2.0998,3.9144 4.7177,4.977"/>
   <path id="_66391512" fill="none" stroke="black" stroke-width="0.0762" stroke-linejoin="bevel" d="M190.817 41.7036c0.674,0.907 0.8813,2.1513 2.0477,2.8514"/>
   <path id="_66419984" fill="none" stroke="black" stroke-width="0.0762" stroke-linejoin="bevel" d="M186.125 46.0585c-0.2592,5.6767 4.8216,15.6306 11.0427,20.582 2.5665,3.0845 1.1149,6.1694 0.6483,10.2132 1.0107,0.596 1.8145,0.4923 2.7216,0.4923 1.6852,-4.9769 0.5964,-6.6617 2.9033,-10.4981 2.1256,-3.4736 10.5242,-12.4945 10.4986,-20.8155"/>
  </g>
  <g id="Apex_Acuminate" onclick="parent.replacechar('Apex_Acuminate')" onmousemove="parent.showtooltip('Apex_Acuminate', 'Apex acuminate')" onmouseout="parent.hidetooltip('Apex_Acuminate')" cursor="pointer" >
    <metadata id="CorelCorpID_2">
     <odm name="Nom" value="Apiculate" type="0"/>
    </metadata>
   <path id="_66404480" fill="#78B43C" stroke="black" stroke-width="0.0762" stroke-linejoin="bevel" d="M133.965 45.9805c-0.1555,-5.1582 -2.0219,-8.8135 -2.3067,-9.6687 -1.9926,-5.7319 -7.528,-10.9815 -10.7614,-16.4501 -0.4147,-1.2186 -1.1109,-5.3504 -1.2926,-6.8539 -0.0257,1.5554 -0.4926,5.7512 -0.933,6.9436 -3.43,5.8893 -8.7811,11.2908 -10.5245,16.9826 -0.3367,0.8033 -1.8921,4.8472 -2.0994,9.0465 -0.1036,0.0261 -0.2073,0 27.9176,0z"/>
   <polygon id="_66520320" fill="none" stroke="black" stroke-width="0.0762" stroke-linejoin="bevel" points="119.708,21.0697 119.838,44.8917 "/>
   <path id="_66525176" fill="none" stroke="black" stroke-width="0.0762" stroke-linejoin="bevel" d="M126.111 31.905c-0.8557,4.3031 -2.8515,8.9173 -5.9102,10.1096"/>
   <path id="_65760952" fill="none" stroke="black" stroke-width="0.0762" stroke-linejoin="bevel" d="M114.835 31.3087c0.8037,2.3848 2.0998,3.9144 4.7177,4.977"/>
   <path id="_66522032" fill="none" stroke="black" stroke-width="0.0762" stroke-linejoin="bevel" d="M110.817 41.7036c0.674,0.907 0.8813,2.1513 2.0477,2.8514"/>
   <path id="_66753048" fill="none" stroke="black" stroke-width="0.0762" stroke-linejoin="bevel" d="M106.125 46.0585c-0.2592,5.6767 4.8216,15.6306 11.0427,20.582 2.5665,3.0845 1.1149,6.1694 0.6483,10.2132 1.0107,0.596 1.8145,0.4923 2.7216,0.4923 1.6852,-4.9769 0.5964,-6.6617 2.9033,-10.4981 2.1256,-3.4736 10.5242,-12.4945 10.4986,-20.8155"/>
  </g>
  <g id="Apex_Acute" onclick="parent.replacechar('Apex_Acute')" onmousemove="parent.showtooltip('Apex_Acute', 'Apex acute')" onmouseout="parent.hidetooltip('Apex_Acute')" cursor="pointer" >
   <path id="_66442040" fill="#78B43C" stroke="black" stroke-width="0.0762" stroke-linejoin="bevel" d="M26.3099 45.1963c0,-11.038 0.8049,-13.9383 12.3269,-32.5492 13.5665,18.933 15.0533,23.0423 15.0533,32.5492 -12.1415,0 -11.8324,0 -27.3802,0z"/>
   <polygon id="_66429992" fill="none" stroke="black" stroke-width="0.0762" stroke-linejoin="bevel" points="38.6368,13.8554 39.8143,45.1155 "/>
   <path id="_66527648" fill="none" stroke="black" stroke-width="0.0762" stroke-linejoin="bevel" d="M45.8222 25.7793c0.9912,5.1564 -2.4229,10.9835 -6.1394,15.8442"/>
   <path id="_66527624" fill="none" stroke="black" stroke-width="0.0762" stroke-linejoin="bevel" d="M30.1506 31.9833c-0.4957,5.1292 3.6403,9.265 7.1095,13.213"/>
   <path id="_66392688" fill="none" stroke="black" stroke-width="0.0762" stroke-linejoin="bevel" d="M50.1585 38.3479c0.1239,2.2292 -0.5515,4.5123 -2.534,6.8484"/>
   <path id="base_1" fill="none" stroke="black" stroke-width="0.0762" stroke-linejoin="bevel" d="M26.3097 45.1963c0.0862,6.1182 4.6912,14.7356 10.9563,19.9197 3.4019,3.4473 1.7228,6.3931 1.2126,10.8138 1.0747,0.6843 1.8807,0.579 2.8744,0.579 1.7467,-5.5259 0.736,-6.865 3.1541,-11.0486 2.2031,-3.8684 9.0324,-10.9294 9.183,-20.2639"/>
  </g>
 </g>
<image xlink:href="tick.gif" id="imgtick" x="-100" y="-100" width="15" height="15"/>
<rect id="recttooltip" x="-100" y="-100" width="55" height="6" fill-opacity="0.4" pointer-events="none"/>
<text id="textboxid" x="-100" y="-100" pointer-events="none"> </text>
</a></svg>
