<?xml version="1.0" encoding="UTF-8"?>
<!DOCTYPE svg PUBLIC "-//W3C//DTD SVG 1.1//EN" "http://www.w3.org/Graphics/SVG/1.1/DTD/svg11.dtd">
<!-- Creator: CorelDRAW -->
<svg xmlns="http://www.w3.org/2000/svg" xml:space="preserve" shape-rendering="geometricPrecision" text-rendering="geometricPrecision" image-rendering="optimizeQuality" fill-rule="evenodd" clip-rule="evenodd"
viewBox="0 0 240 180"
 xmlns:xlink="http://www.w3.org/1999/xlink">
<a>
 <g id="Layer_x0020_1">
  <metadata id="CorelCorpID_0Corel-Layer"/>
  <rect fill="none" width="240" height="180"/>
  <g id="Base_Auriculate" onclick="parent.replacechar('Base_Auriculate')" onmousemove="parent.showtooltip('Base_Auriculate', 'Base auriculate')" onmouseout="parent.hidetooltip('Base_Auriculate')" cursor="pointer" >
   <path id="_27617288" fill="#78B43C" stroke="black" stroke-width="0.0762" stroke-linejoin="bevel" d="M203.258 149.041c0.2646,-1.852 3.3585,3.1489 4.1963,4.009 3.0289,3.8912 7.8837,-0.2986 5.2201,-6.3423 -2.8643,-6.499 6.5274,-5.7192 6.9437,-18.3483l-39.0038 0c-2.0285,9.966 9.6353,12.2181 8.0634,17.8813 -2.1726,7.827 3.2883,9.7924 4.9199,8.2931 1.7744,-0.1842 2.7519,-5.4272 3.8543,-5.4272 5.8061,-0.0656 5.8061,-0.0656 5.8061,-0.0656z"/>
   <path id="_66286200" fill="#E5E5E5" stroke="black" stroke-width="0.0762" stroke-linejoin="bevel" d="M197.452 149.107c0.8389,0 1.3846,16.44 1.5287,20.7261l4.4097 0c0.0441,-6.5264 -0.7274,-16.9111 -0.1323,-20.7917 0,0 0,0 -5.8061,0.0656z"/>
   <polygon id="_76619064" fill="none" stroke="black" stroke-width="0.0762" stroke-linejoin="bevel" points="200.303,130.653 200.303,148.036 "/>
   <path id="_67181312" fill="none" stroke="black" stroke-width="0.0762" stroke-linejoin="bevel" d="M212.144 128.756c-2.6899,4.983 -7.2319,9.4809 -11.6417,12.8764"/>
   <path id="_66276648" fill="none" stroke="black" stroke-width="0.0762" stroke-linejoin="bevel" d="M185.2 129.33c2.8882,4.5639 10.1424,6.0413 14.8608,8.4003"/>
   <path id="_65718784" fill="none" stroke="black" stroke-width="0.0762" stroke-linejoin="bevel" d="M200.105 144.94c-4.5643,-6.2399 -5.6498,2.601 -9.2657,6.5698"/>
   <path id="_27678224" fill="none" stroke="black" stroke-width="0.0762" stroke-linejoin="bevel" d="M200.656 147.983c5.1375,-6.2177 6.0858,-4.6263 10.1868,3.5758"/>
  </g>
  <g id="Base_Cordate" onclick="parent.replacechar('Base_Cordate')" onmousemove="parent.showtooltip('Base_Cordate', 'Base cordate')" onmouseout="parent.hidetooltip('Base_Cordate')" cursor="pointer" >
   <path id="_45404496" fill="#78B43C" stroke="black" stroke-width="0.0762" stroke-linejoin="bevel" d="M123.867 148.633c1.2184,-0.33 5.4291,3.3596 6.1621,4.1121 0.7056,0.6833 4.1674,2.0944 6.0854,1.9181 5.0935,-1.1684 7.0337,-7.1216 3.7924,-26.3039l-39.0038 0c-2.0285,9.966 -3.6382,17.7712 -1.0806,23.0629 1.0584,5.534 10.4511,3.0868 12.0827,1.5875 0.86,-0.7938 4.4538,-4.4979 5.5562,-4.4979 0.1653,0 0.2688,0.0234 0.3336,0.084 5.9685,0.0792 6.0234,0.0532 6.072,0.0372z"/>
   <path id="_27628064" fill="#E5E5E5" stroke="black" stroke-width="0.0762" stroke-linejoin="bevel" d="M117.795 148.596c0.1942,0.1818 0.0414,0.6985 0.1737,1.9222 0.2205,2.624 1.1465,14.7285 1.3007,19.3146l4.4097 0c0.0441,-6.5264 -0.7274,-16.9111 -0.1323,-20.7917 0.033,-0.2315 0.146,-0.3607 0.3202,-0.4079 -0.0486,0.016 -0.1035,0.042 -6.072,-0.0372z"/>
   <polygon id="_66508048" fill="none" stroke="black" stroke-width="0.0762" stroke-linejoin="bevel" points="120.592,130.653 120.592,147.648 "/>
   <path id="_66752368" fill="none" stroke="black" stroke-width="0.0762" stroke-linejoin="bevel" d="M132.432 128.756c-2.6899,4.983 -7.2319,9.4809 -11.6417,12.8764"/>
   <path id="_66740008" fill="none" stroke="black" stroke-width="0.0762" stroke-linejoin="bevel" d="M105.489 129.33c2.8882,4.5639 10.1424,6.0413 14.8608,8.4003"/>
   <path id="_27577672" fill="none" stroke="black" stroke-width="0.0762" stroke-linejoin="bevel" d="M120.394 144.94c-4.5643,-6.2399 -12.1268,-0.9042 -15.7427,3.0646"/>
   <path id="_76850432" fill="none" stroke="black" stroke-width="0.0762" stroke-linejoin="bevel" d="M121.196 147.187c5.1375,-6.2177 10.1778,-8.707 14.2788,-0.5049"/>
  </g>
  <g id="Base_Peltate" onclick="parent.replacechar('Base_Peltate')" onmousemove="parent.showtooltip('Base_Peltate', 'Base peltate')" onmouseout="parent.hidetooltip('Base_Peltate')" cursor="pointer" >
   <path id="_27684168" fill="#E5E5E5" stroke="black" stroke-width="0.0762" stroke-linejoin="bevel" d="M37.1215 142.581c4.2749,5.1224 0.3832,23.5829 0.1446,27.2076l5.9309 0c-0.1598,-2.2581 -4.3072,-22.1372 -0.6746,-27.0246 -1.5908,-2.4493 -3.7682,-1.7561 -5.4009,-0.183z"/>
   <path id="_66903392" fill="#78B43C" stroke="black" stroke-width="0.0762" stroke-linejoin="bevel" d="M44.4908 156.675c8.3739,-1.0276 15.455,-14.05 15.2868,-28.2717 0.1104,0.0882 -39.5552,-0.0219 -39.5552,0.0222 0.9591,16.2555 3.7282,26.9608 16.2278,28.4646 2.4946,0.2951 5.5733,0.1489 8.0406,-0.2151z"/>
   <polygon id="_66398088" fill="none" stroke="black" stroke-width="0.0762" stroke-linejoin="bevel" points="39.8456,129.726 39.9199,141.16 "/>
   <path id="_66305920" fill="none" stroke="black" stroke-width="0.0762" stroke-linejoin="bevel" d="M54.4379 129.81c-5.2701,3.1611 -10.2361,4.0956 -14.518,11.3499"/>
   <path id="_66500120" fill="none" stroke="black" stroke-width="0.0762" stroke-linejoin="bevel" d="M25.0987 129.65c7.3169,2.1955 10.4247,6.0065 14.8212,11.5105"/>
   <path id="_66271344" fill="none" stroke="black" stroke-width="0.0762" stroke-linejoin="bevel" d="M56.6052 139.084c-3.9293,-0.7775 -10.7252,-3.6411 -16.6853,2.0758"/>
   <path id="_66516400" fill="none" stroke="black" stroke-width="0.0762" stroke-linejoin="bevel" d="M23.5903 139.957c2.7498,-2.4554 10.1733,-3.7143 16.3296,1.2031"/>
   <path id="_67080168" fill="none" stroke="black" stroke-width="0.0762" stroke-linejoin="bevel" d="M27.1937 149.259c1.828,-3.5448 6.5699,-13.0161 12.7262,-8.0987"/>
   <path id="_66304480" fill="none" stroke="black" stroke-width="0.0762" stroke-linejoin="bevel" d="M52.7085 148.805c-2.4628,-4.6323 -6.8285,-13.3619 -12.7886,-7.645"/>
   <path id="_66521760" fill="none" stroke="black" stroke-width="0.0762" stroke-linejoin="bevel" d="M47.89 152.409c0.0093,-4.4647 -2.01,-16.9653 -7.9701,-11.2484"/>
   <path id="_66278616" fill="none" stroke="black" stroke-width="0.0762" stroke-linejoin="bevel" d="M31.3418 152.904c0.571,-2.8744 1.8352,-15.6139 8.5781,-11.744"/>
  </g>
  <g id="Base_Retuse" onclick="parent.replacechar('Base_Retuse')" onmousemove="parent.showtooltip('Base_Retuse', 'Base retuse')" onmouseout="parent.hidetooltip('Base_Retuse')" cursor="pointer" >
   <path id="_66278040" fill="#E5E5E5" stroke="black" stroke-width="0.0762" stroke-linejoin="bevel" d="M196.576 97.8159c2.5816,0.5867 0.9283,9.2521 0.6897,12.8768l5.9309 0c-0.1598,-2.2581 -1.4723,-10.6519 0.8338,-12.9462 -1.6279,-2.4639 -4.6979,-3.3186 -7.4544,0.0694z"/>
   <path id="_76723920" fill="#78B43C" stroke="black" stroke-width="0.0762" stroke-linejoin="bevel" d="M204.031 97.7465c0.2386,-0.2373 0.5158,-0.4095 0.8371,-0.5027 8.3739,-1.0276 15.0779,-13.7148 14.9097,-27.9365 0.1104,0.0882 -39.5552,-0.0219 -39.5552,0.0222 0.9591,16.2555 3.7282,26.9608 16.2278,28.4646 0.0431,0.0051 0.0851,0.0125 0.1262,0.0218 1.3923,0.1346 2.8139,-0.192 3.5195,-1.2735 0.7055,1.2931 3.1458,1.6039 3.9349,1.2041z"/>
   <polygon id="_66456056" fill="none" stroke="black" stroke-width="0.0762" stroke-linejoin="bevel" points="199.846,70.6302 199.846,95.3687 "/>
   <path id="_66515048" fill="none" stroke="black" stroke-width="0.0762" stroke-linejoin="bevel" d="M211.84 70.6302c-1.9181,7.5187 -7.2097,13.8246 -11.5754,18.5649"/>
   <path id="_66269936" fill="none" stroke="black" stroke-width="0.0762" stroke-linejoin="bevel" d="M189.792 69.5059c1.7861,5.3799 5.909,9.5469 10.0541,11.9503"/>
  </g>
  <g id="Base_Rounded" onclick="parent.replacechar('Base_Rounded')" onmousemove="parent.showtooltip('Base_Rounded', 'Base rounded')" onmouseout="parent.hidetooltip('Base_Rounded')" cursor="pointer" >
   <path id="_77004080" fill="#78B43C" stroke="black" stroke-width="0.0762" stroke-linejoin="bevel" d="M124.031 97.7465c0.2386,-0.2373 0.5158,-0.4095 0.8371,-0.5027 8.3739,-1.0276 15.0779,-13.7148 14.9097,-27.9365 0.1104,0.0882 -39.5552,-0.0219 -39.5552,0.0222 0.9591,16.2555 3.7282,26.9608 16.2278,28.4646 0.0431,0.0051 0.0851,0.0125 0.1262,0.0218l7.4544 -0.0694z"/>
   <path id="_66820744" fill="#E5E5E5" stroke="black" stroke-width="0.0762" stroke-linejoin="bevel" d="M116.576 97.8159c2.5816,0.5867 0.9283,9.2521 0.6897,12.8768l5.9309 0c-0.1598,-2.2581 -1.4723,-10.6519 0.8338,-12.9462l-7.4544 0.0694z"/>
   <polygon id="_66269664" fill="none" stroke="black" stroke-width="0.0762" stroke-linejoin="bevel" points="119.846,70.6302 119.846,95.3687 "/>
   <path id="_66440024" fill="none" stroke="black" stroke-width="0.0762" stroke-linejoin="bevel" d="M131.84 70.6302c-1.9181,7.5187 -7.2097,13.8246 -11.5754,18.5649"/>
   <path id="_66728640" fill="none" stroke="black" stroke-width="0.0762" stroke-linejoin="bevel" d="M109.792 69.5059c1.7861,5.3799 5.909,9.5469 10.0541,11.9503"/>
  </g>
  <g id="Base_Asymetric" onclick="parent.replacechar('Base_Asymetric')" onmousemove="parent.showtooltip('Base_Asymetric', 'Base asymmetric')" onmouseout="parent.hidetooltip('Base_Asymetric')" cursor="pointer" >
   <path id="_66730320" fill="#78B43C" stroke="black" stroke-width="0.0762" stroke-linejoin="bevel" d="M44.3915 100.08c0.0903,-0.2065 0.1897,-0.4135 0.2985,-0.6215 4.3216,-3.0646 6.9011,-4.8726 8.3122,-7.6288 3.2413,-5.865 5.0493,-9.3487 5.1153,-22.5337 0,0 -31.4414,0 -31.4414,0 -5.6444,10.6055 -6.2177,27.142 -2.1826,32.125 4.057,4.983 8.599,1.9621 10.2306,1.4993 2.326,-0.6614 2.9598,-0.8267 3.1555,-0.6697l6.5119 -2.1706z"/>
   <path id="_66730800" fill="#E5E5E5" stroke="black" stroke-width="0.0762" stroke-linejoin="bevel" d="M37.8796 102.251c0.1956,0.157 -0.0468,0.6365 0.5264,1.2648l1.0806 7.1879 4.4097 0c-0.2067,-4.568 -0.8593,-7.5279 0.4952,-10.6233l-6.5119 2.1706z"/>
   <polygon id="_66358176" fill="none" stroke="black" stroke-width="0.0762" stroke-linejoin="bevel" points="43.8963,71.3249 40.4345,100.275 "/>
   <path id="_66520320" fill="none" stroke="black" stroke-width="0.0762" stroke-linejoin="bevel" d="M53.4432 70.1565c-0.066,6.3277 -5.8209,17.9253 -10.7157,14.0888"/>
   <path id="_66528776" fill="none" stroke="black" stroke-width="0.0762" stroke-linejoin="bevel" d="M32.5411 70.1565c-1.8299,7.6065 -5.4018,21.4531 8.643,24.6722"/>
   <path id="_66262608" fill="none" stroke="black" stroke-width="0.0762" stroke-linejoin="bevel" d="M35.6942 92.9325c-1.7861,4.6302 -5.4903,5.5344 -8.4889,2.5799"/>
  </g>
  <g id="Base_Truncate" onclick="parent.replacechar('Base_Truncate')" onmousemove="parent.showtooltip('Base_Truncate', 'Base truncate')" onmouseout="parent.hidetooltip('Base_Truncate')" cursor="pointer" >
   <path id="_45490224" fill="#78B43C" stroke="black" stroke-width="0.0762" stroke-linejoin="bevel" d="M203.226 39.1043c0.1627,-0.0937 0.3391,-0.0497 0.4493,-0.1599l7.783 -0.1323c-0.7937,-0.0441 3.6601,1.0142 5.1816,-3.7924 1.4771,-4.476 0.992,-26.8333 0.6392,-26.701l-34.6604 0c0,0 -1.6534,29.2805 3.3073,29.5451 3.7042,1.9625 6.4823,0.5292 10.4292,1.0806 0.9481,0.1211 1.3945,0.1322 1.6094,0.1818l5.2614 -0.0219z"/>
   <path id="_66389448" fill="#E5E5E5" stroke="black" stroke-width="0.0762" stroke-linejoin="bevel" d="M197.964 39.1262c0.2149,0.0496 0.1984,0.1378 0.2204,0.4133l0.5073 10.0323 4.057 0 0.11 -9.4809c0.0552,-0.6614 0.2042,-0.8929 0.3667,-0.9866l-5.2614 0.0219z"/>
   <polygon id="_66805576" fill="none" stroke="black" stroke-width="0.0762" stroke-linejoin="bevel" points="200.368,9.8402 200.566,38.8121 "/>
   <path id="_66404480" fill="none" stroke="black" stroke-width="0.0762" stroke-linejoin="bevel" d="M211.326 9.6197c-0.3528,6.4601 -3.4614,21.2768 -10.0101,24.2313"/>
   <path id="_66475888" fill="none" stroke="black" stroke-width="0.0762" stroke-linejoin="bevel" d="M191.284 9.5534c0.3087,4.3879 2.0285,10.9802 8.7531,13.626"/>
   <path id="_66393312" fill="none" stroke="black" stroke-width="0.0762" stroke-linejoin="bevel" d="M200.566 36.4749c-7.2538,-3.0649 -11.1125,-9.7014 -11.8622,-16.0514"/>
   <path id="_66444600" fill="none" stroke="black" stroke-width="0.0762" stroke-linejoin="bevel" d="M196.046 33.8951c-2.7563,0.5732 -6.6146,0.7055 -6.7028,-1.0802"/>
   <path id="_66425968" fill="none" stroke="black" stroke-width="0.0762" stroke-linejoin="bevel" d="M213.751 26.7735c-1.6976,3.0868 -3.4837,6.3278 -9.3264,4.7403"/>
  </g>
  <g id="Base_Acute" onclick="parent.replacechar('Base_Acute')" onmousemove="parent.showtooltip('Base_Acute', 'Base acute')" onmouseout="parent.hidetooltip('Base_Acute')" cursor="pointer" >
   <path id="_66279600" fill="#E5E5E5" stroke="black" stroke-width="0.0762" stroke-linejoin="bevel" d="M116.12 35.2053c0.1057,0.4904 0.2156,1.0014 0.3299,1.5341 0.5837,2.7187 1.0583,9.2163 0.8159,12.8986l5.9309 0c-0.1764,-2.4917 1.0947,-9.9271 1.6709,-13.4489 0.0622,-0.3802 0.125,-0.7503 0.1883,-1.1108l-8.9359 0.127z"/>
   <path id="_66893592" fill="#78B43C" stroke="black" stroke-width="0.0762" stroke-linejoin="bevel" d="M125.056 35.0783c11.9749,-9.6801 13.6022,-26.0906 14.7214,-26.8257 0.1104,0.0882 -39.5552,-0.0219 -39.5552,0.0222 1.9293,2.3419 7.3635,21.1831 15.8979,26.9305l4.3913 1.9279 4.5446 -2.0549z"/>
   <polygon id="_66522424" fill="none" stroke="black" stroke-width="0.0762" stroke-linejoin="bevel" points="119.846,9.5755 119.846,34.314 "/>
   <path id="_66520632" fill="none" stroke="black" stroke-width="0.0762" stroke-linejoin="bevel" d="M131.84 9.5755c-1.9181,7.5187 -7.2097,13.8246 -11.5754,18.5649"/>
   <path id="_76527904" fill="none" stroke="black" stroke-width="0.0762" stroke-linejoin="bevel" d="M109.792 8.4512c1.7861,5.3799 5.909,9.5469 10.0541,11.9503"/>
  </g>
  <g id="Base_Attenuate" onclick="parent.replacechar('Base_Attenuate')" onmousemove="parent.showtooltip('Base_Attenuate', 'Base attenuate')" onmouseout="parent.hidetooltip('Base_Attenuate')" cursor="pointer" >
   <path id="_66731400" fill="#E5E5E5" stroke="black" stroke-width="0.0762" stroke-linejoin="bevel" d="M36.1203 35.2053c0.1057,0.4904 0.2156,1.0014 0.3299,1.5341 0.5837,2.7187 1.0583,9.2163 0.8159,12.8986l5.9309 0c-0.1764,-2.4917 1.0947,-9.9271 1.6709,-13.4489 0.0622,-0.3802 0.125,-0.7503 0.1883,-1.1108l-8.9359 0.127z"/>
   <path id="_66730200" fill="#78B43C" stroke="black" stroke-width="0.0762" stroke-linejoin="bevel" d="M45.0562 35.0783c1.9643,-11.1753 4.5891,-13.1783 14.7214,-26.8257 0.1104,0.0882 -39.5552,-0.0219 -39.5552,0.0222 13.183,16.1904 12.6181,11.7256 15.8979,26.9305l8.9359 -0.127z"/>
   <polygon id="_66730560" fill="none" stroke="black" stroke-width="0.0762" stroke-linejoin="bevel" points="39.8456,9.5755 39.8456,34.314 "/>
   <path id="_76901960" fill="none" stroke="black" stroke-width="0.0762" stroke-linejoin="bevel" d="M51.8401 9.5755c-1.9181,7.5187 -7.2097,13.8246 -11.5754,18.5649"/>
   <path id="_76993120" fill="none" stroke="black" stroke-width="0.0762" stroke-linejoin="bevel" d="M29.7915 8.4512c1.7861,5.3799 5.909,9.5469 10.0541,11.9503"/>
  </g>
 </g>
<image xlink:href="tick.gif" id="imgtick" x="-100" y="-100" width="15" height="15"/>
<rect id="recttooltip" x="-100" y="-100" width="55" height="6" fill-opacity="0.4" pointer-events="none"/>
<text id="textboxid" x="-100" y="-100" pointer-events="none"> </text>
</a></svg>
