<?xml version="1.0" encoding="UTF-8"?>
<!DOCTYPE svg PUBLIC "-//W3C//DTD SVG 1.1//EN" "http://www.w3.org/Graphics/SVG/1.1/DTD/svg11.dtd">
<!-- Creator: CorelDRAW -->
<svg xmlns="http://www.w3.org/2000/svg" xml:space="preserve" shape-rendering="geometricPrecision" text-rendering="geometricPrecision" image-rendering="optimizeQuality" fill-rule="evenodd" clip-rule="evenodd"
viewBox="0 0 240 180"
 xmlns:xlink="http://www.w3.org/1999/xlink">
<a>
 <g id="Layer_x0020_1">
  <metadata id="CorelCorpID_0Corel-Layer"/>
  <rect fill="none" transform="matrix(3.24291E-013 -17.1512 10.3131 3.82591E-013 -1.55692E-005 180)" width="10.4949" height="23.2713"/>
  <g id="BarkAsp_Fluted" onclick="parent.replacechar('BarkAsp_Fluted')" onmousemove="parent.showtooltip('BarkAsp_Fluted', 'Trunk base fluted')" onmouseout="parent.hidetooltip('BarkAsp_Fluted')" cursor="pointer" >
   <polygon id="_67142112" fill="#625F5E" stroke="#625F5E" stroke-width="0.0762" stroke-linejoin="bevel" points="130.877,152.988 233.387,152.988 "/>
   <path id="_66438288" fill="#63A342" stroke="#625F5E" stroke-width="0.0762" stroke-linejoin="bevel" d="M231.694 30.8208c3.6062,8.468 0.5273,19.7751 -5.8551,19.594 -12.9975,-11.9725 -11.4211,24.76 -32.4936,3.8819 -13.3795,10.9852 -7.7882,20.0633 -26.3768,-1.2504 -5.3668,18.3809 -25.1301,-7.652 -29.6219,-1.4682 -6.7975,-6.9312 -11.814,-9.3446 -6.9146,-20.9292l101.262 0.1719z"/>
   <path id="_45513296" fill="#F1D145" stroke="#A8A8A7" stroke-width="0.0762" stroke-linejoin="bevel" d="M171.183 152.988c0.5433,3.2333 1.242,0 1.8629,0 0.2818,0.5436 1.7377,1.7007 2.2431,0 1.5054,0.43 3.7207,2.6118 5.3995,0 1.8983,4.2203 3.1758,0 4.7638,0 0.4297,-64.8628 -4.7216,-58.1686 -2.5235,-82.5747 7.789,-15.7882 15.2107,-19.8286 26.9656,-25.4207 4.5668,-3.1891 10.8635,-10.9562 10.5573,-14.1907 -5.0651,5.2627 -12.8067,14.3948 -26.4124,19.125 5.1609,-5.8863 10.0116,-17.1338 12.0642,-19.1474l-4.4999 -0.0095c-7.1711,13.8586 -8.258,15.7643 -18.6748,27.8021 -0.5254,-13.4198 -1.0416,-5.593 -0.5492,-27.8221l-4.7545 -0.02 -0.5442 25.4295c0.944,0.6418 1.2245,0.9336 1.9538,1.6157 -12.1537,-12.2551 -20.9278,-26.2068 -21.7626,-27.0807l-4.813 -0.0069c7.7845,6.8222 7.8974,10.9787 13.3929,16.8993 -19.9954,-0.2587 -17.8199,-11.7505 -23.7679,-16.9181 2.9637,10.9435 8.1321,16.1265 15.1143,19.0802 7.1203,1.7105 17.1292,9.6125 19.4709,20.9936 -0.8127,28.0238 -4.2913,49.2871 -5.4863,82.2454z"/>
   <path id="_66472680" fill="none" stroke="#1F1A17" stroke-width="0.0762" d="M173.011 152.988c0,-8.9003 0.9241,-15.9022 1.379,-21.9828l1.6821 -24.3267"/>
   <path id="_66806144" fill="none" stroke="#1F1A17" stroke-width="0.0762" d="M175.355 152.988c0,-12.1388 1.8332,-22.2938 2.0887,-30.5923l0.9417 -30.5923"/>
   <path id="_67143832" fill="none" stroke="#1F1A17" stroke-width="0.0762" d="M184.648 153.004c0,-10.3326 -2.2487,-18.4562 -2.4658,-25.5204l-0.8675 -28.2273"/>
   <path id="_66806264" fill="none" stroke="#1F1A17" stroke-width="0.0762" d="M180.607 153.004c0,-15.4329 -0.6957,-27.5644 -0.7685,-38.1175l-0.2822 -40.885"/>
  </g>
  <g id="BarkAsp_Cylind" onclick="parent.replacechar('BarkAsp_Cylind')" onmousemove="parent.showtooltip('BarkAsp_Cylind', 'Trunk base cylindrical')" onmouseout="parent.hidetooltip('BarkAsp_Cylind')" cursor="pointer" >
   <polygon id="_66404480" fill="#625F5E" stroke="#625F5E" stroke-width="0.0762" stroke-linejoin="bevel" points="8.0518,152.988 110.562,152.988 "/>
   <path id="_66478944" fill="#63A342" stroke="#625F5E" stroke-width="0.0762" stroke-linejoin="bevel" d="M108.869 30.8208c3.6063,8.468 0.5273,19.7751 -5.855,19.594 -12.9976,-11.9725 -11.4212,24.76 -32.4937,3.8819 -13.3795,10.9852 -7.7882,20.0633 -26.3768,-1.2504 -5.3668,18.3809 -25.1301,-7.652 -29.6219,-1.4682 -6.7975,-6.9312 -11.814,-9.3446 -6.9146,-20.9292l101.262 0.1719z"/>
   <path id="_67143304" fill="#F1D145" stroke="#A8A8A7" stroke-width="0.0762" stroke-linejoin="bevel" d="M48.3579 152.988l14.2693 0c0.4298,-64.8628 -4.7216,-58.1686 -2.5235,-82.5747 7.789,-15.7882 15.2107,-19.8286 26.9656,-25.4207 4.5668,-3.1891 10.8635,-10.9562 10.5573,-14.1907 -5.065,5.2627 -12.8066,14.3948 -26.4124,19.125 5.1609,-5.8863 10.0116,-17.1338 12.0642,-19.1474l-4.4998 -0.0095c-7.1712,13.8586 -8.2581,15.7643 -18.6749,27.8021 -0.5254,-13.4198 -1.0416,-5.593 -0.5492,-27.8221l-4.7545 -0.02 -0.5442 25.4295c0.944,0.6418 1.2245,0.9336 1.9538,1.6157 -12.1537,-12.2551 -20.9278,-26.2068 -21.7626,-27.0807l-4.813 -0.0069c7.7845,6.8222 7.8974,10.9787 13.3929,16.8993 -19.9954,-0.2587 -17.8199,-11.7505 -23.7679,-16.9181 2.9637,10.9435 8.1321,16.1265 15.1143,19.0802 7.1203,1.7105 17.1292,9.6125 19.4709,20.9936 -0.8127,28.0238 -4.2913,49.2871 -5.4863,82.2454z"/>
  </g>
 </g>
<image xlink:href="tick.gif" id="imgtick" x="-100" y="-100" width="15" height="15"/>
<rect id="recttooltip" x="-100" y="-100" width="55" height="6" fill-opacity="0.4" pointer-events="none"/>
<text id="textboxid" x="-100" y="-100" pointer-events="none"> </text>
</a></svg>
