<?xml version="1.0" encoding="UTF-8"?>
<!DOCTYPE svg PUBLIC "-//W3C//DTD SVG 1.1//EN" "http://www.w3.org/Graphics/SVG/1.1/DTD/svg11.dtd">
<!-- Creator: CorelDRAW -->
<svg xmlns="http://www.w3.org/2000/svg" xml:space="preserve" shape-rendering="geometricPrecision" text-rendering="geometricPrecision" image-rendering="optimizeQuality" fill-rule="evenodd" clip-rule="evenodd"
viewBox="0 0 240 180"
 xmlns:xlink="http://www.w3.org/1999/xlink">
<a>
 <g id="Layer_x0020_1">
  <metadata id="CorelCorpID_0Corel-Layer"/>
  <rect fill="none" transform="matrix(3.24291E-013 -17.1512 10.3131 3.82591E-013 -1.55692E-005 180)" width="10.4949" height="23.2713"/>
  <g id="BkClr_Othr" onclick="parent.replacechar('BkClr_Othr')" onmousemove="parent.showtooltip('BkClr_Othr', 'Bark of other colours than black')" onmouseout="parent.hidetooltip('BkClr_Othr')" cursor="pointer" >
   <path id="courone" fill="#E5E5E5" stroke="#7F7F7F" stroke-width="0.0762" d="M163.831 75.4755c-9.918,0 -3.7922,-8.7512 -7.2926,-12.2517 -2.6254,-2.6253 -2.3337,-6.7092 -2.9171,-7.001 -2.6254,-1.1668 -6.6862,-0.6307 -9.6264,-2.0419 -4.353,-2.0894 -6.1258,-8.3137 -9.6263,-11.8141 -6.1259,-6.1259 4.9271,-8.0097 4.3756,-9.4805 -0.3238,-0.8637 -8.7512,-10.7932 -4.6673,-12.8352 2.0419,-0.8751 13.1268,-4.6673 14.0019,-4.6673 7.8761,0 3.5005,6.7093 9.043,1.1669 1.7502,-1.7503 10.7931,-3.5005 13.7102,-0.5835 3.7922,3.7922 2.042,-1.7502 9.0429,-1.7502 2.6254,0 12.2517,0.5834 12.2517,3.2088 0,8.4595 27.4205,-5.2507 27.4205,8.4595 0,4.3756 -5.5424,7.5844 -4.959,7.5844 3.2088,0 5.5424,14.2936 6.7093,16.6273 6.1258,12.2517 -19.8361,0.5834 -19.8361,1.1668 0,7.5844 9.6263,9.3347 9.6263,19.5444 0,5.2507 -13.7102,2.3337 -15.1688,0.8751 -3.5005,-3.5005 -1.4585,-8.7512 -4.959,-5.2507 -7.8761,7.8761 -10.0639,0 -15.3146,0 -0.8477,-2.0419 -3.1785,-6.6414 -5.7766,0.5754 -6.1528,1.9528 -3.0841,8.2214 -6.0376,8.4675z">
    <metadata id="CorelCorpID_1">
     <odm name="Nom" value="courone" type="0"/>
    </metadata>
   </path>
   <path id="tronc" fill="#D2A01E" stroke="#7F7F7F" stroke-width="0.0762" d="M158.756 169.83c8.8105,-30.1241 3.6061,-81.8459 16.0173,-118.283 0.8254,-2.8815 1.7049,-5.266 0.3987,-5.725 -9.4617,2.0216 -14.3213,4.1357 -23.4888,1.9665 -5.4562,-1.2912 -11.9041,-5.8147 -13.5738,-8.4763 2.3718,1.5442 9.1376,8.2507 18.983,8.217 5.9251,0.4304 11.0969,-3.5178 18.3749,-3.5494 1.8673,-4.627 -31.9898,-17.3913 -35.4937,-18.7389 7.5252,1.6794 27.8186,10.1869 33.2713,13.7151 0.6214,0.4209 -6.3812,-12.4444 -5.9931,-20.8037 1.0834,2.4061 1.7741,15.152 9.7127,22.9744 0.1675,-8.4537 7.051,-19.7141 9.7903,-22.1345 -3.7308,4.2375 -8.4195,14.1955 -7.6879,21.0705 0.193,1.4215 6.9886,-5.0318 9.7163,-6.1831 4.7044,-1.9856 13.9635,-5.4022 20.1895,-5.5939 -8.0066,1.9726 -21.6183,6.163 -27.6306,12.9593 2.8553,-0.7143 20.8546,1.7862 34.1985,10.3636 -5.6212,-2.8089 -39.216,-14.4712 -32.2749,-6.918 3.8489,3.8488 17.6364,19.2364 20.1394,26.0744 -8.1101,-10.8765 -20.6678,-25.3207 -21.4535,-24.4958 -12.2223,9.85 0.4152,105.908 0.2857,123.561 -4.2154,0.0467 -20.7312,-0.0491 -23.4813,0z">
    <metadata id="CorelCorpID_2">
     <odm name="Nom" value="tronc" type="0"/>
    </metadata>
   </path>
   <polygon id="sol" fill="none" stroke="black" stroke-width="0.0762" stroke-linejoin="bevel" points="146.454,169.909 214.896,169.909 "/>
   <g id="light">
    <path id="courone_0" fill="#E5E5E5" stroke="#7F7F7F" stroke-width="0.0762" d="M188.837 107.44c-6.5649,0 -2.5101,-5.7926 -4.8271,-8.1096 -1.7378,-1.7378 -1.5447,-4.4409 -1.9308,-4.634 -1.7378,-0.7724 -4.4257,-0.4175 -6.3718,-1.3516 -2.8814,-1.383 -4.0548,-5.5029 -6.3718,-7.8199 -4.0548,-4.0548 3.2613,-5.3017 2.8963,-6.2753 -0.2144,-0.5717 -5.7926,-7.1441 -3.0894,-8.4957 1.3516,-0.5793 8.6888,-3.0894 9.2681,-3.0894 5.2132,0 2.317,4.441 5.9856,0.7724 1.1585,-1.1585 7.1441,-2.317 9.075,-0.3862 2.5101,2.5101 1.3515,-1.1585 5.9856,-1.1585 1.7377,0 8.1095,0.3862 8.1095,2.1239 0,5.5995 18.15,-3.4755 18.15,5.5995 0,2.8962 -3.6686,5.0202 -3.2825,5.0202 2.124,0 3.6686,9.4611 4.441,11.0058 4.0548,8.1095 -13.1298,0.3862 -13.1298,0.7723 0,5.0202 6.3718,6.1787 6.3718,12.9367 0,3.4755 -9.0749,1.5447 -10.0404,0.5793 -2.317,-2.3171 -0.9654,-5.7926 -3.2824,-3.4756 -5.2133,5.2133 -6.6614,0 -10.137,0 -0.5611,-1.3516 -2.1038,-4.396 -3.8236,0.3809 -4.0726,1.2926 -2.0413,5.4419 -3.9963,5.6048z">
     <metadata id="CorelCorpID_3">
      <odm name="Nom" value="courone" type="0"/>
     </metadata>
    </path>
    <path id="tronc_1" fill="#E0D5AF" stroke="#7F7F7F" stroke-width="0.0762" d="M185.479 169.894c5.8318,-19.9396 2.3869,-54.1748 10.602,-78.2932 0.5464,-1.9073 1.1285,-3.4857 0.2639,-3.7895 -6.2628,1.3381 -9.4795,2.7375 -15.5475,1.3016 -3.6115,-0.8546 -7.8795,-3.8488 -8.9847,-5.6105 1.5699,1.0221 6.0483,5.4612 12.5651,5.4389 3.9219,0.2849 7.3452,-2.3285 12.1626,-2.3494 1.236,-3.0626 -21.1745,-11.5115 -23.4937,-12.4035 4.981,1.1117 18.4135,6.7428 22.0226,9.0782 0.4113,0.2786 -4.2237,-8.2371 -3.9669,-13.7702 0.7171,1.5926 1.1744,10.0293 6.429,15.207 0.1108,-5.5956 4.6671,-13.049 6.4803,-14.6511 -2.4694,2.8049 -5.573,9.3962 -5.0887,13.9468 0.1278,0.9409 4.6258,-3.3305 6.4313,-4.0926 3.1139,-1.3143 9.2427,-3.5758 13.3637,-3.7027 -5.2997,1.3057 -14.3094,4.0794 -18.289,8.5779 1.8899,-0.4728 13.8039,1.1823 22.6364,6.8598 -3.7208,-1.8592 -25.9576,-9.5787 -21.3631,-4.5791 2.5475,2.5476 11.6737,12.7328 13.3304,17.259 -5.3681,-7.1993 -13.6802,-16.7601 -14.2003,-16.2141 -8.0901,6.5199 0.2748,70.1021 0.1892,81.7866 -2.7903,0.031 -13.7223,-0.0324 -15.5426,0.0001z">
     <metadata id="CorelCorpID_4">
      <odm name="Nom" value="tronc" type="0"/>
     </metadata>
    </path>
   </g>
  </g>
  <g id="BkClr_Blck" onclick="parent.replacechar('BkClr_Blck')" onmousemove="parent.showtooltip('BkClr_Blck', 'Bark black')" onmouseout="parent.hidetooltip('BkClr_Blck')" cursor="pointer" >
   <path id="courone_2" fill="#E5E5E5" stroke="#7F7F7F" stroke-width="0.0762" d="M43.7207 75.4755c-9.918,0 -3.7922,-8.7512 -7.2926,-12.2517 -2.6254,-2.6253 -2.3337,-6.7092 -2.9171,-7.001 -2.6254,-1.1668 -6.6862,-0.6307 -9.6264,-2.0419 -4.353,-2.0894 -6.1258,-8.3137 -9.6263,-11.8141 -6.1259,-6.1259 4.9271,-8.0097 4.3756,-9.4805 -0.3238,-0.8637 -8.7512,-10.7932 -4.6673,-12.8352 2.0419,-0.8751 13.1268,-4.6673 14.0019,-4.6673 7.8761,0 3.5005,6.7093 9.043,1.1669 1.7502,-1.7503 10.7931,-3.5005 13.7102,-0.5835 3.7922,3.7922 2.042,-1.7502 9.0429,-1.7502 2.6254,0 12.2517,0.5834 12.2517,3.2088 0,8.4595 27.4205,-5.2507 27.4205,8.4595 0,4.3756 -5.5424,7.5844 -4.959,7.5844 3.2088,0 5.5424,14.2936 6.7093,16.6273 6.1258,12.2517 -19.8361,0.5834 -19.8361,1.1668 0,7.5844 9.6263,9.3347 9.6263,19.5444 0,5.2507 -13.7102,2.3337 -15.1688,0.8751 -3.5005,-3.5005 -1.4585,-8.7512 -4.959,-5.2507 -7.8761,7.8761 -10.0639,0 -15.3146,0 -0.8477,-2.0419 -3.1785,-6.6414 -5.7766,0.5754 -6.1528,1.9528 -3.0841,8.2214 -6.0376,8.4675z">
    <metadata id="CorelCorpID_5">
     <odm name="Nom" value="courone" type="0"/>
    </metadata>
   </path>
   <path id="tronc_3" fill="#4C4C4C" stroke="#7F7F7F" stroke-width="0.0762" d="M38.6464 169.83c8.8105,-30.1241 3.6061,-81.8459 16.0173,-118.283 0.8254,-2.8815 1.7049,-5.266 0.3987,-5.725 -9.4617,2.0216 -14.3213,4.1357 -23.4888,1.9665 -5.4562,-1.2912 -11.9041,-5.8147 -13.5738,-8.4763 2.3718,1.5442 9.1376,8.2507 18.983,8.217 5.9251,0.4304 11.0969,-3.5178 18.3749,-3.5494 1.8673,-4.627 -31.9898,-17.3913 -35.4937,-18.7389 7.5252,1.6794 27.8186,10.1869 33.2713,13.7151 0.6214,0.4209 -6.3812,-12.4444 -5.9931,-20.8037 1.0834,2.4061 1.7741,15.152 9.7127,22.9744 0.1675,-8.4537 7.051,-19.7141 9.7903,-22.1345 -3.7308,4.2375 -8.4195,14.1955 -7.6879,21.0705 0.193,1.4215 6.9886,-5.0318 9.7163,-6.1831 4.7044,-1.9856 13.9635,-5.4022 20.1895,-5.5939 -8.0066,1.9726 -21.6183,6.163 -27.6306,12.9593 2.8553,-0.7143 20.8546,1.7862 34.1985,10.3636 -5.6212,-2.8089 -39.216,-14.4712 -32.2749,-6.918 3.8489,3.8488 17.6364,19.2364 20.1394,26.0744 -8.1101,-10.8765 -20.6678,-25.3207 -21.4535,-24.4958 -12.2223,9.85 0.4152,105.908 0.2857,123.561 -4.2154,0.0467 -20.7312,-0.0491 -23.4813,0z">
    <metadata id="CorelCorpID_6">
     <odm name="Nom" value="tronc" type="0"/>
    </metadata>
   </path>
   <g id="dark_x0020_brown">
    <path id="courone_4" fill="#E5E5E5" stroke="#7F7F7F" stroke-width="0.0762" d="M68.947 107.395c-6.5649,0 -2.5101,-5.7926 -4.8271,-8.1096 -1.7378,-1.7378 -1.5447,-4.4409 -1.9308,-4.634 -1.7378,-0.7724 -4.4257,-0.4175 -6.3718,-1.3516 -2.8814,-1.383 -4.0548,-5.5029 -6.3718,-7.8199 -4.0548,-4.0548 3.2613,-5.3017 2.8963,-6.2753 -0.2144,-0.5717 -5.7926,-7.1441 -3.0894,-8.4957 1.3516,-0.5793 8.6888,-3.0894 9.2681,-3.0894 5.2132,0 2.317,4.441 5.9856,0.7724 1.1585,-1.1585 7.1441,-2.317 9.075,-0.3862 2.5101,2.5101 1.3515,-1.1585 5.9856,-1.1585 1.7377,0 8.1095,0.3862 8.1095,2.1239 0,5.5995 18.15,-3.4755 18.15,5.5995 0,2.8962 -3.6686,5.0202 -3.2825,5.0202 2.124,0 3.6686,9.4611 4.441,11.0058 4.0548,8.1095 -13.1298,0.3862 -13.1298,0.7723 0,5.0202 6.3718,6.1787 6.3718,12.9367 0,3.4755 -9.0749,1.5447 -10.0404,0.5793 -2.317,-2.3171 -0.9654,-5.7926 -3.2824,-3.4756 -5.2133,5.2133 -6.6614,0 -10.137,0 -0.5611,-1.3516 -2.1038,-4.396 -3.8236,0.3809 -4.0726,1.2926 -2.0413,5.4419 -3.9963,5.6048z">
     <metadata id="CorelCorpID_7">
      <odm name="Nom" value="courone" type="0"/>
     </metadata>
    </path>
    <path id="tronc_5" fill="#663333" stroke="#7F7F7F" stroke-width="0.0762" d="M65.5883 169.849c5.8318,-19.9396 2.3869,-54.1748 10.602,-78.2932 0.5464,-1.9073 1.1285,-3.4857 0.2639,-3.7895 -6.2628,1.3381 -9.4795,2.7375 -15.5475,1.3016 -3.6115,-0.8546 -7.8795,-3.8488 -8.9847,-5.6105 1.5699,1.0221 6.0483,5.4612 12.5651,5.4389 3.9219,0.2849 7.3452,-2.3285 12.1626,-2.3494 1.236,-3.0626 -21.1745,-11.5115 -23.4937,-12.4035 4.981,1.1117 18.4135,6.7428 22.0226,9.0782 0.4113,0.2786 -4.2237,-8.2371 -3.9669,-13.7702 0.7171,1.5926 1.1744,10.0293 6.429,15.207 0.1108,-5.5956 4.6671,-13.049 6.4803,-14.6511 -2.4694,2.8049 -5.573,9.3962 -5.0887,13.9468 0.1278,0.9409 4.6258,-3.3305 6.4313,-4.0926 3.1139,-1.3143 9.2427,-3.5758 13.3637,-3.7027 -5.2997,1.3057 -14.3094,4.0794 -18.289,8.5779 1.8899,-0.4728 13.8039,1.1823 22.6364,6.8598 -3.7208,-1.8592 -25.9576,-9.5787 -21.3631,-4.5791 2.5475,2.5476 11.6737,12.7328 13.3304,17.259 -5.3681,-7.1993 -13.6802,-16.7601 -14.2003,-16.2141 -8.0901,6.5199 0.2748,70.1021 0.1892,81.7866 -2.7903,0.031 -13.7223,-0.0324 -15.5426,0.0001z">
     <metadata id="CorelCorpID_8">
      <odm name="Nom" value="tronc" type="0"/>
     </metadata>
    </path>
   </g>
   <polygon id="sol_6" fill="none" stroke="black" stroke-width="0.0762" stroke-linejoin="bevel" points="26.3438,169.909 94.7863,169.909 "/>
  </g>
 </g>
<image xlink:href="tick.gif" id="imgtick" x="-100" y="-100" width="15" height="15"/>
<rect id="recttooltip" x="-100" y="-100" width="55" height="6" fill-opacity="0.4" pointer-events="none"/>
<text id="textboxid" x="-100" y="-100" pointer-events="none"> </text>
</a></svg>
