<?xml version="1.0" encoding="UTF-8"?>
<!DOCTYPE svg PUBLIC "-//W3C//DTD SVG 1.1//EN" "http://www.w3.org/Graphics/SVG/1.1/DTD/svg11.dtd">
<!-- Creator: CorelDRAW -->
<svg xmlns="http://www.w3.org/2000/svg" xml:space="preserve" shape-rendering="geometricPrecision" text-rendering="geometricPrecision" image-rendering="optimizeQuality" fill-rule="evenodd" clip-rule="evenodd"
viewBox="0 0 240 180"
 xmlns:xlink="http://www.w3.org/1999/xlink">
<a>
 <g id="Layer_x0020_1">
  <metadata id="CorelCorpID_0Corel-Layer"/>
  <rect fill="none" transform="matrix(3.24291E-013 -17.1512 10.3131 3.82591E-013 -3.10584E-005 180)" width="10.4949" height="23.2713"/>
  <g id="Br_Up" onclick="parent.replacechar('Br_Up')" onmousemove="parent.showtooltip('Br_Up', 'Branches ascending')" onmouseout="parent.hidetooltip('Br_Up')" cursor="pointer" >
   <line id="_63316944" fill="none" stroke="#1F1A17" stroke-width="0.0762" x1="166.585" y1="156.986" x2="236.069" y2= "156.986" />
   <path id="_66459440" fill="#CC6633" stroke="#1F1A17" stroke-width="0.0762" stroke-linejoin="round" d="M196.945 156.866c2.0428,-2.4644 1.3898,-3.7567 1.5807,-5.5328 0,-22.4111 0.1378,-45.7181 0.1378,-68.1293 -4.895,-5.2334 -8.194,-12.9615 -9.8616,-15.218 -9.6265,-2.0377 -16.697,-8.0047 -18.3364,-15.0025 1.9633,4.6379 5.6521,11.203 18.332,13.5314 -1.2866,-4.8358 -3.1929,-9.8167 -5.2337,-13.8298 -3.6737,-3.5987 -6.764,-8.4805 -7.0611,-12.3095 0.7508,3.5309 3.4224,7.0542 6.5677,10.5609 0.0358,-4.2888 0.1024,-9.6428 -1.1053,-14.4327 1.5156,4.6537 1.5314,9.3675 2.2159,14.4411 3.8455,8.8982 6.5188,20.2107 14.2249,28.7988 0.618,-6.2175 0.6877,-13.2577 0.2774,-19.4752 -4.0626,-4.5162 -7.0311,-10.195 -8.2901,-15.2583 -3.8268,-2.7653 -5.807,-5.8058 -5.8044,-9.2558 -0.0647,3.3448 3.0616,6.529 6.0454,8.6385 -0.1656,-4.0511 -0.6554,-8.8562 -1.6226,-12.3105 0.6448,2.3029 1.2896,5.6288 1.9343,7.9315 2.304,-2.3985 2.7748,-5.8309 3.5836,-8.4859 -0.5324,3.2175 -0.7108,4.9725 -3.2433,9.9238 0.0253,0.9611 0.2144,2.3388 0.4887,3.2038 0.0249,3.0824 3.4974,9.4123 7.5992,13.4022 0.3853,-5.3424 0.4296,-13.8906 -0.2763,-16.0273l0 0c-0.846,-5.1839 -1.5176,-10.692 -0.5271,-16.0805 -0.492,5.4776 0.5194,11.2767 1.982,16.6191 3.4356,-5.4183 4.9334,-10.8422 5.1771,-15.1843 0.4673,5.3425 -1.5696,9.3313 -4.2832,16.0273 -1.2915,2.4831 -0.2143,10.3129 -0.6936,14.8263 3.5833,-5.1974 10.7339,-14.3593 9.5363,-15.3789 -1.3837,-3.9824 -0.737,-7.8294 -1.1053,-11.7442 0.6447,3.27 0.2932,7.8794 1.9343,11.0281 2.9836,-2.0189 6.6623,-10.0629 6.0681,-12.9963 0.5877,4.2915 -3.1563,12.2951 -5.3434,13.4395 -1.9211,4.5052 -9.7523,15.1587 -10.6727,16.8529 -1.5293,1.0638 -0.5641,17.0269 -0.1382,15.7985 6.2829,-5.9279 15.0815,-13.8656 16.287,-16.6375 -2.3246,-4.3571 -4.3105,-8.4238 -3.5756,-15.1884 -0.076,4.641 0.4657,10.1603 4.145,13.5204 4.0095,-6.096 6.381,-14.9324 7.5117,-21.4566 -0.5066,4.2371 -1.4177,9.9575 -2.6659,14.1945 3.6312,-1.7487 5.5239,-5.421 6.3457,-8.4689 -0.3754,4.5684 -3.9128,7.8517 -6.8243,9.5435 -1.15,3.5463 -3.6484,8.5084 -6.349,11.9198 2.1651,-0.8684 11.6135,-1.4095 14.555,-10.2718 -1.3155,8.7014 -11.1844,10.5687 -15.6684,11.5844 -4.1487,3.825 -9.4626,9.085 -13.4849,14.2528 0.5528,24.1849 1.1055,48.3697 1.6583,72.5546 0.0307,2.3632 0.1681,4.6312 1.5864,6.0813 -2.5361,0 -5.0721,0 -7.6081,0z"/>
   <path id="_65790568" fill="#84C225" fill-opacity="0.501961" d="M226.618 67.0944c16.385,-3.7455 5.3681,-20.6317 5.3681,-20.6317 2.7553,-11.4803 -6.4289,-14.4652 -10.3322,-13.0876 -1.1481,-9.2608 -7.577,-9.3373 -13.0876,-6.429 -4.3625,-5.2044 -10.7915,-5.1278 -14.4652,-0.4592 -8.5719,-2.0664 -15.5367,3.9033 -14.6948,8.9547 -7.1178,-0.4592 -8.0362,5.7401 -6.8882,9.6434 -8.0362,1.5307 -13.7546,18.5701 -1.2806,23.1555 5.763,4.4459 11.6634,4.1986 28.3686,0.1587 16.3031,6.2398 22.0239,3.5385 27.0119,-1.3048z"/>
   <path id="_76724464" fill="none" stroke="#1F1A17" stroke-linejoin="round" d="M171.238 68.2405c-12.5821,-4.688 -6.7556,-21.6248 1.2806,-23.1555 -1.148,-3.9033 -0.2296,-10.1026 6.8882,-9.6434 -0.8419,-5.0514 6.1229,-11.0211 14.6948,-8.9547 3.6737,-4.6686 10.1027,-4.7452 14.4652,0.4592 5.5106,-2.9083 11.9395,-2.8318 13.0876,6.429 3.9033,-1.3776 13.0875,1.6073 10.3322,13.0876 0,0 11.245,16.7722 -5.3681,20.6317"/>
  </g>
  <g id="Br_Horiz" onclick="parent.replacechar('Br_Horiz')" onmousemove="parent.showtooltip('Br_Horiz', 'Branches horizontal')" onmouseout="parent.hidetooltip('Br_Horiz')" cursor="pointer" >
   <line id="_66806264" fill="none" stroke="#1F1A17" stroke-width="0.0762" x1="85.5084" y1="156.38" x2="154.492" y2= "156.38" />
   <path id="_66476824" fill="#CC6633" stroke="#1F1A17" stroke-width="0.0762" d="M113.318 156.38c1.6827,-3.1145 1.9584,-6.1786 2.1174,-9.4292 0.1411,-21.0803 0.0378,-46.5015 -0.0245,-66.7802 -4.4874,-1.7069 -14.6513,-7.3649 -26.3871,-1.6276 11.1074,-6.1644 21.3534,-2.8867 27.2574,-0.8088 0.1134,-3.3266 0.0096,-7.2934 0.123,-10.62 -5.6201,-3.5585 -16.0728,-6.2639 -28.7232,-2.2526 8.326,-4.3749 21.7452,-3.1135 28.6744,1.0378 0.0309,-2.6187 0.123,-7.357 0.1547,-10.1447 -3.4297,-2.8782 -16.2117,-8.9718 -27.4073,-5.1794 8.4438,-4.6899 26.2983,1.7075 27.4307,3.7544 0,-3.573 -0.0137,-6.3243 -0.0137,-9.8973 -8.7412,-4.6573 -13.3507,-5.4407 -22.9051,-6.6676 10.3819,0.5056 14.2833,1.6063 22.9466,5.3557 0.0165,-3.1042 0.1823,-8.0264 0.1507,-10.8549 -4.1898,-1.9182 -8.5695,-3.5354 -13.168,-4.5994 4.3999,0.701 12.4066,3.4961 13.1567,3.9159 0,-0.7334 0.0277,-1.786 0.0277,-2.5194 0.2022,-0.3245 0.7498,-0.3109 0.8527,0.0139l0.1118 3.9884c3.1493,-2.9945 8.4471,-5.3117 13.7773,-5.9065 -6.1168,1.6494 -11.2306,4.4259 -13.7763,6.6626 -0.0189,3.4414 0.1285,2.1736 0.1097,5.615 6.2253,-4.0067 11.8604,-3.8263 21.9371,-0.8851 -8.5829,-0.6234 -13.0377,-3.964 -21.7753,1.9596 0.0187,3.1405 -0.054,7.6119 -0.0352,10.7524 4.1135,-1.9268 14.065,-5.4546 26.8543,-1.6199 -11.9603,-2.2378 -20.6139,-1.0835 -26.7464,2.8921 -0.0188,3.4978 0.0663,6.7914 0.0475,10.2892 5.1115,-3.3223 19.2789,-2.1039 28.8991,1.6254 -11.9259,-3.4337 -22.6003,-2.8805 -28.8288,0.2478 0.0187,3.3662 0.0583,7.1261 0.0771,10.4923 4.9393,-2.6277 20.658,-1.898 27.849,2.6306 -6.5562,-3.1355 -24.756,-3.2271 -27.2084,0.1504 0.0752,22.6982 0.2734,45.9556 0.3487,68.6538 0.0956,3.2311 0.8838,6.9001 2.4933,9.7553 -1.9463,0 -6.4514,0 -8.3976,0z"/>
   <path id="_66481600" fill="#84C225" fill-opacity="0.501961" d="M142.892 82.7256c8.2167,-4.2827 6.2618,-11.4542 1.3381,-14.4111 8.5647,-2.585 5.2541,-11.426 -1.0255,-14.4351 7.7264,-3.8655 3.5773,-10.4879 -3.2225,-11.2785 9.3227,-5.2272 -1.9246,-11.0907 -6.0678,-11.2285 2.0433,-8.9515 -10.6518,-8.3602 -14.5462,-6.4966 -6.4576,-2.5341 -20.1253,-1.6753 -18.7365,6.7118 -8.7046,0.6053 -11.2594,9.0569 -6.392,11.3586 -9.5962,1.5432 -7.847,12.6292 -3.0228,11.9457 -6.885,3.6744 -8.2563,12.7564 0.0212,13.5678 -7.5116,3.8693 -6.6689,13.9945 -0.4701,15.0128 9.6536,1.436 20.8437,0.3199 26.3165,-4.5732 4.4853,4.3036 18.4854,4.7431 25.8076,3.8263z"/>
   <path id="_66731640" fill="none" stroke="#1F1A17" d="M90.7683 83.4725c-6.6524,-1.3586 -7.0415,-11.1435 0.4701,-15.0128 -8.2775,-0.8114 -6.9062,-9.8934 -0.0212,-13.5678 -4.8242,0.6835 -6.5734,-10.4025 3.0228,-11.9457 -4.8674,-2.3017 -2.3126,-10.7533 6.392,-11.3586 -1.3888,-8.3871 12.2789,-9.2459 18.7365,-6.7118 3.8944,-1.8636 16.5895,-2.4549 14.5462,6.4966 4.1432,0.1378 15.3905,6.0013 6.0678,11.2285 6.7998,0.7906 10.9489,7.413 3.2225,11.2785 6.2796,3.0091 9.5902,11.8501 1.0255,14.4351 4.9237,2.9569 6.1982,10.9223 -1.3381,14.4111"/>
  </g>
  <g id="Br_Droop" onclick="parent.replacechar('Br_Droop')" onmousemove="parent.showtooltip('Br_Droop', 'Branches drooping')" onmouseout="parent.hidetooltip('Br_Droop')" cursor="pointer" >
   <line id="_67177008" fill="none" stroke="#1F1A17" stroke-width="0.0762" x1="5.9827" y1="156.834" x2="75.4664" y2= "156.834" />
   <path id="_77229072" fill="#CC6633" stroke="#1F1A17" stroke-width="0.0762" stroke-linejoin="round" d="M35.0283 156.822c1.4082,-2.2261 2.0081,-5.1512 1.9677,-7.1855 0.2825,-19.5668 0.4019,-42.3606 0.5647,-63.679l-7.3231 -15.5775c-9.4954,1.029 -9.6138,-4.4206 -12.6933,-4.5024 -2.145,0.2599 -4.0127,0.7198 -5.9358,4.4592 -0.0162,-1.5173 2.2917,-5.5072 5.6628,-5.5904 0.3839,-4.3892 -6.6828,-7.5215 -7.3445,-1.6717 -0.0967,-3.3966 2.3173,-3.7217 3.1872,-3.764 2.4872,-0.0415 4.6649,2.8141 5.5407,5.655 2.9797,0.1202 2.7644,5.2313 11.1709,4.3628 -1.5459,-2.6037 -3.2516,-5.5044 -4.7976,-8.1082 -1.2205,-0.1099 -2.2871,-0.7264 -2.7927,-1.8578 -2.1306,-3.0687 -5.5667,-11.4245 -6.2863,-11.4114 -5.1837,-4.3879 -9.7724,5.3523 -10.6721,9.8091 1.2028,-5.8379 5.2123,-15.0775 11.9038,-9.8896 4.4042,6.8391 3.8189,8.3588 6.6756,11.1204 -1.8925,-3.4078 -1.9562,-9.8574 -2.5258,-13.3563 -1.475,-4.9325 -10.5929,0.6267 -10.3972,10.7116 -0.8493,-4.0703 3.4048,-16.1592 9.9643,-13.0186 -0.2675,-8.3502 -8.3998,-6.3334 -10.7101,-1.2524 0.6637,-2.8207 3.2581,-5.3209 6.3457,-5.0076 2.497,0.1826 5.4315,0.3304 5.8615,7.342 1.0633,13.9918 0.6604,11.6853 12.16,29.194 0.8547,-0.7014 0.7429,-15.593 0.3209,-17.6258l0 0c-2.7146,-7.471 -5.2738,-22.8619 -6.0732,-23.2415 -0.7121,-2.1296 -7.4636,-5.0647 -7.5966,2.0046 -1.131,-3.801 4.4007,-8.6585 8.4493,-2.2631 2.9498,8.1054 2.872,15.8093 5.569,20.2903 1.7423,-8.5983 -0.442,-19.3207 4.7568,-23.2021 4.5463,-2.5267 9.8066,-1.7669 10.1341,3.1143 -0.2635,-4.3333 -8.2559,-6.7124 -11.4791,0.5466 -0.4901,0.8231 -1.3184,5.7243 -2.0121,20.3611 -0.3727,9.8378 0.3372,18.4237 -1.2146,21.9508 0.6508,1.2205 2.0972,3.9358 2.7482,5.1563 2.7953,-6.7024 4.9357,-11.3187 5.3158,-16.3636 0.4959,-3.1932 0.1671,-21.2359 0.4734,-23.7947 1.9451,-7.044 8.8107,-5.8441 9.6455,-1.4298 -2.2873,-4.0613 -6.7068,-3.8475 -8.8554,1.7067 -0.1208,7.8657 0.2531,17.6413 -0.6557,27.0433 5.7676,-5.834 7.8664,-10.8947 9.3128,-13.4904 2.0315,-8.4772 3.3353,-11.7983 4.1704,-12.2908 0.398,-4.1275 1.4576,-8.4472 3.9907,-9.1723 5.1916,-0.6061 4.5116,5.5212 4.0925,5.2767 1.2091,-4.8273 -6.147,-7.8838 -7.1123,2.9273 5.8441,-3.671 7.3215,4.7164 7.2521,7.9048 -1.1579,-6.528 -3.2497,-9.7534 -7.2955,-6.6244 -1.7014,2.8097 -2.768,7.7442 -4.0391,11.0067 2.7617,-0.8472 7.2177,-0.6084 5.693,9.5935 -0.3414,-9.6353 -3.8372,-9.1156 -5.453,-7.803 -1.3068,1.2987 -2.6563,5.4665 -6.4542,10.1888 -3.1107,3.2272 -5.7873,8.1349 -8.0195,16.064 -0.1772,1.9869 -0.4765,3.6573 0.0953,5.5259 9.061,-7.3119 17.5307,-20.8853 21.1237,-22.1374 1.2172,-4.5277 1.6823,-9.3516 3.237,-10.9963 0.9057,-0.8643 1.6183,-1.4489 2.9218,-1.6635 2.629,0.0161 5.6724,4.0385 4.3596,6.3033 -0.2846,-3.2432 -0.8857,-3.082 -1.0884,-3.5382 -0.9623,-1.3347 -2.9699,-3.054 -5.4734,-0.402 -1.4434,2.3172 -2.3549,8.8465 -3.0105,10.5118 3.9159,0.0657 5.8792,1.8243 5.567,12.8989 -1.2099,-3.7429 0.8506,-12.0338 -5.5446,-11.8389 -3.3591,0.6201 -13.8182,15.4603 -22.0931,23.6917 0.305,19.9694 -0.4634,39.4495 0.5007,59.8999 0.3131,2.4532 1.4986,5.0905 2.5357,7.1444 -3.1135,0.0156 -5.2095,-0.0042 -8.3214,-0.0156z"/>
   <polygon id="_77240008" fill="#CC6633" points="13.6245,46.3324 14.3779,46.4556 13.9958,46.9206 13.3064,46.8418 "/>
   <path id="_65806272" fill="#84C225" fill-opacity="0.501961" d="M67.9881 83.0451c10.6191,-6.6603 7.2057,-18.1994 4.88,-20.7743 6.5955,-6.6052 1.9954,-15.0626 -3.3457,-17.1427 2.7312,-8.275 -5.0817,-22.5138 -16.4016,-15.5392 -3.0897,-6.7877 -16.1665,-7.9953 -19.9884,-2.1056 -4.7382,-3.2983 -13.2451,-0.8178 -16.0203,5.7743 -5.9756,1.4318 -7.9367,7.6675 -6.9712,11.5114 -7.5588,8.7869 -9.5214,23.9109 1.1082,29.554 12.7794,9.054 44.9618,12.363 56.739,8.7221z"/>
   <path id="_77228968" fill="none" stroke="#1F1A17" stroke-width="1.0001" stroke-linejoin="round" d="M11.2491 74.323c-10.4001,-4.3807 -8.667,-20.7671 -1.1082,-29.554 -0.9655,-3.8439 0.9956,-10.0796 6.9712,-11.5114 2.7752,-6.5921 11.2821,-9.0726 16.0203,-5.7743 3.8219,-5.8897 16.8987,-4.6821 19.9884,2.1056 11.3199,-6.9746 19.1328,7.2642 16.4016,15.5392 5.3411,2.0801 9.9412,10.5375 3.3457,17.1427 2.3257,2.5749 5.8138,16.8793 -5.4939,21.0148"/>
  </g>
 </g>
<image xlink:href="tick.gif" id="imgtick" x="-100" y="-100" width="15" height="15"/>
<rect id="recttooltip" x="-100" y="-100" width="55" height="6" fill-opacity="0.4" pointer-events="none"/>
<text id="textboxid" x="-100" y="-100" pointer-events="none"> </text>
</a></svg>
