<?xml version="1.0" encoding="UTF-8"?>
<!DOCTYPE svg PUBLIC "-//W3C//DTD SVG 1.1//EN" "http://www.w3.org/Graphics/SVG/1.1/DTD/svg11.dtd">
<!-- Creator: CorelDRAW -->
<svg xmlns="http://www.w3.org/2000/svg" xml:space="preserve" shape-rendering="geometricPrecision" text-rendering="geometricPrecision" image-rendering="optimizeQuality" fill-rule="evenodd" clip-rule="evenodd"
viewBox="0 0 240 180"
 xmlns:xlink="http://www.w3.org/1999/xlink">
<a>
 <g id="Layer_x0020_1">
  <metadata id="CorelCorpID_0Corel-Layer"/>
  <rect fill="none" width="240" height="180"/>
  <g id="BrSect_Aile" onclick="parent.replacechar('BrSect_Aile')" onmousemove="parent.showtooltip('BrSect_Aile', 'Winged branchelets section')" onmouseout="parent.hidetooltip('BrSect_Aile')" cursor="pointer" >
   <path id="_66729360" fill="#74BE5A" stroke="#1F1A17" stroke-width="0.0762" d="M208.878 46.6702l0.2925 17.0735 -9.3412 0c0,-3.3519 0,-6.7038 0,-10.0556 0.6357,1.6669 6.4582,-3.7825 9.0487,-7.0179z"/>
   <rect id="_66421560" fill="#74BE5A" stroke="#1F1A17" stroke-width="0.0762" x="206.7" y="56.3131" width="9.34121" height="64.515"/>
   <path id="_66728880" fill="#74BE5A" fill-rule="nonzero" stroke="black" stroke-width="0.0762" stroke-linejoin="bevel" d="M194.947 54.9681c-0.6457,22.0633 -0.8521,44.2241 0.5517,66.1898 0.5766,5.9685 15.1301,3.5246 14.9614,-2.1493l0 -64.0405c-5.171,0 -10.342,0 -15.5131,0z"/>
   <rect id="_77226608" fill="#74BE5A" stroke="#1F1A17" stroke-width="0.0762" x="183.905" y="56.1882" width="9.34121" height="64.515"/>
   <path id="_66269888" fill="#74BE5A" stroke="#1F1A17" stroke-width="0.0762" d="M190.721 67.57c1.6943,-2.5666 2.1907,-5.1872 4.2789,-7.7538 0.0358,4.5972 0.4667,57.3691 0.5001,63.7203l-4.7805 9.7934c0,-24.4267 0.0015,-41.3332 0.0015,-65.7599z"/>
   <path id="_76930152" fill="yellow" stroke="#1F1A17" stroke-width="0.0762" d="M208.878 46.6702c-1.5561,2.0394 -2.1022,3.1719 -3.1517,4.2862 2.0158,1.0066 3.2853,2.3308 4.7335,4.0117 2.6204,1.1547 6.1129,1.3288 5.5809,1.345 -1.4648,0.0667 -2.7828,-0.0299 -5.5809,0 -1.0395,5.3651 -8.0699,8.2133 -15.7546,6.7636 -1.4113,1.9436 -2.5554,3.1989 -3.9836,4.4933 0.4155,-1.6243 0.8978,-2.2903 1.9445,-4.637 -3.0959,-1.3096 -4.7699,-2.1146 -4.5908,-6.465 -1.9371,0.0625 -2.7133,-0.2798 -4.1706,-0.2798 0,0 1.9944,-0.4251 4.3651,-0.9012 1.9372,-4.7368 11.6705,-5.2647 15.5556,-5.0349 2.1662,-1.5666 1.7794,-1.8494 5.0526,-3.5819z"/>
   <path id="_66729600" fill="#E77817" fill-rule="nonzero" stroke="black" stroke-width="0.0762" stroke-linejoin="bevel" d="M199.406 61.5535c-5.1191,0.4448 -9.6091,-1.3316 -9.95,-4.0567 -0.3343,-2.6725 3.6128,-5.2351 8.732,-5.6799 5.2508,-0.4563 9.7474,1.3725 10.0817,4.045 0.3409,2.7251 -3.6129,5.2353 -8.8637,5.6916z"/>
  </g>
  <g id="BrSect_Ang" onclick="parent.replacechar('BrSect_Ang')" onmousemove="parent.showtooltip('BrSect_Ang', 'Angular branchelets section')" onmouseout="parent.hidetooltip('BrSect_Ang')" cursor="pointer" >
   <path id="_76993120" fill="#74BE5A" stroke="#1F1A17" stroke-width="0.0762" d="M119.998 52.9743c4.5251,0 9.0502,0 13.5754,0 0.2883,20.1526 0.2192,62.5162 0.2247,65.3484 0.0244,0.554 -0.2985,1.0956 -0.9743,0.904 -1.7196,1.4024 -3.3628,2.7805 -4.9836,3.9474 -1.1978,2.4181 -5.1677,3.2136 -7.891,3.2136l0.0488 -73.4134z"/>
   <path id="_63316944" fill="#74BE5A" fill-rule="nonzero" stroke="black" stroke-width="0.0762" stroke-linejoin="bevel" d="M110.018 59.8012c0,0.9947 -1.5616,-0.3271 -1.5616,0.6677l0 64.8405c2.5592,2.8481 16.8127,3.2314 18.4352,-1.4655l0 -66.1899c-5.5106,0 -11.0213,0 -16.5319,0l-0.3417 2.1472z"/>
   <path id="_66507624" fill="#74BE5A" stroke="#1F1A17" stroke-width="0.0762" d="M106.614 62.6458l1.8421 0 0.2233 62.881c-0.6375,0.49 -1.2554,0.6634 -2.0654,-0.106l0 -62.775z"/>
   <path id="_76724464" fill="yellow" stroke="#1F1A17" stroke-width="0.0762" d="M114.191 52.7898c5.9663,0 11.9326,0 17.8988,0 2.6243,-0.5033 2.6359,2.5505 -0.0024,2.2129 -1.775,2.6207 -2.7383,4.2193 -4.177,6.3489 0.9089,3.361 -2.9612,3.5349 -3.2286,1.4634 -5.3029,0 -10.6058,0 -15.9085,0 -2.268,3.0141 -4.4725,0.4043 -1.1149,-1.3171 1.5024,-2.5075 3.0668,-5.191 4.8534,-7.4924 -1.23,-1.4771 0.8445,-1.6549 1.6792,-1.2157z"/>
   <path id="_66806264" fill="#E77817" stroke="#1F1A17" stroke-width="0.0762" d="M114.117 53.7223c1.9085,-0.4508 14.0404,0.1791 17.1706,-0.049 0.6345,0.5599 -4.5482,8.329 -5.2273,8.3071 -5.2239,-0.1955 -11.7281,-0.0519 -17.0847,-0.1657 0.9924,-1.9947 2.8436,-6.4598 5.1414,-8.0924z"/>
   <path id="_66481600" fill="none" stroke="#1F1A17" stroke-width="0.0762" d="M131.892 57.0264c0.0454,15.7697 0.1453,50.4961 0.1708,59.3298"/>
   <path id="_65763120" fill="none" stroke="#1F1A17" stroke-width="0.0762" d="M125.288 65.427c0.1476,10.6181 0.1714,43.0807 0.1708,57.5911"/>
  </g>
  <g id="BrSect_Rond" onclick="parent.replacechar('BrSect_Rond')" onmousemove="parent.showtooltip('BrSect_Rond', 'Terete branchelets section')" onmouseout="parent.hidetooltip('BrSect_Rond')" cursor="pointer" >
   <path id="_77226328" fill="#74BE5A" fill-rule="nonzero" stroke="black" stroke-width="0.0762" stroke-linejoin="bevel" d="M26.8981 56.6403l0 66.1899c0.9738,5.9685 26.4886,5.6739 26.2037,0l0 -66.1899 -26.2037 0z"/>
   <path id="_65754224" fill="yellow" fill-rule="nonzero" stroke="black" stroke-width="0.0762" stroke-linejoin="bevel" d="M39.9088 60.9178c-7.0902,0 -12.9376,-1.7861 -12.9376,-4.057 0,-2.2271 5.8474,-4.0569 12.9376,-4.0569 7.2725,0 13.1201,1.8298 13.1201,4.0569 0,2.2709 -5.8476,4.057 -13.1201,4.057z"/>
   <path id="_77240112" fill="#E77817" fill-rule="nonzero" stroke="black" stroke-width="0.0762" stroke-linejoin="bevel" d="M39.9301 59.9716c-5.4365,0 -9.9201,-1.3695 -9.9201,-3.1108 0,-1.7076 4.4836,-3.1107 9.9201,-3.1107 5.5764,0 10.0601,1.4031 10.0601,3.1107 0,1.7413 -4.4837,3.1108 -10.0601,3.1108z"/>
  </g>
 </g>
<image xlink:href="tick.gif" id="imgtick" x="-100" y="-100" width="15" height="15"/>
<rect id="recttooltip" x="-100" y="-100" width="55" height="6" fill-opacity="0.4" pointer-events="none"/>
<text id="textboxid" x="-100" y="-100" pointer-events="none"> </text>
</a></svg>
