<?xml version="1.0" encoding="UTF-8"?>
<!DOCTYPE svg PUBLIC "-//W3C//DTD SVG 1.1//EN" "http://www.w3.org/Graphics/SVG/1.1/DTD/svg11.dtd">
<!-- Creator: CorelDRAW -->
<svg xmlns="http://www.w3.org/2000/svg" xml:space="preserve" shape-rendering="geometricPrecision" text-rendering="geometricPrecision" image-rendering="optimizeQuality" fill-rule="evenodd" clip-rule="evenodd"
viewBox="0 0 240 180"
 xmlns:xlink="http://www.w3.org/1999/xlink">
<a>
 <g id="Layer_x0020_1">
  <metadata id="CorelCorpID_0Corel-Layer"/>
  <rect fill="none" width="240" height="180"/>
  <g id="Phyllo_Noclust" onclick="parent.replacechar('Phyllo_Noclust')" onmousemove="parent.showtooltip('Phyllo_Noclust', 'Leaves not clustered at the twig apices')" onmouseout="parent.hidetooltip('Phyllo_Noclust')" cursor="pointer" >
   <path id="axe" fill="#D2A01E" stroke="black" stroke-width="0.0762" d="M182.763 38.1521c0.6823,-3.7913 3.8274,-3.9317 4.4062,0l0 114.799c-1.4671,0.9302 -2.9398,0.9694 -4.4062,0l0 -114.799z"/>
   <g id="composee">
    <path id="_77806768" fill="#009042" stroke="black" stroke-width="0.0762" stroke-linejoin="bevel" d="M174.814 133.604c1.767,-1.9904 3.4936,0.0611 4.6105,2.7828 1.178,2.823 1.7062,6.3777 0.8736,6.6214 -0.9344,0.2233 -3.2703,-1.3203 -4.956,-3.189 -1.6249,-1.8076 -2.6404,-3.9199 -1.3203,-5.2604 0.2642,-0.325 0.5486,-0.65 0.7922,-0.9548z"/>
    <path id="_77062800" fill="#009042" stroke="black" stroke-width="0.0762" stroke-linejoin="bevel" d="M161.693 150.096c-0.4468,-0.325 1.9499,-7.4745 4.7122,-5.626 3.7372,2.9654 -4.2654,5.9715 -4.7122,5.626z"/>
    <path id="_77070216" fill="#009042" stroke="black" stroke-width="0.0762" stroke-linejoin="bevel" d="M171.381 138.804c1.4422,-1.6451 3.0872,-0.3858 3.9607,1.9904 0.9139,2.4172 1.5232,5.6059 0.8532,5.7889 -0.7719,0.1826 -2.9655,-1.4423 -4.2859,-3.2498 -1.2388,-1.7266 -2.1325,-3.2092 -0.528,-4.5295z"/>
    <path id="_66460672" fill="#009042" stroke="black" stroke-width="0.0762" stroke-linejoin="bevel" d="M169.025 142.399c2.3155,-2.214 4.306,5.281 3.2296,5.5042 -1.1172,0.2031 -5.6464,-3.3511 -3.2296,-5.5042z"/>
    <path id="_66274000" fill="#009042" stroke="black" stroke-width="0.0762" stroke-linejoin="bevel" d="M166.71 142.236c0.0205,-2.9859 -6.3777,0.6906 -5.9104,1.5437 0.3452,0.6905 5.8698,1.706 5.9104,-1.5437z"/>
    <path id="_77034968" fill="#009042" stroke="black" stroke-width="0.0762" stroke-linejoin="bevel" d="M171.991 132.609c0.2642,-2.2141 -2.4168,-1.8078 -5.0166,-0.6704 -2.5391,1.0969 -5.0576,2.8641 -4.8341,3.514 0.3046,0.6701 2.3562,1.2794 4.5699,1.2388 2.2546,-0.0608 4.6514,-0.7718 5.2402,-2.7418 0,-0.4468 0.0205,-0.8937 0.0406,-1.3406z"/>
    <path id="_66420456" fill="#009042" stroke="black" stroke-width="0.0762" stroke-linejoin="bevel" d="M169.086 137.666c0.0406,-2.1731 -2.2952,-1.8686 -4.5295,-0.9545 -2.1936,0.9344 -4.3466,2.5388 -4.0622,3.1481 0.2236,0.4674 2.2342,1.0968 4.2858,1.0361 2.0919,-0.0812 4.2042,-0.8937 4.3059,-3.2297z"/>
    <path id="petiole" fill="#005900" stroke="black" stroke-width="0.0762" stroke-linejoin="bevel" d="M184.116 125.5c-1.5235,-1.2798 -3.4123,-0.5282 -5.2201,1.0155 -1.8075,1.503 -3.6153,3.8592 -4.976,5.7885 -0.0611,0.1017 -11.151,2.8842 -11.2117,3.0061 -0.0406,0.0406 10.7443,-2.3155 10.7037,-2.2544 -0.9138,1.3607 -2.2137,3.2293 -3.0262,4.3466 -1.1374,0.345 -7.6981,1.7061 -9.4041,2.4168 -0.0813,0.1423 9.1604,-2.1935 9.2212,-1.9093 -0.142,0.6907 -1.4624,2.9248 -1.9092,3.778 -1.0563,0.2235 -8.2258,2.1123 -6.9059,1.9703 1.7062,-0.1625 6.8857,-2.0311 6.5201,-1.5236 -0.0611,0.4674 -1.0968,1.8687 -2.3359,3.4328 -1.2594,1.5843 -2.7624,3.2904 -3.7373,4.3059 1.4016,-1.2797 2.661,-2.6202 3.7373,-3.8997 1.0766,-1.2999 1.9904,-2.5998 2.7217,-3.7983 0.7516,-0.0607 3.3309,5.1388 3.8389,4.9965 0.0608,-0.1625 -3.3716,-5.2197 -3.4935,-5.4839 0.7514,-1.3201 1.117,-2.0514 1.7873,-3.2905 0.0407,-0.0812 5.2199,7.82 5.4435,7.4339 0.0607,-0.0812 -5.1795,-7.8401 -5.0983,-7.9008 1.0562,-1.5642 1.2186,-2.2749 2.5998,-4.0217 0.2437,-0.1017 6.6621,8.5915 6.7638,8.4495 0.1013,-0.1424 -6.459,-8.9168 -6.4388,-8.9775 1.4624,-1.7672 4.0826,-4.4484 6.5807,-6.0527 2.4985,-1.6454 4.8747,-2.2547 5.8496,0.2031 -0.1218,-0.975 -1.2999,-1.8485 -2.0106,-2.0311z"/>
   </g>
   <g id="composee_0">
    <path id="_77059216" fill="#009042" stroke="black" stroke-width="0.0762" stroke-linejoin="bevel" d="M195.261 102.161c-1.767,-1.9904 -3.4935,0.0611 -4.6105,2.7829 -1.178,2.823 -1.7061,6.3776 -0.8736,6.6213 0.9344,0.2233 3.2703,-1.3203 4.956,-3.1889 1.6249,-1.8076 2.6404,-3.9199 1.3203,-5.2604 -0.2642,-0.325 -0.5486,-0.65 -0.7922,-0.9549z"/>
    <path id="_77036408" fill="#009042" stroke="black" stroke-width="0.0762" stroke-linejoin="bevel" d="M208.381 118.653c0.4468,-0.325 -1.9499,-7.4745 -4.7121,-5.6261 -3.7373,2.9655 4.2653,5.9715 4.7121,5.6261z"/>
    <path id="_77066624" fill="#009042" stroke="black" stroke-width="0.0762" stroke-linejoin="bevel" d="M198.693 107.36c-1.4422,-1.645 -3.0872,-0.3858 -3.9607,1.9905 -0.9139,2.4172 -1.5232,5.6059 -0.8531,5.7888 0.7718,0.1826 2.9654,-1.4423 4.2858,-3.2498 1.2388,-1.7266 2.1325,-3.2091 0.528,-4.5295z"/>
    <path id="_77814336" fill="#009042" stroke="black" stroke-width="0.0762" stroke-linejoin="bevel" d="M201.049 110.956c-2.3155,-2.214 -4.306,5.2809 -3.2296,5.5041 1.1172,0.2031 5.6464,-3.3511 3.2296,-5.5041z"/>
    <path id="_65790608" fill="#009042" stroke="black" stroke-width="0.0762" stroke-linejoin="bevel" d="M203.365 110.793c-0.0204,-2.986 6.3777,0.6905 5.9104,1.5436 -0.3452,0.6905 -5.8698,1.7061 -5.9104,-1.5436z"/>
    <path id="_67097520" fill="#009042" stroke="black" stroke-width="0.0762" stroke-linejoin="bevel" d="M198.084 101.166c-0.2642,-2.2141 2.4168,-1.8079 5.0166,-0.6705 2.5391,1.0969 5.0576,2.8641 4.8341,3.514 -0.3046,0.6702 -2.3562,1.2795 -4.5699,1.2388 -2.2546,-0.0608 -4.6514,-0.7717 -5.2402,-2.7418 0,-0.4468 -0.0205,-0.8937 -0.0406,-1.3405z"/>
    <path id="_66499136" fill="#009042" stroke="black" stroke-width="0.0762" stroke-linejoin="bevel" d="M200.988 106.223c-0.0406,-2.1731 2.2953,-1.8685 4.5295,-0.9544 2.1936,0.9344 4.3466,2.5387 4.0622,3.1481 -0.2236,0.4673 -2.2342,1.0968 -4.2858,1.036 -2.0919,-0.0812 -4.2042,-0.8937 -4.3059,-3.2297z"/>
    <path id="petiole_1" fill="#005900" stroke="black" stroke-width="0.0762" stroke-linejoin="bevel" d="M185.958 94.0568c1.5235,-1.2797 3.4123,-0.5281 5.2201,1.0155 1.8075,1.5031 3.6153,3.8592 4.976,5.7885 0.0611,0.1017 11.151,2.8842 11.2117,3.0061 0.0406,0.0406 -10.7443,-2.3154 -10.7037,-2.2544 0.9138,1.3607 2.2137,3.2293 3.0262,4.3466 1.1374,0.3451 7.6981,1.7062 9.4041,2.4169 0.0813,0.1423 -9.1604,-2.1936 -9.2211,-1.9093 0.1419,0.6906 1.4624,2.9248 1.9091,3.7779 1.0563,0.2236 8.2258,2.1123 6.9059,1.9703 -1.7062,-0.1625 -6.8857,-2.0311 -6.5201,-1.5235 0.0611,0.4673 1.0968,1.8686 2.3359,3.4327 1.2594,1.5843 2.7624,3.2904 3.7373,4.306 -1.4016,-1.2798 -2.661,-2.6203 -3.7373,-3.8997 -1.0766,-1.2999 -1.9904,-2.5998 -2.7217,-3.7984 -0.7516,-0.0607 -3.3309,5.1389 -3.8389,4.9966 -0.0608,-0.1625 3.3716,-5.2198 3.4935,-5.484 -0.7513,-1.3201 -1.117,-2.0513 -1.7873,-3.2904 -0.0406,-0.0813 -5.2199,7.8199 -5.4434,7.4338 -0.0608,-0.0812 5.1795,-7.8401 5.0982,-7.9008 -1.0561,-1.5642 -1.2186,-2.2749 -2.5998,-4.0216 -0.2437,-0.1017 -6.6621,8.5914 -6.7638,8.4494 -0.1013,-0.1424 6.459,-8.9168 6.4388,-8.9775 -1.4624,-1.7672 -4.0826,-4.4483 -6.5807,-6.0527 -2.4985,-1.6453 -4.8747,-2.2547 -5.8496,0.2032 0.1218,-0.975 1.2999,-1.8485 2.0106,-2.0312z"/>
   </g>
   <g id="composee_2">
    <path id="_66385744" fill="#009042" stroke="black" stroke-width="0.0762" stroke-linejoin="bevel" d="M172.269 74.201c2.2214,-1.4661 3.3591,0.9619 3.7346,3.8799 0.4083,3.0315 -0.0002,6.6019 -0.8675,6.6221 -0.9604,-0.0257 -2.8179,-2.1207 -3.9633,-4.3615 -1.1025,-2.1662 -1.5376,-4.4692 0.0841,-5.4229 0.3392,-0.2457 0.698,-0.4862 1.0121,-0.7176z"/>
    <path id="_66449424" fill="#009042" stroke="black" stroke-width="0.0762" stroke-linejoin="bevel" d="M155.331 86.7418c-0.3476,-0.4294 3.8156,-6.7165 6.0062,-4.2169 2.8439,3.8306 -5.6638,4.6662 -6.0062,4.2169z"/>
    <path id="_76524808" fill="#009042" stroke="black" stroke-width="0.0762" stroke-linejoin="bevel" d="M167.609 78.3367c1.8184,-1.2164 3.082,0.4253 3.3117,2.9465 0.258,2.5713 0.0225,5.8092 -0.6721,5.8127 -0.7928,-0.0231 -2.4919,-2.1597 -3.3003,-4.2471 -0.7504,-1.9881 -1.2305,-3.6513 0.6607,-4.5121z"/>
    <path id="_66845280" fill="#009042" stroke="black" stroke-width="0.0762" stroke-linejoin="bevel" d="M164.404 81.2007c2.809,-1.5403 2.7947,6.2145 1.6972,6.1519 -1.1317,-0.0925 -4.5884,-4.6967 -1.6972,-6.1519z"/>
    <path id="_77223888" fill="#009042" stroke="black" stroke-width="0.0762" stroke-linejoin="bevel" d="M162.209 80.4454c0.7915,-2.8792 -6.3395,-0.9814 -6.1085,-0.0364 0.1549,0.7562 5.2293,3.1652 6.1085,0.0364z"/>
    <path id="_77299168" fill="#009042" stroke="black" stroke-width="0.0762" stroke-linejoin="bevel" d="M169.799 72.5099c0.8275,-2.0705 -1.8675,-2.371 -4.6729,-1.9442 -2.7363,0.4033 -5.6261,1.4595 -5.5781,2.1451 0.121,0.7261 1.9454,1.845 4.0944,2.3779 2.1938,0.524 4.6928,0.4567 5.7709,-1.2943 0.1154,-0.4316 0.2507,-0.858 0.3857,-1.2845z"/>
    <path id="_76876976" fill="#009042" stroke="black" stroke-width="0.0762" stroke-linejoin="bevel" d="M165.686 76.6447c0.6009,-2.0888 -1.7343,-2.3983 -4.1289,-2.0927 -2.3605,0.3356 -4.8551,1.329 -4.7379,1.9911 0.0952,0.5093 1.8748,1.637 3.8724,2.1086 2.0419,0.4622 4.2924,0.2233 4.9944,-2.007z"/>
    <path id="petiole_3" fill="#005900" stroke="black" stroke-width="0.0762" stroke-linejoin="bevel" d="M183.35 68.7768c-1.1409,-1.63 -3.1598,-1.3922 -5.3052,-0.3682 -2.1346,0.9847 -4.49,2.7935 -6.3031,4.3056 -0.0853,0.0825 -11.5175,-0.0959 -11.6077,0.0061 -0.0497,0.0288 10.9778,0.5403 10.9227,0.5888 -1.2344,1.0783 -2.9731,2.5474 -4.0468,3.4167 -1.1879,0.0394 -7.8774,-0.3415 -9.7092,-0.0959 -0.1153,0.1165 9.4161,0.2486 9.4013,0.539 -0.3156,0.6304 -2.1687,2.4474 -2.8208,3.156 -1.0781,-0.057 -8.4922,-0.0855 -7.1804,0.1185 1.6902,0.284 7.1767,-0.1824 6.6923,0.2134 -0.1798,0.4357 -1.5425,1.5217 -3.1438,2.7124 -1.626,1.2049 -3.519,2.4646 -4.7232,3.1936 1.6847,-0.8739 3.2478,-1.8434 4.6182,-2.8012 1.376,-0.9774 2.5948,-1.997 3.6109,-2.9658 0.7418,0.1356 1.8896,5.8252 2.4171,5.819 0.1007,-0.1413 -1.9079,-5.9139 -1.9574,-6.2006 1.067,-1.081 1.6092,-1.6929 2.5771,-2.7166 0.0602,-0.068 3.0213,8.9033 3.337,8.5882 0.0797,-0.0628 -2.9771,-8.9125 -2.8829,-8.9501 1.4246,-1.2381 1.7652,-1.8826 3.5509,-3.213 0.2618,-0.0353 4.2151,10.0214 4.3501,9.9105 0.1347,-0.1114 -3.9348,-10.2832 -3.8997,-10.3366 1.8695,-1.3292 5.0937,-3.242 7.9216,-4.1462 2.8388,-0.9437 5.2918,-0.9181 5.5983,1.7082 0.1344,-0.9734 -0.7779,-2.1217 -1.4173,-2.4818z"/>
   </g>
   <g id="composee_4">
    <path id="_66272208" fill="#009042" stroke="black" stroke-width="0.0762" stroke-linejoin="bevel" d="M195.388 48.9275c-1.5271,-1.7202 -3.0194,0.0528 -3.9847,2.4052 -1.0182,2.4398 -1.4746,5.512 -0.755,5.7226 0.8075,0.193 2.8264,-1.1411 4.2832,-2.7561 1.4044,-1.5623 2.2821,-3.3879 1.1412,-4.5464 -0.2283,-0.2809 -0.4741,-0.5618 -0.6847,-0.8253z"/>
    <path id="_76633024" fill="#009042" stroke="black" stroke-width="0.0762" stroke-linejoin="bevel" d="M206.728 63.1817c0.3861,-0.2809 -1.6853,-6.46 -4.0727,-4.8625 -3.23,2.563 3.6864,5.161 4.0727,4.8625z"/>
    <path id="_76568504" fill="#009042" stroke="black" stroke-width="0.0762" stroke-linejoin="bevel" d="M198.355 53.4215c-1.2464,-1.4218 -2.6681,-0.3334 -3.4232,1.7203 -0.7897,2.0891 -1.3164,4.845 -0.7373,5.0031 0.6671,0.1578 2.563,-1.2465 3.7042,-2.8087 1.0707,-1.4922 1.843,-2.7736 0.4563,-3.9147z"/>
    <path id="_66520200" fill="#009042" stroke="black" stroke-width="0.0762" stroke-linejoin="bevel" d="M200.391 56.5287c-2.0013,-1.9135 -3.7215,4.5641 -2.7913,4.757 0.9656,0.1756 4.8801,-2.8962 2.7913,-4.757z"/>
    <path id="_65832712" fill="#009042" stroke="black" stroke-width="0.0762" stroke-linejoin="bevel" d="M202.392 56.3883c-0.0176,-2.5807 5.5121,0.5968 5.1082,1.3341 -0.2983,0.5968 -5.0731,1.4745 -5.1082,-1.3341z"/>
    <path id="_66486080" fill="#009042" stroke="black" stroke-width="0.0762" stroke-linejoin="bevel" d="M197.828 48.0675c-0.2284,-1.9136 2.0888,-1.5624 4.3357,-0.5794 2.1945,0.948 4.3712,2.4753 4.1779,3.037 -0.2632,0.5792 -2.0363,1.1058 -3.9496,1.0707 -1.9486,-0.0525 -4.02,-0.667 -4.5289,-2.3697 0,-0.3861 -0.0177,-0.7724 -0.0351,-1.1586z"/>
    <path id="_76539936" fill="#009042" stroke="black" stroke-width="0.0762" stroke-linejoin="bevel" d="M200.338 52.4384c-0.0351,-1.8782 1.9837,-1.615 3.9147,-0.8249 1.8959,0.8075 3.7566,2.1941 3.5109,2.7208 -0.1933,0.4039 -1.931,0.9479 -3.7041,0.8954 -1.808,-0.0702 -3.6336,-0.7724 -3.7215,-2.7913z"/>
    <path id="petiole_5" fill="#005900" stroke="black" stroke-width="0.0762" stroke-linejoin="bevel" d="M187.348 41.9235c1.3167,-1.106 2.9491,-0.4564 4.5116,0.8777 1.5622,1.299 3.1246,3.3354 4.3006,5.0029 0.0528,0.0879 9.6375,2.4927 9.69,2.598 0.0351,0.0351 -9.2861,-2.0011 -9.2509,-1.9484 0.7897,1.1761 1.9132,2.791 2.6154,3.7567 0.9831,0.2982 6.6532,1.4745 8.1277,2.0888 0.0703,0.123 -7.9171,-1.8958 -7.9696,-1.6502 0.1227,0.5969 1.264,2.5279 1.6501,3.2652 0.9129,0.1932 7.1093,1.8256 5.9685,1.7029 -1.4746,-0.1404 -5.9511,-1.7555 -5.6351,-1.3168 0.0528,0.4039 0.9479,1.615 2.0189,2.9669 1.0884,1.3692 2.3874,2.8438 3.23,3.7215 -1.2114,-1.1061 -2.2998,-2.2646 -3.23,-3.3704 -0.9305,-1.1235 -1.7203,-2.247 -2.3523,-3.2829 -0.6496,-0.0524 -2.8789,4.4414 -3.3179,4.3184 -0.0525,-0.1404 2.914,-4.5113 3.0193,-4.7396 -0.6493,-1.1409 -0.9653,-1.7729 -1.5447,-2.8438 -0.0351,-0.0702 -4.5114,6.7585 -4.7046,6.4249 -0.0525,-0.0703 4.4765,-6.776 4.4063,-6.8285 -0.9128,-1.3519 -1.0532,-1.9661 -2.2469,-3.4758 -0.2107,-0.0879 -5.7579,7.4253 -5.8458,7.3026 -0.0876,-0.123 5.5823,-7.7065 5.5649,-7.759 -1.2639,-1.5273 -3.5285,-3.8446 -5.6876,-5.2312 -2.1593,-1.422 -4.213,-1.9487 -5.0556,0.1756 0.1052,-0.8427 1.1235,-1.5976 1.7377,-1.7555z"/>
   </g>
  </g>
  <g id="Phyllo_Clust" onclick="parent.replacechar('Phyllo_Clust')" onmousemove="parent.showtooltip('Phyllo_Clust', 'Leaves clustered at the twig ends')" onmouseout="parent.hidetooltip('Phyllo_Clust')" cursor="pointer" >
   <path id="axe_6" fill="#D2A01E" stroke="black" stroke-width="0.0762" d="M60.7502 45.3743c0.6823,-3.7913 3.8273,-3.9317 4.4062,0l0 114.799c-1.4671,0.9302 -2.9398,0.9694 -4.4062,0l0 -114.799z"/>
   <g id="composee_7">
    <path id="_66397680" fill="#009042" stroke="black" stroke-width="0.0762" stroke-linejoin="bevel" d="M74.2925 64.1596c-1.767,-1.9904 -3.4936,0.0611 -4.6105,2.7829 -1.178,2.823 -1.7062,6.3776 -0.8736,6.6213 0.9344,0.2233 3.2703,-1.3203 4.956,-3.189 1.6249,-1.8075 2.6404,-3.9198 1.3203,-5.2603 -0.2642,-0.325 -0.5486,-0.65 -0.7922,-0.9549z"/>
    <path id="_66397728" fill="#009042" stroke="black" stroke-width="0.0762" stroke-linejoin="bevel" d="M87.4134 80.6523c0.4468,-0.325 -1.9499,-7.4745 -4.7122,-5.6261 -3.7372,2.9655 4.2654,5.9715 4.7122,5.6261z"/>
    <path id="_66386592" fill="#009042" stroke="black" stroke-width="0.0762" stroke-linejoin="bevel" d="M77.7251 69.3593c-1.4422,-1.645 -3.0872,-0.3858 -3.9607,1.9904 -0.9139,2.4173 -1.5232,5.606 -0.8532,5.7889 0.7719,0.1826 2.9655,-1.4423 4.2859,-3.2498 1.2388,-1.7266 2.1325,-3.2091 0.528,-4.5295z"/>
    <path id="_77128776" fill="#009042" stroke="black" stroke-width="0.0762" stroke-linejoin="bevel" d="M80.0813 72.9545c-2.3155,-2.214 -4.306,5.2809 -3.2296,5.5041 1.1172,0.2031 5.6464,-3.3511 3.2296,-5.5041z"/>
    <path id="_65779640" fill="#009042" stroke="black" stroke-width="0.0762" stroke-linejoin="bevel" d="M82.3967 72.7921c-0.0205,-2.986 6.3777,0.6905 5.9104,1.5436 -0.3452,0.6905 -5.8698,1.7061 -5.9104,-1.5436z"/>
    <path id="_66739488" fill="#009042" stroke="black" stroke-width="0.0762" stroke-linejoin="bevel" d="M77.1159 63.1646c-0.2642,-2.2141 2.4168,-1.8079 5.0166,-0.6705 2.5391,1.0969 5.0576,2.8641 4.8341,3.514 -0.3046,0.6702 -2.3562,1.2795 -4.5699,1.2388 -2.2546,-0.0608 -4.6514,-0.7717 -5.2402,-2.7418 0,-0.4468 -0.0205,-0.8937 -0.0406,-1.3405z"/>
    <path id="_76669696" fill="#009042" stroke="black" stroke-width="0.0762" stroke-linejoin="bevel" d="M80.0202 68.2218c-0.0406,-2.1731 2.2952,-1.8685 4.5295,-0.9544 2.1936,0.9344 4.3466,2.5387 4.0622,3.1481 -0.2236,0.4673 -2.2342,1.0967 -4.2858,1.036 -2.0919,-0.0812 -4.2042,-0.8937 -4.3059,-3.2297z"/>
    <path id="petiole_8" fill="#005900" stroke="black" stroke-width="0.0762" stroke-linejoin="bevel" d="M64.99 56.0557c1.5235,-1.2797 3.4123,-0.5281 5.2201,1.0155 1.8075,1.5031 3.6153,3.8592 4.976,5.7885 0.0611,0.1017 11.151,2.8842 11.2117,3.0061 0.0406,0.0406 -10.7443,-2.3154 -10.7037,-2.2544 0.9138,1.3607 2.2137,3.2293 3.0262,4.3466 1.1374,0.3451 7.6981,1.7061 9.4041,2.4168 0.0813,0.1424 -9.1604,-2.1935 -9.2212,-1.9092 0.142,0.6906 1.4624,2.9248 1.9092,3.7779 1.0563,0.2236 8.2258,2.1123 6.9059,1.9703 -1.7062,-0.1625 -6.8857,-2.0311 -6.5201,-1.5235 0.0611,0.4673 1.0968,1.8686 2.3359,3.4327 1.2594,1.5843 2.7624,3.2904 3.7373,4.306 -1.4016,-1.2798 -2.661,-2.6203 -3.7373,-3.8997 -1.0766,-1.2999 -1.9904,-2.5998 -2.7217,-3.7984 -0.7516,-0.0607 -3.3309,5.1389 -3.8389,4.9966 -0.0608,-0.1625 3.3716,-5.2198 3.4935,-5.484 -0.7514,-1.3201 -1.117,-2.0513 -1.7873,-3.2904 -0.0407,-0.0813 -5.2199,7.8199 -5.4435,7.4338 -0.0607,-0.0812 5.1795,-7.8401 5.0983,-7.9008 -1.0561,-1.5642 -1.2186,-2.2749 -2.5998,-4.0216 -0.2437,-0.1017 -6.6621,8.5914 -6.7638,8.4494 -0.1013,-0.1424 6.459,-8.9168 6.4388,-8.9775 -1.4624,-1.7672 -4.0826,-4.4483 -6.5807,-6.0527 -2.4985,-1.6453 -4.8747,-2.2547 -5.8496,0.2031 0.1218,-0.9749 1.2999,-1.8484 2.0106,-2.0311z"/>
   </g>
   <g id="composee_9">
    <path id="_63375488" fill="#009042" stroke="black" stroke-width="0.0762" stroke-linejoin="bevel" d="M52.1488 67.3854c1.7669,-1.9905 3.4935,0.061 4.6105,2.7828 1.178,2.823 1.7061,6.3776 0.8736,6.6214 -0.9344,0.2233 -3.2703,-1.3204 -4.956,-3.189 -1.6249,-1.8076 -2.6404,-3.9199 -1.3203,-5.2604 0.2642,-0.325 0.5485,-0.65 0.7922,-0.9548z"/>
    <path id="_66522032" fill="#009042" stroke="black" stroke-width="0.0762" stroke-linejoin="bevel" d="M39.0279 83.878c-0.4468,-0.325 1.9499,-7.4745 4.7121,-5.626 3.7373,2.9654 -4.2653,5.9714 -4.7121,5.626z"/>
    <path id="_66882800" fill="#009042" stroke="black" stroke-width="0.0762" stroke-linejoin="bevel" d="M48.7162 72.5851c1.4422,-1.6451 3.0872,-0.3858 3.9607,1.9904 0.9139,2.4172 1.5232,5.6059 0.8531,5.7889 -0.7718,0.1825 -2.9654,-1.4424 -4.2858,-3.2498 -1.2388,-1.7266 -2.1325,-3.2092 -0.528,-4.5295z"/>
    <path id="_66375272" fill="#009042" stroke="black" stroke-width="0.0762" stroke-linejoin="bevel" d="M46.36 76.1802c2.3155,-2.214 4.306,5.2809 3.2296,5.5041 -1.1172,0.2032 -5.6464,-3.3511 -3.2296,-5.5041z"/>
    <path id="_77067808" fill="#009042" stroke="black" stroke-width="0.0762" stroke-linejoin="bevel" d="M44.0446 76.0178c0.0204,-2.986 -6.3777,0.6905 -5.9104,1.5436 0.3452,0.6906 5.8698,1.7061 5.9104,-1.5436z"/>
    <path id="_77066840" fill="#009042" stroke="black" stroke-width="0.0762" stroke-linejoin="bevel" d="M49.3254 66.3903c0.2642,-2.2141 -2.4168,-1.8079 -5.0166,-0.6705 -2.5391,1.0969 -5.0576,2.8641 -4.8341,3.514 0.3046,0.6702 2.3562,1.2795 4.5699,1.2389 2.2546,-0.0608 4.6514,-0.7718 5.2402,-2.7419 0,-0.4468 0.0205,-0.8936 0.0406,-1.3405z"/>
    <path id="_77064016" fill="#009042" stroke="black" stroke-width="0.0762" stroke-linejoin="bevel" d="M46.4211 71.4476c0.0406,-2.1731 -2.2953,-1.8686 -4.5295,-0.9545 -2.1936,0.9344 -4.3466,2.5387 -4.0622,3.1481 0.2236,0.4673 2.2342,1.0968 4.2858,1.0361 2.0919,-0.0813 4.2042,-0.8938 4.3059,-3.2297z"/>
    <path id="petiole_10" fill="#005900" stroke="black" stroke-width="0.0762" stroke-linejoin="bevel" d="M61.4513 59.2814c-1.5235,-1.2797 -3.4123,-0.5281 -5.2201,1.0156 -1.8075,1.503 -3.6153,3.8591 -4.976,5.7885 -0.0611,0.1017 -11.151,2.8841 -11.2117,3.006 -0.0406,0.0406 10.7443,-2.3154 10.7037,-2.2543 -0.9138,1.3607 -2.2137,3.2292 -3.0262,4.3465 -1.1374,0.3451 -7.6981,1.7062 -9.4041,2.4169 -0.0813,0.1423 9.1604,-2.1936 9.2211,-1.9093 -0.1419,0.6906 -1.4624,2.9248 -1.9091,3.7779 -1.0563,0.2236 -8.2258,2.1123 -6.9059,1.9704 1.7062,-0.1625 6.8857,-2.0312 6.5201,-1.5236 -0.0611,0.4673 -1.0968,1.8686 -2.3359,3.4327 -1.2594,1.5843 -2.7624,3.2905 -3.7373,4.306 1.4016,-1.2797 2.661,-2.6203 3.7373,-3.8997 1.0766,-1.2999 1.9904,-2.5998 2.7217,-3.7984 0.7516,-0.0607 3.3309,5.1389 3.8389,4.9966 0.0608,-0.1625 -3.3716,-5.2198 -3.4935,-5.484 0.7513,-1.3201 1.117,-2.0513 1.7873,-3.2904 0.0406,-0.0812 5.2199,7.8199 5.4434,7.4339 0.0608,-0.0813 -5.1795,-7.8401 -5.0982,-7.9008 1.0561,-1.5642 1.2186,-2.2749 2.5998,-4.0217 0.2437,-0.1017 6.6621,8.5914 6.7638,8.4495 0.1013,-0.1425 -6.459,-8.9168 -6.4388,-8.9775 1.4624,-1.7673 4.0826,-4.4484 6.5807,-6.0527 2.4985,-1.6454 4.8747,-2.2548 5.8496,0.2031 -0.1218,-0.975 -1.2999,-1.8485 -2.0106,-2.0312z"/>
   </g>
   <g id="composee_11">
    <path id="_66904560" fill="#009042" stroke="black" stroke-width="0.0762" stroke-linejoin="bevel" d="M50.8138 50.4832c2.6212,0.4615 1.7791,3.0072 0.0467,5.3851 -1.7867,2.4829 -4.537,4.7959 -5.181,4.2146 -0.6799,-0.6787 -0.5897,-3.4771 0.1181,-5.8921 0.6877,-2.3313 1.9543,-4.3033 3.7878,-3.8818 0.4153,0.0547 0.8411,0.1265 1.2284,0.1742z"/>
    <path id="_77223384" fill="#009042" stroke="black" stroke-width="0.0762" stroke-linejoin="bevel" d="M29.8909 47.9539c0.0426,-0.5508 7.3875,-2.2572 7.2612,1.0641 -0.5665,4.7371 -7.3212,-0.5024 -7.2612,-1.0641z"/>
    <path id="_65040088" fill="#009042" stroke="black" stroke-width="0.0762" stroke-linejoin="bevel" d="M44.5864 50.2854c2.1569,0.3659 1.9467,2.4269 0.381,4.4164 -1.5796,2.0452 -3.9758,4.2355 -4.4828,3.7608 -0.5601,-0.5616 -0.326,-3.2814 0.5211,-5.3533 0.8211,-1.9601 1.6153,-3.4982 3.5807,-2.8239z"/>
    <path id="_77217040" fill="#009042" stroke="black" stroke-width="0.0762" stroke-linejoin="bevel" d="M40.2897 50.1633c3.0992,0.8114 -2.2404,6.4351 -2.9946,5.6354 -0.7586,-0.845 -0.1058,-6.5651 2.9946,-5.6354z"/>
    <path id="_76425672" fill="#009042" stroke="black" stroke-width="0.0762" stroke-linejoin="bevel" d="M39.2144 48.1063c2.5536,-1.5477 -3.931,-5.0695 -4.4126,-4.2243 -0.4072,0.6559 1.6237,5.8931 4.4126,4.2243z"/>
    <path id="_27591144" fill="#009042" stroke="black" stroke-width="0.0762" stroke-linejoin="bevel" d="M50.1813 47.5572c2.0241,-0.9355 0.2728,-3.0058 -2.0585,-4.6237 -2.265,-1.5874 -5.0901,-2.8059 -5.5264,-2.2749 -0.4111,0.6107 0.1454,2.6772 1.3403,4.5412 1.2336,1.8882 3.0953,3.5567 5.0817,3.0255 0.3805,-0.2342 0.7718,-0.451 1.1629,-0.6681z"/>
    <path id="_27627704" fill="#009042" stroke="black" stroke-width="0.0762" stroke-linejoin="bevel" d="M44.3521 47.7346c1.872,-1.1044 0.3882,-2.9341 -1.5613,-4.3577 -1.9455,-1.3783 -4.4404,-2.3709 -4.8102,-1.8093 -0.2808,0.4353 0.237,2.4775 1.364,4.1929 1.1657,1.7389 2.9649,3.1119 5.0075,1.9741z"/>
    <path id="petiole_12" fill="#005900" stroke="black" stroke-width="0.0762" stroke-linejoin="bevel" d="M62.5913 54.1577c0.2913,-1.9682 -1.3389,-3.1828 -3.6011,-3.9133 -2.2274,-0.7514 -5.1815,-1.056 -7.5378,-1.2036 -0.1186,0.0013 -8.3011,-7.9846 -8.4367,-7.9724 -0.0559,-0.0133 7.6036,7.9365 7.5303,7.9339 -1.6378,-0.065 -3.9104,-0.1926 -5.2878,-0.2989 -0.8901,-0.7878 -5.488,-5.6616 -6.9875,-6.742 -0.1638,0.0055 6.6696,6.6515 6.4593,6.8522 -0.6626,0.2411 -3.2573,0.2877 -4.2181,0.3544 -0.744,-0.7824 -6.1105,-5.8981 -5.2977,-4.8484 1.0327,1.3678 5.3389,4.7993 4.715,4.754 -0.43,0.1929 -2.1662,0.0454 -4.1477,-0.19 -2.0093,-0.2421 -4.2501,-0.6278 -5.626,-0.9258 1.8245,0.5229 3.6262,0.8928 5.28,1.1387 1.6713,0.2355 3.2573,0.3324 4.6614,0.3269 0.4456,0.6083 -2.6305,5.5303 -2.243,5.8883 0.1702,-0.0334 2.678,-5.6073 2.8391,-5.8496 1.518,-0.052 2.3324,-0.124 3.739,-0.2026 0.0905,-0.0079 -3.9236,8.5443 -3.4776,8.5323 0.101,0.0091 3.9619,-8.5204 4.0562,-8.4831 1.8857,0.0796 2.5761,-0.1545 4.7876,0.1061 0.2144,0.1543 -3.8246,10.1768 -3.6504,10.189 0.1744,0.0117 4.2082,-10.1744 4.2705,-10.189 2.2715,0.3191 5.9282,1.1452 8.6039,2.4317 2.7108,1.2653 4.4753,2.9696 2.8932,5.0881 0.7665,-0.6147 0.8928,-2.0759 0.6759,-2.7769z"/>
   </g>
   <g id="composee_13">
    <path id="_66439792" fill="#009042" stroke="black" stroke-width="0.0762" stroke-linejoin="bevel" d="M72.9277 44.0497c-2.1157,1.0422 -0.7683,2.9993 1.2948,4.5929 2.1354,1.6696 5.0484,2.9557 5.4523,2.3016 0.4102,-0.7459 -0.3601,-3.1043 -1.5608,-4.9835 -1.1627,-1.8129 -2.729,-3.1767 -4.1844,-2.3636 -0.3397,0.1494 -0.6842,0.316 -1.0019,0.4526z"/>
    <path id="_67141648" fill="#009042" stroke="black" stroke-width="0.0762" stroke-linejoin="bevel" d="M90.1011 36.7126c-0.1728,-0.458 -6.8444,-0.0895 -5.9138,2.7048 1.6559,3.8897 6.1039,-2.2418 5.9138,-2.7048z"/>
    <path id="_66805872" fill="#009042" stroke="black" stroke-width="0.0762" stroke-linejoin="bevel" d="M78.1767 42.3381c-1.7444,0.8458 -1.0548,2.5471 0.7703,3.8516 1.8507,1.3485 4.4321,2.6181 4.7458,2.0886 0.3373,-0.6166 -0.5359,-2.8725 -1.7701,-4.4252 -1.1842,-1.464 -2.2411,-2.5758 -3.746,-1.515z"/>
    <path id="_66480576" fill="#009042" stroke="black" stroke-width="0.0762" stroke-linejoin="bevel" d="M81.8018 41.1693c-2.4355,1.4584 3.5008,4.9195 3.9443,4.0523 0.4359,-0.9069 -1.5371,-5.6116 -3.9443,-4.0523z"/>
    <path id="_66279600" fill="#009042" stroke="black" stroke-width="0.0762" stroke-linejoin="bevel" d="M82.2069 39.1529c-2.5561,-0.6839 2.0879,-5.2871 2.7071,-4.6874 0.5089,0.4571 0.079,5.4159 -2.7071,4.6874z"/>
    <path id="_77014536" fill="#009042" stroke="black" stroke-width="0.0762" stroke-linejoin="bevel" d="M72.7406 41.4037c-1.9538,-0.2943 -0.977,-2.4897 0.6055,-4.4438 1.5335,-1.9118 3.635,-3.6487 4.1378,-3.305 0.5011,0.4176 0.5398,2.3137 -0.0149,4.1956 -0.5815,1.9121 -1.7519,3.7929 -3.5735,3.8333 -0.3817,-0.1049 -0.7683,-0.1924 -1.1549,-0.2801z"/>
    <path id="_63153184" fill="#009042" stroke="black" stroke-width="0.0762" stroke-linejoin="bevel" d="M77.7438 40.11c-1.8663,-0.4757 -1.0574,-2.4 0.2484,-4.0943 1.3135,-1.6548 3.19,-3.1175 3.6439,-2.7314 0.3467,0.3008 0.4123,2.1665 -0.1214,3.9052 -0.5608,1.7683 -1.7511,3.3822 -3.7709,2.9205z"/>
    <path id="petiole_14" fill="#005900" stroke="black" stroke-width="0.0762" stroke-linejoin="bevel" d="M63.8187 50.0945c-0.7356,-1.6022 0.3502,-3.0395 2.0937,-4.2216 1.7087,-1.1914 4.1465,-2.1826 6.1146,-2.8921 0.1012,-0.0283 5.0833,-8.8501 5.2017,-8.8734 0.0443,-0.0251 -4.5019,8.6364 -4.4402,8.616 1.3773,-0.4612 3.2791,-1.133 4.4246,-1.5648 0.562,-0.8907 3.2658,-6.1766 4.2738,-7.4673 0.1406,-0.036 -4.0258,7.3116 -3.7972,7.4302 0.6234,0.041 2.8425,-0.5625 3.6764,-0.7439 0.4391,-0.8499 3.7368,-6.5321 3.3055,-5.4376 -0.5396,1.4196 -3.3528,5.4061 -2.8332,5.213 0.4136,0.0575 1.8542,-0.4983 3.4816,-1.1896 1.6495,-0.7039 3.4602,-1.5874 4.5569,-2.1818 -1.4226,0.8969 -2.8638,1.6581 -4.2098,2.2772 -1.3635,0.6146 -2.6888,1.09 -3.8846,1.4333 -0.2284,0.6279 3.6084,4.053 3.3675,4.4536 -0.1531,0.0138 -3.668,-4.1067 -3.8651,-4.2729 -1.3043,0.3319 -2.015,0.4725 -3.2312,0.7543 -0.0789,0.0156 5.4555,6.2966 5.0731,6.397 -0.0836,0.0327 -5.4821,-6.2669 -5.5531,-6.2118 -1.5845,0.535 -2.2299,0.5069 -4.0468,1.2767 -0.1441,0.1844 5.7759,7.7101 5.6307,7.7637 -0.1454,0.0531 -6.1016,-7.613 -6.1582,-7.61 -1.8534,0.8344 -4.7597,2.4435 -6.7172,4.2011 -1.9926,1.7483 -3.0714,3.6354 -1.2003,5.0457 -0.8045,-0.3331 -1.2741,-1.5448 -1.2632,-2.195z"/>
   </g>
   <g id="composee_15">
    <path id="_65718760" fill="#009042" stroke="black" stroke-width="0.0762" stroke-linejoin="bevel" d="M56.7451 40.1518c0.9624,1.7179 2.5345,0.5081 3.772,-1.2825 1.2976,-1.8541 2.2411,-4.3397 1.6779,-4.6474 -0.6401,-0.3091 -2.5722,0.4374 -4.0859,1.5215 -1.46,1.0496 -2.5278,2.4157 -1.7857,3.5932 0.1396,0.2766 0.2938,0.5564 0.4217,0.8152z"/>
    <path id="_67142696" fill="#009042" stroke="black" stroke-width="0.0762" stroke-linejoin="bevel" d="M49.8688 26.1583c-0.3742,0.1643 0.2279,5.7102 2.5165,4.8109 3.1697,-1.5525 -2.1389,-4.9899 -2.5165,-4.8109z"/>
    <path id="_77065216" fill="#009042" stroke="black" stroke-width="0.0762" stroke-linejoin="bevel" d="M55.086 35.8513c0.7824,1.4169 2.1703,0.7668 3.1772,-0.8125 1.0425,-1.6026 1.9869,-3.8109 1.5315,-4.049 -0.529,-0.2539 -2.3712,0.5737 -3.6112,1.6714 -1.1682,1.052 -2.0484,1.9823 -1.0975,3.1901z"/>
    <path id="_66287200" fill="#009042" stroke="black" stroke-width="0.0762" stroke-linejoin="bevel" d="M53.9514 32.8806c1.3236,1.9661 3.9467,-3.1361 3.2041,-3.4676 -0.7754,-0.3234 -4.6106,1.5296 -3.2041,3.4676z"/>
    <path id="_76526016" fill="#009042" stroke="black" stroke-width="0.0762" stroke-linejoin="bevel" d="M52.2523 32.632c-0.4572,2.1613 -4.5003,-1.507 -4.0277,-2.0498 0.3586,-0.4445 4.5119,-0.3053 4.0277,2.0498z"/>
    <path id="_77063336" fill="#009042" stroke="black" stroke-width="0.0762" stroke-linejoin="bevel" d="M54.5473 40.4248c-0.159,1.6419 -2.0325,0.9246 -3.7317,-0.3084 -1.6617,-1.194 -3.2026,-2.8693 -2.9383,-3.3037 0.326,-0.4362 1.9051,-0.5523 3.4986,-0.173 1.6198,0.4003 3.2397,1.2929 3.3539,2.8098 -0.0706,0.3229 -0.1265,0.6491 -0.1825,0.9753z"/>
    <path id="_76993992" fill="#009042" stroke="black" stroke-width="0.0762" stroke-linejoin="bevel" d="M53.2475 36.3107c-0.3141,1.577 -1.9542,0.9877 -3.4245,-0.0261 -1.4376,-1.022 -2.7401,-2.5218 -2.4383,-2.9173 0.2355,-0.3024 1.7881,-0.4395 3.2612,-0.0714 1.4991,0.3894 2.8973,1.3104 2.6016,3.0148z"/>
    <path id="petiole_16" fill="#005900" stroke="black" stroke-width="0.0762" stroke-linejoin="bevel" d="M62.1875 47.4791c-1.3033,0.6841 -2.5497,-0.1576 -3.6123,-1.559 -1.0687,-1.372 -2.0029,-3.3606 -2.6814,-4.97 -0.0281,-0.0832 -7.6034,-3.8469 -7.628,-3.9446 -0.0229,-0.0358 7.3994,3.3716 7.3797,3.321 -0.4454,-1.1278 -1.0896,-2.6837 -1.5002,-3.6197 -0.7675,-0.4291 -5.294,-2.4498 -6.4147,-3.233 -0.0362,-0.1158 6.2739,3.0331 6.3627,2.8373 0.0066,-0.5216 -0.5946,-2.345 -0.7827,-3.0322 -0.7281,-0.3285 -5.6112,-2.8267 -4.6797,-2.5155 1.2074,0.3871 4.6555,2.5562 4.4715,2.1316 0.0297,-0.3474 -0.4974,-1.5239 -1.1457,-2.8501 -0.6598,-1.3441 -1.4764,-2.8147 -2.0205,-3.7028 0.8107,1.1465 1.509,2.3143 2.0847,3.4092 0.5727,1.1096 1.0277,2.1935 1.3667,3.1753 0.5336,0.1627 3.2196,-3.1876 3.5642,-3.0044 0.0183,0.127 -3.2617,3.2396 -3.3915,3.4113 0.3343,1.0728 0.483,1.6591 0.7716,2.6606 0.0166,0.0651 5.0086,-4.8267 5.1091,-4.5124 0.0311,0.0683 -4.9825,4.8477 -4.9334,4.9044 0.5161,1.2974 0.5212,1.8368 1.2433,3.3175 0.1601,0.112 6.1728,-5.1564 6.2239,-5.0377 0.0507,0.1189 -6.0774,5.4236 -6.0724,5.4707 0.7776,1.5083 2.2476,3.8602 3.7994,5.4146 1.5457,1.584 3.1668,2.4 4.2598,0.7777 -0.2421,0.6854 -1.2316,1.1305 -1.7741,1.1502z"/>
   </g>
  </g>
 </g>
<image xlink:href="tick.gif" id="imgtick" x="-100" y="-100" width="15" height="15"/>
<rect id="recttooltip" x="-100" y="-100" width="55" height="6" fill-opacity="0.4" pointer-events="none"/>
<text id="textboxid" x="-100" y="-100" pointer-events="none"> </text>
</a></svg>
