<?xml version="1.0" encoding="UTF-8"?>
<!DOCTYPE svg PUBLIC "-//W3C//DTD SVG 1.1//EN" "http://www.w3.org/Graphics/SVG/1.1/DTD/svg11.dtd">
<!-- Creator: CorelDRAW -->
<svg xmlns="http://www.w3.org/2000/svg" xml:space="preserve" shape-rendering="geometricPrecision" text-rendering="geometricPrecision" image-rendering="optimizeQuality" fill-rule="evenodd" clip-rule="evenodd"
viewBox="0 0 240 180"
 xmlns:xlink="http://www.w3.org/1999/xlink">
<a>
 <g id="Layer_x0020_1">
  <metadata id="CorelCorpID_0Corel-Layer"/>
  <rect fill="none" width="240" height="180"/>
  <g id="Phyllo_Noclust" onclick="parent.replacechar('Phyllo_Noclust')" onmousemove="parent.showtooltip('Phyllo_Noclust', 'Leaves not clustered at the twig apices')" onmouseout="parent.hidetooltip('Phyllo_Noclust')" cursor="pointer" >
   <path id="feuille_5" fill="#00C800" stroke="black" stroke-width="0.0762" stroke-linejoin="bevel" d="M175.054 125.214c0.9892,-0.3824 2.1219,-0.733 3.4439,-1.0626 -0.5834,-0.0869 -1.2509,-0.085 -1.6727,-0.222 -0.4329,-0.1825 -0.5579,-0.6839 -0.8702,-0.9257 -1.1351,0.4578 -2.122,0.9269 -2.9517,1.3661l-0.0593 0.0729c-9.7934,-3.7739 -9.3602,5.6866 -12.1278,12.2168 5.4777,2.2746 23.5962,-8.7156 14.1031,-11.3246l0.1347 -0.1209z"/>
   <path id="axe" fill="#D2A01E" stroke="black" stroke-width="0.0762" d="M176.143 41.9168c0.6557,-3.6433 3.678,-3.7783 4.2343,0l0 110.32c-1.4099,0.8939 -2.8251,0.9316 -4.2343,0l0 -110.32z"/>
   <path id="feuille_5_0" fill="#00C800" stroke="black" stroke-width="0.0762" stroke-linejoin="bevel" d="M181.712 97.283c-1.0595,-0.0467 -2.2448,-0.0174 -3.6029,0.0922 0.5252,-0.2685 1.1584,-0.4798 1.5144,-0.7442 0.352,-0.3112 0.3104,-0.8263 0.5292,-1.1551 1.2219,0.0715 2.3068,0.2011 3.2334,0.3525l0.0794 0.0502c8.0766,-6.7024 10.6856,2.4015 15.3928,7.7069 -4.4652,3.9039 -25.1439,-0.7284 -16.98,-6.2309l-0.1663 -0.0716z"/>
   <path id="feuille_4" fill="#00C800" stroke="black" stroke-width="0.0762" stroke-linejoin="bevel" d="M182.306 50.862c1.6357,5.6544 15.9352,4.343 19.1963,-1.095 -7.9006,-0.1659 -20.2775,-6.8603 -19.5549,-0.78l-0.109 0.1981c-0.6466,0.8285 -1.2332,2.0053 -1.6809,3.6783 0.1308,0.0312 0.0594,1.3885 0.1312,2.3264 0.4404,-1.9226 1.1218,-3.2772 1.9451,-4.2256l0.0722 -0.1022z"/>
   <path id="feuille_4_1" fill="#00C800" stroke="black" stroke-width="0.0762" stroke-linejoin="bevel" d="M174.043 78.3139c-1.6357,5.6543 -15.9352,4.3429 -19.1963,-1.0951 7.9006,-0.1659 20.2775,-6.8603 19.5549,-0.78l0.109 0.1981c0.6466,0.8285 1.2332,2.0053 1.6809,3.6783 -0.1308,0.0312 -0.0594,1.3886 -0.1311,2.3264 -0.4405,-1.9226 -1.1219,-3.2772 -1.9452,-4.2255l-0.0722 -0.1022z"/>
  </g>
  <g id="Phyllo_Clust" onclick="parent.replacechar('Phyllo_Clust')" onmousemove="parent.showtooltip('Phyllo_Clust', 'Leaves clustered at the twig ends')" onmouseout="parent.hidetooltip('Phyllo_Clust')" cursor="pointer" >
   <path id="feuille_5_2" fill="#00C800" stroke="black" stroke-width="0.0762" stroke-linejoin="bevel" d="M56.8574 62.8594c0.8716,0.6043 1.7972,1.3452 2.8118,2.2546 -0.2554,-0.5317 -0.6315,-1.0832 -0.7547,-1.5091 -0.0918,-0.4608 0.2531,-0.8456 0.2781,-1.2398 -1.0158,-0.6828 -1.9578,-1.2365 -2.787,-1.6769l-0.0936 -0.0082c-2.3704,-10.2242 -9.9586,-4.5579 -16.9171,-3.1851 1.1904,5.8105 20.4532,14.6428 17.2869,5.3208l0.1756 0.0437z"/>
   <path id="feuille_5_3" fill="#00C800" stroke="black" stroke-width="0.0762" stroke-linejoin="bevel" d="M63.9652 55.6378c-0.3747,0.9922 -0.7164,2.1275 -1.0357,3.4521 -0.0914,-0.5828 -0.0948,-1.2503 -0.235,-1.6709 -0.1859,-0.4315 -0.6883,-0.5526 -0.9325,-0.863 0.4489,-1.1387 0.9103,-2.1292 1.343,-2.9623l0.0725 -0.0599c-3.8502,-9.7636 5.6133,-9.4042 12.1218,-12.2227 2.3173,5.4598 -8.5313,23.6635 -11.2143,14.191l-0.1198 0.1357z"/>
   <path id="axe_4" fill="#D2A01E" stroke="black" stroke-width="0.0762" d="M58.8899 48.8572c0.6557,-3.6433 3.678,-3.7783 4.2343,0l0 110.32c-1.4099,0.8939 -2.8251,0.9316 -4.2343,0l0 -110.32z"/>
   <path id="feuille_5_5" fill="#00C800" stroke="black" stroke-width="0.0762" stroke-linejoin="bevel" d="M57.576 71.1301c1.0266,-0.2665 2.192,-0.4848 3.5431,-0.6606 -0.5696,-0.1532 -1.233,-0.2279 -1.6362,-0.4123 -0.4091,-0.231 -0.4758,-0.7435 -0.7583,-1.0195 -1.1801,0.3245 -2.2143,0.6774 -3.0889,1.0185l-0.0673 0.0657c-9.2959,-4.8724 -9.9506,4.5754 -13.449,10.7451 5.1806,2.8878 24.4402,-5.9516 15.309,-9.6323l0.1476 -0.1046z"/>
   <path id="feuille_5_6" fill="#00C800" stroke="black" stroke-width="0.0762" stroke-linejoin="bevel" d="M64.5722 64.4909c-1.0266,-0.2665 -2.192,-0.4848 -3.5431,-0.6606 0.5696,-0.1532 1.233,-0.2279 1.6362,-0.4124 0.4091,-0.231 0.4758,-0.7434 0.7583,-1.0194 1.1801,0.3245 2.2143,0.6773 3.0889,1.0185l0.0673 0.0656c9.2959,-4.8723 9.9506,4.5754 13.449,10.7451 -5.1806,2.8879 -24.4402,-5.9516 -15.309,-9.6322l-0.1476 -0.1046z"/>
   <path id="feuille_5_7" fill="#00C800" stroke="black" stroke-width="0.0762" stroke-linejoin="bevel" d="M57.68 49.681c0.4283,0.9703 0.8315,2.0853 1.2226,3.3904 0.0595,-0.5868 0.0264,-1.2535 0.1434,-1.6812 0.1621,-0.441 0.6571,-0.5893 0.884,-0.9126 -0.5104,-1.1125 -1.0251,-2.0763 -1.5028,-2.8846l-0.0756 -0.0558c3.3115,-9.9593 -6.1184,-9.0837 -12.771,-11.5426 -2.0157,5.5781 9.8105,23.1624 11.9723,13.5575l0.1271 0.1289z"/>
  </g>
 </g>
<image xlink:href="tick.gif" id="imgtick" x="-100" y="-100" width="15" height="15"/>
<rect id="recttooltip" x="-100" y="-100" width="55" height="6" fill-opacity="0.4" pointer-events="none"/>
<text id="textboxid" x="-100" y="-100" pointer-events="none"> </text>
</a></svg>
