<?xml version="1.0" encoding="UTF-8"?>
<!DOCTYPE svg PUBLIC "-//W3C//DTD SVG 1.1//EN" "http://www.w3.org/Graphics/SVG/1.1/DTD/svg11.dtd">
<!-- Creator: CorelDRAW -->
<svg xmlns="http://www.w3.org/2000/svg" xml:space="preserve" shape-rendering="geometricPrecision" text-rendering="geometricPrecision" image-rendering="optimizeQuality" fill-rule="evenodd" clip-rule="evenodd"
viewBox="0 0 240 180"
 xmlns:xlink="http://www.w3.org/1999/xlink">
<a>
 <g id="Layer_x0020_1">
  <metadata id="CorelCorpID_0Corel-Layer"/>
  <rect fill="none" width="240" height="180"/>
  <g id="FlPos_Cauliflory" onclick="parent.replacechar('FlPos_Cauliflory')" onmousemove="parent.showtooltip('FlPos_Cauliflory', 'Cauliflorus or ramiflorus flowers')" onmouseout="parent.hidetooltip('FlPos_Cauliflory')" cursor="pointer" >
   <path id="Tige" fill="#F0965A" stroke="#7F7F7F" stroke-width="0.0762" d="M162.882 122.361c-0.2437,19.1065 -0.0973,25.5436 0,52.7291 1.6218,1.73 9.0774,1.7299 10.3748,0 0,-5.5271 -0.0758,-13.1946 -0.1646,-21.2303 13.0191,-6.818 26.474,-14.6508 30.4595,-17.1734 0.3543,-0.1754 1.0999,-1.2335 -1.2301,-0.2301 -4.2784,1.4477 -17.0736,6.7916 -29.2896,12.0384 -0.044,-10.3162 -0.159,-19.1386 -0.19,-26.1795 -4.2437,0.0468 -7.2432,0.0469 -9.96,0.0458z">
    <metadata id="CorelCorpID_1">
     <odm name="Nom" value="Tige" type="0"/>
    </metadata>
   </path>
   <g id="feuille">
    <path id="_76946928" fill="#B1FF3B" stroke="#CCCCCC" stroke-width="0.0762" stroke-linejoin="bevel" d="M201.995 143.193c2.2374,1.4019 1.8896,3.8412 3.2929,5.853 -1.0969,-0.1168 -4.0715,-0.0795 -6.4688,-1.4978 -2.3808,-1.4128 -1.473,-2.5457 -2.0569,-4.7237 5.0711,-0.4202 4.471,0.1163 5.2328,0.3685z"/>
    <polygon id="_76998112" fill="none" stroke="#CCCCCC" stroke-width="0.0762" points="204.413,148.447 195.145,141.624 "/>
   </g>
   <g id="feuille_0">
    <path id="_66823856" fill="#B1FF3B" stroke="#CCCCCC" stroke-width="0.0762" stroke-linejoin="bevel" d="M190.664 135.42c1.6594,-3.6671 -0.8337,-6.4624 -0.7131,-10.1993 -1.2887,1.0584 -5.0145,3.5784 -6.9571,7.3119 -2.0736,3.8469 0.2151,4.4582 1.2929,7.7027 6.8023,-3.6771 5.6066,-3.8541 6.3773,-4.8153z"/>
    <polygon id="feuille_1" fill="none" stroke="#CCCCCC" stroke-width="0.0762" points="188.774,127.982 182.655,144.413 "/>
   </g>
   <g id="bouquet_1">
    <g id="fleur_x0020_haut">
     <path id="_67140328" fill="none" stroke="#1F1A17" stroke-width="0.0762" d="M165.491 148.033c0.2499,-1.5038 0.759,-2.8728 1.086,-4.3447"/>
     <path id="sepale" fill="#C8FF64" stroke="#7F7F7F" stroke-width="0.0762" d="M166.823 142.76c0.0402,-0.1097 0.2304,-0.3805 0.0873,-0.5195 -0.0472,-0.1121 -0.0803,-0.1442 -0.1115,-0.2045 -0.0179,-0.0344 -0.0089,-0.0856 0.0035,-0.1248 0,0 -0.0366,0.0927 -0.0386,0.0993 -0.0332,0.1046 -0.1173,0.1428 -0.1776,0.1741 -0.0517,0.0268 -0.092,0.086 -0.119,0.171 -0.0317,0.1 0.1164,0.2573 0.084,0.3597 0.1026,-0.0567 0.2712,0.0136 0.2719,0.0447z">
      <metadata id="CorelCorpID_2">
       <odm name="Nom" value="sepale" type="0"/>
      </metadata>
     </path>
     <circle id="_77267536" fill="#F0F04D" stroke="#7F7F7F" stroke-width="0.0762" transform="matrix(-0.085281 -0.0243605 -0.0243605 0.085281 166.652 142.952)" r="2.9417"/>
     <path id="sepale_2" fill="#C8FF64" stroke="#7F7F7F" stroke-width="0.0762" d="M166.851 143.118c0.1096,0.0407 0.3795,0.2321 0.5191,0.0896 0.1124,-0.0467 0.1446,-0.0796 0.205,-0.1106 0.0346,-0.0177 0.0857,-0.0085 0.1249,0.0042 0,0 -0.0926,-0.0371 -0.0992,-0.0392 -0.1045,-0.0336 -0.1423,-0.1179 -0.1732,-0.1783 -0.0266,-0.0518 -0.0856,-0.0924 -0.1705,-0.1198 -0.0999,-0.0321 -0.2578,0.1153 -0.3601,0.0824 0.0562,0.1028 -0.0148,0.2712 -0.046,0.2717z">
      <metadata id="CorelCorpID_3">
       <odm name="Nom" value="sepale" type="0"/>
      </metadata>
     </path>
     <path id="sepale_3" fill="#C8FF64" stroke="#7F7F7F" stroke-width="0.0762" d="M166.431 143.062c-0.1158,0.0159 -0.4208,0.1443 -0.5262,-0.025 -0.0996,-0.07 -0.1239,-0.1091 -0.1762,-0.1525 -0.0299,-0.0247 -0.0817,-0.0268 -0.1227,-0.023 0,0 0.0984,-0.016 0.1052,-0.0167 0.1094,-0.0102 0.1645,-0.0842 0.2078,-0.1365 0.0372,-0.0448 0.1036,-0.0717 0.1924,-0.08 0.1045,-0.0097 0.2267,0.1684 0.3337,0.1584 -0.0772,0.0883 -0.0443,0.268 -0.014,0.2753z">
      <metadata id="CorelCorpID_4">
       <odm name="Nom" value="sepale" type="0"/>
      </metadata>
     </path>
     <path id="sepale_4" fill="#C8FF64" stroke="#7F7F7F" stroke-width="0.0762" d="M166.768 143.183c0.016,0.1157 0.1443,0.4208 -0.0251,0.5262 -0.07,0.0995 -0.1091,0.1238 -0.1525,0.1761 -0.0248,0.0299 -0.0268,0.0818 -0.023,0.1228 0,0 -0.0161,-0.0985 -0.0167,-0.1053 -0.0102,-0.1093 -0.0842,-0.1645 -0.1365,-0.2079 -0.0448,-0.0371 -0.0717,-0.1036 -0.0799,-0.1924 -0.0097,-0.1045 0.1685,-0.2266 0.1585,-0.3336 0.0882,0.0772 0.268,0.0444 0.2752,0.0141z">
      <metadata id="CorelCorpID_5">
       <odm name="Nom" value="sepale" type="0"/>
      </metadata>
     </path>
     <path id="petale_1" fill="#C864C8" stroke="#7F7F7F" stroke-width="0.0762" d="M166.838 142.727c0.1509,-0.2283 0.1396,-0.4386 0.2301,-0.7554 0.1471,-0.515 0.4781,-1.3508 1.012,-1.3676 0.1866,-0.0059 0.8753,-0.0958 0.9534,-0.2132 0.2281,1.1959 -0.0927,2.7658 -1.6135,2.5738 -0.1792,-0.0226 -0.5952,-0.0414 -0.582,-0.2376z">
      <metadata id="CorelCorpID_6">
       <odm name="Nom" value="petale_1" type="0"/>
      </metadata>
     </path>
     <path id="petale_2" fill="#C864C8" stroke="#7F7F7F" stroke-width="0.0762" d="M166.543 142.663c-0.0924,-0.2575 -0.0315,-0.4591 -0.0442,-0.7885 -0.0207,-0.5351 -0.1439,-1.4256 -0.6585,-1.5686 -0.1799,-0.05 -0.8276,-0.3008 -0.8756,-0.4334 -0.5054,1.1077 -0.5664,2.7088 0.9566,2.8832 0.1795,0.0206 0.588,0.101 0.6217,-0.0927z">
      <metadata id="CorelCorpID_7">
       <odm name="Nom" value="petale_2" type="0"/>
      </metadata>
     </path>
     <path id="petale_3" fill="#C864C8" stroke="#7F7F7F" stroke-width="0.0762" d="M166.379 143.054c-0.2586,0.0893 -0.4594,0.026 -0.7889,0.0348 -0.5354,0.0142 -1.4273,0.1267 -1.5764,0.6395 -0.0522,0.1794 -0.3108,0.824 -0.4439,0.8704 1.1015,0.5186 2.7018,0.5989 2.8945,-0.9219 0.0227,-0.1792 0.108,-0.5868 -0.0853,-0.6228z">
      <metadata id="CorelCorpID_8">
       <odm name="Nom" value="petale_3" type="0"/>
      </metadata>
     </path>
     <path id="petale_4" fill="#C864C8" stroke="#7F7F7F" stroke-width="0.0762" d="M166.697 143.284c0.1178,0.247 0.0775,0.4537 0.1232,0.7801 0.0742,0.5303 0.2861,1.404 0.8125,1.4946 0.184,0.0317 0.8536,0.2163 0.9147,0.3434 0.3917,-1.1528 0.2917,-2.752 -1.2411,-2.7727 -0.1806,-0.0024 -0.5951,-0.0415 -0.6093,0.1546z">
      <metadata id="CorelCorpID_9">
       <odm name="Nom" value="petale_4" type="0"/>
      </metadata>
     </path>
     <g id="etamine">
       <metadata id="CorelCorpID_10">
        <odm name="Nom" value="etamine" type="0"/>
       </metadata>
      <path id="_66897824" fill="#F07850" stroke="#7F7F7F" stroke-width="0.0762" d="M166.462 143.137c-0.0193,0.0576 -0.2085,0.1677 -0.2633,0.2032 -0.0864,0.0559 -0.3175,0.1675 -0.3817,0.204 -0.0042,0.0024 0.189,-0.1347 0.2377,-0.163 0.0926,-0.0536 0.3537,-0.3244 0.3748,-0.2935 0.0168,0.0246 0.0246,0.0301 0.0325,0.0493z"/>
      <path id="_76527704" fill="#F0F04D" stroke="#7F7F7F" stroke-width="0.0762" d="M166.282 143.375c-0.0761,0.0781 -0.3648,0.2436 -0.4947,0.1948 -0.0661,-0.0711 0.2727,-0.3231 0.3181,-0.342 0.0488,-0.0223 0.1172,-0.0213 0.1639,0.0232 0.0116,0.011 0.0613,0.0555 0.0127,0.124z"/>
     </g>
     <g id="etamine_5">
       <metadata id="CorelCorpID_11">
        <odm name="Nom" value="etamine" type="0"/>
       </metadata>
      <path id="_76898440" fill="#F07850" stroke="#7F7F7F" stroke-width="0.0762" d="M166.889 142.83c0.0608,-0.0004 0.2241,-0.1463 0.2748,-0.1874 0.0799,-0.0648 0.2576,-0.25 0.3122,-0.2997 0.0035,-0.0033 -0.1866,0.1379 -0.2286,0.1755 -0.0796,0.0714 -0.418,0.2358 -0.3952,0.2654 0.0183,0.0237 0.021,0.0328 0.0368,0.0462z"/>
      <path id="_76434216" fill="#F0F04D" stroke="#7F7F7F" stroke-width="0.0762" d="M167.172 142.732c0.0978,-0.0482 0.3446,-0.2715 0.3384,-0.4101 -0.0472,-0.0848 -0.3917,0.1593 -0.4237,0.1965 -0.0363,0.0396 -0.0565,0.1049 -0.0287,0.1631 0.0069,0.0144 0.0338,0.0754 0.114,0.0505z"/>
     </g>
     <g id="etamine_6">
       <metadata id="CorelCorpID_12">
        <odm name="Nom" value="etamine" type="0"/>
       </metadata>
      <path id="_76842816" fill="#F07850" stroke="#7F7F7F" stroke-width="0.0762" d="M166.462 142.765c-0.0573,-0.0205 -0.1634,-0.212 -0.1977,-0.2675 -0.0541,-0.0876 -0.1608,-0.3209 -0.196,-0.3859 -0.0023,-0.0042 0.1307,0.1917 0.158,0.2411 0.0516,0.0936 0.3169,0.3603 0.2856,0.3808 -0.025,0.0163 -0.0306,0.024 -0.0499,0.0315z"/>
      <path id="_76427944" fill="#F0F046" stroke="#7F7F7F" stroke-width="0.0762" d="M166.227 142.58c-0.0764,-0.0777 -0.2359,-0.3698 -0.1843,-0.4987 0.0724,-0.0645 0.3172,0.2795 0.3352,0.3252 0.0212,0.0493 0.0188,0.1177 -0.0266,0.1634 -0.0113,0.0114 -0.0567,0.0601 -0.1243,0.0101z"/>
     </g>
     <g id="etamine_7">
       <metadata id="CorelCorpID_13">
        <odm name="Nom" value="etamine" type="0"/>
       </metadata>
      <path id="_27657800" fill="#F07850" stroke="#7F7F7F" stroke-width="0.0762" d="M166.776 143.191c0.0038,0.0607 0.1584,0.2157 0.2023,0.2641 0.0691,0.0762 0.2638,0.2434 0.3165,0.2952 0.0034,0.0033 -0.1481,-0.1787 -0.1879,-0.2186 -0.0757,-0.0756 -0.2585,-0.4043 -0.2868,-0.3799 -0.0226,0.0195 -0.0316,0.0227 -0.0441,0.0392z"/>
      <path id="_76469696" fill="#F0F04D" stroke="#7F7F7F" stroke-width="0.0762" d="M166.889 143.469c0.0535,0.095 0.29,0.3291 0.4281,0.3153 0.0821,-0.0518 -0.1806,-0.3823 -0.2196,-0.4122 -0.0415,-0.0341 -0.1079,-0.0507 -0.1644,-0.0197 -0.014,0.0077 -0.0734,0.0379 -0.0441,0.1166z"/>
     </g>
    </g>
    <g id="fleur_x0020_bas">
     <path id="_67239664" fill="none" stroke="#1F1A17" stroke-width="0.0762" d="M165.502 147.998c1.467,-0.4144 2.9225,-0.5368 4.3935,-0.8678"/>
     <path id="sepale_8" fill="#C8FF64" stroke="#7F7F7F" stroke-width="0.0762" d="M171.455 147.347c0.0905,-0.0739 0.3923,-0.2098 0.34,-0.4023 0.0166,-0.1205 0.0046,-0.165 0.0084,-0.2328 0.0022,-0.0387 0.0361,-0.0781 0.0668,-0.1055 0,0 -0.0788,0.0611 -0.0839,0.0656 -0.082,0.0731 -0.1737,0.0631 -0.2415,0.0592 -0.0582,-0.0033 -0.1231,0.027 -0.1896,0.0864 -0.0783,0.0699 -0.0311,0.2807 -0.1113,0.3522 0.1171,0.0036 0.2264,0.1501 0.2111,0.1772z">
      <metadata id="CorelCorpID_14">
       <odm name="Nom" value="sepale" type="0"/>
      </metadata>
     </path>
     <circle id="_77023256" fill="#F0F04D" stroke="#7F7F7F" stroke-width="0.0762" transform="matrix(-0.060925 -0.0644549 -0.0644549 0.060925 171.21 147.426)" r="2.9417"/>
     <path id="sepale_9" fill="#C8FF64" stroke="#7F7F7F" stroke-width="0.0762" d="M171.296 147.67c0.0734,0.0908 0.208,0.3932 0.4007,0.3419 0.1205,0.0171 0.165,0.0053 0.2328,0.0094 0.0387,0.0024 0.078,0.0364 0.1052,0.0673 0,0 -0.0607,-0.0791 -0.0653,-0.0843 -0.0727,-0.0822 -0.0622,-0.174 -0.058,-0.2417 0.0035,-0.0582 -0.0265,-0.1232 -0.0856,-0.19 -0.0695,-0.0786 -0.2805,-0.0324 -0.3517,-0.1129 -0.0041,0.1172 -0.1511,0.2257 -0.1781,0.2103z">
      <metadata id="CorelCorpID_15">
       <odm name="Nom" value="sepale" type="0"/>
      </metadata>
     </path>
     <path id="sepale_10" fill="#C8FF64" stroke="#7F7F7F" stroke-width="0.0762" d="M170.964 147.408c-0.1077,-0.0454 -0.4356,-0.0905 -0.4398,-0.29 -0.05,-0.1109 -0.051,-0.157 -0.0738,-0.2209 -0.0131,-0.0366 -0.0566,-0.0648 -0.0939,-0.0824 0,0 0.0929,0.0364 0.0991,0.0393 0.0992,0.047 0.1844,0.0114 0.2484,-0.0114 0.0548,-0.0196 0.1256,-0.0089 0.2063,0.0293 0.0948,0.0449 0.109,0.2605 0.2061,0.3065 -0.1113,0.0365 -0.1748,0.2079 -0.1524,0.2296z">
      <metadata id="CorelCorpID_16">
       <odm name="Nom" value="sepale" type="0"/>
      </metadata>
     </path>
     <path id="sepale_11" fill="#C8FF64" stroke="#7F7F7F" stroke-width="0.0762" d="M171.192 147.684c-0.0453,0.1077 -0.0906,0.4356 -0.29,0.4398 -0.111,0.0499 -0.157,0.0509 -0.221,0.0737 -0.0365,0.013 -0.0648,0.0566 -0.0824,0.0938 0,0 0.0364,-0.0928 0.0393,-0.099 0.0471,-0.0993 0.0115,-0.1845 -0.0113,-0.2484 -0.0196,-0.0549 -0.0088,-0.1257 0.0294,-0.2063 0.0449,-0.0948 0.2605,-0.109 0.3065,-0.2061 0.0365,0.1114 0.2078,0.1749 0.2295,0.1525z">
      <metadata id="CorelCorpID_17">
       <odm name="Nom" value="sepale" type="0"/>
      </metadata>
     </path>
     <path id="petale_1_12" fill="#C864C8" stroke="#7F7F7F" stroke-width="0.0762" d="M171.485 147.327c0.2462,-0.1194 0.3438,-0.306 0.5833,-0.5324 0.3892,-0.3679 1.1002,-0.9179 1.5679,-0.6601 0.1636,0.0902 0.8018,0.3642 0.9289,0.303 -0.4139,1.145 -1.4906,2.3317 -2.7008,1.3907 -0.1426,-0.1109 -0.4907,-0.3392 -0.3793,-0.5012z">
      <metadata id="CorelCorpID_18">
       <odm name="Nom" value="petale_1" type="0"/>
      </metadata>
     </path>
     <path id="petale_2_13" fill="#C864C8" stroke="#7F7F7F" stroke-width="0.0762" d="M171.263 147.121c0.0519,-0.2687 0.2071,-0.411 0.3641,-0.7008 0.2552,-0.4708 0.6035,-1.2995 0.2338,-1.685 -0.1292,-0.1348 -0.5584,-0.681 -0.532,-0.8195 -0.9997,0.6949 -1.869,2.041 -0.6479,2.9679 0.1438,0.1092 0.4542,0.3868 0.582,0.2374z">
      <metadata id="CorelCorpID_19">
       <odm name="Nom" value="petale_2" type="0"/>
      </metadata>
     </path>
     <path id="petale_3_14" fill="#C864C8" stroke="#7F7F7F" stroke-width="0.0762" d="M170.923 147.374c-0.268,-0.0551 -0.4085,-0.212 -0.6963,-0.3725 -0.4677,-0.2609 -1.2922,-0.6191 -1.6822,-0.2541 -0.1363,0.1277 -0.6875,0.5502 -0.8258,0.5222 0.683,1.008 2.0185,1.8933 2.96,0.6835 0.1109,-0.1425 0.3922,-0.4495 0.2443,-0.5791z">
      <metadata id="CorelCorpID_20">
       <odm name="Nom" value="petale_3" type="0"/>
      </metadata>
     </path>
     <path id="petale_4_15" fill="#C864C8" stroke="#7F7F7F" stroke-width="0.0762" d="M171.079 147.734c-0.0246,0.2725 -0.1648,0.4297 -0.292,0.7337 -0.2066,0.4941 -0.4701,1.3536 -0.0636,1.7 0.1422,0.1212 0.6239,0.6215 0.6116,0.762 0.925,-0.7917 1.6548,-2.2182 0.3469,-3.0179 -0.154,-0.0943 -0.4907,-0.3393 -0.6029,-0.1778z">
      <metadata id="CorelCorpID_21">
       <odm name="Nom" value="petale_4" type="0"/>
      </metadata>
     </path>
     <g id="etamine_16">
       <metadata id="CorelCorpID_22">
        <odm name="Nom" value="etamine" type="0"/>
       </metadata>
      <path id="_66365016" fill="#F07850" stroke="#7F7F7F" stroke-width="0.0762" d="M170.953 147.487c-0.046,0.0397 -0.265,0.0379 -0.3302,0.0405 -0.1028,0.0039 -0.3585,-0.0179 -0.4323,-0.0192 -0.0049,-0.0001 0.2312,-0.0195 0.2875,-0.019 0.107,0.0011 0.4697,-0.0986 0.4721,-0.0613 0.0019,0.0298 0.0059,0.0385 0.0029,0.059z"/>
      <path id="_66807808" fill="#F0F04D" stroke="#7F7F7F" stroke-width="0.0762" d="M170.676 147.601c-0.1052,0.0283 -0.438,0.0234 -0.5248,-0.0849 -0.0206,-0.0948 0.3994,-0.1387 0.448,-0.1318 0.0534,0.0058 0.1117,0.0415 0.1292,0.1035 0.0044,0.0154 0.0244,0.079 -0.0524,0.1132z"/>
     </g>
     <g id="etamine_17">
       <metadata id="CorelCorpID_23">
        <odm name="Nom" value="etamine" type="0"/>
       </metadata>
      <path id="_27622128" fill="#F07850" stroke="#7F7F7F" stroke-width="0.0762" d="M171.476 147.441c0.0526,0.0306 0.2674,-0.0116 0.332,-0.0211 0.1018,-0.015 0.3491,-0.0836 0.4214,-0.0985 0.0047,-0.001 -0.2309,0.0234 -0.2862,0.0344 -0.1049,0.0208 -0.4797,-0.0104 -0.4752,0.0267 0.0036,0.0296 0.0013,0.0389 0.008,0.0585z"/>
      <path id="_65736952" fill="#F0F04D" stroke="#7F7F7F" stroke-width="0.0762" d="M171.77 147.501c0.1087,0.0084 0.4349,-0.0577 0.5002,-0.1801 0.0028,-0.097 -0.4181,-0.0628 -0.4646,-0.0471 -0.0514,0.0156 -0.1022,0.0614 -0.1079,0.1256 -0.0014,0.016 -0.0094,0.0821 0.0723,0.1016z"/>
     </g>
     <g id="etamine_18">
       <metadata id="CorelCorpID_24">
        <odm name="Nom" value="etamine" type="0"/>
       </metadata>
      <path id="_76848896" fill="#F07850" stroke="#7F7F7F" stroke-width="0.0762" d="M171.142 147.167c-0.0388,-0.0468 -0.0324,-0.2657 -0.0336,-0.3309 -0.0018,-0.1029 0.0254,-0.3581 0.0283,-0.4319 0.0002,-0.0048 0.0146,0.2316 0.0128,0.2879 -0.0033,0.1069 0.0888,0.4716 0.0515,0.4732 -0.0299,0.0013 -0.0386,0.0051 -0.059,0.0017z"/>
      <path id="_76633168" fill="#F0F046" stroke="#7F7F7F" stroke-width="0.0762" d="M171.034 146.888c-0.0262,-0.1058 -0.0143,-0.4384 0.0958,-0.5229 0.0953,-0.0186 0.1303,0.4022 0.1225,0.4507 -0.007,0.0532 -0.0439,0.1108 -0.1063,0.127 -0.0155,0.004 -0.0795,0.0227 -0.112,-0.0548z"/>
     </g>
     <g id="etamine_19">
       <metadata id="CorelCorpID_25">
        <odm name="Nom" value="etamine" type="0"/>
       </metadata>
      <path id="_65831984" fill="#F07850" stroke="#7F7F7F" stroke-width="0.0762" d="M171.195 147.695c-0.0276,0.0542 0.0263,0.2664 0.0393,0.3303 0.0207,0.1008 0.1028,0.3439 0.1217,0.4154 0.0012,0.0046 -0.0362,-0.2293 -0.0502,-0.2839 -0.0265,-0.1036 -0.016,-0.4796 -0.0528,-0.473 -0.0294,0.0052 -0.0388,0.0034 -0.058,0.0112z"/>
      <path id="_77014552" fill="#F0F04D" stroke="#7F7F7F" stroke-width="0.0762" d="M171.151 147.991c-0.0025,0.109 0.0815,0.431 0.2074,0.4895 0.097,-0.0026 0.0396,-0.4209 0.0213,-0.4665 -0.0183,-0.0505 -0.0669,-0.0986 -0.1313,-0.1008 -0.016,-0.0006 -0.0825,-0.0049 -0.0974,0.0778z"/>
     </g>
    </g>
    <g id="fleur_x0020_milieu">
     <path id="_76591760" fill="none" stroke="#1F1A17" stroke-width="0.0762" d="M165.51 148.029c0.9531,-1.1897 2.0666,-2.135 3.0714,-3.2591"/>
     <path id="sepale_20" fill="#C8FF64" stroke="#7F7F7F" stroke-width="0.0762" d="M171.507 142.908c0.0365,-0.111 0.2177,-0.388 0.0701,-0.5221 -0.0509,-0.1106 -0.085,-0.1415 -0.1183,-0.2008 -0.019,-0.0338 -0.0117,-0.0852 -0.0005,-0.1248 0,0 -0.0335,0.0939 -0.0354,0.1005 -0.0297,0.1057 -0.1125,0.1466 -0.1717,0.1798 -0.0508,0.0285 -0.0891,0.089 -0.1133,0.1749 -0.0283,0.101 0.1249,0.2533 0.0959,0.3567 0.1006,-0.06 0.2715,0.0047 0.2732,0.0358z">
      <metadata id="CorelCorpID_26">
       <odm name="Nom" value="sepale" type="0"/>
      </metadata>
     </path>
     <circle id="_77191504" fill="#F0F04D" stroke="#7F7F7F" stroke-width="0.0762" transform="matrix(-0.0860408 -0.0215235 -0.0215235 0.0860408 171.344 143.106)" r="2.9417"/>
     <path id="sepale_21" fill="#C8FF64" stroke="#7F7F7F" stroke-width="0.0762" d="M171.547 143.265c0.1108,0.037 0.387,0.2194 0.5218,0.0724 0.1107,-0.0504 0.1418,-0.0843 0.2012,-0.1173 0.034,-0.0189 0.0853,-0.0113 0.1249,0 0,0 -0.0938,-0.034 -0.1004,-0.0359 -0.1055,-0.0301 -0.1461,-0.1131 -0.179,-0.1725 -0.0283,-0.0509 -0.0886,-0.0895 -0.1744,-0.114 -0.1009,-0.0288 -0.2538,0.1237 -0.3572,0.0942 0.0596,0.1009 -0.0058,0.2716 -0.0369,0.2731z">
      <metadata id="CorelCorpID_27">
       <odm name="Nom" value="sepale" type="0"/>
      </metadata>
     </path>
     <path id="sepale_22" fill="#C8FF64" stroke="#7F7F7F" stroke-width="0.0762" d="M171.126 143.223c-0.1151,0.0198 -0.4157,0.1582 -0.5267,-0.0076 -0.1018,-0.0666 -0.1274,-0.1049 -0.1811,-0.1465 -0.0307,-0.0237 -0.0826,-0.0241 -0.1235,-0.0189 0,0 0.0979,-0.0193 0.1047,-0.0202 0.1089,-0.0138 0.1616,-0.0897 0.2032,-0.1433 0.0356,-0.0461 0.1011,-0.0751 0.1896,-0.0863 0.1041,-0.0132 0.2321,0.1608 0.3387,0.1473 -0.0742,0.0907 -0.0354,0.2692 -0.0049,0.2755z">
      <metadata id="CorelCorpID_28">
       <odm name="Nom" value="sepale" type="0"/>
      </metadata>
     </path>
     <path id="sepale_23" fill="#C8FF64" stroke="#7F7F7F" stroke-width="0.0762" d="M171.467 143.333c0.0198,0.1151 0.1581,0.4158 -0.0077,0.5267 -0.0667,0.1018 -0.1049,0.1274 -0.1466,0.1811 -0.0237,0.0307 -0.0241,0.0826 -0.0189,0.1234 0,0 -0.0193,-0.0978 -0.0202,-0.1046 -0.0138,-0.109 -0.0896,-0.1616 -0.1433,-0.2032 -0.046,-0.0357 -0.075,-0.1012 -0.0862,-0.1897 -0.0132,-0.1041 0.1609,-0.2321 0.1474,-0.3387 0.0907,0.0742 0.2693,0.0355 0.2755,0.005z">
      <metadata id="CorelCorpID_29">
       <odm name="Nom" value="sepale" type="0"/>
      </metadata>
     </path>
     <path id="petale_1_24" fill="#C864C8" stroke="#7F7F7F" stroke-width="0.0762" d="M171.522 142.874c0.1433,-0.2331 0.125,-0.4429 0.205,-0.7626 0.13,-0.5196 0.4331,-1.3659 0.9661,-1.4003 0.1864,-0.0121 0.8717,-0.1248 0.9459,-0.2447 0.2675,1.1877 -0.0011,2.7674 -1.5275,2.6258 -0.1798,-0.0166 -0.5961,-0.0217 -0.5895,-0.2182z">
      <metadata id="CorelCorpID_30">
       <odm name="Nom" value="petale_1" type="0"/>
      </metadata>
     </path>
     <path id="petale_2_25" fill="#C864C8" stroke="#7F7F7F" stroke-width="0.0762" d="M171.225 142.821c-0.1009,-0.2543 -0.0467,-0.4578 -0.0703,-0.7865 -0.0384,-0.5342 -0.191,-1.4201 -0.71,-1.546 -0.1815,-0.044 -0.8372,-0.2733 -0.8896,-0.4042 -0.4684,1.1238 -0.4763,2.7261 1.0516,2.85 0.1801,0.0146 0.591,0.0814 0.6183,-0.1133z">
      <metadata id="CorelCorpID_31">
       <odm name="Nom" value="petale_2" type="0"/>
      </metadata>
     </path>
     <path id="petale_3_26" fill="#C864C8" stroke="#7F7F7F" stroke-width="0.0762" d="M171.073 143.217c-0.2556,0.0979 -0.4584,0.0413 -0.7874,0.0609 -0.5346,0.032 -1.4223,0.1739 -1.5544,0.6915 -0.0462,0.1809 -0.2833,0.8337 -0.4148,0.8846 1.1181,0.4818 2.7202,0.509 2.8624,-1.0173 0.0167,-0.1799 0.0885,-0.59 -0.1058,-0.6197z">
      <metadata id="CorelCorpID_32">
       <odm name="Nom" value="petale_3" type="0"/>
      </metadata>
     </path>
     <path id="petale_4_27" fill="#C864C8" stroke="#7F7F7F" stroke-width="0.0762" d="M171.399 143.436c0.1259,0.243 0.0924,0.4509 0.1489,0.7756 0.0918,0.5276 0.3324,1.3938 0.8615,1.4669 0.185,0.0256 0.8603,0.1879 0.9256,0.313 0.3533,-1.1652 0.2005,-2.7602 -1.3322,-2.7302 -0.1806,0.0036 -0.5962,-0.0217 -0.6038,0.1747z">
      <metadata id="CorelCorpID_33">
       <odm name="Nom" value="petale_4" type="0"/>
      </metadata>
     </path>
     <g id="etamine_28">
       <metadata id="CorelCorpID_34">
        <odm name="Nom" value="etamine" type="0"/>
       </metadata>
      <path id="_76417912" fill="#F07850" stroke="#7F7F7F" stroke-width="0.0762" d="M171.16 143.296c-0.0173,0.0583 -0.2028,0.1746 -0.2564,0.2118 -0.0845,0.0587 -0.3118,0.178 -0.3747,0.2166 -0.0042,0.0025 0.1843,-0.1409 0.2322,-0.1708 0.0907,-0.0566 0.3426,-0.3359 0.3647,-0.3057 0.0177,0.024 0.0257,0.0292 0.0342,0.0481z"/>
      <path id="_76426856" fill="#F0F04D" stroke="#7F7F7F" stroke-width="0.0762" d="M170.987 143.541c-0.0735,0.0806 -0.3565,0.2556 -0.488,0.211 -0.0684,-0.0688 0.2619,-0.3319 0.3066,-0.3523 0.0481,-0.0238 0.1165,-0.0251 0.1646,0.0177 0.012,0.0107 0.0631,0.0535 0.0168,0.1236z"/>
     </g>
     <g id="etamine_29">
       <metadata id="CorelCorpID_35">
        <odm name="Nom" value="etamine" type="0"/>
       </metadata>
      <path id="_66822672" fill="#F07850" stroke="#7F7F7F" stroke-width="0.0762" d="M171.576 142.975c0.0607,-0.0025 0.2191,-0.1536 0.2684,-0.1964 0.0777,-0.0675 0.2492,-0.2584 0.3021,-0.3099 0.0035,-0.0034 -0.1819,0.1441 -0.2226,0.183 -0.0772,0.074 -0.41,0.2495 -0.3862,0.2784 0.019,0.023 0.0221,0.032 0.0383,0.0449z"/>
      <path id="_77186008" fill="#F0F04D" stroke="#7F7F7F" stroke-width="0.0762" d="M171.856 142.868c0.0961,-0.0513 0.3354,-0.2826 0.3246,-0.421 -0.0499,-0.0832 -0.3861,0.1722 -0.4169,0.2104 -0.035,0.0408 -0.053,0.1068 -0.0233,0.164 0.0073,0.0142 0.0362,0.0742 0.1156,0.0466z"/>
     </g>
     <g id="etamine_30">
       <metadata id="CorelCorpID_36">
        <odm name="Nom" value="etamine" type="0"/>
       </metadata>
      <path id="_77192376" fill="#F07850" stroke="#7F7F7F" stroke-width="0.0762" d="M171.147 142.925c-0.0579,-0.0186 -0.1704,-0.2065 -0.2065,-0.2609 -0.0569,-0.0857 -0.1713,-0.3154 -0.2086,-0.3791 -0.0025,-0.0042 0.137,0.1873 0.1658,0.2357 0.0548,0.0919 0.3287,0.3496 0.2981,0.3711 -0.0244,0.0172 -0.0298,0.0251 -0.0488,0.0332z"/>
      <path id="_66306808" fill="#F0F046" stroke="#7F7F7F" stroke-width="0.0762" d="M170.906 142.747c-0.079,-0.0752 -0.248,-0.3618 -0.2007,-0.4923 0.0702,-0.067 0.3263,0.2688 0.3458,0.3139 0.0228,0.0486 0.0227,0.117 -0.0212,0.1642 -0.0109,0.0117 -0.0547,0.0619 -0.1239,0.0142z"/>
     </g>
     <g id="etamine_31">
       <metadata id="CorelCorpID_37">
        <odm name="Nom" value="etamine" type="0"/>
       </metadata>
      <path id="_65783768" fill="#F07850" stroke="#7F7F7F" stroke-width="0.0762" d="M171.476 143.341c0.0058,0.0605 0.1655,0.2103 0.211,0.2571 0.0716,0.0739 0.2717,0.2346 0.326,0.2846 0.0036,0.0033 -0.1538,-0.1737 -0.195,-0.2122 -0.0781,-0.073 -0.2717,-0.3956 -0.2992,-0.3702 -0.022,0.0202 -0.0308,0.0237 -0.0428,0.0407z"/>
      <path id="_66738016" fill="#F0F04D" stroke="#7F7F7F" stroke-width="0.0762" d="M171.598 143.614c0.0566,0.0931 0.3007,0.3193 0.4383,0.3008 0.0803,-0.0544 -0.1932,-0.376 -0.2331,-0.4046 -0.0427,-0.0327 -0.1095,-0.0471 -0.165,-0.0143 -0.0138,0.0082 -0.0722,0.0403 -0.0402,0.1181z"/>
     </g>
    </g>
   </g>
   <g id="bouquet_2">
    <g id="fleur_x0020_haut_32">
     <path id="_76492792" fill="none" stroke="#1F1A17" stroke-width="0.0762" d="M165.83 164.117c-1.1894,-0.9535 -2.482,-1.6336 -3.7076,-2.5118"/>
     <path id="sepale_33" fill="#C8FF64" stroke="#7F7F7F" stroke-width="0.0762" d="M161.319 161.078c-0.1032,-0.0549 -0.4255,-0.1298 -0.4116,-0.3288 -0.0397,-0.115 -0.0365,-0.1609 -0.0534,-0.2267 -0.0097,-0.0376 -0.0505,-0.0697 -0.086,-0.0906 0,0 0.0892,0.0447 0.0951,0.0481 0.0945,0.0559 0.1826,0.0282 0.2484,0.0113 0.0564,-0.0146 0.1259,0.0026 0.2028,0.048 0.0903,0.0533 0.0849,0.2693 0.1774,0.3239 -0.1142,0.0262 -0.193,0.1911 -0.1727,0.2148z">
      <metadata id="CorelCorpID_38">
       <odm name="Nom" value="sepale" type="0"/>
      </metadata>
     </path>
     <circle id="_76421664" fill="#F0F04D" stroke="#7F7F7F" stroke-width="0.0762" transform="matrix(0.0472741 -0.0750429 0.0750429 0.0472741 161.575 161.107)" r="2.9417"/>
     <path id="sepale_34" fill="#C8FF64" stroke="#7F7F7F" stroke-width="0.0762" d="M161.538 161.363c-0.0545,0.1033 -0.1279,0.4261 -0.3269,0.4131 -0.1149,0.0401 -0.1608,0.0371 -0.2265,0.0543 -0.0376,0.0099 -0.0695,0.0509 -0.0902,0.0864 0,0 0.0442,-0.0894 0.0477,-0.0953 0.0554,-0.0948 0.0273,-0.1827 0.0101,-0.2484 -0.0148,-0.0564 0.0021,-0.126 0.0471,-0.203 0.0529,-0.0906 0.2689,-0.0861 0.3231,-0.1789 0.0268,0.1141 0.192,0.1922 0.2156,0.1718z">
      <metadata id="CorelCorpID_39">
       <odm name="Nom" value="sepale" type="0"/>
      </metadata>
     </path>
     <path id="sepale_35" fill="#C8FF64" stroke="#7F7F7F" stroke-width="0.0762" d="M161.813 161.042c0.0969,-0.0654 0.4098,-0.1732 0.3753,-0.3697 0.0275,-0.1186 0.0195,-0.1639 0.0296,-0.2311 0.0057,-0.0384 0.043,-0.0745 0.0761,-0.099 0,0 -0.0841,0.0537 -0.0896,0.0578 -0.0882,0.0653 -0.1787,0.0469 -0.2459,0.0369 -0.0576,-0.0086 -0.125,0.0157 -0.1967,0.0688 -0.0843,0.0624 -0.0565,0.2767 -0.1428,0.3406 0.1163,0.0142 0.2118,0.17 0.194,0.1957z">
      <metadata id="CorelCorpID_40">
       <odm name="Nom" value="sepale" type="0"/>
      </metadata>
     </path>
     <path id="sepale_36" fill="#C8FF64" stroke="#7F7F7F" stroke-width="0.0762" d="M161.642 161.357c0.0654,0.0968 0.1733,0.4097 0.3698,0.3752 0.1185,0.0274 0.1639,0.0195 0.2311,0.0295 0.0384,0.0057 0.0745,0.0429 0.099,0.076 0,0 -0.0537,-0.084 -0.0578,-0.0895 -0.0653,-0.0882 -0.047,-0.1787 -0.037,-0.2459 0.0086,-0.0576 -0.0157,-0.125 -0.0688,-0.1967 -0.0625,-0.0843 -0.2767,-0.0564 -0.3407,-0.1427 -0.0142,0.1163 -0.17,0.2118 -0.1956,0.1941z">
      <metadata id="CorelCorpID_41">
       <odm name="Nom" value="sepale" type="0"/>
      </metadata>
     </path>
     <path id="petale_1_37" fill="#C864C8" stroke="#7F7F7F" stroke-width="0.0762" d="M161.286 161.064c-0.2646,-0.0694 -0.3965,-0.2335 -0.6754,-0.4092 -0.4531,-0.2855 -1.2573,-0.6873 -1.6662,-0.3436 -0.1429,0.1202 -0.7159,0.5126 -0.8525,0.4773 0.6281,1.043 1.9144,1.9985 2.9192,0.8407 0.1184,-0.1364 0.4156,-0.4279 0.2749,-0.5652z">
      <metadata id="CorelCorpID_42">
       <odm name="Nom" value="petale_1" type="0"/>
      </metadata>
     </path>
     <path id="petale_2_38" fill="#C864C8" stroke="#7F7F7F" stroke-width="0.0762" d="M161.464 160.819c-0.103,-0.2535 -0.2829,-0.3631 -0.4931,-0.6169 -0.3416,-0.4124 -0.844,-1.1579 -0.556,-1.6078 0.1006,-0.1572 0.4158,-0.7762 0.3631,-0.907 1.1154,0.488 2.2291,1.64 1.2109,2.786 -0.1199,0.135 -0.3706,0.4675 -0.5249,0.3457z">
      <metadata id="CorelCorpID_43">
       <odm name="Nom" value="petale_2" type="0"/>
      </metadata>
     </path>
     <path id="petale_3_39" fill="#C864C8" stroke="#7F7F7F" stroke-width="0.0762" d="M161.846 161.001c0.2522,-0.106 0.3596,-0.2872 0.6109,-0.5004 0.4083,-0.3466 1.1477,-0.8579 1.601,-0.5753 0.1585,0.0987 0.7811,0.4064 0.9113,0.3521 -0.4745,1.1213 -1.6131,2.2487 -2.7712,1.2444 -0.1365,-0.1183 -0.4719,-0.365 -0.352,-0.5208z">
      <metadata id="CorelCorpID_44">
       <odm name="Nom" value="petale_3" type="0"/>
      </metadata>
     </path>
     <path id="petale_4_40" fill="#C864C8" stroke="#7F7F7F" stroke-width="0.0762" d="M161.763 161.384c0.077,0.2626 0.245,0.3896 0.4287,0.6633 0.2985,0.4446 0.7236,1.2367 0.392,1.6554 -0.116,0.1464 -0.4916,0.7306 -0.4523,0.8661 -1.0609,-0.5974 -2.0534,-1.8554 -0.9254,-2.8934 0.1329,-0.1224 0.4156,-0.428 0.557,-0.2914z">
      <metadata id="CorelCorpID_45">
       <odm name="Nom" value="petale_4" type="0"/>
      </metadata>
     </path>
     <g id="etamine_41">
       <metadata id="CorelCorpID_46">
        <odm name="Nom" value="etamine" type="0"/>
       </metadata>
      <path id="_76420776" fill="#F07850" stroke="#7F7F7F" stroke-width="0.0762" d="M161.839 161.118c0.0529,0.0301 0.2673,-0.0141 0.3318,-0.0243 0.1016,-0.016 0.3482,-0.087 0.4204,-0.1026 0.0047,-0.001 -0.2306,0.0257 -0.2858,0.0372 -0.1047,0.0218 -0.4799,-0.0057 -0.475,0.0313 0.0039,0.0296 0.0017,0.0389 0.0086,0.0584z"/>
      <path id="_77213680" fill="#F0F04D" stroke="#7F7F7F" stroke-width="0.0762" d="M162.133 161.176c0.1088,0.0074 0.4343,-0.0619 0.4984,-0.185 0.0018,-0.097 -0.4187,-0.0586 -0.4651,-0.0425 -0.0512,0.016 -0.1015,0.0624 -0.1066,0.1266 -0.0013,0.016 -0.0086,0.0822 0.0733,0.1009z"/>
     </g>
     <g id="etamine_42">
       <metadata id="CorelCorpID_47">
        <odm name="Nom" value="etamine" type="0"/>
       </metadata>
      <path id="_77187880" fill="#F07850" stroke="#7F7F7F" stroke-width="0.0762" d="M161.316 161.174c-0.0456,0.0402 -0.2645,0.0406 -0.3297,0.0437 -0.1028,0.005 -0.3587,-0.0143 -0.4325,-0.0149 -0.0049,-0.0001 0.231,-0.0218 0.2874,-0.0218 0.1069,0.0001 0.4686,-0.1032 0.4714,-0.0659 0.0022,0.0298 0.0062,0.0384 0.0034,0.0589z"/>
      <path id="_76714880" fill="#F0F04D" stroke="#7F7F7F" stroke-width="0.0762" d="M161.041 161.29c-0.105,0.0293 -0.4378,0.0277 -0.5256,-0.0798 -0.0215,-0.0946 0.398,-0.1426 0.4467,-0.1362 0.0534,0.0053 0.1121,0.0404 0.1302,0.1023 0.0045,0.0153 0.0251,0.0787 -0.0513,0.1137z"/>
     </g>
     <g id="etamine_43">
       <metadata id="CorelCorpID_48">
        <odm name="Nom" value="etamine" type="0"/>
       </metadata>
      <path id="_65716616" fill="#F07850" stroke="#7F7F7F" stroke-width="0.0762" d="M161.592 160.841c0.029,-0.0535 -0.0197,-0.2669 -0.0312,-0.3312 -0.0182,-0.1013 -0.0943,-0.3463 -0.1115,-0.4182 -0.0011,-0.0047 0.0306,0.2301 0.0432,0.285 0.024,0.1042 0.0043,0.4799 0.0413,0.4742 0.0295,-0.0045 0.0388,-0.0025 0.0582,-0.0098z"/>
      <path id="_77202664" fill="#F0F046" stroke="#7F7F7F" stroke-width="0.0762" d="M161.643 160.546c0.0051,-0.1089 -0.071,-0.4329 -0.1954,-0.4945 -0.097,0.0003 -0.0499,0.4199 -0.0328,0.4659 0.0172,0.0509 0.0646,0.1002 0.1289,0.104 0.016,0.0009 0.0824,0.0069 0.0993,-0.0754z"/>
     </g>
     <g id="etamine_44">
       <metadata id="CorelCorpID_49">
        <odm name="Nom" value="etamine" type="0"/>
       </metadata>
      <path id="_66492952" fill="#F07850" stroke="#7F7F7F" stroke-width="0.0762" d="M161.642 161.369c0.0376,0.0477 0.0259,0.2664 0.0255,0.3316 -0.0007,0.1029 -0.0342,0.3574 -0.0389,0.4311 -0.0003,0.0048 -0.0089,-0.2319 -0.0058,-0.2882 0.006,-0.1068 -0.0772,-0.4736 -0.0398,-0.4743 0.0298,-0.0006 0.0387,-0.0042 0.059,-0.0002z"/>
      <path id="_76704160" fill="#F0F04D" stroke="#7F7F7F" stroke-width="0.0762" d="M161.743 161.65c0.0236,0.1064 0.0036,0.4386 -0.1086,0.5204 -0.0956,0.0163 -0.1204,-0.4052 -0.1114,-0.4535 0.0083,-0.0531 0.0466,-0.1097 0.1094,-0.1244 0.0155,-0.0036 0.08,-0.0207 0.1106,0.0575z"/>
     </g>
    </g>
    <g id="fleur_x0020_bas_45">
     <path id="_76834608" fill="none" stroke="#1F1A17" stroke-width="0.0762" d="M165.798 164.099c-1.3693,0.67 -2.5351,1.5499 -3.8517,2.2847"/>
     <path id="sepale_46" fill="#C8FF64" stroke="#7F7F7F" stroke-width="0.0762" d="M160.929 167.585c-0.1167,0.0053 -0.4322,0.1054 -0.5217,-0.0728 -0.0928,-0.0788 -0.1134,-0.1199 -0.1616,-0.1678 -0.0275,-0.0274 -0.0789,-0.0342 -0.1201,-0.0341 0,0 0.0995,-0.0071 0.1063,-0.0071 0.1098,-0.0002 0.1715,-0.0689 0.2194,-0.1171 0.0411,-0.0412 0.1097,-0.0619 0.1989,-0.0621 0.1049,-0.0002 0.2104,0.1884 0.3178,0.1882 -0.0848,0.0808 -0.0685,0.2628 -0.039,0.2728z">
      <metadata id="CorelCorpID_50">
       <odm name="Nom" value="sepale" type="0"/>
      </metadata>
     </path>
     <circle id="_66396296" fill="#F0F04D" stroke="#7F7F7F" stroke-width="0.0762" transform="matrix(0.00238157 -0.0886601 0.0886601 0.00238157 161.164 167.481)" r="2.9417"/>
     <path id="sepale_47" fill="#C8FF64" stroke="#7F7F7F" stroke-width="0.0762" d="M161.263 167.72c0.0059,0.1167 0.1074,0.4318 -0.0705,0.5221 -0.0783,0.0931 -0.1193,0.114 -0.1671,0.1623 -0.0272,0.0276 -0.0338,0.0791 -0.0335,0.1203 0,0 -0.0075,-0.0994 -0.0075,-0.1063 -0.0007,-0.1098 -0.0698,-0.1711 -0.1181,-0.2188 -0.0414,-0.0409 -0.0624,-0.1094 -0.063,-0.1986 -0.0007,-0.105 0.1874,-0.2113 0.1867,-0.3187 0.0812,0.0845 0.2631,0.0673 0.273,0.0377z">
      <metadata id="CorelCorpID_51">
       <odm name="Nom" value="sepale" type="0"/>
      </metadata>
     </path>
     <path id="sepale_48" fill="#C8FF64" stroke="#7F7F7F" stroke-width="0.0762" d="M161.335 167.303c0.05,-0.1056 0.2641,-0.358 0.1342,-0.5094 -0.0368,-0.116 -0.0668,-0.1509 -0.0924,-0.2138 -0.0147,-0.036 -0.001,-0.0861 0.0149,-0.124 0,0 -0.0449,0.0891 -0.0475,0.0954 -0.0426,0.1012 -0.1298,0.1315 -0.1927,0.1572 -0.0539,0.022 -0.0995,0.0772 -0.1341,0.1595 -0.0407,0.0967 0.0926,0.2667 0.0509,0.3658 0.1073,-0.0471 0.2689,0.0382 0.2667,0.0693z">
      <metadata id="CorelCorpID_52">
       <odm name="Nom" value="sepale" type="0"/>
      </metadata>
     </path>
     <path id="sepale_49" fill="#C8FF64" stroke="#7F7F7F" stroke-width="0.0762" d="M161.35 167.661c0.1056,0.0499 0.3581,0.2639 0.5094,0.134 0.116,-0.0368 0.1509,-0.0668 0.2138,-0.0925 0.0359,-0.0147 0.086,-0.0011 0.124,0.0149 0,0 -0.0891,-0.0449 -0.0954,-0.0475 -0.1012,-0.0426 -0.1316,-0.1298 -0.1572,-0.1927 -0.022,-0.0539 -0.0773,-0.0994 -0.1596,-0.134 -0.0967,-0.0406 -0.2667,0.0926 -0.3658,0.051 0.0471,0.1073 -0.0382,0.2689 -0.0692,0.2668z">
      <metadata id="CorelCorpID_53">
       <odm name="Nom" value="sepale" type="0"/>
      </metadata>
     </path>
     <path id="petale_1_50" fill="#C864C8" stroke="#7F7F7F" stroke-width="0.0762" d="M160.893 167.59c-0.263,0.0753 -0.4602,0.0014 -0.7896,-0.0075 -0.5354,-0.0143 -1.432,0.0503 -1.6084,0.5544 -0.0617,0.1763 -0.3543,0.8062 -0.4898,0.8454 1.0723,0.5768 2.666,0.7424 2.9397,-0.7659 0.0322,-0.1777 0.1392,-0.5801 -0.0519,-0.6264z">
      <metadata id="CorelCorpID_54">
       <odm name="Nom" value="petale_1" type="0"/>
      </metadata>
     </path>
     <path id="petale_2_51" fill="#C864C8" stroke="#7F7F7F" stroke-width="0.0762" d="M160.921 167.289c-0.2179,-0.1655 -0.4285,-0.168 -0.7387,-0.2791 -0.5043,-0.1805 -1.3166,-0.5654 -1.2985,-1.0992 0.0064,-0.1867 -0.0383,-0.8798 -0.1503,-0.9654 1.2083,-0.1493 2.7538,0.2735 2.4627,1.7785 -0.0343,0.1774 -0.0803,0.5912 -0.2752,0.5652z">
      <metadata id="CorelCorpID_55">
       <odm name="Nom" value="petale_2" type="0"/>
      </metadata>
     </path>
     <path id="petale_3_52" fill="#C864C8" stroke="#7F7F7F" stroke-width="0.0762" d="M161.343 167.25c0.1629,-0.2199 0.1628,-0.4305 0.2701,-0.7421 0.1745,-0.5063 0.5496,-1.3232 1.0836,-1.3115 0.1867,0.0042 0.8793,-0.0488 0.9635,-0.1619 0.1638,1.2064 -0.2404,2.7569 -1.7488,2.4839 -0.1777,-0.0322 -0.5921,-0.0732 -0.5684,-0.2684z">
      <metadata id="CorelCorpID_56">
       <odm name="Nom" value="petale_3" type="0"/>
      </metadata>
     </path>
     <path id="petale_4_53" fill="#C864C8" stroke="#7F7F7F" stroke-width="0.0762" d="M161.467 167.623c0.2002,0.1865 0.4094,0.2101 0.707,0.3517 0.4836,0.2302 1.2532,0.6947 1.1816,1.224 -0.025,0.185 -0.0501,0.8792 0.0528,0.9756 -1.2172,0.0273 -2.7126,-0.5484 -2.2719,-2.0166 0.0519,-0.173 0.1392,-0.5801 0.3305,-0.5347z">
      <metadata id="CorelCorpID_57">
       <odm name="Nom" value="petale_4" type="0"/>
      </metadata>
     </path>
     <g id="etamine_54">
       <metadata id="CorelCorpID_58">
        <odm name="Nom" value="etamine" type="0"/>
       </metadata>
      <path id="_67140064" fill="#F07850" stroke="#7F7F7F" stroke-width="0.0762" d="M161.397 167.355c0.0608,-0.0011 0.2227,-0.1485 0.2729,-0.1901 0.0793,-0.0656 0.2552,-0.2525 0.3093,-0.3028 0.0035,-0.0033 -0.1852,0.1398 -0.2268,0.1778 -0.079,0.0722 -0.4157,0.2399 -0.3926,0.2693 0.0185,0.0234 0.0213,0.0325 0.0372,0.0458z"/>
      <path id="_66388464" fill="#F0F04D" stroke="#7F7F7F" stroke-width="0.0762" d="M161.679 167.254c0.0973,-0.0492 0.342,-0.2748 0.3344,-0.4134 -0.048,-0.0844 -0.3901,0.1631 -0.4217,0.2007 -0.0359,0.0399 -0.0555,0.1054 -0.0272,0.1633 0.0071,0.0144 0.0346,0.0751 0.1145,0.0494z"/>
     </g>
     <g id="etamine_55">
       <metadata id="CorelCorpID_59">
        <odm name="Nom" value="etamine" type="0"/>
       </metadata>
      <path id="_27591144" fill="#F07850" stroke="#7F7F7F" stroke-width="0.0762" d="M160.976 167.67c-0.0187,0.0579 -0.2068,0.1699 -0.2613,0.2058 -0.0858,0.0568 -0.3158,0.1706 -0.3796,0.2078 -0.0042,0.0024 0.1876,-0.1366 0.2361,-0.1653 0.092,-0.0545 0.3504,-0.3278 0.3718,-0.2972 0.0171,0.0245 0.025,0.0298 0.033,0.0489z"/>
      <path id="_77240216" fill="#F0F04D" stroke="#7F7F7F" stroke-width="0.0762" d="M160.798 167.91c-0.0753,0.0788 -0.3624,0.2471 -0.4928,0.1995 -0.0668,-0.0704 0.2696,-0.3257 0.3147,-0.345 0.0487,-0.0228 0.1171,-0.0224 0.1642,0.0215 0.0117,0.011 0.0618,0.0549 0.0139,0.124z"/>
     </g>
     <g id="etamine_56">
       <metadata id="CorelCorpID_60">
        <odm name="Nom" value="etamine" type="0"/>
       </metadata>
      <path id="_77225328" fill="#F07850" stroke="#7F7F7F" stroke-width="0.0762" d="M161.042 167.243c-0.0023,-0.0607 -0.1531,-0.2195 -0.1957,-0.2689 -0.0673,-0.0778 -0.2578,-0.2498 -0.3092,-0.3028 -0.0034,-0.0035 0.1436,0.1823 0.1825,0.2231 0.0738,0.0774 0.2485,0.4105 0.2774,0.3868 0.0231,-0.0189 0.0321,-0.022 0.045,-0.0382z"/>
      <path id="_77225304" fill="#F0F046" stroke="#7F7F7F" stroke-width="0.0762" d="M160.936 166.963c-0.0511,-0.0963 -0.2819,-0.3361 -0.4203,-0.3256 -0.0833,0.0497 0.1713,0.3865 0.2095,0.4174 0.0407,0.035 0.1066,0.0533 0.1639,0.0237 0.0142,-0.0073 0.0743,-0.0361 0.0469,-0.1155z"/>
     </g>
     <g id="etamine_57">
       <metadata id="CorelCorpID_61">
        <odm name="Nom" value="etamine" type="0"/>
       </metadata>
      <path id="_76443576" fill="#F07850" stroke="#7F7F7F" stroke-width="0.0762" d="M161.355 167.671c0.0567,0.0218 0.1581,0.2159 0.1911,0.2722 0.0518,0.0889 0.1529,0.3248 0.1864,0.3906 0.0022,0.0043 -0.1259,-0.1949 -0.152,-0.2449 -0.0493,-0.0949 -0.308,-0.368 -0.2762,-0.3876 0.0254,-0.0158 0.0312,-0.0233 0.0507,-0.0303z"/>
      <path id="_66381248" fill="#F0F04D" stroke="#7F7F7F" stroke-width="0.0762" d="M161.585 167.862c0.0745,0.0795 0.2268,0.3754 0.1721,0.503 -0.074,0.0628 -0.3103,-0.2872 -0.3272,-0.3333 -0.02,-0.0498 -0.0159,-0.1181 0.0306,-0.1627 0.0116,-0.0111 0.0582,-0.0587 0.1245,-0.007z"/>
     </g>
    </g>
    <g id="fleur_x0020_milieu_58">
     <path id="_66427040" fill="none" stroke="#1F1A17" stroke-width="0.0762" d="M165.813 164.127c-1.5037,-0.2503 -2.9638,-0.2116 -4.4623,-0.3786"/>
     <path id="sepale_59" fill="#C8FF64" stroke="#7F7F7F" stroke-width="0.0762" d="M157.928 164.314c-0.1013,-0.0583 -0.421,-0.1438 -0.4005,-0.3422 -0.0359,-0.1163 -0.0311,-0.1621 -0.0459,-0.2284 -0.0084,-0.0379 -0.0481,-0.0713 -0.0829,-0.0934 0,0 0.0877,0.0476 0.0934,0.0513 0.0927,0.0589 0.1816,0.0342 0.2479,0.0194 0.0569,-0.0126 0.1258,0.0068 0.2011,0.0547 0.0885,0.0563 0.0759,0.272 0.1666,0.3297 -0.1151,0.0224 -0.1992,0.1846 -0.1797,0.2089z">
      <metadata id="CorelCorpID_62">
       <odm name="Nom" value="sepale" type="0"/>
      </metadata>
     </path>
     <circle id="_65832712" fill="#F0F04D" stroke="#7F7F7F" stroke-width="0.0762" transform="matrix(0.0497329 -0.0734365 0.0734365 0.0497329 158.182 164.352)" r="2.9417"/>
     <path id="sepale_60" fill="#C8FF64" stroke="#7F7F7F" stroke-width="0.0762" d="M158.137 164.606c-0.0579,0.1015 -0.1419,0.4216 -0.3404,0.402 -0.1161,0.0363 -0.162,0.0318 -0.2282,0.0468 -0.0378,0.0086 -0.0711,0.0485 -0.093,0.0834 0,0 0.0472,-0.0879 0.0509,-0.0937 0.0585,-0.0929 0.0333,-0.1817 0.0183,-0.248 -0.0129,-0.0567 0.0062,-0.1258 0.0538,-0.2012 0.0559,-0.0888 0.2716,-0.0772 0.3289,-0.1681 0.0229,0.1149 0.1855,0.1984 0.2097,0.1788z">
      <metadata id="CorelCorpID_63">
       <odm name="Nom" value="sepale" type="0"/>
      </metadata>
     </path>
     <path id="sepale_61" fill="#C8FF64" stroke="#7F7F7F" stroke-width="0.0762" d="M158.423 164.294c0.099,-0.062 0.4153,-0.1595 0.3874,-0.357 0.0314,-0.1176 0.0249,-0.1632 0.0371,-0.23 0.007,-0.0382 0.0455,-0.073 0.0794,-0.0964 0,0 -0.0858,0.0508 -0.0915,0.0547 -0.0903,0.0624 -0.1801,0.041 -0.2469,0.0288 -0.0573,-0.0105 -0.1255,0.0116 -0.1989,0.0623 -0.0863,0.0596 -0.0656,0.2746 -0.154,0.3357 0.1158,0.018 0.206,0.1769 0.1874,0.2019z">
      <metadata id="CorelCorpID_64">
       <odm name="Nom" value="sepale" type="0"/>
      </metadata>
     </path>
     <path id="sepale_62" fill="#C8FF64" stroke="#7F7F7F" stroke-width="0.0762" d="M158.242 164.604c0.0621,0.0989 0.1596,0.4152 0.3571,0.3872 0.1176,0.0313 0.1632,0.0249 0.23,0.0371 0.0382,0.007 0.0731,0.0454 0.0965,0.0793 0,0 -0.0509,-0.0858 -0.0548,-0.0914 -0.0624,-0.0904 -0.0411,-0.1802 -0.0289,-0.247 0.0105,-0.0573 -0.0116,-0.1254 -0.0623,-0.1988 -0.0596,-0.0864 -0.2746,-0.0656 -0.3357,-0.154 -0.018,0.1158 -0.1769,0.2061 -0.2019,0.1876z">
      <metadata id="CorelCorpID_65">
       <odm name="Nom" value="sepale" type="0"/>
      </metadata>
     </path>
     <path id="petale_1_63" fill="#C864C8" stroke="#7F7F7F" stroke-width="0.0762" d="M157.895 164.298c-0.2622,-0.0781 -0.3886,-0.2465 -0.6615,-0.4313 -0.4434,-0.3003 -1.2338,-0.7285 -1.6539,-0.3986 -0.1468,0.1154 -0.7325,0.4886 -0.8678,0.4488 0.5931,1.0632 1.8471,2.0608 2.8897,0.9369 0.1228,-0.1324 0.4296,-0.4139 0.2935,-0.5558z">
      <metadata id="CorelCorpID_66">
       <odm name="Nom" value="petale_1" type="0"/>
      </metadata>
     </path>
     <path id="petale_2_64" fill="#C864C8" stroke="#7F7F7F" stroke-width="0.0762" d="M158.081 164.06c-0.0945,-0.2567 -0.2706,-0.3722 -0.4723,-0.6328 -0.3278,-0.4235 -0.8052,-1.1853 -0.5025,-1.6253 0.1058,-0.1539 0.4412,-0.7621 0.3929,-0.8946 1.0987,0.5247 2.1736,1.7129 1.1181,2.8246 -0.1244,0.131 -0.3859,0.455 -0.5362,0.3281z">
      <metadata id="CorelCorpID_67">
       <odm name="Nom" value="petale_2" type="0"/>
      </metadata>
     </path>
     <path id="petale_3_65" fill="#C864C8" stroke="#7F7F7F" stroke-width="0.0762" d="M158.458 164.254c0.2556,-0.0976 0.369,-0.2751 0.6271,-0.4799 0.4196,-0.3329 1.1755,-0.8194 1.6192,-0.522 0.1552,0.104 0.7673,0.4321 0.8992,0.3822 -0.5114,1.1049 -1.6867,2.194 -2.8109,1.1519 -0.1325,-0.1228 -0.4596,-0.3804 -0.3346,-0.5322z">
      <metadata id="CorelCorpID_68">
       <odm name="Nom" value="petale_3" type="0"/>
      </metadata>
     </path>
     <path id="petale_4_66" fill="#C864C8" stroke="#7F7F7F" stroke-width="0.0762" d="M158.362 164.634c0.0683,0.2649 0.232,0.3975 0.4065,0.677 0.2836,0.4543 0.6822,1.2601 0.3369,1.6676 -0.1207,0.1424 -0.5155,0.7139 -0.4807,0.8506 -1.0405,-0.6322 -1.9908,-1.9223 -0.829,-2.9225 0.1368,-0.1178 0.4295,-0.414 0.5663,-0.2727z">
      <metadata id="CorelCorpID_69">
       <odm name="Nom" value="petale_4" type="0"/>
      </metadata>
     </path>
     <g id="etamine_67">
       <metadata id="CorelCorpID_70">
        <odm name="Nom" value="etamine" type="0"/>
       </metadata>
      <path id="_67229664" fill="#F07850" stroke="#7F7F7F" stroke-width="0.0762" d="M158.447 164.371c0.0518,0.0319 0.2676,-0.0052 0.3324,-0.0133 0.1021,-0.0126 0.3509,-0.0754 0.4236,-0.0886 0.0047,-0.0009 -0.2314,0.018 -0.2869,0.0277 -0.1054,0.0183 -0.4794,-0.0216 -0.4758,0.0156 0.0029,0.0297 0.0004,0.0389 0.0067,0.0586z"/>
      <path id="_64437320" fill="#F0F04D" stroke="#7F7F7F" stroke-width="0.0762" d="M158.738 164.438c0.1084,0.011 0.4361,-0.0475 0.5043,-0.1684 0.005,-0.0969 -0.4165,-0.0725 -0.4635,-0.0579 -0.0517,0.0144 -0.1035,0.059 -0.1108,0.1231 -0.0017,0.0159 -0.0113,0.0818 0.07,0.1032z"/>
     </g>
     <g id="etamine_68">
       <metadata id="CorelCorpID_71">
        <odm name="Nom" value="etamine" type="0"/>
       </metadata>
      <path id="_66818480" fill="#F07850" stroke="#7F7F7F" stroke-width="0.0762" d="M157.922 164.41c-0.0469,0.0387 -0.2657,0.0318 -0.331,0.0328 -0.1029,0.0015 -0.358,-0.0262 -0.4318,-0.0293 -0.0048,-0.0002 0.2316,-0.0141 0.288,-0.0122 0.1069,0.0036 0.4718,-0.0877 0.4733,-0.0503 0.0013,0.0298 0.005,0.0386 0.0015,0.059z"/>
      <path id="_65763208" fill="#F0F04D" stroke="#7F7F7F" stroke-width="0.0762" d="M157.643 164.517c-0.1059,0.0259 -0.4384,0.0132 -0.5227,-0.0971 -0.0183,-0.0953 0.4025,-0.1293 0.451,-0.1213 0.0532,0.007 0.1107,0.0441 0.1267,0.1065 0.004,0.0155 0.0225,0.0795 -0.055,0.1119z"/>
     </g>
     <g id="etamine_69">
       <metadata id="CorelCorpID_72">
        <odm name="Nom" value="etamine" type="0"/>
       </metadata>
      <path id="_76681016" fill="#F07850" stroke="#7F7F7F" stroke-width="0.0762" d="M158.208 164.086c0.0307,-0.0524 -0.0109,-0.2674 -0.0203,-0.332 -0.0148,-0.1018 -0.0827,-0.3492 -0.0975,-0.4216 -0.001,-0.0047 0.0229,0.2309 0.0337,0.2862 0.0206,0.105 -0.0115,0.4798 0.0256,0.4753 0.0296,-0.0035 0.0389,-0.0012 0.0585,-0.0079z"/>
      <path id="_65501112" fill="#F0F046" stroke="#7F7F7F" stroke-width="0.0762" d="M158.269 163.793c0.0087,-0.1087 -0.0566,-0.435 -0.1789,-0.5007 -0.097,-0.0029 -0.0637,0.418 -0.0482,0.4646 0.0155,0.0514 0.0612,0.1023 0.1254,0.1082 0.0159,0.0015 0.0821,0.0096 0.1017,-0.0721z"/>
     </g>
     <g id="etamine_70">
       <metadata id="CorelCorpID_73">
        <odm name="Nom" value="etamine" type="0"/>
       </metadata>
      <path id="_67143400" fill="#F07850" stroke="#7F7F7F" stroke-width="0.0762" d="M158.241 164.615c0.036,0.049 0.017,0.2671 0.0144,0.3323 -0.0041,0.1029 -0.0459,0.356 -0.053,0.4296 -0.0005,0.0048 -0.0013,-0.2321 0.0037,-0.2882 0.0095,-0.1066 -0.0615,-0.476 -0.0241,-0.4754 0.0298,0.0004 0.0388,-0.0029 0.059,0.0017z"/>
      <path id="_67143376" fill="#F0F04D" stroke="#7F7F7F" stroke-width="0.0762" d="M158.332 164.9c0.02,0.1072 -0.011,0.4385 -0.1258,0.5166 -0.0961,0.013 -0.1069,-0.4091 -0.0963,-0.457 0.01,-0.0528 0.0502,-0.1081 0.1134,-0.1207 0.0157,-0.0031 0.0807,-0.0181 0.1087,0.0611z"/>
     </g>
    </g>
   </g>
   <g id="bouquet_3">
    <g id="fleur_x0020_haut_71">
     <path id="_65788120" fill="none" stroke="#1F1A17" stroke-width="0.0762" d="M167.717 131.826c-0.7027,-1.3529 -1.6102,-2.4973 -2.3763,-3.796"/>
     <path id="sepale_72" fill="#C8FF64" stroke="#7F7F7F" stroke-width="0.0762" d="M164.819 127.223c-0.0722,-0.0919 -0.3368,-0.2907 -0.2437,-0.4671 0.0103,-0.1212 0.0318,-0.1619 0.0428,-0.229 0.0064,-0.0383 -0.018,-0.0841 -0.042,-0.1176 0,0 0.0635,0.0769 0.0675,0.0825 0.0639,0.0893 0.1557,0.0996 0.2227,0.1106 0.0575,0.0096 0.1141,0.0534 0.1661,0.1259 0.061,0.0853 -0.0312,0.2807 0.0313,0.368 -0.1151,-0.0221 -0.2537,0.0968 -0.2447,0.1267z">
      <metadata id="CorelCorpID_74">
       <odm name="Nom" value="sepale" type="0"/>
      </metadata>
     </path>
     <circle id="_65787112" fill="#F0F04D" stroke="#7F7F7F" stroke-width="0.0762" transform="matrix(0.0735697 -0.0495356 0.0495356 0.0735697 165.041 127.353)" r="2.9417"/>
     <path id="sepale_73" fill="#C8FF64" stroke="#7F7F7F" stroke-width="0.0762" d="M164.903 127.572c-0.0916,0.0726 -0.2891,0.3381 -0.4659,0.2458 -0.1213,-0.0097 -0.1621,-0.0311 -0.2292,-0.0418 -0.0383,-0.0062 -0.0841,0.0184 -0.1174,0.0425 0,0 0.0766,-0.0639 0.0822,-0.0679 0.0889,-0.0643 0.0988,-0.1561 0.1096,-0.2231 0.0092,-0.0575 0.0528,-0.1144 0.1251,-0.1667 0.085,-0.0614 0.2808,0.03 0.3679,-0.033 -0.0217,0.1152 0.0979,0.2533 0.1277,0.2442z">
      <metadata id="CorelCorpID_75">
       <odm name="Nom" value="sepale" type="0"/>
      </metadata>
     </path>
     <path id="sepale_74" fill="#C8FF64" stroke="#7F7F7F" stroke-width="0.0762" d="M165.285 127.39c0.115,-0.0206 0.4448,0.0072 0.4927,-0.1865 0.0731,-0.0973 0.0841,-0.142 0.1204,-0.1994 0.0208,-0.0328 0.0695,-0.0508 0.1096,-0.0598 0,0 -0.0985,0.0151 -0.1052,0.0166 -0.1071,0.0241 -0.1825,-0.0293 -0.2399,-0.0656 -0.0492,-0.0311 -0.1206,-0.0361 -0.2077,-0.0165 -0.1023,0.023 -0.1635,0.2302 -0.2683,0.2538 0.1007,0.06 0.125,0.2411 0.0984,0.2574z">
      <metadata id="CorelCorpID_76">
       <odm name="Nom" value="sepale" type="0"/>
      </metadata>
     </path>
     <path id="sepale_75" fill="#C8FF64" stroke="#7F7F7F" stroke-width="0.0762" d="M165.002 127.609c0.0206,0.115 -0.0071,0.4448 0.1866,0.4926 0.0973,0.073 0.142,0.084 0.1994,0.1203 0.0329,0.0208 0.0509,0.0695 0.0599,0.1096 0,0 -0.0152,-0.0985 -0.0167,-0.1052 -0.0241,-0.1071 0.0293,-0.1825 0.0656,-0.2399 0.0311,-0.0492 0.0361,-0.1207 0.0165,-0.2077 -0.0231,-0.1024 -0.2303,-0.1634 -0.2539,-0.2682 -0.06,0.1006 -0.2411,0.125 -0.2574,0.0985z">
      <metadata id="CorelCorpID_77">
       <odm name="Nom" value="sepale" type="0"/>
      </metadata>
     </path>
     <path id="petale_1_76" fill="#C864C8" stroke="#7F7F7F" stroke-width="0.0762" d="M164.794 127.196c-0.214,-0.1704 -0.2683,-0.3739 -0.4524,-0.6472 -0.2991,-0.4443 -0.8723,-1.1368 -1.3852,-0.9877 -0.1793,0.0521 -0.8621,0.1796 -0.9727,0.092 0.153,1.2079 0.9434,2.6017 2.3304,1.9488 0.1634,-0.0769 0.5531,-0.2234 0.4799,-0.4059z">
      <metadata id="CorelCorpID_78">
       <odm name="Nom" value="petale_1" type="0"/>
      </metadata>
     </path>
     <path id="petale_2_77" fill="#C864C8" stroke="#7F7F7F" stroke-width="0.0762" d="M165.055 127.045c0.0083,-0.2735 -0.112,-0.4464 -0.2017,-0.7635 -0.1458,-0.5153 -0.304,-1.4003 0.1412,-1.6954 0.1556,-0.1031 0.694,-0.5419 0.6987,-0.6829 0.8231,0.8972 1.3762,2.401 -0.0183,3.0378 -0.1643,0.075 -0.5279,0.2778 -0.6199,0.104z">
      <metadata id="CorelCorpID_79">
       <odm name="Nom" value="petale_2" type="0"/>
      </metadata>
     </path>
     <path id="petale_3_78" fill="#C864C8" stroke="#7F7F7F" stroke-width="0.0762" d="M165.332 127.366c0.2736,0.005 0.4451,-0.1173 0.7611,-0.2109 0.5135,-0.1519 1.3965,-0.3208 1.6969,0.1208 0.1051,0.1544 0.5503,0.6875 0.6913,0.6905 -0.8872,0.8338 -2.3843,1.4049 -3.0378,0.0182 -0.077,-0.1634 -0.2841,-0.5246 -0.1115,-0.6186z">
      <metadata id="CorelCorpID_80">
       <odm name="Nom" value="petale_3" type="0"/>
      </metadata>
     </path>
     <path id="petale_4_79" fill="#C864C8" stroke="#7F7F7F" stroke-width="0.0762" d="M165.101 127.683c-0.0356,0.2713 0.0667,0.4554 0.1241,0.7799 0.0934,0.5273 0.162,1.4237 -0.3105,1.6726 -0.1652,0.0871 -0.7449,0.4697 -0.7637,0.6094 -0.7289,-0.9752 -1.1284,-2.5269 0.3229,-3.0206 0.171,-0.0581 0.5531,-0.2234 0.6272,-0.0413z">
      <metadata id="CorelCorpID_81">
       <odm name="Nom" value="petale_4" type="0"/>
      </metadata>
     </path>
     <g id="etamine_80">
       <metadata id="CorelCorpID_82">
        <odm name="Nom" value="etamine" type="0"/>
       </metadata>
      <path id="_66400304" fill="#F07850" stroke="#7F7F7F" stroke-width="0.0762" d="M165.278 127.47c0.0362,0.0489 0.2502,0.0951 0.3133,0.1118 0.0994,0.0265 0.3537,0.0612 0.426,0.0761 0.0048,0.0009 -0.2213,-0.0697 -0.2764,-0.0815 -0.1046,-0.0224 -0.4366,-0.1992 -0.4472,-0.1633 -0.0084,0.0286 -0.0141,0.0362 -0.0157,0.0569z"/>
      <path id="_66287968" fill="#F0F04D" stroke="#7F7F7F" stroke-width="0.0762" d="M165.524 127.641c0.0965,0.0507 0.4223,0.1188 0.5307,0.0322 0.0409,-0.088 -0.3593,-0.2229 -0.4082,-0.2269 -0.0534,-0.006 -0.1181,0.0161 -0.1488,0.0728 -0.0076,0.014 -0.041,0.0717 0.0263,0.1219z"/>
     </g>
     <g id="etamine_81">
       <metadata id="CorelCorpID_83">
        <odm name="Nom" value="etamine" type="0"/>
       </metadata>
      <path id="_77216592" fill="#F07850" stroke="#7F7F7F" stroke-width="0.0762" d="M164.778 127.31c-0.0579,0.0184 -0.2583,-0.0698 -0.3192,-0.0933 -0.0961,-0.037 -0.3223,-0.158 -0.3896,-0.1885 -0.0044,-0.002 0.2201,0.0735 0.2716,0.0963 0.0978,0.0433 0.4704,0.095 0.4579,0.1302 -0.01,0.0281 -0.0098,0.0377 -0.0207,0.0553z"/>
      <path id="_65729608" fill="#F0F04D" stroke="#7F7F7F" stroke-width="0.0762" d="M164.478 127.305c-0.1079,-0.0156 -0.4116,-0.1515 -0.4486,-0.2853 0.0186,-0.0953 0.4217,0.0304 0.4637,0.0559 0.0468,0.0264 0.0862,0.0823 0.0778,0.1462 -0.0021,0.0158 -0.0089,0.0821 -0.0929,0.0832z"/>
     </g>
     <g id="etamine_82">
       <metadata id="CorelCorpID_84">
        <odm name="Nom" value="etamine" type="0"/>
       </metadata>
      <path id="_66391488" fill="#F07850" stroke="#7F7F7F" stroke-width="0.0762" d="M165.164 127.116c0.0481,-0.0372 0.0898,-0.2521 0.1053,-0.3155 0.0243,-0.1 0.0537,-0.3549 0.0671,-0.4276 0.0008,-0.0047 -0.0651,0.2228 -0.0757,0.2781 -0.0202,0.105 -0.19,0.4407 -0.1539,0.4505 0.0288,0.0078 0.0365,0.0134 0.0572,0.0145z"/>
      <path id="_65831280" fill="#F0F046" stroke="#7F7F7F" stroke-width="0.0762" d="M165.33 126.867c0.0487,-0.0975 0.11,-0.4246 0.0211,-0.5312 -0.0888,-0.039 -0.2153,0.3639 -0.2182,0.4129 -0.005,0.0535 0.0185,0.1177 0.0758,0.1472 0.0142,0.0073 0.0726,0.0396 0.1213,-0.0289z"/>
     </g>
     <g id="etamine_83">
       <metadata id="CorelCorpID_85">
        <odm name="Nom" value="etamine" type="0"/>
       </metadata>
      <path id="_66286880" fill="#F07850" stroke="#7F7F7F" stroke-width="0.0762" d="M164.997 127.619c0.0151,0.0589 -0.084,0.2541 -0.1108,0.3137 -0.0422,0.0938 -0.1756,0.313 -0.2097,0.3785 -0.0023,0.0043 0.0855,-0.2157 0.1111,-0.2659 0.0486,-0.0952 0.1208,-0.4644 0.1553,-0.45 0.0275,0.0116 0.037,0.0119 0.0541,0.0237z"/>
      <path id="_66524632" fill="#F0F04D" stroke="#7F7F7F" stroke-width="0.0762" d="M164.975 127.918c-0.0214,0.1068 -0.174,0.4026 -0.3096,0.4321 -0.0941,-0.0238 0.0536,-0.4193 0.0814,-0.4598 0.029,-0.0453 0.0869,-0.0816 0.1502,-0.0696 0.0158,0.003 0.0816,0.0133 0.078,0.0973z"/>
     </g>
    </g>
    <g id="fleur_x0020_bas_84">
     <path id="_65501712" fill="none" stroke="#1F1A17" stroke-width="0.0762" d="M167.694 131.796c-1.5233,0.0595 -2.9453,0.3931 -4.4465,0.5331"/>
     <path id="sepale_85" fill="#C8FF64" stroke="#7F7F7F" stroke-width="0.0762" d="M161.832 133.018c-0.1089,-0.0422 -0.438,-0.0782 -0.4478,-0.2774 -0.0531,-0.1095 -0.0553,-0.1555 -0.08,-0.2188 -0.0141,-0.0362 -0.0584,-0.0632 -0.0961,-0.0797 0,0 0.0938,0.0337 0.1001,0.0365 0.1005,0.0442 0.1847,0.0062 0.248,-0.0184 0.0542,-0.0211 0.1253,-0.0124 0.207,0.0235 0.0961,0.0422 0.1163,0.2573 0.2147,0.3006 -0.1103,0.0396 -0.1689,0.2127 -0.1459,0.2337z">
      <metadata id="CorelCorpID_86">
       <odm name="Nom" value="sepale" type="0"/>
      </metadata>
     </path>
     <circle id="_66861288" fill="#F0F04D" stroke="#7F7F7F" stroke-width="0.0762" transform="matrix(0.03801 -0.0801344 0.0801344 0.03801 162.089 133.017)" r="2.9417"/>
     <path id="sepale_86" fill="#C8FF64" stroke="#7F7F7F" stroke-width="0.0762" d="M162.083 133.275c-0.0418,0.1091 -0.0762,0.4383 -0.2754,0.4491 -0.1093,0.0535 -0.1552,0.056 -0.2184,0.0809 -0.0362,0.0143 -0.0629,0.0587 -0.0793,0.0965 0,0 0.0333,-0.094 0.036,-0.1003 0.0438,-0.1007 0.0054,-0.1847 -0.0195,-0.2479 -0.0214,-0.0541 -0.0129,-0.1253 0.0226,-0.2071 0.0418,-0.0962 0.2568,-0.1175 0.2996,-0.216 0.0401,0.1101 0.2135,0.1679 0.2344,0.1448z">
      <metadata id="CorelCorpID_87">
       <odm name="Nom" value="sepale" type="0"/>
      </metadata>
     </path>
     <path id="sepale_87" fill="#C8FF64" stroke="#7F7F7F" stroke-width="0.0762" d="M162.318 132.923c0.0884,-0.0764 0.3862,-0.2208 0.3286,-0.4117 0.0132,-0.121 -0.0001,-0.1651 0.0018,-0.233 0.0012,-0.0388 0.0339,-0.0791 0.0638,-0.1074 0,0 -0.077,0.0633 -0.082,0.0681 -0.0799,0.0753 -0.1719,0.0678 -0.2398,0.0659 -0.0582,-0.0017 -0.1222,0.0304 -0.1871,0.0917 -0.0763,0.072 -0.0232,0.2814 -0.1013,0.3552 0.1172,0.0003 0.2305,0.1436 0.216,0.1712z">
      <metadata id="CorelCorpID_88">
       <odm name="Nom" value="sepale" type="0"/>
      </metadata>
     </path>
     <path id="sepale_88" fill="#C8FF64" stroke="#7F7F7F" stroke-width="0.0762" d="M162.186 133.257c0.0764,0.0883 0.2208,0.3861 0.4118,0.3285 0.121,0.0131 0.165,-0.0002 0.2329,0.0017 0.0388,0.0012 0.0792,0.0339 0.1074,0.0638 0,0 -0.0633,-0.0771 -0.068,-0.082 -0.0754,-0.0799 -0.0679,-0.1719 -0.066,-0.2398 0.0017,-0.0582 -0.0305,-0.1222 -0.0918,-0.187 -0.072,-0.0763 -0.2814,-0.0231 -0.3552,-0.1013 -0.0002,0.1172 -0.1436,0.2306 -0.1711,0.2161z">
      <metadata id="CorelCorpID_89">
       <odm name="Nom" value="sepale" type="0"/>
      </metadata>
     </path>
     <path id="petale_1_89" fill="#C864C8" stroke="#7F7F7F" stroke-width="0.0762" d="M161.797 133.008c-0.271,-0.0373 -0.4215,-0.1847 -0.7193,-0.3259 -0.4839,-0.2295 -1.3301,-0.5328 -1.6952,-0.1429 -0.1277,0.1363 -0.6499,0.5942 -0.7897,0.5753 0.7477,0.9609 2.1385,1.7566 2.9984,0.4875 0.1014,-0.1495 0.3618,-0.4743 0.2058,-0.594z">
      <metadata id="CorelCorpID_90">
       <odm name="Nom" value="petale_1" type="0"/>
      </metadata>
     </path>
     <path id="petale_2_90" fill="#C864C8" stroke="#7F7F7F" stroke-width="0.0762" d="M161.945 132.744c-0.1324,-0.2394 -0.324,-0.3268 -0.5629,-0.5538 -0.3883,-0.3688 -0.9758,-1.0493 -0.7434,-1.5302 0.0812,-0.1681 0.3205,-0.8202 0.2526,-0.9438 1.1656,0.3518 2.4084,1.3631 1.5338,2.6221 -0.103,0.1484 -0.3123,0.5083 -0.4801,0.4057z">
      <metadata id="CorelCorpID_91">
       <odm name="Nom" value="petale_2" type="0"/>
      </metadata>
     </path>
     <path id="petale_3_91" fill="#C864C8" stroke="#7F7F7F" stroke-width="0.0762" d="M162.346 132.879c0.2378,-0.1353 0.3229,-0.3279 0.547,-0.5696 0.3642,-0.3926 1.0375,-0.9883 1.5212,-0.7617 0.1691,0.0793 0.824,0.3107 0.9468,0.2413 -0.3378,1.1697 -1.3342,2.4246 -2.6036,1.5652 -0.1495,-0.1012 -0.512,-0.3062 -0.4114,-0.4752z">
      <metadata id="CorelCorpID_92">
       <odm name="Nom" value="petale_3" type="0"/>
      </metadata>
     </path>
     <path id="petale_4_92" fill="#C864C8" stroke="#7F7F7F" stroke-width="0.0762" d="M162.309 133.269c0.1077,0.2515 0.2896,0.3576 0.5046,0.6075 0.3493,0.4059 0.8656,1.1418 0.5861,1.597 -0.0977,0.1592 -0.4011,0.7839 -0.346,0.9137 -1.1244,-0.4669 -2.2595,-1.5978 -1.2631,-2.7627 0.1174,-0.1373 0.3618,-0.4744 0.5184,-0.3555z">
      <metadata id="CorelCorpID_93">
       <odm name="Nom" value="petale_4" type="0"/>
      </metadata>
     </path>
     <g id="etamine_93">
       <metadata id="CorelCorpID_94">
        <odm name="Nom" value="etamine" type="0"/>
       </metadata>
      <path id="_66447912" fill="#F07850" stroke="#7F7F7F" stroke-width="0.0762" d="M162.353 132.996c0.0561,0.0236 0.2637,-0.0459 0.3265,-0.0636 0.099,-0.028 0.3354,-0.1278 0.4053,-0.152 0.0045,-0.0016 -0.226,0.053 -0.2794,0.071 -0.1013,0.0341 -0.4771,0.0514 -0.4679,0.0876 0.0074,0.0289 0.0063,0.0384 0.0155,0.057z"/>
      <path id="_66524336" fill="#F0F04D" stroke="#7F7F7F" stroke-width="0.0762" d="M162.652 133.018c0.1088,-0.0056 0.4238,-0.1132 0.4729,-0.243 -0.0098,-0.0966 -0.4227,-0.0084 -0.4669,0.0131 -0.049,0.022 -0.0934,0.074 -0.0908,0.1384 0.0006,0.016 0.0012,0.0827 0.0848,0.0915z"/>
     </g>
     <g id="etamine_94">
       <metadata id="CorelCorpID_95">
        <odm name="Nom" value="etamine" type="0"/>
       </metadata>
      <path id="_45513320" fill="#F07850" stroke="#7F7F7F" stroke-width="0.0762" d="M161.841 133.114c-0.0405,0.0453 -0.2578,0.0717 -0.3222,0.0826 -0.1014,0.0172 -0.3578,0.0284 -0.4312,0.0366 -0.0048,0.0005 0.2268,-0.0491 0.2828,-0.0558 0.1061,-0.0127 0.453,-0.1582 0.4602,-0.1215 0.0057,0.0293 0.0108,0.0373 0.0104,0.0581z"/>
      <path id="_66285672" fill="#F0F04D" stroke="#7F7F7F" stroke-width="0.0762" d="M161.581 133.262c-0.1007,0.0416 -0.4314,0.0796 -0.5314,-0.0166 -0.0326,-0.0914 0.3782,-0.189 0.4273,-0.1885 0.0537,-0.0011 0.1161,0.0269 0.1415,0.0861 0.0063,0.0147 0.0343,0.0752 -0.0374,0.119z"/>
     </g>
     <g id="etamine_95">
       <metadata id="CorelCorpID_96">
        <odm name="Nom" value="etamine" type="0"/>
       </metadata>
      <path id="_66262544" fill="#F07850" stroke="#7F7F7F" stroke-width="0.0762" d="M162.074 132.75c0.0224,-0.0565 -0.0513,-0.2626 -0.0704,-0.325 -0.0301,-0.0985 -0.1348,-0.3327 -0.1604,-0.402 -0.0017,-0.0045 0.0577,0.2248 0.0768,0.2778 0.0362,0.1006 0.0613,0.4759 0.0974,0.4659 0.0288,-0.008 0.0382,-0.0071 0.0566,-0.0167z"/>
      <path id="_45409848" fill="#F0F046" stroke="#7F7F7F" stroke-width="0.0762" d="M162.09 132.451c-0.0078,-0.1087 -0.1219,-0.4213 -0.2528,-0.4677 -0.0963,0.0118 0.0005,0.4228 0.0229,0.4665 0.0231,0.0485 0.076,0.0918 0.1403,0.0879 0.016,-0.001 0.0826,-0.003 0.0896,-0.0867z"/>
     </g>
     <g id="etamine_96">
       <metadata id="CorelCorpID_97">
        <odm name="Nom" value="etamine" type="0"/>
       </metadata>
      <path id="_66489264" fill="#F07850" stroke="#7F7F7F" stroke-width="0.0762" d="M162.187 133.268c0.0431,0.043 0.0574,0.2614 0.0648,0.3263 0.0115,0.1022 0.0086,0.3588 0.0127,0.4326 0.0003,0.0048 -0.0365,-0.2292 -0.0401,-0.2854 -0.0068,-0.1068 -0.133,-0.4611 -0.096,-0.4663 0.0296,-0.0041 0.038,-0.0087 0.0586,-0.0072z"/>
      <path id="_66435784" fill="#F0F04D" stroke="#7F7F7F" stroke-width="0.0762" d="M162.321 133.536c0.036,0.1029 0.0557,0.4351 -0.0459,0.5297 -0.0931,0.0275 -0.1678,-0.3881 -0.1646,-0.4371 0.0019,-0.0537 0.0332,-0.1144 0.0938,-0.1365 0.015,-0.0054 0.0769,-0.0301 0.1167,0.0439z"/>
     </g>
    </g>
    <g id="fleur_x0020_milieu_97">
     <path id="_76569040" fill="none" stroke="#1F1A17" stroke-width="0.0762" d="M167.697 131.828c-1.2743,-0.8367 -2.6254,-1.3914 -3.9286,-2.1497"/>
     <path id="sepale_98" fill="#C8FF64" stroke="#7F7F7F" stroke-width="0.0762" d="M160.41 128.812c-0.0691,-0.0943 -0.327,-0.3017 -0.2281,-0.4749 0.0143,-0.1208 0.0371,-0.1608 0.0504,-0.2274 0.0076,-0.0381 -0.0152,-0.0847 -0.0381,-0.119 0,0 0.0609,0.079 0.0648,0.0847 0.0609,0.0914 0.1522,0.1047 0.2188,0.118 0.0571,0.0114 0.1123,0.057 0.1618,0.1313 0.0583,0.0873 -0.0404,0.2794 0.0192,0.3688 -0.1143,-0.0259 -0.2568,0.0884 -0.2488,0.1185z">
      <metadata id="CorelCorpID_98">
       <odm name="Nom" value="sepale" type="0"/>
      </metadata>
     </path>
     <circle id="_66788032" fill="#F0F04D" stroke="#7F7F7F" stroke-width="0.0762" transform="matrix(0.0751695 -0.0470726 0.0470726 0.0751695 160.627 128.95)" r="2.9417"/>
     <path id="sepale_99" fill="#C8FF64" stroke="#7F7F7F" stroke-width="0.0762" d="M160.482 129.164c-0.0939,0.0695 -0.3002,0.3284 -0.4738,0.2302 -0.1209,-0.0137 -0.161,-0.0363 -0.2277,-0.0494 -0.0381,-0.0074 -0.0846,0.0157 -0.1187,0.0387 0,0 0.0787,-0.0613 0.0843,-0.0651 0.0911,-0.0614 0.104,-0.1528 0.117,-0.2195 0.0112,-0.0571 0.0566,-0.1125 0.1306,-0.1623 0.087,-0.0587 0.2796,0.0392 0.3687,-0.0209 -0.0254,0.1144 0.0896,0.2565 0.1196,0.2483z">
      <metadata id="CorelCorpID_99">
       <odm name="Nom" value="sepale" type="0"/>
      </metadata>
     </path>
     <path id="sepale_100" fill="#C8FF64" stroke="#7F7F7F" stroke-width="0.0762" d="M160.87 128.994c0.1156,-0.0167 0.4443,0.0219 0.4986,-0.17 0.0762,-0.0949 0.0887,-0.1392 0.1269,-0.1953 0.0218,-0.0321 0.0711,-0.0485 0.1115,-0.0562 0,0 -0.099,0.0119 -0.1057,0.0131 -0.1079,0.0206 -0.1814,-0.0353 -0.2376,-0.0735 -0.0481,-0.0327 -0.1194,-0.0401 -0.207,-0.0234 -0.1031,0.0196 -0.171,0.2247 -0.2766,0.2448 0.0986,0.0634 0.117,0.2452 0.0899,0.2605z">
      <metadata id="CorelCorpID_100">
       <odm name="Nom" value="sepale" type="0"/>
      </metadata>
     </path>
     <path id="sepale_101" fill="#C8FF64" stroke="#7F7F7F" stroke-width="0.0762" d="M160.579 129.204c0.0168,0.1156 -0.0218,0.4443 0.1702,0.4985 0.0949,0.0762 0.1392,0.0887 0.1954,0.1269 0.0321,0.0218 0.0485,0.0711 0.0562,0.1116 0,0 -0.0119,-0.0991 -0.0132,-0.1058 -0.0206,-0.1079 0.0352,-0.1814 0.0734,-0.2376 0.0328,-0.0481 0.0401,-0.1194 0.0234,-0.207 -0.0197,-0.1031 -0.2248,-0.171 -0.2449,-0.2765 -0.0633,0.0986 -0.2451,0.117 -0.2605,0.0899z">
      <metadata id="CorelCorpID_101">
       <odm name="Nom" value="sepale" type="0"/>
      </metadata>
     </path>
     <path id="petale_1_102" fill="#C864C8" stroke="#7F7F7F" stroke-width="0.0762" d="M160.386 128.785c-0.2083,-0.1774 -0.2558,-0.3825 -0.4307,-0.6618 -0.2843,-0.4539 -0.8342,-1.1651 -1.3517,-1.033 -0.181,0.0461 -0.8676,0.1509 -0.9752,0.0598 0.1128,1.2122 0.8567,2.6314 2.2645,2.0248 0.1659,-0.0714 0.5602,-0.205 0.4931,-0.3898z">
      <metadata id="CorelCorpID_102">
       <odm name="Nom" value="petale_1" type="0"/>
      </metadata>
     </path>
     <path id="petale_2_103" fill="#C864C8" stroke="#7F7F7F" stroke-width="0.0762" d="M160.652 128.642c0.0173,-0.2731 -0.0971,-0.4499 -0.1763,-0.7698 -0.1287,-0.5199 -0.2575,-1.4096 0.1972,-1.6898 0.159,-0.0979 0.7116,-0.5187 0.721,-0.6594 0.7929,0.9239 1.2959,2.4452 -0.1189,3.0355 -0.1667,0.0695 -0.5368,0.2602 -0.623,0.0835z">
      <metadata id="CorelCorpID_103">
       <odm name="Nom" value="petale_2" type="0"/>
      </metadata>
     </path>
     <path id="petale_3_104" fill="#C864C8" stroke="#7F7F7F" stroke-width="0.0762" d="M160.918 128.972c0.2732,0.014 0.4486,-0.1025 0.7676,-0.1855 0.5182,-0.1349 1.4063,-0.2744 1.692,0.1769 0.0998,0.1578 0.5272,0.7053 0.668,0.713 -0.9143,0.8039 -2.4295,1.3252 -3.0367,-0.0824 -0.0715,-0.1659 -0.2666,-0.5337 -0.0909,-0.622z">
      <metadata id="CorelCorpID_104">
       <odm name="Nom" value="petale_3" type="0"/>
      </metadata>
     </path>
     <path id="petale_4_105" fill="#C864C8" stroke="#7F7F7F" stroke-width="0.0762" d="M160.676 129.281c-0.0446,0.2699 0.0515,0.4573 0.0982,0.7836 0.0758,0.5301 0.1148,1.4282 -0.3658,1.6614 -0.168,0.0816 -0.76,0.4447 -0.7834,0.5838 -0.6963,-0.9988 -1.0441,-2.5629 0.4227,-3.0082 0.1729,-0.0525 0.5603,-0.2051 0.6283,-0.0206z">
      <metadata id="CorelCorpID_105">
       <odm name="Nom" value="petale_4" type="0"/>
      </metadata>
     </path>
     <g id="etamine_106">
       <metadata id="CorelCorpID_106">
        <odm name="Nom" value="etamine" type="0"/>
       </metadata>
      <path id="_66732096" fill="#F07850" stroke="#7F7F7F" stroke-width="0.0762" d="M160.861 129.074c0.0345,0.05 0.2469,0.1033 0.3094,0.1221 0.0985,0.0297 0.3514,0.0729 0.4233,0.0901 0.0047,0.0011 -0.2189,-0.0769 -0.2736,-0.0906 -0.1038,-0.0258 -0.4298,-0.2135 -0.4415,-0.178 -0.0094,0.0284 -0.0154,0.0358 -0.0176,0.0564z"/>
      <path id="_77062128" fill="#F0F04D" stroke="#7F7F7F" stroke-width="0.0762" d="M161.1 129.254c0.0948,0.0539 0.4181,0.1328 0.5294,0.0498 0.0437,-0.0867 -0.3518,-0.2347 -0.4006,-0.2403 -0.0531,-0.0078 -0.1185,0.0121 -0.151,0.0678 -0.0081,0.0138 -0.0435,0.0703 0.0222,0.1227z"/>
     </g>
     <g id="etamine_107">
       <metadata id="CorelCorpID_107">
        <odm name="Nom" value="etamine" type="0"/>
       </metadata>
      <path id="_76447688" fill="#F07850" stroke="#7F7F7F" stroke-width="0.0762" d="M160.365 128.898c-0.0586,0.0164 -0.2559,-0.0783 -0.316,-0.1038 -0.0948,-0.0401 -0.3169,-0.1687 -0.3831,-0.2013 -0.0044,-0.0021 0.2175,0.0807 0.2683,0.1052 0.0963,0.0465 0.467,0.1105 0.4533,0.1453 -0.011,0.0278 -0.0111,0.0373 -0.0225,0.0546z"/>
      <path id="_66800768" fill="#F0F04D" stroke="#7F7F7F" stroke-width="0.0762" d="M160.066 128.883c-0.1073,-0.0191 -0.4064,-0.1651 -0.4389,-0.3001 0.0218,-0.0945 0.4205,0.0444 0.4616,0.0713 0.0458,0.028 0.0834,0.0851 0.0729,0.1487 -0.0027,0.0158 -0.0116,0.0818 -0.0956,0.0801z"/>
     </g>
     <g id="etamine_108">
       <metadata id="CorelCorpID_108">
        <odm name="Nom" value="etamine" type="0"/>
       </metadata>
      <path id="_76901800" fill="#F07850" stroke="#7F7F7F" stroke-width="0.0762" d="M160.758 128.717c0.0493,-0.0356 0.0981,-0.249 0.1156,-0.3119 0.0277,-0.0991 0.0655,-0.3529 0.0812,-0.4251 0.001,-0.0047 -0.0723,0.2205 -0.0848,0.2755 -0.0237,0.1043 -0.2045,0.4341 -0.1687,0.4451 0.0285,0.0087 0.036,0.0146 0.0567,0.0164z"/>
      <path id="_67141744" fill="#F0F046" stroke="#7F7F7F" stroke-width="0.0762" d="M160.932 128.474c0.0519,-0.0959 0.124,-0.4208 0.0387,-0.5303 -0.0875,-0.0419 -0.2272,0.3566 -0.2318,0.4055 -0.0067,0.0532 0.0146,0.1182 0.0709,0.1496 0.014,0.0078 0.0712,0.0419 0.1222,-0.0248z"/>
     </g>
     <g id="etamine_109">
       <metadata id="CorelCorpID_109">
        <odm name="Nom" value="etamine" type="0"/>
       </metadata>
      <path id="_67218416" fill="#F07850" stroke="#7F7F7F" stroke-width="0.0762" d="M160.574 129.214c0.0132,0.0594 -0.0923,0.2512 -0.121,0.3098 -0.0453,0.0924 -0.1859,0.3071 -0.2222,0.3714 -0.0023,0.0042 0.0927,-0.2127 0.1199,-0.2621 0.0517,-0.0936 0.1361,-0.4601 0.1701,-0.4446 0.0271,0.0125 0.0366,0.0131 0.0532,0.0255z"/>
      <path id="_76531512" fill="#F0F04D" stroke="#7F7F7F" stroke-width="0.0762" d="M160.542 129.512c-0.0251,0.1061 -0.1873,0.3966 -0.3238,0.4216 -0.0933,-0.0269 0.0675,-0.4173 0.0966,-0.4569 0.0304,-0.0442 0.0895,-0.0786 0.1524,-0.0645 0.0156,0.0034 0.0811,0.016 0.0748,0.0998z"/>
     </g>
    </g>
   </g>
  </g>
  <g id="FlPos_Suprax" onclick="parent.replacechar('FlPos_Suprax')" onmousemove="parent.showtooltip('FlPos_Suprax', 'Supra or extra axillary flowers')" onmouseout="parent.hidetooltip('FlPos_Suprax')" cursor="pointer" >
   <path id="Tige_110" fill="#F0965A" stroke="#7F7F7F" stroke-width="0.0762" d="M38.8635 122.384c-0.2437,19.1065 -0.0973,25.5436 0,52.7291 1.6218,1.73 9.0774,1.7299 10.3748,0 0,-5.5271 -0.0758,-13.1946 -0.1646,-21.2303 13.0191,-6.818 26.474,-14.6508 30.4595,-17.1734 0.3543,-0.1754 1.0999,-1.2335 -1.2301,-0.2301 -4.2784,1.4477 -17.0736,6.7916 -29.2896,12.0384 -0.044,-10.3162 -0.159,-19.1386 -0.19,-26.1795 -4.2437,0.0468 -7.2432,0.0469 -9.96,0.0458z">
    <metadata id="CorelCorpID_110">
     <odm name="Nom" value="Tige" type="0"/>
    </metadata>
   </path>
   <g id="feuille_111">
    <path id="_66753424" fill="#B1FF3B" stroke="#CCCCCC" stroke-width="0.0762" stroke-linejoin="bevel" d="M77.9769 143.193c2.2374,1.402 1.8896,3.8413 3.2929,5.853 -1.0969,-0.1168 -4.0715,-0.0795 -6.4688,-1.4977 -2.3808,-1.4128 -1.473,-2.5457 -2.0569,-4.7237 5.0711,-0.4202 4.471,0.1163 5.2328,0.3684z"/>
    <polygon id="_66402376" fill="none" stroke="#CCCCCC" stroke-width="0.0762" points="80.3947,148.447 71.1272,141.624 "/>
   </g>
   <g id="feuille_112">
    <path id="_27686424" fill="#B1FF3B" stroke="#CCCCCC" stroke-width="0.0762" stroke-linejoin="bevel" d="M66.6457 135.42c1.6594,-3.667 -0.8337,-6.4623 -0.7131,-10.1992 -1.2887,1.0583 -5.0144,3.5784 -6.9571,7.3119 -2.0736,3.8468 0.2151,4.4581 1.2929,7.7026 6.8023,-3.677 5.6066,-3.8541 6.3773,-4.8153z"/>
    <polygon id="feuille_113" fill="none" stroke="#CCCCCC" stroke-width="0.0762" points="64.7556,127.982 58.6373,144.413 "/>
   </g>
   <g id="fleur_x0020_petite">
    <polygon id="_66439192" fill="none" stroke="black" stroke-width="0.0762" stroke-linejoin="bevel" points="62.9476,108.239 49.0031,141.465 "/>
    <path id="sepale_114" fill="#C8FF64" stroke="#7F7F7F" stroke-width="0.0762" d="M64.6269 106.093c0.3787,-0.2016 1.5625,-0.4764 1.5114,-1.2071 0.1456,-0.4225 0.1338,-0.5911 0.196,-0.8326 0.0356,-0.1381 0.1855,-0.2559 0.3157,-0.3328 0,0 -0.3275,0.1641 -0.3492,0.1769 -0.3471,0.205 -0.6705,0.1034 -0.9121,0.0412 -0.207,-0.0533 -0.4624,0.0097 -0.7445,0.1763 -0.3318,0.1959 -0.3117,0.989 -0.6515,1.1896 0.4194,0.0963 0.7087,0.7018 0.6342,0.7885z">
     <metadata id="CorelCorpID_111">
      <odm name="Nom" value="sepale" type="0"/>
     </metadata>
    </path>
    <circle id="_66375328" fill="#F0F04D" stroke="#7F7F7F" stroke-width="0.0762" transform="matrix(-0.173593 -0.275561 -0.275561 0.173593 63.6896 106.203)" r="2.9417"/>
    <path id="sepale_115" fill="#C8FF64" stroke="#7F7F7F" stroke-width="0.0762" d="M63.8253 107.142c0.1999,0.3795 0.4694,1.5646 1.2003,1.5168 0.4218,0.1475 0.5905,0.1365 0.8318,0.1997 0.1379,0.0362 0.255,0.1866 0.3313,0.3172 0,0 -0.1626,-0.3282 -0.1753,-0.3499 -0.2035,-0.3481 -0.1004,-0.6711 -0.0371,-0.9123 0.0542,-0.2068 -0.0077,-0.4625 -0.173,-0.7453 -0.1944,-0.3327 -0.9875,-0.3162 -1.1866,-0.6569 -0.0982,0.419 -0.705,0.7055 -0.7914,0.6307z">
     <metadata id="CorelCorpID_112">
      <odm name="Nom" value="sepale" type="0"/>
     </metadata>
    </path>
    <path id="sepale_116" fill="#C8FF64" stroke="#7F7F7F" stroke-width="0.0762" d="M62.8145 105.961c-0.3557,-0.2399 -1.5047,-0.6361 -1.3781,-1.3575 -0.1009,-0.4353 -0.0717,-0.6018 -0.1085,-0.8485 -0.021,-0.141 -0.1579,-0.2737 -0.2794,-0.3637 0,0 0.3087,0.1972 0.3289,0.2122 0.324,0.2399 0.6563,0.1724 0.9029,0.1356 0.2115,-0.0315 0.459,0.0577 0.7222,0.2526 0.3097,0.2293 0.2075,1.016 0.5246,1.2508 -0.4272,0.0522 -0.7777,0.6244 -0.7126,0.7185z">
     <metadata id="CorelCorpID_113">
      <odm name="Nom" value="sepale" type="0"/>
     </metadata>
    </path>
    <path id="sepale_117" fill="#C8FF64" stroke="#7F7F7F" stroke-width="0.0762" d="M63.441 107.12c-0.2399,0.3556 -0.6364,1.5045 -1.3578,1.3776 -0.4354,0.1008 -0.6018,0.0716 -0.8486,0.1083 -0.1409,0.021 -0.2737,0.1578 -0.3637,0.2793 0,0 0.1973,-0.3086 0.2123,-0.3288 0.24,-0.3239 0.1725,-0.6562 0.1358,-0.9029 -0.0315,-0.2115 0.0578,-0.4589 0.2528,-0.7221 0.2294,-0.3096 1.016,-0.2072 1.2509,-0.5242 0.0522,0.4272 0.6243,0.7778 0.7183,0.7128z">
     <metadata id="CorelCorpID_114">
      <odm name="Nom" value="sepale" type="0"/>
     </metadata>
    </path>
    <path id="petale_1_118" fill="#C864C8" stroke="#7F7F7F" stroke-width="0.0762" d="M64.75 106.041c0.9719,-0.2547 1.4562,-0.8576 2.4802,-1.5026 1.6639,-1.0483 4.6169,-2.5237 6.1183,-1.2617 0.5249,0.4412 2.6291,1.8824 3.1305,1.7526 -2.3062,3.8301 -7.0296,7.3385 -10.7193,3.0873 -0.4347,-0.5009 -1.5263,-1.5713 -1.0097,-2.0756z">
     <metadata id="CorelCorpID_115">
      <odm name="Nom" value="petale_1" type="0"/>
     </metadata>
    </path>
    <path id="petale_2_119" fill="#C864C8" stroke="#7F7F7F" stroke-width="0.0762" d="M64.0974 105.144c0.3781,-0.9308 1.0385,-1.3331 1.8105,-2.2651 1.2545,-1.5145 3.0992,-4.252 2.0419,-5.9039 -0.3697,-0.5776 -1.5269,-2.8504 -1.3334,-3.3308 -4.096,1.7919 -8.1855,6.0221 -4.4468,10.2303 0.4405,0.4959 1.3609,1.7167 1.9278,1.2695z">
     <metadata id="CorelCorpID_116">
      <odm name="Nom" value="petale_2" type="0"/>
     </metadata>
    </path>
    <path id="petale_3_120" fill="#C864C8" stroke="#7F7F7F" stroke-width="0.0762" d="M62.6913 105.81c-0.9262,-0.3893 -1.3205,-1.0545 -2.2432,-1.8376 -1.4993,-1.2725 -4.2145,-3.15 -5.879,-2.1126 -0.5819,0.3628 -2.8685,1.4926 -3.3465,1.2933 1.7426,4.1172 5.9234,8.2572 10.1762,4.5693 0.5011,-0.4345 1.7329,-1.3402 1.2925,-1.9124z">
     <metadata id="CorelCorpID_117">
      <odm name="Nom" value="petale_3" type="0"/>
     </metadata>
    </path>
    <path id="petale_4_121" fill="#C864C8" stroke="#7F7F7F" stroke-width="0.0762" d="M62.9979 107.218c-0.2829,0.9641 -0.8997,1.4306 -1.5742,2.4353 -1.0963,1.6327 -2.6571,4.5415 -1.4393,6.079 0.4257,0.5376 1.8051,2.6828 1.6607,3.1802 3.8956,-2.1937 7.5401,-6.8129 3.3981,-10.6248 -0.488,-0.4492 -1.5262,-1.5715 -2.0453,-1.0697z">
     <metadata id="CorelCorpID_118">
      <odm name="Nom" value="petale_4" type="0"/>
     </metadata>
    </path>
    <g id="etamine_122">
      <metadata id="CorelCorpID_119">
       <odm name="Nom" value="etamine" type="0"/>
      </metadata>
     <path id="_66389288" fill="#F07850" stroke="#7F7F7F" stroke-width="0.0762" d="M62.7179 106.241c-0.194,0.1105 -0.9814,-0.0519 -1.2181,-0.0892 -0.3733,-0.0588 -1.2788,-0.3195 -1.5439,-0.377 -0.0173,-0.0037 0.8469,0.0945 1.0495,0.1367 0.3844,0.08 1.762,-0.0211 1.7441,0.115 -0.0142,0.1087 -0.0061,0.1428 -0.0316,0.2145z"/>
     <path id="_66785056" fill="#F0F04D" stroke="#7F7F7F" stroke-width="0.0762" d="M61.6392 106.452c-0.3993,0.0272 -1.5946,-0.2273 -1.8303,-0.6792 -0.0065,-0.3563 1.5375,-0.2154 1.7079,-0.1562 0.1882,0.0589 0.3728,0.2292 0.3917,0.4651 0.0046,0.0585 0.0315,0.3018 -0.2693,0.3703z"/>
    </g>
    <g id="etamine_123">
      <metadata id="CorelCorpID_120">
       <odm name="Nom" value="etamine" type="0"/>
      </metadata>
     <path id="_66287096" fill="#F07850" stroke="#7F7F7F" stroke-width="0.0762" d="M64.6377 106.447c0.1675,0.1476 0.9715,0.1489 1.2108,0.1605 0.3774,0.0183 1.317,-0.0527 1.5883,-0.055 0.0177,-0.0002 -0.8484,-0.0798 -1.0554,-0.0798 -0.3926,0.0002 -1.7208,-0.379 -1.731,-0.2421 -0.0082,0.1093 -0.023,0.141 -0.0127,0.2164z"/>
     <path id="_66382792" fill="#F0F04D" stroke="#7F7F7F" stroke-width="0.0762" d="M65.6509 106.873c0.3854,0.1078 1.6075,0.1018 1.9302,-0.2928 0.0789,-0.3475 -1.4616,-0.5236 -1.6404,-0.5003 -0.1963,0.0194 -0.4117,0.1485 -0.4781,0.3757 -0.0165,0.0564 -0.0923,0.2891 0.1883,0.4174z"/>
    </g>
    <g id="etamine_124">
      <metadata id="CorelCorpID_121">
       <odm name="Nom" value="etamine" type="0"/>
      </metadata>
     <path id="_67143296" fill="#F07850" stroke="#7F7F7F" stroke-width="0.0762" d="M63.6272 105.223c-0.1064,-0.1963 0.0724,-0.9801 0.1147,-1.216 0.0667,-0.372 0.3462,-1.2718 0.4092,-1.5356 0.0042,-0.0173 -0.1122,0.8446 -0.1586,1.0463 -0.088,0.3827 -0.0158,1.7621 -0.1515,1.7414 -0.1084,-0.0166 -0.1426,-0.0092 -0.2138,-0.0361z"/>
     <path id="_66429672" fill="#F0F046" stroke="#7F7F7F" stroke-width="0.0762" d="M63.4385 104.14c-0.0188,-0.3999 0.2607,-1.5895 0.7175,-1.8157 0.3563,0.0009 0.1831,1.5417 0.1203,1.7108 -0.0629,0.1869 -0.2369,0.3679 -0.4732,0.3818 -0.0586,0.0035 -0.3024,0.0253 -0.3646,-0.2769z"/>
    </g>
    <g id="etamine_125">
      <metadata id="CorelCorpID_122">
       <odm name="Nom" value="etamine" type="0"/>
      </metadata>
     <path id="_65767464" fill="#F07850" stroke="#7F7F7F" stroke-width="0.0762" d="M63.4425 107.161c-0.1382,0.1753 -0.095,0.9781 -0.0934,1.2178 0.0025,0.3778 0.1252,1.3121 0.1425,1.5828 0.0012,0.0177 0.0329,-0.8515 0.0214,-1.0581 -0.0218,-0.3921 0.2836,-1.7392 0.1463,-1.7418 -0.1096,-0.0021 -0.1421,-0.0152 -0.2168,-0.0007z"/>
     <path id="_76724776" fill="#F0F04D" stroke="#7F7F7F" stroke-width="0.0762" d="M63.0727 108.196c-0.0864,0.3908 -0.013,1.6107 0.3987,1.9111 0.3514,0.0596 0.4423,-1.4882 0.4091,-1.6655 -0.0302,-0.1949 -0.171,-0.4028 -0.4014,-0.4566 -0.0573,-0.0134 -0.2938,-0.0762 -0.4064,0.211z"/>
    </g>
   </g>
  </g>
  <g id="FlPos_Axillary" onclick="parent.replacechar('FlPos_Axillary')" onmousemove="parent.showtooltip('FlPos_Axillary', 'Axillary flowers')" onmouseout="parent.hidetooltip('FlPos_Axillary')" cursor="pointer" >
   <path id="Tige_126" fill="#F0965A" stroke="#7F7F7F" stroke-width="0.0762" d="M158.822 28.6474c-0.0763,15.6867 -0.0578,27.6341 0,52.7291 1.6218,1.73 9.0774,1.7299 10.3748,0 0,-5.5271 -0.0758,-13.1946 -0.1646,-21.2303 13.0191,-6.818 26.474,-14.6508 30.4595,-17.1734 0.3543,-0.1754 1.0999,-1.2335 -1.2301,-0.2301 -4.2784,1.4477 -17.0736,6.7916 -29.2896,12.0384 -0.044,-10.3162 -0.159,-19.1386 -0.19,-26.1795 -4.2437,0.0468 -7.2432,0.0469 -9.96,0.0458z">
    <metadata id="CorelCorpID_123">
     <odm name="Nom" value="Tige" type="0"/>
    </metadata>
   </path>
   <polygon id="_66382920" fill="none" stroke="black" stroke-width="0.0762" stroke-linejoin="bevel" points="182.834,21.9545 168.89,55.1802 "/>
   <g id="feuille_127">
    <path id="_66287200" fill="#B1FF3B" stroke="#CCCCCC" stroke-width="0.0762" stroke-linejoin="bevel" d="M197.936 49.4562c2.2373,1.4019 1.8896,3.8412 3.2929,5.853 -1.0969,-0.1168 -4.0715,-0.0796 -6.4689,-1.4978 -2.3807,-1.4128 -1.4729,-2.5457 -2.0568,-4.7237 5.0711,-0.4202 4.471,0.1163 5.2328,0.3685z"/>
    <polygon id="_77218296" fill="none" stroke="#CCCCCC" stroke-width="0.0762" points="200.353,54.7108 191.086,47.8874 "/>
   </g>
   <g id="feuille_128">
    <path id="_66517768" fill="#B1FF3B" stroke="#CCCCCC" stroke-width="0.0762" stroke-linejoin="bevel" d="M186.604 41.6832c1.6594,-3.6671 -0.8337,-6.4624 -0.7132,-10.1993 -1.2887,1.0584 -5.0144,3.5784 -6.957,7.3119 -2.0736,3.8468 0.215,4.4582 1.2929,7.7027 6.8023,-3.6771 5.6066,-3.8541 6.3773,-4.8153z"/>
    <polygon id="feuille_129" fill="none" stroke="#CCCCCC" stroke-width="0.0762" points="184.714,34.2455 178.596,50.6763 "/>
   </g>
   <g id="fleur_x0020_petite_130">
    <path id="sepale_131" fill="#C8FF64" stroke="#7F7F7F" stroke-width="0.0762" d="M184.514 19.8085c0.3787,-0.2017 1.5625,-0.4765 1.5115,-1.2072 0.1455,-0.4224 0.1337,-0.5911 0.1959,-0.8326 0.0356,-0.1381 0.1855,-0.2559 0.3157,-0.3327 0,0 -0.3274,0.164 -0.3491,0.1769 -0.3472,0.205 -0.6706,0.1033 -0.9122,0.0411 -0.207,-0.0533 -0.4624,0.0097 -0.7445,0.1763 -0.3318,0.1959 -0.3117,0.989 -0.6515,1.1896 0.4195,0.0963 0.7087,0.7018 0.6342,0.7886z">
     <metadata id="CorelCorpID_124">
      <odm name="Nom" value="sepale" type="0"/>
     </metadata>
    </path>
    <circle id="_27575592" fill="#F0F04D" stroke="#7F7F7F" stroke-width="0.0762" transform="matrix(-0.173593 -0.275561 -0.275561 0.173593 183.576 19.9179)" r="2.9417"/>
    <path id="sepale_132" fill="#C8FF64" stroke="#7F7F7F" stroke-width="0.0762" d="M183.712 20.8572c0.2,0.3795 0.4694,1.5646 1.2003,1.5168 0.4219,0.1475 0.5905,0.1365 0.8318,0.1998 0.1379,0.0361 0.255,0.1866 0.3313,0.3171 0,0 -0.1626,-0.3282 -0.1753,-0.3499 -0.2035,-0.3481 -0.1004,-0.6711 -0.0371,-0.9123 0.0542,-0.2068 -0.0076,-0.4625 -0.1729,-0.7453 -0.1945,-0.3327 -0.9876,-0.3162 -1.1867,-0.6569 -0.0982,0.419 -0.7049,0.7055 -0.7914,0.6307z">
     <metadata id="CorelCorpID_125">
      <odm name="Nom" value="sepale" type="0"/>
     </metadata>
    </path>
    <path id="sepale_133" fill="#C8FF64" stroke="#7F7F7F" stroke-width="0.0762" d="M182.701 19.6766c-0.3557,-0.2399 -1.5047,-0.636 -1.378,-1.3575 -0.101,-0.4353 -0.0718,-0.6018 -0.1085,-0.8485 -0.0211,-0.141 -0.1579,-0.2737 -0.2794,-0.3636 0,0 0.3086,0.1971 0.3288,0.2121 0.324,0.2399 0.6563,0.1724 0.9029,0.1356 0.2115,-0.0315 0.459,0.0577 0.7222,0.2526 0.3097,0.2293 0.2075,1.016 0.5246,1.2508 -0.4272,0.0523 -0.7777,0.6244 -0.7126,0.7185z">
     <metadata id="CorelCorpID_126">
      <odm name="Nom" value="sepale" type="0"/>
     </metadata>
    </path>
    <path id="sepale_134" fill="#C8FF64" stroke="#7F7F7F" stroke-width="0.0762" d="M183.328 20.8349c-0.2399,0.3556 -0.6364,1.5045 -1.3578,1.3776 -0.4353,0.1009 -0.6018,0.0716 -0.8485,0.1083 -0.141,0.021 -0.2738,0.1578 -0.3638,0.2793 0,0 0.1973,-0.3086 0.2123,-0.3288 0.24,-0.3239 0.1725,-0.6562 0.1358,-0.9029 -0.0315,-0.2115 0.0578,-0.4589 0.2528,-0.7221 0.2294,-0.3096 1.0161,-0.2072 1.251,-0.5242 0.0521,0.4272 0.6242,0.7778 0.7182,0.7128z">
     <metadata id="CorelCorpID_127">
      <odm name="Nom" value="sepale" type="0"/>
     </metadata>
    </path>
    <path id="petale_1_135" fill="#C864C8" stroke="#7F7F7F" stroke-width="0.0762" d="M184.637 19.7564c0.9719,-0.2547 1.4562,-0.8576 2.4802,-1.5026 1.6639,-1.0482 4.6169,-2.5237 6.1183,-1.2617 0.5249,0.4412 2.6291,1.8824 3.1305,1.7526 -2.3062,3.8301 -7.0296,7.3386 -10.7193,3.0873 -0.4347,-0.5009 -1.5263,-1.5713 -1.0097,-2.0756z">
     <metadata id="CorelCorpID_128">
      <odm name="Nom" value="petale_1" type="0"/>
     </metadata>
    </path>
    <path id="petale_2_136" fill="#C864C8" stroke="#7F7F7F" stroke-width="0.0762" d="M183.984 18.8593c0.3781,-0.9308 1.0386,-1.3331 1.8105,-2.2651 1.2545,-1.5145 3.0992,-4.252 2.0419,-5.9039 -0.3697,-0.5776 -1.5269,-2.8504 -1.3334,-3.3308 -4.096,1.7919 -8.1855,6.0222 -4.4467,10.2304 0.4405,0.4958 1.3609,1.7166 1.9277,1.2694z">
     <metadata id="CorelCorpID_129">
      <odm name="Nom" value="petale_2" type="0"/>
     </metadata>
    </path>
    <path id="petale_3_137" fill="#C864C8" stroke="#7F7F7F" stroke-width="0.0762" d="M182.578 19.5255c-0.9263,-0.3893 -1.3206,-1.0546 -2.2433,-1.8377 -1.4993,-1.2725 -4.2145,-3.15 -5.8789,-2.1125 -0.582,0.3627 -2.8686,1.4925 -3.3466,1.2932 1.7426,4.1172 5.9235,8.2572 10.1762,4.5693 0.5011,-0.4345 1.7329,-1.3402 1.2926,-1.9123z">
     <metadata id="CorelCorpID_130">
      <odm name="Nom" value="petale_3" type="0"/>
     </metadata>
    </path>
    <path id="petale_4_138" fill="#C864C8" stroke="#7F7F7F" stroke-width="0.0762" d="M182.885 20.9335c-0.2829,0.9641 -0.8996,1.4306 -1.5742,2.4353 -1.0962,1.6327 -2.657,4.5415 -1.4393,6.079 0.4257,0.5376 1.8051,2.6829 1.6607,3.1802 3.8956,-2.1937 7.5401,-6.8129 3.3981,-10.6248 -0.488,-0.4491 -1.5262,-1.5715 -2.0453,-1.0697z">
     <metadata id="CorelCorpID_131">
      <odm name="Nom" value="petale_4" type="0"/>
     </metadata>
    </path>
    <g id="etamine_139">
      <metadata id="CorelCorpID_132">
       <odm name="Nom" value="etamine" type="0"/>
      </metadata>
     <path id="_66304880" fill="#F07850" stroke="#7F7F7F" stroke-width="0.0762" d="M182.605 19.9563c-0.194,0.1105 -0.9814,-0.0519 -1.2181,-0.0892 -0.3733,-0.0588 -1.2788,-0.3195 -1.5438,-0.3769 -0.0174,-0.0038 0.8468,0.0944 1.0494,0.1366 0.3845,0.08 1.7621,-0.0211 1.7442,0.115 -0.0143,0.1088 -0.0062,0.1428 -0.0317,0.2145z"/>
     <path id="_77267272" fill="#F0F04D" stroke="#7F7F7F" stroke-width="0.0762" d="M181.526 20.1677c-0.3993,0.0271 -1.5946,-0.2274 -1.8303,-0.6793 -0.0065,-0.3563 1.5375,-0.2154 1.7079,-0.1561 0.1882,0.0589 0.3728,0.2291 0.3917,0.465 0.0047,0.0586 0.0315,0.3018 -0.2693,0.3704z"/>
    </g>
    <g id="etamine_140">
      <metadata id="CorelCorpID_133">
       <odm name="Nom" value="etamine" type="0"/>
      </metadata>
     <path id="_27681368" fill="#F07850" stroke="#7F7F7F" stroke-width="0.0762" d="M184.524 20.1623c0.1675,0.1477 0.9715,0.1489 1.2108,0.1605 0.3775,0.0183 1.317,-0.0527 1.5883,-0.055 0.0177,-0.0002 -0.8484,-0.0798 -1.0553,-0.0797 -0.3927,0.0001 -1.7209,-0.3791 -1.7311,-0.2422 -0.0082,0.1093 -0.023,0.141 -0.0127,0.2164z"/>
     <path id="_66269664" fill="#F0F04D" stroke="#7F7F7F" stroke-width="0.0762" d="M185.538 20.5887c0.3855,0.1078 1.6075,0.1018 1.9302,-0.2927 0.0789,-0.3475 -1.4615,-0.5237 -1.6404,-0.5003 -0.1963,0.0194 -0.4116,0.1484 -0.4781,0.3756 -0.0165,0.0564 -0.0923,0.2891 0.1883,0.4174z"/>
    </g>
    <g id="etamine_141">
      <metadata id="CorelCorpID_134">
       <odm name="Nom" value="etamine" type="0"/>
      </metadata>
     <path id="_66800848" fill="#F07850" stroke="#7F7F7F" stroke-width="0.0762" d="M183.514 18.9386c-0.1064,-0.1963 0.0725,-0.9801 0.1147,-1.216 0.0667,-0.3719 0.3462,-1.2718 0.4092,-1.5356 0.0042,-0.0173 -0.1121,0.8447 -0.1585,1.0464 -0.0881,0.3826 -0.0159,1.762 -0.1516,1.7413 -0.1084,-0.0165 -0.1426,-0.0091 -0.2138,-0.0361z"/>
     <path id="_65806272" fill="#F0F046" stroke="#7F7F7F" stroke-width="0.0762" d="M183.325 17.8557c-0.0188,-0.3998 0.2607,-1.5895 0.7175,-1.8157 0.3563,0.0009 0.1831,1.5417 0.1203,1.7108 -0.0628,0.1869 -0.2369,0.3679 -0.4731,0.3819 -0.0587,0.0034 -0.3025,0.0252 -0.3647,-0.277z"/>
    </g>
    <g id="etamine_142">
      <metadata id="CorelCorpID_135">
       <odm name="Nom" value="etamine" type="0"/>
      </metadata>
     <path id="_66389448" fill="#F07850" stroke="#7F7F7F" stroke-width="0.0762" d="M183.329 20.8764c-0.1382,0.1753 -0.095,0.9782 -0.0934,1.2178 0.0025,0.3778 0.1252,1.3121 0.1425,1.5828 0.0012,0.0177 0.0329,-0.8515 0.0214,-1.0581 -0.0218,-0.3921 0.2836,-1.7392 0.1463,-1.7418 -0.1096,-0.0021 -0.142,-0.0152 -0.2168,-0.0007z"/>
     <path id="_66463944" fill="#F0F04D" stroke="#7F7F7F" stroke-width="0.0762" d="M182.959 21.9115c-0.0864,0.3908 -0.013,1.6107 0.3988,1.9111 0.3513,0.0596 0.4422,-1.4882 0.409,-1.6655 -0.0302,-0.1948 -0.171,-0.4028 -0.4014,-0.4566 -0.0572,-0.0134 -0.2938,-0.0762 -0.4064,0.211z"/>
    </g>
   </g>
  </g>
  <g id="FlPos_Terminal" onclick="parent.replacechar('FlPos_Terminal')" onmousemove="parent.showtooltip('FlPos_Terminal', 'Terminal flowers')" onmouseout="parent.hidetooltip('FlPos_Terminal')" cursor="pointer" >
   <path id="Tige_143" fill="#F0965A" stroke="#7F7F7F" stroke-width="0.0762" d="M29.2534 28.6474c-0.1332,18.5204 -0.0595,35.7049 0,52.7291 1.6218,1.73 9.0774,1.7299 10.3748,0 0,-5.5271 -0.0758,-13.1946 -0.1646,-21.2303 13.0191,-6.818 26.474,-14.6508 30.4595,-17.1734 0.3543,-0.1754 1.0999,-1.2335 -1.2301,-0.2301 -4.2784,1.4477 -17.0736,6.7916 -29.2896,12.0384 -0.044,-10.3162 -0.159,-19.1386 -0.19,-26.1795 -4.2437,0.0468 -7.2432,0.0469 -9.96,0.0458z">
    <metadata id="CorelCorpID_136">
     <odm name="Nom" value="Tige" type="0"/>
    </metadata>
   </path>
   <g id="feuille_144">
    <path id="_66386592" fill="#B1FF3B" stroke="#CCCCCC" stroke-width="0.0762" stroke-linejoin="bevel" d="M68.3668 49.4562c2.2373,1.402 1.8895,3.8413 3.2929,5.853 -1.097,-0.1168 -4.0716,-0.0795 -6.4689,-1.4977 -2.3808,-1.4128 -1.4729,-2.5457 -2.0569,-4.7237 5.0712,-0.4202 4.471,0.1163 5.2329,0.3684z"/>
    <polygon id="_67161992" fill="none" stroke="#CCCCCC" stroke-width="0.0762" points="70.7845,54.7109 61.5171,47.8875 "/>
   </g>
   <g id="feuille_145">
    <path id="_66728640" fill="#B1FF3B" stroke="#CCCCCC" stroke-width="0.0762" stroke-linejoin="bevel" d="M57.0877 41.6963c1.6595,-3.6671 -0.8336,-6.4624 -0.7131,-10.1993 -1.2887,1.0584 -5.0144,3.5784 -6.9571,7.3119 -2.0735,3.8468 0.2151,4.4582 1.293,7.7027 6.8022,-3.6771 5.6066,-3.8541 6.3772,-4.8153z"/>
    <polygon id="feuille_146" fill="none" stroke="#CCCCCC" stroke-width="0.0762" points="55.1976,34.2586 49.0794,50.6893 "/>
   </g>
   <g id="fleur">
    <polygon id="_76420952" fill="none" stroke="black" stroke-width="0.0762" stroke-linejoin="bevel" points="81.7561,35.9385 70.3767,42.3687 "/>
    <g id="fleur_x0020_petite_147">
     <path id="sepale_148" fill="#C8FF64" stroke="#7F7F7F" stroke-width="0.0762" d="M79.0567 36.6336c0.3656,-0.2246 1.5304,-0.5715 1.4346,-1.2977 0.1193,-0.4306 0.0972,-0.5982 0.1445,-0.8431 0.0269,-0.1399 0.1694,-0.2667 0.2946,-0.3514 0,0 -0.3168,0.1838 -0.3376,0.198 -0.3339,0.2259 -0.663,0.1443 -0.9079,0.097 -0.2099,-0.0405 -0.461,0.0381 -0.7323,0.2217 -0.3191,0.2159 -0.2505,1.0062 -0.5773,1.2273 0.4246,0.0704 0.7504,0.657 0.6814,0.7482z">
      <metadata id="CorelCorpID_137">
       <odm name="Nom" value="sepale" type="0"/>
      </metadata>
     </path>
     <circle id="_77199392" fill="#F0F04D" stroke="#7F7F7F" stroke-width="0.0762" transform="matrix(-0.190179 -0.264387 -0.264387 0.190179 78.128 36.8004)" r="2.9417"/>
     <path id="sepale_149" fill="#C8FF64" stroke="#7F7F7F" stroke-width="0.0762" d="M78.321 37.7295c0.2229,0.3666 0.5646,1.5329 1.2912,1.4403 0.4301,0.1213 0.5977,0.1 0.8425,0.1483 0.1398,0.0276 0.2659,0.1706 0.3501,0.2962 0,0 -0.1825,-0.3175 -0.1965,-0.3385 -0.2244,-0.3349 -0.1413,-0.6636 -0.093,-0.9083 0.0415,-0.2097 -0.036,-0.4611 -0.2183,-0.7333 -0.2145,-0.32 -1.0051,-0.2549 -1.2248,-0.5827 -0.0723,0.4242 -0.6603,0.7474 -0.7512,0.678z">
      <metadata id="CorelCorpID_138">
       <odm name="Nom" value="sepale" type="0"/>
      </metadata>
     </path>
     <path id="sepale_150" fill="#C8FF64" stroke="#7F7F7F" stroke-width="0.0762" d="M77.2396 36.6132c-0.3697,-0.2176 -1.5408,-0.5425 -1.4587,-1.2703 -0.1275,-0.4283 -0.1085,-0.5963 -0.1604,-0.8403 -0.0296,-0.1394 -0.1744,-0.2635 -0.3012,-0.3458 0,0 0.3202,0.1778 0.3413,0.1916 0.3381,0.2196 0.6656,0.1317 0.9095,0.0799 0.2092,-0.0445 0.4617,0.0294 0.7364,0.2078 0.3231,0.2098 0.2694,1.0013 0.6003,1.2162 -0.4232,0.0784 -0.7379,0.671 -0.6672,0.7609z">
      <metadata id="CorelCorpID_139">
       <odm name="Nom" value="sepale" type="0"/>
      </metadata>
     </path>
     <path id="sepale_151" fill="#C8FF64" stroke="#7F7F7F" stroke-width="0.0762" d="M77.9361 37.7309c-0.2177,0.3696 -0.5429,1.5407 -1.2707,1.4583 -0.4283,0.1274 -0.5963,0.1084 -0.8403,0.1602 -0.1394,0.0296 -0.2635,0.1743 -0.3459,0.3011 0,0 0.1779,-0.3201 0.1917,-0.3412 0.2196,-0.3381 0.1319,-0.6656 0.0801,-0.9095 -0.0444,-0.2092 0.0295,-0.4617 0.208,-0.7363 0.21,-0.3231 1.0014,-0.2692 1.2164,-0.6 0.0783,0.4232 0.6708,0.738 0.7607,0.6674z">
      <metadata id="CorelCorpID_140">
       <odm name="Nom" value="sepale" type="0"/>
      </metadata>
     </path>
     <path id="petale_1_152" fill="#C864C8" stroke="#7F7F7F" stroke-width="0.0762" d="M79.1765 36.574c0.9544,-0.3138 1.4008,-0.9453 2.3832,-1.652 1.5965,-1.1484 4.4533,-2.8023 6.0293,-1.6348 0.551,0.4082 2.7397,1.7175 3.2322,1.5572 -2.0668,3.9644 -6.5659,7.7561 -10.5096,3.7394 -0.4646,-0.4733 -1.6199,-1.4747 -1.1351,-2.0098z">
      <metadata id="CorelCorpID_141">
       <odm name="Nom" value="petale_1" type="0"/>
      </metadata>
     </path>
     <path id="petale_2_153" fill="#C864C8" stroke="#7F7F7F" stroke-width="0.0762" d="M78.47 35.7187c0.3203,-0.9523 0.9548,-1.3944 1.6681,-2.372 1.1591,-1.5886 2.8323,-4.4342 1.6756,-6.0181 -0.4044,-0.5538 -1.6989,-2.7513 -1.5353,-3.2427 -3.9783,2.04 -7.8004,6.5133 -3.8104,10.4841 0.4701,0.4678 1.4637,1.6298 2.002,1.1487z">
      <metadata id="CorelCorpID_142">
       <odm name="Nom" value="petale_2" type="0"/>
      </metadata>
     </path>
     <path id="petale_3_154" fill="#C864C8" stroke="#7F7F7F" stroke-width="0.0762" d="M77.1075 36.4699c-0.9484,-0.3317 -1.3828,-0.9715 -2.3518,-1.6965 -1.5746,-1.1781 -4.3999,-2.8854 -5.9976,-1.7477 -0.5586,0.3977 -2.7715,1.6658 -3.2608,1.4962 1.992,4.0025 6.4191,7.8781 10.4375,3.9361 0.4734,-0.4645 1.6473,-1.4441 1.1727,-1.9881z">
      <metadata id="CorelCorpID_143">
       <odm name="Nom" value="petale_3" type="0"/>
      </metadata>
     </path>
     <path id="petale_4_155" fill="#C864C8" stroke="#7F7F7F" stroke-width="0.0762" d="M77.4998 37.8565c-0.2231,0.9796 -0.8101,1.4831 -1.4217,2.5273 -0.994,1.697 -2.3733,4.696 -1.0635,6.1559 0.458,0.5104 1.9664,2.567 1.8528,3.0723 3.7536,-2.4287 7.1077,-7.2629 2.7396,-10.8134 -0.5147,-0.4183 -1.6198,-1.4748 -2.1072,-0.9421z">
      <metadata id="CorelCorpID_144">
       <odm name="Nom" value="petale_4" type="0"/>
      </metadata>
     </path>
     <g id="etamine_156">
       <metadata id="CorelCorpID_145">
        <odm name="Nom" value="etamine" type="0"/>
       </metadata>
      <path id="_66878080" fill="#F07850" stroke="#7F7F7F" stroke-width="0.0762" d="M77.1604 36.8983c-0.1868,0.1222 -0.9827,0.0085 -1.2213,-0.0143 -0.3761,-0.0358 -1.2959,-0.2404 -1.564,-0.2814 -0.0176,-0.0028 0.851,0.0423 1.0558,0.0719 0.3887,0.0563 1.7574,-0.1292 1.7479,0.0078 -0.0075,0.1094 0.0027,0.1429 -0.0184,0.216z"/>
      <path id="_65718760" fill="#F0F04D" stroke="#7F7F7F" stroke-width="0.0762" d="M76.0967 37.1755c-0.3969,0.0516 -1.6055,-0.1291 -1.8685,-0.5657 -0.0284,-0.3552 1.5214,-0.3093 1.6951,-0.2607 0.1914,0.0473 0.3862,0.2058 0.4195,0.4402 0.0082,0.0581 0.05,0.2993 -0.2461,0.3862z"/>
     </g>
     <g id="etamine_157">
       <metadata id="CorelCorpID_146">
        <odm name="Nom" value="etamine" type="0"/>
       </metadata>
      <path id="_77220064" fill="#F07850" stroke="#7F7F7F" stroke-width="0.0762" d="M79.0893 36.9861c0.1762,0.1371 0.9787,0.0889 1.2183,0.0858 0.3779,-0.0048 1.3113,-0.1334 1.5819,-0.1523 0.0177,-0.0013 -0.8516,-0.0276 -1.0582,-0.0149 -0.3919,0.0243 -1.7409,-0.2727 -1.7427,-0.1354 -0.0014,0.1096 -0.0143,0.1422 0.0007,0.2168z"/>
      <path id="_66525792" fill="#F0F04D" stroke="#7F7F7F" stroke-width="0.0762" d="M80.1267 37.3495c0.3913,0.0839 1.6107,0.0029 1.9086,-0.4107 0.0574,-0.3517 -1.4909,-0.4329 -1.668,-0.3987 -0.1947,0.0315 -0.4018,0.1735 -0.4542,0.4043 -0.013,0.0573 -0.0744,0.2943 0.2136,0.4051z"/>
     </g>
     <g id="etamine_158">
       <metadata id="CorelCorpID_147">
        <odm name="Nom" value="etamine" type="0"/>
       </metadata>
      <path id="_65754224" fill="#F07850" stroke="#7F7F7F" stroke-width="0.0762" d="M78.0055 35.8267c-0.1182,-0.1894 0.0122,-0.9827 0.0399,-1.2208 0.0437,-0.3753 0.2675,-1.2906 0.3142,-1.5578 0.0031,-0.0175 -0.0601,0.85 -0.0941,1.0542 -0.0644,0.3873 0.0924,1.7597 -0.0444,1.7473 -0.1092,-0.0098 -0.1429,-0.0004 -0.2156,-0.0229z"/>
      <path id="_77217928" fill="#F0F046" stroke="#7F7F7F" stroke-width="0.0762" d="M77.7507 34.7574c-0.0433,-0.3979 0.1627,-1.6025 0.6047,-1.8563 0.3557,-0.0209 0.2774,1.5276 0.2251,1.7002 -0.0512,0.1904 -0.2138,0.3818 -0.4488,0.4102 -0.0583,0.007 -0.3003,0.0437 -0.381,-0.2541z"/>
     </g>
     <g id="etamine_159">
       <metadata id="CorelCorpID_148">
        <odm name="Nom" value="etamine" type="0"/>
       </metadata>
      <path id="_66729120" fill="#F07850" stroke="#7F7F7F" stroke-width="0.0762" d="M77.9401 37.7722c-0.1271,0.1835 -0.0348,0.9821 -0.0185,1.2212 0.0258,0.377 0.2056,1.302 0.2395,1.5711 0.0022,0.0176 -0.0195,-0.8519 -0.0436,-1.0575 -0.0459,-0.39 0.1763,-1.7533 0.0391,-1.7474 -0.1096,0.0046 -0.1428,-0.0065 -0.2165,0.0126z"/>
      <path id="_66806024" fill="#F0F04D" stroke="#7F7F7F" stroke-width="0.0762" d="M77.6345 38.828c-0.0622,0.3954 0.0859,1.6085 0.5154,1.8831 0.3543,0.0379 0.35,-1.5125 0.306,-1.6875 -0.0421,-0.1926 -0.1954,-0.3915 -0.4287,-0.4311 -0.0579,-0.0098 -0.2979,-0.0581 -0.3927,0.2355z"/>
     </g>
    </g>
   </g>
  </g>
 </g>
<image xlink:href="tick.gif" id="imgtick" x="-100" y="-100" width="15" height="15"/>
<rect id="recttooltip" x="-100" y="-100" width="55" height="6" fill-opacity="0.4" pointer-events="none"/>
<text id="textboxid" x="-100" y="-100" pointer-events="none"> </text>
</a></svg>
