<?xml version="1.0" encoding="UTF-8"?>
<!DOCTYPE svg PUBLIC "-//W3C//DTD SVG 1.1//EN" "http://www.w3.org/Graphics/SVG/1.1/DTD/svg11.dtd">
<!-- Creator: CorelDRAW -->
<svg xmlns="http://www.w3.org/2000/svg" xml:space="preserve" shape-rendering="geometricPrecision" text-rendering="geometricPrecision" image-rendering="optimizeQuality" fill-rule="evenodd" clip-rule="evenodd"
viewBox="0 0 240 180"
 xmlns:xlink="http://www.w3.org/1999/xlink">
<a>
 <g id="Layer_x0020_1">
  <metadata id="CorelCorpID_0Corel-Layer"/>
  <rect fill="none" transform="matrix(3.24291E-013 -17.1512 10.3131 3.82591E-013 -1.11941E-005 180)" width="10.4949" height="23.2713"/>
  <g id="FlSex_Poly" onclick="parent.replacechar('FlSex_Poly')" onmousemove="parent.showtooltip('FlSex_Poly', 'Polygamous plant')" onmouseout="parent.hidetooltip('FlSex_Poly')" cursor="pointer" >
   <g>
    <path id="_76511144" fill="#99FF00" stroke="#1F1A17" stroke-width="0.0762" d="M178.634 98.09c0,-2.7556 5.637,-2.759 5.637,0 0,25.2393 0,50.4785 0,75.7178 -0.0033,2.7413 -5.6338,2.6814 -5.637,0 0,-25.2393 0,-50.4785 0,-75.7178z"/>
    <path id="_65495896" fill="#99FF00" stroke="#1F1A17" stroke-width="0.0762" d="M181.453 100.186c-1.5563,0 -2.8184,-0.9386 -2.8184,-2.0958 0,-1.1573 1.2621,-2.0959 2.8184,-2.0959 1.5564,0 2.8186,0.9386 2.8186,2.0959 0,1.1572 -1.2622,2.0958 -2.8186,2.0958z"/>
   </g>
   <g>
    <path id="_76633208" fill="#33CC33" stroke="#1F1A17" stroke-width="0.0762" d="M185.311 150.694c-0.0132,-0.5511 -0.2321,-1.7639 0.4109,-2.3407 0.7594,0.1579 1.3093,1.6681 1.3535,2.0433 -0.3734,0.3755 -1.3081,0.4033 -1.7644,0.2974z"/>
    <path id="_76417048" fill="#33CC33" stroke="#1F1A17" stroke-width="0.0762" d="M183.6 155.843c-0.3959,0.6863 -0.8979,1.9108 -0.7493,2.4308 0.904,-0.3979 1.4207,-1.4607 2.0438,-2.1582 -0.0327,-0.2959 0.0139,-0.4318 0.1301,-0.7244 -0.7678,0.3415 -1.1746,0.3983 -1.4246,0.4518z"/>
    <path id="_76956776" fill="#33CC33" stroke="#1F1A17" stroke-width="0.0762" d="M182.821 152.774c-0.4521,-0.2643 -0.5937,-0.4234 -0.7366,-0.5617 -0.7394,-0.1726 -2.0472,-0.361 -2.3816,-0.137 0.1113,0.4225 1.2969,0.7762 1.8835,1.0713 0.234,-0.1321 0.5495,-0.3017 1.2347,-0.3726z"/>
    <path id="_66875736" fill="#33CC33" stroke="#1F1A17" stroke-width="0.0762" d="M188.976 154.239c0.2266,0.2124 0.3938,0.5903 0.42,0.9481 0.747,0.3152 1.639,0.6227 2.6282,0.5976 -0.0621,-0.4476 -1.0848,-1.0203 -1.6994,-1.4517 -0.5471,0.0613 -0.9995,0.1663 -1.3488,-0.094z"/>
    <path id="_76613160" fill="#33CC33" stroke="#1F1A17" stroke-width="0.0762" d="M189.98 151.22c0.1441,-0.3544 0.2663,-0.4612 0.4104,-0.8156 0.9216,-0.6907 2.2928,-0.7729 2.2928,-0.7729 -0.5532,1.0368 -1.0597,0.5898 -1.6188,1.6229 -0.3781,-0.0921 -0.71,-0.0651 -1.0844,-0.0344z"/>
    <path id="_66819192" fill="#C864C8" stroke="#1F1A17" stroke-width="0.0762" d="M185.67 153.154c-0.5544,0.1653 -1.7476,0.2603 -2.8489,-0.3795 -3.3425,0.3399 -1.8269,3.8972 0.7782,3.0688 0.9688,-0.1879 2.5327,-0.7176 2.762,-1.8478 -0.9597,-0.1136 -0.798,-0.6154 -0.6913,-0.8415z"/>
    <path id="_76951600" fill="#C864C8" stroke="#1F1A17" stroke-width="0.0762" d="M186.362 153.995c-0.1838,0.8446 -1.0144,1.2335 -1.3374,1.396 -0.3997,0.8419 0.053,1.549 1.289,1.8828 0.2565,-0.1541 0.1123,0.2075 1.3685,-0.016 0.8539,-0.2098 1.7601,-1.4078 1.7141,-2.0716 -0.0293,-0.4217 -0.2593,-0.8588 -0.5055,-1.0135 -0.5915,-0.629 -0.814,-0.6035 -1.2659,-0.6863 -0.2337,0.3227 -0.8175,0.4871 -1.2628,0.5086z"/>
    <path id="_77202672" fill="#C864C8" stroke="#1F1A17" stroke-width="0.0762" d="M187.566 152.308c1.0717,-0.9151 1.8627,-0.9348 2.4142,-1.0882 2.9511,-0.366 3.3144,2.7652 0.4481,3.1006 -1.3426,0.1727 -1.3083,0.0788 -1.9477,-0.5348 -0.1795,-0.1213 -0.324,-0.2485 -0.8557,-0.2986 0.209,-0.2841 0.0718,-0.4926 -0.1072,-0.629 0.0515,-0.1812 0.0351,-0.3543 0.0483,-0.55z"/>
    <path id="_76587392" fill="#C864C8" stroke="#1F1A17" stroke-width="0.0762" d="M186.876 150.284c-0.3432,-1.1916 1.3296,-1.7662 2.1401,-1.8379 1.8951,-0.0675 1.7527,1.6045 0.9635,2.7734 -1.0498,0.2442 -1.5879,0.3853 -2.4142,1.0882 0.0297,-0.6726 0.0467,-1.4906 -0.0909,-1.646 -0.1088,-0.2329 -0.2964,-0.2992 -0.5985,-0.3777z"/>
    <path id="_65716616" fill="#C864C8" stroke="#1F1A17" stroke-width="0.0762" d="M185.45 150.604c-0.614,-0.9186 -1.6114,-1.1515 -2.4482,-0.9267 -1.1681,0.2787 -1.513,0.558 -1.4628,1.4519 0.1064,1.3035 2.1884,2.548 4.1312,2.0253 -0.1649,-0.1754 -0.4541,-0.5741 -0.6111,-1.3038 -0.0523,-0.2479 -0.0808,-0.489 -0.0503,-0.7407 0.0247,-0.1695 0.1465,-0.3311 0.4412,-0.506z"/>
    <path id="_77173416" fill="#FFFFCC" stroke="#1F1A17" stroke-width="0.0762" d="M185.67 153.154c-0.3646,0.6804 0.5251,0.9384 1.1366,0.82 0.4474,-0.0868 1.3292,-0.6437 0.7103,-1.1161 -0.1734,0.4566 -1.4599,0.8575 -1.8469,0.2961z"/>
    <path id="_66500224" fill="#FFCC00" stroke="#1F1A17" stroke-width="0.0762" d="M184.655 143.364c-0.3431,-0.0178 -0.4037,-0.3236 0.0398,-0.4096 0.4436,-0.086 0.5787,0.1676 0.254,0.3545 -0.1022,-0.0535 -0.2189,-0.0275 -0.2938,0.0551z"/>
    <path id="_77285136" fill="#99FF00" stroke="#1F1A17" stroke-width="0.0762" d="M185.67 153.154c0.3814,0.5631 1.6699,0.337 1.8469,-0.2961 0.1511,-0.5415 0.2742,-1.6677 -0.0426,-2.196 -0.3308,-0.5515 -1.0826,-0.2137 -1.2367,-0.6001 -0.447,-1.9705 -1.2295,-5.9451 -1.2896,-6.7526 -0.0767,-0.0557 -0.2158,-0.028 -0.2938,0.0551 0.2631,0.832 1.1068,5.9267 1.2233,6.7654 -0.1165,0.3795 -0.8049,0.4866 -0.8721,1.0001 -0.0628,0.4801 0.1673,1.494 0.6646,2.0242z"/>
    <path id="_77330696" fill="#CCFF66" stroke="#1F1A17" stroke-width="0.0762" d="M183.841 161.304c-0.0529,0.0898 -0.2592,0.0107 -0.2007,-0.0965 2.4789,-2.327 2.5271,-2.5416 2.6727,-3.9335 0.1338,-0.088 0.195,-0.007 0.3211,0.0213 0.0454,1.5489 -1.0721,2.4026 -2.7931,4.0087z"/>
   </g>
   <g>
    <path id="_76988064" fill="#33CC33" stroke="#1F1A17" stroke-width="0.0762" d="M176.359 162.278c-0.0753,-0.5461 -0.0534,-1.7784 -0.7805,-2.2448 -0.7243,0.2776 -1.0252,1.8563 -1.0088,2.2338 0.4289,0.3109 1.3559,0.1886 1.7893,0.011z"/>
    <path id="_76608864" fill="#33CC33" stroke="#1F1A17" stroke-width="0.0762" d="M178.873 167.086c0.5007,0.6139 1.1923,1.7423 1.129,2.2793 -0.956,-0.2479 -1.6363,-1.2142 -2.3632,-1.8029 -0.015,-0.2975 -0.0829,-0.4239 -0.2444,-0.6941 0.8126,0.214 1.2234,0.2049 1.4786,0.2177z"/>
    <path id="_76466704" fill="#33CC33" stroke="#1F1A17" stroke-width="0.0762" d="M179.15 163.932c0.4039,-0.3334 0.5181,-0.5131 0.637,-0.6726 0.7022,-0.2887 1.963,-0.6843 2.329,-0.5167 -0.0422,0.4349 -1.1558,0.9738 -1.6876,1.3591 -0.2521,-0.0928 -0.5907,-0.2097 -1.2784,-0.1698z"/>
    <path id="_76417952" fill="#33CC33" stroke="#1F1A17" stroke-width="0.0762" d="M173.309 166.363c-0.1895,0.2459 -0.2941,0.6456 -0.2626,1.003 -0.6869,0.4308 -1.5182,0.8771 -2.4985,1.0108 -0.0104,-0.4517 0.9072,-1.1809 1.4448,-1.7052 0.5498,-0.0271 1.0134,0.0042 1.3163,-0.3086z"/>
    <path id="_65784368" fill="#33CC33" stroke="#1F1A17" stroke-width="0.0762" d="M171.835 163.544c-0.1991,-0.3268 -0.3368,-0.4126 -0.5359,-0.7394 -1.0202,-0.534 -2.3869,-0.3956 -2.3869,-0.3956 0.7121,0.9348 1.1405,0.4124 1.8578,1.3427 0.3585,-0.1515 0.6904,-0.1781 1.065,-0.2077z"/>
    <path id="_67157312" fill="#C864C8" stroke="#1F1A17" stroke-width="0.0762" d="M176.398 164.763c0.5738,0.0746 1.7667,-0.0228 2.7514,-0.8307 3.3538,-0.2 2.4275,3.5541 -0.2766,3.1538 -0.9864,-0.0303 -2.615,-0.3028 -3.0223,-1.3816 0.9292,-0.2658 0.6889,-0.7353 0.5475,-0.9415z"/>
    <path id="_66451008" fill="#C864C8" stroke="#1F1A17" stroke-width="0.0762" d="M175.851 165.704c0.3167,0.8043 1.1989,1.0551 1.5437,1.1639 0.5294,0.7669 0.1958,1.5372 -0.9707,2.0648 -0.2779,-0.1109 -0.0777,0.2229 -1.3534,0.2034 -0.8765,-0.0703 -1.9629,-1.1076 -2.0238,-1.7702 -0.0387,-0.421 0.1183,-0.8893 0.3365,-1.0813 0.4833,-0.7158 0.7069,-0.7261 1.1396,-0.8803 0.2824,0.281 0.8851,0.3498 1.3281,0.2997z"/>
    <path id="_77024304" fill="#C864C8" stroke="#1F1A17" stroke-width="0.0762" d="M174.392 164.231c-1.2045,-0.7317 -1.9885,-0.6245 -2.5573,-0.6874 -2.9718,0.1114 -2.8289,3.2605 0.0543,3.1324 1.353,-0.0447 1.3039,-0.1319 1.8369,-0.84 0.1578,-0.1484 0.2799,-0.2972 0.7967,-0.4318 -0.2517,-0.247 -0.1498,-0.4746 0.0053,-0.6381 -0.0801,-0.1707 -0.0915,-0.344 -0.1359,-0.5351z"/>
    <path id="_66281336" fill="#C864C8" stroke="#1F1A17" stroke-width="0.0762" d="M174.748 162.123c0.1481,-1.2311 -1.5952,-1.5303 -2.4068,-1.4712 -1.8815,0.237 -1.473,1.8645 -0.5067,2.8919 1.0753,0.0729 1.629,0.1259 2.5573,0.6874 -0.1371,-0.6592 -0.2848,-1.464 -0.1739,-1.6393 0.0699,-0.2473 0.2445,-0.3428 0.5301,-0.4688z"/>
    <path id="_77297816" fill="#C864C8" stroke="#1F1A17" stroke-width="0.0762" d="M176.207 162.21c0.4589,-1.0051 1.4061,-1.3948 2.2681,-1.3068 1.1977,0.0879 1.5828,0.3083 1.6766,1.1987 0.1037,1.3038 -1.7521,2.8657 -3.7535,2.6608 0.1347,-0.1994 0.3564,-0.6393 0.3944,-1.3846 0.0119,-0.2533 0.0014,-0.4956 -0.069,-0.7393 -0.0514,-0.1633 -0.1977,-0.3034 -0.5166,-0.4288z"/>
    <path id="_77297496" fill="#FFFFCC" stroke="#1F1A17" stroke-width="0.0762" d="M176.398 164.763c0.469,0.6133 -0.368,1.0106 -0.9905,0.9916 -0.4555,-0.014 -1.4151,-0.4226 -0.8798,-0.9879 0.2441,0.423 1.5782,0.6126 1.8703,-0.0037z"/>
    <path id="_66861328" fill="#FFCC00" stroke="#1F1A17" stroke-width="0.0762" d="M175.833 154.937c0.3358,-0.0726 0.3466,-0.384 -0.1049,-0.3979 -0.4517,-0.0138 -0.5444,0.2582 -0.194,0.3906 0.0924,-0.0692 0.2117,-0.0623 0.2989,0.0073z"/>
    <path id="_76510184" fill="#99FF00" stroke="#1F1A17" stroke-width="0.0762" d="M176.398 164.763c-0.2863,0.617 -1.5943,0.6004 -1.8703,0.0037 -0.2361,-0.5103 -0.538,-1.6022 -0.3098,-2.1744 0.2381,-0.5974 1.0342,-0.3844 1.1245,-0.7904 0.1255,-2.0169 0.2612,-6.0653 0.1912,-6.872 0.0668,-0.0673 0.2086,-0.0622 0.2989,0.0073 -0.1265,0.8633 -0.1432,6.0275 -0.1237,6.874 0.1758,0.3558 0.8723,0.3514 1.0209,0.8475 0.1389,0.4638 0.0743,1.5014 -0.3317,2.1043z"/>
    <path id="_66515232" fill="#CCFF66" stroke="#1F1A17" stroke-width="0.0762" d="M179.509 172.515c0.0665,0.0802 0.2575,-0.0309 0.1827,-0.1275 -2.8197,-1.8996 -2.9016,-2.1038 -3.2683,-3.4545 -0.1463,-0.0655 -0.1937,0.0243 -0.3136,0.0725 0.2033,1.5362 1.4431,2.1999 3.3992,3.5095z"/>
   </g>
   <g>
    <path id="_66426840" fill="#33CC33" stroke="#1F1A17" stroke-width="0.0762" d="M187.613 127.411c0.0895,-0.529 -0.2232,-3.4887 0.754,-3.96 1.0217,0.8182 0.6902,3.6581 0.663,4.0248 -0.4839,-0.265 -1.0261,-0.3069 -1.417,-0.0648z"/>
    <path id="_77290120" fill="#CCFF66" stroke="#1F1A17" stroke-width="0.0762" d="M184.161 135.042c-0.067,0.076 -0.2495,-0.0378 -0.1738,-0.1295 2.7991,-1.7636 2.8849,-1.9598 3.2818,-3.2626 0.1443,-0.0593 0.1877,0.0295 0.3029,0.0799 -0.2435,1.4881 -1.4692,2.0967 -3.4109,3.3122z"/>
    <path id="_76832296" fill="#33CC33" stroke="#1F1A17" stroke-width="0.0762" d="M184.942 129.78c-0.5054,0.5823 -1.2117,1.6592 -1.166,2.1834 0.9372,-0.2126 1.6277,-1.1322 2.3523,-1.6832 0.0234,-0.2888 0.0932,-0.4098 0.2584,-0.6678 -0.7968,0.1839 -1.1961,0.1629 -1.4447,0.1676z"/>
    <path id="_66524344" fill="#33CC33" stroke="#1F1A17" stroke-width="0.0762" d="M184.767 126.705c-0.3829,-0.3363 -0.4886,-0.5145 -0.5996,-0.6731 -0.6743,-0.3019 -1.8888,-0.7242 -2.2498,-0.5721 0.028,0.4243 1.0951,0.9817 1.6009,1.3723 0.248,-0.0827 0.5808,-0.1865 1.2485,-0.1271z"/>
    <path id="_45409856" fill="#33CC33" stroke="#1F1A17" stroke-width="0.0762" d="M190.375 129.244c0.1771,0.2449 0.2668,0.6368 0.2255,0.9835 0.6553,0.4395 1.4505,0.8984 2.4001,1.0576 0.0235,-0.439 -0.8472,-1.1756 -1.3544,-1.7016 -0.534,-0.0428 -0.9859,-0.0261 -1.2712,-0.3395z"/>
    <path id="_45513336" fill="#33CC33" stroke="#1F1A17" stroke-width="0.0762" d="M191.894 126.545c0.1291,-0.136 0.4491,-0.4959 0.5432,-0.7032 1.0083,-0.489 2.3335,-0.3137 2.3335,-0.3137 -0.7206,0.8881 -1.1217,0.3672 -1.847,1.2506 -0.2861,-0.1337 -0.6698,-0.1976 -1.0297,-0.2337z"/>
    <path id="_76706352" fill="#C864C8" stroke="#1F1A17" stroke-width="0.0762" d="M187.418 127.595c-0.5602,0.0555 -1.7176,-0.0749 -2.6513,-0.89 -3.2561,-0.2945 -2.4671,3.3845 0.175,3.0757 0.9604,0 2.5525,-0.2164 2.9808,-1.2535 -0.8958,-0.2863 -0.6481,-0.7358 -0.5045,-0.9322z"/>
    <path id="_65717432" fill="#C864C8" stroke="#1F1A17" stroke-width="0.0762" d="M187.923 128.527c-0.332,0.7727 -1.1975,0.9904 -1.5361,1.0859 -0.5378,0.7302 -0.2363,1.4895 0.8825,2.0373 0.2737,-0.0996 0.069,0.2191 1.3104,0.2382 0.8546,-0.0422 1.9422,-1.0188 2.0212,-1.6614 0.0502,-0.4084 -0.0885,-0.8685 -0.295,-1.0618 -0.4488,-0.7106 -0.666,-0.7274 -1.0822,-0.8901 -0.2831,0.2648 -0.8713,0.3137 -1.3008,0.2519z"/>
    <path id="_66248280" fill="#C864C8" stroke="#1F1A17" stroke-width="0.0762" d="M188.886 127.402c0.6351,-0.3647 2.3985,-0.8764 3.0076,-0.8562 2.8871,0.197 2.6542,3.2556 -0.1463,3.0451 -1.3147,-0.0838 -1.2642,-0.1671 -1.7616,-0.8718 -0.1492,-0.1525 -0.2319,-0.2585 -0.762,-0.4436 0.3895,-0.3596 0.0008,-0.7294 -0.3377,-0.8735z"/>
    <path id="_66442664" fill="#C864C8" stroke="#1F1A17" stroke-width="0.0762" d="M188.691 127.336c0.026,-0.7886 -1.1353,-3.7281 -3.1779,-3.5574 -1.1676,0.0499 -1.5487,0.2527 -1.6664,1.116 -0.1398,1.265 1.6188,2.8396 3.5714,2.6999 0.3637,-0.4614 1.0278,-0.3438 1.2729,-0.2585z"/>
    <path id="_27615984" fill="#C864C8" stroke="#1F1A17" stroke-width="0.0762" d="M188.334 127.271c-0.1074,-1.493 1.319,-3.6355 3.1532,-3.5537 1.8229,0.2865 1.3771,1.8574 0.4066,2.8279 -1.0481,0.0389 -2.5478,0.597 -3.0076,0.8562 -0.1947,-0.0653 -0.2675,-0.1227 -0.5522,-0.1304z"/>
    <path id="_67105728" fill="#FFFFCC" stroke="#1F1A17" stroke-width="0.0762" d="M187.418 127.595c-0.4743,0.5826 0.3371,1.0235 0.9334,0.9547 0.6383,0.0049 1.3455,-0.3972 0.8858,-0.8953 -0.138,-0.261 -1.3211,-0.7192 -1.8192,-0.0594z"/>
    <path id="_76794368" fill="none" stroke="#1F1A17" stroke-width="0.3528" d="M187.923 128.527c-1.6506,-0.3869 -3.526,-3.8607 -4.0476,-5.6695"/>
    <path id="_65783768" fill="none" stroke="#1F1A17" stroke-width="0.3528" d="M187.275 127.939c-1.6966,-2.9362 -1.7268,-5.2768 -1.6984,-6.8023"/>
    <path id="_76590728" fill="none" stroke="#1F1A17" stroke-width="0.3528" d="M187.961 127.278c-0.0615,-1.9227 -0.2467,-4.5369 -0.2574,-6.4509"/>
    <path id="_76625632" fill="none" stroke="#1F1A17" stroke-width="0.3528" d="M189.148 127.541c1.7294,-1.96 1.9073,-5.5654 1.9061,-6.3621"/>
    <path id="_66413112" fill="none" stroke="#1F1A17" stroke-width="0.3528" d="M189.132 128.347c1.9083,-0.8899 3.4297,-4.6687 3.753,-5.4915"/>
    <g>
     <path id="_27591144" fill="#FFCC00" stroke="#1F1A17" stroke-width="0.0762" d="M183.902 123.372c-0.0714,0.0236 -0.1993,-0.1683 -0.2853,-0.4287 -0.0861,-0.2603 -0.098,-0.4907 -0.0265,-0.5143 0.0714,-0.0236 0.1992,0.1683 0.2853,0.4287 0.0861,0.2603 0.098,0.4907 0.0265,0.5143z"/>
     <path id="_65767312" fill="#FFCC00" stroke="#1F1A17" stroke-width="0.0762" d="M184.161 123.286c-0.0714,0.0236 -0.1992,-0.1684 -0.2853,-0.4287 -0.0861,-0.2604 -0.0979,-0.4907 -0.0265,-0.5143 0.0715,-0.0236 0.1993,0.1683 0.2853,0.4287 0.0862,0.2603 0.0981,0.4907 0.0265,0.5143z"/>
    </g>
    <g>
     <path id="_66892016" fill="#FFCC00" stroke="#1F1A17" stroke-width="0.0762" d="M185.44 121.633c-0.0753,0 -0.1364,-0.2224 -0.1364,-0.4966 0,-0.2742 0.0611,-0.4966 0.1364,-0.4966 0.0752,0 0.1363,0.2224 0.1363,0.4966 0,0.2742 -0.0611,0.4966 -0.1363,0.4966z"/>
     <path id="_77273752" fill="#FFCC00" stroke="#1F1A17" stroke-width="0.0762" d="M185.713 121.633c-0.0753,0 -0.1363,-0.2224 -0.1363,-0.4966 0,-0.2742 0.061,-0.4966 0.1363,-0.4966 0.0753,0 0.1363,0.2224 0.1363,0.4966 0,0.2742 -0.061,0.4966 -0.1363,0.4966z"/>
    </g>
    <g>
     <path id="_76443576" fill="#FFCC00" stroke="#1F1A17" stroke-width="0.0762" d="M187.567 121.324c-0.0752,0 -0.1363,-0.2224 -0.1363,-0.4966 0,-0.2742 0.0611,-0.4966 0.1363,-0.4966 0.0753,0 0.1364,0.2224 0.1364,0.4966 0,0.2742 -0.0611,0.4966 -0.1364,0.4966z"/>
     <path id="_66427040" fill="#FFCC00" stroke="#1F1A17" stroke-width="0.0762" d="M187.84 121.324c-0.0753,0 -0.1363,-0.2224 -0.1363,-0.4966 0,-0.2742 0.061,-0.4966 0.1363,-0.4966 0.0753,0 0.1363,0.2224 0.1363,0.4966 0,0.2742 -0.061,0.4966 -0.1363,0.4966z"/>
    </g>
    <g>
     <path id="_65832712" fill="#FFCC00" stroke="#1F1A17" stroke-width="0.0762" d="M190.918 121.676c-0.0753,0 -0.1363,-0.2224 -0.1363,-0.4966 0,-0.2743 0.061,-0.4966 0.1363,-0.4966 0.0753,0 0.1363,0.2223 0.1363,0.4966 0,0.2742 -0.061,0.4966 -0.1363,0.4966z"/>
     <path id="_76957072" fill="#FFCC00" stroke="#1F1A17" stroke-width="0.0762" d="M191.191 121.676c-0.0752,0 -0.1363,-0.2224 -0.1363,-0.4966 0,-0.2743 0.0611,-0.4966 0.1363,-0.4966 0.0753,0 0.1363,0.2223 0.1363,0.4966 0,0.2742 -0.061,0.4966 -0.1363,0.4966z"/>
    </g>
    <g>
     <path id="_3667568" fill="#FFCC00" stroke="#1F1A17" stroke-width="0.0762" d="M192.584 123.274c-0.0706,-0.0262 -0.0508,-0.2559 0.0443,-0.5131 0.0951,-0.2572 0.2294,-0.4446 0.3,-0.4185 0.0706,0.0261 0.0508,0.2558 -0.0443,0.513 -0.0951,0.2572 -0.2294,0.4447 -0.3,0.4186z"/>
     <path id="_66518680" fill="#FFCC00" stroke="#1F1A17" stroke-width="0.0762" d="M192.84 123.368c-0.0706,-0.0261 -0.0508,-0.2559 0.0443,-0.5131 0.0951,-0.2572 0.2295,-0.4446 0.3,-0.4185 0.0707,0.0261 0.0508,0.2558 -0.0443,0.5131 -0.095,0.2571 -0.2294,0.4446 -0.3,0.4185z"/>
    </g>
   </g>
   <g>
    <path id="_76861432" fill="#33CC33" stroke="#1F1A17" stroke-width="0.0762" d="M175.388 139.269c-0.0896,-0.5289 0.2231,-3.4886 -0.7541,-3.9599 -1.0217,0.8182 -0.6902,3.658 -0.663,4.0248 0.4839,-0.265 1.0261,-0.3069 1.4171,-0.0649z"/>
    <path id="_67229664" fill="#CCFF66" stroke="#1F1A17" stroke-width="0.0762" d="M178.84 146.901c0.067,0.0761 0.2495,-0.0377 0.1738,-0.1294 -2.7991,-1.7637 -2.8849,-1.9597 -3.2818,-3.2627 -0.1443,-0.0592 -0.1877,0.0295 -0.3029,0.0799 0.2435,1.4882 1.4692,2.0968 3.4109,3.3122z"/>
    <path id="_66258784" fill="#33CC33" stroke="#1F1A17" stroke-width="0.0762" d="M178.059 141.639c0.5053,0.5823 1.2118,1.6591 1.166,2.1833 -0.9372,-0.2125 -1.6277,-1.1322 -2.3523,-1.6831 -0.0234,-0.2889 -0.0933,-0.4098 -0.2584,-0.6678 0.7969,0.1839 1.1961,0.1628 1.4447,0.1676z"/>
    <path id="_76900312" fill="#33CC33" stroke="#1F1A17" stroke-width="0.0762" d="M178.234 138.563c0.3829,-0.3363 0.4886,-0.5146 0.5996,-0.6732 0.6743,-0.3019 1.8888,-0.7242 2.2498,-0.572 -0.0279,0.4242 -1.0951,0.9817 -1.6008,1.3722 -0.2481,-0.0827 -0.5809,-0.1864 -1.2486,-0.127z"/>
    <path id="_66818480" fill="#33CC33" stroke="#1F1A17" stroke-width="0.0762" d="M172.626 141.102c-0.1771,0.2448 -0.2668,0.6368 -0.2255,0.9834 -0.6553,0.4395 -1.4505,0.8984 -2.4001,1.0576 -0.0235,-0.439 0.8473,-1.1755 1.3544,-1.7016 0.5341,-0.0427 0.9859,-0.0261 1.2712,-0.3394z"/>
    <path id="_76995904" fill="#33CC33" stroke="#1F1A17" stroke-width="0.0762" d="M171.108 138.404c-0.1291,-0.1361 -0.449,-0.496 -0.5432,-0.7032 -1.0082,-0.489 -2.3335,-0.3137 -2.3335,-0.3137 0.7206,0.8881 1.1217,0.3672 1.847,1.2506 0.2861,-0.1337 0.6697,-0.1976 1.0297,-0.2337z"/>
    <path id="_27623856" fill="#C864C8" stroke="#1F1A17" stroke-width="0.0762" d="M175.583 139.453c0.5602,0.0554 1.7177,-0.0749 2.6513,-0.89 3.2561,-0.2946 2.4671,3.3845 -0.175,3.0757 -0.9604,0 -2.5525,-0.2165 -2.9808,-1.2535 0.8958,-0.2864 0.6481,-0.7358 0.5045,-0.9322z"/>
    <path id="_76927272" fill="#C864C8" stroke="#1F1A17" stroke-width="0.0762" d="M175.078 140.386c0.3319,0.7726 1.1976,0.9904 1.5361,1.0859 0.5378,0.7301 0.2363,1.4894 -0.8825,2.0372 -0.2737,-0.0995 -0.069,0.2192 -1.3104,0.2383 -0.8547,-0.0422 -1.9423,-1.0188 -2.0212,-1.6615 -0.0502,-0.4083 0.0885,-0.8684 0.295,-1.0617 0.4487,-0.7107 0.666,-0.7274 1.0822,-0.8902 0.2831,0.2648 0.8713,0.3137 1.3008,0.252z"/>
    <path id="_76582336" fill="#C864C8" stroke="#1F1A17" stroke-width="0.0762" d="M174.115 139.26c-0.6352,-0.3647 -2.3986,-0.8765 -3.0077,-0.8562 -2.8871,0.1969 -2.6543,3.2556 0.1463,3.045 1.3147,-0.0838 1.2643,-0.167 1.7616,-0.8717 0.1492,-0.1525 0.232,-0.2585 0.762,-0.4437 -0.3895,-0.3596 -0.0009,-0.7295 0.3378,-0.8734z"/>
    <path id="_65788120" fill="#C864C8" stroke="#1F1A17" stroke-width="0.0762" d="M174.31 139.195c-0.026,-0.7886 1.1353,-3.7282 3.1779,-3.5574 1.1676,0.0499 1.5487,0.2527 1.6664,1.116 0.1398,1.2649 -1.6188,2.8395 -3.5714,2.6999 -0.3637,-0.4614 -1.0279,-0.3439 -1.2729,-0.2585z"/>
    <path id="_66514536" fill="#C864C8" stroke="#1F1A17" stroke-width="0.0762" d="M174.667 139.13c0.1074,-1.493 -1.3191,-3.6355 -3.1532,-3.5538 -1.8228,0.2866 -1.3771,1.8575 -0.4066,2.828 1.0481,0.0388 2.5478,0.597 3.0077,0.8562 0.1946,-0.0653 0.2674,-0.1228 0.5521,-0.1304z"/>
    <path id="_65787112" fill="#FFFFCC" stroke="#1F1A17" stroke-width="0.0762" d="M175.583 139.453c0.4743,0.5826 -0.3371,1.0234 -0.9334,0.9546 -0.6384,0.0049 -1.3455,-0.3972 -0.8858,-0.8953 0.138,-0.2609 1.3211,-0.7193 1.8192,-0.0593z"/>
    <path id="_77201960" fill="none" stroke="#1F1A17" stroke-width="0.3528" d="M175.078 140.386c1.6507,-0.387 3.526,-3.8608 4.0476,-5.6696"/>
    <path id="_76674184" fill="none" stroke="#1F1A17" stroke-width="0.3528" d="M175.726 139.798c1.6966,-2.9363 1.7268,-5.2769 1.6984,-6.8023"/>
    <path id="_65711200" fill="none" stroke="#1F1A17" stroke-width="0.3528" d="M175.04 139.137c0.0616,-1.9227 0.2468,-4.5369 0.2575,-6.451"/>
    <path id="_76955832" fill="none" stroke="#1F1A17" stroke-width="0.3528" d="M173.853 139.4c-1.7293,-1.96 -1.9072,-5.5653 -1.906,-6.3621"/>
    <path id="_77181784" fill="none" stroke="#1F1A17" stroke-width="0.3528" d="M173.87 140.205c-1.9083,-0.8898 -3.4298,-4.6686 -3.7531,-5.4914"/>
    <g>
     <path id="_76492792" fill="#FFCC00" stroke="#1F1A17" stroke-width="0.0762" d="M179.099 135.23c0.0716,0.0236 0.1993,-0.1684 0.2855,-0.4287 0.086,-0.2604 0.0979,-0.4907 0.0264,-0.5143 -0.0715,-0.0237 -0.1993,0.1683 -0.2853,0.4286 -0.0861,0.2604 -0.098,0.4907 -0.0266,0.5144z"/>
     <path id="_76422536" fill="#FFCC00" stroke="#1F1A17" stroke-width="0.0762" d="M178.841 135.145c0.0715,0.0236 0.1992,-0.1684 0.2853,-0.4288 0.086,-0.2603 0.0979,-0.4906 0.0265,-0.5142 -0.0715,-0.0237 -0.1993,0.1683 -0.2853,0.4287 -0.0862,0.2602 -0.0981,0.4906 -0.0265,0.5143z"/>
    </g>
    <g>
     <path id="_67148784" fill="#FFCC00" stroke="#1F1A17" stroke-width="0.0762" d="M177.561 133.492c0.0752,0 0.1362,-0.2223 0.1362,-0.4965 0,-0.2742 -0.061,-0.4966 -0.1362,-0.4966 -0.0753,0 -0.1364,0.2224 -0.1364,0.4966 0,0.2742 0.0611,0.4965 0.1364,0.4965z"/>
     <path id="_66894792" fill="#FFCC00" stroke="#1F1A17" stroke-width="0.0762" d="M177.288 133.492c0.0753,0 0.1363,-0.2223 0.1363,-0.4965 0,-0.2742 -0.061,-0.4966 -0.1363,-0.4966 -0.0752,0 -0.1363,0.2224 -0.1363,0.4966 0,0.2742 0.0611,0.4965 0.1363,0.4965z"/>
    </g>
    <g>
     <path id="_76995392" fill="#FFCC00" stroke="#1F1A17" stroke-width="0.0762" d="M175.434 133.183c0.0753,0 0.1364,-0.2224 0.1364,-0.4966 0,-0.2742 -0.0611,-0.4966 -0.1364,-0.4966 -0.0752,0 -0.1363,0.2224 -0.1363,0.4966 0,0.2742 0.0611,0.4966 0.1363,0.4966z"/>
     <path id="_67152472" fill="#FFCC00" stroke="#1F1A17" stroke-width="0.0762" d="M175.162 133.183c0.0753,0 0.1363,-0.2224 0.1363,-0.4966 0,-0.2742 -0.061,-0.4966 -0.1363,-0.4966 -0.0753,0 -0.1363,0.2224 -0.1363,0.4966 0,0.2742 0.061,0.4966 0.1363,0.4966z"/>
    </g>
    <g>
     <path id="_66375328" fill="#FFCC00" stroke="#1F1A17" stroke-width="0.0762" d="M172.083 133.534c0.0753,0 0.1363,-0.2225 0.1363,-0.4967 0,-0.2742 -0.061,-0.4966 -0.1363,-0.4966 -0.0753,0 -0.1363,0.2224 -0.1363,0.4966 0,0.2742 0.061,0.4967 0.1363,0.4967z"/>
     <path id="_66390232" fill="#FFCC00" stroke="#1F1A17" stroke-width="0.0762" d="M171.811 133.534c0.0753,0 0.1363,-0.2225 0.1363,-0.4967 0,-0.2742 -0.061,-0.4966 -0.1363,-0.4966 -0.0753,0 -0.1364,0.2224 -0.1364,0.4966 0,0.2742 0.0611,0.4967 0.1364,0.4967z"/>
    </g>
    <g>
     <path id="_66732120" fill="#FFCC00" stroke="#1F1A17" stroke-width="0.0762" d="M170.417 135.132c0.0706,-0.0261 0.0508,-0.2558 -0.0443,-0.5131 -0.0951,-0.2572 -0.2294,-0.4446 -0.3,-0.4185 -0.0707,0.0261 -0.0508,0.2559 0.0443,0.5131 0.095,0.2572 0.2294,0.4446 0.3,0.4185z"/>
     <path id="_76710160" fill="#FFCC00" stroke="#1F1A17" stroke-width="0.0762" d="M170.161 135.227c0.0707,-0.026 0.0508,-0.2558 -0.0442,-0.513 -0.0951,-0.2572 -0.2295,-0.4447 -0.3,-0.4185 -0.0707,0.026 -0.0508,0.2558 0.0443,0.513 0.095,0.2573 0.2294,0.4446 0.2999,0.4185z"/>
    </g>
   </g>
   <g id="Fleur_bisex">
    <path id="_65781320" fill="#33CC33" stroke="black" stroke-width="0.0762" d="M187.543 99.6444c0.0897,-0.5302 0.1052,-1.7323 0.828,-2.1653 0.6979,0.2923 0.944,1.8405 0.9168,2.2081 -0.4274,0.2902 -1.3276,0.1433 -1.7448,-0.0428z"/>
    <path id="_76711120" fill="#33CC33" stroke="black" stroke-width="0.0762" d="M184.948 104.257c-0.5065,0.5836 -1.2145,1.6631 -1.1688,2.1886 0.9395,-0.2132 1.6316,-1.1349 2.3579,-1.6872 0.0235,-0.2896 0.0935,-0.4108 0.259,-0.6694 -0.7987,0.1843 -1.1988,0.1633 -1.4481,0.168z"/>
    <path id="_77230808" fill="#33CC33" stroke="black" stroke-width="0.0762" d="M184.773 101.174c-0.3839,-0.3371 -0.4898,-0.5158 -0.601,-0.6748 -0.676,-0.3025 -1.8933,-0.7258 -2.2552,-0.5734 0.0281,0.4253 1.0978,0.984 1.6047,1.3755 0.2486,-0.0829 0.5822,-0.1868 1.2515,-0.1273z"/>
    <path id="_66434136" fill="#33CC33" stroke="black" stroke-width="0.0762" d="M190.394 103.719c0.1775,0.2454 0.2675,0.6383 0.226,0.9858 0.6569,0.4406 1.454,0.9005 2.4059,1.0602 0.0235,-0.4401 -0.8493,-1.1784 -1.3577,-1.7057 -0.5353,-0.0429 -0.9882,-0.0262 -1.2742,-0.3403z"/>
    <path id="_66367440" fill="#33CC33" stroke="black" stroke-width="0.0762" d="M191.916 101.014c0.2039,-0.3126 0.3406,-0.3922 0.5445,-0.7049 1.0107,-0.4901 2.339,-0.3144 2.339,-0.3144 -0.7222,0.8902 -1.1243,0.3681 -1.8514,1.2536 -0.345,-0.1584 -0.6678,-0.1942 -1.0321,-0.2343z"/>
    <path id="_66278848" fill="#C864C8" stroke="black" stroke-width="0.0762" d="M187.43 102.066c-0.5615,0.0556 -1.7217,-0.0751 -2.6576,-0.8921 -3.2638,-0.2953 -2.473,3.3925 0.1754,3.083 0.9626,0 2.5586,-0.217 2.9879,-1.2565 -0.898,-0.287 -0.6497,-0.7375 -0.5057,-0.9344z"/>
    <path id="_66397032" fill="#C864C8" stroke="black" stroke-width="0.0762" d="M187.936 103.001c-0.3328,0.7745 -1.2004,0.9928 -1.5398,1.0885 -0.5391,0.7319 -0.2368,1.493 0.8847,2.0422 0.2743,-0.0999 0.0691,0.2196 1.3134,0.2387 0.8567,-0.0423 1.9469,-1.0212 2.026,-1.6654 0.0503,-0.4093 -0.0887,-0.8705 -0.2957,-1.0643 -0.4498,-0.7123 -0.6675,-0.7291 -1.0848,-0.8922 -0.2837,0.2655 -0.8733,0.3144 -1.3038,0.2525z"/>
    <path id="_66468328" fill="#C864C8" stroke="black" stroke-width="0.0762" d="M189.402 101.608c1.1962,-0.6774 1.9573,-0.5494 2.5138,-0.5937 2.894,0.1974 2.6606,3.2634 -0.1466,3.0523 -1.3178,-0.084 -1.2673,-0.1675 -1.7658,-0.8738 -0.1494,-0.1495 -0.2641,-0.2982 -0.7639,-0.4447 0.2528,-0.2334 0.1602,-0.4584 0.014,-0.6224 0.0831,-0.164 0.0994,-0.3326 0.1485,-0.5177z"/>
    <path id="_77228488" fill="#C864C8" stroke="black" stroke-width="0.0762" d="M189.118 99.5422c-0.1076,-1.2047 1.6009,-1.4444 2.3905,-1.3624 1.8272,0.2872 1.3804,1.8618 0.4076,2.8346 -1.0506,0.0389 -1.5921,0.0741 -2.5138,0.5937 0.1532,-0.6385 0.3214,-1.4188 0.2185,-1.5931 -0.0608,-0.2431 -0.2282,-0.3414 -0.5028,-0.4728z"/>
    <path id="_67091208" fill="#C864C8" stroke="black" stroke-width="0.0762" d="M187.693 99.5833c-0.4173,-0.9937 -1.3293,-1.4019 -2.1723,-1.342 -1.1704,0.05 -1.5524,0.2534 -1.6704,1.1186 -0.1401,1.2681 1.6226,2.8464 3.5799,2.7064 -0.1253,-0.1984 -0.3283,-0.6339 -0.3431,-1.3618 -0.004,-0.2473 0.0135,-0.4832 0.0894,-0.7187 0.055,-0.1576 0.2018,-0.2898 0.5165,-0.4025z"/>
    <path id="_66280688" fill="#FFFFCC" stroke="black" stroke-width="0.0762" d="M187.43 102.066c-0.4755,0.5839 0.3286,0.9963 0.9362,0.9963 0.4445,0 1.3923,-0.3696 0.8873,-0.9368 -0.2507,0.4051 -1.5571,0.5501 -1.8235,-0.0595z"/>
    <path id="_76522024" fill="#FFCC00" stroke="black" stroke-width="0.0762" d="M188.275 92.5034c-0.3251,-0.0808 -0.3264,-0.3848 0.1143,-0.3848 0.4407,0 0.523,0.268 0.1774,0.3866 -0.088,-0.0702 -0.2046,-0.0671 -0.2917,-0.0018z"/>
    <g>
     <path id="_76792832" fill="none" stroke="black" stroke-width="0.3528" d="M187.974 101.749c-0.0617,-1.9273 -0.2473,-4.5477 -0.2581,-6.4663"/>
     <g>
      <path id="_76415400" fill="#FFCC00" stroke="black" stroke-width="0.0762" d="M187.579 95.7807c-0.0755,0 -0.1367,-0.2229 -0.1367,-0.4978 0,-0.2749 0.0612,-0.4978 0.1367,-0.4978 0.0754,0 0.1366,0.2229 0.1366,0.4978 0,0.2749 -0.0612,0.4978 -0.1366,0.4978z"/>
      <path id="_66859408" fill="#FFCC00" stroke="black" stroke-width="0.0762" d="M187.852 95.7807c-0.0755,0 -0.1367,-0.2229 -0.1367,-0.4978 0,-0.2749 0.0612,-0.4978 0.1367,-0.4978 0.0754,0 0.1366,0.2229 0.1366,0.4978 0,0.2749 -0.0612,0.4978 -0.1366,0.4978z"/>
     </g>
    </g>
    <g>
     <path id="_77081240" fill="none" stroke="black" stroke-width="0.3528" d="M189.164 102.013c1.7335,-1.9646 1.9118,-5.5785 1.9106,-6.3772"/>
     <g>
      <path id="_65727624" fill="#FFCC00" stroke="black" stroke-width="0.0762" d="M190.938 96.1332c-0.0755,0 -0.1367,-0.2229 -0.1367,-0.4978 0,-0.2748 0.0612,-0.4978 0.1367,-0.4978 0.0754,0 0.1366,0.223 0.1366,0.4978 0,0.2749 -0.0612,0.4978 -0.1366,0.4978z"/>
      <path id="_76653568" fill="#FFCC00" stroke="black" stroke-width="0.0762" d="M191.211 96.1332c-0.0755,0 -0.1367,-0.2229 -0.1367,-0.4978 0,-0.2748 0.0612,-0.4978 0.1367,-0.4978 0.0754,0 0.1366,0.223 0.1366,0.4978 0,0.2749 -0.0612,0.4978 -0.1366,0.4978z"/>
     </g>
    </g>
    <path id="_65786728" fill="#99FF00" stroke="black" stroke-width="0.0762" d="M187.43 102.066c0.2607,0.6101 1.5365,0.633 1.8235,0.0595 0.2454,-0.4905 0.5723,-1.546 0.367,-2.1108 -0.2143,-0.5895 -0.9969,-0.4056 -1.0727,-0.8041 -0.0622,-1.9701 -0.0735,-5.9213 0.0189,-6.7057 -0.0631,-0.0676 -0.2015,-0.0669 -0.2917,-0.0018 0.0976,0.8454 -0.0405,5.8809 -0.0847,6.7056 -0.1821,0.3417 -0.861,0.3166 -1.0207,0.7957 -0.1493,0.4481 -0.1174,1.4617 0.2604,2.0616z"/>
    <path id="_65731096" fill="#CCFF66" stroke="black" stroke-width="0.0762" d="M184.165 109.531c-0.0673,0.0763 -0.2501,-0.0378 -0.1743,-0.1297 2.8058,-1.7679 2.8918,-1.9645 3.2897,-3.2703 0.1446,-0.0595 0.1881,0.0295 0.3036,0.08 -0.2441,1.4917 -1.4727,2.1017 -3.419,3.32z"/>
    <g>
     <path id="_66286176" fill="none" stroke="black" stroke-width="0.3528" d="M187.936 103.001c-1.6546,-0.3878 -3.5344,-3.8699 -4.0572,-5.683"/>
     <g>
      <path id="_66377408" fill="#FFCC00" stroke="black" stroke-width="0.0762" d="M183.905 97.8333c-0.0716,0.0236 -0.1998,-0.1688 -0.2861,-0.4298 -0.0863,-0.2609 -0.0981,-0.4918 -0.0265,-0.5155 0.0716,-0.0237 0.1997,0.1688 0.286,0.4297 0.0863,0.261 0.0982,0.4919 0.0266,0.5156z"/>
      <path id="_66437440" fill="#FFCC00" stroke="black" stroke-width="0.0762" d="M184.165 97.7474c-0.0716,0.0237 -0.1997,-0.1687 -0.286,-0.4297 -0.0863,-0.2609 -0.0981,-0.4918 -0.0266,-0.5155 0.0717,-0.0237 0.1998,0.1688 0.2861,0.4297 0.0863,0.261 0.0982,0.4919 0.0265,0.5155z"/>
     </g>
    </g>
    <g>
     <path id="_66274024" fill="none" stroke="black" stroke-width="0.3528" d="M187.286 102.411c-1.7005,-2.9432 -1.7309,-5.2894 -1.7024,-6.8184"/>
     <g>
      <path id="_77224184" fill="#FFCC00" stroke="black" stroke-width="0.0762" d="M185.447 96.0907c-0.0754,0 -0.1366,-0.2229 -0.1366,-0.4977 0,-0.2749 0.0612,-0.4978 0.1366,-0.4978 0.0755,0 0.1367,0.2229 0.1367,0.4978 0,0.2748 -0.0612,0.4977 -0.1367,0.4977z"/>
      <path id="_66419480" fill="#FFCC00" stroke="black" stroke-width="0.0762" d="M185.721 96.0907c-0.0754,0 -0.1366,-0.2229 -0.1366,-0.4977 0,-0.2749 0.0612,-0.4978 0.1366,-0.4978 0.0755,0 0.1367,0.2229 0.1367,0.4978 0,0.2748 -0.0612,0.4977 -0.1367,0.4977z"/>
     </g>
    </g>
    <g>
     <path id="_66787304" fill="none" stroke="black" stroke-width="0.3528" d="M189.147 102.82c1.9129,-0.892 3.4379,-4.6798 3.762,-5.5045"/>
     <g>
      <path id="_65756864" fill="#FFCC00" stroke="black" stroke-width="0.0762" d="M192.608 97.735c-0.0707,-0.0262 -0.0509,-0.2565 0.0445,-0.5143 0.0952,-0.2578 0.2299,-0.4457 0.3007,-0.4195 0.0708,0.0261 0.0509,0.2565 -0.0444,0.5143 -0.0953,0.2578 -0.23,0.4457 -0.3008,0.4195z"/>
      <path id="_27622240" fill="#FFCC00" stroke="black" stroke-width="0.0762" d="M192.865 97.8297c-0.0708,-0.0261 -0.0509,-0.2564 0.0444,-0.5142 0.0953,-0.2578 0.23,-0.4457 0.3007,-0.4196 0.0708,0.0262 0.0509,0.2565 -0.0444,0.5143 -0.0953,0.2578 -0.23,0.4457 -0.3007,0.4195z"/>
     </g>
    </g>
   </g>
   <g id="Fleur_bisex_0">
    <path id="_65463808" fill="#33CC33" stroke="black" stroke-width="0.0762" d="M175.483 111.713c-0.0897,-0.5302 -0.1052,-1.7323 -0.828,-2.1653 -0.6979,0.2923 -0.944,1.8405 -0.9168,2.2081 0.4274,0.2902 1.3276,0.1433 1.7448,-0.0428z"/>
    <path id="_76617360" fill="#33CC33" stroke="black" stroke-width="0.0762" d="M178.078 116.325c0.5065,0.5836 1.2145,1.6631 1.1688,2.1886 -0.9395,-0.2132 -1.6316,-1.1349 -2.3579,-1.6872 -0.0235,-0.2896 -0.0935,-0.4108 -0.259,-0.6694 0.7987,0.1843 1.1988,0.1633 1.4481,0.168z"/>
    <path id="_66302888" fill="#33CC33" stroke="black" stroke-width="0.0762" d="M178.253 113.242c0.3839,-0.3371 0.4898,-0.5158 0.601,-0.6748 0.676,-0.3025 1.8933,-0.7258 2.2552,-0.5734 -0.0281,0.4253 -1.0978,0.984 -1.6047,1.3755 -0.2486,-0.0829 -0.5822,-0.1868 -1.2515,-0.1273z"/>
    <path id="_66416760" fill="#33CC33" stroke="black" stroke-width="0.0762" d="M172.631 115.787c-0.1775,0.2454 -0.2675,0.6383 -0.226,0.9858 -0.6569,0.4406 -1.454,0.9005 -2.4059,1.0602 -0.0235,-0.4401 0.8493,-1.1784 1.3577,-1.7057 0.5353,-0.0429 0.9882,-0.0262 1.2742,-0.3403z"/>
    <path id="_65790608" fill="#33CC33" stroke="black" stroke-width="0.0762" d="M171.11 113.083c-0.2039,-0.3126 -0.3406,-0.3922 -0.5445,-0.7049 -1.0107,-0.4901 -2.339,-0.3144 -2.339,-0.3144 0.7222,0.8902 1.1243,0.3681 1.8514,1.2536 0.345,-0.1584 0.6678,-0.1942 1.0321,-0.2343z"/>
    <path id="_77224704" fill="#C864C8" stroke="black" stroke-width="0.0762" d="M175.595 114.135c0.5615,0.0556 1.7217,-0.0751 2.6576,-0.8921 3.2638,-0.2953 2.473,3.3925 -0.1754,3.083 -0.9626,0 -2.5586,-0.217 -2.9879,-1.2565 0.898,-0.287 0.6497,-0.7375 0.5057,-0.9344z"/>
    <path id="_65722544" fill="#C864C8" stroke="black" stroke-width="0.0762" d="M175.09 115.069c0.3328,0.7745 1.2004,0.9928 1.5398,1.0885 0.5391,0.7319 0.2368,1.493 -0.8847,2.0422 -0.2743,-0.0999 -0.0691,0.2196 -1.3134,0.2387 -0.8567,-0.0423 -1.9469,-1.0212 -2.026,-1.6654 -0.0503,-0.4093 0.0887,-0.8705 0.2957,-1.0643 0.4498,-0.7123 0.6675,-0.7291 1.0848,-0.8922 0.2837,0.2655 0.8733,0.3144 1.3038,0.2525z"/>
    <path id="_66521056" fill="#C864C8" stroke="black" stroke-width="0.0762" d="M173.623 113.676c-1.1962,-0.6774 -1.9573,-0.5494 -2.5138,-0.5937 -2.894,0.1974 -2.6606,3.2634 0.1466,3.0523 1.3178,-0.084 1.2673,-0.1675 1.7658,-0.8738 0.1494,-0.1495 0.2641,-0.2982 0.7639,-0.4447 -0.2528,-0.2334 -0.1602,-0.4584 -0.014,-0.6224 -0.0831,-0.164 -0.0994,-0.3326 -0.1485,-0.5177z"/>
    <path id="_76724920" fill="#C864C8" stroke="black" stroke-width="0.0762" d="M173.908 111.61c0.1076,-1.2047 -1.6009,-1.4444 -2.3905,-1.3624 -1.8272,0.2872 -1.3804,1.8618 -0.4076,2.8346 1.0506,0.0389 1.5921,0.0741 2.5138,0.5937 -0.1532,-0.6385 -0.3214,-1.4188 -0.2185,-1.5931 0.0608,-0.2431 0.2282,-0.3414 0.5028,-0.4728z"/>
    <path id="_66731016" fill="#C864C8" stroke="black" stroke-width="0.0762" d="M175.333 111.652c0.4173,-0.9937 1.3293,-1.4019 2.1723,-1.342 1.1704,0.05 1.5524,0.2534 1.6704,1.1186 0.1401,1.2681 -1.6226,2.8464 -3.5799,2.7064 0.1253,-0.1984 0.3283,-0.6339 0.3431,-1.3618 0.004,-0.2473 -0.0135,-0.4832 -0.0894,-0.7187 -0.055,-0.1576 -0.2018,-0.2898 -0.5165,-0.4025z"/>
    <path id="_66402864" fill="#FFFFCC" stroke="black" stroke-width="0.0762" d="M175.595 114.135c0.4755,0.5839 -0.3286,0.9963 -0.9362,0.9963 -0.4445,0 -1.3923,-0.3696 -0.8873,-0.9368 0.2507,0.4051 1.5571,0.5501 1.8235,-0.0595z"/>
    <path id="_77227680" fill="#FFCC00" stroke="black" stroke-width="0.0762" d="M174.75 104.572c0.3251,-0.0808 0.3264,-0.3848 -0.1143,-0.3848 -0.4407,0 -0.523,0.268 -0.1774,0.3866 0.088,-0.0702 0.2046,-0.0671 0.2917,-0.0018z"/>
    <g>
     <path id="_66451600" fill="none" stroke="black" stroke-width="0.3528" d="M175.052 113.817c0.0617,-1.9273 0.2473,-4.5477 0.2581,-6.4663"/>
     <g>
      <path id="_66415552" fill="#FFCC00" stroke="black" stroke-width="0.0762" d="M175.446 107.849c0.0755,0 0.1367,-0.2229 0.1367,-0.4978 0,-0.2749 -0.0612,-0.4978 -0.1367,-0.4978 -0.0754,0 -0.1366,0.2229 -0.1366,0.4978 0,0.2749 0.0612,0.4978 0.1366,0.4978z"/>
      <path id="_65729560" fill="#FFCC00" stroke="black" stroke-width="0.0762" d="M175.173 107.849c0.0755,0 0.1367,-0.2229 0.1367,-0.4978 0,-0.2749 -0.0612,-0.4978 -0.1367,-0.4978 -0.0754,0 -0.1366,0.2229 -0.1366,0.4978 0,0.2749 0.0612,0.4978 0.1366,0.4978z"/>
     </g>
    </g>
    <g>
     <path id="_76633336" fill="none" stroke="black" stroke-width="0.3528" d="M173.861 114.081c-1.7335,-1.9646 -1.9118,-5.5785 -1.9106,-6.3772"/>
     <g>
      <path id="_66399960" fill="#FFCC00" stroke="black" stroke-width="0.0762" d="M172.087 108.201c0.0755,0 0.1367,-0.2229 0.1367,-0.4978 0,-0.2748 -0.0612,-0.4978 -0.1367,-0.4978 -0.0754,0 -0.1366,0.223 -0.1366,0.4978 0,0.2749 0.0612,0.4978 0.1366,0.4978z"/>
      <path id="_66411048" fill="#FFCC00" stroke="black" stroke-width="0.0762" d="M171.814 108.201c0.0755,0 0.1367,-0.2229 0.1367,-0.4978 0,-0.2748 -0.0612,-0.4978 -0.1367,-0.4978 -0.0754,0 -0.1366,0.223 -0.1366,0.4978 0,0.2749 0.0612,0.4978 0.1366,0.4978z"/>
     </g>
    </g>
    <path id="_66482584" fill="#99FF00" stroke="black" stroke-width="0.0762" d="M175.595 114.135c-0.2607,0.6101 -1.5365,0.633 -1.8235,0.0595 -0.2454,-0.4905 -0.5723,-1.546 -0.367,-2.1108 0.2143,-0.5895 0.9969,-0.4056 1.0727,-0.8041 0.0622,-1.9701 0.0735,-5.9213 -0.0189,-6.7057 0.0631,-0.0676 0.2015,-0.0669 0.2917,-0.0018 -0.0976,0.8454 0.0405,5.8809 0.0847,6.7056 0.1821,0.3417 0.861,0.3166 1.0207,0.7957 0.1493,0.4481 0.1174,1.4617 -0.2604,2.0616z"/>
    <path id="_27610712" fill="#CCFF66" stroke="black" stroke-width="0.0762" d="M178.86 121.6c0.0673,0.0763 0.2501,-0.0378 0.1743,-0.1297 -2.8058,-1.7679 -2.8918,-1.9645 -3.2897,-3.2703 -0.1446,-0.0595 -0.1881,0.0295 -0.3036,0.08 0.2441,1.4917 1.4727,2.1017 3.419,3.32z"/>
    <g>
     <path id="_45490088" fill="none" stroke="black" stroke-width="0.3528" d="M175.09 115.069c1.6546,-0.3878 3.5344,-3.8699 4.0572,-5.683"/>
     <g>
      <path id="_77218608" fill="#FFCC00" stroke="black" stroke-width="0.0762" d="M179.12 109.902c0.0716,0.0236 0.1998,-0.1688 0.2861,-0.4298 0.0863,-0.2609 0.0981,-0.4918 0.0265,-0.5155 -0.0716,-0.0237 -0.1997,0.1688 -0.286,0.4297 -0.0863,0.261 -0.0982,0.4919 -0.0266,0.5156z"/>
      <path id="_67181072" fill="#FFCC00" stroke="black" stroke-width="0.0762" d="M178.861 109.816c0.0716,0.0237 0.1997,-0.1687 0.286,-0.4297 0.0863,-0.2609 0.0981,-0.4918 0.0266,-0.5155 -0.0717,-0.0237 -0.1998,0.1688 -0.2861,0.4297 -0.0863,0.261 -0.0982,0.4919 -0.0265,0.5155z"/>
     </g>
    </g>
    <g>
     <path id="_66506152" fill="none" stroke="black" stroke-width="0.3528" d="M175.739 114.48c1.7005,-2.9432 1.7309,-5.2894 1.7024,-6.8184"/>
     <g>
      <path id="_66247408" fill="#FFCC00" stroke="black" stroke-width="0.0762" d="M177.578 108.159c0.0754,0 0.1366,-0.2229 0.1366,-0.4977 0,-0.2749 -0.0612,-0.4978 -0.1366,-0.4978 -0.0755,0 -0.1367,0.2229 -0.1367,0.4978 0,0.2748 0.0612,0.4977 0.1367,0.4977z"/>
      <path id="_67157704" fill="#FFCC00" stroke="black" stroke-width="0.0762" d="M177.305 108.159c0.0754,0 0.1366,-0.2229 0.1366,-0.4977 0,-0.2749 -0.0612,-0.4978 -0.1366,-0.4978 -0.0755,0 -0.1367,0.2229 -0.1367,0.4978 0,0.2748 0.0612,0.4977 0.1367,0.4977z"/>
     </g>
    </g>
    <g>
     <path id="_27627776" fill="none" stroke="black" stroke-width="0.3528" d="M173.878 114.888c-1.9129,-0.892 -3.4379,-4.6798 -3.762,-5.5045"/>
     <g>
      <path id="_76901904" fill="#FFCC00" stroke="black" stroke-width="0.0762" d="M170.417 109.803c0.0707,-0.0262 0.0509,-0.2565 -0.0445,-0.5143 -0.0952,-0.2578 -0.2299,-0.4457 -0.3007,-0.4195 -0.0708,0.0261 -0.0509,0.2565 0.0444,0.5143 0.0953,0.2578 0.23,0.4457 0.3008,0.4195z"/>
      <path id="_65501112" fill="#FFCC00" stroke="black" stroke-width="0.0762" d="M170.161 109.898c0.0708,-0.0261 0.0509,-0.2564 -0.0444,-0.5142 -0.0953,-0.2578 -0.23,-0.4457 -0.3007,-0.4196 -0.0708,0.0262 -0.0509,0.2565 0.0444,0.5143 0.0953,0.2578 0.23,0.4457 0.3007,0.4195z"/>
     </g>
    </g>
   </g>
  </g>
  <g id="FlSex_Male" onclick="parent.replacechar('FlSex_Male')" onmousemove="parent.showtooltip('FlSex_Male', 'Male flower')" onmouseout="parent.hidetooltip('FlSex_Male')" cursor="pointer" >
   <path id="_66411816" fill="#33CC33" stroke="#1F1A17" stroke-width="0.0762" d="M54.9737 132.198c0.4378,-2.5876 -1.0916,-17.0666 3.6887,-19.3719 4.998,4.0024 3.3764,17.8949 3.2434,19.6891 -2.3673,-1.2964 -5.0196,-1.5015 -6.9321,-0.3172z"/>
   <path id="_77063928" fill="#CCFF66" stroke="#1F1A17" stroke-width="0.0762" d="M38.0879 169.531c-0.3281,0.372 -1.2207,-0.1847 -0.8504,-0.6332 13.6934,-8.6278 14.1128,-9.5872 16.0547,-15.9604 0.7059,-0.2902 0.9182,0.144 1.4817,0.3905 -1.1913,7.28 -7.1873,10.257 -16.686,16.2031z"/>
   <path id="_76489528" fill="#33CC33" stroke="#1F1A17" stroke-width="0.0762" d="M41.9074 143.791c-2.4721,2.8483 -5.9274,8.1164 -5.7041,10.6811 4.585,-1.0402 7.9627,-5.5387 11.5073,-8.2342 0.1146,-1.413 0.4563,-2.0048 1.2642,-3.2669 -3.898,0.8998 -5.8509,0.7969 -7.0674,0.82z"/>
   <path id="_66863008" fill="#33CC33" stroke="#1F1A17" stroke-width="0.0762" d="M41.0515 128.745c-1.8735,-1.645 -2.3906,-2.517 -2.9332,-3.2929 -3.299,-1.4766 -9.2402,-3.5426 -11.0062,-2.7985 0.1371,2.0755 5.3574,4.8022 7.8315,6.713 1.2133,-0.4046 2.8413,-0.9119 6.1079,-0.6216z"/>
   <path id="_66508664" fill="#33CC33" stroke="#1F1A17" stroke-width="0.0762" d="M68.4869 141.164c0.8661,1.1976 1.3054,3.115 1.1031,4.8108 3.2057,2.1502 7.0959,4.3949 11.7412,5.1741 0.1149,-2.1478 -4.1447,-5.7511 -6.6259,-8.3244 -2.6123,-0.209 -4.8229,-0.1279 -6.2184,-1.6605z"/>
   <path id="_76746568" fill="#33CC33" stroke="#1F1A17" stroke-width="0.0762" d="M75.9137 127.965c0.6315,-0.6656 2.1971,-2.4261 2.6574,-3.44 4.9324,-2.3922 11.4154,-1.5347 11.4154,-1.5347 -3.525,4.3447 -5.4871,1.7965 -9.0357,6.1181 -1.3994,-0.654 -3.2761,-0.9667 -5.0371,-1.1434z"/>
   <path id="_65830320" fill="#C864C8" stroke="#1F1A17" stroke-width="0.0762" d="M54.0216 133.099c-2.7407,0.2712 -8.4028,-0.3664 -12.9701,-4.354 -15.9288,-1.4408 -12.0691,16.5569 0.8559,15.0463 4.6981,0 12.487,-1.0588 14.5822,-6.1323 -4.3825,-1.4004 -3.1708,-3.5993 -2.468,-4.56z"/>
   <path id="_66357752" fill="#C864C8" stroke="#1F1A17" stroke-width="0.0762" d="M56.4896 137.659c-1.6241,3.7802 -5.8586,4.8452 -7.5148,5.3123 -2.631,3.5719 -1.156,7.2864 4.3174,9.9666 1.3388,-0.4873 0.3374,1.0718 6.4102,1.1652 4.1808,-0.2066 9.5012,-4.984 9.8876,-8.1279 0.2455,-1.9975 -0.4329,-4.2484 -1.4433,-5.1941 -2.1952,-3.4762 -3.2578,-3.5581 -5.2941,-4.3543 -1.3846,1.2956 -4.2622,1.5346 -6.363,1.2322z"/>
   <path id="_77031128" fill="#C864C8" stroke="#1F1A17" stroke-width="0.0762" d="M61.2008 132.154c3.107,-1.7842 11.7334,-4.2875 14.7129,-4.1886 14.1239,0.9635 12.9845,15.9264 -0.7155,14.8964 -6.4313,-0.41 -6.1847,-0.8176 -8.6177,-4.2647 -0.73,-0.7462 -1.1347,-1.2646 -3.7279,-2.1702 1.9057,-1.759 0.004,-3.5681 -1.6518,-4.2729z"/>
   <path id="_76645432" fill="#C864C8" stroke="#1F1A17" stroke-width="0.0762" d="M60.2486 131.834c0.1268,-3.8579 -5.5542,-18.238 -15.5462,-17.4028 -5.7118,0.244 -7.5761,1.2364 -8.1524,5.4592 -0.6837,6.1886 7.9191,13.8912 17.4716,13.2081 1.779,-2.2571 5.0279,-1.6822 6.227,-1.2645z"/>
   <path id="_45380856" fill="#C864C8" stroke="#1F1A17" stroke-width="0.0762" d="M58.4994 131.516c-0.525,-7.3035 6.4527,-17.7844 15.4252,-17.3845 8.9176,1.4017 6.7367,9.0864 1.9891,13.834 -5.1271,0.1899 -12.4636,2.9205 -14.7129,4.1886 -0.9522,-0.3194 -1.3085,-0.6004 -2.7014,-0.6381z"/>
   <path id="_77064688" fill="#FFFFCC" stroke="#1F1A17" stroke-width="0.0762" d="M54.0216 133.099c-2.3206,2.8497 1.6488,5.0065 4.5659,4.6702 3.1227,0.0239 6.5821,-1.9432 4.3332,-4.3799 -0.6748,-1.2767 -6.4626,-3.5185 -8.8991,-0.2903z"/>
   <path id="_66736024" fill="none" stroke="#1F1A17" stroke-width="0.3528" d="M56.4896 137.659c-8.075,-1.8926 -17.2491,-18.8864 -19.8007,-27.7348"/>
   <path id="_27686608" fill="none" stroke="#1F1A17" stroke-width="0.3528" d="M53.3202 134.783c-8.2993,-14.364 -8.4472,-25.8141 -8.3084,-33.2765"/>
   <path id="_77217336" fill="none" stroke="#1F1A17" stroke-width="0.3528" d="M56.6749 131.551c-0.3012,-9.4057 -1.2067,-22.1943 -1.2595,-31.5577"/>
   <path id="_66489632" fill="none" stroke="#1F1A17" stroke-width="0.3528" d="M62.4841 132.837c8.4601,-9.5882 9.3304,-27.2255 9.3245,-31.1231"/>
   <path id="_77019488" fill="none" stroke="#1F1A17" stroke-width="0.3528" d="M62.4015 136.777c9.3356,-4.3534 16.7781,-22.8388 18.3598,-26.864"/>
   <g>
    <path id="_77021624" fill="#FFCC00" stroke="#1F1A17" stroke-width="0.0762" d="M36.8186 112.44c-0.3496,0.1154 -0.975,-0.8236 -1.3961,-2.0974 -0.4211,-1.2735 -0.4791,-2.4002 -0.1296,-2.5158 0.3496,-0.1156 0.9748,0.8235 1.396,2.0971 0.4211,1.2735 0.4791,2.4003 0.1297,2.5161z"/>
    <path id="_65789600" fill="#FFCC00" stroke="#1F1A17" stroke-width="0.0762" d="M38.0847 112.021c-0.3496,0.1156 -0.9747,-0.8236 -1.3958,-2.0971 -0.4212,-1.2736 -0.479,-2.4002 -0.1297,-2.516 0.3496,-0.1155 0.9748,0.8236 1.3959,2.0972 0.4213,1.2736 0.4794,2.4003 0.1296,2.5159z"/>
   </g>
   <g>
    <path id="_77014096" fill="#FFCC00" stroke="#1F1A17" stroke-width="0.0762" d="M44.3449 103.936c-0.3682,0 -0.6669,-1.0879 -0.6669,-2.4294 0,-1.3414 0.2987,-2.4293 0.6669,-2.4293 0.3682,0 0.6669,1.0879 0.6669,2.4293 0,1.3415 -0.2987,2.4294 -0.6669,2.4294z"/>
    <path id="_66309520" fill="#FFCC00" stroke="#1F1A17" stroke-width="0.0762" d="M45.6786 103.936c-0.3682,0 -0.6668,-1.0879 -0.6668,-2.4294 0,-1.3414 0.2986,-2.4293 0.6668,-2.4293 0.3682,0 0.6669,1.0879 0.6669,2.4293 0,1.3415 -0.2987,2.4294 -0.6669,2.4294z"/>
   </g>
   <g>
    <path id="_27624184" fill="#FFCC00" stroke="#1F1A17" stroke-width="0.0762" d="M54.7485 102.423c-0.3682,0 -0.6669,-1.0879 -0.6669,-2.4293 0,-1.3415 0.2987,-2.4294 0.6669,-2.4294 0.3682,0 0.6669,1.0879 0.6669,2.4294 0,1.3414 -0.2987,2.4293 -0.6669,2.4293z"/>
    <path id="_76772328" fill="#FFCC00" stroke="#1F1A17" stroke-width="0.0762" d="M56.0822 102.423c-0.3682,0 -0.6668,-1.0879 -0.6668,-2.4293 0,-1.3415 0.2986,-2.4294 0.6668,-2.4294 0.3683,0 0.6669,1.0879 0.6669,2.4294 0,1.3414 -0.2986,2.4293 -0.6669,2.4293z"/>
   </g>
   <g>
    <path id="_76585480" fill="#FFCC00" stroke="#1F1A17" stroke-width="0.0762" d="M71.1417 104.143c-0.3682,0 -0.6669,-1.0879 -0.6669,-2.4293 0,-1.3414 0.2987,-2.4293 0.6669,-2.4293 0.3682,0 0.6669,1.0879 0.6669,2.4293 0,1.3414 -0.2987,2.4293 -0.6669,2.4293z"/>
    <path id="_65452992" fill="#FFCC00" stroke="#1F1A17" stroke-width="0.0762" d="M72.4754 104.143c-0.3682,0 -0.6668,-1.0879 -0.6668,-2.4293 0,-1.3414 0.2986,-2.4293 0.6668,-2.4293 0.3683,0 0.6669,1.0879 0.6669,2.4293 0,1.3414 -0.2986,2.4293 -0.6669,2.4293z"/>
   </g>
   <g>
    <path id="_66528920" fill="#FFCC00" stroke="#1F1A17" stroke-width="0.0762" d="M79.2935 111.961c-0.3452,-0.1279 -0.2483,-1.2517 0.2169,-2.5102 0.465,-1.2582 1.1223,-2.1749 1.4676,-2.0473 0.3456,0.1277 0.2483,1.2517 -0.2167,2.5099 -0.465,1.2582 -1.1223,2.1751 -1.4678,2.0476z"/>
    <path id="_77059744" fill="#FFCC00" stroke="#1F1A17" stroke-width="0.0762" d="M80.5447 112.423c-0.3453,-0.1275 -0.2484,-1.2515 0.2166,-2.5097 0.465,-1.2582 1.1224,-2.1751 1.4676,-2.0475 0.3456,0.1277 0.2486,1.2517 -0.2165,2.5098 -0.465,1.2583 -1.1225,2.1752 -1.4677,2.0474z"/>
   </g>
  </g>
  <g id="FlSex_Fem" onclick="parent.replacechar('FlSex_Fem')" onmousemove="parent.showtooltip('FlSex_Fem', 'Female flower')" onmouseout="parent.hidetooltip('FlSex_Fem')" cursor="pointer" >
   <path id="_65763160" fill="#33CC33" stroke="black" stroke-width="0.0762" d="M177.719 40.8768c0.4161,-2.4592 0.4881,-8.0344 3.8404,-10.0428 3.237,1.3557 4.3787,8.5363 4.2524,10.2415 -1.9824,1.3459 -6.1577,0.6645 -8.0928,-0.1987z"/>
   <path id="_66397728" fill="#33CC33" stroke="black" stroke-width="0.0762" d="M165.684 62.272c-2.3494,2.707 -5.6333,7.7137 -5.421,10.1512 4.3574,-0.9887 7.5675,-5.264 10.9363,-7.8257 0.1089,-1.3429 0.4336,-1.9053 1.2014,-3.1048 -3.7046,0.8552 -5.5606,0.7573 -6.7167,0.7793z"/>
   <path id="_66406632" fill="#33CC33" stroke="black" stroke-width="0.0762" d="M164.871 47.9723c-1.7805,-1.5634 -2.2719,-2.3921 -2.7876,-3.1295 -3.1353,-1.4033 -8.7817,-3.3668 -10.46,-2.6596 0.1303,1.9725 5.0916,4.5639 7.4429,6.3799 1.153,-0.3845 2.7003,-0.8667 5.8047,-0.5908z"/>
   <path id="_65722432" fill="#33CC33" stroke="black" stroke-width="0.0762" d="M190.945 59.7755c0.8231,1.1382 1.2406,2.9604 1.0484,4.5721 3.0466,2.0434 6.7437,4.1768 11.1586,4.9173 0.1092,-2.0412 -3.9391,-5.4657 -6.2972,-7.9113 -2.4827,-0.1987 -4.5835,-0.1216 -5.9098,-1.5781z"/>
   <path id="_27656320" fill="#33CC33" stroke="black" stroke-width="0.0762" d="M198.003 47.2313c0.9457,-1.45 1.5799,-1.8193 2.5256,-3.2693 4.6877,-2.2735 10.8489,-1.4585 10.8489,-1.4585 -3.35,4.1291 -5.2148,1.7074 -8.5873,5.8145 -1.6004,-0.7348 -3.0975,-0.9007 -4.7872,-1.0867z"/>
   <path id="_66456056" fill="#C864C8" stroke="black" stroke-width="0.0762" d="M177.197 52.1103c-2.6047,0.2577 -7.9859,-0.3482 -12.3266,-4.138 -15.1384,-1.3693 -11.4702,15.7354 0.8135,14.2997 4.4649,0 11.8674,-1.0063 13.8586,-5.8279 -4.1651,-1.331 -3.0134,-3.4208 -2.3455,-4.3338z"/>
   <path id="_3668360" fill="#C864C8" stroke="black" stroke-width="0.0762" d="M179.543 56.4441c-1.5436,3.5925 -5.5679,4.6047 -7.1419,5.0486 -2.5004,3.3947 -1.0986,6.9248 4.1031,9.4721 1.2724,-0.4631 0.3207,1.0185 6.0921,1.1073 3.9735,-0.1963 9.0299,-4.7367 9.3971,-7.7245 0.2333,-1.8984 -0.4115,-4.0377 -1.3717,-4.9364 -2.0863,-3.3037 -3.0962,-3.3816 -5.0314,-4.1383 -1.3159,1.2314 -4.0507,1.4585 -6.0473,1.1712z"/>
   <path id="_77014472" fill="#C864C8" stroke="black" stroke-width="0.0762" d="M186.344 49.9852c5.5485,-3.1419 9.0784,-2.5483 11.6596,-2.7539 13.4231,0.9157 12.3403,15.1361 -0.6799,14.1573 -6.1122,-0.3897 -5.8778,-0.7771 -8.1901,-4.0531 -0.693,-0.6931 -1.2247,-1.3829 -3.5429,-2.0626 1.1726,-1.0824 0.743,-2.126 0.0647,-2.8867 0.3856,-0.7607 0.4613,-1.5428 0.6886,-2.401z"/>
   <path id="_76947784" fill="#C864C8" stroke="black" stroke-width="0.0762" d="M185.025 40.403c-0.4989,-5.5875 7.4256,-6.6993 11.0878,-6.3192 8.4751,1.3321 6.4025,8.6355 1.8904,13.1475 -4.8727,0.1805 -7.3841,0.3436 -11.6596,2.7539 0.711,-2.9619 1.4911,-6.5809 1.0137,-7.3892 -0.282,-1.1276 -1.0585,-1.5838 -2.3323,-2.193z"/>
   <path id="_66383472" fill="#C864C8" stroke="black" stroke-width="0.0762" d="M178.416 40.5935c-1.9358,-4.6091 -6.1654,-6.5024 -10.0756,-6.2242 -5.4284,0.2319 -7.2001,1.175 -7.7478,5.1883 -0.6499,5.8815 7.5261,13.2019 16.6046,12.5527 -0.5813,-0.9204 -1.5227,-2.9403 -1.5915,-6.3163 -0.0186,-1.1469 0.0625,-2.2413 0.4147,-3.3335 0.2552,-0.7311 0.9359,-1.3441 2.3956,-1.867z"/>
   <path id="_76602880" fill="#FFFFCC" stroke="black" stroke-width="0.0762" d="M177.197 52.1103c-2.2054,2.7083 1.5241,4.6211 4.3421,4.6211 2.0618,0 6.4577,-1.7145 4.1154,-4.3452 -1.1627,1.8787 -7.222,2.5514 -8.4575,-0.2759z"/>
   <path id="_27602264" fill="#FFCC00" stroke="black" stroke-width="0.0762" d="M181.117 7.7556c-1.5082,-0.3748 -1.5141,-1.7845 0.5298,-1.7845 2.044,0 2.4261,1.2429 0.8231,1.7928 -0.4084,-0.3257 -0.9489,-0.311 -1.3529,-0.0083z"/>
   <path id="_76522096" fill="#99FF00" stroke="black" stroke-width="0.0762" d="M177.197 52.1103c1.2092,2.8299 7.1265,2.936 8.4575,0.2759 1.1382,-2.2748 2.6547,-7.1707 1.7023,-9.7902 -0.9941,-2.7341 -4.6236,-1.8814 -4.9755,-3.7299 -0.2882,-9.1374 -0.3406,-27.4638 0.0879,-31.1022 -0.2929,-0.3134 -0.9349,-0.3103 -1.3529,-0.0083 0.4525,3.9213 -0.1882,27.2766 -0.3931,31.102 -0.8444,1.5847 -3.9936,1.4682 -4.7342,3.6907 -0.6926,2.0781 -0.5443,6.7794 1.208,9.562z"/>
   <path id="_77057696" fill="#CCFF66" stroke="black" stroke-width="0.0762" d="M162.054 86.7349c-0.3118,0.3536 -1.1601,-0.1755 -0.8082,-0.6018 13.014,-8.1996 13.4125,-9.1114 15.258,-15.1683 0.671,-0.2759 0.8727,0.1368 1.4083,0.3711 -1.1323,6.9187 -6.8307,9.7481 -15.8581,15.399z"/>
  </g>
  <g id="FlSex_Bisex" onclick="parent.replacechar('FlSex_Bisex')" onmousemove="parent.showtooltip('FlSex_Bisex', 'Bisexual flower')" onmouseout="parent.hidetooltip('FlSex_Bisex')" cursor="pointer" >
   <path id="_45490224" fill="#33CC33" stroke="black" stroke-width="0.0762" d="M54.8062 41.3447c0.4119,-2.4342 0.4832,-7.9527 3.8013,-9.9406 3.204,1.3419 4.3342,8.4494 4.2091,10.1372 -1.9622,1.3322 -6.095,0.6578 -8.0104,-0.1966z"/>
   <path id="_66389776" fill="#33CC33" stroke="black" stroke-width="0.0762" d="M42.8942 62.522c-2.3255,2.6795 -5.576,7.6352 -5.3659,10.0478 4.3131,-0.9786 7.4905,-5.2104 10.825,-7.7459 0.1077,-1.3293 0.4292,-1.886 1.1892,-3.0733 -3.6669,0.8465 -5.504,0.7497 -6.6483,0.7714z"/>
   <path id="_66519944" fill="#33CC33" stroke="black" stroke-width="0.0762" d="M42.089 48.3679c-1.7624,-1.5475 -2.2488,-2.3677 -2.7592,-3.0977 -3.1034,-1.389 -8.6924,-3.3324 -10.3536,-2.6325 0.129,1.9525 5.0397,4.5175 7.3671,6.3149 1.1413,-0.3806 2.6728,-0.8578 5.7457,-0.5847z"/>
   <path id="_67227616" fill="#33CC33" stroke="black" stroke-width="0.0762" d="M67.8975 60.0509c0.8148,1.1266 1.228,2.9303 1.0378,4.5255 3.0156,2.0227 6.675,4.1344 11.0449,4.8673 0.1081,-2.0204 -3.899,-5.4101 -6.233,-7.8308 -2.4574,-0.1966 -4.5369,-0.1203 -5.8497,-1.562z"/>
   <path id="_66728760" fill="#33CC33" stroke="black" stroke-width="0.0762" d="M74.8839 47.6344c0.936,-1.4352 1.5638,-1.8007 2.4999,-3.236 4.6399,-2.2503 10.7384,-1.4436 10.7384,-1.4436 -3.3159,4.087 -5.1617,1.6899 -8.4999,5.7553 -1.584,-0.7274 -3.0659,-0.8916 -4.7384,-1.0757z"/>
   <path id="_65790568" fill="#C864C8" stroke="black" stroke-width="0.0762" d="M54.29 52.4638c-2.5781,0.2551 -7.9045,-0.3447 -12.201,-4.0959 -14.9843,-1.3554 -11.3534,15.5752 0.8052,14.1541 4.4194,0 11.7465,-0.996 13.7174,-5.7686 -4.1226,-1.3174 -2.9827,-3.3859 -2.3216,-4.2896z"/>
   <path id="_66205936" fill="#C864C8" stroke="black" stroke-width="0.0762" d="M56.6116 56.7534c-1.5278,3.556 -5.5111,4.5579 -7.0691,4.9972 -2.475,3.3602 -1.0875,6.8544 4.0613,9.3757 1.2595,-0.4584 0.3174,1.0081 6.0301,1.0961 3.933,-0.1944 8.9379,-4.6886 9.3014,-7.646 0.2309,-1.879 -0.4073,-3.9965 -1.3578,-4.8861 -2.065,-3.27 -3.0646,-3.3471 -4.9802,-4.0961 -1.3025,1.2188 -4.0094,1.4436 -5.9857,1.1592z"/>
   <path id="_27590216" fill="#C864C8" stroke="black" stroke-width="0.0762" d="M63.343 50.3603c5.492,-3.1099 8.986,-2.5223 11.5409,-2.7259 13.2864,0.9064 12.2146,14.982 -0.673,14.0132 -6.0499,-0.3857 -5.8179,-0.7691 -8.1067,-4.0119 -0.6859,-0.686 -1.2122,-1.3688 -3.5069,-2.0415 1.1607,-1.0714 0.7355,-2.1044 0.0641,-2.8573 0.3817,-0.753 0.4566,-1.5271 0.6816,-2.3766z"/>
   <path id="_66458928" fill="#C864C8" stroke="black" stroke-width="0.0762" d="M62.0379 40.8756c-0.4939,-5.5305 7.35,-6.631 10.9749,-6.2548 8.3888,1.3186 6.3372,8.5476 1.8711,13.0136 -4.823,0.1787 -7.309,0.3401 -11.5409,2.7259 0.7038,-2.9317 1.4759,-6.5139 1.0034,-7.3139 -0.2792,-1.1162 -1.0477,-1.5677 -2.3085,-2.1708z"/>
   <path id="_65755064" fill="#C864C8" stroke="black" stroke-width="0.0762" d="M55.4965 41.0642c-1.9161,-4.5622 -6.1027,-6.4362 -9.9731,-6.1608 -5.3731,0.2295 -7.1268,1.1631 -7.669,5.1355 -0.6432,5.8216 7.4496,13.0675 16.4356,12.4249 -0.5753,-0.911 -1.5072,-2.9104 -1.5753,-6.252 -0.0184,-1.1352 0.0619,-2.2185 0.4105,-3.2996 0.2526,-0.7236 0.9264,-1.3304 2.3713,-1.848z"/>
   <path id="_65781680" fill="#FFFFCC" stroke="black" stroke-width="0.0762" d="M54.29 52.4638c-2.183,2.6807 1.5086,4.574 4.2979,4.574 2.0408,0 6.3919,-1.697 4.0735,-4.3009 -1.1508,1.8596 -7.1484,2.5254 -8.3714,-0.2731z"/>
   <path id="_66833088" fill="#FFCC00" stroke="black" stroke-width="0.0762" d="M58.1694 8.5607c-1.4928,-0.371 -1.4987,-1.7664 0.5245,-1.7664 2.0232,0 2.4013,1.2302 0.8146,1.7746 -0.4042,-0.3224 -0.9392,-0.3079 -1.3391,-0.0082z"/>
   <g>
    <path id="_27683800" fill="none" stroke="black" stroke-width="0.3528" d="M56.786 51.0077c-0.2834,-8.848 -1.1351,-20.8782 -1.1849,-29.6864"/>
    <g>
     <path id="_77061792" fill="#FFCC00" stroke="black" stroke-width="0.0762" d="M54.9738 23.6066c-0.3464,0 -0.6273,-1.0234 -0.6273,-2.2853 0,-1.2619 0.2809,-2.2853 0.6273,-2.2853 0.3464,0 0.6273,1.0234 0.6273,2.2853 0,1.2619 -0.2809,2.2853 -0.6273,2.2853z"/>
     <path id="_66891696" fill="#FFCC00" stroke="black" stroke-width="0.0762" d="M56.2284 23.6066c-0.3463,0 -0.6273,-1.0234 -0.6273,-2.2853 0,-1.2619 0.281,-2.2853 0.6273,-2.2853 0.3464,0 0.6274,1.0234 0.6274,2.2853 0,1.2619 -0.281,2.2853 -0.6274,2.2853z"/>
    </g>
   </g>
   <g>
    <path id="_27607120" fill="none" stroke="black" stroke-width="0.3528" d="M62.2507 52.2173c7.9585,-9.0196 8.7771,-25.6111 8.7715,-29.2776"/>
    <g>
     <path id="_66474864" fill="#FFCC00" stroke="black" stroke-width="0.0762" d="M70.3949 25.225c-0.3464,0 -0.6273,-1.0234 -0.6273,-2.2853 0,-1.2619 0.2809,-2.2853 0.6273,-2.2853 0.3464,0 0.6273,1.0234 0.6273,2.2853 0,1.2619 -0.2809,2.2853 -0.6273,2.2853z"/>
     <path id="_66383992" fill="#FFCC00" stroke="black" stroke-width="0.0762" d="M71.6496 25.225c-0.3464,0 -0.6274,-1.0234 -0.6274,-2.2853 0,-1.2619 0.281,-2.2853 0.6274,-2.2853 0.3463,0 0.6273,1.0234 0.6273,2.2853 0,1.2619 -0.281,2.2853 -0.6273,2.2853z"/>
    </g>
   </g>
   <path id="_65806272" fill="#99FF00" stroke="black" stroke-width="0.0762" d="M54.29 52.4638c1.1969,2.801 7.054,2.9061 8.3714,0.2731 1.1266,-2.2517 2.6277,-7.0977 1.685,-9.6905 -0.984,-2.7064 -4.5766,-1.8623 -4.9249,-3.6919 -0.2852,-9.0444 -0.3371,-27.1842 0.087,-30.7856 -0.2899,-0.3102 -0.9254,-0.3071 -1.3391,-0.0082 0.448,3.8814 -0.1863,26.9988 -0.3891,30.7853 -0.8358,1.5686 -3.9529,1.4532 -4.686,3.6531 -0.6855,2.057 -0.5387,6.7104 1.1957,9.4647z"/>
   <path id="_66463944" fill="#CCFF66" stroke="black" stroke-width="0.0762" d="M39.3012 86.7358c-0.3087,0.35 -1.1483,-0.1737 -0.8,-0.5956 12.8814,-8.1162 13.2759,-9.0187 15.1026,-15.0139 0.6641,-0.2731 0.8638,0.1354 1.3939,0.3673 -1.1207,6.8483 -6.7611,9.6488 -15.6965,15.2422z"/>
   <g>
    <path id="_66386592" fill="none" stroke="black" stroke-width="0.3528" d="M56.6116 56.7534c-7.5961,-1.7804 -16.2262,-17.7666 -18.6265,-26.0903"/>
    <g>
     <path id="_66728640" fill="#FFCC00" stroke="black" stroke-width="0.0762" d="M38.1071 33.03c-0.3288,0.1086 -0.9172,-0.7747 -1.3133,-1.9729 -0.3961,-1.1981 -0.4507,-2.258 -0.1219,-2.3667 0.3288,-0.1087 0.9169,0.7747 1.3132,1.9727 0.3961,1.1981 0.4507,2.258 0.122,2.3669z"/>
     <path id="_66470768" fill="#FFCC00" stroke="black" stroke-width="0.0762" d="M39.2981 32.6359c-0.3289,0.1088 -0.9169,-0.7747 -1.313,-1.9728 -0.3963,-1.198 -0.4506,-2.2578 -0.122,-2.3668 0.3289,-0.1086 0.917,0.7748 1.3131,1.9729 0.3963,1.1981 0.451,2.258 0.1219,2.3667z"/>
    </g>
   </g>
   <g>
    <path id="_65718760" fill="none" stroke="black" stroke-width="0.3528" d="M53.6302 54.0481c-7.8072,-13.5123 -7.9463,-24.2834 -7.8158,-31.3033"/>
    <g>
     <path id="_66525792" fill="#FFCC00" stroke="black" stroke-width="0.0762" d="M45.1871 25.0301c-0.3464,0 -0.6273,-1.0234 -0.6273,-2.2853 0,-1.2619 0.2809,-2.2852 0.6273,-2.2852 0.3464,0 0.6273,1.0233 0.6273,2.2852 0,1.2619 -0.2809,2.2853 -0.6273,2.2853z"/>
     <path id="_66729120" fill="#FFCC00" stroke="black" stroke-width="0.0762" d="M46.4418 25.0301c-0.3464,0 -0.6274,-1.0234 -0.6274,-2.2853 0,-1.2619 0.281,-2.2852 0.6274,-2.2852 0.3463,0 0.6273,1.0233 0.6273,2.2852 0,1.2619 -0.281,2.2853 -0.6273,2.2853z"/>
    </g>
   </g>
   <g>
    <path id="_66412032" fill="none" stroke="black" stroke-width="0.3528" d="M62.173 55.9237c8.782,-4.0952 15.7832,-21.4845 17.2711,-25.271"/>
    <g>
     <path id="_66408504" fill="#FFCC00" stroke="black" stroke-width="0.0762" d="M78.0634 32.5789c-0.3248,-0.1203 -0.2336,-1.1775 0.204,-2.3614 0.4374,-1.1835 1.0558,-2.0459 1.3806,-1.9259 0.325,0.1202 0.2335,1.1776 -0.2039,2.3611 -0.4374,1.1836 -1.0558,2.0462 -1.3807,1.9262z"/>
     <path id="_65040088" fill="#FFCC00" stroke="black" stroke-width="0.0762" d="M79.2403 33.0136c-0.3248,-0.1199 -0.2336,-1.1773 0.2038,-2.3609 0.4374,-1.1835 1.0559,-2.0461 1.3806,-1.926 0.3251,0.1201 0.2338,1.1774 -0.2037,2.3609 -0.4374,1.1837 -1.0559,2.0462 -1.3807,1.926z"/>
    </g>
   </g>
  </g>
 </g>
<image xlink:href="tick.gif" id="imgtick" x="-100" y="-100" width="15" height="15"/>
<rect id="recttooltip" x="-100" y="-100" width="55" height="6" fill-opacity="0.4" pointer-events="none"/>
<text id="textboxid" x="-100" y="-100" pointer-events="none"> </text>
</a></svg>
