<?xml version="1.0" encoding="UTF-8"?>
<!DOCTYPE svg PUBLIC "-//W3C//DTD SVG 1.1//EN" "http://www.w3.org/Graphics/SVG/1.1/DTD/svg11.dtd">
<!-- Creator: CorelDRAW -->
<svg xmlns="http://www.w3.org/2000/svg" xml:space="preserve" shape-rendering="geometricPrecision" text-rendering="geometricPrecision" image-rendering="optimizeQuality" fill-rule="evenodd" clip-rule="evenodd"
viewBox="0 0 240 180"
 xmlns:xlink="http://www.w3.org/1999/xlink">
<a>
 <g id="Layer_x0020_1">
  <metadata id="CorelCorpID_0Corel-Layer"/>
  <rect fill="none" transform="matrix(3.24291E-013 -17.1512 10.3131 3.82591E-013 -1.55692E-005 180)" width="10.4949" height="23.2713"/>
  <g id="FruitSurf_Smooth" onclick="parent.replacechar('FruitSurf_Smooth')" onmousemove="parent.showtooltip('FruitSurf_Smooth', 'Fruit smooth')" onmouseout="parent.hidetooltip('FruitSurf_Smooth')" cursor="pointer" >
   <path id="_27627704" fill="#BC0909" stroke="#7F7F7F" stroke-width="0.0762" d="M200 70.5675c15.9028,-4.333 27.5874,10.7026 27.5874,26.6662 0,15.9636 -12.3927,28.9833 -27.5874,28.9833 -15.1948,0 -27.5875,-13.0197 -27.5875,-28.9833 0,-15.9636 13.5728,-31.5783 27.5875,-26.6662z"/>
   <path id="_66862072" fill="#958553" stroke="black" stroke-width="0.0762" stroke-linejoin="bevel" d="M198.958 54.3078c0.1131,3.482 0.4915,12.6794 0.1513,14.685 -0.3411,2.0439 -1.0597,1.4766 -2.1953,2.2333 -2.1195,1.4385 7.6072,1.3626 6.3204,0 -0.4917,-0.6437 -1.9681,-0.3783 -2.3084,-2.1575 -0.4166,-1.8166 -0.0382,-11.733 -0.1515,-15.1768l-1.8165 0.416z"/>
  </g>
  <g id="FruitSurf_Spiny" onclick="parent.replacechar('FruitSurf_Spiny')" onmousemove="parent.showtooltip('FruitSurf_Spiny', 'Fruit spiny or rough')" onmouseout="parent.hidetooltip('FruitSurf_Spiny')" cursor="pointer" >
   <g>
    <path id="_76685216" fill="#BC0909" stroke="#7F7F7F" stroke-width="0.0762" d="M122.118 70.5777c13.8941,-3.7855 24.1029,9.3509 24.1029,23.298 0,13.9468 -10.8272,25.3225 -24.1029,25.3225 -13.2756,0 -24.1027,-11.3757 -24.1027,-25.3225 0,-13.9471 11.8585,-27.5897 24.1027,-23.298z"/>
    <path id="_66372160" fill="#958553" stroke="black" stroke-width="0.0762" stroke-linejoin="bevel" d="M121.207 56.3723c0.0989,3.0417 0.4297,11.0773 0.1328,12.8295 -0.2983,1.7858 -0.9263,1.2901 -1.9182,1.9516 -1.8519,1.2565 6.6462,1.1907 5.5219,0 -0.4292,-0.5627 -1.7194,-0.3307 -2.0167,-1.8853 -0.364,-1.5872 -0.0333,-10.2512 -0.1323,-13.2596l-1.5875 0.3638z"/>
   </g>
   <path id="_67161992" fill="#996633" stroke="black" stroke-width="0.0762" d="M98.5972 110.175c8.2863,-10.6358 13.1622,-3.9683 16.5147,-10.0574 -0.7277,-1.4058 -1.6243,-2.3392 -3.4493,-2.8323 -3.1145,3.6627 -7.0749,3.9941 -13.0654,12.8897z"/>
   <path id="_76748264" fill="#996633" stroke="black" stroke-width="0.0762" d="M141.741 113.123c-8.2863,-10.6359 -13.1619,-3.9686 -16.5148,-10.0579 0.7279,-1.406 1.6245,-2.3388 3.4496,-2.8323 3.1145,3.6627 7.0748,3.9938 13.0652,12.8902z"/>
   <path id="_77194400" fill="#996633" stroke="black" stroke-width="0.0762" d="M151.545 77.97c-10.8414,8.0159 -13.7441,0.2826 -18.6106,5.2457 0.3224,1.5502 0.935,2.6902 2.5601,3.6559 3.9849,-2.6901 7.8882,-1.9442 16.0505,-8.9016z"/>
   <path id="_76857640" fill="#996633" stroke="black" stroke-width="0.0762" d="M91.8048 72.0049c8.2861,9.9454 13.1617,3.7106 16.5141,9.4043 -0.7277,1.3151 -1.624,2.1871 -3.4489,2.6488 -3.1149,-3.4251 -7.0751,-3.7346 -13.0652,-12.0531z"/>
   <path id="_76968576" fill="#996633" stroke="black" stroke-width="0.0762" d="M145.748 70.0243c-9.5969,9.4709 -13.5654,2.2264 -17.6802,7.8289 0.5393,1.4883 1.3066,2.5305 3.0522,3.256 3.5635,-3.2269 7.5335,-3.0415 14.628,-11.0849z"/>
   <path id="_65746240" fill="#996633" stroke="black" stroke-width="0.0762" d="M130.768 126.549c-0.4966,-13.4737 -8.2923,-6.474 -7.4487,-13.3732 1.4128,-0.7146 2.686,-0.947 4.455,-0.279 0.3829,4.7926 3.3408,2.9326 2.9937,13.6522z"/>
   <path id="_76454496" fill="#996633" stroke="black" stroke-width="0.0762" d="M149.843 90.8657c-12.921,3.853 -9.1832,-5.6697 -15.4472,-2.6573 -0.2237,1.5672 -0.0348,2.8472 1.1648,4.3088 4.6623,-1.1754 4.2412,2.1168 14.2824,-1.6515z"/>
   <path id="_76889648" fill="#996633" stroke="black" stroke-width="0.0762" d="M147.834 119.09c-9.7046,-9.3612 -13.5903,-2.0724 -17.7683,-7.6278 0.5225,-1.4943 1.2778,-2.5449 3.0148,-3.2907 3.6005,3.1869 7.5678,2.9559 14.7535,10.9185z"/>
   <path id="_76696144" fill="#996633" stroke="black" stroke-width="0.0762" d="M154.78 96.2572c-12.921,3.8528 -9.9162,-5.1548 -16.1801,-2.1418 -0.2234,1.5674 -0.0347,2.8477 1.165,4.3088 4.6621,-1.1756 4.9735,1.6013 15.0151,-2.167z"/>
   <path id="_76920208" fill="#996633" stroke="black" stroke-width="0.0762" d="M149.063 108.493c-13.1857,-2.8179 -6.31,-8.0349 -13.2514,-8.3962 -0.9478,1.268 -1.397,2.4819 -1.0447,4.3394 4.6543,1.2052 3.6776,2.5463 14.2961,4.0568z"/>
   <path id="_77206360" fill="#996633" stroke="black" stroke-width="0.0762" d="M99.258 67.514c8.2858,10.6362 11.9429,2.4988 15.2958,8.5877 -0.7277,1.406 -1.624,2.3392 -3.4492,2.8323 -3.1144,-3.6625 -5.8564,-2.5236 -11.8466,-11.42z"/>
   <path id="_66387648" fill="#996633" stroke="black" stroke-width="0.0762" d="M97.0103 84.7267c12.214,5.7108 13.528,-2.4443 19.2812,1.4569 -0.0097,1.5831 -0.3844,2.8217 -1.7862,4.0905 -4.438,-1.8481 -8.1165,-0.3436 -17.495,-5.5474z"/>
   <path id="_65501800" fill="#996633" stroke="black" stroke-width="0.0762" d="M100.271 114.448c9.7038,-9.3603 13.5901,-2.0716 17.7681,-7.6268 -0.5218,-1.4947 -1.2781,-2.545 -3.0151,-3.2912 -3.6001,3.1871 -7.5673,2.9563 -14.753,10.918z"/>
   <path id="_76966104" fill="#996633" stroke="black" stroke-width="0.0762" d="M85.2202 94.4159c12.921,3.853 9.1313,-5.2784 15.3954,-2.2655 0.2232,1.567 0.0345,2.8473 -1.1651,4.3084 -4.6626,-1.1753 -4.1889,1.7254 -14.2303,-2.0429z"/>
   <path id="_76523080" fill="#996633" stroke="black" stroke-width="0.0762" d="M88.0651 107.486c13.1852,-2.8183 9.3117,-10.1134 16.2532,-10.4749 0.9476,1.2681 1.3963,2.4817 1.0448,4.3395 -4.6548,1.2051 -6.6801,4.6245 -17.298,6.1354z"/>
   <path id="_66471112" fill="#996633" stroke="black" stroke-width="0.0762" d="M107.283 122.959c8.6106,-10.3757 11.4661,-1.1908 15.0046,-7.1736 -0.6834,-1.4279 -1.5508,-2.3879 -3.36,-2.9377 -3.2259,3.5648 -5.3825,1.4041 -11.6446,10.1113z"/>
   <path id="_66269888" fill="#996633" stroke="black" stroke-width="0.0762" d="M131.513 66.0234c-2.8113,7.6169 -5.1654,9.5094 -6.9734,10.6226 -1.6502,1.0158 -3.0312,1.5012 -2.7691,3.301 0.9309,0.4003 1.7524,0.5664 2.943,0.3655 0.37,-1.0979 1.1865,-1.9961 2.1516,-3.4497 1.1275,-1.6978 2.6204,-4.3974 4.6479,-10.8394z"/>
   <path id="_65767312" fill="#996633" stroke="black" stroke-width="0.0762" d="M108.547 78.6927c6.4809,4.8902 9.485,5.2107 11.6075,5.1706 1.9375,-0.0367 3.3618,-0.3745 4.1138,1.2819 -0.5675,0.8401 -1.1688,1.4229 -2.2794,1.8975 -0.904,-0.724 -2.0765,-1.0382 -3.6739,-1.7402 -1.8665,-0.8196 -4.5809,-2.2847 -9.768,-6.6098z"/>
   <path id="_66385576" fill="#996633" stroke="black" stroke-width="0.0762" d="M132.228 115.914c-4.8682,-6.4981 -7.6645,-7.6403 -9.7152,-8.1911 -1.8711,-0.5028 -3.3332,-0.5739 -3.5961,-2.3739 0.7785,-0.6495 1.518,-1.0427 2.7169,-1.1897 0.6677,0.9465 1.7065,1.574 3.0464,2.6916 1.5648,1.3059 3.7661,3.4673 7.548,9.0631z"/>
   <path id="_66383472" fill="#996633" stroke="black" stroke-width="0.0762" d="M108.306 116.74c6.4805,-4.89 9.4844,-5.211 11.607,-5.1706 1.9376,0.0368 3.3619,0.3743 4.1143,-1.2815 -0.5672,-0.8405 -1.1688,-1.4233 -2.28,-1.8976 -0.9039,0.7237 -2.0761,1.0379 -3.6738,1.7395 -1.8662,0.82 -4.5806,2.2847 -9.7675,6.6102z"/>
   <path id="_67227616" fill="#996633" stroke="black" stroke-width="0.0762" d="M111.351 71.2241c0.7083,0.7902 1.5516,1.3084 2.4619,1.6205 1.1349,0.39 2.1569,0.3932 3.1068,0.3373 0.9496,-0.0557 1.8399,-0.1706 2.6551,-0.0923 0.8936,0.086 1.7414,0.4085 2.6361,1.3618 -0.575,1.0831 -1.3281,1.8822 -2.9032,2.4654 -1.3508,-1.1666 -2.713,-1.64 -4.1862,-2.429 -0.6986,-0.3739 -1.4148,-0.8154 -2.1515,-1.4584 -0.5831,-0.5088 -1.1251,-1.103 -1.619,-1.8053z"/>
   <path id="_66474864" fill="#996633" stroke="black" stroke-width="0.0762" d="M131.817 91.1189c-0.708,0.7898 -1.5515,1.3081 -2.4619,1.6205 -1.1348,0.3894 -2.157,0.3931 -3.1065,0.3372 -0.9497,-0.0559 -1.84,-0.1709 -2.6551,-0.0921 -0.894,0.0858 -1.7415,0.4081 -2.636,1.3614 0.5746,1.0829 1.3274,1.8828 2.903,2.4654 1.3505,-1.1664 2.7124,-1.6399 4.1862,-2.4287 0.6983,-0.3743 1.4145,-0.8157 2.1514,-1.4586 0.5836,-0.5088 1.1249,-1.1027 1.6189,-1.8051z"/>
   <path id="_66862712" fill="#996633" stroke="black" stroke-width="0.0762" d="M106.589 95.9738c2.6171,-0.397 4.5637,-0.9287 5.9857,-1.5056 1.5703,-0.6372 2.3243,-1.2561 2.884,-1.8092 0.523,-0.518 0.8972,-0.9963 1.4416,-1.3482 0.5597,-0.3624 1.3233,-0.6037 2.7106,-0.643 0.8517,0.5619 1.3272,1.105 1.2647,1.952 -1.7417,0.2999 -2.9533,0.8636 -4.8156,1.4767 -1.0003,0.3295 -2.2166,0.6808 -3.9366,1.0325 -1.5309,0.3132 -3.3541,0.6045 -5.5344,0.8448z"/>
   <path id="_76849136" fill="#996633" stroke="black" stroke-width="0.0762" d="M115.129 96.9018c0.7086,0.7896 1.5518,1.3081 2.4621,1.6205 1.1352,0.3898 2.1569,0.3929 3.1067,0.3369 0.9497,-0.0552 1.84,-0.1709 2.6556,-0.0924 0.8936,0.0865 1.741,0.4089 2.6358,1.3621 -0.5747,1.083 -1.3277,1.8828 -2.9037,2.4655 -1.3502,-1.1667 -2.7122,-1.64 -4.1859,-2.4291 -0.6981,-0.3737 -1.4145,-0.8152 -2.1516,-1.4584 -0.5829,-0.5089 -1.1247,-1.1029 -1.619,-1.8051z"/>
   <path id="_66389448" fill="#996633" stroke="black" stroke-width="0.0762" d="M133.328 80.5117c-2.2231,1.4366 -3.7797,2.7211 -4.8396,3.831 -1.1698,1.2262 -1.6033,2.0999 -1.8861,2.8345 -0.2644,0.6866 -0.4092,1.2766 -0.7608,1.8211 -0.3619,0.561 -0.9585,1.0943 -2.2075,1.6993 -1.0071,-0.1624 -1.6637,-0.462 -1.9544,-1.2599 1.4645,-0.9889 2.3382,-2.0004 3.7835,-3.3241 0.7771,-0.7114 1.7421,-1.5322 3.1653,-2.5588 1.2674,-0.9136 2.8102,-1.9284 4.6996,-3.0431z"/>
   <path id="_45380920" fill="#996633" stroke="black" stroke-width="0.0762" d="M99.0019 87.7408c0.7081,0.7902 1.5514,1.3089 2.4618,1.6207 1.1347,0.3898 2.157,0.3932 3.1065,0.3375 0.9499,-0.0558 1.8403,-0.171 2.6553,-0.0924 0.8937,0.0858 1.742,0.4083 2.6359,1.3618 -0.5748,1.0826 -1.3274,1.8824 -2.9032,2.4654 -1.3504,-1.1666 -2.7125,-1.6405 -4.1862,-2.4288 -0.6982,-0.3746 -1.4146,-0.8161 -2.1513,-1.4588 -0.5833,-0.5087 -1.1253,-1.1029 -1.6188,-1.8054z"/>
   <path id="_65476640" fill="#996633" stroke="black" stroke-width="0.0762" d="M144.409 103.22c-6.4811,-4.8903 -9.4852,-5.2108 -11.6074,-5.1705 -1.9372,0.0368 -3.3616,0.3744 -4.1138,-1.2819 0.567,-0.84 1.1682,-1.4225 2.2792,-1.8974 0.9046,0.7237 2.0764,1.0381 3.6741,1.7405 1.8663,0.8192 4.5811,2.284 9.7679,6.6093z"/>
  </g>
  <g id="FruitSurf_Winged" onclick="parent.replacechar('FruitSurf_Winged')" onmousemove="parent.showtooltip('FruitSurf_Winged', 'Fruit winged')" onmouseout="parent.hidetooltip('FruitSurf_Winged')" cursor="pointer" >
   <path id="_65501008" fill="#BC0909" stroke="#7F7F7F" stroke-width="0.0762" d="M40.015 66.021c5.7806,-2.1414 10.0276,5.2874 10.0276,13.1743 0,7.8879 -4.5046,14.3215 -10.0276,14.3215 -5.5215,0 -10.0266,-6.4336 -10.0266,-14.3215 0,-7.8869 4.9333,-15.6016 10.0266,-13.1743z"/>
   <g>
    <path id="_77128496" fill="#996633" stroke="black" stroke-width="0.0762" d="M18.1615 24.8894c-11.6166,0.8931 17.744,32.9889 20.9939,40.4274 0.125,0.2873 0.3629,1.7177 0.4074,1.9275 0.0645,0.3119 0.5962,0.3068 0.511,0.0699 -0.0816,-0.2304 -0.3266,-1.6953 -0.4303,-2.0287 -2.4041,-7.6825 -10.585,-41.2346 -21.482,-40.3961z"/>
    <path id="_77225536" fill="#996633" stroke="black" stroke-width="0.0762" d="M61.8381 24.843c11.6176,0.8932 -17.7438,32.9894 -20.9931,40.4283 -0.1255,0.2862 -0.3629,1.7173 -0.4079,1.927 -0.0661,0.3123 -0.5956,0.3068 -0.5119,0.0701 0.0827,-0.2309 0.3276,-1.6956 0.4312,-2.0285 2.4033,-7.6828 10.5849,-41.2355 21.4817,-40.3969z"/>
   </g>
   <g id="Fruit_winged2">
    <path id="_66814760" fill="#996633" stroke="black" stroke-width="0.0762" d="M47.9542 155.79c-0.1077,0.4589 -0.0763,1.4038 -0.2843,1.6492 -0.3886,-0.0688 -0.7726,0.2969 -1.4779,0.0473 -0.2554,-0.3102 -0.1924,-1.6438 -0.4099,-1.6761 -6.5436,-0.689 -10.9866,-10.1583 -9.3778,-18.6892 0.87,-4.6139 1.2136,-4.9531 2.6311,-10.1243 3.0078,-10.973 -16.4776,-19.4061 -16.2865,-23.4804 0.0053,-0.1086 0.99,-2.6026 4.3122,-3.1702 0.9925,-2.1472 2.4919,-2.5113 4.3503,-3.1718 0.8529,-1.1573 2.2052,-0.6644 3.4244,-0.8132 1.0937,-0.1765 2.0817,-0.531 3.2799,0.5077 1.2468,-1.1385 2.7048,-0.4411 3.9395,-0.2033 1.23,-0.2263 3.146,-0.4571 3.6148,-1.1802 1.6662,0.7914 3.236,0.8847 3.2272,0.8279 -0.0286,-0.1817 1.4515,-1.4353 2.8875,-0.8336 1.2416,-1.4534 2.756,-1.2711 2.76,-1.1072 0.0064,0.3013 1.6156,4.8981 1.6427,5.3258 1.7328,5.6178 1.3135,15.9299 -0.9982,28.6386 1.5902,6.7761 2.3914,11.3365 1.3486,16.4442 -1.2197,5.9735 -4.7875,9.8836 -8.5836,11.0088z"/>
    <path id="_65789376" fill="#BC0909" stroke="#7F7F7F" stroke-width="0.0762" d="M46.5282 127.397c6.1623,0.162 10.0276,5.287 10.0276,13.1743 0,7.8874 -4.5046,14.3215 -10.0276,14.3215 -5.5215,0 -10.0266,-6.4341 -10.0266,-14.3215 0,-7.8873 4.3864,-13.3226 10.0266,-13.1743z"/>
    <path id="_76993360" fill="none" stroke="#1F1A17" stroke-width="0.0762" d="M41.9092 127.732c0,-9.2232 -2.9511,-14.9631 -9.568,-21.58"/>
    <path id="_77021296" fill="none" stroke="#1F1A17" stroke-width="0.0762" d="M44.6132 126.64c-0.9001,-0.5539 -1.6952,-9.4471 -1.872,-11.336 -0.364,-3.8891 -2.9638,-7.0711 -3.952,-11.024"/>
    <path id="_76515344" fill="none" stroke="#1F1A17" stroke-width="0.0762" d="M47.8372 126.328c0,-4.604 0.5257,-9.8093 0.104,-14.352 -0.1765,-1.9017 -1.0555,-8.334 0.104,-9.88"/>
    <path id="_66861184" fill="none" stroke="#1F1A17" stroke-width="0.0762" d="M51.5812 127.16c0.828,-4.9685 -1.0205,-8.7402 -0.208,-13.884 0.5899,-3.7352 1.6345,-11.901 2.496,-11.804"/>
    <path id="_65501848" fill="none" stroke="#1F1A17" stroke-width="0.0762" d="M54.2852 129.136c-1.0317,-0.5555 -0.9003,-3.3697 -0.884,-4.628 0.0253,-1.943 -0.1757,-5.7016 1.716,-7.852"/>
    <path id="_66287968" fill="none" stroke="#1F1A17" stroke-width="0.0762" d="M38.9972 118.944c1.22,2.9632 2.8504,7.9863 0.728,10.816"/>
    <path id="_66475888" fill="none" stroke="#1F1A17" stroke-width="0.0762" d="M46.1292 125.912c0,-4.604 -0.3065,-9.3934 -0.728,-13.936 -0.1764,-1.9015 -2.8755,-8.126 -1.716,-9.672"/>
    <path id="_77208976" fill="none" stroke="#1F1A17" stroke-width="0.0762" d="M49.0412 127.16c0.828,-4.9685 0.1008,-10.2517 0.936,-15.392 0.588,-3.6194 -0.2374,-6.7981 0.624,-10.244"/>
   </g>
  </g>
 </g>
<image xlink:href="tick.gif" id="imgtick" x="-100" y="-100" width="15" height="15"/>
<rect id="recttooltip" x="-100" y="-100" width="55" height="6" fill-opacity="0.4" pointer-events="none"/>
<text id="textboxid" x="-100" y="-100" pointer-events="none"> </text>
</a></svg>
