<?xml version="1.0" encoding="UTF-8"?>
<!DOCTYPE svg PUBLIC "-//W3C//DTD SVG 1.1//EN" "http://www.w3.org/Graphics/SVG/1.1/DTD/svg11.dtd">
<!-- Creator: CorelDRAW -->
<svg xmlns="http://www.w3.org/2000/svg" xml:space="preserve" shape-rendering="geometricPrecision" text-rendering="geometricPrecision" image-rendering="optimizeQuality" fill-rule="evenodd" clip-rule="evenodd"
viewBox="0 0 240 180"
 xmlns:xlink="http://www.w3.org/1999/xlink">
<a>
 <g id="Layer_x0020_1">
  <metadata id="CorelCorpID_0Corel-Layer"/>
  <rect fill="none" transform="matrix(3.24291E-013 -17.1512 10.3131 3.82591E-013 -1.55692E-005 180)" width="10.4949" height="23.2713"/>
  <g id="Habit_Palm" onclick="parent.replacechar('Habit_Palm')" onmousemove="parent.showtooltip('Habit_Palm', 'Palms / Tree ferns')" onmouseout="parent.hidetooltip('Habit_Palm')" cursor="pointer" >
   <g id="palmier">
    <path id="_66402552" fill="#CC6633" stroke="#838281" stroke-width="0.0762" stroke-linejoin="bevel" d="M174.848 169.909c2.6783,-30.0776 4.4882,-57.4671 4.8336,-83.6414 0,-0.3445 2.6617,-3.2034 2.7107,-3.5977l2.8099 3.2035c-0.9137,10.2842 -2.0711,59.3402 -0.0499,84.0356 -2.7422,0 -7.1297,0 -10.3043,0z"/>
    <g id="feuilles">
     <path id="_76703248" fill="#33CC33" stroke="#838281" stroke-width="0.0762" stroke-linejoin="bevel" d="M184.443 84.9385c4.1702,-7.8195 19.6197,-11.0316 15.0153,6.3624 12.2028,-7.2533 -4.2378,-27.0712 -15.9266,-6.6213l0.9113 0.2589z"/>
     <path id="_67197816" fill="#33CC33" stroke="#838281" stroke-width="0.0762" stroke-linejoin="bevel" d="M180.618 84.937c-11.8788,-13.9002 -18.4839,-19.3222 -24.2019,-4.2888 -4.5845,-20.2095 15.3791,-15.0833 25.0402,3.3518l-0.8383 0.937z"/>
     <path id="_66499136" fill="#33CC33" stroke="#838281" stroke-width="0.0762" stroke-linejoin="bevel" d="M181.603 83.8029c-1.1332,-10.5484 -9.1681,-22.1813 -19.2238,-18.0897 0.8384,-15.2313 19.5692,-0.9857 19.8154,17.3995l-0.5916 0.6902z"/>
     <path id="_77057576" fill="#33CC33" stroke="#838281" stroke-width="0.0762" stroke-linejoin="bevel" d="M182.392 82.6697c1.4786,-30.6106 19.125,-30.4134 18.3861,-18.3366 -6.0633,-8.2321 -17.5974,8.8724 -17.7946,18.9281l-0.5915 -0.5915z"/>
     <path id="_76482904" fill="#33CC33" stroke="#838281" stroke-width="0.0762" stroke-linejoin="bevel" d="M183.132 83.4481c11.2799,-27.7527 41.0992,-17.7574 24.2351,-0.9487 2.1773,-23.565 -18.5395,-8.4325 -23.7884,1.4517l-0.4467 -0.503z"/>
     <path id="_66429384" fill="#33CC33" stroke="#838281" stroke-width="0.0762" stroke-linejoin="bevel" d="M191.511 94.8939c2.7106,-10.4499 -2.1198,-13.3584 -6.9995,-9.9569l-0.6899 -0.5916c12.076,-7.1476 10.0555,7.7882 7.6894,10.5485z"/>
     <path id="_77061792" fill="#33CC33" stroke="#838281" stroke-width="0.0762" stroke-linejoin="bevel" d="M190.772 82.846c15.1083,-7.6394 26.8523,13.2838 7.9814,15.1648 9.6352,-6.8977 -0.7405,-18.4714 -6.5557,-14.0246l-1.4257 -1.1402z"/>
     <path id="_66483696" fill="#33CC33" stroke="#838281" stroke-width="0.0762" stroke-linejoin="bevel" d="M182.48 83.1903c-7.0529,-22.3336 -2.9352,-23.6883 1.7029,-26.59 3.8747,6.4715 -5.1873,13.8276 -0.8655,27.0551l-0.8374 -0.4651z"/>
     <path id="_77080568" fill="#33CC33" stroke="#838281" stroke-width="0.0762" stroke-linejoin="bevel" d="M171.252 82.5711c-22.7229,-3.6476 -12.3717,12.7661 -4.8794,16.4137 -22.0339,0.0985 -14.443,-27.3075 6.1121,-17.0549l-1.2327 0.6412z"/>
     <path id="_66372160" fill="#33CC33" stroke="#838281" stroke-width="0.0762" stroke-linejoin="bevel" d="M173.076 81.2398c3.4504,-0.3448 6.1121,3.5 7.1467,4.2887l-0.4927 0.6403c-5.3236,-5.0766 -13.4563,-4.7319 -9.6117,13.8019 -3.8944,-8.4783 -1.9716,-16.5126 0.9362,-18.0898l2.0215 -0.6411z"/>
    </g>
   </g>
   <polygon id="sol" fill="none" stroke="black" stroke-width="0.0762" stroke-linejoin="bevel" points="145.779,169.909 214.221,169.909 "/>
  </g>
  <g id="Habit_Tree" onclick="parent.replacechar('Habit_Tree')" onmousemove="parent.showtooltip('Habit_Tree', 'Tree or treelet')" onmouseout="parent.hidetooltip('Habit_Tree')" cursor="pointer" >
   <g id="arbre">
    <path id="courone" fill="#33CC33" stroke="#7F7F7F" stroke-width="0.0762" d="M46.4633 75.4755c-9.918,0 -3.7922,-8.7512 -7.2926,-12.2517 -2.6254,-2.6253 -2.3337,-6.7092 -2.9171,-7.001 -2.6254,-1.1668 -6.6862,-0.6307 -9.6264,-2.0419 -4.353,-2.0894 -6.1258,-8.3137 -9.6263,-11.8141 -6.1259,-6.1259 4.9271,-8.0097 4.3756,-9.4805 -0.3238,-0.8637 -8.7512,-10.7932 -4.6673,-12.8352 2.0419,-0.8751 13.1268,-4.6673 14.0019,-4.6673 7.8761,0 3.5005,6.7093 9.043,1.1669 1.7502,-1.7503 10.7931,-3.5005 13.7102,-0.5835 3.7922,3.7922 2.042,-1.7502 9.0429,-1.7502 2.6254,0 12.2517,0.5834 12.2517,3.2088 0,8.4595 27.4205,-5.2507 27.4205,8.4595 0,4.3756 -5.5424,7.5844 -4.959,7.5844 3.2088,0 5.5424,14.2936 6.7093,16.6273 6.1258,12.2517 -19.8361,0.5834 -19.8361,1.1668 0,7.5844 9.6263,9.3347 9.6263,19.5444 0,5.2507 -13.7102,2.3337 -15.1688,0.8751 -3.5005,-3.5005 -1.4585,-8.7512 -4.959,-5.2507 -7.8761,7.8761 -10.0639,0 -15.3146,0 -0.8477,-2.0419 -3.1785,-6.6414 -5.7766,0.5754 -6.1528,1.9528 -3.0841,8.2214 -6.0376,8.4675z">
     <metadata id="CorelCorpID_1">
      <odm name="Nom" value="courone" type="0"/>
     </metadata>
    </path>
    <path id="tronc" fill="#CC6633" stroke="#7F7F7F" stroke-width="0.0762" d="M41.389 169.83c8.8105,-30.1241 3.6061,-81.8459 16.0173,-118.283 0.8254,-2.8815 1.7049,-5.266 0.3987,-5.725 -9.4617,2.0216 -14.3213,4.1357 -23.4888,1.9665 -5.4562,-1.2912 -11.9041,-5.8147 -13.5738,-8.4763 2.3718,1.5442 9.1376,8.2507 18.983,8.217 5.9251,0.4304 11.0969,-3.5178 18.3749,-3.5494 1.8673,-4.627 -31.9898,-17.3913 -35.4937,-18.7389 7.5252,1.6794 27.8186,10.1869 33.2713,13.7151 0.6214,0.4209 -6.3812,-12.4444 -5.9931,-20.8037 1.0834,2.4061 1.7741,15.152 9.7127,22.9744 0.1675,-8.4537 7.051,-19.7141 9.7903,-22.1345 -3.7308,4.2375 -8.4195,14.1955 -7.6879,21.0705 0.193,1.4215 6.9886,-5.0318 9.7163,-6.1831 4.7044,-1.9856 13.9635,-5.4022 20.1895,-5.5939 -8.0066,1.9726 -21.6183,6.163 -27.6306,12.9593 2.8553,-0.7143 20.8546,1.7862 34.1985,10.3636 -5.6212,-2.8089 -39.216,-14.4712 -32.2749,-6.918 3.8489,3.8488 17.6364,19.2364 20.1394,26.0744 -8.1101,-10.8765 -20.6678,-25.3207 -21.4535,-24.4958 -12.2223,9.85 0.4152,105.908 0.2857,123.561 -4.2154,0.0467 -20.7312,-0.0491 -23.4813,0z">
     <metadata id="CorelCorpID_2">
      <odm name="Nom" value="tronc" type="0"/>
     </metadata>
    </path>
   </g>
   <polygon id="sol_0" fill="none" stroke="black" stroke-width="0.0762" stroke-linejoin="bevel" points="18.9264,169.909 87.3689,169.909 "/>
  </g>
 </g>
<image xlink:href="tick.gif" id="imgtick" x="-100" y="-100" width="15" height="15"/>
<rect id="recttooltip" x="-100" y="-100" width="55" height="6" fill-opacity="0.4" pointer-events="none"/>
<text id="textboxid" x="-100" y="-100" pointer-events="none"> </text>
</a></svg>
