<?xml version="1.0" encoding="UTF-8"?>
<!DOCTYPE svg PUBLIC "-//W3C//DTD SVG 1.1//EN" "http://www.w3.org/Graphics/SVG/1.1/DTD/svg11.dtd">
<!-- Creator: CorelDRAW -->
<svg xmlns="http://www.w3.org/2000/svg" xml:space="preserve" shape-rendering="geometricPrecision" text-rendering="geometricPrecision" image-rendering="optimizeQuality" fill-rule="evenodd" clip-rule="evenodd"
viewBox="0 0 240 180"
 xmlns:xlink="http://www.w3.org/1999/xlink">
<a>
 <g id="Layer_x0020_1">
  <metadata id="CorelCorpID_0Corel-Layer"/>
  <rect fill="none" transform="matrix(3.24291E-013 -17.1512 10.3131 3.82591E-013 -1.55692E-005 180)" width="10.4949" height="23.2713"/>
  <g id="Lamina_Loba" onclick="parent.replacechar('Lamina_Loba')" onmousemove="parent.showtooltip('Lamina_Loba', 'Lamina lobed')" onmouseout="parent.hidetooltip('Lamina_Loba')" cursor="pointer" >
   <rect id="nervure" fill="#1F1A17" stroke="#7F7F7F" stroke-width="0.0762" x="199.846" y="150.288" width="0.5254" height="20.9861"/>
   <path id="limbe" fill="#78B43C" stroke="#7F7F7F" stroke-width="0.0762" d="M200.184 106.374c4.155,3.3879 7.4176,15.6603 10.1648,16.9617 1.2436,0.5892 3.2749,-1.1885 6.9778,-0.2194 3.6013,6.5544 1.3878,15.7408 0.3432,19.7267 0.3652,0.6783 0.4992,1.4097 0.6145,2.1932 -0.6213,4.5672 -7.7614,9.0796 -18.2781,5.7376 -9.7155,3.4187 -17.7025,-1.2946 -18.0283,-5.7281 0.1542,-0.8356 0.4152,-1.6492 0.7844,-2.3695 -1.2935,-3.6571 -3.9779,-13.455 0.1109,-19.7835 3.0986,-0.7221 5.8156,1.3464 7.1263,0.3929 3.2881,-2.3918 5.88,-14.1936 10.1845,-16.9116z"/>
   <g id="nervures">
    <path id="_66394424" fill="none" stroke="#999999" stroke-width="0.0762" d="M200.13 150.767c-2.8175,-5.9119 -15.5787,-24.2542 -17.0979,-27.4165"/>
    <path id="_66507776" fill="none" stroke="#999999" stroke-width="0.0762" d="M200.213 150.736c1.5842,-1.2892 14.4729,-2.0838 17.5402,-7.1714"/>
    <path id="_27615760" fill="none" stroke="#999999" stroke-width="0.0762" d="M200.034 150.735c-5.0708,-2.7607 -15.3045,-3.2433 -17.3788,-7.3749"/>
    <path id="_76630000" fill="none" stroke="#999999" stroke-width="0.0762" d="M200.057 150.771c2.7427,-6.4748 14.7491,-21.8408 16.9102,-27.1111"/>
    <path id="nervure_0" fill="#AAA9A9" stroke="#7F7F7F" stroke-width="0.0762" d="M199.921 106.587c0.1304,-0.0823 0.2138,-0.1225 0.2584,-0.1436 0.0318,0.0239 0.0515,0.0411 0.0765,0.0646l0 44.3092c-0.1009,0.0667 -0.2077,0.04 -0.3349,-0.0115 0,-38.3521 0,-29.3719 0,-44.2187z"/>
   </g>
  </g>
  <g id="Lamina_Orbi" onclick="parent.replacechar('Lamina_Orbi')" onmousemove="parent.showtooltip('Lamina_Orbi', 'Lamina circular')" onmouseout="parent.hidetooltip('Lamina_Orbi')" cursor="pointer" >
   <rect id="nervure_1" fill="black" stroke="#7F7F7F" stroke-width="0.0762" x="119.657" y="154.224" width="0.5254" height="17.0501"/>
   <path id="limbe_2" fill="#78B43C" stroke="#7F7F7F" stroke-width="0.0762" d="M120 106.229c10.6703,0 20.8936,9.4409 20.7096,24.2938 -0.1841,14.853 -10.8984,21.4724 -20.7096,24.2939 -10.4244,-3.4349 -20.7095,-9.809 -20.7095,-24.2939 0,-14.4848 10.0393,-24.2938 20.7095,-24.2938z"/>
   <g id="nervure_3">
    <path id="_67081752" fill="none" stroke="#999999" stroke-width="0.0762" d="M119.814 147.988c1.2369,-2.6605 20.6276,-10.1409 20.3813,-20.561"/>
    <path id="_66871200" fill="none" stroke="#999999" stroke-width="0.0762" d="M119.814 135.698c1.2258,-2.4939 20.9111,-8.3803 16.9929,-19.0994"/>
    <path id="_65749328" fill="none" stroke="#999999" stroke-width="0.0762" d="M119.998 124.562c0.8998,-3.4688 13.3469,-7.1924 12.0607,-13.5736"/>
    <path id="_77060744" fill="none" stroke="#999999" stroke-width="0.0762" d="M119.814 116.832c1.2361,-3.2104 6.5698,-3.5759 6.2626,-8.9595"/>
    <path id="_77069056" fill="none" stroke="#999999" stroke-width="0.0762" d="M119.814 153.843c-0.3186,-1.5186 -17.3407,-5.7557 -19.371,-16.7829"/>
    <path id="_66745424" fill="none" stroke="#999999" stroke-width="0.0762" d="M119.692 145.748c-1.615,-2.5155 -22.0099,-6.031 -19.7258,-19.0061"/>
    <path id="_66286496" fill="none" stroke="#999999" stroke-width="0.0762" d="M119.692 133.466c-0.8928,-1.8978 -20.0193,-7.5742 -15.738,-17.5545"/>
    <path id="_65786752" fill="none" stroke="#999999" stroke-width="0.0762" d="M119.814 122.185c-0.8795,-3.1741 -11.0092,-5.8616 -9.9486,-12.276"/>
    <path id="_65781296" fill="none" stroke="#999999" stroke-width="0.0762" d="M119.814 113.586c-0.6845,-2.05 -4.7242,-2.0947 -4.7326,-6.0211"/>
    <path id="_77042968" fill="none" stroke="#999999" stroke-width="0.0762" d="M119.984 154.774c0.4874,-2.1195 13.7976,-4.3987 18.8575,-15.6007"/>
   </g>
   <path id="nervure_4" fill="#B2B2B2" stroke="#7F7F7F" stroke-width="0.0762" d="M119.748 106.296c0.1062,-0.0021 0.2323,-0.0063 0.3467,-0.0034l0 48.4308c-0.0644,0.0612 -0.2523,0.0202 -0.3467,-0.0539 0,-41.9876 0,-32.1195 0,-48.3735z"/>
  </g>
  <g id="Lamina_Obov" onclick="parent.replacechar('Lamina_Obov')" onmousemove="parent.showtooltip('Lamina_Obov', 'Lamina base tapering and apex broader')" onmouseout="parent.hidetooltip('Lamina_Obov')" cursor="pointer" >
   <rect id="nervure_5" fill="#1F1A17" stroke="#7F7F7F" stroke-width="0.0762" x="39.7035" y="156.503" width="0.5254" height="14.7709"/>
   <path id="limbe_6" fill="#78B43C" stroke="#7F7F7F" stroke-width="0.0762" d="M39.9742 105.172c20.0947,-0.0241 16.3933,37.5934 0,51.9457 -16.2461,-13.7633 -20.0948,-51.9215 0,-51.9457z"/>
   <g id="nervures_7">
    <path id="_77038488" fill="none" stroke="#999999" stroke-width="0.0762" d="M40.0137 146.984c6.0021,-3.2099 9.5678,-5.2626 12.3025,-14.4856"/>
    <path id="_76637872" fill="none" stroke="#999999" stroke-width="0.0762" d="M39.9734 134.701c6.5198,-3.7939 12.9895,-7.9418 12.6344,-14.8708"/>
    <path id="_67211400" fill="none" stroke="#999999" stroke-width="0.0762" d="M39.8468 123.746c4.7025,-4.3275 11.6295,-7.5605 9.3619,-13.3282"/>
    <path id="_77226024" fill="none" stroke="#999999" stroke-width="0.0762" d="M39.9701 115.942c3.0893,-0.9109 3.555,-6.3314 1.9074,-10.3576"/>
    <path id="_66389048" fill="none" stroke="#999999" stroke-width="0.0762" d="M39.8774 152.721c-4.5747,-1.4229 -7.715,-5.3728 -9.684,-11.1289"/>
    <path id="_67149720" fill="none" stroke="#999999" stroke-width="0.0762" d="M39.8928 141.42c-7.3803,-2.2701 -12.3035,-4.3597 -12.3502,-12.9187"/>
    <path id="_77029320" fill="none" stroke="#999999" stroke-width="0.0762" d="M39.8792 131.142c-6.0449,-3.3698 -13.1209,-7.906 -11.5382,-14.8196"/>
    <path id="_76531520" fill="none" stroke="#999999" stroke-width="0.0762" d="M39.8359 121.412c-4.5595,-3.6648 -10.6914,-6.1502 -7.0549,-13.4232"/>
    <path id="_77043576" fill="none" stroke="#999999" stroke-width="0.0762" d="M39.6629 112.77c-2.6471,-0.4553 -2.6386,-4.4254 -1.2978,-7.3705"/>
    <path id="_77043184" fill="none" stroke="#999999" stroke-width="0.0762" d="M39.9135 153.964c3.8285,-1.6045 5.4799,-3.4167 7.5084,-7.8158"/>
   </g>
   <path id="nervure_8" fill="#AAA9A9" stroke="#7F7F7F" stroke-width="0.0762" d="M39.7819 105.237c0.1197,-0.0029 0.231,-0.0018 0.3466,-0.0018l0 51.6611c-0.0467,0.0472 -0.1008,0.0909 -0.1537,0.1372 -0.0469,-0.0395 -0.1335,-0.1131 -0.1929,-0.1641 0,-43.4272 0,-34.821 0,-51.6324z"/>
  </g>
  <g id="Lamina_Elli" onclick="parent.replacechar('Lamina_Elli')" onmousemove="parent.showtooltip('Lamina_Elli', 'Lamina broadest at middle')" onmouseout="parent.hidetooltip('Lamina_Elli')" cursor="pointer" >
   <rect id="nervure_9" fill="#1F1A17" stroke="#7F7F7F" stroke-width="0.0762" x="200.021" y="68.1991" width="0.5254" height="11.5985"/>
   <path id="forme_x0020_limbe" fill="#78B43C" stroke="#7F7F7F" stroke-width="0.0762" d="M200.198 13.4249c11.9756,11.4367 18.5452,37.5194 0.0728,55.1605 -19.7848,-18.2888 -11.8548,-43.8665 -0.0728,-55.1605z"/>
   <g id="nervures_10">
    <path id="_77017056" fill="none" stroke="#999999" stroke-width="0.0762" d="M200.242 66.6389c2.4204,-0.065 7.5209,-7.3943 9.0075,-12.1696"/>
    <path id="_67161992" fill="none" stroke="#999999" stroke-width="0.0762" d="M200.242 56.53c6.1335,0.4982 10.1836,-9.4819 11.0705,-14.8325"/>
    <path id="_67158056" fill="none" stroke="#999999" stroke-width="0.0762" d="M200.242 44.2603c6.6123,0.1609 8.7148,-7.8358 8.8442,-13.6394"/>
    <path id="_66287096" fill="none" stroke="#999999" stroke-width="0.0762" d="M200.242 33.1428c5.1231,-0.2206 6.042,-5.6511 5.7974,-10.7362"/>
    <path id="_77228792" fill="none" stroke="#999999" stroke-width="0.0762" d="M200.242 25.4261c3.3588,-0.6325 3.276,-5.6652 1.884,-9.8144"/>
    <path id="_66881936" fill="none" stroke="#999999" stroke-width="0.0762" d="M200.242 62.0088c-5.6491,0.0201 -9.8429,-9.0852 -10.9214,-13.8605"/>
    <path id="_66433888" fill="none" stroke="#999999" stroke-width="0.0762" d="M200.242 50.7424c-6.1737,0.4897 -10.2162,-8.1651 -10.6303,-14.0457"/>
    <path id="_66493296" fill="none" stroke="#999999" stroke-width="0.0762" d="M200.242 40.4406c-6.1165,0.2255 -7.6617,-8.7857 -7.4686,-14.5457"/>
    <path id="_66429696" fill="none" stroke="#999999" stroke-width="0.0762" d="M200.242 30.7699c-4.8579,-0.2321 -5.1163,-5.7908 -4.5453,-11.0938"/>
    <path id="_77045152" fill="none" stroke="#999999" stroke-width="0.0762" d="M200.242 22.1851c-2.6427,-0.4546 -2.6343,-4.4181 -1.2957,-7.3583"/>
   </g>
   <path id="nervure_11" fill="#B2B2B2" stroke="#7F7F7F" stroke-width="0.0762" d="M200.08 13.6169c0.0679,-0.0669 0.0927,-0.0897 0.1245,-0.1178 0.0437,0.0402 0.1071,0.0996 0.2215,0.2053l0 54.7067c-0.0529,0.034 -0.1038,0.0682 -0.1588,0.1042 -0.055,-0.0344 -0.134,-0.0791 -0.1872,-0.1094 0,-43.3554 0,-38.0054 0,-54.789z"/>
  </g>
  <g id="Lamina_Lanc" onclick="parent.replacechar('Lamina_Lanc')" onmousemove="parent.showtooltip('Lamina_Lanc', 'Lamina base broader and apex tapering')" onmouseout="parent.hidetooltip('Lamina_Lanc')" cursor="pointer" >
   <rect id="nervure_12" fill="#1F1A17" stroke="#999999" stroke-width="0.0762" x="119.772" y="68.5256" width="0.5254" height="11.2933"/>
   <path id="forme_x0020_limbe_13" fill="#78B43C" stroke="#7F7F7F" stroke-width="0.0762" d="M119.971 13.4037c7.0895,6.9796 21.3833,55.171 0.073,55.2519 -21.3103,0.0809 -7.2856,-47.2321 -0.073,-55.2519z"/>
   <path id="_66205936" fill="none" stroke="#999999" stroke-width="0.0762" d="M120.016 66.7059c4.2724,0.1059 8.8184,-2.9395 10.4516,-11.6134"/>
   <path id="_77814312" fill="none" stroke="#999999" stroke-width="0.0762" d="M120.016 56.5802c7.1524,-0.7978 10.4888,-6.9037 9.9361,-13.5601"/>
   <path id="_66463944" fill="none" stroke="#999999" stroke-width="0.0762" d="M120.016 44.2903c6.6232,0.1611 8.7294,-6.1196 7.8502,-12.6533"/>
   <path id="_77218032" fill="none" stroke="#999999" stroke-width="0.0762" d="M120.016 33.1543c5.1315,-0.221 6.3401,-4.5084 5.2311,-9.266"/>
   <path id="_66520632" fill="none" stroke="#999999" stroke-width="0.0762" d="M120.016 25.4248c3.3644,-0.6335 3.0997,-5.5551 1.7054,-9.7111"/>
   <path id="_76832008" fill="none" stroke="#999999" stroke-width="0.0762" d="M120.016 62.0682c-8.3756,-0.7209 -11.2177,-5.6423 -10.6925,-13.8836"/>
   <path id="_67228208" fill="none" stroke="#999999" stroke-width="0.0762" d="M120.016 50.7831c-9.1811,-0.1699 -9.9792,-5.791 -9.3272,-12.9006"/>
   <path id="_77128496" fill="none" stroke="#999999" stroke-width="0.0762" d="M120.016 40.4641c-6.4314,0.0736 -9.0459,-5.1934 -6.6682,-12.4869"/>
   <path id="_77206360" fill="none" stroke="#999999" stroke-width="0.0762" d="M120.016 30.7775c-4.8659,-0.2325 -5.5043,-4.7654 -4.2078,-9.5942"/>
   <path id="_27577904" fill="none" stroke="#999999" stroke-width="0.0762" d="M120.016 22.1784c-2.6471,-0.4553 -2.7763,-3.815 -1.4355,-6.76"/>
   <path id="nervure_14" fill="#B2B2B2" stroke="#7F7F7F" stroke-width="0.0762" d="M119.853 13.596c0.068,-0.067 0.0929,-0.0899 0.1247,-0.1179 0.0438,0.0401 0.1073,0.0997 0.2219,0.2055l0 54.7974c-0.053,0.0341 -0.104,0.0684 -0.1591,0.1044 -0.055,-0.0344 -0.1342,-0.0792 -0.1875,-0.1096 0,-43.4272 0,-38.0684 0,-54.8798z"/>
  </g>
  <g id="Lamina_Line" onclick="parent.replacechar('Lamina_Line')" onmousemove="parent.showtooltip('Lamina_Line', 'Lamina long and narrow with parallel sides')" onmouseout="parent.hidetooltip('Lamina_Line')" cursor="pointer" >
   <rect id="nervure_15" fill="black" stroke="#7F7F7F" stroke-width="0.0762" x="39.937" y="68.6184" width="0.5254" height="11.6925"/>
   <path id="limbe_16" fill="#78B43C" stroke="#7F7F7F" stroke-width="0.0762" d="M40 12.6665c5.8188,-0.1296 8.119,12.5297 8.119,27.8923 0,15.3625 -1.4826,28.2993 -8.119,27.8922 -6.3658,0.4071 -8.119,-12.5297 -8.119,-27.8922 0,-15.3626 2.0237,-27.7566 8.119,-27.8923z"/>
   <path id="nervure_17" fill="#B2B2B2" stroke="#7F7F7F" stroke-width="0.0762" d="M40.0431 13.0192c0.117,-0.0411 0.2311,-0.0459 0.3467,-0.0317l0 55.6498c-0.1218,0.0189 -0.238,0.0247 -0.3467,-0.0009 0,-48.0401 0,-37.0201 0,-55.6172z"/>
   <path id="_66454584" fill="none" stroke="#999999" stroke-width="0.0762" d="M40.0617 64.1675c-2.6471,-0.4553 -7.2449,-6.6341 -7.4902,-9.4571"/>
   <path id="_66304960" fill="none" stroke="#999999" stroke-width="0.0762" d="M40.0617 36.2275c-2.6112,-0.4491 -7.1465,-6.544 -7.3885,-9.3287"/>
   <path id="_77059216" fill="none" stroke="#999999" stroke-width="0.0762" d="M40.0617 51.4675c-2.8462,-0.4895 -7.7897,-7.133 -8.0535,-10.1683"/>
   <path id="_65779368" fill="none" stroke="#999999" stroke-width="0.0762" d="M40.0617 23.5275c-1.7942,-0.3086 -4.9104,-4.4964 -5.0767,-6.4098"/>
   <path id="_77217040" fill="none" stroke="#999999" stroke-width="0.0762" d="M40.4493 58.9947c2.5706,-0.4421 7.0356,-6.4424 7.2738,-9.1839"/>
   <path id="_66383992" fill="none" stroke="#999999" stroke-width="0.0762" d="M40.401 46.2329c2.6304,-0.4524 7.1991,-6.5921 7.4428,-9.3973"/>
   <path id="_66287176" fill="none" stroke="#999999" stroke-width="0.0762" d="M40.3891 31.16c2.1948,-0.3774 6.0069,-5.5004 6.2103,-7.8411"/>
   <path id="_77226304" fill="none" stroke="#999999" stroke-width="0.0762" d="M40.3452 18.4486c1.0837,-0.1864 2.9661,-2.716 3.0665,-3.8718"/>
  </g>
 </g>
<image xlink:href="tick.gif" id="imgtick" x="-100" y="-100" width="15" height="15"/>
<rect id="recttooltip" x="-100" y="-100" width="55" height="6" fill-opacity="0.4" pointer-events="none"/>
<text id="textboxid" x="-100" y="-100" pointer-events="none"> </text>
</a></svg>
