<?xml version="1.0" encoding="UTF-8"?>
<!DOCTYPE svg PUBLIC "-//W3C//DTD SVG 1.1//EN" "http://www.w3.org/Graphics/SVG/1.1/DTD/svg11.dtd">
<!-- Creator: CorelDRAW -->
<svg xmlns="http://www.w3.org/2000/svg" xml:space="preserve" shape-rendering="geometricPrecision" text-rendering="geometricPrecision" image-rendering="optimizeQuality" fill-rule="evenodd" clip-rule="evenodd"
viewBox="0 0 240 180"
 xmlns:xlink="http://www.w3.org/1999/xlink">
<a>
 <g id="Layer_x0020_1">
  <metadata id="CorelCorpID_0Corel-Layer"/>
  <rect fill="none" width="240" height="180"/>
  <g id="Latex_Resine" onclick="parent.replacechar('Latex_Resine')" onmousemove="parent.showtooltip('Latex_Resine', 'Latex resinous')" onmouseout="parent.hidetooltip('Latex_Resine')" cursor="pointer" >
   <rect id="fond" fill="#00A5E1" stroke="black" stroke-width="0.0762" x="180.565" y="115.804" width="38.8716" height="38.3917"/>
   <polygon id="rameau" fill="#7DC031" stroke="black" stroke-width="0.0762" points="203.934,137.17 207.177,137.872 210.309,118.362 205.471,117.586 202.491,136.064 185.812,146.438 188.401,150.599 205.178,140.16 "/>
   <path id="goutte" fill="#CC9933" stroke="black" stroke-width="0.0762" d="M201.082 143.906c-0.0284,0.2667 -2.2402,4.6395 1.4974,1.6484 -0.4966,0.8886 -1.5253,3.5205 0.7835,1.3431 -1.1296,2.0883 0.0817,4.3642 1.5117,2.4719 1.2573,2.7912 2.6279,1.737 1.2229,-2.0222 1.8482,0.9701 3.8447,-2.1052 0.9164,-3.6933 1.865,-1.6593 -0.4501,-1.9444 -1.4377,-2.183 0.3812,-0.326 1.2048,-2.0776 -0.7153,-1.7061 0.3833,-0.6639 1.2375,-1.7999 -0.8021,-2.801 -1.0191,2.7528 -6.9831,4.0545 -2.9768,6.9422z"/>
   <path id="_66287176" fill="none" stroke="#1F1A17" stroke-width="0.0762" d="M204.066 148.443c1.1384,0.0542 0.1144,-1.798 0.1144,-3.6276"/>
   <path id="_77239960" fill="none" stroke="#1F1A17" stroke-width="0.0762" d="M205.019 144.242c0.1195,0.7981 2.3719,2.5256 2.6294,1.4892"/>
   <path id="_76685048" fill="none" stroke="#1F1A17" stroke-width="0.0762" d="M202.16 141.417c0.5906,0.4779 2.5152,1.3746 2.5152,-0.2292"/>
  </g>
  <g id="Latex_Black" onclick="parent.replacechar('Latex_Black')" onmousemove="parent.showtooltip('Latex_Black', 'Latex black')" onmouseout="parent.hidetooltip('Latex_Black')" cursor="pointer" >
   <rect id="fond_0" fill="#00A5E1" stroke="black" stroke-width="0.0762" x="100.565" y="115.804" width="38.8716" height="38.3917"/>
   <polygon id="rameau_1" fill="#7DC031" stroke="black" stroke-width="0.0762" points="123.934,137.17 127.177,137.872 130.309,118.362 125.471,117.586 122.491,136.064 105.812,146.438 108.401,150.599 125.178,140.16 "/>
   <path id="goutte_2" fill="black" stroke="black" stroke-width="0.0762" d="M124.019 147.078c-0.0225,0.2123 -0.047,0.4536 -0.047,0.6826 0,2.1526 1.2541,3.9083 2.7917,3.9083 1.5376,0 2.7916,-1.7557 2.7916,-3.9083 0,-0.2595 -0.0239,-0.4756 -0.0524,-0.6811l-3.0494 -6.5772 -2.4345 6.5757z"/>
  </g>
  <g id="Latex_Red" onclick="parent.replacechar('Latex_Red')" onmousemove="parent.showtooltip('Latex_Red', 'Latex red')" onmouseout="parent.hidetooltip('Latex_Red')" cursor="pointer" >
   <rect id="fond_3" fill="#00A5E1" stroke="black" stroke-width="0.0762" x="20.5646" y="115.804" width="38.8716" height="38.3917"/>
   <polygon id="rameau_4" fill="#7DC031" stroke="black" stroke-width="0.0762" points="43.9336,137.17 47.1773,137.872 50.3089,118.362 45.4705,117.586 42.4906,136.064 25.8124,146.438 28.4011,150.599 45.1782,140.16 "/>
   <path id="goutte_5" fill="#A8222B" stroke="black" stroke-width="0.0762" d="M44.0193 147.078c-0.0225,0.2123 -0.047,0.4536 -0.047,0.6826 0,2.1526 1.2541,3.9083 2.7917,3.9083 1.5376,0 2.7916,-1.7557 2.7916,-3.9083 0,-0.2595 -0.0239,-0.4756 -0.0524,-0.6811l-3.0494 -6.5772 -2.4345 6.5757z"/>
  </g>
  <g id="Latex_Yellow" onclick="parent.replacechar('Latex_Yellow')" onmousemove="parent.showtooltip('Latex_Yellow', 'Latex yellow or cream')" onmouseout="parent.hidetooltip('Latex_Yellow')" cursor="pointer" >
   <rect id="fond_6" fill="#00A5E1" stroke="black" stroke-width="0.0762" x="180.565" y="25.8041" width="38.8716" height="38.3917"/>
   <polygon id="rameau_7" fill="#7DC031" stroke="black" stroke-width="0.0762" points="203.934,47.1697 207.177,47.8717 210.309,28.362 205.471,27.5855 202.491,46.0636 185.812,56.4378 188.401,60.5986 205.178,50.16 "/>
   <path id="goutte_8" fill="#FAC846" stroke="black" stroke-width="0.0762" d="M204.019 57.0784c-0.0225,0.2123 -0.047,0.4536 -0.047,0.6826 0,2.1526 1.2541,3.9083 2.7917,3.9083 1.5376,0 2.7916,-1.7557 2.7916,-3.9083 0,-0.2595 -0.0239,-0.4756 -0.0524,-0.6811l-3.0494 -6.5772 -2.4345 6.5757z"/>
  </g>
  <g id="Latex_White" onclick="parent.replacechar('Latex_White')" onmousemove="parent.showtooltip('Latex_White', 'Latex white or watery')" onmouseout="parent.hidetooltip('Latex_White')" cursor="pointer" >
   <rect id="fond_9" fill="#00A5E1" stroke="black" stroke-width="0.0762" x="100.565" y="25.8041" width="38.8716" height="38.3917"/>
   <polygon id="rameau_10" fill="#7DC031" stroke="black" stroke-width="0.0762" points="123.934,47.1697 127.177,47.8717 130.309,28.362 125.471,27.5855 122.491,46.0636 105.812,56.4378 108.401,60.5986 125.178,50.16 "/>
   <path id="goutte_11" fill="white" stroke="black" stroke-width="0.0762" d="M124.019 57.0784c-0.0225,0.2123 -0.047,0.4536 -0.047,0.6826 0,2.1526 1.2541,3.9083 2.7917,3.9083 1.5376,0 2.7916,-1.7557 2.7916,-3.9083 0,-0.2595 -0.0239,-0.4756 -0.0524,-0.6811l-3.0494 -6.5772 -2.4345 6.5757z"/>
  </g>
  <g id="Latex_No" onclick="parent.replacechar('Latex_No')" onmousemove="parent.showtooltip('Latex_No', 'Whithout latex')" onmouseout="parent.hidetooltip('Latex_No')" cursor="pointer" >
   <rect id="fond_12" fill="#00A5E1" stroke="black" stroke-width="0.0762" x="20.5494" y="25.7896" width="38.901" height="38.4207"/>
   <polygon id="rameau_13" fill="#7DC031" stroke="black" stroke-width="0.0762" points="43.9361,47.1713 47.1822,47.8739 50.3162,28.3495 45.4741,27.5723 42.4919,46.0644 25.8012,56.4464 28.3918,60.6104 45.1816,50.1639 "/>
  </g>
 </g>
<image xlink:href="tick.gif" id="imgtick" x="-100" y="-100" width="15" height="15"/>
<rect id="recttooltip" x="-100" y="-100" width="55" height="6" fill-opacity="0.4" pointer-events="none"/>
<text id="textboxid" x="-100" y="-100" pointer-events="none"> </text>
</a></svg>
