<?xml version="1.0" encoding="UTF-8"?>
<!DOCTYPE svg PUBLIC "-//W3C//DTD SVG 1.1//EN" "http://www.w3.org/Graphics/SVG/1.1/DTD/svg11.dtd">
<!-- Creator: CorelDRAW -->
<svg xmlns="http://www.w3.org/2000/svg" xml:space="preserve" shape-rendering="geometricPrecision" text-rendering="geometricPrecision" image-rendering="optimizeQuality" fill-rule="evenodd" clip-rule="evenodd"
viewBox="0 0 240 180"
 xmlns:xlink="http://www.w3.org/1999/xlink">
<a>
 <g id="Layer_x0020_1">
  <metadata id="CorelCorpID_0Corel-Layer"/>
  <rect fill="none" width="240" height="180"/>
  <g id="Lf_Cmp" onclick="parent.replacechar('Lf_Cmp')" onmousemove="parent.showtooltip('Lf_Cmp', 'Compound leaf')" onmouseout="parent.hidetooltip('Lf_Cmp')" cursor="pointer" >
   <path id="Rachis" fill="#009042" stroke="black" stroke-width="0.0762" stroke-linejoin="bevel" d="M181.669 89.016c-0.601,-93.352 -1.4723,-31.0177 -3.6662,0.1524 -3.7895,27.4953 -2.8551,65.4387 14.1788,73.4116 1.6401,-1.0279 -0.2207,0.0427 1.7383,-2.8788 1.2709,-4.0563 -0.8449,2.5939 -7.3569,-8.1347 -7.0459,-10.7262 -6.2976,-35.3772 -4.894,-62.5505z">
    <metadata id="CorelCorpID_1">
     <odm name="Nom" value="Rachis" type="0"/>
    </metadata>
   </path>
   <g id="foliole">
     <metadata id="CorelCorpID_2">
      <odm name="Nom" value="foliole" type="0"/>
     </metadata>
    <path id="_77504992" fill="#009042" stroke="black" stroke-width="0.0762" stroke-linejoin="bevel" d="M178.991 64.4133c0.4302,-8.9155 -21.1343,-17.9725 -24.7984,-10.9494 -0.7371,7.478 23.9301,22.0391 24.5811,12.6981l0.2173 -1.7487z"/>
    <path id="_77503512" fill="#009042" stroke="black" stroke-width="0.0762" stroke-linejoin="bevel" d="M179.418 66.1405c-0.6799,0.1588 1.0213,-0.3708 0.5997,-0.9984 -2.8572,-1.4925 -16.6998,-9.2 -25.4989,-11.871 13.9736,6.5251 23.144,12.0027 24.8992,12.8694z"/>
   </g>
   <g id="foliole_0">
     <metadata id="CorelCorpID_3">
      <odm name="Nom" value="foliole" type="0"/>
     </metadata>
    <path id="_77502472" fill="#009042" stroke="black" stroke-width="0.0762" stroke-linejoin="bevel" d="M181.75 64.3497c-0.4302,-8.9155 21.1343,-17.9726 24.7984,-10.9494 0.7371,7.4779 -23.9301,22.0391 -24.5811,12.6981l-0.2173 -1.7487z"/>
    <path id="_77501000" fill="#009042" stroke="black" stroke-width="0.0762" stroke-linejoin="bevel" d="M181.322 66.0769c0.6799,0.1587 -1.0213,-0.3708 -0.5997,-0.9984 2.8572,-1.4926 16.6998,-9.2001 25.4989,-11.871 -13.9736,6.5251 -23.144,12.0027 -24.8992,12.8694z"/>
   </g>
   <g id="foliole_1">
     <metadata id="CorelCorpID_4">
      <odm name="Nom" value="foliole" type="0"/>
     </metadata>
    <path id="_77499952" fill="#009042" stroke="black" stroke-width="0.0762" stroke-linejoin="bevel" d="M177.636 81.9441c-0.9993,-11.0004 -29.022,-19.2964 -32.3167,-10.1959 0.3763,9.2759 33.1506,23.9224 32.3495,12.3708l-0.0328 -2.1749z"/>
    <path id="_77498480" fill="#009042" stroke="black" stroke-width="0.0762" stroke-linejoin="bevel" d="M178.457 84.0083c-0.8074,0.2839 1.1901,-0.5888 0.565,-1.304 -3.7629,-1.4583 -22.0756,-9.1082 -33.3343,-11.2355 18.2709,6.1814 30.4662,11.7053 32.7693,12.5395z"/>
   </g>
   <g id="foliole_2">
     <metadata id="CorelCorpID_5">
      <odm name="Nom" value="foliole" type="0"/>
     </metadata>
    <path id="_77497304" fill="#009042" stroke="black" stroke-width="0.0762" stroke-linejoin="bevel" d="M175.355 106.014c-1.2141,-13.3646 -35.2596,-23.4437 -39.2623,-12.3872 0.4571,11.2696 40.2755,29.0639 39.3021,15.0296l-0.0398 -2.6424z"/>
    <path id="_77495832" fill="#009042" stroke="black" stroke-width="0.0762" stroke-linejoin="bevel" d="M176.351 108.522c-0.981,0.3449 1.4459,-0.7154 0.6864,-1.5843 -4.5716,-1.7717 -26.8202,-11.0657 -40.4987,-13.6502 22.1977,7.5098 37.0141,14.2211 39.8123,15.2345z"/>
   </g>
   <g id="foliole_3">
     <metadata id="CorelCorpID_6">
      <odm name="Nom" value="foliole" type="0"/>
     </metadata>
    <path id="_77494792" fill="#009042" stroke="black" stroke-width="0.0762" stroke-linejoin="bevel" d="M176.88 135.674c-1.4206,-15.6383 -41.2582,-27.4322 -45.9419,-14.4947 0.5349,13.1869 47.1275,34.0085 45.9886,17.5866l-0.0467 -3.0919z"/>
    <path id="_77493320" fill="#009042" stroke="black" stroke-width="0.0762" stroke-linejoin="bevel" d="M178.046 138.608c-1.1479,0.4036 1.6919,-0.8371 0.8032,-1.8538 -5.3494,-2.0731 -31.3831,-12.9483 -47.3887,-15.9725 25.9742,8.7875 43.3113,16.6405 46.5855,17.8263z"/>
   </g>
   <g id="foliole_4">
     <metadata id="CorelCorpID_7">
      <odm name="Nom" value="foliole" type="0"/>
     </metadata>
    <path id="_77791152" fill="#009042" stroke="black" stroke-width="0.0762" stroke-linejoin="bevel" d="M182.369 82.2057c0.9993,-11.0004 29.022,-19.2965 32.3166,-10.1959 -0.3763,9.2759 -33.1506,23.9224 -32.3494,12.3708l0.0328 -2.1749z"/>
    <path id="_77789808" fill="#009042" stroke="black" stroke-width="0.0762" stroke-linejoin="bevel" d="M181.548 84.2699c0.8075,0.2838 -1.1901,-0.5888 -0.565,-1.304 3.7629,-1.4583 22.0756,-9.1082 33.3343,-11.2355 -18.2708,6.1814 -30.4662,11.7053 -32.7693,12.5395z"/>
   </g>
   <g id="foliole_5">
     <metadata id="CorelCorpID_8">
      <odm name="Nom" value="foliole" type="0"/>
     </metadata>
    <path id="_77788768" fill="#009042" stroke="black" stroke-width="0.0762" stroke-linejoin="bevel" d="M181.611 106.455c1.2141,-13.3646 35.2596,-23.4437 39.2624,-12.3872 -0.4572,11.2695 -40.2756,29.0639 -39.3022,15.0296l0.0398 -2.6424z"/>
    <path id="_77787296" fill="#009042" stroke="black" stroke-width="0.0762" stroke-linejoin="bevel" d="M180.614 108.963c0.981,0.3448 -1.4459,-0.7154 -0.6865,-1.5843 4.5717,-1.7717 26.8203,-11.0657 40.4988,-13.6503 -22.1978,7.5099 -37.0142,14.2211 -39.8123,15.2346z"/>
   </g>
   <g id="foliole_6">
     <metadata id="CorelCorpID_9">
      <odm name="Nom" value="foliole" type="0"/>
     </metadata>
    <path id="_77786256" fill="#009042" stroke="black" stroke-width="0.0762" stroke-linejoin="bevel" d="M183.12 135.236c1.4206,-15.6383 41.2582,-27.4322 45.942,-14.4947 -0.5349,13.1869 -47.1276,34.0085 -45.9886,17.5866l0.0466 -3.0919z"/>
    <path id="_77784784" fill="#009042" stroke="black" stroke-width="0.0762" stroke-linejoin="bevel" d="M181.954 138.17c1.1479,0.4036 -1.6919,-0.8371 -0.8033,-1.8538 5.3495,-2.0731 31.3832,-12.9483 47.3888,-15.9726 -25.9743,8.7876 -43.3114,16.6406 -46.5855,17.8264z"/>
   </g>
   <g id="foliole_7">
     <metadata id="CorelCorpID_10">
      <odm name="Nom" value="foliole" type="0"/>
     </metadata>
    <path id="_77783744" fill="#009042" stroke="black" stroke-width="0.0762" stroke-linejoin="bevel" d="M178.251 54.4781c-7.9894,-3.9802 -4.1111,-27.1319 3.807,-26.898 6.8849,3.0101 8.6964,24.5275 -0.929,27.6516l-2.878 -0.7536z"/>
    <path id="_77782272" fill="#009042" stroke="black" stroke-width="0.0762" stroke-linejoin="bevel" d="M181.362 55.7817c0.4707,-0.5157 -1.389,0.7118 -1.7306,0.0373 0.0934,-3.2221 0.1309,-19.0658 2.099,-28.0483 -1.1331,15.3804 -0.2671,26.0561 -0.3684,28.011z"/>
   </g>
   <g id="F_bifol" onclick="parent.replacechar('F_bifol')" onmousemove="parent.showtooltip('F_bifol', 'Bifoliolate')" onmouseout="parent.hidetooltip('F_bifol')" cursor="pointer" >
    <g id="F">
     <path id="petiole" fill="#009042" stroke="black" stroke-width="0.0762" stroke-linejoin="bevel" d="M181.585 19.8553c0.5332,-1.246 1.2167,-1.5113 0.1946,0.2428l-0.0015 3.1071c-0.1752,0.0466 -0.3204,0.0034 -0.4357,-0.1295 0.0036,-1.0478 0.0072,-1.9149 0.0108,-2.9626 -1.2657,-2.0888 0.1842,-0.5787 0.2318,-0.2578z"/>
     <path id="limbe_x0020_droite" fill="#009042" stroke="black" stroke-width="0.0762" d="M182.048 19.281c-1.4418,-3.2012 0.1287,-11.8961 3.1401,-14.201 3.3962,2.461 4.788,14.6864 -3.1401,14.201z"/>
     <path id="limbe_x0020_gauche" fill="#009042" stroke="black" stroke-width="0.0762" d="M181.064 19.2949c1.0909,-3.3024 -1.2203,-11.8291 -4.3275,-13.8799 -3.0378,2.7234 -3.2487,15.0031 4.3275,13.8799z"/>
    </g>
    <path id="nerv" fill="none" stroke="black" stroke-width="0.0762" d="M176.74 5.43c0.2,6.1722 1.5331,10.6085 4.3226,13.868"/>
    <path id="nerv_8" fill="none" stroke="black" stroke-width="0.0762" d="M185.187 5.095c-0.0217,5.4604 -0.8495,10.5071 -3.1384,14.1842"/>
   </g>
   <g id="F_trif" onclick="parent.replacechar('F_trif')" onmousemove="parent.showtooltip('F_trif', 'Trifoliolate')" onmouseout="parent.hidetooltip('F_trif')" cursor="pointer" >
    <g id="folioles">
     <g id="foliole_x0020_droite">
      <path id="limbe" fill="#009042" stroke="black" stroke-width="0.0762" d="M160.957 10.0726l0.0353 0.0248c-1.208,3.3986 -3.9887,8.6687 -9.1097,6.1572 -0.6387,-5.7513 5.8239,-6.1879 9.0744,-6.182z"/>
      <polygon id="nervure" fill="#009042" stroke="black" stroke-width="0.0762" stroke-linejoin="bevel" points="160.685,10.2909 150.148,17.4374 "/>
     </g>
     <g id="foliole_x0020_gauche">
      <path id="limbe_9" fill="#009042" stroke="black" stroke-width="0.0762" d="M139.353 9.9829l0.0105 -0.0419c3.606,-0.0847 9.5214,0.6316 9.0034,6.3118 -5.1444,2.6496 -7.8592,-3.2314 -9.0139,-6.2699z"/>
      <polygon id="nervure_10" fill="#009042" stroke="black" stroke-width="0.0762" stroke-linejoin="bevel" points="139.655,10.1599 150.082,17.4455 "/>
     </g>
     <g id="foliole_x0020_centrale">
      <path id="limbe_11" fill="#009042" stroke="black" stroke-width="0.0762" d="M150.038 3.743l0.0403 -0.0156c2.1546,2.8926 4.9916,8.1326 0.0583,10.9952 -5.1369,-2.6642 -1.9094,-8.2802 -0.0986,-10.9796z"/>
      <polygon id="nervure_12" fill="#009042" stroke="black" stroke-width="0.0762" stroke-linejoin="bevel" points="150.068,4.0912 150.14,16.6738 "/>
     </g>
    </g>
    <path id="petiolule" fill="#009042" stroke="black" stroke-width="0.0762" stroke-linejoin="bevel" d="M150.132 14.9044c0.0413,3.242 0.0734,6.2716 0.1146,9.5136 -0.1433,0.1044 -0.1904,0.0558 -0.2434,-0.0485l0.1288 -9.4651z"/>
    <path id="pétiole" fill="#009042" stroke="black" stroke-width="0.0762" d="M149.811 24.468c0.0659,0.0634 0.497,0.1168 0.6184,0.1069l-0.1595 -1.5294c0,-2.6551 0,-2.7153 0,-5.3705 -0.0906,-0.0605 -0.1877,-0.0719 -0.291,-0.0109 0,5.4399 0,-0.0585 0,5.3815 0,0.4969 -0.0672,0.9472 -0.1679,1.4224z"/>
   </g>
   <g id="F_digit" onclick="parent.replacechar('F_digit')" onmousemove="parent.showtooltip('F_digit', 'Digitate or palmate')" onmouseout="parent.hidetooltip('F_digit')" cursor="pointer" >
    <g id="foliole_x0020_droite1">
     <path id="limbe_13" fill="#009042" stroke="black" stroke-width="0.0762" d="M225.47 9.0486l0.0294 0.018c-1.5411,2.9055 -4.7647,7.4758 -9.1528,5.7587 0.1421,-4.7249 6.1368,-5.5492 9.1234,-5.7767z"/>
     <polygon id="nervure_14" fill="#009042" stroke="black" stroke-width="0.0762" stroke-linejoin="bevel" points="225.191,9.2492 214.47,16.0199 "/>
    </g>
    <g id="foliole_x0020_centrale_15">
     <path id="limbe_16" fill="#009042" stroke="black" stroke-width="0.0762" d="M214.342 2.7863l0.0413 -0.0159c2.2065,2.9622 5.1118,8.3283 0.0597,11.2598 -5.2605,-2.7283 -1.9554,-8.4795 -0.101,-11.2439z"/>
     <polygon id="nervure_17" fill="#009042" stroke="black" stroke-width="0.0762" stroke-linejoin="bevel" points="214.372,3.1429 214.446,16.0284 "/>
    </g>
    <g id="foliole_x0020_gauche1">
     <path id="limbe_18" fill="#009042" stroke="black" stroke-width="0.0762" d="M203.376 9.1388l0.0036 -0.0343c3.2864,0.126 8.8032,1.0444 9.1627,5.7427 -4.3176,1.9244 -7.664,-3.1171 -9.1663,-5.7084z"/>
     <polygon id="nervure_19" fill="#009042" stroke="black" stroke-width="0.0762" stroke-linejoin="bevel" points="203.678,9.3025 214.434,16.018 "/>
    </g>
    <g id="foliole_x0020_droite2">
     <path id="limbe_20" fill="#009042" stroke="black" stroke-width="0.0762" d="M223.508 19.7001l0.0032 0.0251c-2.6291,0.1815 -7.1664,-0.0256 -8.2743,-3.3972 3.0881,-1.7515 6.6256,1.6208 8.2711,3.3721z"/>
     <polygon id="nervure_21" fill="#009042" stroke="black" stroke-width="0.0762" stroke-linejoin="bevel" points="223.485,19.6988 214.49,16.033 "/>
    </g>
    <g id="foliole_x0020_gauche2">
     <path id="limbe_22" fill="#009042" stroke="black" stroke-width="0.0762" d="M205.602 19.9335l-0.0203 -0.0151c1.6958,-2.0174 4.9964,-5.1375 8.1915,-3.5925 -0.8851,3.4382 -5.7683,3.6404 -8.1712,3.6076z"/>
     <polygon id="nerv_23" fill="#009042" stroke="black" stroke-width="0.0762" stroke-linejoin="bevel" points="205.62,19.9178 214.487,16.0316 "/>
    </g>
    <path id="petiolule_24" fill="#009042" stroke="black" stroke-width="0.0762" stroke-linejoin="bevel" d="M214.437 14.0212c0.067,2.6268 0.0494,8.7151 0.1164,11.3419 -0.1318,0.1492 -0.1835,0.121 -0.2134,-0.0622l0.097 -11.2797z"/>
    <path id="pétiole_25" fill="#009042" stroke="black" stroke-width="0.0762" d="M214.135 25.4249c0.0658,0.0634 0.497,0.1168 0.6184,0.107l-0.1595 -1.5295c0,-2.6551 0,-5.395 0,-8.0501 -0.0907,-0.0606 -0.1878,-0.0604 -0.291,0.0006 0,5.4398 0,2.6096 0,8.0496 0,0.4969 -0.0672,0.9472 -0.1679,1.4224z"/>
   </g>
   <g id="F_trip" onclick="parent.replacechar('F_trip')" onmousemove="parent.showtooltip('F_trip', 'Tripinnate')" onmouseout="parent.hidetooltip('F_trip')" cursor="pointer" >
    <g id="foliole_x0020_1_x0020_gauche">
     <path id="feuille" fill="#009042" stroke="black" stroke-width="0.0762" d="M201.694 165.172c0.0327,-0.2193 0.1801,-0.5251 0.6018,-0.7772 0.4217,-0.2521 0.7355,-0.2059 0.924,-0.1235 0.0039,0.2087 -0.1574,0.4991 -0.5791,0.7512 -0.4217,0.2521 -0.7984,0.243 -0.9467,0.1495z"/>
     <path id="feuille_26" fill="#009042" stroke="black" stroke-width="0.0762" d="M203.142 165.564c0.0327,-0.2193 0.18,-0.5252 0.6017,-0.7773 0.4217,-0.2521 0.7356,-0.2059 0.924,-0.1235 0.004,0.2088 -0.1574,0.4991 -0.5791,0.7512 -0.4217,0.2521 -0.7984,0.243 -0.9466,0.1496z"/>
     <path id="feuille_27" fill="#009042" stroke="black" stroke-width="0.0762" d="M202.481 162.296c0.1487,0.0134 0.5275,0.1821 0.7703,0.6092 0.2428,0.4272 0.1833,0.7493 0.0968,0.9359 -0.2088,-0.0006 -0.5139,-0.1567 -0.7567,-0.5838 -0.2428,-0.4271 -0.2071,-0.8151 -0.1104,-0.9613z"/>
     <path id="feuille_28" fill="#009042" stroke="black" stroke-width="0.0762" d="M203.898 162.66c0.1487,0.0134 0.5275,0.1821 0.7703,0.6092 0.2428,0.4271 0.1833,0.7493 0.0968,0.9359 -0.2088,-0.0007 -0.5139,-0.1567 -0.7567,-0.5839 -0.2428,-0.4271 -0.2071,-0.8151 -0.1104,-0.9612z"/>
     <path id="feuille_x0020_terminale" fill="#009042" stroke="black" stroke-width="0.0762" d="M200.973 163.463c0.1782,-0.1318 0.4987,-0.2438 0.9751,-0.1236 0.4764,0.1201 0.6655,0.3748 0.7405,0.5663 -0.1449,0.1504 -0.4644,0.2415 -0.9408,0.1213 -0.4764,-0.1201 -0.7362,-0.3931 -0.7748,-0.564z"/>
     <polygon id="petiolule_x0020_large" fill="#009042" stroke="black" stroke-width="0.0762" stroke-linejoin="bevel" points="201.221,163.501 211.958,166.355 "/>
     <line id="petiolule5" fill="none" stroke="black" stroke-width="0.0762" x1="202.525" y1="162.385" x2="203.492" y2= "164.108" />
     <line id="petiolule4" fill="none" stroke="black" stroke-width="0.0762" x1="203.957" y1="162.766" x2="204.925" y2= "164.488" />
     <line id="petiolule5_29" fill="none" stroke="black" stroke-width="0.0762" x1="201.789" y1="165.102" x2="203.498" y2= "164.111" />
     <line id="petiolule4_30" fill="none" stroke="black" stroke-width="0.0762" x1="203.225" y1="165.493" x2="204.934" y2= "164.502" />
     <g id="foliole_x0020_1_x0020_bas">
      <path id="feuille_31" fill="#009042" stroke="black" stroke-width="0.0762" d="M207.672 169.226c0.0082,-0.2215 0.1207,-0.5418 0.5119,-0.8391 0.3912,-0.2973 0.7082,-0.2861 0.9047,-0.2251 0.027,0.207 -0.1012,0.5135 -0.4924,0.8107 -0.3911,0.2973 -0.7665,0.33 -0.9242,0.2535z"/>
      <path id="feuille_32" fill="#009042" stroke="black" stroke-width="0.0762" d="M207.432 167.585c0.1431,-0.1693 0.4293,-0.352 0.9205,-0.3447 0.4913,0.0074 0.7339,0.2117 0.8509,0.3809 -0.1064,0.1796 -0.3964,0.3417 -0.8876,0.3344 -0.4913,-0.0073 -0.8069,-0.2132 -0.8838,-0.3706z"/>
      <path id="feuille_33" fill="#009042" stroke="black" stroke-width="0.0762" d="M208.166 166.66c0.1431,-0.1693 0.4293,-0.352 0.9205,-0.3447 0.4913,0.0074 0.7339,0.2117 0.8509,0.3809 -0.1064,0.1796 -0.3964,0.3418 -0.8876,0.3344 -0.4913,-0.0073 -0.8069,-0.2132 -0.8838,-0.3706z"/>
      <path id="feuille_34" fill="#009042" stroke="black" stroke-width="0.0762" d="M209.577 169.721c-0.1726,-0.1391 -0.3621,-0.4208 -0.3664,-0.9121 -0.0044,-0.4913 0.1941,-0.7387 0.3605,-0.8597 0.1821,0.1022 0.3511,0.3882 0.3554,0.8794 0.0044,0.4913 -0.1939,0.8118 -0.3495,0.8924z"/>
      <path id="feuille_35" fill="#009042" stroke="black" stroke-width="0.0762" d="M210.311 168.844c-0.1726,-0.139 -0.3621,-0.4207 -0.3664,-0.912 -0.0044,-0.4913 0.1941,-0.7388 0.3605,-0.8597 0.1821,0.1021 0.3511,0.3881 0.3554,0.8794 0.0044,0.4913 -0.1939,0.8117 -0.3495,0.8923z"/>
      <polyline id="petiolule1" fill="none" stroke="black" stroke-width="0.0762" points="207.841,169.12 209.104,168.185 210.814,166.028 "/>
      <line id="_77533016" fill="none" stroke="black" stroke-width="0.0762" x1="210.289" y1="166.676" x2="208.314" y2= "166.678" />
      <line id="_77532024" fill="none" stroke="black" stroke-width="0.0762" x1="209.551" y1="167.617" x2="207.575" y2= "167.618" />
      <line id="_77531032" fill="none" stroke="black" stroke-width="0.0762" x1="210.299" y1="166.672" x2="210.328" y2= "168.648" />
      <line id="_77529384" fill="none" stroke="black" stroke-width="0.0762" x1="209.545" y1="167.63" x2="209.573" y2= "169.605" />
     </g>
     <g id="foliole_x0020_1_x0020_haut">
      <path id="feuille_36" fill="#009042" stroke="black" stroke-width="0.0762" d="M208.918 161.862c-0.0671,0.2227 -0.0688,0.5771 0.2011,0.9984 0.2699,0.4212 0.5738,0.5123 0.7804,0.515 0.0955,-0.197 0.0777,-0.5427 -0.1921,-0.9639 -0.2699,-0.4213 -0.6143,-0.5747 -0.7894,-0.5495z"/>
      <path id="feuille_37" fill="#009042" stroke="black" stroke-width="0.0762" d="M208.137 163.414c0.0783,0.2143 0.2875,0.4879 0.755,0.6388 0.4676,0.151 0.7663,0.0262 0.9343,-0.1042 -0.0401,-0.2127 -0.2598,-0.4671 -0.7273,-0.6181 -0.4676,-0.1509 -0.8359,-0.0481 -0.962,0.0835z"/>
      <path id="feuille_38" fill="#009042" stroke="black" stroke-width="0.0762" d="M208.519 164.57c0.0783,0.2143 0.2875,0.4879 0.755,0.6389 0.4676,0.1509 0.7664,0.0262 0.9343,-0.1042 -0.0401,-0.2128 -0.2598,-0.4672 -0.7273,-0.6181 -0.4676,-0.151 -0.8359,-0.0482 -0.962,0.0834z"/>
      <path id="feuille_39" fill="#009042" stroke="black" stroke-width="0.0762" d="M210.89 161.983c-0.2105,0.0825 -0.485,0.3013 -0.6551,0.7879 -0.1702,0.4866 -0.0659,0.7963 0.0507,0.9701 0.207,-0.0428 0.4636,-0.2725 0.6337,-0.7591 0.1702,-0.4865 0.0907,-0.8687 -0.0293,-0.9989z"/>
      <path id="feuille_40" fill="#009042" stroke="black" stroke-width="0.0762" d="M211.288 163.091c-0.2105,0.0825 -0.4851,0.3014 -0.6552,0.7879 -0.1701,0.4866 -0.0659,0.7964 0.0508,0.9701 0.2069,-0.0428 0.4635,-0.2724 0.6337,-0.759 0.1701,-0.4866 0.0907,-0.8688 -0.0293,-0.999z"/>
      <polyline id="petiolule1_41" fill="none" stroke="black" stroke-width="0.0762" points="209.043,162.021 209.922,163.357 210.812,166.05 "/>
      <line id="_77615000" fill="none" stroke="black" stroke-width="0.0762" x1="210.535" y1="165.237" x2="208.665" y2= "164.599" />
      <line id="_77614824" fill="none" stroke="black" stroke-width="0.0762" x1="210.154" y1="164.065" x2="208.284" y2= "163.427" />
      <line id="_77613832" fill="none" stroke="black" stroke-width="0.0762" x1="210.543" y1="165.245" x2="211.238" y2= "163.292" />
      <line id="_77612184" fill="none" stroke="black" stroke-width="0.0762" x1="210.152" y1="164.05" x2="210.847" y2= "162.097" />
     </g>
     <g id="foliole_x0020_2_x0020_haut">
      <path id="feuille_42" fill="#009042" stroke="black" stroke-width="0.0762" d="M206.018 162.375c-0.0671,0.2227 -0.0688,0.5771 0.2011,0.9983 0.2699,0.4213 0.5738,0.5123 0.7804,0.515 0.0955,-0.1969 0.0777,-0.5426 -0.1921,-0.9639 -0.2699,-0.4212 -0.6143,-0.5746 -0.7894,-0.5494z"/>
      <path id="feuille_43" fill="#009042" stroke="black" stroke-width="0.0762" d="M205.237 163.927c0.0783,0.2143 0.2875,0.4879 0.755,0.6389 0.4676,0.1509 0.7663,0.0261 0.9343,-0.1042 -0.0401,-0.2128 -0.2598,-0.4672 -0.7273,-0.6181 -0.4676,-0.151 -0.836,-0.0482 -0.962,0.0834z"/>
      <path id="feuille_44" fill="#009042" stroke="black" stroke-width="0.0762" d="M207.989 162.496c-0.2105,0.0826 -0.485,0.3014 -0.6552,0.788 -0.1701,0.4866 -0.0658,0.7963 0.0508,0.97 0.2069,-0.0428 0.4636,-0.2724 0.6337,-0.759 0.1701,-0.4866 0.0907,-0.8687 -0.0293,-0.999z"/>
      <polyline id="petiolule1_45" fill="none" stroke="black" stroke-width="0.0762" points="206.142,162.534 207.022,163.87 207.459,165.17 "/>
      <line id="_77167816" fill="none" stroke="black" stroke-width="0.0762" x1="207.253" y1="164.578" x2="205.383" y2= "163.941" />
      <line id="_77166168" fill="none" stroke="black" stroke-width="0.0762" x1="207.251" y1="164.563" x2="207.946" y2= "162.61" />
     </g>
     <g id="foliole_x0020_2_x0020_bas">
      <path id="feuille_46" fill="#009042" stroke="black" stroke-width="0.0762" d="M205.189 167.065c0.0095,-0.2153 0.123,-0.5208 0.5123,-0.7879 0.3893,-0.267 0.7032,-0.238 0.8974,-0.1673 0.0254,0.2031 -0.1035,0.4942 -0.4928,0.7613 -0.3893,0.2671 -0.7613,0.2774 -0.9169,0.1939z"/>
      <path id="feuille_47" fill="#009042" stroke="black" stroke-width="0.0762" d="M204.963 165.454c0.1428,-0.1566 0.4273,-0.3182 0.9138,-0.2829 0.4864,0.0353 0.7254,0.2482 0.8402,0.4197 -0.1066,0.1688 -0.3948,0.3101 -0.8812,0.2748 -0.4864,-0.0353 -0.7977,-0.2538 -0.8728,-0.4116z"/>
      <path id="feuille_48" fill="#009042" stroke="black" stroke-width="0.0762" d="M207.073 167.657c-0.1701,-0.1453 -0.3559,-0.4305 -0.357,-0.9092 -0.0011,-0.4787 0.197,-0.7083 0.3625,-0.8166 0.1797,0.1099 0.3452,0.3981 0.3464,0.8768 0.0011,0.4787 -0.1973,0.7794 -0.3519,0.849z"/>
      <polyline id="petiolule1_49" fill="none" stroke="black" stroke-width="0.0762" points="205.357,166.972 206.614,166.134 207.446,165.17 "/>
      <line id="_67234608" fill="none" stroke="black" stroke-width="0.0762" x1="207.061" y1="165.606" x2="205.104" y2= "165.495" />
      <line id="_67233088" fill="none" stroke="black" stroke-width="0.0762" x1="207.054" y1="165.619" x2="207.07" y2= "167.544" />
     </g>
    </g>
    <g id="foliole_x0020_1_x0020_droite">
     <path id="feuille_50" fill="#009042" stroke="black" stroke-width="0.0762" d="M222.115 165.21c-0.0317,-0.2193 -0.1743,-0.5251 -0.5827,-0.7772 -0.4084,-0.2521 -0.7123,-0.2059 -0.8949,-0.1235 -0.0038,0.2087 0.1525,0.4991 0.5609,0.7512 0.4084,0.2521 0.7732,0.243 0.9167,0.1495z"/>
     <path id="feuille_51" fill="#009042" stroke="black" stroke-width="0.0762" d="M220.713 165.602c-0.0317,-0.2192 -0.1744,-0.5251 -0.5828,-0.7772 -0.4084,-0.2521 -0.7123,-0.2059 -0.8948,-0.1235 -0.0038,0.2088 0.1524,0.4991 0.5608,0.7512 0.4084,0.2521 0.7732,0.243 0.9168,0.1495z"/>
     <path id="feuille_52" fill="#009042" stroke="black" stroke-width="0.0762" d="M221.353 162.334c-0.144,0.0134 -0.5109,0.1821 -0.746,0.6092 -0.2351,0.4272 -0.1775,0.7493 -0.0937,0.9359 0.2022,-0.0006 0.4977,-0.1567 0.7328,-0.5838 0.2351,-0.4272 0.2006,-0.8152 0.1069,-0.9613z"/>
     <path id="feuille_53" fill="#009042" stroke="black" stroke-width="0.0762" d="M219.981 162.697c-0.144,0.0134 -0.5109,0.1821 -0.7461,0.6092 -0.2351,0.4271 -0.1775,0.7493 -0.0937,0.9359 0.2022,-0.0007 0.4977,-0.1568 0.7328,-0.5839 0.2351,-0.4271 0.2006,-0.8151 0.107,-0.9612z"/>
     <path id="feuille_x0020_terminale_54" fill="#009042" stroke="black" stroke-width="0.0762" d="M222.813 163.501c-0.1726,-0.1318 -0.483,-0.2438 -0.9443,-0.1236 -0.4614,0.1201 -0.6446,0.3748 -0.7171,0.5663 0.1403,0.1504 0.4497,0.2415 0.911,0.1213 0.4614,-0.1201 0.713,-0.3931 0.7504,-0.564z"/>
     <polygon id="petiolule_x0020_large_55" fill="#009042" stroke="black" stroke-width="0.0762" stroke-linejoin="bevel" points="222.573,163.538 212.178,166.377 "/>
     <line id="petiolule5_56" fill="none" stroke="black" stroke-width="0.0762" x1="221.311" y1="162.423" x2="220.373" y2= "164.145" />
     <line id="petiolule4_57" fill="none" stroke="black" stroke-width="0.0762" x1="219.923" y1="162.804" x2="218.986" y2= "164.526" />
     <line id="petiolule5_58" fill="none" stroke="black" stroke-width="0.0762" x1="222.023" y1="165.14" x2="220.368" y2= "164.149" />
     <line id="petiolule4_59" fill="none" stroke="black" stroke-width="0.0762" x1="220.632" y1="165.531" x2="218.977" y2= "164.54" />
     <g id="foliole_x0020_1_x0020_bas_60">
      <path id="feuille_61" fill="#009042" stroke="black" stroke-width="0.0762" d="M216.326 169.263c-0.008,-0.2216 -0.1169,-0.5419 -0.4958,-0.8391 -0.3788,-0.2973 -0.6858,-0.2861 -0.8761,-0.2251 -0.0261,0.207 0.098,0.5135 0.4768,0.8107 0.3789,0.2973 0.7424,0.33 0.8951,0.2535z"/>
      <path id="feuille_62" fill="#009042" stroke="black" stroke-width="0.0762" d="M216.558 167.623c-0.1386,-0.1693 -0.4157,-0.352 -0.8914,-0.3447 -0.4758,0.0073 -0.7108,0.2117 -0.8241,0.3809 0.1031,0.1796 0.3839,0.3417 0.8596,0.3344 0.4758,-0.0073 0.7814,-0.2132 0.8559,-0.3706z"/>
      <path id="feuille_63" fill="#009042" stroke="black" stroke-width="0.0762" d="M215.847 166.698c-0.1386,-0.1693 -0.4157,-0.352 -0.8914,-0.3447 -0.4758,0.0074 -0.7108,0.2117 -0.8241,0.3809 0.1031,0.1796 0.3839,0.3418 0.8596,0.3344 0.4758,-0.0073 0.7814,-0.2132 0.8559,-0.3706z"/>
      <path id="feuille_64" fill="#009042" stroke="black" stroke-width="0.0762" d="M214.481 169.759c0.1672,-0.1391 0.3507,-0.4208 0.3549,-0.9121 0.0042,-0.4913 -0.188,-0.7387 -0.3491,-0.8597 -0.1764,0.1022 -0.34,0.3882 -0.3442,0.8794 -0.0042,0.4913 0.1878,0.8118 0.3384,0.8924z"/>
      <path id="feuille_65" fill="#009042" stroke="black" stroke-width="0.0762" d="M213.77 168.881c0.1672,-0.139 0.3507,-0.4208 0.3549,-0.912 0.0042,-0.4913 -0.188,-0.7388 -0.3491,-0.8598 -0.1764,0.1022 -0.3401,0.3882 -0.3443,0.8795 -0.0042,0.4913 0.1879,0.8117 0.3385,0.8923z"/>
      <polyline id="petiolule1_66" fill="none" stroke="black" stroke-width="0.0762" points="216.162,169.158 214.939,168.223 213.283,166.065 "/>
      <line id="_78024840" fill="none" stroke="black" stroke-width="0.0762" x1="213.791" y1="166.714" x2="215.704" y2= "166.716" />
      <line id="_76866208" fill="none" stroke="black" stroke-width="0.0762" x1="214.506" y1="167.654" x2="216.419" y2= "167.656" />
      <line id="_76865232" fill="none" stroke="black" stroke-width="0.0762" x1="213.781" y1="166.71" x2="213.754" y2= "168.685" />
      <line id="_77273048" fill="none" stroke="black" stroke-width="0.0762" x1="214.512" y1="167.667" x2="214.485" y2= "169.643" />
     </g>
     <g id="foliole_x0020_1_x0020_haut_67">
      <path id="feuille_68" fill="#009042" stroke="black" stroke-width="0.0762" d="M215.119 161.899c0.065,0.2227 0.0666,0.5771 -0.1947,0.9984 -0.2614,0.4212 -0.5557,0.5123 -0.7557,0.515 -0.0926,-0.197 -0.0754,-0.5427 0.186,-0.9639 0.2614,-0.4213 0.5948,-0.5747 0.7644,-0.5495z"/>
      <path id="feuille_69" fill="#009042" stroke="black" stroke-width="0.0762" d="M215.876 163.452c-0.0759,0.2143 -0.2784,0.4879 -0.7312,0.6388 -0.4528,0.151 -0.7421,0.0262 -0.9048,-0.1042 0.0388,-0.2127 0.2516,-0.4672 0.7044,-0.6181 0.4528,-0.1509 0.8095,-0.0481 0.9316,0.0835z"/>
      <path id="feuille_70" fill="#009042" stroke="black" stroke-width="0.0762" d="M215.505 164.607c-0.0758,0.2143 -0.2784,0.4879 -0.7311,0.6389 -0.4528,0.1509 -0.7422,0.0261 -0.9048,-0.1042 0.0388,-0.2128 0.2516,-0.4672 0.7043,-0.6181 0.4528,-0.151 0.8096,-0.0482 0.9316,0.0834z"/>
      <path id="feuille_71" fill="#009042" stroke="black" stroke-width="0.0762" d="M213.21 162.021c0.2038,0.0825 0.4697,0.3013 0.6345,0.7879 0.1647,0.4866 0.0637,0.7963 -0.0492,0.9701 -0.2004,-0.0428 -0.4489,-0.2725 -0.6137,-0.7591 -0.1648,-0.4866 -0.0878,-0.8687 0.0284,-0.9989z"/>
      <path id="feuille_72" fill="#009042" stroke="black" stroke-width="0.0762" d="M212.824 163.129c0.2038,0.0825 0.4697,0.3014 0.6345,0.7879 0.1648,0.4866 0.0638,0.7964 -0.0492,0.9701 -0.2004,-0.0428 -0.4489,-0.2724 -0.6137,-0.759 -0.1647,-0.4866 -0.0878,-0.8688 0.0284,-0.999z"/>
      <polyline id="petiolule1_73" fill="none" stroke="black" stroke-width="0.0762" points="214.999,162.059 214.146,163.394 213.285,166.088 "/>
      <line id="_76757624" fill="none" stroke="black" stroke-width="0.0762" x1="213.553" y1="165.275" x2="215.364" y2= "164.637" />
      <line id="_76756632" fill="none" stroke="black" stroke-width="0.0762" x1="213.923" y1="164.103" x2="215.733" y2= "163.465" />
      <line id="_76755656" fill="none" stroke="black" stroke-width="0.0762" x1="213.546" y1="165.282" x2="212.873" y2= "163.329" />
      <line id="_76838448" fill="none" stroke="black" stroke-width="0.0762" x1="213.924" y1="164.088" x2="213.251" y2= "162.135" />
     </g>
     <g id="foliole_x0020_2_x0020_haut_74">
      <path id="feuille_75" fill="#009042" stroke="black" stroke-width="0.0762" d="M217.928 162.412c0.065,0.2228 0.0667,0.5772 -0.1947,0.9984 -0.2613,0.4213 -0.5556,0.5123 -0.7557,0.515 -0.0926,-0.1969 -0.0753,-0.5426 0.186,-0.9639 0.2614,-0.4212 0.5949,-0.5746 0.7644,-0.5495z"/>
      <path id="feuille_76" fill="#009042" stroke="black" stroke-width="0.0762" d="M218.684 163.965c-0.0758,0.2143 -0.2784,0.4879 -0.7312,0.6389 -0.4528,0.1509 -0.7421,0.0261 -0.9047,-0.1043 0.0388,-0.2127 0.2515,-0.4671 0.7043,-0.618 0.4528,-0.151 0.8095,-0.0482 0.9316,0.0834z"/>
      <path id="feuille_77" fill="#009042" stroke="black" stroke-width="0.0762" d="M216.019 162.534c0.2038,0.0826 0.4697,0.3014 0.6345,0.788 0.1648,0.4865 0.0638,0.7963 -0.0492,0.97 -0.2004,-0.0428 -0.4489,-0.2724 -0.6137,-0.759 -0.1647,-0.4866 -0.0878,-0.8688 0.0284,-0.999z"/>
      <polyline id="petiolule1_78" fill="none" stroke="black" stroke-width="0.0762" points="217.807,162.572 216.955,163.908 216.532,165.207 "/>
      <line id="_77289424" fill="none" stroke="black" stroke-width="0.0762" x1="216.732" y1="164.616" x2="218.542" y2= "163.978" />
      <line id="_77287904" fill="none" stroke="black" stroke-width="0.0762" x1="216.733" y1="164.601" x2="216.06" y2= "162.648" />
     </g>
     <g id="foliole_x0020_2_x0020_bas_79">
      <path id="feuille_80" fill="#009042" stroke="black" stroke-width="0.0762" d="M218.73 167.103c-0.0092,-0.2153 -0.1191,-0.5208 -0.4961,-0.7879 -0.3771,-0.267 -0.681,-0.238 -0.869,-0.1673 -0.0247,0.2031 0.1002,0.4942 0.4772,0.7613 0.377,0.267 0.7372,0.2774 0.8879,0.1939z"/>
      <path id="feuille_81" fill="#009042" stroke="black" stroke-width="0.0762" d="M218.95 165.492c-0.1383,-0.1566 -0.4139,-0.3182 -0.885,-0.2829 -0.471,0.0353 -0.7025,0.2482 -0.8136,0.4197 0.1032,0.1688 0.3822,0.3101 0.8533,0.2748 0.4711,-0.0353 0.7725,-0.2538 0.8453,-0.4116z"/>
      <path id="feuille_82" fill="#009042" stroke="black" stroke-width="0.0762" d="M216.906 167.695c0.1647,-0.1453 0.3446,-0.4305 0.3457,-0.9092 0.0011,-0.4787 -0.1908,-0.7083 -0.3511,-0.8166 -0.174,0.1099 -0.3343,0.3981 -0.3354,0.8768 -0.0011,0.4787 0.1911,0.7794 0.3408,0.849z"/>
      <polyline id="petiolule1_83" fill="none" stroke="black" stroke-width="0.0762" points="218.567,167.01 217.35,166.172 216.545,165.208 "/>
      <line id="_67102440" fill="none" stroke="black" stroke-width="0.0762" x1="216.918" y1="165.644" x2="218.813" y2= "165.532" />
      <line id="_67102248" fill="none" stroke="black" stroke-width="0.0762" x1="216.924" y1="165.656" x2="216.909" y2= "167.582" />
     </g>
    </g>
    <g id="foliole_x0020_2_x0020_gauche">
     <path id="feuille_84" fill="#009042" stroke="black" stroke-width="0.0762" d="M204.574 158.709c0.0328,-0.2193 0.1801,-0.5252 0.6018,-0.7773 0.4217,-0.2521 0.7355,-0.2059 0.924,-0.1235 0.0039,0.2088 -0.1574,0.4991 -0.5791,0.7512 -0.4217,0.2521 -0.7984,0.243 -0.9467,0.1496z"/>
     <path id="feuille_85" fill="#009042" stroke="black" stroke-width="0.0762" d="M206.021 159.101c0.0327,-0.2193 0.18,-0.5252 0.6017,-0.7772 0.4217,-0.2521 0.7356,-0.206 0.924,-0.1236 0.004,0.2088 -0.1574,0.4992 -0.5791,0.7513 -0.4217,0.2521 -0.7984,0.2429 -0.9466,0.1495z"/>
     <path id="feuille_86" fill="#009042" stroke="black" stroke-width="0.0762" d="M205.361 155.833c0.1487,0.0134 0.5275,0.1821 0.7703,0.6092 0.2428,0.4271 0.1833,0.7493 0.0968,0.9359 -0.2088,-0.0007 -0.5139,-0.1568 -0.7567,-0.5839 -0.2428,-0.4271 -0.2071,-0.8151 -0.1104,-0.9612z"/>
     <path id="feuille_87" fill="#009042" stroke="black" stroke-width="0.0762" d="M206.778 156.196c0.1487,0.0134 0.5275,0.1821 0.7703,0.6092 0.2428,0.4272 0.1833,0.7493 0.0968,0.9359 -0.2088,-0.0006 -0.5139,-0.1567 -0.7567,-0.5838 -0.2428,-0.4272 -0.2071,-0.8152 -0.1104,-0.9613z"/>
     <path id="feuille_x0020_terminale_88" fill="#009042" stroke="black" stroke-width="0.0762" d="M203.853 157c0.1782,-0.1319 0.4987,-0.2438 0.9751,-0.1237 0.4764,0.1202 0.6656,0.3748 0.7405,0.5664 -0.1449,0.1503 -0.4644,0.2414 -0.9408,0.1213 -0.4764,-0.1202 -0.7362,-0.3931 -0.7748,-0.564z"/>
     <polygon id="petiolule_x0020_large_89" fill="#009042" stroke="black" stroke-width="0.0762" stroke-linejoin="bevel" points="204.101,157.037 212.011,159.125 "/>
     <line id="petiolule5_90" fill="none" stroke="black" stroke-width="0.0762" x1="205.405" y1="155.922" x2="206.372" y2= "157.644" />
     <line id="petiolule4_91" fill="none" stroke="black" stroke-width="0.0762" x1="206.837" y1="156.303" x2="207.805" y2= "158.025" />
     <line id="petiolule5_92" fill="none" stroke="black" stroke-width="0.0762" x1="204.669" y1="158.639" x2="206.378" y2= "157.648" />
     <line id="petiolule4_93" fill="none" stroke="black" stroke-width="0.0762" x1="206.105" y1="159.03" x2="207.814" y2= "158.039" />
     <g id="foliole_x0020_2_x0020_haut_94">
      <path id="feuille_95" fill="#009042" stroke="black" stroke-width="0.0762" d="M208.898 155.911c-0.0671,0.2227 -0.0688,0.5771 0.2011,0.9984 0.2699,0.4212 0.5738,0.5123 0.7804,0.515 0.0955,-0.197 0.0777,-0.5427 -0.1921,-0.9639 -0.2699,-0.4213 -0.6143,-0.5747 -0.7894,-0.5495z"/>
      <path id="feuille_96" fill="#009042" stroke="black" stroke-width="0.0762" d="M208.116 157.464c0.0783,0.2142 0.2875,0.4879 0.755,0.6388 0.4676,0.151 0.7663,0.0262 0.9343,-0.1042 -0.0401,-0.2127 -0.2598,-0.4672 -0.7273,-0.6181 -0.4676,-0.1509 -0.836,-0.0481 -0.962,0.0835z"/>
      <path id="feuille_97" fill="#009042" stroke="black" stroke-width="0.0762" d="M210.869 156.033c-0.2105,0.0825 -0.485,0.3013 -0.6552,0.7879 -0.1701,0.4866 -0.0658,0.7963 0.0508,0.9701 0.2069,-0.0428 0.4636,-0.2725 0.6337,-0.7591 0.1701,-0.4866 0.0907,-0.8687 -0.0293,-0.9989z"/>
      <polyline id="petiolule1_98" fill="none" stroke="black" stroke-width="0.0762" points="209.022,156.071 209.902,157.407 210.339,158.706 "/>
      <line id="_77210864" fill="none" stroke="black" stroke-width="0.0762" x1="210.133" y1="158.115" x2="208.263" y2= "157.477" />
      <line id="_66914768" fill="none" stroke="black" stroke-width="0.0762" x1="210.131" y1="158.1" x2="210.826" y2= "156.147" />
     </g>
     <g id="foliole_x0020_2_x0020_bas_99">
      <path id="feuille_100" fill="#009042" stroke="black" stroke-width="0.0762" d="M208.069 160.602c0.0095,-0.2153 0.123,-0.5208 0.5123,-0.7878 0.3893,-0.2671 0.7032,-0.2381 0.8974,-0.1674 0.0254,0.2032 -0.1035,0.4943 -0.4928,0.7613 -0.3893,0.2671 -0.7613,0.2774 -0.9169,0.1939z"/>
      <path id="feuille_101" fill="#009042" stroke="black" stroke-width="0.0762" d="M207.843 158.99c0.1428,-0.1567 0.4273,-0.3182 0.9138,-0.2829 0.4864,0.0353 0.7254,0.2481 0.8402,0.4196 -0.1066,0.1689 -0.3948,0.3102 -0.8812,0.2749 -0.4864,-0.0353 -0.7977,-0.2539 -0.8728,-0.4116z"/>
      <path id="feuille_102" fill="#009042" stroke="black" stroke-width="0.0762" d="M209.953 161.194c-0.1701,-0.1453 -0.3559,-0.4305 -0.357,-0.9092 -0.0011,-0.4787 0.197,-0.7083 0.3626,-0.8165 0.1797,0.1099 0.3452,0.3981 0.3463,0.8768 0.0011,0.4786 -0.1973,0.7793 -0.3519,0.8489z"/>
      <polyline id="petiolule1_103" fill="none" stroke="black" stroke-width="0.0762" points="208.237,160.509 209.494,159.67 210.326,158.707 "/>
      <line id="_76841432" fill="none" stroke="black" stroke-width="0.0762" x1="209.941" y1="159.143" x2="207.984" y2= "159.031" />
      <line id="_77809736" fill="none" stroke="black" stroke-width="0.0762" x1="209.934" y1="159.155" x2="209.95" y2= "161.08" />
     </g>
    </g>
    <g id="foliole_x0020_2_x0020_droite">
     <path id="feuille_104" fill="#009042" stroke="black" stroke-width="0.0762" d="M219.305 158.709c-0.0314,-0.2193 -0.1729,-0.5252 -0.5779,-0.7773 -0.405,-0.2521 -0.7064,-0.2059 -0.8874,-0.1235 -0.0038,0.2088 0.1512,0.4991 0.5562,0.7512 0.405,0.2521 0.7667,0.243 0.9091,0.1496z"/>
     <path id="feuille_105" fill="#009042" stroke="black" stroke-width="0.0762" d="M217.914 159.101c-0.0314,-0.2193 -0.1729,-0.5252 -0.5779,-0.7772 -0.405,-0.2521 -0.7064,-0.206 -0.8874,-0.1236 -0.0038,0.2088 0.1512,0.4992 0.5562,0.7513 0.405,0.2521 0.7668,0.2429 0.9091,0.1495z"/>
     <path id="feuille_106" fill="#009042" stroke="black" stroke-width="0.0762" d="M218.549 155.833c-0.1428,0.0134 -0.5066,0.1821 -0.7398,0.6092 -0.2331,0.4271 -0.176,0.7493 -0.0929,0.9359 0.2005,-0.0007 0.4935,-0.1568 0.7267,-0.5839 0.2332,-0.4271 0.1989,-0.8151 0.106,-0.9612z"/>
     <path id="feuille_107" fill="#009042" stroke="black" stroke-width="0.0762" d="M217.188 156.196c-0.1428,0.0134 -0.5066,0.1821 -0.7398,0.6092 -0.2332,0.4272 -0.176,0.7493 -0.0929,0.9359 0.2005,-0.0006 0.4935,-0.1567 0.7266,-0.5838 0.2332,-0.4272 0.1989,-0.8152 0.1061,-0.9613z"/>
     <path id="feuille_x0020_terminale_108" fill="#009042" stroke="black" stroke-width="0.0762" d="M219.997 157c-0.1712,-0.1319 -0.479,-0.2438 -0.9365,-0.1237 -0.4575,0.1202 -0.6392,0.3748 -0.7111,0.5664 0.1391,0.1503 0.4459,0.2414 0.9034,0.1213 0.4576,-0.1202 0.7071,-0.3931 0.7442,-0.564z"/>
     <polygon id="petiolule_x0020_large_109" fill="#009042" stroke="black" stroke-width="0.0762" stroke-linejoin="bevel" points="219.759,157.037 212.143,159.169 "/>
     <line id="petiolule5_110" fill="none" stroke="black" stroke-width="0.0762" x1="218.507" y1="155.922" x2="217.577" y2= "157.644" />
     <line id="petiolule4_111" fill="none" stroke="black" stroke-width="0.0762" x1="217.131" y1="156.303" x2="216.201" y2= "158.025" />
     <line id="petiolule5_112" fill="none" stroke="black" stroke-width="0.0762" x1="219.213" y1="158.639" x2="217.572" y2= "157.648" />
     <line id="petiolule4_113" fill="none" stroke="black" stroke-width="0.0762" x1="217.834" y1="159.03" x2="216.193" y2= "158.039" />
     <g id="foliole_x0020_2_x0020_haut_114">
      <path id="feuille_115" fill="#009042" stroke="black" stroke-width="0.0762" d="M215.152 155.911c0.0644,0.2227 0.066,0.5771 -0.1931,0.9984 -0.2592,0.4212 -0.5511,0.5123 -0.7495,0.515 -0.0918,-0.197 -0.0747,-0.5427 0.1845,-0.9639 0.2592,-0.4213 0.5899,-0.5747 0.7581,-0.5495z"/>
      <path id="feuille_116" fill="#009042" stroke="black" stroke-width="0.0762" d="M215.902 157.464c-0.0752,0.2142 -0.276,0.4879 -0.7251,0.6388 -0.449,0.151 -0.7359,0.0262 -0.8972,-0.1042 0.0385,-0.2127 0.2495,-0.4672 0.6985,-0.6181 0.449,-0.1509 0.8028,-0.0481 0.9238,0.0835z"/>
      <path id="feuille_117" fill="#009042" stroke="black" stroke-width="0.0762" d="M213.259 156.033c0.2022,0.0825 0.4658,0.3013 0.6292,0.7879 0.1634,0.4866 0.0633,0.7963 -0.0487,0.9701 -0.1988,-0.0428 -0.4452,-0.2725 -0.6086,-0.7591 -0.1634,-0.4866 -0.0871,-0.8687 0.0281,-0.9989z"/>
      <polyline id="petiolule1_118" fill="none" stroke="black" stroke-width="0.0762" points="215.033,156.071 214.188,157.407 213.768,158.706 "/>
      <line id="_76673304" fill="none" stroke="black" stroke-width="0.0762" x1="213.966" y1="158.115" x2="215.761" y2= "157.477" />
      <line id="_76684696" fill="none" stroke="black" stroke-width="0.0762" x1="213.967" y1="158.1" x2="213.3" y2= "156.147" />
     </g>
     <g id="foliole_x0020_2_x0020_bas_119">
      <path id="feuille_120" fill="#009042" stroke="black" stroke-width="0.0762" d="M215.948 160.602c-0.0092,-0.2153 -0.1182,-0.5208 -0.4921,-0.7878 -0.3738,-0.2671 -0.6753,-0.2381 -0.8617,-0.1674 -0.0245,0.2032 0.0993,0.4943 0.4732,0.7613 0.3739,0.2671 0.7311,0.2774 0.8806,0.1939z"/>
      <path id="feuille_121" fill="#009042" stroke="black" stroke-width="0.0762" d="M216.165 158.99c-0.1372,-0.1567 -0.4104,-0.3182 -0.8776,-0.2829 -0.4671,0.0353 -0.6967,0.2481 -0.8069,0.4196 0.1024,0.1689 0.3791,0.3102 0.8463,0.2749 0.4671,-0.0353 0.766,-0.2539 0.8382,-0.4116z"/>
      <path id="feuille_122" fill="#009042" stroke="black" stroke-width="0.0762" d="M214.138 161.194c0.1634,-0.1453 0.3418,-0.4305 0.3429,-0.9092 0.0011,-0.4787 -0.1892,-0.7083 -0.3482,-0.8165 -0.1726,0.1099 -0.3315,0.3981 -0.3326,0.8768 -0.0011,0.4786 0.1895,0.7793 0.3379,0.8489z"/>
      <polyline id="petiolule1_123" fill="none" stroke="black" stroke-width="0.0762" points="215.786,160.509 214.579,159.67 213.781,158.707 "/>
      <line id="_76458368" fill="none" stroke="black" stroke-width="0.0762" x1="214.15" y1="159.143" x2="216.029" y2= "159.031" />
      <line id="_76458048" fill="none" stroke="black" stroke-width="0.0762" x1="214.157" y1="159.155" x2="214.142" y2= "161.08" />
     </g>
    </g>
    <g id="foliole_x0020_2_x0020_gauche_124">
     <path id="feuille_125" fill="#009042" stroke="black" stroke-width="0.0762" d="M207.744 154.874c0.0327,-0.2193 0.18,-0.5252 0.6017,-0.7773 0.4217,-0.252 0.7355,-0.2059 0.924,-0.1235 0.0039,0.2088 -0.1574,0.4992 -0.5791,0.7513 -0.4217,0.252 -0.7984,0.2429 -0.9466,0.1495z"/>
     <path id="feuille_126" fill="#009042" stroke="black" stroke-width="0.0762" d="M209.191 155.266c0.0327,-0.2193 0.18,-0.5251 0.6017,-0.7772 0.4217,-0.2521 0.7356,-0.2059 0.9241,-0.1235 0.0039,0.2087 -0.1575,0.4991 -0.5792,0.7512 -0.4217,0.2521 -0.7984,0.243 -0.9466,0.1495z"/>
     <path id="feuille_127" fill="#009042" stroke="black" stroke-width="0.0762" d="M208.531 151.998c0.1487,0.0134 0.5275,0.1821 0.7703,0.6092 0.2428,0.4271 0.1833,0.7493 0.0968,0.9359 -0.2088,-0.0006 -0.5139,-0.1567 -0.7567,-0.5839 -0.2428,-0.4271 -0.2071,-0.8151 -0.1104,-0.9612z"/>
     <path id="feuille_128" fill="#009042" stroke="black" stroke-width="0.0762" d="M209.948 152.361c0.1487,0.0134 0.5275,0.1821 0.7703,0.6093 0.2428,0.4271 0.1833,0.7492 0.0968,0.9359 -0.2088,-0.0007 -0.5139,-0.1568 -0.7567,-0.5839 -0.2428,-0.4271 -0.2071,-0.8151 -0.1104,-0.9613z"/>
     <path id="feuille_x0020_terminale_129" fill="#009042" stroke="black" stroke-width="0.0762" d="M207.023 153.165c0.1782,-0.1318 0.4987,-0.2438 0.9751,-0.1237 0.4764,0.1202 0.6656,0.3748 0.7405,0.5664 -0.1449,0.1504 -0.4644,0.2414 -0.9408,0.1213 -0.4764,-0.1202 -0.7362,-0.3931 -0.7748,-0.564z"/>
     <polygon id="petiolule_x0020_large_130" fill="#009042" stroke="black" stroke-width="0.0762" stroke-linejoin="bevel" points="207.271,153.202 212.024,154.473 "/>
     <line id="petiolule5_131" fill="none" stroke="black" stroke-width="0.0762" x1="208.575" y1="152.087" x2="209.542" y2= "153.809" />
     <line id="petiolule4_132" fill="none" stroke="black" stroke-width="0.0762" x1="210.007" y1="152.468" x2="210.975" y2= "154.19" />
     <line id="petiolule5_133" fill="none" stroke="black" stroke-width="0.0762" x1="207.839" y1="154.804" x2="209.548" y2= "153.813" />
     <line id="petiolule4_134" fill="none" stroke="black" stroke-width="0.0762" x1="209.275" y1="155.195" x2="210.984" y2= "154.204" />
    </g>
    <g id="foliole_x0020_2_x0020_gauche_135">
     <path id="feuille_136" fill="#009042" stroke="black" stroke-width="0.0762" d="M216.34 154.894c-0.0322,-0.2193 -0.1772,-0.5251 -0.5924,-0.7772 -0.4152,-0.2521 -0.7242,-0.2059 -0.9098,-0.1235 -0.0039,0.2087 0.155,0.4991 0.5702,0.7512 0.4152,0.2521 0.7861,0.243 0.932,0.1495z"/>
     <path id="feuille_137" fill="#009042" stroke="black" stroke-width="0.0762" d="M214.915 155.286c-0.0322,-0.2192 -0.1773,-0.5251 -0.5925,-0.7772 -0.4152,-0.2521 -0.7242,-0.2059 -0.9098,-0.1235 -0.0038,0.2088 0.155,0.4991 0.5702,0.7512 0.4152,0.2521 0.7861,0.243 0.9321,0.1495z"/>
     <path id="feuille_138" fill="#009042" stroke="black" stroke-width="0.0762" d="M215.565 152.018c-0.1464,0.0134 -0.5194,0.1821 -0.7584,0.6092 -0.2391,0.4272 -0.1805,0.7493 -0.0953,0.9359 0.2056,-0.0006 0.5059,-0.1567 0.745,-0.5838 0.239,-0.4272 0.2039,-0.8152 0.1087,-0.9613z"/>
     <path id="feuille_139" fill="#009042" stroke="black" stroke-width="0.0762" d="M214.17 152.382c-0.1464,0.0134 -0.5194,0.1821 -0.7584,0.6092 -0.2391,0.4271 -0.1805,0.7493 -0.0953,0.9359 0.2056,-0.0007 0.506,-0.1568 0.745,-0.5839 0.2391,-0.4271 0.2039,-0.8151 0.1087,-0.9612z"/>
     <path id="feuille_x0020_terminale_140" fill="#009042" stroke="black" stroke-width="0.0762" d="M217.05 153.185c-0.1755,-0.1318 -0.4911,-0.2438 -0.9601,-0.1236 -0.4691,0.1201 -0.6553,0.3748 -0.7291,0.5663 0.1427,0.1504 0.4572,0.2415 0.9263,0.1213 0.469,-0.1201 0.7248,-0.3931 0.7629,-0.564z"/>
     <polygon id="petiolule_x0020_large_141" fill="#009042" stroke="black" stroke-width="0.0762" stroke-linejoin="bevel" points="216.806,153.222 212.106,154.505 "/>
     <line id="petiolule5_142" fill="none" stroke="black" stroke-width="0.0762" x1="215.522" y1="152.107" x2="214.569" y2= "153.83" />
     <line id="petiolule4_143" fill="none" stroke="black" stroke-width="0.0762" x1="214.112" y1="152.488" x2="213.159" y2= "154.21" />
     <line id="petiolule5_144" fill="none" stroke="black" stroke-width="0.0762" x1="216.246" y1="154.824" x2="214.564" y2= "153.833" />
     <line id="petiolule4_145" fill="none" stroke="black" stroke-width="0.0762" x1="214.833" y1="155.215" x2="213.15" y2= "154.224" />
    </g>
    <g id="folioles_x0020_terminales">
     <path id="feuille_x0020_terminale_146" fill="#009042" stroke="black" stroke-width="0.0762" d="M214.377 151.283c-0.195,-0.1465 -0.5456,-0.2709 -1.0667,-0.1374 -0.5211,0.1335 -0.728,0.4164 -0.81,0.6292 0.1586,0.1671 0.508,0.2683 1.0291,0.1348 0.5211,-0.1335 0.8053,-0.4367 0.8476,-0.6266z"/>
     <path id="feuille_x0020_terminale_147" fill="#009042" stroke="black" stroke-width="0.0762" d="M214.199 150.196c-0.181,-0.136 -0.5066,-0.2515 -0.9904,-0.1275 -0.4839,0.1239 -0.676,0.3866 -0.7521,0.5842 0.1471,0.1551 0.4716,0.2491 0.9555,0.1252 0.4839,-0.124 0.7478,-0.4056 0.787,-0.5819z"/>
     <path id="feuille_x0020_terminale_148" fill="#009042" stroke="black" stroke-width="0.0762" d="M214.02 149.199c-0.1671,-0.1255 -0.4676,-0.2321 -0.9143,-0.1177 -0.4466,0.1144 -0.624,0.3569 -0.6942,0.5393 0.1358,0.1432 0.4353,0.2299 0.882,0.1155 0.4467,-0.1144 0.6902,-0.3743 0.7265,-0.5371z"/>
     <path id="feuille_x0020_terminale_149" fill="#009042" stroke="black" stroke-width="0.0762" d="M212.08 147.026c-0.1926,0.1667 -0.4046,0.5051 -0.4125,1.0965 -0.0079,0.5914 0.2109,0.8902 0.3949,1.0365 0.2028,-0.1222 0.3922,-0.4658 0.4,-1.0573 0.0079,-0.5914 -0.2102,-0.9779 -0.3824,-1.0757z"/>
     <path id="feuille_x0020_terminale_150" fill="#009042" stroke="black" stroke-width="0.0762" d="M209.746 151.483c0.1828,-0.1613 0.5222,-0.3128 1.0518,-0.2206 0.5296,0.0923 0.7579,0.3581 0.8562,0.5638 -0.1448,0.179 -0.485,0.3072 -1.0145,0.215 -0.5296,-0.0922 -0.8365,-0.3723 -0.8935,-0.5582z"/>
     <path id="feuille_x0020_terminale_151" fill="#009042" stroke="black" stroke-width="0.0762" d="M209.963 150.445c0.1568,-0.1556 0.4539,-0.3072 0.9304,-0.2389 0.4765,0.0682 0.6909,0.3073 0.7868,0.495 -0.1222,0.1706 -0.4209,0.3007 -0.8974,0.2325 -0.4765,-0.0683 -0.7616,-0.318 -0.8198,-0.4886z"/>
     <path id="feuille_x0020_terminale_152" fill="#009042" stroke="black" stroke-width="0.0762" d="M210.082 149.288c0.163,-0.1323 0.461,-0.2511 0.9151,-0.1551 0.4541,0.0959 0.6424,0.3309 0.7205,0.5103 -0.1309,0.1487 -0.4287,0.2476 -0.8828,0.1516 -0.454,-0.0959 -0.7097,-0.3456 -0.7528,-0.5068z"/>
     <line id="_77347160" fill="none" stroke="black" stroke-width="0.0762" x1="212.078" y1="151.888" x2="214.186" y2= "151.339" />
     <line id="_77346872" fill="none" stroke="black" stroke-width="0.0762" x1="212.078" y1="150.769" x2="213.983" y2= "150.285" />
     <line id="_66922664" fill="none" stroke="black" stroke-width="0.0762" x1="212.081" y1="149.717" x2="213.852" y2= "149.255" />
     <line id="_27616848" fill="none" stroke="black" stroke-width="0.0762" x1="209.92" y1="151.535" x2="212.034" y2= "151.875" />
     <line id="_76607560" fill="none" stroke="black" stroke-width="0.0762" x1="210.138" y1="150.483" x2="212.062" y2= "150.765" />
     <line id="_76607400" fill="none" stroke="black" stroke-width="0.0762" x1="212.059" y1="149.707" x2="210.262" y2= "149.376" />
     <line id="_76536896" fill="none" stroke="black" stroke-width="0.0762" x1="212.068" y1="149.36" x2="212.064" y2= "147.241" />
    </g>
    <path id="pétiole_153" fill="#009042" stroke="black" stroke-width="0.0762" d="M211.768 174.741c0.0626,0.0473 0.4729,0.0871 0.5884,0.0797l-0.1518 -1.1408 0 -12.1729 -0.139 -13.2067c-0.1783,4.3312 -0.1379,21.322 -0.1379,25.3797 0,0.3706 -0.0639,0.7065 -0.1597,1.061z"/>
   </g>
   <g id="F_bip" onclick="parent.replacechar('F_bip')" onmousemove="parent.showtooltip('F_bip', 'Bipinnate')" onmouseout="parent.hidetooltip('F_bip')" cursor="pointer" >
    <g id="rameau_x0020_gauche1">
     <polygon id="petiolule_154" fill="#009042" stroke="black" stroke-width="0.0762" stroke-linejoin="bevel" points="146.748,148.523 155.127,156.942 "/>
     <g>
      <ellipse id="_66841016" fill="#009042" stroke="black" stroke-width="0.0762" cx="146.767" cy="147.236" rx="0.350157" ry="0.955673"/>
      <line id="_66840696" fill="none" stroke="black" stroke-width="0.0762" x1="146.782" y1="146.415" x2="146.752" y2= "148.531" />
     </g>
     <g>
      <ellipse id="_76746176" fill="#009042" stroke="black" stroke-width="0.0762" cx="147.88" cy="148.344" rx="0.350157" ry="0.955673"/>
      <line id="_76715352" fill="none" stroke="black" stroke-width="0.0762" x1="147.896" y1="147.522" x2="147.865" y2= "149.639" />
     </g>
     <g>
      <ellipse id="_76580832" fill="#009042" stroke="black" stroke-width="0.0762" cx="149.031" cy="149.516" rx="0.350157" ry="0.955673"/>
      <line id="_76580712" fill="none" stroke="black" stroke-width="0.0762" x1="149.047" y1="148.694" x2="149.016" y2= "150.811" />
     </g>
     <g>
      <ellipse id="_76874440" fill="#009042" stroke="black" stroke-width="0.0762" cx="150.026" cy="150.503" rx="0.350157" ry="0.955673"/>
      <line id="_76928728" fill="none" stroke="black" stroke-width="0.0762" x1="150.042" y1="149.682" x2="150.011" y2= "151.798" />
     </g>
     <g>
      <ellipse id="_76928544" fill="#009042" stroke="black" stroke-width="0.0762" cx="151.149" cy="151.627" rx="0.350157" ry="0.955673"/>
      <line id="_77177416" fill="none" stroke="black" stroke-width="0.0762" x1="151.164" y1="150.806" x2="151.133" y2= "152.922" />
     </g>
     <g>
      <ellipse id="_76464360" fill="#009042" stroke="black" stroke-width="0.0762" cx="152.193" cy="152.702" rx="0.350157" ry="0.955673"/>
      <line id="_76640896" fill="none" stroke="black" stroke-width="0.0762" x1="152.208" y1="151.881" x2="152.178" y2= "153.997" />
     </g>
     <g>
      <ellipse id="_76705752" fill="#009042" stroke="black" stroke-width="0.0762" cx="153.315" cy="153.817" rx="0.350157" ry="0.955673"/>
      <line id="_76705432" fill="none" stroke="black" stroke-width="0.0762" x1="153.331" y1="152.995" x2="153.3" y2= "155.112" />
     </g>
     <g>
      <ellipse id="_76435528" fill="#009042" stroke="black" stroke-width="0.0762" cx="154.232" cy="154.735" rx="0.350157" ry="0.955673"/>
      <line id="_76883976" fill="none" stroke="black" stroke-width="0.0762" x1="154.248" y1="153.914" x2="154.217" y2= "156.031" />
     </g>
     <g>
      <ellipse id="_76562856" fill="#009042" stroke="black" stroke-width="0.0762" transform="matrix(-0.0061169 -0.447901 0.494557 -0.00675407 145.459 148.534)" rx="0.7817" ry="1.9322"/>
      <line id="_77171528" fill="none" stroke="black" stroke-width="0.0762" x1="144.638" y1="148.53" x2="146.754" y2= "148.532" />
     </g>
     <g>
      <ellipse id="_66518408" fill="#009042" stroke="black" stroke-width="0.0762" transform="matrix(-0.0061169 -0.447901 0.494557 -0.00675407 146.574 149.65)" rx="0.7817" ry="1.9322"/>
      <line id="_76857472" fill="none" stroke="black" stroke-width="0.0762" x1="145.753" y1="149.645" x2="147.869" y2= "149.647" />
     </g>
     <g>
      <ellipse id="_76695776" fill="#009042" stroke="black" stroke-width="0.0762" transform="matrix(-0.0061169 -0.447901 0.494557 -0.00675407 147.715 150.808)" rx="0.7817" ry="1.9322"/>
      <line id="_67227256" fill="none" stroke="black" stroke-width="0.0762" x1="146.893" y1="150.804" x2="149.01" y2= "150.806" />
     </g>
     <g>
      <ellipse id="_76893800" fill="#009042" stroke="black" stroke-width="0.0762" transform="matrix(-0.0061169 -0.447901 0.494557 -0.00675407 148.719 151.807)" rx="0.7817" ry="1.9322"/>
      <line id="_76893680" fill="none" stroke="black" stroke-width="0.0762" x1="147.898" y1="151.803" x2="150.015" y2= "151.805" />
     </g>
     <g>
      <ellipse id="_77297848" fill="#009042" stroke="black" stroke-width="0.0762" transform="matrix(-0.0061169 -0.447901 0.494557 -0.00675407 149.839 152.942)" rx="0.7817" ry="1.9322"/>
      <line id="_76432392" fill="none" stroke="black" stroke-width="0.0762" x1="149.018" y1="152.938" x2="151.134" y2= "152.94" />
     </g>
     <g>
      <ellipse id="_76576696" fill="#009042" stroke="black" stroke-width="0.0762" transform="matrix(-0.0061169 -0.447901 0.494557 -0.00675407 150.882 153.989)" rx="0.7817" ry="1.9322"/>
      <line id="_66445368" fill="none" stroke="black" stroke-width="0.0762" x1="150.061" y1="153.984" x2="152.177" y2= "153.986" />
     </g>
     <g>
      <ellipse id="_76821952" fill="#009042" stroke="black" stroke-width="0.0762" transform="matrix(-0.0061169 -0.447901 0.494557 -0.00675407 152.006 155.108)" rx="0.7817" ry="1.9322"/>
      <line id="_77803952" fill="none" stroke="black" stroke-width="0.0762" x1="151.185" y1="155.104" x2="153.301" y2= "155.106" />
     </g>
     <g>
      <ellipse id="_63155960" fill="#009042" stroke="black" stroke-width="0.0762" transform="matrix(-0.0061169 -0.447901 0.494557 -0.00675407 152.911 156.031)" rx="0.7817" ry="1.9322"/>
      <line id="_65754032" fill="none" stroke="black" stroke-width="0.0762" x1="152.09" y1="156.027" x2="154.206" y2= "156.029" />
     </g>
    </g>
    <g id="rameau_x0020_droite1">
     <polygon id="petiolule_155" fill="#009042" stroke="black" stroke-width="0.0762" stroke-linejoin="bevel" points="163.531,148.449 155.132,156.894 "/>
     <g>
      <ellipse id="_65752632" fill="#009042" stroke="black" stroke-width="0.0762" cx="163.514" cy="147.161" rx="0.350157" ry="0.955673"/>
      <line id="_77338664" fill="none" stroke="black" stroke-width="0.0762" x1="163.498" y1="146.339" x2="163.529" y2= "148.456" />
     </g>
     <g>
      <ellipse id="_66489968" fill="#009042" stroke="black" stroke-width="0.0762" cx="162.4" cy="148.268" rx="0.350157" ry="0.955673"/>
      <line id="_76822360" fill="none" stroke="black" stroke-width="0.0762" x1="162.385" y1="147.447" x2="162.416" y2= "149.563" />
     </g>
     <g>
      <ellipse id="_76430968" fill="#009042" stroke="black" stroke-width="0.0762" cx="161.25" cy="149.44" rx="0.350157" ry="0.955673"/>
      <line id="_66257528" fill="none" stroke="black" stroke-width="0.0762" x1="161.234" y1="148.619" x2="161.265" y2= "150.735" />
     </g>
     <g>
      <ellipse id="_66741088" fill="#009042" stroke="black" stroke-width="0.0762" cx="160.254" cy="150.427" rx="0.350157" ry="0.955673"/>
      <line id="_66254568" fill="none" stroke="black" stroke-width="0.0762" x1="160.239" y1="149.606" x2="160.269" y2= "151.722" />
     </g>
     <g>
      <ellipse id="_76542184" fill="#009042" stroke="black" stroke-width="0.0762" cx="159.132" cy="151.551" rx="0.350157" ry="0.955673"/>
      <line id="_76415096" fill="none" stroke="black" stroke-width="0.0762" x1="159.116" y1="150.73" x2="159.147" y2= "152.846" />
     </g>
     <g>
      <ellipse id="_76800192" fill="#009042" stroke="black" stroke-width="0.0762" cx="158.088" cy="152.627" rx="0.350157" ry="0.955673"/>
      <line id="_76750280" fill="none" stroke="black" stroke-width="0.0762" x1="158.072" y1="151.805" x2="158.103" y2= "153.922" />
     </g>
     <g>
      <ellipse id="_76570040" fill="#009042" stroke="black" stroke-width="0.0762" cx="156.965" cy="153.741" rx="0.350157" ry="0.955673"/>
      <line id="_76688912" fill="none" stroke="black" stroke-width="0.0762" x1="156.95" y1="152.92" x2="156.981" y2= "155.036" />
     </g>
     <g>
      <ellipse id="_76587408" fill="#009042" stroke="black" stroke-width="0.0762" cx="156.048" cy="154.66" rx="0.350157" ry="0.955673"/>
      <line id="_65792352" fill="none" stroke="black" stroke-width="0.0762" x1="156.033" y1="153.838" x2="156.063" y2= "155.955" />
     </g>
     <g>
      <ellipse id="_76762336" fill="#009042" stroke="black" stroke-width="0.0762" transform="matrix(0.0061169 -0.447901 -0.494557 -0.00675407 164.821 148.459)" rx="0.7817" ry="1.9322"/>
      <line id="_76949304" fill="none" stroke="black" stroke-width="0.0762" x1="165.643" y1="148.454" x2="163.526" y2= "148.456" />
     </g>
     <g>
      <ellipse id="_77180816" fill="#009042" stroke="black" stroke-width="0.0762" transform="matrix(0.0061169 -0.447901 -0.494557 -0.00675407 163.706 149.574)" rx="0.7817" ry="1.9322"/>
      <line id="_76564728" fill="none" stroke="black" stroke-width="0.0762" x1="164.528" y1="149.57" x2="162.411" y2= "149.571" />
     </g>
     <g>
      <ellipse id="_66290664" fill="#009042" stroke="black" stroke-width="0.0762" transform="matrix(0.0061169 -0.447901 -0.494557 -0.00675407 162.566 150.733)" rx="0.7817" ry="1.9322"/>
      <line id="_66420368" fill="none" stroke="black" stroke-width="0.0762" x1="163.387" y1="150.728" x2="161.27" y2= "150.73" />
     </g>
     <g>
      <ellipse id="_76764856" fill="#009042" stroke="black" stroke-width="0.0762" transform="matrix(0.0061169 -0.447901 -0.494557 -0.00675407 161.561 151.731)" rx="0.7817" ry="1.9322"/>
      <line id="_76701784" fill="none" stroke="black" stroke-width="0.0762" x1="162.382" y1="151.727" x2="160.266" y2= "151.729" />
     </g>
     <g>
      <ellipse id="_66814648" fill="#009042" stroke="black" stroke-width="0.0762" transform="matrix(0.0061169 -0.447901 -0.494557 -0.00675407 160.442 152.866)" rx="0.7817" ry="1.9322"/>
      <line id="_77216912" fill="none" stroke="black" stroke-width="0.0762" x1="161.263" y1="152.862" x2="159.146" y2= "152.864" />
     </g>
     <g>
      <ellipse id="_76586528" fill="#009042" stroke="black" stroke-width="0.0762" transform="matrix(0.0061169 -0.447901 -0.494557 -0.00675407 159.398 153.913)" rx="0.7817" ry="1.9322"/>
      <line id="_66455928" fill="none" stroke="black" stroke-width="0.0762" x1="160.22" y1="153.909" x2="158.103" y2= "153.91" />
     </g>
     <g>
      <ellipse id="_67148048" fill="#009042" stroke="black" stroke-width="0.0762" transform="matrix(0.0061169 -0.447901 -0.494557 -0.00675407 158.274 155.033)" rx="0.7817" ry="1.9322"/>
      <line id="_76456832" fill="none" stroke="black" stroke-width="0.0762" x1="159.096" y1="155.028" x2="156.979" y2= "155.03" />
     </g>
     <g>
      <ellipse id="_77298944" fill="#009042" stroke="black" stroke-width="0.0762" transform="matrix(0.0061169 -0.447901 -0.494557 -0.00675407 157.37 155.956)" rx="0.7817" ry="1.9322"/>
      <line id="_77298880" fill="none" stroke="black" stroke-width="0.0762" x1="158.191" y1="155.951" x2="156.074" y2= "155.953" />
     </g>
    </g>
    <g id="rameau_x0020_gauche3">
     <polygon id="petiolule_156" fill="#009042" stroke="black" stroke-width="0.0762" stroke-linejoin="bevel" points="146.892,164.29 155.071,172.509 "/>
     <g>
      <ellipse id="_77268360" fill="#009042" stroke="black" stroke-width="0.0762" cx="146.911" cy="163.003" rx="0.350157" ry="0.955673"/>
      <line id="_76510936" fill="none" stroke="black" stroke-width="0.0762" x1="146.926" y1="162.182" x2="146.895" y2= "164.298" />
     </g>
     <g>
      <ellipse id="_67163680" fill="#009042" stroke="black" stroke-width="0.0762" cx="148.024" cy="164.11" rx="0.350157" ry="0.955673"/>
      <line id="_66742240" fill="none" stroke="black" stroke-width="0.0762" x1="148.039" y1="163.289" x2="148.009" y2= "165.405" />
     </g>
     <g>
      <ellipse id="_45404456" fill="#009042" stroke="black" stroke-width="0.0762" cx="149.175" cy="165.282" rx="0.350157" ry="0.955673"/>
      <line id="_76769096" fill="none" stroke="black" stroke-width="0.0762" x1="149.19" y1="164.461" x2="149.16" y2= "166.577" />
     </g>
     <g>
      <ellipse id="_76975984" fill="#009042" stroke="black" stroke-width="0.0762" cx="150.17" cy="166.269" rx="0.350157" ry="0.955673"/>
      <line id="_66490088" fill="none" stroke="black" stroke-width="0.0762" x1="150.186" y1="165.448" x2="150.155" y2= "167.565" />
     </g>
     <g>
      <ellipse id="_76951600" fill="#009042" stroke="black" stroke-width="0.0762" cx="151.292" cy="167.394" rx="0.350157" ry="0.955673"/>
      <line id="_65729672" fill="none" stroke="black" stroke-width="0.0762" x1="151.308" y1="166.572" x2="151.277" y2= "168.689" />
     </g>
     <g>
      <ellipse id="_65717432" fill="#009042" stroke="black" stroke-width="0.0762" cx="152.336" cy="168.469" rx="0.350157" ry="0.955673"/>
      <line id="_65716728" fill="none" stroke="black" stroke-width="0.0762" x1="152.352" y1="167.647" x2="152.321" y2= "169.764" />
     </g>
     <g>
      <ellipse id="_76748240" fill="#009042" stroke="black" stroke-width="0.0762" cx="153.459" cy="169.583" rx="0.350157" ry="0.955673"/>
      <line id="_27682152" fill="none" stroke="black" stroke-width="0.0762" x1="153.474" y1="168.762" x2="153.444" y2= "170.878" />
     </g>
     <g>
      <ellipse id="_65747160" fill="#009042" stroke="black" stroke-width="0.0762" cx="154.376" cy="170.502" rx="0.350157" ry="0.955673"/>
      <line id="_76510088" fill="none" stroke="black" stroke-width="0.0762" x1="154.392" y1="169.681" x2="154.361" y2= "171.797" />
     </g>
     <g>
      <ellipse id="_77330600" fill="#009042" stroke="black" stroke-width="0.0762" transform="matrix(-0.0061169 -0.447901 0.494557 -0.00675407 145.603 164.301)" rx="0.7817" ry="1.9322"/>
      <line id="_77175336" fill="none" stroke="black" stroke-width="0.0762" x1="144.781" y1="164.296" x2="146.898" y2= "164.298" />
     </g>
     <g>
      <ellipse id="_66478712" fill="#009042" stroke="black" stroke-width="0.0762" transform="matrix(-0.0061169 -0.447901 0.494557 -0.00675407 146.718 165.416)" rx="0.7817" ry="1.9322"/>
      <line id="_66892136" fill="none" stroke="black" stroke-width="0.0762" x1="145.897" y1="165.412" x2="148.013" y2= "165.414" />
     </g>
     <g>
      <ellipse id="_66528904" fill="#009042" stroke="black" stroke-width="0.0762" transform="matrix(-0.0061169 -0.447901 0.494557 -0.00675407 147.859 166.575)" rx="0.7817" ry="1.9322"/>
      <line id="_65754992" fill="none" stroke="black" stroke-width="0.0762" x1="147.037" y1="166.571" x2="149.154" y2= "166.572" />
     </g>
     <g>
      <ellipse id="_76440496" fill="#009042" stroke="black" stroke-width="0.0762" transform="matrix(-0.0061169 -0.447901 0.494557 -0.00675407 148.863 167.574)" rx="0.7817" ry="1.9322"/>
      <line id="_77817920" fill="none" stroke="black" stroke-width="0.0762" x1="148.042" y1="167.569" x2="150.158" y2= "167.571" />
     </g>
     <g>
      <ellipse id="_76666736" fill="#009042" stroke="black" stroke-width="0.0762" transform="matrix(-0.0061169 -0.447901 0.494557 -0.00675407 149.983 168.708)" rx="0.7817" ry="1.9322"/>
      <line id="_67157720" fill="none" stroke="black" stroke-width="0.0762" x1="149.161" y1="168.704" x2="151.278" y2= "168.706" />
     </g>
     <g>
      <ellipse id="_66389736" fill="#009042" stroke="black" stroke-width="0.0762" transform="matrix(-0.0061169 -0.447901 0.494557 -0.00675407 151.026 169.755)" rx="0.7817" ry="1.9322"/>
      <line id="_77286152" fill="none" stroke="black" stroke-width="0.0762" x1="150.204" y1="169.751" x2="152.321" y2= "169.753" />
     </g>
     <g>
      <ellipse id="_77220584" fill="#009042" stroke="black" stroke-width="0.0762" transform="matrix(-0.0061169 -0.447901 0.494557 -0.00675407 152.15 170.875)" rx="0.7817" ry="1.9322"/>
      <line id="_77030464" fill="none" stroke="black" stroke-width="0.0762" x1="151.328" y1="170.87" x2="153.445" y2= "170.872" />
     </g>
     <g>
      <ellipse id="_66799056" fill="#009042" stroke="black" stroke-width="0.0762" transform="matrix(-0.0061169 -0.447901 0.494557 -0.00675407 153.055 171.798)" rx="0.7817" ry="1.9322"/>
      <line id="_66799016" fill="none" stroke="black" stroke-width="0.0762" x1="152.233" y1="171.794" x2="154.35" y2= "171.796" />
     </g>
    </g>
    <g id="rameau_x0020_droite3">
     <polygon id="petiolule_157" fill="#009042" stroke="black" stroke-width="0.0762" stroke-linejoin="bevel" points="163.311,164.296 155.138,172.509 "/>
     <g>
      <ellipse id="_66390816" fill="#009042" stroke="black" stroke-width="0.0762" cx="163.298" cy="163.003" rx="0.350157" ry="0.955673"/>
      <line id="_76754744" fill="none" stroke="black" stroke-width="0.0762" x1="163.282" y1="162.182" x2="163.313" y2= "164.298" />
     </g>
     <g>
      <ellipse id="_76998024" fill="#009042" stroke="black" stroke-width="0.0762" cx="162.185" cy="164.11" rx="0.350157" ry="0.955673"/>
      <line id="_77031360" fill="none" stroke="black" stroke-width="0.0762" x1="162.169" y1="163.289" x2="162.2" y2= "165.405" />
     </g>
     <g>
      <ellipse id="_76583032" fill="#009042" stroke="black" stroke-width="0.0762" cx="161.034" cy="165.282" rx="0.350157" ry="0.955673"/>
      <line id="_67177088" fill="none" stroke="black" stroke-width="0.0762" x1="161.018" y1="164.461" x2="161.049" y2= "166.577" />
     </g>
     <g>
      <ellipse id="_66441488" fill="#009042" stroke="black" stroke-width="0.0762" cx="160.039" cy="166.269" rx="0.350157" ry="0.955673"/>
      <line id="_76910472" fill="none" stroke="black" stroke-width="0.0762" x1="160.023" y1="165.448" x2="160.054" y2= "167.565" />
     </g>
     <g>
      <ellipse id="_66732096" fill="#009042" stroke="black" stroke-width="0.0762" cx="158.916" cy="167.394" rx="0.350157" ry="0.955673"/>
      <line id="_76660688" fill="none" stroke="black" stroke-width="0.0762" x1="158.901" y1="166.572" x2="158.932" y2= "168.689" />
     </g>
     <g>
      <ellipse id="_76548192" fill="#009042" stroke="black" stroke-width="0.0762" cx="157.872" cy="168.469" rx="0.350157" ry="0.955673"/>
      <line id="_76911768" fill="none" stroke="black" stroke-width="0.0762" x1="157.857" y1="167.647" x2="157.887" y2= "169.764" />
     </g>
     <g>
      <ellipse id="_76498432" fill="#009042" stroke="black" stroke-width="0.0762" cx="156.75" cy="169.583" rx="0.350157" ry="0.955673"/>
      <line id="_76417160" fill="none" stroke="black" stroke-width="0.0762" x1="156.734" y1="168.762" x2="156.765" y2= "170.878" />
     </g>
     <g>
      <ellipse id="_77011576" fill="#009042" stroke="black" stroke-width="0.0762" cx="155.833" cy="170.502" rx="0.350157" ry="0.955673"/>
      <line id="_76423672" fill="none" stroke="black" stroke-width="0.0762" x1="155.817" y1="169.681" x2="155.848" y2= "171.797" />
     </g>
     <g>
      <ellipse id="_77285768" fill="#009042" stroke="black" stroke-width="0.0762" transform="matrix(0.0061169 -0.447901 -0.494557 -0.00675407 164.606 164.301)" rx="0.7817" ry="1.9322"/>
      <line id="_66887232" fill="none" stroke="black" stroke-width="0.0762" x1="165.427" y1="164.296" x2="163.311" y2= "164.298" />
     </g>
     <g>
      <ellipse id="_76959984" fill="#009042" stroke="black" stroke-width="0.0762" transform="matrix(0.0061169 -0.447901 -0.494557 -0.00675407 163.491 165.416)" rx="0.7817" ry="1.9322"/>
      <line id="_76959960" fill="none" stroke="black" stroke-width="0.0762" x1="164.312" y1="165.412" x2="162.195" y2= "165.414" />
     </g>
     <g>
      <ellipse id="_76683112" fill="#009042" stroke="black" stroke-width="0.0762" transform="matrix(0.0061169 -0.447901 -0.494557 -0.00675407 162.35 166.575)" rx="0.7817" ry="1.9322"/>
      <line id="_77194960" fill="none" stroke="black" stroke-width="0.0762" x1="163.171" y1="166.571" x2="161.055" y2= "166.572" />
     </g>
     <g>
      <ellipse id="_66460392" fill="#009042" stroke="black" stroke-width="0.0762" transform="matrix(0.0061169 -0.447901 -0.494557 -0.00675407 161.345 167.574)" rx="0.7817" ry="1.9322"/>
      <line id="_76843840" fill="none" stroke="black" stroke-width="0.0762" x1="162.167" y1="167.569" x2="160.05" y2= "167.571" />
     </g>
     <g>
      <ellipse id="_77333304" fill="#009042" stroke="black" stroke-width="0.0762" transform="matrix(0.0061169 -0.447901 -0.494557 -0.00675407 160.226 168.708)" rx="0.7817" ry="1.9322"/>
      <line id="_76966448" fill="none" stroke="black" stroke-width="0.0762" x1="161.047" y1="168.704" x2="158.931" y2= "168.706" />
     </g>
     <g>
      <ellipse id="_65722688" fill="#009042" stroke="black" stroke-width="0.0762" transform="matrix(0.0061169 -0.447901 -0.494557 -0.00675407 159.183 169.755)" rx="0.7817" ry="1.9322"/>
      <line id="_76636080" fill="none" stroke="black" stroke-width="0.0762" x1="160.004" y1="169.751" x2="157.887" y2= "169.753" />
     </g>
     <g>
      <ellipse id="_76668088" fill="#009042" stroke="black" stroke-width="0.0762" transform="matrix(0.0061169 -0.447901 -0.494557 -0.00675407 158.059 170.875)" rx="0.7817" ry="1.9322"/>
      <line id="_76547056" fill="none" stroke="black" stroke-width="0.0762" x1="158.88" y1="170.87" x2="156.763" y2= "170.872" />
     </g>
     <g>
      <ellipse id="_27661104" fill="#009042" stroke="black" stroke-width="0.0762" transform="matrix(0.0061169 -0.447901 -0.494557 -0.00675407 157.154 171.798)" rx="0.7817" ry="1.9322"/>
      <line id="_66832200" fill="none" stroke="black" stroke-width="0.0762" x1="157.975" y1="171.794" x2="155.859" y2= "171.796" />
     </g>
    </g>
    <g id="rameau_x0020_gauche2">
     <polygon id="petiolule_158" fill="#009042" stroke="black" stroke-width="0.0762" stroke-linejoin="bevel" points="146.77,156.261 155.009,164.546 "/>
     <g>
      <ellipse id="_66813808" fill="#009042" stroke="black" stroke-width="0.0762" cx="146.789" cy="154.974" rx="0.350157" ry="0.955673"/>
      <line id="_65831264" fill="none" stroke="black" stroke-width="0.0762" x1="146.804" y1="154.153" x2="146.774" y2= "156.269" />
     </g>
     <g>
      <ellipse id="_76953168" fill="#009042" stroke="black" stroke-width="0.0762" cx="147.902" cy="156.082" rx="0.350157" ry="0.955673"/>
      <line id="_65717968" fill="none" stroke="black" stroke-width="0.0762" x1="147.917" y1="155.26" x2="147.887" y2= "157.377" />
     </g>
     <g>
      <ellipse id="_66413096" fill="#009042" stroke="black" stroke-width="0.0762" cx="149.053" cy="157.254" rx="0.350157" ry="0.955673"/>
      <line id="_65832696" fill="none" stroke="black" stroke-width="0.0762" x1="149.068" y1="156.432" x2="149.038" y2= "158.549" />
     </g>
     <g>
      <ellipse id="_77027840" fill="#009042" stroke="black" stroke-width="0.0762" cx="150.048" cy="158.241" rx="0.350157" ry="0.955673"/>
      <line id="_77284488" fill="none" stroke="black" stroke-width="0.0762" x1="150.064" y1="157.42" x2="150.033" y2= "159.536" />
     </g>
     <g>
      <ellipse id="_66782912" fill="#009042" stroke="black" stroke-width="0.0762" cx="151.17" cy="159.365" rx="0.350157" ry="0.955673"/>
      <line id="_76544168" fill="none" stroke="black" stroke-width="0.0762" x1="151.186" y1="158.544" x2="151.155" y2= "160.66" />
     </g>
     <g>
      <ellipse id="_76766952" fill="#009042" stroke="black" stroke-width="0.0762" cx="152.215" cy="160.44" rx="0.350157" ry="0.955673"/>
      <line id="_77178896" fill="none" stroke="black" stroke-width="0.0762" x1="152.23" y1="159.619" x2="152.199" y2= "161.735" />
     </g>
     <g>
      <ellipse id="_67166464" fill="#009042" stroke="black" stroke-width="0.0762" cx="153.337" cy="161.555" rx="0.350157" ry="0.955673"/>
      <line id="_77004384" fill="none" stroke="black" stroke-width="0.0762" x1="153.352" y1="160.733" x2="153.322" y2= "162.85" />
     </g>
     <g>
      <ellipse id="_66730160" fill="#009042" stroke="black" stroke-width="0.0762" cx="154.254" cy="162.473" rx="0.350157" ry="0.955673"/>
      <line id="_76649488" fill="none" stroke="black" stroke-width="0.0762" x1="154.27" y1="161.652" x2="154.239" y2= "163.769" />
     </g>
     <g>
      <ellipse id="_66015096" fill="#009042" stroke="black" stroke-width="0.0762" transform="matrix(-0.0061169 -0.447901 0.494557 -0.00675407 145.481 156.272)" rx="0.7817" ry="1.9322"/>
      <line id="_66435776" fill="none" stroke="black" stroke-width="0.0762" x1="144.66" y1="156.268" x2="146.776" y2= "156.27" />
     </g>
     <g>
      <ellipse id="_65748248" fill="#009042" stroke="black" stroke-width="0.0762" transform="matrix(-0.0061169 -0.447901 0.494557 -0.00675407 146.596 157.387)" rx="0.7817" ry="1.9322"/>
      <line id="_66425840" fill="none" stroke="black" stroke-width="0.0762" x1="145.775" y1="157.383" x2="147.891" y2= "157.385" />
     </g>
     <g>
      <ellipse id="_66298568" fill="#009042" stroke="black" stroke-width="0.0762" transform="matrix(-0.0061169 -0.447901 0.494557 -0.00675407 147.737 158.546)" rx="0.7817" ry="1.9322"/>
      <line id="_76750848" fill="none" stroke="black" stroke-width="0.0762" x1="146.915" y1="158.542" x2="149.032" y2= "158.544" />
     </g>
     <g>
      <ellipse id="_76924872" fill="#009042" stroke="black" stroke-width="0.0762" transform="matrix(-0.0061169 -0.447901 0.494557 -0.00675407 148.741 159.545)" rx="0.7817" ry="1.9322"/>
      <line id="_77080640" fill="none" stroke="black" stroke-width="0.0762" x1="147.92" y1="159.541" x2="150.037" y2= "159.543" />
     </g>
     <g>
      <ellipse id="_76761840" fill="#009042" stroke="black" stroke-width="0.0762" transform="matrix(-0.0061169 -0.447901 0.494557 -0.00675407 149.861 160.68)" rx="0.7817" ry="1.9322"/>
      <line id="_76443576" fill="none" stroke="black" stroke-width="0.0762" x1="149.039" y1="160.676" x2="151.156" y2= "160.678" />
     </g>
     <g>
      <ellipse id="_66287176" fill="#009042" stroke="black" stroke-width="0.0762" transform="matrix(-0.0061169 -0.447901 0.494557 -0.00675407 150.904 161.727)" rx="0.7817" ry="1.9322"/>
      <line id="_76970560" fill="none" stroke="black" stroke-width="0.0762" x1="150.083" y1="161.722" x2="152.199" y2= "161.724" />
     </g>
     <g>
      <ellipse id="_66386592" fill="#009042" stroke="black" stroke-width="0.0762" transform="matrix(-0.0061169 -0.447901 0.494557 -0.00675407 152.028 162.846)" rx="0.7817" ry="1.9322"/>
      <line id="_66397680" fill="none" stroke="black" stroke-width="0.0762" x1="151.207" y1="162.842" x2="153.323" y2= "162.844" />
     </g>
     <g>
      <ellipse id="_76902144" fill="#009042" stroke="black" stroke-width="0.0762" transform="matrix(-0.0061169 -0.447901 0.494557 -0.00675407 152.933 163.769)" rx="0.7817" ry="1.9322"/>
      <line id="_77034944" fill="none" stroke="black" stroke-width="0.0762" x1="152.111" y1="163.765" x2="154.228" y2= "163.767" />
     </g>
    </g>
    <g id="rameau_x0020_droite2">
     <polygon id="petiolule_159" fill="#009042" stroke="black" stroke-width="0.0762" stroke-linejoin="bevel" points="163.438,156.251 155.2,164.527 "/>
     <g>
      <ellipse id="_76889768" fill="#009042" stroke="black" stroke-width="0.0762" cx="163.42" cy="154.963" rx="0.350157" ry="0.955673"/>
      <line id="_66806024" fill="none" stroke="black" stroke-width="0.0762" x1="163.404" y1="154.142" x2="163.435" y2= "156.258" />
     </g>
     <g>
      <ellipse id="_76669696" fill="#009042" stroke="black" stroke-width="0.0762" cx="162.307" cy="156.07" rx="0.350157" ry="0.955673"/>
      <line id="_66396904" fill="none" stroke="black" stroke-width="0.0762" x1="162.291" y1="155.249" x2="162.322" y2= "157.365" />
     </g>
     <g>
      <ellipse id="_65749352" fill="#009042" stroke="black" stroke-width="0.0762" cx="161.156" cy="157.242" rx="0.350157" ry="0.955673"/>
      <line id="_77552992" fill="none" stroke="black" stroke-width="0.0762" x1="161.14" y1="156.421" x2="161.171" y2= "158.537" />
     </g>
     <g>
      <ellipse id="_76898960" fill="#009042" stroke="black" stroke-width="0.0762" cx="160.16" cy="158.229" rx="0.350157" ry="0.955673"/>
      <line id="_45490224" fill="none" stroke="black" stroke-width="0.0762" x1="160.145" y1="157.408" x2="160.176" y2= "159.525" />
     </g>
     <g>
      <ellipse id="_27679248" fill="#009042" stroke="black" stroke-width="0.0762" cx="159.038" cy="159.354" rx="0.350157" ry="0.955673"/>
      <line id="_66752656" fill="none" stroke="black" stroke-width="0.0762" x1="159.023" y1="158.532" x2="159.053" y2= "160.649" />
     </g>
     <g>
      <ellipse id="_76454344" fill="#009042" stroke="black" stroke-width="0.0762" cx="157.994" cy="160.429" rx="0.350157" ry="0.955673"/>
      <line id="_66406632" fill="none" stroke="black" stroke-width="0.0762" x1="157.978" y1="159.608" x2="158.009" y2= "161.724" />
     </g>
     <g>
      <ellipse id="_76687064" fill="#009042" stroke="black" stroke-width="0.0762" cx="156.872" cy="161.543" rx="0.350157" ry="0.955673"/>
      <line id="_76903984" fill="none" stroke="black" stroke-width="0.0762" x1="156.856" y1="160.722" x2="156.887" y2= "162.838" />
     </g>
     <g>
      <ellipse id="_67083824" fill="#009042" stroke="black" stroke-width="0.0762" cx="155.954" cy="162.462" rx="0.350157" ry="0.955673"/>
      <line id="_77290608" fill="none" stroke="black" stroke-width="0.0762" x1="155.939" y1="161.641" x2="155.97" y2= "163.757" />
     </g>
     <g>
      <ellipse id="_76491544" fill="#009042" stroke="black" stroke-width="0.0762" transform="matrix(0.0061169 -0.447901 -0.494557 -0.00675407 164.728 156.261)" rx="0.7817" ry="1.9322"/>
      <line id="_65787112" fill="none" stroke="black" stroke-width="0.0762" x1="165.549" y1="156.256" x2="163.433" y2= "156.258" />
     </g>
     <g>
      <ellipse id="_77186992" fill="#009042" stroke="black" stroke-width="0.0762" transform="matrix(0.0061169 -0.447901 -0.494557 -0.00675407 163.613 157.376)" rx="0.7817" ry="1.9322"/>
      <line id="_66744656" fill="none" stroke="black" stroke-width="0.0762" x1="164.434" y1="157.372" x2="162.317" y2= "157.374" />
     </g>
     <g>
      <ellipse id="_76966056" fill="#009042" stroke="black" stroke-width="0.0762" transform="matrix(0.0061169 -0.447901 -0.494557 -0.00675407 162.472 158.535)" rx="0.7817" ry="1.9322"/>
      <line id="_77038488" fill="none" stroke="black" stroke-width="0.0762" x1="163.293" y1="158.53" x2="161.177" y2= "158.532" />
     </g>
     <g>
      <ellipse id="_67211400" fill="#009042" stroke="black" stroke-width="0.0762" transform="matrix(0.0061169 -0.447901 -0.494557 -0.00675407 161.467 159.534)" rx="0.7817" ry="1.9322"/>
      <line id="_67161992" fill="none" stroke="black" stroke-width="0.0762" x1="162.289" y1="159.529" x2="160.172" y2= "159.531" />
     </g>
     <g>
      <ellipse id="_77228792" fill="#009042" stroke="black" stroke-width="0.0762" transform="matrix(0.0061169 -0.447901 -0.494557 -0.00675407 160.348 160.669)" rx="0.7817" ry="1.9322"/>
      <line id="_76678960" fill="none" stroke="black" stroke-width="0.0762" x1="161.169" y1="160.664" x2="159.053" y2= "160.666" />
     </g>
     <g>
      <ellipse id="_66389288" fill="#009042" stroke="black" stroke-width="0.0762" transform="matrix(0.0061169 -0.447901 -0.494557 -0.00675407 159.305 161.715)" rx="0.7817" ry="1.9322"/>
      <line id="_76898984" fill="none" stroke="black" stroke-width="0.0762" x1="160.126" y1="161.711" x2="158.009" y2= "161.713" />
     </g>
     <g>
      <ellipse id="_77066952" fill="#009042" stroke="black" stroke-width="0.0762" transform="matrix(0.0061169 -0.447901 -0.494557 -0.00675407 158.181 162.835)" rx="0.7817" ry="1.9322"/>
      <line id="_66508248" fill="none" stroke="black" stroke-width="0.0762" x1="159.002" y1="162.83" x2="156.885" y2= "162.832" />
     </g>
     <g>
      <ellipse id="_77066528" fill="#009042" stroke="black" stroke-width="0.0762" transform="matrix(0.0061169 -0.447901 -0.494557 -0.00675407 157.276 163.758)" rx="0.7817" ry="1.9322"/>
      <line id="_66439448" fill="none" stroke="black" stroke-width="0.0762" x1="158.097" y1="163.754" x2="155.981" y2= "163.756" />
     </g>
    </g>
    <path id="pétiole_160" fill="#009042" stroke="black" stroke-width="0.0762" d="M154.899 175.531c0.0437,0.0628 0.3742,0.1211 0.4548,0.1114 -0.0674,-0.5007 -0.1348,-1.0013 -0.1499,-1.5194 0,-5.7599 0,-11.5199 0,-17.2798 -0.0668,-0.0285 -0.1313,-0.0287 -0.1934,-0.0009 0,5.3843 0,11.8965 0,17.2808 0,0.4918 -0.0446,0.9376 -0.1115,1.4079z"/>
   </g>
  </g>
  <g id="Lf_Smp" onclick="parent.replacechar('Lf_Smp')" onmousemove="parent.showtooltip('Lf_Smp', 'Simple leaf')" onmouseout="parent.hidetooltip('Lf_Smp')" cursor="pointer" >
    <metadata id="CorelCorpID_11">
     <odm name="Nom" value="simple" type="0"/>
    </metadata>
   <path id="_76515344" fill="#009042" stroke="black" stroke-width="0.0762" d="M59.3823 138.196c-62.9213,7.7784 -18.0127,-106.226 2.6367,-115.696 30.8638,14.0093 51.4352,123.43 -2.6367,115.696z"/>
   <path id="_64550600" fill="#009042" stroke="black" stroke-width="0.0762" d="M55.3411 156.099c-2.1564,-13.643 -6.931,-106.329 6.7595,-133.476 -9.7277,44.0679 -7.5691,89.008 -0.1041,132.511 0.2281,1.3289 -4.3011,4.0169 -6.6554,0.9651z"/>
  </g>
 </g>
<image xlink:href="tick.gif" id="imgtick" x="-100" y="-100" width="15" height="15"/>
<rect id="recttooltip" x="-100" y="-100" width="55" height="6" fill-opacity="0.4" pointer-events="none"/>
<text id="textboxid" x="-100" y="-100" pointer-events="none"> </text>
</a></svg>
