<?xml version="1.0" encoding="UTF-8"?>
<!DOCTYPE svg PUBLIC "-//W3C//DTD SVG 1.1//EN" "http://www.w3.org/Graphics/SVG/1.1/DTD/svg11.dtd">
<!-- Creator: CorelDRAW -->
<svg xmlns="http://www.w3.org/2000/svg" xml:space="preserve" shape-rendering="geometricPrecision" text-rendering="geometricPrecision" image-rendering="optimizeQuality" fill-rule="evenodd" clip-rule="evenodd"
viewBox="0 0 240 180"
 xmlns:xlink="http://www.w3.org/1999/xlink">
<a>
 <defs>
    <linearGradient id="id0" gradientUnits="userSpaceOnUse" x1="216.343" y1="142.285" x2="203.587" y2="27.4868">
     <stop offset="0" stop-color="#E5E5E5"/>
     <stop offset="1" stop-color="white"/>
    </linearGradient>
    <linearGradient id="id1" gradientUnits="userSpaceOnUse" x1="156.343" y1="142.285" x2="143.587" y2="27.4868">
     <stop offset="0" stop-color="#E5E5E5"/>
     <stop offset="1" stop-color="white"/>
    </linearGradient>
    <linearGradient id="id2" gradientUnits="userSpaceOnUse" x1="96.3426" y1="142.285" x2="83.5873" y2="27.4868">
     <stop offset="0" stop-color="#E5E5E5"/>
     <stop offset="1" stop-color="white"/>
    </linearGradient>
    <linearGradient id="id3" gradientUnits="userSpaceOnUse" x1="36.3393" y1="142.287" x2="23.5907" y2="27.5481">
     <stop offset="0" stop-color="#E5E5E5"/>
     <stop offset="1" stop-color="white"/>
    </linearGradient>
 </defs>
 <g id="Plan_x0020_1">
  <metadata id="CorelCorpID_0Corel-Layer"/>
  <rect fill="none" transform="matrix(3.24291E-013 -17.1512 10.3131 3.82591E-013 -1.55692E-005 180)" width="10.4949" height="23.2713"/>
  <g id="LfDry_Other" onclick="parent.replacechar('LfDry_Other')" onmousemove="parent.showtooltip('LfDry_Other', 'Dry leaves of other colours than black and yellow')" onmouseout="parent.hidetooltip('LfDry_Other')" cursor="pointer" >
   <polygon id="sol" fill="none" stroke="black" stroke-width="0.0762" stroke-linejoin="bevel" points="181.545,142.16 236.756,142.16 ">
    <metadata id="CorelCorpID_1">
     <odm name="Nom" value="sol" type="0"/>
    </metadata>
   </polygon>
   <path id="tronc" fill="url(#id0)" d="M210.65 78.4894c4.0937,-4.7205 9.9087,-5.6929 17.9159,-12.0784 -4.2951,-8.9999 1.1343,-12.0004 2.0648,-13.1461 -0.7716,2.4305 -4.6164,5.7517 -0.8808,12.591 6.2071,-2.2334 6.6706,-2.883 9.2088,-8.7401 -1.6046,10.2102 -8.698,9.2766 -18.4736,16.2358 7.1138,-0.6896 12.128,-2.6912 16.6882,-4.3629 1.4811,-0.5846 1.8343,-0.8498 2.0875,-0.7682 -0.2524,0.6924 -0.0168,0.7744 -0.0249,1.1983 -5.3065,2.601 -9.8457,5.6759 -18.0509,6.0141 -3.6131,2.5415 -7.4195,4.4199 -10.0757,7.5036l4.8078 59.2235 -15.1157 0c0,-14.4845 4.4492,-42.789 4.4492,-57.2739 -3.1793,-8.0202 -9.7729,-12.6209 -13.5321,-15.2135 -3.9555,-2.7281 -7.6366,-4.5951 -10.9645,-5.9384 -0.0025,-0.9709 -0.085,-1.0488 0.169,-1.5573 1.9797,0.8765 4.0777,2.0106 6.2763,3.5022 -2.2783,-2.0382 -3.4752,-3.1106 -5.0642,-4.7476 0.305,-0.8017 0.0002,0 0.6432,-1.7874 8.4538,6.9027 19.8524,10.9631 23.2689,18.6045l1.3036 -13.6418c-6.3269,-4.9327 -16.2685,-24.1858 -17.202,-33.9124 1.8108,7.0879 10.5939,26.9995 17.5968,31.8328l1.1376 -34.4151 1.5478 25.0949c3.7529,-3.503 11.396,-15.8912 13.277,-20.7486 -1.6496,6.1856 -9.4426,19.6873 -13.058,22.4011l0 24.1299z"/>
   <g id="deciduous_3">
    <g id="feuille_x0020_tombant_1">
      <metadata id="CorelCorpID_2">
       <odm name="Nom" value="feuille7" type="0"/>
      </metadata>
     <path id="limbe" fill="#B1CF1B" stroke="#7F7F7F" stroke-width="0.0762" d="M190.272 116.249c2.1266,-1.1057 3.1283,2.4182 2.8066,3.1926 -1.1879,0.3941 -4.5421,-2.2903 -2.8066,-3.1926z">
      <metadata id="CorelCorpID_3">
       <odm name="Nom" value="feuille7" type="0"/>
      </metadata>
     </path>
     <path id="_65908080" fill="#33CC33" stroke="#7F7F7F" stroke-width="0.0762" d="M189.993 115.711c0.4004,0.3157 2.2965,2.1861 2.6302,3.2428 -0.3523,-0.5471 -1.0113,-1.4631 -1.377,-1.8053 -0.2499,-0.2339 -1.2246,-1.04 -1.5581,-1.296 -0.0395,-0.0303 0.1645,-0.1651 0.3049,-0.1415z"/>
    </g>
    <g id="feuille_x0020_tombant_2">
      <metadata id="CorelCorpID_4">
       <odm name="Nom" value="feuille7" type="0"/>
      </metadata>
     <path id="limbe_0" fill="#D2A01E" stroke="#7F7F7F" stroke-width="0.0762" d="M189.409 123.638c2.986,0.1728 1.8093,4.5905 0.9698,5.2152 -1.5252,-0.3362 -3.4067,-5.3562 -0.9698,-5.2152z">
      <metadata id="CorelCorpID_5">
       <odm name="Nom" value="feuille7" type="0"/>
      </metadata>
     </path>
     <path id="_77612848" fill="#33CC33" stroke="#7F7F7F" stroke-width="0.0762" d="M189.453 122.884c0.2278,0.5943 1.0659,3.8105 0.7488,5.1565 -0.0282,-0.8116 -0.1498,-2.2145 -0.3233,-2.8149 -0.1185,-0.4103 -0.6486,-1.8971 -0.8427,-2.3845 -0.023,-0.0577 0.2819,-0.072 0.4172,0.0429z"/>
    </g>
    <g id="feuille_x0020_tombant_3">
      <metadata id="CorelCorpID_6">
       <odm name="Nom" value="feuille7" type="0"/>
      </metadata>
     <path id="limbe_1" fill="#B1CF1B" stroke="#7F7F7F" stroke-width="0.0762" d="M195 130.765c2.5989,1.3229 -0.1808,4.8074 -1.1749,5.0367 -1.2304,-0.8971 -0.9461,-6.1162 1.1749,-5.0367z">
      <metadata id="CorelCorpID_7">
       <odm name="Nom" value="feuille7" type="0"/>
      </metadata>
     </path>
     <path id="_66482784" fill="#33CC33" stroke="#7F7F7F" stroke-width="0.0762" d="M195.334 130.108c-0.0292,0.6197 -0.5394,3.8198 -1.3492,4.8977 0.2923,-0.7358 0.7328,-2.0361 0.8128,-2.6402 0.0548,-0.4128 0.1632,-1.948 0.1806,-2.4591 0.0021,-0.0606 0.2799,0.046 0.3558,0.2016z"/>
    </g>
   </g>
   <g id="deciduous_2">
    <g id="feuille_x0020_tombant_1_2">
      <metadata id="CorelCorpID_8">
       <odm name="Nom" value="feuille7" type="0"/>
      </metadata>
     <path id="limbe_3" fill="#B1CF1B" stroke="#7F7F7F" stroke-width="0.0762" d="M218.85 111.939c2.1266,-1.1057 3.1283,2.4183 2.8065,3.1927 -1.1879,0.394 -4.542,-2.2903 -2.8065,-3.1927z">
      <metadata id="CorelCorpID_9">
       <odm name="Nom" value="feuille7" type="0"/>
      </metadata>
     </path>
     <path id="_77228360" fill="#33CC33" stroke="#7F7F7F" stroke-width="0.0762" d="M218.571 111.402c0.4005,0.3157 2.2966,2.1862 2.6303,3.2429 -0.3523,-0.5471 -1.0114,-1.4631 -1.377,-1.8053 -0.2499,-0.2339 -1.2246,-1.0401 -1.5581,-1.296 -0.0395,-0.0303 0.1645,-0.1652 0.3048,-0.1416z"/>
    </g>
    <g id="feuille_x0020_tombant_2_4">
      <metadata id="CorelCorpID_10">
       <odm name="Nom" value="feuille7" type="0"/>
      </metadata>
     <path id="limbe_5" fill="#D2A01E" stroke="#7F7F7F" stroke-width="0.0762" d="M217.987 119.329c2.986,0.1727 1.8093,4.5904 0.9698,5.2152 -1.5252,-0.3363 -3.4067,-5.3562 -0.9698,-5.2152z">
      <metadata id="CorelCorpID_11">
       <odm name="Nom" value="feuille7" type="0"/>
      </metadata>
     </path>
     <path id="_27681160" fill="#33CC33" stroke="#7F7F7F" stroke-width="0.0762" d="M218.031 118.574c0.2277,0.5942 1.0658,3.8105 0.7488,5.1564 -0.0283,-0.8115 -0.1499,-2.2144 -0.3233,-2.8148 -0.1185,-0.4104 -0.6487,-1.8972 -0.8427,-2.3845 -0.023,-0.0577 0.2819,-0.072 0.4172,0.0429z"/>
    </g>
    <g id="feuille_x0020_tombant_3_6">
      <metadata id="CorelCorpID_12">
       <odm name="Nom" value="feuille7" type="0"/>
      </metadata>
     <path id="limbe_7" fill="#B1CF1B" stroke="#7F7F7F" stroke-width="0.0762" d="M223.578 126.455c2.599,1.3229 -0.1807,4.8074 -1.1748,5.0367 -1.2305,-0.8971 -0.9461,-6.1162 1.1748,-5.0367z">
      <metadata id="CorelCorpID_13">
       <odm name="Nom" value="feuille7" type="0"/>
      </metadata>
     </path>
     <path id="_65495128" fill="#33CC33" stroke="#7F7F7F" stroke-width="0.0762" d="M223.913 125.799c-0.0292,0.6197 -0.5394,3.8198 -1.3493,4.8977 0.2924,-0.7358 0.7328,-2.0362 0.8129,-2.6402 0.0548,-0.4128 0.1632,-1.948 0.1806,-2.4592 0.0021,-0.0605 0.2799,0.0461 0.3558,0.2017z"/>
    </g>
   </g>
   <g id="feuilles_x0020_mortes">
    <g id="feuille7">
      <metadata id="CorelCorpID_14">
       <odm name="Nom" value="feuille7" type="0"/>
      </metadata>
     <path id="_76638072" fill="#B1CF1B" stroke="#7F7F7F" stroke-width="0.0762" d="M204.478 135.956c3.126,-0.834 3.4136,4.1028 2.7628,5.0289 -1.6806,0.1713 -5.3139,-4.3483 -2.7628,-5.0289z"/>
     <path id="_66728184" fill="#B1CF1B" stroke="#7F7F7F" stroke-width="0.0762" d="M204.268 135.166c0.4352,0.5333 2.3856,3.5534 2.5158,5.0435 -0.3039,-0.8241 -0.904,-2.2241 -1.2856,-2.7821 -0.2607,-0.3814 -1.309,-1.7292 -1.6734,-2.1641 -0.0432,-0.0515 0.2652,-0.1695 0.4432,-0.0973z"/>
    </g>
    <g id="feuille7_8">
      <metadata id="CorelCorpID_15">
       <odm name="Nom" value="feuille7" type="0"/>
      </metadata>
     <path id="_76649800" fill="#669966" stroke="#7F7F7F" stroke-width="0.0762" d="M219.157 136.279c3.3145,-1.7233 4.8758,3.7692 4.3743,4.9761 -1.8515,0.6142 -7.0793,-3.5696 -4.3743,-4.9761z"/>
     <path id="_76750144" fill="#FFF500" stroke="#7F7F7F" stroke-width="0.0762" d="M218.722 135.441c0.6242,0.4921 3.5794,3.4074 4.0996,5.0543 -0.5491,-0.8527 -1.5763,-2.2803 -2.1462,-2.8137 -0.3895,-0.3646 -1.9087,-1.621 -2.4285,-2.02 -0.0616,-0.0472 0.2565,-0.2574 0.4751,-0.2206z"/>
    </g>
    <g id="feuille7_9">
      <metadata id="CorelCorpID_16">
       <odm name="Nom" value="feuille7" type="0"/>
      </metadata>
     <path id="_76900528" fill="#B1CF1B" stroke="#7F7F7F" stroke-width="0.0762" d="M213.165 140.015c1.2889,-3.466 6.0821,-0.4707 6.5154,0.7483 -0.9513,1.6803 -7.5672,2.0803 -6.5154,-0.7483z"/>
     <path id="_77192728" fill="#B1CF1B" stroke="#7F7F7F" stroke-width="0.0762" d="M212.289 139.689c0.7849,-0.0532 4.8902,0.1246 6.3657,0.9882 -0.9693,-0.2614 -2.6714,-0.6273 -3.444,-0.6404 -0.5279,-0.009 -2.4775,0.0774 -3.124,0.1297 -0.0765,0.0062 0.0173,-0.3593 0.2023,-0.4775z"/>
    </g>
    <g id="feuille7_10">
      <metadata id="CorelCorpID_17">
       <odm name="Nom" value="feuille7" type="0"/>
      </metadata>
     <path id="_76996104" fill="#B1CF1B" stroke="#7F7F7F" stroke-width="0.0762" d="M186.54 135.166c3.2701,-1.7002 4.8104,3.7186 4.3157,4.9094 -1.8267,0.6059 -6.9843,-3.5218 -4.3157,-4.9094z"/>
     <path id="_76744520" fill="#B1CF1B" stroke="#7F7F7F" stroke-width="0.0762" d="M186.111 134.339c0.6158,0.4855 3.5313,3.3618 4.0445,4.9866 -0.5417,-0.8413 -1.5551,-2.2498 -2.1174,-2.776 -0.3842,-0.3597 -1.8831,-1.5993 -2.3959,-1.9929 -0.0607,-0.0466 0.253,-0.2539 0.4688,-0.2177z"/>
    </g>
    <g id="feuille7_11">
      <metadata id="CorelCorpID_18">
       <odm name="Nom" value="feuille7" type="0"/>
      </metadata>
     <path id="_76748064" fill="#669966" stroke="#7F7F7F" stroke-width="0.0762" d="M204.507 141.311c0.2807,-3.2231 -4.6314,-2.6524 -5.431,-1.8512 0.122,1.6849 5.2019,4.4816 5.431,1.8512z"/>
     <path id="_65746976" fill="#FFF500" stroke="#7F7F7F" stroke-width="0.0762" d="M205.322 141.381c-0.6006,-0.3364 -3.9125,-1.735 -5.4027,-1.6055 0.8643,0.1568 2.347,0.5057 2.9626,0.785 0.4208,0.1908 1.9295,0.9901 2.421,1.2738 0.0581,0.0336 0.1209,-0.2905 0.0191,-0.4533z"/>
    </g>
    <g id="feuille7_12">
      <metadata id="CorelCorpID_19">
       <odm name="Nom" value="feuille7" type="0"/>
      </metadata>
     <path id="_76576520" fill="#D2A01E" stroke="#7F7F7F" stroke-width="0.0762" d="M208.596 141.06c-1.5506,-3.3571 3.9525,-4.6466 5.1227,-4.0949 0.5216,1.8591 -3.8572,6.8346 -5.1227,4.0949z"/>
     <path id="_63155776" fill="#E3DC1E" stroke="#7F7F7F" stroke-width="0.0762" d="M207.747 141.452c0.5154,-0.5944 3.5348,-3.3815 5.1873,-3.8197 -0.8686,0.5035 -2.3277,1.4531 -2.8815,1.992 -0.3785,0.3682 -1.6912,1.8122 -2.1097,2.3077 -0.0495,0.0587 -0.2426,-0.2655 -0.1961,-0.48z"/>
    </g>
    <g id="feuille7_13">
      <metadata id="CorelCorpID_20">
       <odm name="Nom" value="feuille7" type="0"/>
      </metadata>
     <path id="_77212032" fill="#B1CF1B" stroke="#7F7F7F" stroke-width="0.0762" d="M208.969 134.002c0.036,-3.6977 5.5613,-2.507 6.3827,-1.5074 -0.3246,1.9034 -6.412,4.5251 -6.3827,1.5074z"/>
     <path id="_77014040" fill="#B1CF1B" stroke="#7F7F7F" stroke-width="0.0762" d="M208.035 133.993c0.7203,-0.3165 4.6422,-1.5426 6.3232,-1.2311 -1.0005,0.0832 -2.7257,0.3167 -3.4569,0.5665 -0.4997,0.1707 -2.3042,0.9137 -2.8946,1.1824 -0.0698,0.0318 -0.1056,-0.3439 0.0283,-0.5178z"/>
    </g>
    <g id="feuille7_14">
      <metadata id="CorelCorpID_21">
       <odm name="Nom" value="feuille7" type="0"/>
      </metadata>
     <path id="_65725976" fill="#D2A01E" stroke="#7F7F7F" stroke-width="0.0762" d="M229.772 138.339c1.194,3.1129 -3.8339,3.9435 -4.8536,3.3771 -0.3579,-1.7037 3.8792,-5.9176 4.8536,-3.3771z"/>
     <path id="_65725952" fill="#D2A01E" stroke="#7F7F7F" stroke-width="0.0762" d="M230.559 138.038c-0.4993,0.5039 -3.3824,2.8304 -4.8953,3.1256 0.8116,-0.4009 2.1811,-1.1678 2.7115,-1.6194 0.3625,-0.3086 1.6299,-1.5291 2.0361,-1.9498 0.048,-0.0498 0.2023,0.2534 0.1477,0.4436z"/>
    </g>
    <g id="feuille7_15">
      <metadata id="CorelCorpID_22">
       <odm name="Nom" value="feuille7" type="0"/>
      </metadata>
     <path id="_66388808" fill="#B1CF1B" stroke="#7F7F7F" stroke-width="0.0762" d="M230.608 140.065c1.3645,-3.042 5.4996,-0.0638 5.8174,1.0586 -0.9553,1.4554 -6.9309,1.424 -5.8174,-1.0586z"/>
     <path id="_77084320" fill="#B1CF1B" stroke="#7F7F7F" stroke-width="0.0762" d="M229.84 139.72c0.7093,-0.0015 4.3921,0.4013 5.6684,1.2655 -0.8566,-0.2925 -2.3662,-0.7224 -3.0604,-0.7799 -0.4745,-0.0393 -2.2336,-0.0769 -2.8183,-0.068 -0.0692,0.001 0.0369,-0.3222 0.2103,-0.4176z"/>
    </g>
   </g>
  </g>
  <g id="LfDry_Red" onclick="parent.replacechar('LfDry_Red')" onmousemove="parent.showtooltip('LfDry_Red', 'Dry leaves red')" onmouseout="parent.hidetooltip('LfDry_Red')" cursor="pointer" >
   <polygon id="sol_16" fill="none" stroke="black" stroke-width="0.0762" stroke-linejoin="bevel" points="121.545,142.16 176.756,142.16 ">
    <metadata id="CorelCorpID_23">
     <odm name="Nom" value="sol" type="0"/>
    </metadata>
   </polygon>
   <path id="tronc_17" fill="url(#id1)" d="M150.65 78.4894c4.0937,-4.7205 9.9087,-5.6929 17.916,-12.0784 -4.2952,-8.9999 1.1342,-12.0004 2.0647,-13.1461 -0.7716,2.4305 -4.6164,5.7517 -0.8808,12.591 6.2072,-2.2334 6.6706,-2.883 9.2088,-8.7401 -1.6046,10.2102 -8.698,9.2766 -18.4736,16.2358 7.1138,-0.6896 12.128,-2.6912 16.6882,-4.3629 1.4811,-0.5846 1.8343,-0.8498 2.0875,-0.7682 -0.2524,0.6924 -0.0168,0.7744 -0.0249,1.1983 -5.3065,2.601 -9.8457,5.6759 -18.0509,6.0141 -3.6131,2.5415 -7.4195,4.4199 -10.0757,7.5036l4.8078 59.2235 -15.1157 0c0,-14.4845 4.4492,-42.789 4.4492,-57.2739 -3.1793,-8.0202 -9.7729,-12.6209 -13.5321,-15.2135 -3.9555,-2.7281 -7.6366,-4.5951 -10.9645,-5.9384 -0.0025,-0.9709 -0.085,-1.0488 0.169,-1.5573 1.9797,0.8765 4.0777,2.0106 6.2763,3.5022 -2.2783,-2.0382 -3.4751,-3.1106 -5.0642,-4.7476 0.305,-0.8017 0.0002,0 0.6432,-1.7874 8.4538,6.9027 19.8524,10.9631 23.2689,18.6045l1.3036 -13.6418c-6.3269,-4.9327 -16.2685,-24.1858 -17.202,-33.9124 1.8108,7.0879 10.5939,26.9995 17.5968,31.8328l1.1376 -34.4151 1.5478 25.0949c3.7529,-3.503 11.396,-15.8912 13.277,-20.7486 -1.6496,6.1856 -9.4426,19.6873 -13.058,22.4011l0 24.1299z"/>
   <g id="deciduous_3_18">
    <g id="feuille_x0020_tombant_1_19">
      <metadata id="CorelCorpID_24">
       <odm name="Nom" value="feuille7" type="0"/>
      </metadata>
     <path id="limbe_20" fill="#F03742" stroke="#7F7F7F" stroke-width="0.0762" d="M130.272 116.249c2.1266,-1.1057 3.1283,2.4182 2.8066,3.1926 -1.1879,0.3941 -4.5421,-2.2903 -2.8066,-3.1926z">
      <metadata id="CorelCorpID_25">
       <odm name="Nom" value="feuille7" type="0"/>
      </metadata>
     </path>
     <path id="_76475192" fill="#F03742" stroke="#7F7F7F" stroke-width="0.0762" d="M129.993 115.711c0.4004,0.3157 2.2965,2.1861 2.6302,3.2428 -0.3523,-0.5471 -1.0113,-1.4631 -1.377,-1.8053 -0.2499,-0.2339 -1.2246,-1.04 -1.5581,-1.296 -0.0395,-0.0303 0.1646,-0.1651 0.3049,-0.1415z"/>
    </g>
    <g id="feuille_x0020_tombant_2_21">
      <metadata id="CorelCorpID_26">
       <odm name="Nom" value="feuille7" type="0"/>
      </metadata>
     <path id="limbe_22" fill="#F03742" stroke="#7F7F7F" stroke-width="0.0762" d="M129.409 123.638c2.986,0.1728 1.8093,4.5905 0.9698,5.2152 -1.5252,-0.3362 -3.4067,-5.3562 -0.9698,-5.2152z">
      <metadata id="CorelCorpID_27">
       <odm name="Nom" value="feuille7" type="0"/>
      </metadata>
     </path>
     <path id="_66420368" fill="#F03742" stroke="#7F7F7F" stroke-width="0.0762" d="M129.453 122.884c0.2277,0.5943 1.0658,3.8105 0.7487,5.1565 -0.0282,-0.8116 -0.1498,-2.2145 -0.3233,-2.8149 -0.1185,-0.4103 -0.6486,-1.8971 -0.8427,-2.3845 -0.023,-0.0577 0.2819,-0.072 0.4173,0.0429z"/>
    </g>
    <g id="feuille_x0020_tombant_3_23">
      <metadata id="CorelCorpID_28">
       <odm name="Nom" value="feuille7" type="0"/>
      </metadata>
     <path id="limbe_24" fill="#F03742" stroke="#7F7F7F" stroke-width="0.0762" d="M135 130.765c2.5989,1.3229 -0.1807,4.8074 -1.1749,5.0367 -1.2304,-0.8971 -0.9461,-6.1162 1.1749,-5.0367z">
      <metadata id="CorelCorpID_29">
       <odm name="Nom" value="feuille7" type="0"/>
      </metadata>
     </path>
     <path id="_67220584" fill="#F03742" stroke="#7F7F7F" stroke-width="0.0762" d="M135.334 130.108c-0.0292,0.6197 -0.5394,3.8198 -1.3492,4.8977 0.2923,-0.7358 0.7328,-2.0361 0.8128,-2.6402 0.0548,-0.4128 0.1632,-1.948 0.1807,-2.4591 0.002,-0.0606 0.2798,0.046 0.3557,0.2016z"/>
    </g>
   </g>
   <g id="deciduous_2_25">
    <g id="feuille_x0020_tombant_1_26">
      <metadata id="CorelCorpID_30">
       <odm name="Nom" value="feuille7" type="0"/>
      </metadata>
     <path id="limbe_27" fill="#F03742" stroke="#7F7F7F" stroke-width="0.0762" d="M158.85 111.939c2.1266,-1.1057 3.1283,2.4183 2.8066,3.1927 -1.188,0.394 -4.5421,-2.2903 -2.8066,-3.1927z">
      <metadata id="CorelCorpID_31">
       <odm name="Nom" value="feuille7" type="0"/>
      </metadata>
     </path>
     <path id="_76563136" fill="#F03742" stroke="#7F7F7F" stroke-width="0.0762" d="M158.571 111.402c0.4005,0.3157 2.2966,2.1862 2.6303,3.2429 -0.3523,-0.5471 -1.0114,-1.4631 -1.377,-1.8053 -0.2499,-0.2339 -1.2246,-1.0401 -1.5581,-1.296 -0.0395,-0.0303 0.1645,-0.1652 0.3048,-0.1416z"/>
    </g>
    <g id="feuille_x0020_tombant_2_28">
      <metadata id="CorelCorpID_32">
       <odm name="Nom" value="feuille7" type="0"/>
      </metadata>
     <path id="limbe_29" fill="#F03742" stroke="#7F7F7F" stroke-width="0.0762" d="M157.987 119.329c2.986,0.1727 1.8093,4.5904 0.9698,5.2152 -1.5252,-0.3363 -3.4067,-5.3562 -0.9698,-5.2152z">
      <metadata id="CorelCorpID_33">
       <odm name="Nom" value="feuille7" type="0"/>
      </metadata>
     </path>
     <path id="_77134184" fill="#F03742" stroke="#7F7F7F" stroke-width="0.0762" d="M158.031 118.574c0.2277,0.5942 1.0658,3.8105 0.7488,5.1564 -0.0283,-0.8115 -0.1498,-2.2144 -0.3233,-2.8148 -0.1185,-0.4104 -0.6486,-1.8972 -0.8427,-2.3845 -0.023,-0.0577 0.2819,-0.072 0.4172,0.0429z"/>
    </g>
    <g id="feuille_x0020_tombant_3_30">
      <metadata id="CorelCorpID_34">
       <odm name="Nom" value="feuille7" type="0"/>
      </metadata>
     <path id="limbe_31" fill="#F03742" stroke="#7F7F7F" stroke-width="0.0762" d="M163.578 126.455c2.5989,1.3229 -0.1808,4.8074 -1.1749,5.0367 -1.2304,-0.8971 -0.9461,-6.1162 1.1749,-5.0367z">
      <metadata id="CorelCorpID_35">
       <odm name="Nom" value="feuille7" type="0"/>
      </metadata>
     </path>
     <path id="_66433632" fill="#F03742" stroke="#7F7F7F" stroke-width="0.0762" d="M163.913 125.799c-0.0292,0.6197 -0.5394,3.8198 -1.3493,4.8977 0.2924,-0.7358 0.7328,-2.0362 0.8129,-2.6402 0.0548,-0.4128 0.1632,-1.948 0.1806,-2.4592 0.0021,-0.0605 0.2799,0.0461 0.3558,0.2017z"/>
    </g>
   </g>
   <g id="feuilles_x0020_mortes_32">
    <g id="feuille7_33">
      <metadata id="CorelCorpID_36">
       <odm name="Nom" value="feuille7" type="0"/>
      </metadata>
     <path id="_77226384" fill="#F03742" stroke="#7F7F7F" stroke-width="0.0762" d="M144.478 135.956c3.1261,-0.834 3.4136,4.1028 2.7629,5.0289 -1.6807,0.1713 -5.314,-4.3483 -2.7629,-5.0289z"/>
     <path id="_65729560" fill="#F03742" stroke="#7F7F7F" stroke-width="0.0762" d="M144.268 135.166c0.4352,0.5333 2.3856,3.5534 2.5158,5.0435 -0.3039,-0.8241 -0.904,-2.2241 -1.2856,-2.7821 -0.2607,-0.3814 -1.309,-1.7292 -1.6734,-2.1641 -0.0432,-0.0515 0.2652,-0.1695 0.4432,-0.0973z"/>
    </g>
    <g id="feuille7_34">
      <metadata id="CorelCorpID_37">
       <odm name="Nom" value="feuille7" type="0"/>
      </metadata>
     <path id="_66256872" fill="#F03742" stroke="#7F7F7F" stroke-width="0.0762" d="M159.157 136.279c3.3145,-1.7233 4.8758,3.7692 4.3743,4.9761 -1.8515,0.6142 -7.0793,-3.5696 -4.3743,-4.9761z"/>
     <path id="_66443448" fill="#F03742" stroke="#7F7F7F" stroke-width="0.0762" d="M158.722 135.441c0.6241,0.4921 3.5793,3.4074 4.0995,5.0543 -0.5491,-0.8527 -1.5763,-2.2803 -2.1462,-2.8137 -0.3895,-0.3646 -1.9087,-1.621 -2.4285,-2.02 -0.0615,-0.0472 0.2565,-0.2574 0.4752,-0.2206z"/>
    </g>
    <g id="feuille7_35">
      <metadata id="CorelCorpID_38">
       <odm name="Nom" value="feuille7" type="0"/>
      </metadata>
     <path id="_76648520" fill="#F03742" stroke="#7F7F7F" stroke-width="0.0762" d="M153.165 140.015c1.2889,-3.466 6.0821,-0.4707 6.5155,0.7483 -0.9514,1.6803 -7.5673,2.0803 -6.5155,-0.7483z"/>
     <path id="_76711632" fill="#F03742" stroke="#7F7F7F" stroke-width="0.0762" d="M152.289 139.689c0.785,-0.0532 4.8902,0.1246 6.3657,0.9882 -0.9693,-0.2614 -2.6714,-0.6273 -3.4439,-0.6404 -0.528,-0.009 -2.4776,0.0774 -3.1241,0.1297 -0.0765,0.0062 0.0174,-0.3593 0.2023,-0.4775z"/>
    </g>
    <g id="feuille7_36">
      <metadata id="CorelCorpID_39">
       <odm name="Nom" value="feuille7" type="0"/>
      </metadata>
     <path id="_76757624" fill="#F03742" stroke="#7F7F7F" stroke-width="0.0762" d="M126.54 135.166c3.27,-1.7002 4.8103,3.7186 4.3156,4.9094 -1.8267,0.6059 -6.9843,-3.5218 -4.3156,-4.9094z"/>
     <path id="_77054872" fill="#F03742" stroke="#7F7F7F" stroke-width="0.0762" d="M126.111 134.339c0.6158,0.4855 3.5313,3.3618 4.0445,4.9866 -0.5417,-0.8413 -1.5551,-2.2498 -2.1174,-2.776 -0.3842,-0.3597 -1.8831,-1.5993 -2.3959,-1.9929 -0.0607,-0.0466 0.253,-0.2539 0.4688,-0.2177z"/>
    </g>
    <g id="feuille7_37">
      <metadata id="CorelCorpID_40">
       <odm name="Nom" value="feuille7" type="0"/>
      </metadata>
     <path id="_77282392" fill="#F03742" stroke="#7F7F7F" stroke-width="0.0762" d="M144.507 141.311c0.2807,-3.2231 -4.6314,-2.6524 -5.431,-1.8512 0.1221,1.6849 5.2019,4.4816 5.431,1.8512z"/>
     <path id="_76991944" fill="#F03742" stroke="#7F7F7F" stroke-width="0.0762" d="M145.322 141.381c-0.6006,-0.3364 -3.9125,-1.735 -5.4026,-1.6055 0.8642,0.1568 2.3469,0.5057 2.9625,0.785 0.4208,0.1908 1.9296,0.9901 2.421,1.2738 0.0582,0.0336 0.121,-0.2905 0.0191,-0.4533z"/>
    </g>
    <g id="feuille7_38">
      <metadata id="CorelCorpID_41">
       <odm name="Nom" value="feuille7" type="0"/>
      </metadata>
     <path id="_66508248" fill="#F03742" stroke="#7F7F7F" stroke-width="0.0762" d="M148.596 141.06c-1.5506,-3.3571 3.9525,-4.6466 5.1227,-4.0949 0.5216,1.8591 -3.8572,6.8346 -5.1227,4.0949z"/>
     <path id="_77228944" fill="#F03742" stroke="#7F7F7F" stroke-width="0.0762" d="M147.747 141.452c0.5154,-0.5944 3.5348,-3.3815 5.1873,-3.8197 -0.8686,0.5035 -2.3277,1.4531 -2.8815,1.992 -0.3785,0.3682 -1.6912,1.8122 -2.1097,2.3077 -0.0495,0.0587 -0.2426,-0.2655 -0.1961,-0.48z"/>
    </g>
    <g id="feuille7_39">
      <metadata id="CorelCorpID_42">
       <odm name="Nom" value="feuille7" type="0"/>
      </metadata>
     <path id="_77503288" fill="#F03742" stroke="#7F7F7F" stroke-width="0.0762" d="M148.969 134.002c0.036,-3.6977 5.5613,-2.507 6.3827,-1.5074 -0.3246,1.9034 -6.412,4.5251 -6.3827,1.5074z"/>
     <path id="_77505808" fill="#F03742" stroke="#7F7F7F" stroke-width="0.0762" d="M148.035 133.993c0.7203,-0.3165 4.6422,-1.5426 6.3232,-1.2311 -1.0005,0.0832 -2.7257,0.3167 -3.4569,0.5665 -0.4997,0.1707 -2.3042,0.9137 -2.8946,1.1824 -0.0698,0.0318 -0.1056,-0.3439 0.0283,-0.5178z"/>
    </g>
    <g id="feuille7_40">
      <metadata id="CorelCorpID_43">
       <odm name="Nom" value="feuille7" type="0"/>
      </metadata>
     <path id="_77451240" fill="#F03742" stroke="#7F7F7F" stroke-width="0.0762" d="M169.772 138.339c1.194,3.1129 -3.8339,3.9435 -4.8536,3.3771 -0.3579,-1.7037 3.8792,-5.9176 4.8536,-3.3771z"/>
     <path id="_76917776" fill="#F03742" stroke="#7F7F7F" stroke-width="0.0762" d="M170.559 138.038c-0.4993,0.5039 -3.3824,2.8304 -4.8952,3.1256 0.8115,-0.4009 2.181,-1.1678 2.7114,-1.6194 0.3626,-0.3086 1.6299,-1.5291 2.0361,-1.9498 0.048,-0.0498 0.2024,0.2534 0.1477,0.4436z"/>
    </g>
    <g id="feuille7_41">
      <metadata id="CorelCorpID_44">
       <odm name="Nom" value="feuille7" type="0"/>
      </metadata>
     <path id="_77671664" fill="#F03742" stroke="#7F7F7F" stroke-width="0.0762" d="M170.608 140.065c1.3645,-3.042 5.4996,-0.0638 5.8174,1.0586 -0.9553,1.4554 -6.9309,1.424 -5.8174,-1.0586z"/>
     <path id="_77121432" fill="#F03742" stroke="#7F7F7F" stroke-width="0.0762" d="M169.84 139.72c0.7093,-0.0015 4.3921,0.4013 5.6684,1.2655 -0.8565,-0.2925 -2.3662,-0.7224 -3.0604,-0.7799 -0.4745,-0.0393 -2.2336,-0.0769 -2.8183,-0.068 -0.0692,0.001 0.0369,-0.3222 0.2103,-0.4176z"/>
    </g>
   </g>
  </g>
  <g id="LfDry_Yellow" onclick="parent.replacechar('LfDry_Yellow')" onmousemove="parent.showtooltip('LfDry_Yellow', 'Dry leaves yellow')" onmouseout="parent.hidetooltip('LfDry_Yellow')" cursor="pointer" >
   <polygon id="sol_42" fill="none" stroke="black" stroke-width="0.0762" stroke-linejoin="bevel" points="62.1264,142.16 117.337,142.16 ">
    <metadata id="CorelCorpID_45">
     <odm name="Nom" value="sol" type="0"/>
    </metadata>
   </polygon>
   <path id="tronc_43" fill="url(#id2)" d="M90.6501 78.4894c4.0936,-4.7205 9.9086,-5.6929 17.9159,-12.0784 -4.2952,-8.9999 1.1342,-12.0004 2.0647,-13.1461 -0.7716,2.4305 -4.6164,5.7517 -0.8808,12.591 6.2072,-2.2334 6.6706,-2.883 9.2088,-8.7401 -1.6046,10.2102 -8.698,9.2766 -18.4736,16.2358 7.1138,-0.6896 12.128,-2.6912 16.6882,-4.3629 1.4811,-0.5846 1.8343,-0.8498 2.0875,-0.7682 -0.2524,0.6924 -0.0168,0.7744 -0.0249,1.1983 -5.3065,2.601 -9.8457,5.6759 -18.0509,6.0141 -3.6131,2.5415 -7.4194,4.4199 -10.0757,7.5036l4.771 59.2235 -15.0789 0c0,-14.4845 4.4492,-42.789 4.4492,-57.2739 -3.1792,-8.0202 -9.7729,-12.6209 -13.5321,-15.2135 -3.9555,-2.7281 -7.6366,-4.5951 -10.9645,-5.9384 -0.0025,-0.9709 -0.085,-1.0488 0.169,-1.5573 1.9797,0.8765 4.0778,2.0106 6.2764,3.5022 -2.2783,-2.0382 -3.4752,-3.1106 -5.0643,-4.7476 0.305,-0.8017 0.0002,0 0.6432,-1.7874 8.4538,6.9027 19.8524,10.9631 23.2689,18.6045l1.3036 -13.6418c-6.3269,-4.9327 -16.2685,-24.1858 -17.202,-33.9124 1.8108,7.0879 10.5939,26.9995 17.5968,31.8328l1.1376 -34.4151 1.5478 25.0949c3.7529,-3.503 11.396,-15.8912 13.277,-20.7486 -1.6495,6.1856 -9.4426,19.6873 -13.0579,22.4011l0 24.1299z"/>
   <g id="yellow">
    <g id="deciduous_3_44">
     <g id="feuille_x0020_tombant_1_45">
       <metadata id="CorelCorpID_46">
        <odm name="Nom" value="feuille7" type="0"/>
       </metadata>
      <path id="limbe_46" fill="#E3DC1E" stroke="#7F7F7F" stroke-width="0.0762" d="M70.853 116.249c2.1266,-1.1057 3.1283,2.4182 2.8066,3.1926 -1.1879,0.3941 -4.5421,-2.2903 -2.8066,-3.1926z">
       <metadata id="CorelCorpID_47">
        <odm name="Nom" value="feuille7" type="0"/>
       </metadata>
      </path>
      <path id="_76922048" fill="#E3DC1E" stroke="#7F7F7F" stroke-width="0.0762" d="M70.5738 115.711c0.4005,0.3157 2.2966,2.1861 2.6303,3.2428 -0.3523,-0.5471 -1.0113,-1.4631 -1.377,-1.8053 -0.2499,-0.2339 -1.2246,-1.04 -1.5581,-1.296 -0.0395,-0.0303 0.1645,-0.1651 0.3048,-0.1415z"/>
     </g>
     <g id="feuille_x0020_tombant_2_47">
       <metadata id="CorelCorpID_48">
        <odm name="Nom" value="feuille7" type="0"/>
       </metadata>
      <path id="limbe_48" fill="#E3DC1E" stroke="#7F7F7F" stroke-width="0.0762" d="M69.9899 123.638c2.986,0.1728 1.8093,4.5905 0.9698,5.2152 -1.5252,-0.3362 -3.4067,-5.3562 -0.9698,-5.2152z">
       <metadata id="CorelCorpID_49">
        <odm name="Nom" value="feuille7" type="0"/>
       </metadata>
      </path>
      <path id="_76931448" fill="#E3DC1E" stroke="#7F7F7F" stroke-width="0.0762" d="M70.0339 122.884c0.2277,0.5943 1.0659,3.8105 0.7488,5.1565 -0.0282,-0.8116 -0.1498,-2.2145 -0.3233,-2.8149 -0.1185,-0.4103 -0.6486,-1.8971 -0.8427,-2.3845 -0.023,-0.0577 0.2819,-0.072 0.4172,0.0429z"/>
     </g>
     <g id="feuille_x0020_tombant_3_49">
       <metadata id="CorelCorpID_50">
        <odm name="Nom" value="feuille7" type="0"/>
       </metadata>
      <path id="limbe_50" fill="#E3DC1E" stroke="#7F7F7F" stroke-width="0.0762" d="M75.5809 130.765c2.5989,1.3229 -0.1808,4.8074 -1.1749,5.0367 -1.2304,-0.8971 -0.9461,-6.1162 1.1749,-5.0367z">
       <metadata id="CorelCorpID_51">
        <odm name="Nom" value="feuille7" type="0"/>
       </metadata>
      </path>
      <path id="_27684552" fill="#E3DC1E" stroke="#7F7F7F" stroke-width="0.0762" d="M75.9155 130.108c-0.0292,0.6197 -0.5394,3.8198 -1.3492,4.8977 0.2923,-0.7358 0.7327,-2.0361 0.8128,-2.6402 0.0548,-0.4128 0.1632,-1.948 0.1806,-2.4591 0.0021,-0.0606 0.2799,0.046 0.3558,0.2016z"/>
     </g>
    </g>
    <g id="deciduous_2_51">
     <g id="feuille_x0020_tombant_1_52">
       <metadata id="CorelCorpID_52">
        <odm name="Nom" value="feuille7" type="0"/>
       </metadata>
      <path id="limbe_53" fill="#E3DC1E" stroke="#7F7F7F" stroke-width="0.0762" d="M99.4311 111.939c2.1266,-1.1057 3.1283,2.4183 2.8065,3.1927 -1.1879,0.394 -4.542,-2.2903 -2.8065,-3.1927z">
       <metadata id="CorelCorpID_53">
        <odm name="Nom" value="feuille7" type="0"/>
       </metadata>
      </path>
      <path id="_77218424" fill="#E3DC1E" stroke="#7F7F7F" stroke-width="0.0762" d="M99.1519 111.402c0.4005,0.3157 2.2965,2.1862 2.6303,3.2429 -0.3523,-0.5471 -1.0114,-1.4631 -1.377,-1.8053 -0.2499,-0.2339 -1.2246,-1.0401 -1.5581,-1.296 -0.0395,-0.0303 0.1645,-0.1652 0.3048,-0.1416z"/>
     </g>
     <g id="feuille_x0020_tombant_2_54">
       <metadata id="CorelCorpID_54">
        <odm name="Nom" value="feuille7" type="0"/>
       </metadata>
      <path id="limbe_55" fill="#E3DC1E" stroke="#7F7F7F" stroke-width="0.0762" d="M98.568 119.329c2.986,0.1727 1.8093,4.5904 0.9698,5.2152 -1.5252,-0.3363 -3.4067,-5.3562 -0.9698,-5.2152z">
       <metadata id="CorelCorpID_55">
        <odm name="Nom" value="feuille7" type="0"/>
       </metadata>
      </path>
      <path id="_77542128" fill="#E3DC1E" stroke="#7F7F7F" stroke-width="0.0762" d="M98.612 118.574c0.2277,0.5942 1.0658,3.8105 0.7488,5.1564 -0.0283,-0.8115 -0.1499,-2.2144 -0.3233,-2.8148 -0.1185,-0.4104 -0.6487,-1.8972 -0.8427,-2.3845 -0.023,-0.0577 0.2819,-0.072 0.4172,0.0429z"/>
     </g>
     <g id="feuille_x0020_tombant_3_56">
       <metadata id="CorelCorpID_56">
        <odm name="Nom" value="feuille7" type="0"/>
       </metadata>
      <path id="limbe_57" fill="#E3DC1E" stroke="#7F7F7F" stroke-width="0.0762" d="M104.159 126.455c2.599,1.3229 -0.1807,4.8074 -1.1748,5.0367 -1.2305,-0.8971 -0.9461,-6.1162 1.1748,-5.0367z">
       <metadata id="CorelCorpID_57">
        <odm name="Nom" value="feuille7" type="0"/>
       </metadata>
      </path>
      <path id="_66374256" fill="#E3DC1E" stroke="#7F7F7F" stroke-width="0.0762" d="M104.494 125.799c-0.0292,0.6197 -0.5394,3.8198 -1.3493,4.8977 0.2924,-0.7358 0.7328,-2.0362 0.8129,-2.6402 0.0548,-0.4128 0.1632,-1.948 0.1806,-2.4592 0.0021,-0.0605 0.2799,0.0461 0.3558,0.2017z"/>
     </g>
    </g>
    <g id="feuilles_x0020_mortes_58">
     <g id="feuille7_59">
       <metadata id="CorelCorpID_58">
        <odm name="Nom" value="feuille7" type="0"/>
       </metadata>
      <path id="_76758880" fill="#E3DC1E" stroke="#7F7F7F" stroke-width="0.0762" d="M85.0589 135.956c3.126,-0.834 3.4136,4.1028 2.7628,5.0289 -1.6807,0.1713 -5.3139,-4.3483 -2.7628,-5.0289z"/>
      <path id="_77278728" fill="#E3DC1E" stroke="#7F7F7F" stroke-width="0.0762" d="M84.8485 135.166c0.4352,0.5333 2.3857,3.5534 2.5159,5.0435 -0.3039,-0.8241 -0.904,-2.2241 -1.2856,-2.7821 -0.2607,-0.3814 -1.309,-1.7292 -1.6734,-2.1641 -0.0432,-0.0515 0.2652,-0.1695 0.4431,-0.0973z"/>
     </g>
     <g id="feuille7_60">
       <metadata id="CorelCorpID_59">
        <odm name="Nom" value="feuille7" type="0"/>
       </metadata>
      <path id="_76769152" fill="#E3DC1E" stroke="#7F7F7F" stroke-width="0.0762" d="M99.7382 136.279c3.3145,-1.7233 4.8757,3.7692 4.3743,4.9761 -1.8515,0.6142 -7.0793,-3.5696 -4.3743,-4.9761z"/>
      <path id="_77172272" fill="#E3DC1E" stroke="#7F7F7F" stroke-width="0.0762" d="M99.303 135.441c0.6242,0.4921 3.5794,3.4074 4.0996,5.0543 -0.5491,-0.8527 -1.5763,-2.2803 -2.1462,-2.8137 -0.3895,-0.3646 -1.9087,-1.621 -2.4285,-2.02 -0.0616,-0.0472 0.2565,-0.2574 0.4751,-0.2206z"/>
     </g>
     <g id="feuille7_61">
       <metadata id="CorelCorpID_60">
        <odm name="Nom" value="feuille7" type="0"/>
       </metadata>
      <path id="_67095576" fill="#E3DC1E" stroke="#7F7F7F" stroke-width="0.0762" d="M93.7459 140.015c1.2889,-3.466 6.0821,-0.4707 6.5154,0.7483 -0.9513,1.6803 -7.5672,2.0803 -6.5154,-0.7483z"/>
      <path id="_67148784" fill="#E3DC1E" stroke="#7F7F7F" stroke-width="0.0762" d="M92.8701 139.689c0.7849,-0.0532 4.8902,0.1246 6.3657,0.9882 -0.9693,-0.2614 -2.6714,-0.6273 -3.444,-0.6404 -0.5279,-0.009 -2.4776,0.0774 -3.124,0.1297 -0.0765,0.0062 0.0173,-0.3593 0.2023,-0.4775z"/>
     </g>
     <g id="feuille7_62">
       <metadata id="CorelCorpID_61">
        <odm name="Nom" value="feuille7" type="0"/>
       </metadata>
      <path id="_76590560" fill="#E3DC1E" stroke="#7F7F7F" stroke-width="0.0762" d="M67.1208 135.166c3.2701,-1.7002 4.8104,3.7186 4.3157,4.9094 -1.8267,0.6059 -6.9843,-3.5218 -4.3157,-4.9094z"/>
      <path id="_66902288" fill="#E3DC1E" stroke="#7F7F7F" stroke-width="0.0762" d="M66.6916 134.339c0.6158,0.4855 3.5313,3.3618 4.0445,4.9866 -0.5417,-0.8413 -1.5551,-2.2498 -2.1174,-2.776 -0.3842,-0.3597 -1.8831,-1.5993 -2.3959,-1.9929 -0.0607,-0.0466 0.253,-0.2539 0.4688,-0.2177z"/>
     </g>
     <g id="feuille7_63">
       <metadata id="CorelCorpID_62">
        <odm name="Nom" value="feuille7" type="0"/>
       </metadata>
      <path id="_67149720" fill="#E3DC1E" stroke="#7F7F7F" stroke-width="0.0762" d="M85.0882 141.311c0.2807,-3.2231 -4.6314,-2.6524 -5.431,-1.8512 0.122,1.6849 5.2019,4.4816 5.431,1.8512z"/>
      <path id="_67158000" fill="#E3DC1E" stroke="#7F7F7F" stroke-width="0.0762" d="M85.9028 141.381c-0.6005,-0.3364 -3.9124,-1.735 -5.4026,-1.6055 0.8643,0.1568 2.347,0.5057 2.9626,0.785 0.4208,0.1908 1.9295,0.9901 2.421,1.2738 0.0581,0.0336 0.1209,-0.2905 0.019,-0.4533z"/>
     </g>
     <g id="feuille7_64">
       <metadata id="CorelCorpID_63">
        <odm name="Nom" value="feuille7" type="0"/>
       </metadata>
      <path id="_66289720" fill="#E3DC1E" stroke="#7F7F7F" stroke-width="0.0762" d="M89.177 141.06c-1.5506,-3.3571 3.9525,-4.6466 5.1227,-4.0949 0.5216,1.8591 -3.8572,6.8346 -5.1227,4.0949z"/>
      <path id="_66730440" fill="#E3DC1E" stroke="#7F7F7F" stroke-width="0.0762" d="M88.3284 141.452c0.5154,-0.5944 3.5348,-3.3815 5.1873,-3.8197 -0.8686,0.5035 -2.3277,1.4531 -2.8815,1.992 -0.3785,0.3682 -1.6912,1.8122 -2.1097,2.3077 -0.0495,0.0587 -0.2426,-0.2655 -0.1961,-0.48z"/>
     </g>
     <g id="feuille7_65">
       <metadata id="CorelCorpID_64">
        <odm name="Nom" value="feuille7" type="0"/>
       </metadata>
      <path id="_77753952" fill="#E3DC1E" stroke="#7F7F7F" stroke-width="0.0762" d="M89.5504 134.002c0.036,-3.6977 5.5613,-2.507 6.3827,-1.5074 -0.3246,1.9034 -6.412,4.5251 -6.3827,1.5074z"/>
      <path id="_66273048" fill="#E3DC1E" stroke="#7F7F7F" stroke-width="0.0762" d="M88.6159 133.993c0.7203,-0.3165 4.6422,-1.5426 6.3232,-1.2311 -1.0005,0.0832 -2.7257,0.3167 -3.4569,0.5665 -0.4997,0.1707 -2.3042,0.9137 -2.8946,1.1824 -0.0699,0.0318 -0.1056,-0.3439 0.0283,-0.5178z"/>
     </g>
     <g id="feuille7_66">
       <metadata id="CorelCorpID_65">
        <odm name="Nom" value="feuille7" type="0"/>
       </metadata>
      <path id="_76440192" fill="#E3DC1E" stroke="#7F7F7F" stroke-width="0.0762" d="M110.353 138.339c1.194,3.1129 -3.8339,3.9435 -4.8536,3.3771 -0.3579,-1.7037 3.8792,-5.9176 4.8536,-3.3771z"/>
      <path id="_66450544" fill="#E3DC1E" stroke="#7F7F7F" stroke-width="0.0762" d="M111.14 138.038c-0.4993,0.5039 -3.3824,2.8304 -4.8953,3.1256 0.8116,-0.4009 2.1811,-1.1678 2.7115,-1.6194 0.3625,-0.3086 1.6299,-1.5291 2.036,-1.9498 0.0481,-0.0498 0.2024,0.2534 0.1478,0.4436z"/>
     </g>
     <g id="feuille7_67">
       <metadata id="CorelCorpID_66">
        <odm name="Nom" value="feuille7" type="0"/>
       </metadata>
      <path id="_65786728" fill="#E3DC1E" stroke="#7F7F7F" stroke-width="0.0762" d="M111.19 140.065c1.3645,-3.042 5.4996,-0.0638 5.8174,1.0586 -0.9553,1.4554 -6.9309,1.424 -5.8174,-1.0586z"/>
      <path id="_66449576" fill="#E3DC1E" stroke="#7F7F7F" stroke-width="0.0762" d="M110.421 139.72c0.7093,-0.0015 4.3921,0.4013 5.6684,1.2655 -0.8566,-0.2925 -2.3662,-0.7224 -3.0604,-0.7799 -0.4745,-0.0393 -2.2336,-0.0769 -2.8183,-0.068 -0.0692,0.001 0.0369,-0.3222 0.2103,-0.4176z"/>
     </g>
    </g>
   </g>
  </g>
  <g id="LfDry_Black" onclick="parent.replacechar('LfDry_Black')" onmousemove="parent.showtooltip('LfDry_Black', 'Dry leaves black')" onmouseout="parent.hidetooltip('LfDry_Black')" cursor="pointer" >
   <polygon id="sol_68" fill="none" stroke="black" stroke-width="0.0762" stroke-linejoin="bevel" points="3.3716,142.16 58.5817,142.16 ">
    <metadata id="CorelCorpID_67">
     <odm name="Nom" value="sol" type="0"/>
    </metadata>
   </polygon>
   <path id="tronc_69" fill="url(#id3)" d="M30.6501 78.5523c4.0936,-4.7205 9.9086,-5.6929 17.9159,-12.0784 -4.2952,-8.9999 1.1342,-12.0004 2.0647,-13.1461 -0.7716,2.4305 -4.6164,5.7517 -0.8808,12.591 6.2072,-2.2334 6.6706,-2.883 9.2088,-8.7401 -1.6046,10.2102 -8.698,9.2766 -18.4736,16.2358 7.1138,-0.6896 12.128,-2.6912 16.6882,-4.3629 1.4811,-0.5846 1.8343,-0.8498 2.0875,-0.7682 -0.2524,0.6924 -0.0168,0.7744 -0.0249,1.1983 -5.3065,2.601 -9.8457,5.6759 -18.0509,6.0141 -3.6131,2.5415 -7.4194,4.4199 -10.0757,7.5036l4.7894 59.1463 -15.0971 0.0142c0,-14.4844 4.449,-42.726 4.449,-57.2109 -3.1792,-8.0202 -9.7729,-12.6209 -13.5321,-15.2135 -3.9555,-2.7281 -7.6366,-4.595 -10.9645,-5.9384 -0.0025,-0.9709 -0.085,-1.0488 0.169,-1.5573 1.9797,0.8765 4.0778,2.0106 6.2764,3.5022 -2.2783,-2.0382 -3.4752,-3.1106 -5.0643,-4.7476 0.305,-0.8017 0.0002,0 0.6432,-1.7874 8.4538,6.9027 19.8524,10.9631 23.2689,18.6045l1.3036 -13.6418c-6.3269,-4.9327 -16.2685,-24.1858 -17.202,-33.9124 1.8108,7.0879 10.5939,26.9995 17.5968,31.8328l1.1376 -34.4151 1.5478 25.0949c3.7529,-3.503 11.396,-15.8912 13.277,-20.7485 -1.6495,6.1855 -9.4426,19.6872 -13.0579,22.4011l0 24.1298z"/>
   <g id="black">
    <g id="deciduous_3_70">
     <g id="feuille_x0020_tombant_1_71">
       <metadata id="CorelCorpID_68">
        <odm name="Nom" value="feuille7" type="0"/>
       </metadata>
      <path id="limbe_72" fill="black" stroke="#7F7F7F" stroke-width="0.0762" d="M10.1894 116.249c2.1266,-1.1057 3.1283,2.4182 2.8066,3.1926 -1.1879,0.3941 -4.5421,-2.2903 -2.8066,-3.1926z">
       <metadata id="CorelCorpID_69">
        <odm name="Nom" value="feuille7" type="0"/>
       </metadata>
      </path>
      <path id="_76902144" fill="black" stroke="#7F7F7F" stroke-width="0.0762" d="M9.9102 115.711c0.4005,0.3157 2.2966,2.1861 2.6303,3.2428 -0.3523,-0.5471 -1.0113,-1.4631 -1.377,-1.8053 -0.2499,-0.2339 -1.2246,-1.04 -1.5581,-1.296 -0.0395,-0.0303 0.1645,-0.1651 0.3048,-0.1415z"/>
     </g>
     <g id="feuille_x0020_tombant_2_73">
       <metadata id="CorelCorpID_70">
        <odm name="Nom" value="feuille7" type="0"/>
       </metadata>
      <path id="limbe_74" fill="black" stroke="#7F7F7F" stroke-width="0.0762" d="M9.3263 123.638c2.986,0.1728 1.8093,4.5905 0.9698,5.2152 -1.5252,-0.3362 -3.4067,-5.3562 -0.9698,-5.2152z">
       <metadata id="CorelCorpID_71">
        <odm name="Nom" value="feuille7" type="0"/>
       </metadata>
      </path>
      <path id="_66433888" fill="black" stroke="#7F7F7F" stroke-width="0.0762" d="M9.3703 122.884c0.2277,0.5943 1.0659,3.8105 0.7488,5.1565 -0.0282,-0.8116 -0.1498,-2.2145 -0.3233,-2.8149 -0.1185,-0.4103 -0.6486,-1.8971 -0.8427,-2.3845 -0.023,-0.0577 0.2819,-0.072 0.4172,0.0429z"/>
     </g>
     <g id="feuille_x0020_tombant_3_75">
       <metadata id="CorelCorpID_72">
        <odm name="Nom" value="feuille7" type="0"/>
       </metadata>
      <path id="limbe_76" fill="black" stroke="#7F7F7F" stroke-width="0.0762" d="M14.9173 130.765c2.5989,1.3229 -0.1808,4.8074 -1.1749,5.0367 -1.2304,-0.8971 -0.9461,-6.1162 1.1749,-5.0367z">
       <metadata id="CorelCorpID_73">
        <odm name="Nom" value="feuille7" type="0"/>
       </metadata>
      </path>
      <path id="_67232680" fill="black" stroke="#7F7F7F" stroke-width="0.0762" d="M15.2519 130.108c-0.0292,0.6197 -0.5394,3.8198 -1.3492,4.8977 0.2923,-0.7358 0.7327,-2.0361 0.8128,-2.6402 0.0548,-0.4128 0.1632,-1.948 0.1806,-2.4591 0.0021,-0.0606 0.2799,0.046 0.3558,0.2016z"/>
     </g>
    </g>
    <g id="deciduous_2_77">
     <g id="feuille_x0020_tombant_1_78">
       <metadata id="CorelCorpID_74">
        <odm name="Nom" value="feuille7" type="0"/>
       </metadata>
      <path id="limbe_79" fill="black" stroke="#7F7F7F" stroke-width="0.0762" d="M38.7675 111.939c2.1266,-1.1057 3.1283,2.4183 2.8065,3.1927 -1.1879,0.394 -4.542,-2.2903 -2.8065,-3.1927z">
       <metadata id="CorelCorpID_75">
        <odm name="Nom" value="feuille7" type="0"/>
       </metadata>
      </path>
      <path id="_66478920" fill="black" stroke="#7F7F7F" stroke-width="0.0762" d="M38.4883 111.402c0.4005,0.3157 2.2965,2.1862 2.6303,3.2429 -0.3523,-0.5471 -1.0114,-1.4631 -1.377,-1.8053 -0.2499,-0.2339 -1.2246,-1.0401 -1.5581,-1.296 -0.0395,-0.0303 0.1645,-0.1652 0.3048,-0.1416z"/>
     </g>
     <g id="feuille_x0020_tombant_2_80">
       <metadata id="CorelCorpID_76">
        <odm name="Nom" value="feuille7" type="0"/>
       </metadata>
      <path id="limbe_81" fill="black" stroke="#7F7F7F" stroke-width="0.0762" d="M37.9044 119.329c2.986,0.1727 1.8093,4.5904 0.9698,5.2152 -1.5252,-0.3363 -3.4067,-5.3562 -0.9698,-5.2152z">
       <metadata id="CorelCorpID_77">
        <odm name="Nom" value="feuille7" type="0"/>
       </metadata>
      </path>
      <path id="_66375328" fill="black" stroke="#7F7F7F" stroke-width="0.0762" d="M37.9484 118.574c0.2277,0.5942 1.0658,3.8105 0.7488,5.1564 -0.0283,-0.8115 -0.1499,-2.2144 -0.3233,-2.8148 -0.1185,-0.4104 -0.6487,-1.8972 -0.8427,-2.3845 -0.023,-0.0577 0.2819,-0.072 0.4172,0.0429z"/>
     </g>
     <g id="feuille_x0020_tombant_3_82">
       <metadata id="CorelCorpID_78">
        <odm name="Nom" value="feuille7" type="0"/>
       </metadata>
      <path id="limbe_83" fill="black" stroke="#7F7F7F" stroke-width="0.0762" d="M43.4953 126.455c2.599,1.3229 -0.1807,4.8074 -1.1748,5.0367 -1.2305,-0.8971 -0.9461,-6.1162 1.1748,-5.0367z">
       <metadata id="CorelCorpID_79">
        <odm name="Nom" value="feuille7" type="0"/>
       </metadata>
      </path>
      <path id="_66744656" fill="black" stroke="#7F7F7F" stroke-width="0.0762" d="M43.83 125.799c-0.0292,0.6197 -0.5394,3.8198 -1.3493,4.8977 0.2924,-0.7358 0.7328,-2.0362 0.8129,-2.6402 0.0548,-0.4128 0.1632,-1.948 0.1806,-2.4592 0.0021,-0.0605 0.2799,0.0461 0.3558,0.2017z"/>
     </g>
    </g>
    <g id="feuilles_x0020_mortes_84">
     <g id="feuille7_85">
       <metadata id="CorelCorpID_80">
        <odm name="Nom" value="feuille7" type="0"/>
       </metadata>
      <path id="_66471464" fill="black" stroke="#7F7F7F" stroke-width="0.0762" d="M24.3953 135.956c3.126,-0.834 3.4136,4.1028 2.7628,5.0289 -1.6807,0.1713 -5.3139,-4.3483 -2.7628,-5.0289z"/>
      <path id="_77127504" fill="black" stroke="#7F7F7F" stroke-width="0.0762" d="M24.1849 135.166c0.4352,0.5333 2.3857,3.5534 2.5159,5.0435 -0.3039,-0.8241 -0.9041,-2.2241 -1.2856,-2.7821 -0.2607,-0.3814 -1.309,-1.7292 -1.6734,-2.1641 -0.0432,-0.0515 0.2652,-0.1695 0.4431,-0.0973z"/>
     </g>
     <g id="feuille7_86">
       <metadata id="CorelCorpID_81">
        <odm name="Nom" value="feuille7" type="0"/>
       </metadata>
      <path id="_66279664" fill="black" stroke="#7F7F7F" stroke-width="0.0762" d="M39.0746 136.279c3.3145,-1.7233 4.8757,3.7692 4.3743,4.9761 -1.8515,0.6142 -7.0793,-3.5696 -4.3743,-4.9761z"/>
      <path id="_77217040" fill="black" stroke="#7F7F7F" stroke-width="0.0762" d="M38.6394 135.441c0.6242,0.4921 3.5794,3.4074 4.0996,5.0543 -0.5491,-0.8527 -1.5763,-2.2803 -2.1462,-2.8137 -0.3895,-0.3646 -1.9087,-1.621 -2.4285,-2.02 -0.0616,-0.0472 0.2565,-0.2574 0.4751,-0.2206z"/>
     </g>
     <g id="feuille7_87">
       <metadata id="CorelCorpID_82">
        <odm name="Nom" value="feuille7" type="0"/>
       </metadata>
      <path id="_77812400" fill="black" stroke="#7F7F7F" stroke-width="0.0762" d="M33.0823 140.015c1.2889,-3.466 6.0821,-0.4707 6.5154,0.7483 -0.9513,1.6803 -7.5672,2.0803 -6.5154,-0.7483z"/>
      <path id="_76942744" fill="black" stroke="#7F7F7F" stroke-width="0.0762" d="M32.2065 139.689c0.7849,-0.0532 4.8902,0.1246 6.3657,0.9882 -0.9693,-0.2614 -2.6714,-0.6273 -3.444,-0.6404 -0.5279,-0.009 -2.4776,0.0774 -3.124,0.1297 -0.0766,0.0062 0.0173,-0.3593 0.2023,-0.4775z"/>
     </g>
     <g id="feuille7_88">
       <metadata id="CorelCorpID_83">
        <odm name="Nom" value="feuille7" type="0"/>
       </metadata>
      <path id="_66739488" fill="black" stroke="#7F7F7F" stroke-width="0.0762" d="M6.4572 135.166c3.2701,-1.7002 4.8104,3.7186 4.3157,4.9094 -1.8267,0.6059 -6.9843,-3.5218 -4.3157,-4.9094z"/>
      <path id="_67196640" fill="black" stroke="#7F7F7F" stroke-width="0.0762" d="M6.028 134.339c0.6158,0.4855 3.5313,3.3618 4.0445,4.9866 -0.5417,-0.8413 -1.5551,-2.2498 -2.1174,-2.776 -0.3842,-0.3597 -1.8831,-1.5993 -2.3959,-1.9929 -0.0607,-0.0466 0.253,-0.2539 0.4688,-0.2177z"/>
     </g>
     <g id="feuille7_89">
       <metadata id="CorelCorpID_84">
        <odm name="Nom" value="feuille7" type="0"/>
       </metadata>
      <path id="_77044824" fill="black" stroke="#7F7F7F" stroke-width="0.0762" d="M24.4246 141.311c0.2807,-3.2231 -4.6314,-2.6524 -5.431,-1.8512 0.122,1.6849 5.2019,4.4816 5.431,1.8512z"/>
      <path id="_77034696" fill="black" stroke="#7F7F7F" stroke-width="0.0762" d="M25.2392 141.381c-0.6005,-0.3364 -3.9124,-1.735 -5.4026,-1.6055 0.8643,0.1568 2.347,0.5057 2.9626,0.785 0.4208,0.1908 1.9295,0.9901 2.421,1.2738 0.0581,0.0336 0.1209,-0.2905 0.019,-0.4533z"/>
     </g>
     <g id="feuille7_90">
       <metadata id="CorelCorpID_85">
        <odm name="Nom" value="feuille7" type="0"/>
       </metadata>
      <path id="_76750232" fill="black" stroke="#7F7F7F" stroke-width="0.0762" d="M28.5134 141.06c-1.5506,-3.3571 3.9525,-4.6466 5.1227,-4.0949 0.5216,1.8591 -3.8572,6.8346 -5.1227,4.0949z"/>
      <path id="_77814536" fill="black" stroke="#7F7F7F" stroke-width="0.0762" d="M27.6648 141.452c0.5154,-0.5944 3.5348,-3.3815 5.1873,-3.8197 -0.8686,0.5035 -2.3277,1.4531 -2.8815,1.992 -0.3785,0.3682 -1.6912,1.8122 -2.1097,2.3077 -0.0495,0.0587 -0.2426,-0.2655 -0.1961,-0.48z"/>
     </g>
     <g id="feuille7_91">
       <metadata id="CorelCorpID_86">
        <odm name="Nom" value="feuille7" type="0"/>
       </metadata>
      <path id="_77753224" fill="black" stroke="#7F7F7F" stroke-width="0.0762" d="M28.8868 134.002c0.036,-3.6977 5.5613,-2.507 6.3827,-1.5074 -0.3246,1.9034 -6.412,4.5251 -6.3827,1.5074z"/>
      <path id="_77807328" fill="black" stroke="#7F7F7F" stroke-width="0.0762" d="M27.9523 133.993c0.7203,-0.3165 4.6422,-1.5426 6.3232,-1.2311 -1.0005,0.0832 -2.7257,0.3167 -3.4569,0.5665 -0.4997,0.1707 -2.3042,0.9137 -2.8946,1.1824 -0.0699,0.0318 -0.1056,-0.3439 0.0283,-0.5178z"/>
     </g>
     <g id="feuille7_92">
       <metadata id="CorelCorpID_87">
        <odm name="Nom" value="feuille7" type="0"/>
       </metadata>
      <path id="_65752712" fill="black" stroke="#7F7F7F" stroke-width="0.0762" d="M49.6894 138.339c1.194,3.1129 -3.8339,3.9435 -4.8536,3.3771 -0.3579,-1.7037 3.8792,-5.9176 4.8536,-3.3771z"/>
      <path id="_67220560" fill="black" stroke="#7F7F7F" stroke-width="0.0762" d="M50.4763 138.038c-0.4993,0.5039 -3.3824,2.8304 -4.8953,3.1256 0.8116,-0.4009 2.1811,-1.1678 2.7115,-1.6194 0.3625,-0.3086 1.6299,-1.5291 2.036,-1.9498 0.0481,-0.0498 0.2024,0.2534 0.1478,0.4436z"/>
     </g>
     <g id="feuille7_93">
       <metadata id="CorelCorpID_88">
        <odm name="Nom" value="feuille7" type="0"/>
       </metadata>
      <path id="_66519456" fill="black" stroke="#7F7F7F" stroke-width="0.0762" d="M50.5259 140.065c1.3645,-3.042 5.4996,-0.0638 5.8174,1.0586 -0.9553,1.4554 -6.9309,1.424 -5.8174,-1.0586z"/>
      <path id="_66367440" fill="black" stroke="#7F7F7F" stroke-width="0.0762" d="M49.7573 139.72c0.7093,-0.0015 4.3921,0.4013 5.6684,1.2655 -0.8566,-0.2925 -2.3662,-0.7224 -3.0605,-0.7799 -0.4744,-0.0393 -2.2335,-0.0769 -2.8182,-0.068 -0.0692,0.001 0.0369,-0.3222 0.2103,-0.4176z"/>
     </g>
    </g>
   </g>
  </g>
 </g>
<image xlink:href="tick.gif" id="imgtick" x="-100" y="-100" width="15" height="15"/>
<rect id="recttooltip" x="-100" y="-100" width="55" height="6" fill-opacity="0.4" pointer-events="none"/>
<text id="textboxid" x="-100" y="-100" pointer-events="none"> </text>
</a></svg>
