<?xml version="1.0" encoding="UTF-8"?>
<!DOCTYPE svg PUBLIC "-//W3C//DTD SVG 1.1//EN" "http://www.w3.org/Graphics/SVG/1.1/DTD/svg11.dtd">
<!-- Creator: CorelDRAW -->
<svg xmlns="http://www.w3.org/2000/svg" xml:space="preserve" shape-rendering="geometricPrecision" text-rendering="geometricPrecision" image-rendering="optimizeQuality" fill-rule="evenodd" clip-rule="evenodd"
viewBox="0 0 240 180"
 xmlns:xlink="http://www.w3.org/1999/xlink">
<a>
 <g id="Layer_x0020_1">
  <metadata id="CorelCorpID_0Corel-Layer"/>
  <rect fill="none" width="240" height="180"/>
  <g id="LftApex_Large" onclick="parent.replacechar('LftApex_Large')" onmousemove="parent.showtooltip('LftApex_Large', 'Size of leaflets increasing towards apex')" onmouseout="parent.hidetooltip('LftApex_Large')" cursor="pointer" >
   <path id="Rachis" fill="#00C800" stroke="black" stroke-width="0.0762" stroke-linejoin="bevel" d="M180.488 134.76c0.4521,-32.0399 -1.1312,-16.8352 -2.0103,0.0836 -2.078,15.0769 -1.5656,35.883 7.7748,40.2548 0.8994,-0.5636 -0.121,0.0234 0.9532,-1.5785 0.6969,-2.2243 -0.4633,1.4223 -4.0341,-4.4607 -3.8636,-5.8816 -3.4533,-19.3989 -2.6836,-34.2992z">
    <metadata id="CorelCorpID_1">
     <odm name="Nom" value="Rachis" type="0"/>
    </metadata>
   </path>
   <g id="foliole">
     <metadata id="CorelCorpID_2">
      <odm name="Nom" value="foliole" type="0"/>
     </metadata>
    <path id="_66247224" fill="#00C800" stroke="black" stroke-width="0.0762" stroke-linejoin="bevel" d="M177.652 156.284c0.2359,-4.8888 -11.5889,-9.8552 -13.5981,-6.0041 -0.4042,4.1005 13.122,12.085 13.4789,6.9629l0.1192 -0.9588z"/>
    <path id="_76435520" fill="#00C800" stroke="black" stroke-width="0.0762" stroke-linejoin="bevel" d="M177.887 157.231c-0.3729,0.087 0.56,-0.2034 0.3288,-0.5475 -1.5667,-0.8184 -9.1573,-5.0448 -13.9822,-6.5094 7.6623,3.578 12.6909,6.5816 13.6534,7.0569z"/>
   </g>
   <g id="foliole_0">
     <metadata id="CorelCorpID_3">
      <odm name="Nom" value="foliole" type="0"/>
     </metadata>
    <path id="_66402304" fill="#00C800" stroke="black" stroke-width="0.0762" stroke-linejoin="bevel" d="M180.532 156.238c-0.2359,-4.8888 11.5889,-9.8552 13.5981,-6.0041 0.4042,4.1005 -13.122,12.085 -13.4789,6.9629l-0.1192 -0.9588z"/>
    <path id="_76723832" fill="#00C800" stroke="black" stroke-width="0.0762" stroke-linejoin="bevel" d="M180.297 157.185c0.3729,0.087 -0.56,-0.2034 -0.3288,-0.5475 1.5667,-0.8184 9.1573,-5.0448 13.9822,-6.5094 -7.6623,3.578 -12.6909,6.5816 -13.6534,7.0569z"/>
   </g>
   <g id="foliole_1">
     <metadata id="CorelCorpID_4">
      <odm name="Nom" value="foliole" type="0"/>
     </metadata>
    <path id="_66916848" fill="#00C800" stroke="black" stroke-width="0.0762" stroke-linejoin="bevel" d="M176.93 142.84c-0.5479,-6.032 -15.914,-10.5811 -17.7206,-5.5909 0.2063,5.0864 18.1779,13.1177 17.7386,6.7835l-0.018 -1.1926z"/>
    <path id="_77229992" fill="#00C800" stroke="black" stroke-width="0.0762" stroke-linejoin="bevel" d="M177.38 143.972c-0.4428,0.1556 0.6526,-0.3229 0.3098,-0.7151 -2.0634,-0.7996 -12.1051,-4.9944 -18.2787,-6.1609 10.0187,3.3895 16.706,6.4186 17.9689,6.876z"/>
   </g>
   <g id="foliole_2">
     <metadata id="CorelCorpID_5">
      <odm name="Nom" value="foliole" type="0"/>
     </metadata>
    <path id="_66300664" fill="#00C800" stroke="black" stroke-width="0.0762" stroke-linejoin="bevel" d="M177.897 130.274c-0.6657,-7.3284 -19.3344,-12.8552 -21.5293,-6.7925 0.2507,6.1796 22.0849,15.9371 21.5511,8.2414l-0.0218 -1.4489z"/>
    <path id="_77063640" fill="#00C800" stroke="black" stroke-width="0.0762" stroke-linejoin="bevel" d="M178.443 131.65c-0.5379,0.1891 0.7929,-0.3923 0.3764,-0.8687 -2.5068,-0.9716 -14.7067,-6.0679 -22.2072,-7.4851 12.172,4.118 20.2965,7.7981 21.8308,8.3538z"/>
   </g>
   <g id="foliole_3">
     <metadata id="CorelCorpID_6">
      <odm name="Nom" value="foliole" type="0"/>
     </metadata>
    <path id="_76444152" fill="#00C800" stroke="black" stroke-width="0.0762" stroke-linejoin="bevel" d="M178.717 116.316c-0.7789,-8.5752 -22.6237,-15.0422 -25.192,-7.948 0.2933,7.2309 25.8422,18.6484 25.2176,9.6435l-0.0256 -1.6955z"/>
    <path id="_76981984" fill="#00C800" stroke="black" stroke-width="0.0762" stroke-linejoin="bevel" d="M179.356 117.925c-0.6294,0.2213 0.9278,-0.459 0.4405,-1.0165 -2.9333,-1.1368 -17.2088,-7.1002 -25.9854,-8.7585 14.2429,4.8186 23.7496,9.1247 25.5449,9.775z"/>
   </g>
   <g id="foliole_4">
     <metadata id="CorelCorpID_7">
      <odm name="Nom" value="foliole" type="0"/>
     </metadata>
    <path id="_76656592" fill="#00C800" stroke="black" stroke-width="0.0762" stroke-linejoin="bevel" d="M180.268 143.444c0.5479,-6.032 15.914,-10.5811 17.7206,-5.5909 -0.2063,5.0865 -18.1779,13.1177 -17.7386,6.7835l0.018 -1.1926z"/>
    <path id="_66519240" fill="#00C800" stroke="black" stroke-width="0.0762" stroke-linejoin="bevel" d="M179.818 144.576c0.4428,0.1557 -0.6526,-0.3229 -0.3098,-0.715 2.0634,-0.7997 12.1051,-4.9944 18.2787,-6.161 -10.0187,3.3896 -16.706,6.4186 -17.9689,6.876z"/>
   </g>
   <g id="foliole_5">
     <metadata id="CorelCorpID_8">
      <odm name="Nom" value="foliole" type="0"/>
     </metadata>
    <path id="_77213272" fill="#00C800" stroke="black" stroke-width="0.0762" stroke-linejoin="bevel" d="M180.456 130.951c0.6657,-7.3284 19.3344,-12.8553 21.5292,-6.7925 -0.2506,6.1796 -22.0848,15.937 -21.5511,8.2414l0.0219 -1.4489z"/>
    <path id="_66783640" fill="#00C800" stroke="black" stroke-width="0.0762" stroke-linejoin="bevel" d="M179.909 132.326c0.5379,0.1891 -0.7929,-0.3923 -0.3765,-0.8688 2.5069,-0.9715 14.7068,-6.0678 22.2073,-7.485 -12.172,4.118 -20.2965,7.798 -21.8308,8.3538z"/>
   </g>
   <g id="foliole_6">
     <metadata id="CorelCorpID_9">
      <odm name="Nom" value="foliole" type="0"/>
     </metadata>
    <path id="_65748448" fill="#00C800" stroke="black" stroke-width="0.0762" stroke-linejoin="bevel" d="M181.283 116.037c0.779,-8.5752 22.6238,-15.0423 25.1921,-7.948 -0.2934,7.2309 -25.8422,18.6483 -25.2176,9.6435l0.0255 -1.6955z"/>
    <path id="_66893520" fill="#00C800" stroke="black" stroke-width="0.0762" stroke-linejoin="bevel" d="M180.644 117.646c0.6295,0.2212 -0.9277,-0.459 -0.4404,-1.0166 2.9333,-1.1368 17.2088,-7.1001 25.9853,-8.7584 -14.2428,4.8186 -23.7495,9.1247 -25.5449,9.775z"/>
   </g>
  </g>
  <g id="LftApex_Paral" onclick="parent.replacechar('LftApex_Paral')" onmousemove="parent.showtooltip('LftApex_Paral', 'Equal size of leaflets')" onmouseout="parent.hidetooltip('LftApex_Paral')" cursor="pointer" >
   <path id="Rachis_7" fill="#00C800" stroke="black" stroke-width="0.0762" stroke-linejoin="bevel" d="M61.6819 131.894c-0.0509,-7.9043 -0.1052,-13.926 -0.1643,-18.3878 -0.0118,-0.4658 -0.6301,-1.588 -1.0419,0.0332 -0.2641,5.8444 -0.5814,12.959 -0.9673,18.4449 -2.2467,16.3009 -1.6927,38.7961 8.406,43.5229 0.9723,-0.6094 -0.1308,0.0253 1.0306,-1.7067 0.7534,-2.4049 -0.501,1.5378 -4.3617,-4.8228 -4.1772,-6.3591 -3.7336,-20.9737 -2.9014,-37.0837z">
    <metadata id="CorelCorpID_10">
     <odm name="Nom" value="Rachis" type="0"/>
    </metadata>
   </path>
   <g id="foliole_8">
     <metadata id="CorelCorpID_11">
      <odm name="Nom" value="foliole" type="0"/>
     </metadata>
    <path id="_66880592" fill="#00C800" stroke="black" stroke-width="0.0762" stroke-linejoin="bevel" d="M57.7635 144.668c-0.7197,-7.9234 -20.904,-13.8989 -23.277,-7.3439 0.271,6.6813 23.8777,17.2308 23.3007,8.9105l-0.0237 -1.5666z"/>
    <path id="_77220256" fill="#00C800" stroke="black" stroke-width="0.0762" stroke-linejoin="bevel" d="M58.3544 146.155c-0.5816,0.2045 0.8573,-0.4241 0.407,-0.9392 -2.7103,-1.0504 -15.9007,-6.5605 -24.0101,-8.0928 13.1602,4.4524 21.9442,8.4312 23.6031,9.032z"/>
   </g>
   <g id="foliole_9">
     <metadata id="CorelCorpID_12">
      <odm name="Nom" value="foliole" type="0"/>
     </metadata>
    <path id="_77030736" fill="#00C800" stroke="black" stroke-width="0.0762" stroke-linejoin="bevel" d="M61.5526 144.417c0.7198,-7.9234 20.904,-13.8989 23.2771,-7.3439 -0.271,6.6812 -23.8778,17.2308 -23.3007,8.9104l0.0236 -1.5665z"/>
    <path id="_65792280" fill="#00C800" stroke="black" stroke-width="0.0762" stroke-linejoin="bevel" d="M60.9618 145.904c0.5816,0.2044 -0.8573,-0.4241 -0.407,-0.9393 2.7103,-1.0504 15.9007,-6.5604 24.0101,-8.0927 -13.1602,4.4523 -21.9442,8.4312 -23.6031,9.032z"/>
   </g>
   <g id="foliole_10">
     <metadata id="CorelCorpID_13">
      <odm name="Nom" value="foliole" type="0"/>
     </metadata>
    <path id="_76996240" fill="#00C800" stroke="black" stroke-width="0.0762" stroke-linejoin="bevel" d="M59.1313 128.938c-0.7197,-7.9234 -20.904,-13.8989 -23.277,-7.3439 0.271,6.6813 23.8777,17.2308 23.3007,8.9105l-0.0237 -1.5666z"/>
    <path id="_66422064" fill="#00C800" stroke="black" stroke-width="0.0762" stroke-linejoin="bevel" d="M59.7222 130.425c-0.5816,0.2045 0.8573,-0.4241 0.407,-0.9392 -2.7103,-1.0504 -15.9007,-6.5605 -24.0101,-8.0928 13.1602,4.4524 21.9442,8.4312 23.6031,9.032z"/>
   </g>
   <g id="foliole_11">
     <metadata id="CorelCorpID_14">
      <odm name="Nom" value="foliole" type="0"/>
     </metadata>
    <path id="_76625656" fill="#00C800" stroke="black" stroke-width="0.0762" stroke-linejoin="bevel" d="M62.2365 128.883c0.7197,-7.9234 20.904,-13.8989 23.277,-7.3439 -0.271,6.6813 -23.8777,17.2308 -23.3007,8.9105l0.0237 -1.5666z"/>
    <path id="_66506072" fill="#00C800" stroke="black" stroke-width="0.0762" stroke-linejoin="bevel" d="M61.6456 130.369c0.5816,0.2045 -0.8573,-0.4241 -0.407,-0.9392 2.7103,-1.0504 15.9007,-6.5605 24.0101,-8.0928 -13.1602,4.4524 -21.9442,8.4312 -23.6031,9.032z"/>
   </g>
   <g id="foliole_12">
     <metadata id="CorelCorpID_15">
      <odm name="Nom" value="foliole" type="0"/>
     </metadata>
    <path id="_77256512" fill="#00C800" stroke="black" stroke-width="0.0762" stroke-linejoin="bevel" d="M61.7158 159.418c0.7198,-7.9234 20.904,-13.8989 23.2771,-7.3439 -0.271,6.6812 -23.8778,17.2308 -23.3007,8.9104l0.0236 -1.5665z"/>
    <path id="_77745376" fill="#00C800" stroke="black" stroke-width="0.0762" stroke-linejoin="bevel" d="M61.125 160.905c0.5816,0.2044 -0.8573,-0.4241 -0.407,-0.9393 2.7103,-1.0504 15.9007,-6.5604 24.0101,-8.0927 -13.1602,4.4523 -21.9442,8.4312 -23.6031,9.032z"/>
   </g>
   <g id="foliole_13">
     <metadata id="CorelCorpID_16">
      <odm name="Nom" value="foliole" type="0"/>
     </metadata>
    <path id="_67149720" fill="#00C800" stroke="black" stroke-width="0.0762" stroke-linejoin="bevel" d="M59.0893 159.602c-0.7198,-7.9234 -20.904,-13.8989 -23.2771,-7.3439 0.271,6.6812 23.8778,17.2308 23.3007,8.9104l-0.0236 -1.5665z"/>
    <path id="_67105992" fill="#00C800" stroke="black" stroke-width="0.0762" stroke-linejoin="bevel" d="M59.6801 161.089c-0.5816,0.2044 0.8573,-0.4241 0.407,-0.9393 -2.7103,-1.0504 -15.9007,-6.5604 -24.0101,-8.0927 13.1602,4.4523 21.9442,8.4312 23.6031,9.032z"/>
   </g>
   <g id="foliole_14">
     <metadata id="CorelCorpID_17">
      <odm name="Nom" value="foliole" type="0"/>
     </metadata>
    <path id="_76911984" fill="#00C800" stroke="black" stroke-width="0.0762" stroke-linejoin="bevel" d="M62.0646 114.794c0.7198,-7.9234 20.904,-13.8989 23.2771,-7.3439 -0.271,6.6812 -23.8778,17.2308 -23.3007,8.9104l0.0236 -1.5665z"/>
    <path id="_66393040" fill="#00C800" stroke="black" stroke-width="0.0762" stroke-linejoin="bevel" d="M61.4738 116.281c0.5816,0.2044 -0.8573,-0.4241 -0.407,-0.9393 2.7103,-1.0504 15.9007,-6.5604 24.0101,-8.0927 -13.1602,4.4523 -21.9442,8.4312 -23.6031,9.032z"/>
   </g>
   <g id="foliole_15">
     <metadata id="CorelCorpID_18">
      <odm name="Nom" value="foliole" type="0"/>
     </metadata>
    <path id="_77230432" fill="#00C800" stroke="black" stroke-width="0.0762" stroke-linejoin="bevel" d="M59.99 114.863c-0.7198,-7.9234 -20.904,-13.8989 -23.2771,-7.3439 0.271,6.6812 23.8778,17.2308 23.3007,8.9104l-0.0236 -1.5665z"/>
    <path id="_66367976" fill="#00C800" stroke="black" stroke-width="0.0762" stroke-linejoin="bevel" d="M60.5808 116.349c-0.5816,0.2044 0.8573,-0.4241 0.407,-0.9393 -2.7103,-1.0504 -15.9007,-6.5604 -24.0101,-8.0927 13.1602,4.4523 21.9442,8.4312 23.6031,9.032z"/>
   </g>
  </g>
  <g id="LftApex_Lanc" onclick="parent.replacechar('LftApex_Lanc')" onmousemove="parent.showtooltip('LftApex_Lanc', 'Size of leaflets decreasing towards apex and base')" onmouseout="parent.hidetooltip('LftApex_Lanc')" cursor="pointer" >
   <path id="Rachis_16" fill="#00C800" stroke="black" stroke-width="0.0762" stroke-linejoin="bevel" d="M181.753 38.3007c-0.0509,-7.9043 -0.1052,-13.926 -0.1643,-18.3878 -0.0118,-0.4658 -0.6301,-1.588 -1.0419,0.0332 -0.2641,5.8444 -0.5814,12.959 -0.9673,18.4449 -2.2467,16.3009 -1.6927,38.7961 8.406,43.5229 0.9723,-0.6094 -0.1308,0.0253 1.0306,-1.7067 0.7534,-2.4049 -0.501,1.5378 -4.3617,-4.8228 -4.1772,-6.3591 -3.7336,-20.9737 -2.9014,-37.0837z">
    <metadata id="CorelCorpID_19">
     <odm name="Nom" value="Rachis" type="0"/>
    </metadata>
   </path>
   <g id="foliole_17">
     <metadata id="CorelCorpID_20">
      <odm name="Nom" value="foliole" type="0"/>
     </metadata>
    <path id="_65724392" fill="#00C800" stroke="black" stroke-width="0.0762" stroke-linejoin="bevel" d="M179.977 24.492c0.1997,-4.1387 -9.8108,-8.3431 -11.5117,-5.0829 -0.3422,3.4714 11.1087,10.2309 11.4108,5.8947l0.1009 -0.8118z"/>
    <path id="_65729560" fill="#00C800" stroke="black" stroke-width="0.0762" stroke-linejoin="bevel" d="M180.175 25.2938c-0.3157,0.0737 0.4741,-0.1722 0.2783,-0.4635 -1.3263,-0.6928 -7.7522,-4.2708 -11.8369,-5.5107 6.4868,3.0291 10.7437,5.5719 11.5586,5.9742z"/>
   </g>
   <g id="foliole_18">
     <metadata id="CorelCorpID_21">
      <odm name="Nom" value="foliole" type="0"/>
     </metadata>
    <path id="_66445896" fill="#00C800" stroke="black" stroke-width="0.0762" stroke-linejoin="bevel" d="M181.894 24.6894c-0.1768,-3.6639 8.6852,-7.3859 10.191,-4.4997 0.3029,3.0731 -9.8342,9.057 -10.1017,5.2183l-0.0893 -0.7186z"/>
    <path id="_76582336" fill="#00C800" stroke="black" stroke-width="0.0762" stroke-linejoin="bevel" d="M181.718 25.3992c0.2794,0.0652 -0.4197,-0.1524 -0.2464,-0.4103 1.1741,-0.6134 6.8628,-3.7808 10.4788,-4.8785 -5.7425,2.6816 -9.5111,4.9326 -10.2324,5.2888z"/>
   </g>
   <g id="foliole_19">
     <metadata id="CorelCorpID_22">
      <odm name="Nom" value="foliole" type="0"/>
     </metadata>
    <path id="_67182208" fill="#00C800" stroke="black" stroke-width="0.0762" stroke-linejoin="bevel" d="M179.303 33.8574c-0.6314,-6.951 -18.3387,-12.1932 -20.4206,-6.4426 0.2378,5.8613 20.9476,15.1163 20.4414,7.817l-0.0208 -1.3744z"/>
    <path id="_76773376" fill="#00C800" stroke="black" stroke-width="0.0762" stroke-linejoin="bevel" d="M179.822 35.1618c-0.5102,0.1794 0.752,-0.3721 0.357,-0.824 -2.3777,-0.9215 -13.9494,-5.7553 -21.0637,-7.0996 11.5453,3.906 19.2514,7.3965 20.7067,7.9236z"/>
   </g>
   <g id="foliole_20">
     <metadata id="CorelCorpID_23">
      <odm name="Nom" value="foliole" type="0"/>
     </metadata>
    <path id="_66287360" fill="#00C800" stroke="black" stroke-width="0.0762" stroke-linejoin="bevel" d="M177.708 48.5184c-0.7756,-8.5374 -22.5241,-14.9761 -25.0811,-7.9131 0.292,7.1991 25.7283,18.5663 25.1066,9.6011l-0.0255 -1.688z"/>
    <path id="_77054696" fill="#00C800" stroke="black" stroke-width="0.0762" stroke-linejoin="bevel" d="M178.344 50.1205c-0.6267,0.2203 0.9236,-0.457 0.4385,-1.0121 -2.9204,-1.1318 -17.133,-7.0689 -25.871,-8.7199 14.1802,4.7974 23.645,9.0846 25.4325,9.732z"/>
   </g>
   <g id="foliole_21">
     <metadata id="CorelCorpID_24">
      <odm name="Nom" value="foliole" type="0"/>
     </metadata>
    <path id="_77610624" fill="#00C800" stroke="black" stroke-width="0.0762" stroke-linejoin="bevel" d="M182.246 33.9303c0.6442,-7.092 18.7106,-12.4406 20.8347,-6.5734 -0.2426,5.9803 -21.3724,15.423 -20.8559,7.9756l0.0212 -1.4022z"/>
    <path id="_77044824" fill="#00C800" stroke="black" stroke-width="0.0762" stroke-linejoin="bevel" d="M181.717 35.2611c0.5205,0.183 -0.7673,-0.3796 -0.3643,-0.8407 2.426,-0.9402 14.2323,-5.8721 21.4909,-7.2436 -11.7794,3.9852 -19.6418,7.5465 -21.1266,8.0843z"/>
   </g>
   <g id="foliole_22">
     <metadata id="CorelCorpID_25">
      <odm name="Nom" value="foliole" type="0"/>
     </metadata>
    <path id="_66375328" fill="#00C800" stroke="black" stroke-width="0.0762" stroke-linejoin="bevel" d="M182.034 48.8127c0.7835,-8.6255 22.7564,-15.1305 25.3397,-7.9947 -0.295,7.2734 -25.9937,18.7578 -25.3654,9.7001l0.0257 -1.7054z"/>
    <path id="_76638520" fill="#00C800" stroke="black" stroke-width="0.0762" stroke-linejoin="bevel" d="M181.391 50.4313c0.6332,0.2226 -0.9332,-0.4617 -0.443,-1.0225 2.9505,-1.1435 17.3097,-7.1418 26.1377,-8.8098 -14.3263,4.8468 -23.8888,9.1782 -25.6947,9.8323z"/>
   </g>
   <g id="foliole_23">
     <metadata id="CorelCorpID_26">
      <odm name="Nom" value="foliole" type="0"/>
     </metadata>
    <path id="_76673656" fill="#00C800" stroke="black" stroke-width="0.0762" stroke-linejoin="bevel" d="M182.284 63.9073c0.5442,-5.9899 15.8031,-10.5073 17.5972,-5.5518 -0.2049,5.0509 -18.0513,13.0262 -17.615,6.7361l0.0178 -1.1843z"/>
    <path id="_77277648" fill="#00C800" stroke="black" stroke-width="0.0762" stroke-linejoin="bevel" d="M181.838 65.0313c0.4397,0.1546 -0.648,-0.3206 -0.3076,-0.71 2.049,-0.7941 12.0206,-4.9596 18.1512,-6.118 -9.9488,3.3659 -16.5895,6.3738 -17.8436,6.828z"/>
   </g>
   <g id="foliole_24">
     <metadata id="CorelCorpID_27">
      <odm name="Nom" value="foliole" type="0"/>
     </metadata>
    <path id="_65040088" fill="#00C800" stroke="black" stroke-width="0.0762" stroke-linejoin="bevel" d="M178.704 64.3248c-0.5442,-5.9899 -15.8031,-10.5073 -17.5972,-5.5518 0.2049,5.0509 18.0513,13.0262 17.615,6.7361l-0.0178 -1.1843z"/>
    <path id="_66520632" fill="#00C800" stroke="black" stroke-width="0.0762" stroke-linejoin="bevel" d="M179.151 65.4488c-0.4397,0.1546 0.648,-0.3206 0.3076,-0.71 -2.049,-0.7941 -12.0206,-4.9596 -18.1512,-6.118 9.9488,3.3659 16.5895,6.3738 17.8436,6.828z"/>
   </g>
  </g>
  <g id="LftApex_Tiny" onclick="parent.replacechar('LftApex_Tiny')" onmousemove="parent.showtooltip('LftApex_Tiny', 'Size of leaflets decreasing towards apex')" onmouseout="parent.hidetooltip('LftApex_Tiny')" cursor="pointer" >
   <path id="Rachis_25" fill="#00C800" stroke="black" stroke-width="0.0762" stroke-linejoin="bevel" d="M60.9896 39.5738c-0.0509,-7.9043 -0.1052,-13.926 -0.1643,-18.3878 -0.0118,-0.4658 -0.6301,-1.588 -1.0419,0.0332 -0.2641,5.8444 -0.5814,12.959 -0.9673,18.4449 -2.2467,16.3009 -1.6927,38.7961 8.406,43.5229 0.9723,-0.6094 -0.1308,0.0253 1.0306,-1.7067 0.7534,-2.4049 -0.501,1.5378 -4.3617,-4.8228 -4.1772,-6.3591 -3.7336,-20.9737 -2.9014,-37.0837z">
    <metadata id="CorelCorpID_28">
     <odm name="Nom" value="Rachis" type="0"/>
    </metadata>
   </path>
   <g id="foliole_26">
     <metadata id="CorelCorpID_29">
      <odm name="Nom" value="foliole" type="0"/>
     </metadata>
    <path id="_66430632" fill="#00C800" stroke="black" stroke-width="0.0762" stroke-linejoin="bevel" d="M59.4017 24.9878c0.2551,-5.2856 -12.5297,-10.6552 -14.702,-6.4915 -0.437,4.4334 14.1873,13.0661 14.5732,7.5282l0.1288 -1.0367z"/>
    <path id="_67155464" fill="#00C800" stroke="black" stroke-width="0.0762" stroke-linejoin="bevel" d="M59.655 26.0118c-0.4031,0.0941 0.6055,-0.2198 0.3555,-0.5919 -1.6939,-0.8849 -9.9006,-5.4544 -15.1173,-7.0379 8.2844,3.8685 13.7212,7.116 14.7618,7.6298z"/>
   </g>
   <g id="foliole_27">
     <metadata id="CorelCorpID_30">
      <odm name="Nom" value="foliole" type="0"/>
     </metadata>
    <path id="_76869024" fill="#00C800" stroke="black" stroke-width="0.0762" stroke-linejoin="bevel" d="M61.0373 24.9501c-0.2551,-5.2856 12.5297,-10.6552 14.702,-6.4915 0.437,4.4334 -14.1873,13.0661 -14.5732,7.5282l-0.1288 -1.0367z"/>
    <path id="_67216960" fill="#00C800" stroke="black" stroke-width="0.0762" stroke-linejoin="bevel" d="M60.784 25.9741c0.4031,0.0941 -0.6055,-0.2199 -0.3555,-0.5919 1.6938,-0.8849 9.9006,-5.4544 15.1172,-7.0379 -8.2844,3.8685 -13.7211,7.116 -14.7617,7.6298z"/>
   </g>
   <g id="foliole_28">
     <metadata id="CorelCorpID_31">
      <odm name="Nom" value="foliole" type="0"/>
     </metadata>
    <path id="_76916552" fill="#00C800" stroke="black" stroke-width="0.0762" stroke-linejoin="bevel" d="M58.5986 35.3811c-0.5925,-6.5217 -17.206,-11.4401 -19.1593,-6.0447 0.2231,5.4993 19.6537,14.1826 19.1787,7.3342l-0.0194 -1.2895z"/>
    <path id="_45410416" fill="#00C800" stroke="black" stroke-width="0.0762" stroke-linejoin="bevel" d="M59.0849 36.6049c-0.4787,0.1683 0.7056,-0.3491 0.335,-0.7731 -2.2309,-0.8645 -13.0878,-5.3998 -19.7626,-6.661 10.8321,3.6646 18.0622,6.9396 19.4276,7.4341z"/>
   </g>
   <g id="foliole_29">
     <metadata id="CorelCorpID_32">
      <odm name="Nom" value="foliole" type="0"/>
     </metadata>
    <path id="_67232680" fill="#00C800" stroke="black" stroke-width="0.0762" stroke-linejoin="bevel" d="M57.2458 49.6515c-0.7197,-7.9234 -20.904,-13.8989 -23.277,-7.3439 0.271,6.6813 23.8777,17.2308 23.3007,8.9105l-0.0237 -1.5666z"/>
    <path id="_77610696" fill="#00C800" stroke="black" stroke-width="0.0762" stroke-linejoin="bevel" d="M57.8367 51.1383c-0.5816,0.2045 0.8573,-0.4241 0.407,-0.9392 -2.7103,-1.0504 -15.9007,-6.5605 -24.0101,-8.0928 13.1602,4.4524 21.9442,8.4312 23.6031,9.032z"/>
   </g>
   <g id="foliole_30">
     <metadata id="CorelCorpID_33">
      <odm name="Nom" value="foliole" type="0"/>
     </metadata>
    <path id="_66739488" fill="#00C800" stroke="black" stroke-width="0.0762" stroke-linejoin="bevel" d="M58.15 67.2352c-0.8422,-9.2713 -24.4604,-16.2634 -27.2372,-8.5933 0.3172,7.818 27.9401,20.1623 27.2648,10.4264l-0.0276 -1.8331z"/>
    <path id="_27577904" fill="#00C800" stroke="black" stroke-width="0.0762" stroke-linejoin="bevel" d="M58.8414 68.975c-0.6805,0.2392 1.0031,-0.4963 0.4762,-1.099 -3.1714,-1.2291 -18.6058,-7.6766 -28.0949,-9.4696 15.3991,5.2098 25.6776,9.8656 27.6187,10.5686z"/>
   </g>
   <g id="foliole_31">
     <metadata id="CorelCorpID_34">
      <odm name="Nom" value="foliole" type="0"/>
     </metadata>
    <path id="_66463944" fill="#00C800" stroke="black" stroke-width="0.0762" stroke-linejoin="bevel" d="M61.4044 35.5362c0.5924,-6.5217 17.206,-11.4401 19.1593,-6.0447 -0.2231,5.4993 -19.6537,14.1826 -19.1787,7.3342l0.0194 -1.2895z"/>
    <path id="_76650448" fill="#00C800" stroke="black" stroke-width="0.0762" stroke-linejoin="bevel" d="M60.918 36.76c0.4788,0.1683 -0.7055,-0.3491 -0.3349,-0.7731 2.2308,-0.8646 13.0877,-5.3999 19.7626,-6.6611 -10.8321,3.6647 -18.0622,6.9397 -19.4277,7.4342z"/>
   </g>
   <g id="foliole_32">
     <metadata id="CorelCorpID_35">
      <odm name="Nom" value="foliole" type="0"/>
     </metadata>
    <path id="_66862072" fill="#00C800" stroke="black" stroke-width="0.0762" stroke-linejoin="bevel" d="M60.955 49.9126c0.7198,-7.9234 20.904,-13.8989 23.2771,-7.3439 -0.271,6.6812 -23.8778,17.2308 -23.3007,8.9104l0.0236 -1.5665z"/>
    <path id="_77671664" fill="#00C800" stroke="black" stroke-width="0.0762" stroke-linejoin="bevel" d="M60.3642 51.3994c0.5816,0.2044 -0.8573,-0.4241 -0.407,-0.9393 2.7103,-1.0504 15.9007,-6.5604 24.0101,-8.0927 -13.1602,4.4523 -21.9442,8.4312 -23.6031,9.032z"/>
   </g>
   <g id="foliole_33">
     <metadata id="CorelCorpID_36">
      <odm name="Nom" value="foliole" type="0"/>
     </metadata>
    <path id="_77206360" fill="#00C800" stroke="black" stroke-width="0.0762" stroke-linejoin="bevel" d="M61.85 66.9756c0.8422,-9.2713 24.4604,-16.2634 27.2372,-8.5933 -0.3171,7.818 -27.9401,20.1623 -27.2648,10.4264l0.0276 -1.8331z"/>
    <path id="_76563112" fill="#00C800" stroke="black" stroke-width="0.0762" stroke-linejoin="bevel" d="M61.1586 68.7154c0.6805,0.2392 -1.0031,-0.4963 -0.4762,-1.099 3.1714,-1.2291 18.6058,-7.6766 28.0949,-9.4696 -15.3991,5.2098 -25.6776,9.8655 -27.6187,10.5686z"/>
   </g>
  </g>
 </g>
<image xlink:href="tick.gif" id="imgtick" x="-100" y="-100" width="15" height="15"/>
<rect id="recttooltip" x="-100" y="-100" width="55" height="6" fill-opacity="0.4" pointer-events="none"/>
<text id="textboxid" x="-100" y="-100" pointer-events="none"> </text>
</a></svg>
