<?xml version="1.0" encoding="UTF-8"?>
<!DOCTYPE svg PUBLIC "-//W3C//DTD SVG 1.1//EN" "http://www.w3.org/Graphics/SVG/1.1/DTD/svg11.dtd">
<!-- Creator: CorelDRAW -->
<svg xmlns="http://www.w3.org/2000/svg" xml:space="preserve" shape-rendering="geometricPrecision" text-rendering="geometricPrecision" image-rendering="optimizeQuality" fill-rule="evenodd" clip-rule="evenodd"
viewBox="0 0 240 180"
 xmlns:xlink="http://www.w3.org/1999/xlink">
<a>
 <defs>
   <linearGradient id="id0" gradientUnits="userSpaceOnUse" x1="89.3643" y1="58.3504" x2="90.6357" y2="42.2469">
    <stop offset="0" stop-color="#D9E6BD"/>
    <stop offset="0.25098" stop-color="#ECF3DE"/>
    <stop offset="1" stop-color="white"/>
   </linearGradient>
 </defs>
 <g id="Layer_x0020_1">
  <metadata id="CorelCorpID_0Corel-Layer"/>
  <rect fill="none" transform="matrix(3.24291E-013 -17.1512 10.3131 3.82591E-013 -1.55692E-005 180)" width="10.4949" height="23.2713"/>
  <g id="LfPilo_Hirsut" onclick="parent.replacechar('LfPilo_Hirsut')" onmousemove="parent.showtooltip('LfPilo_Hirsut', 'Leaf with hirsute lower surface')" onmouseout="parent.hidetooltip('LfPilo_Hirsut')" cursor="pointer" >
   <polygon id="_66460264" fill="#009341" fill-rule="nonzero" stroke="black" stroke-width="0.0762" stroke-linejoin="bevel" points="197.842,135.746 187.804,151.083 232.197,151.083 222.158,135.746 "/>
   <path id="_76871400" fill="none" stroke="black" stroke-width="0.0762" d="M199.882 143.188c0,0 -3.7333,-14.8417 4.1503,-28.8905"/>
   <path id="_67158816" fill="none" stroke="black" stroke-width="0.0762" d="M202.649 143.188c0,0 -3.7333,-14.8417 4.1503,-28.8905"/>
   <path id="_66489144" fill="none" stroke="black" stroke-width="0.0762" d="M208.182 143.188c0,0 -3.7334,-14.8417 4.1503,-28.8905"/>
   <path id="_66802648" fill="none" stroke="black" stroke-width="0.0762" d="M213.715 143.188c0,0 -3.7333,-14.8417 4.1503,-28.8905"/>
   <path id="_65503440" fill="none" stroke="black" stroke-width="0.0762" d="M217.441 143.464c0,0 -2.1404,-14.8339 1.8847,-29.2303"/>
   <path id="_76869024" fill="none" stroke="black" stroke-width="0.0762" d="M203.152 143.188c0,0 3.7333,-14.8417 -4.1503,-28.8905"/>
   <path id="_66884280" fill="none" stroke="black" stroke-width="0.0762" d="M197.361 142.728c0,0 3.7333,-14.8417 -4.1503,-28.8905"/>
   <path id="_76647912" fill="none" stroke="black" stroke-width="0.0762" d="M220.867 143.294c0,0 3.7333,-14.8417 -4.1503,-28.8905"/>
   <path id="_77453120" fill="none" stroke="black" stroke-width="0.0762" d="M210.796 142.815c0,0 1.4115,-13.9356 -2.281,-28.6073"/>
  </g>
  <g id="LfPilo_Scab" onclick="parent.replacechar('LfPilo_Scab')" onmousemove="parent.showtooltip('LfPilo_Scab', 'Leaf with scabrid lower surface')" onmouseout="parent.hidetooltip('LfPilo_Scab')" cursor="pointer" >
   <polygon id="_76861432" fill="#009341" fill-rule="nonzero" stroke="black" stroke-width="0.0762" stroke-linejoin="bevel" points="137.842,135.746 127.804,151.083 172.196,151.083 162.158,135.746 "/>
   <path id="_76550824" fill="white" fill-rule="nonzero" stroke="black" stroke-width="0.0762" stroke-linejoin="bevel" d="M139.55 137.806c-0.471,-0.6773 1.9133,-3.9447 4.1803,-4.2098 -2.3551,1.0893 -2.1492,3.9154 -2.738,4.2391 -0.4413,0.2651 -1.1775,0.324 -1.4423,-0.0293z"/>
   <path id="_65765328" fill="white" fill-rule="nonzero" stroke="black" stroke-width="0.0762" stroke-linejoin="bevel" d="M153.179 149.434c-0.4709,-0.6476 1.9139,-3.9447 4.1803,-4.2095 -2.355,1.1187 -2.1487,3.9151 -2.7375,4.2684 -0.4418,0.2651 -1.1775,0.2944 -1.4428,-0.0589z"/>
   <path id="_77671664" fill="white" fill-rule="nonzero" stroke="black" stroke-width="0.0762" stroke-linejoin="bevel" d="M149.029 145.048c-0.471,-0.6477 1.9131,-3.9448 4.1802,-4.21 -2.355,1.1187 -2.1493,3.9156 -2.738,4.2689 -0.4414,0.2646 -1.1776,0.2942 -1.4422,-0.0589z"/>
   <path id="_66903144" fill="white" fill-rule="nonzero" stroke="black" stroke-width="0.0762" stroke-linejoin="bevel" d="M158.007 143.753c-0.4711,-0.6476 1.9136,-3.9447 4.1509,-4.2098 -2.3549,1.1186 -2.1492,3.9154 -2.7082,4.2687 -0.471,0.2648 -1.1776,0.3237 -1.4427,-0.0589z"/>
   <path id="_76838184" fill="white" fill-rule="nonzero" stroke="black" stroke-width="0.0762" stroke-linejoin="bevel" d="M155.005 137.718c-0.471,-0.6477 1.9137,-3.9447 4.1803,-4.2094 -2.3844,1.1185 -2.1488,3.915 -2.7376,4.2683 -0.4418,0.2652 -1.1775,0.2944 -1.4427,-0.0589z"/>
   <path id="_65739688" fill="white" fill-rule="nonzero" stroke="black" stroke-width="0.0762" stroke-linejoin="bevel" d="M147.616 139.249c-0.4711,-0.6768 1.9132,-3.9447 4.1802,-4.2095 -2.3551,1.089 -2.1492,3.9151 -2.738,4.2391 -0.4413,0.2648 -1.1775,0.3237 -1.4422,-0.0296z"/>
   <path id="_76536448" fill="white" fill-rule="nonzero" stroke="black" stroke-width="0.0762" stroke-linejoin="bevel" d="M142.081 148.581c-0.471,-0.6476 1.9133,-3.9156 4.1803,-4.1802 -2.3847,1.089 -2.1492,3.9151 -2.738,4.2391 -0.4414,0.2646 -1.1776,0.3235 -1.4423,-0.0589z"/>
   <path id="_65736864" fill="white" fill-rule="nonzero" stroke="black" stroke-width="0.0762" stroke-linejoin="bevel" d="M132.19 149.17c-0.471,-0.6476 1.9132,-3.9448 4.1505,-4.21 -2.3551,1.1188 -2.1487,3.9156 -2.7082,4.2689 -0.4711,0.2647 -1.2069,0.2943 -1.4423,-0.0589z"/>
   <path id="_76715016" fill="white" fill-rule="nonzero" stroke="black" stroke-width="0.0762" stroke-linejoin="bevel" d="M138.99 143.547c-0.4711,-0.6477 1.9136,-3.9447 4.1802,-4.2095 -2.3843,1.1187 -2.1784,3.9151 -2.7375,4.2683 -0.4418,0.2652 -1.1776,0.3241 -1.4427,-0.0588z"/>
   <path id="_65830448" fill="white" fill-rule="nonzero" stroke="black" stroke-width="0.0762" stroke-linejoin="bevel" d="M162.629 148.316c-0.4711,-0.6769 1.9133,-3.9447 4.1506,-4.2095 -2.3551,1.089 -2.1488,3.9151 -2.7084,4.2391 -0.4413,0.2648 -1.1775,0.3237 -1.4422,-0.0296z"/>
  </g>
  <g id="LfPilo_Stel" onclick="parent.replacechar('LfPilo_Stel')" onmousemove="parent.showtooltip('LfPilo_Stel', 'Leaf with stellate hairs at the lower surface')" onmouseout="parent.hidetooltip('LfPilo_Stel')" cursor="pointer" >
   <polygon id="_76483736" fill="#009341" fill-rule="nonzero" stroke="black" stroke-width="0.0762" stroke-linejoin="bevel" points="77.81,135.745 67.8011,151.083 112.164,151.083 102.155,135.745 "/>
   <g id="poil">
    <path id="_77341280" fill="white" fill-rule="nonzero" stroke="black" stroke-width="0.0762" stroke-linejoin="bevel" d="M83.3825 136.266c0.5703,-0.581 1.6893,-0.8231 1.657,-0.8446 -0.0215,-0.0162 1.1998,-0.2582 2.4157,-0.2044 -0.7963,-0.1884 -2.0068,-0.1453 -2.6847,0.0538 -0.4304,0.1291 -1.1298,0.355 -1.5601,0.9576 0.1936,-0.3874 0.2851,-0.8339 0.893,-1.3074 0.8501,-0.6563 1.6302,-0.6348 1.9045,-0.6402 -1.0437,-0.0484 -1.3772,0.0323 -2.1627,0.5703 -0.6348,0.4358 -0.8178,1.1513 -0.8716,1.3719 -0.0107,-0.2206 0.0323,-0.2905 -0.0215,-0.4896 -0.0323,-0.1398 -0.1237,-1.0437 -0.9253,-1.4149 0.3067,0.3282 0.5164,0.7693 0.5703,0.9038 0.0484,0.113 0.1936,0.8232 0.1614,1.0061 -0.1345,-0.581 -0.9792,-1.1567 -1.1029,-1.2428 -0.1399,-0.1076 -0.9146,-0.6509 -2.265,-0.7048 1.4365,0.1722 2.3887,1.1621 2.577,1.3128 0.156,0.1291 0.5273,0.554 0.5864,0.6886 -0.1506,-0.1561 -1.3503,-0.3013 -1.9906,-0.2959 -0.9683,0 -1.6408,0.199 -2.5716,0.6187 1.0276,-0.2367 1.1137,-0.4036 2.6254,-0.3981 1.0868,0 1.6517,0.2205 1.953,0.2582 -0.2637,0.0215 -0.6725,0.5003 -0.651,0.5057 0,0.0054 -0.2206,0.4035 -0.2206,0.4035 0.0861,-0.1291 0.4896,-0.5058 0.6295,-0.5972 0.1613,-0.0915 0.7478,-0.2959 0.6025,-0.2636 0.3282,0.1291 0.3228,0.113 0.6187,0.312 0.113,0.0808 0.5864,0.5327 0.6402,0.6671 -0.1506,-0.3496 -0.2905,-0.6671 -0.4465,-0.8123 -0.1561,-0.1453 -0.3013,-0.2152 -0.3497,-0.2152 0.4896,-0.1829 1.0276,-0.2798 2.3295,-0.2905 1.2858,-0.0162 1.9206,0.1775 3.0827,0.425 -1.1513,-0.3605 -1.1351,-0.4842 -3.0989,-0.5972 -1.4256,-0.0807 -1.8076,0.1076 -2.3241,0.2636z"/>
    <polygon id="_76586528" fill="white" fill-rule="nonzero" stroke="black" stroke-width="0.0762" stroke-linejoin="bevel" points="82.85,136.557 82.8983,136.777 82.9037,136.922 83.0329,136.939 83.0221,136.783 83.0544,136.557 82.9521,136.481 "/>
   </g>
   <g id="poil_0">
    <path id="_27670376" fill="white" fill-rule="nonzero" stroke="black" stroke-width="0.0762" stroke-linejoin="bevel" d="M97.2156 136.266c0.5703,-0.581 1.6893,-0.8231 1.657,-0.8446 -0.0215,-0.0162 1.1998,-0.2582 2.4157,-0.2044 -0.7963,-0.1884 -2.0068,-0.1453 -2.6847,0.0538 -0.4304,0.1291 -1.1298,0.355 -1.5602,0.9576 0.1937,-0.3874 0.2852,-0.8339 0.8931,-1.3074 0.85,-0.6563 1.6302,-0.6348 1.9045,-0.6402 -1.0437,-0.0484 -1.3772,0.0323 -2.1627,0.5703 -0.6349,0.4358 -0.8178,1.1513 -0.8716,1.3719 -0.0107,-0.2206 0.0323,-0.2905 -0.0215,-0.4896 -0.0323,-0.1398 -0.1237,-1.0437 -0.9253,-1.4149 0.3067,0.3282 0.5164,0.7693 0.5702,0.9038 0.0485,0.113 0.1937,0.8232 0.1614,1.0061 -0.1344,-0.581 -0.9791,-1.1567 -1.1028,-1.2428 -0.1399,-0.1076 -0.9146,-0.6509 -2.265,-0.7048 1.4365,0.1722 2.3887,1.1621 2.577,1.3128 0.156,0.1291 0.5272,0.554 0.5864,0.6886 -0.1507,-0.1561 -1.3503,-0.3013 -1.9906,-0.2959 -0.9684,0 -1.6408,0.199 -2.5716,0.6187 1.0276,-0.2367 1.1137,-0.4036 2.6254,-0.3981 1.0868,0 1.6517,0.2205 1.953,0.2582 -0.2637,0.0215 -0.6725,0.5003 -0.651,0.5057 0,0.0054 -0.2206,0.4035 -0.2206,0.4035 0.0861,-0.1291 0.4896,-0.5058 0.6294,-0.5972 0.1614,-0.0915 0.7479,-0.2959 0.6026,-0.2636 0.3282,0.1291 0.3228,0.113 0.6187,0.312 0.113,0.0808 0.5864,0.5327 0.6402,0.6671 -0.1506,-0.3496 -0.2905,-0.6671 -0.4465,-0.8123 -0.1561,-0.1453 -0.3013,-0.2152 -0.3497,-0.2152 0.4896,-0.1829 1.0276,-0.2798 2.3295,-0.2905 1.2858,-0.0162 1.9206,0.1775 3.0827,0.425 -1.1513,-0.3605 -1.1352,-0.4842 -3.0989,-0.5972 -1.4256,-0.0807 -1.8076,0.1076 -2.3241,0.2636z"/>
    <polygon id="_77227648" fill="white" fill-rule="nonzero" stroke="black" stroke-width="0.0762" stroke-linejoin="bevel" points="96.683,136.557 96.7314,136.777 96.7368,136.922 96.866,136.939 96.8552,136.783 96.8875,136.557 96.7852,136.481 "/>
   </g>
   <g id="poil_1">
    <path id="_66305360" fill="white" fill-rule="nonzero" stroke="black" stroke-width="0.0762" stroke-linejoin="bevel" d="M90.7569 140.125c0.5702,-0.581 1.6893,-0.8231 1.657,-0.8446 -0.0215,-0.0162 1.1997,-0.2582 2.4156,-0.2044 -0.7962,-0.1883 -2.0067,-0.1453 -2.6846,0.0538 -0.4304,0.1291 -1.1298,0.3551 -1.5602,0.9576 0.1937,-0.3873 0.2852,-0.8339 0.8931,-1.3073 0.85,-0.6564 1.6301,-0.6349 1.9045,-0.6402 -1.0437,-0.0485 -1.3773,0.0323 -2.1628,0.5703 -0.6348,0.4357 -0.8177,1.1513 -0.8715,1.3718 -0.0108,-0.2205 0.0323,-0.2905 -0.0215,-0.4895 -0.0323,-0.1399 -0.1237,-1.0437 -0.9254,-1.415 0.3067,0.3282 0.5165,0.7694 0.5703,0.9038 0.0485,0.1131 0.1937,0.8232 0.1614,1.0061 -0.1345,-0.581 -0.9792,-1.1567 -1.1028,-1.2428 -0.1399,-0.1076 -0.9146,-0.6509 -2.2651,-0.7047 1.4365,0.1721 2.3887,1.162 2.5771,1.3127 0.156,0.1291 0.5272,0.5541 0.5864,0.6886 -0.1507,-0.156 -1.3504,-0.3013 -1.9906,-0.2959 -0.9684,0 -1.6408,0.1991 -2.5716,0.6187 1.0276,-0.2367 1.1137,-0.4035 2.6254,-0.3981 1.0867,0 1.6517,0.2205 1.9529,0.2582 -0.2636,0.0216 -0.6725,0.5003 -0.651,0.5057 0,0.0054 -0.2205,0.4035 -0.2205,0.4035 0.0861,-0.1291 0.4895,-0.5057 0.6294,-0.5971 0.1614,-0.0915 0.7478,-0.296 0.6025,-0.2637 0.3283,0.1291 0.3228,0.113 0.6188,0.3121 0.1129,0.0807 0.5864,0.5326 0.6402,0.6671 -0.1507,-0.3497 -0.2906,-0.6671 -0.4465,-0.8124 -0.1561,-0.1453 -0.3013,-0.2152 -0.3498,-0.2152 0.4896,-0.1829 1.0276,-0.2797 2.3296,-0.2905 1.2857,-0.0162 1.9206,0.1775 3.0826,0.425 -1.1513,-0.3604 -1.1351,-0.4842 -3.0988,-0.5971 -1.4256,-0.0808 -1.8077,0.1076 -2.3241,0.2635z"/>
    <polygon id="_65720280" fill="white" fill-rule="nonzero" stroke="black" stroke-width="0.0762" stroke-linejoin="bevel" points="90.2243,140.416 90.2727,140.637 90.2781,140.782 90.4072,140.798 90.3964,140.642 90.4287,140.416 90.3265,140.341 "/>
   </g>
   <g id="poil_2">
    <path id="_76723832" fill="white" fill-rule="nonzero" stroke="black" stroke-width="0.0762" stroke-linejoin="bevel" d="M80.7664 143.415c0.5703,-0.5811 1.6893,-0.8231 1.6571,-0.8447 -0.0216,-0.0161 1.1997,-0.2582 2.4156,-0.2044 -0.7962,-0.1883 -2.0068,-0.1453 -2.6847,0.0538 -0.4304,0.1292 -1.1297,0.3551 -1.5601,0.9576 0.1937,-0.3873 0.2852,-0.8339 0.893,-1.3073 0.8501,-0.6564 1.6302,-0.6349 1.9045,-0.6402 -1.0437,-0.0485 -1.3772,0.0323 -2.1627,0.5703 -0.6348,0.4357 -0.8177,1.1513 -0.8715,1.3718 -0.0108,-0.2205 0.0322,-0.2905 -0.0216,-0.4895 -0.0322,-0.1399 -0.1236,-1.0437 -0.9253,-1.415 0.3067,0.3282 0.5165,0.7694 0.5703,0.9039 0.0484,0.113 0.1936,0.8231 0.1614,1.006 -0.1345,-0.581 -0.9792,-1.1567 -1.1029,-1.2428 -0.1399,-0.1075 -0.9146,-0.6509 -2.265,-0.7047 1.4365,0.1722 2.3887,1.1621 2.5771,1.3127 0.1559,0.1291 0.5272,0.5541 0.5863,0.6886 -0.1506,-0.156 -1.3503,-0.3012 -1.9906,-0.2959 -0.9683,0 -1.6408,0.1991 -2.5716,0.6187 1.0276,-0.2367 1.1137,-0.4035 2.6254,-0.3981 1.0868,0 1.6517,0.2206 1.953,0.2583 -0.2636,0.0215 -0.6725,0.5002 -0.651,0.5057 0,0.0053 -0.2206,0.4034 -0.2206,0.4034 0.0861,-0.1291 0.4896,-0.5057 0.6295,-0.5971 0.1614,-0.0915 0.7478,-0.296 0.6025,-0.2637 0.3282,0.1292 0.3228,0.1131 0.6188,0.3121 0.1129,0.0807 0.5863,0.5326 0.6401,0.6671 -0.1506,-0.3497 -0.2905,-0.6671 -0.4465,-0.8123 -0.156,-0.1453 -0.3012,-0.2152 -0.3497,-0.2152 0.4896,-0.183 1.0276,-0.2798 2.3295,-0.2905 1.2858,-0.0162 1.9206,0.1774 3.0827,0.4249 -1.1513,-0.3604 -1.1351,-0.4842 -3.0988,-0.5971 -1.4257,-0.0807 -1.8077,0.1076 -2.3242,0.2636z"/>
    <polygon id="_66384096" fill="white" fill-rule="nonzero" stroke="black" stroke-width="0.0762" stroke-linejoin="bevel" points="80.2339,143.705 80.2822,143.926 80.2877,144.071 80.4168,144.087 80.406,143.931 80.4383,143.705 80.336,143.63 "/>
   </g>
   <g id="poil_3">
    <path id="_66382032" fill="white" fill-rule="nonzero" stroke="black" stroke-width="0.0762" stroke-linejoin="bevel" d="M100.951 143.819c0.5702,-0.581 1.6893,-0.8231 1.657,-0.8446 -0.0215,-0.0162 1.1997,-0.2583 2.4156,-0.2045 -0.7962,-0.1883 -2.0067,-0.1453 -2.6846,0.0538 -0.4304,0.1292 -1.1298,0.3551 -1.5602,0.9576 0.1937,-0.3873 0.2852,-0.8339 0.8931,-1.3073 0.85,-0.6564 1.6301,-0.6348 1.9045,-0.6402 -1.0437,-0.0484 -1.3773,0.0323 -2.1628,0.5703 -0.6348,0.4357 -0.8177,1.1513 -0.8715,1.3718 -0.0108,-0.2205 0.0323,-0.2905 -0.0215,-0.4895 -0.0323,-0.1399 -0.1237,-1.0437 -0.9254,-1.415 0.3067,0.3282 0.5165,0.7694 0.5703,0.9039 0.0484,0.113 0.1937,0.8231 0.1614,1.006 -0.1345,-0.581 -0.9792,-1.1567 -1.1028,-1.2428 -0.1399,-0.1075 -0.9146,-0.6509 -2.2651,-0.7047 1.4365,0.1722 2.3887,1.1621 2.5771,1.3127 0.1559,0.1292 0.5272,0.5541 0.5863,0.6886 -0.1506,-0.156 -1.3503,-0.3012 -1.9905,-0.2959 -0.9684,0 -1.6409,0.1991 -2.5716,0.6187 1.0276,-0.2367 1.1137,-0.4035 2.6254,-0.3981 1.0867,0 1.6517,0.2206 1.9529,0.2583 -0.2636,0.0215 -0.6725,0.5003 -0.651,0.5057 0,0.0053 -0.2205,0.4034 -0.2205,0.4034 0.0861,-0.1291 0.4895,-0.5057 0.6294,-0.5971 0.1614,-0.0915 0.7478,-0.2959 0.6025,-0.2637 0.3282,0.1292 0.3228,0.1131 0.6188,0.3121 0.1129,0.0807 0.5863,0.5326 0.6401,0.6671 -0.1506,-0.3497 -0.2905,-0.6671 -0.4465,-0.8123 -0.156,-0.1453 -0.3012,-0.2152 -0.3497,-0.2152 0.4896,-0.183 1.0276,-0.2798 2.3296,-0.2905 1.2857,-0.0162 1.9206,0.1775 3.0826,0.4249 -1.1513,-0.3604 -1.1351,-0.4842 -3.0988,-0.5971 -1.4257,-0.0807 -1.8077,0.1076 -2.3241,0.2636z"/>
    <polygon id="_66508320" fill="white" fill-rule="nonzero" stroke="black" stroke-width="0.0762" stroke-linejoin="bevel" points="100.418,144.109 100.467,144.33 100.472,144.475 100.601,144.491 100.59,144.335 100.623,144.109 100.52,144.034 "/>
   </g>
   <g id="poil_4">
    <path id="_77274312" fill="white" fill-rule="nonzero" stroke="black" stroke-width="0.0762" stroke-linejoin="bevel" d="M76.8973 148.441c0.5703,-0.581 1.6893,-0.8231 1.657,-0.8446 -0.0215,-0.0162 1.1998,-0.2582 2.4157,-0.2044 -0.7963,-0.1883 -2.0068,-0.1453 -2.6847,0.0538 -0.4304,0.1291 -1.1298,0.3551 -1.5602,0.9576 0.1937,-0.3873 0.2852,-0.8339 0.8931,-1.3073 0.85,-0.6564 1.6302,-0.6349 1.9045,-0.6402 -1.0437,-0.0485 -1.3772,0.0323 -2.1627,0.5703 -0.6349,0.4357 -0.8178,1.1513 -0.8716,1.3718 -0.0107,-0.2205 0.0323,-0.2905 -0.0215,-0.4895 -0.0323,-0.1399 -0.1237,-1.0437 -0.9253,-1.415 0.3067,0.3282 0.5164,0.7694 0.5702,0.9038 0.0485,0.1131 0.1937,0.8232 0.1614,1.0061 -0.1344,-0.581 -0.9791,-1.1567 -1.1028,-1.2428 -0.1399,-0.1076 -0.9146,-0.6509 -2.265,-0.7047 1.4365,0.1721 2.3887,1.162 2.577,1.3127 0.156,0.1291 0.5273,0.5541 0.5864,0.6886 -0.1507,-0.156 -1.3503,-0.3013 -1.9906,-0.2959 -0.9684,0 -1.6408,0.1991 -2.5716,0.6187 1.0276,-0.2367 1.1137,-0.4035 2.6254,-0.3981 1.0868,0 1.6517,0.2205 1.953,0.2582 -0.2637,0.0216 -0.6725,0.5003 -0.651,0.5057 0,0.0054 -0.2206,0.4035 -0.2206,0.4035 0.0861,-0.1291 0.4896,-0.5057 0.6295,-0.5971 0.1613,-0.0915 0.7478,-0.296 0.6025,-0.2637 0.3282,0.1291 0.3228,0.113 0.6187,0.3121 0.113,0.0807 0.5864,0.5326 0.6402,0.6671 -0.1506,-0.3497 -0.2905,-0.6671 -0.4465,-0.8124 -0.1561,-0.1453 -0.3013,-0.2152 -0.3497,-0.2152 0.4896,-0.1829 1.0276,-0.2797 2.3295,-0.2905 1.2858,-0.0162 1.9206,0.1775 3.0827,0.425 -1.1513,-0.3604 -1.1352,-0.4842 -3.0989,-0.5971 -1.4256,-0.0808 -1.8076,0.1076 -2.3241,0.2635z"/>
    <polygon id="_67180952" fill="white" fill-rule="nonzero" stroke="black" stroke-width="0.0762" stroke-linejoin="bevel" points="76.3647,148.731 76.4131,148.952 76.4185,149.097 76.5477,149.113 76.5369,148.957 76.5692,148.731 76.4669,148.656 "/>
   </g>
   <g id="poil_5">
    <path id="_77809736" fill="white" fill-rule="nonzero" stroke="black" stroke-width="0.0762" stroke-linejoin="bevel" d="M91.2967 148.566c0.5702,-0.581 1.6893,-0.8231 1.657,-0.8446 -0.0215,-0.0162 1.1998,-0.2583 2.4156,-0.2045 -0.7962,-0.1883 -2.0067,-0.1453 -2.6846,0.0538 -0.4304,0.1292 -1.1298,0.3551 -1.5602,0.9576 0.1937,-0.3873 0.2852,-0.8339 0.8931,-1.3073 0.85,-0.6564 1.6301,-0.6348 1.9045,-0.6402 -1.0437,-0.0484 -1.3773,0.0323 -2.1627,0.5703 -0.6349,0.4357 -0.8178,1.1513 -0.8716,1.3718 -0.0108,-0.2205 0.0323,-0.2905 -0.0215,-0.4895 -0.0323,-0.1399 -0.1237,-1.0437 -0.9254,-1.415 0.3067,0.3282 0.5165,0.7694 0.5703,0.9039 0.0485,0.113 0.1937,0.8231 0.1614,1.006 -0.1345,-0.581 -0.9791,-1.1567 -1.1028,-1.2428 -0.1399,-0.1075 -0.9146,-0.6509 -2.265,-0.7047 1.4365,0.1722 2.3887,1.1621 2.577,1.3127 0.156,0.1292 0.5272,0.5541 0.5864,0.6886 -0.1507,-0.156 -1.3503,-0.3012 -1.9906,-0.2959 -0.9684,0 -1.6408,0.1991 -2.5716,0.6187 1.0276,-0.2367 1.1137,-0.4035 2.6254,-0.3981 1.0867,0 1.6517,0.2206 1.9529,0.2583 -0.2636,0.0215 -0.6725,0.5003 -0.651,0.5057 0,0.0053 -0.2205,0.4034 -0.2205,0.4034 0.0861,-0.1291 0.4895,-0.5057 0.6294,-0.5971 0.1614,-0.0915 0.7479,-0.2959 0.6026,-0.2637 0.3282,0.1292 0.3228,0.1131 0.6187,0.3121 0.1129,0.0807 0.5864,0.5326 0.6402,0.6671 -0.1507,-0.3497 -0.2905,-0.6671 -0.4465,-0.8123 -0.1561,-0.1453 -0.3013,-0.2152 -0.3498,-0.2152 0.4897,-0.183 1.0276,-0.2798 2.3296,-0.2905 1.2858,-0.0162 1.9206,0.1775 3.0826,0.4249 -1.1513,-0.3604 -1.1351,-0.4842 -3.0988,-0.5971 -1.4256,-0.0807 -1.8076,0.1076 -2.3241,0.2636z"/>
    <polygon id="_66276672" fill="white" fill-rule="nonzero" stroke="black" stroke-width="0.0762" stroke-linejoin="bevel" points="90.7641,148.856 90.8125,149.077 90.8179,149.222 90.947,149.238 90.9363,149.082 90.9685,148.856 90.8663,148.781 "/>
   </g>
   <g id="poil_6">
    <path id="_76849160" fill="white" fill-rule="nonzero" stroke="black" stroke-width="0.0762" stroke-linejoin="bevel" d="M106.776 148.84c0.5703,-0.5811 1.6893,-0.8231 1.657,-0.8447 -0.0215,-0.0161 1.1998,-0.2582 2.4157,-0.2044 -0.7963,-0.1883 -2.0068,-0.1453 -2.6847,0.0538 -0.4304,0.1291 -1.1298,0.3551 -1.5602,0.9576 0.1937,-0.3873 0.2852,-0.8339 0.8931,-1.3073 0.85,-0.6564 1.6302,-0.6349 1.9045,-0.6402 -1.0437,-0.0485 -1.3772,0.0323 -2.1627,0.5703 -0.6349,0.4357 -0.8178,1.1513 -0.8716,1.3718 -0.0107,-0.2205 0.0323,-0.2905 -0.0215,-0.4895 -0.0323,-0.1399 -0.1237,-1.0437 -0.9254,-1.415 0.3068,0.3282 0.5165,0.7694 0.5703,0.9039 0.0485,0.113 0.1937,0.8231 0.1614,1.006 -0.1344,-0.581 -0.9791,-1.1567 -1.1028,-1.2428 -0.1399,-0.1076 -0.9146,-0.6509 -2.265,-0.7047 1.4365,0.1722 2.3887,1.1621 2.577,1.3127 0.156,0.1291 0.5272,0.5541 0.5864,0.6886 -0.1507,-0.156 -1.3503,-0.3012 -1.9906,-0.2959 -0.9684,0 -1.6408,0.1991 -2.5716,0.6187 1.0276,-0.2367 1.1137,-0.4035 2.6254,-0.3981 1.0868,0 1.6517,0.2206 1.953,0.2583 -0.2637,0.0215 -0.6726,0.5002 -0.651,0.5057 0,0.0053 -0.2206,0.4034 -0.2206,0.4034 0.0861,-0.1291 0.4896,-0.5057 0.6294,-0.5971 0.1614,-0.0915 0.7479,-0.296 0.6026,-0.2637 0.3282,0.1291 0.3228,0.113 0.6187,0.3121 0.113,0.0807 0.5864,0.5326 0.6402,0.6671 -0.1507,-0.3497 -0.2905,-0.6671 -0.4465,-0.8124 -0.1561,-0.1453 -0.3013,-0.2151 -0.3497,-0.2151 0.4896,-0.183 1.0276,-0.2798 2.3295,-0.2905 1.2858,-0.0162 1.9206,0.1774 3.0827,0.4249 -1.1513,-0.3604 -1.1352,-0.4842 -3.0989,-0.5971 -1.4256,-0.0808 -1.8076,0.1076 -2.3241,0.2636z"/>
    <polygon id="_77774984" fill="white" fill-rule="nonzero" stroke="black" stroke-width="0.0762" stroke-linejoin="bevel" points="106.243,149.131 106.292,149.351 106.297,149.496 106.426,149.513 106.415,149.356 106.448,149.131 106.346,149.055 "/>
   </g>
  </g>
  <g id="LfPilo_Tom" onclick="parent.replacechar('LfPilo_Tom')" onmousemove="parent.showtooltip('LfPilo_Tom', 'Leaf with tomentose lower surface')" onmouseout="parent.hidetooltip('LfPilo_Tom')" cursor="pointer" >
   <polygon id="surface" fill="#009341" fill-rule="nonzero" stroke="black" stroke-width="0.0762" stroke-linejoin="bevel" points="17.8272,135.745 7.8182,151.083 52.1819,151.083 42.1728,135.745 "/>
   <g id="poils">
    <path id="_76758952" fill="white" fill-rule="nonzero" stroke="black" stroke-width="0.0762" stroke-linejoin="bevel" d="M28.8932 146.879c0.9695,-1.6371 2.628,-5.1699 4.2869,-5.1699 1.1202,0.0861 2.1972,0.6032 2.3696,1.0771 0.5169,0.5814 1.6154,-0.6032 2.4125,-0.6032 2.2667,0.0479 1.3349,0.4224 0.0862,0.4309 -0.8833,0 -1.5296,0.7968 -2.6711,0.5601 -0.3447,0 -0.4308,-0.991 -2.0466,-0.8617 -1.7016,0.1723 -2.6925,3.0371 -3.5971,4.6312l-0.8404 -0.0645z"/>
    <path id="_65495872" fill="white" fill-rule="nonzero" stroke="black" stroke-width="0.0762" stroke-linejoin="bevel" d="M36.8421 141.515c-0.9047,-1.2062 -0.7324,-2.7786 -2.3695,-2.9295 -1.8094,-0.0862 -2.8004,0.4956 -2.9514,0.8186 -0.4739,0.4307 -1.6154,-0.4523 -2.4339,-0.4523 -0.9909,0 -1.7233,1.0123 -2.1328,0.7539 -0.5814,-0.1293 -1.2277,-0.6894 -0.5601,-1.2277 0.2857,-0.4787 -0.3289,-1.0931 -0.6462,0.2153 -0.4091,0.7539 0.9478,1.3787 1.4217,1.4 0.5171,0.0431 1.0127,-0.6892 1.8957,-0.6892 0.8833,0 1.0339,0.4094 2.262,0.5169 0.4308,0 0.7754,-0.9692 2.434,-0.8399 1.6802,0.0861 1.4434,1.2924 2.3264,2.4988l0.7541 -0.0649z"/>
    <path id="_77125928" fill="white" fill-rule="nonzero" stroke="black" stroke-width="0.0762" stroke-linejoin="bevel" d="M26.6316 145.694c0.56,-1.4 1.1846,-4.5019 2.1755,-4.5881 0.9695,-0.1079 1.5509,0.5383 1.7233,0.883 0.3016,0.5601 0.9908,-0.3878 1.4648,-0.3878 0.6031,0 0.9695,1.2281 1.2494,0.9048 0.2802,-0.3016 0.6248,-0.5384 0.4094,-1.551 -0.6054,-2.2888 0.3016,-1.2493 0.3878,0.0862 0.0861,1.4648 -0.6249,1.8094 -0.991,1.8094 -0.3876,0 -0.4525,-0.883 -1.0125,-0.883 -0.5171,0 -0.7969,0.5384 -1.5079,0.5815 -0.2585,0 -0.3661,-0.9479 -1.2925,-0.9048 -1.0553,0.1723 -1.5293,2.6498 -2.068,4.0929l-0.5383 -0.0431z"/>
    <path id="_67216864" fill="white" fill-rule="nonzero" stroke="black" stroke-width="0.0762" stroke-linejoin="bevel" d="M37.5732 150.705c-0.5207,-0.7113 -1.1557,-2.1847 -2.0957,-2.261 -0.3939,-0.0636 -0.3685,-0.1906 -0.5843,-0.3302 -0.3431,-0.1906 -0.9274,-0.2668 -1.4608,-0.2668 -0.5715,0 -0.9832,0.3269 -1.2881,0.2124 -0.3625,-0.1167 -0.1501,0.1622 0.1444,0.2107 0.1779,0.0126 0.5214,-0.1437 1.1056,-0.2071 0.5207,-0.0636 0.5335,-0.0508 1.2449,0.127 0.2032,0.1016 0.4444,0.4573 0.6605,0.4699 1.0287,0.0636 1.2955,1.3718 1.8671,2.0831l0.4064 -0.038z"/>
    <path id="_77553280" fill="white" fill-rule="nonzero" stroke="black" stroke-width="0.0762" stroke-linejoin="bevel" d="M27.8593 140.524c0.7971,-1.1415 -2.5202,-3.5328 -1.0771,-3.6621 1.5295,-0.1505 2.4126,0.4095 2.5419,0.6463 0.4095,0.4309 1.3141,-0.2368 2.111,-0.2368 2.4815,0.0574 2.3799,0.3106 0.1078,0.323 -0.7971,0 -0.5817,0.4308 -2.2188,0.3447 -0.323,0 -0.4953,-0.6677 -1.9818,-0.6677 -1.4431,0.0645 1.9818,2.1111 1.271,3.2526l-0.754 0z"/>
    <path id="_77492944" fill="white" fill-rule="nonzero" stroke="black" stroke-width="0.0762" stroke-linejoin="bevel" d="M37.8544 146.469c-0.9478,-0.9909 2.5636,-3.0158 0.9265,-3.0589 -1.6589,-0.2154 -2.1759,0.2154 -2.4558,0.3016 -0.3446,0.5818 -1.4434,-0.0862 -2.2189,-0.0862 -0.9261,0 -1.9387,0.5601 -2.0462,0.4957 -0.4526,-0.0431 -0.4309,-0.5388 -0.8403,-1.0771 -0.8293,-0.571 -0.409,0.1937 -0.4091,0.1937 0.4952,0.2154 0.0862,0.7972 1.0122,1.2711 0.3447,0.1724 1.1849,-0.4094 2.1111,-0.4094 0.9264,0 1.7881,0.5169 2.3264,0.2371 0.3016,-0.1724 0.2802,-0.668 1.9818,-0.668 1.5079,0.0648 -1.917,1.8526 -1.077,2.822l0.6893 -0.0216z"/>
    <path id="_76651248" fill="white" fill-rule="nonzero" stroke="black" stroke-width="0.0762" stroke-linejoin="bevel" d="M23.7881 146.34c0.6894,-1.4648 -2.1758,-4.1573 -0.754,-4.3296 1.4434,-0.151 1.7233,0.2368 1.8311,0.517 0.366,0.6245 1.4861,-0.3447 2.2617,-0.3447 0.7541,0 1.2924,1.1415 1.7233,0.8186 0.3877,-0.2371 0.6892,-0.7541 0.6892,-1.745 0,-1.1514 0.5182,-2.4049 0.3016,0.3877 -0.1505,1.3355 -0.6245,1.7664 -1.0339,1.8095 -0.4092,0.0862 -0.9478,-0.9047 -1.8095,-0.9047 -0.6893,0 -0.883,0.4525 -1.8526,0.5387 -0.3446,0 -0.3446,-0.7972 -1.7233,-0.7972 -1.3786,0.0431 1.5079,2.6928 1.0341,4.1145l-0.6677 -0.0648z"/>
    <path id="_77533648" fill="white" fill-rule="nonzero" stroke="black" stroke-width="0.0762" stroke-linejoin="bevel" d="M39.1228 139.257c-0.6894,-1.4648 2.1758,-4.1573 0.754,-4.3296 -1.4434,-0.151 -1.7233,0.2368 -1.8311,0.517 -0.366,0.6245 -1.4861,-0.3447 -2.2617,-0.3447 -0.7541,0 -1.2924,1.1415 -1.7233,0.8186 -0.3877,-0.2371 -0.6892,-0.7541 -0.6892,-1.745 0,-1.1514 -0.5182,-2.4049 -0.3016,0.3877 0.1505,1.3355 0.6245,1.7664 1.0339,1.8095 0.4092,0.0862 0.9478,-0.9047 1.8095,-0.9047 0.6893,0 0.883,0.4525 1.8526,0.5387 0.3446,0 0.3446,-0.7972 1.7233,-0.7972 1.3786,0.0431 -1.5079,2.6928 -1.0341,4.1145l0.6677 -0.0648z"/>
    <path id="_76418032" fill="white" fill-rule="nonzero" stroke="black" stroke-width="0.0762" stroke-linejoin="bevel" d="M20.7895 141.948c0.9694,-1.6372 2.628,-5.17 4.2868,-5.17 1.1202,0.0862 2.1972,0.6032 2.3696,1.0772 0.5142,0.497 0.9107,0.6127 -0.1724,0.3877 -0.3447,0 -0.4308,-0.9909 -2.0466,-0.8617 -1.7016,0.1724 -2.6924,3.0372 -3.5971,4.6312l-0.8403 -0.0644z"/>
    <path id="_66302704" fill="white" fill-rule="nonzero" stroke="black" stroke-width="0.0762" stroke-linejoin="bevel" d="M32.9519 136.512c-0.5682,-0.7577 -0.46,-1.7453 -1.4883,-1.8401 -1.1365,-0.0541 -1.7589,0.3113 -1.8537,0.5142 -0.2977,0.2705 -1.0147,-0.2841 -1.5288,-0.2841 -0.6224,0 -1.0825,0.6358 -1.3396,0.4735 -0.3652,-0.0812 -0.7712,-0.433 -0.3519,-0.7711 0.1795,-0.3007 -0.2066,-0.6866 -0.4058,0.1352 -0.257,0.4735 0.5953,0.866 0.893,0.8794 0.3247,0.0271 0.636,-0.4329 1.1906,-0.4329 0.5548,0 0.6495,0.2571 1.4208,0.3246 0.2706,0 0.4871,-0.6087 1.5288,-0.5275 1.0554,0.0541 0.9066,0.8118 1.4613,1.5695l0.4736 -0.0407z"/>
    <path id="_77746280" fill="white" fill-rule="nonzero" stroke="black" stroke-width="0.0762" stroke-linejoin="bevel" d="M18.5278 140.763c0.56,-1.4001 1.1846,-4.502 2.1755,-4.5882 0.9695,-0.1078 1.551,0.5384 1.7233,0.883 0.3016,0.5601 0.9909,-0.3877 1.4648,-0.3877 0.6031,0 0.9695,1.228 1.2494,0.9048 0.2802,-0.3016 0.6248,-0.5385 0.4094,-1.551 -0.6054,-2.2889 0.3016,-1.2494 0.3878,0.0862 0.0862,1.4648 -0.6249,1.8093 -0.991,1.8093 -0.3876,0 -0.4525,-0.883 -1.0125,-0.883 -0.517,0 -0.7969,0.5385 -1.5079,0.5815 -0.2585,0 -0.3661,-0.9478 -1.2925,-0.9047 -1.0553,0.1723 -1.5292,2.6497 -2.068,4.0929l-0.5383 -0.0431z"/>
    <path id="_77132952" fill="white" fill-rule="nonzero" stroke="black" stroke-width="0.0762" stroke-linejoin="bevel" d="M28.1134 141.001c-0.883,-1.2063 -1.96,-3.7052 -3.554,-3.8344 -0.668,-0.1079 -0.6249,-0.3233 -0.991,-0.56 -0.5818,-0.3233 -1.5727,-0.4526 -2.4773,-0.4526 -0.9692,0 -1.6674,0.5544 -2.1844,0.3604 -0.6147,-0.1981 -0.2545,0.2749 0.2449,0.3572 0.3016,0.0214 0.8841,-0.2437 1.875,-0.3512 0.883,-0.1079 0.9047,-0.0862 2.111,0.2154 0.3446,0.1723 0.7538,0.7755 1.1202,0.7969 1.7446,0.1078 2.1971,2.3264 3.1664,3.5327l0.6892 -0.0644z"/>
    <path id="_76756288" fill="white" fill-rule="nonzero" stroke="black" stroke-width="0.0762" stroke-linejoin="bevel" d="M29.7506 141.539c-0.9478,-0.9909 2.5636,-3.0158 0.9265,-3.0589 -1.6589,-0.2154 -2.1759,0.2155 -2.4558,0.3016 -0.3446,0.5818 -1.4434,-0.0861 -2.2189,-0.0861 -0.9261,0 -1.9387,0.5601 -2.0462,0.4956 -0.4526,-0.0431 -0.4309,-0.5387 -0.8403,-1.077 -0.8293,-0.5711 -0.409,0.1936 -0.4091,0.1936 0.4952,0.2154 0.0862,0.7972 1.0123,1.2712 0.3446,0.1723 1.1848,-0.4095 2.111,-0.4095 0.9264,0 1.7881,0.5169 2.3264,0.2371 0.3016,-0.1723 0.2802,-0.6679 1.9819,-0.6679 1.5078,0.0647 -1.9171,1.8525 -1.0771,2.822l0.6893 -0.0217z"/>
    <path id="_76655304" fill="white" fill-rule="nonzero" stroke="black" stroke-width="0.0762" stroke-linejoin="bevel" d="M15.6843 141.41c0.6894,-1.4648 -2.1758,-4.1572 -0.754,-4.3296 1.4434,-0.1509 1.7233,0.2368 1.8311,0.517 0.366,0.6245 1.4861,-0.3446 2.2617,-0.3446 0.7541,0 1.2924,1.1415 1.7233,0.8186 0.3877,-0.2371 0.6892,-0.7542 0.6892,-1.745 0,-1.1515 0.5182,-2.405 0.3016,0.3877 -0.1505,1.3355 -0.6245,1.7663 -1.0339,1.8094 -0.4092,0.0862 -0.9478,-0.9047 -1.8095,-0.9047 -0.6893,0 -0.883,0.4526 -1.8526,0.5388 -0.3446,0 -0.3446,-0.7973 -1.7233,-0.7973 -1.3786,0.0431 1.5079,2.6928 1.0341,4.1145l-0.6677 -0.0648z"/>
    <path id="_76532600" fill="white" fill-rule="nonzero" stroke="black" stroke-width="0.0762" stroke-linejoin="bevel" d="M31.3691 150.039c-0.6894,-1.4648 2.1757,-4.1573 0.754,-4.3296 -1.4434,-0.151 -1.7233,0.2368 -1.8311,0.517 -0.366,0.6245 -1.4861,-0.3447 -2.2617,-0.3447 -0.7541,0 -1.2924,1.1415 -1.7233,0.8186 -0.3878,-0.2371 -0.6892,-0.7541 -0.6892,-1.745 0,-1.1515 -0.5182,-2.4049 -0.3016,0.3877 0.1505,1.3355 0.6244,1.7664 1.0339,1.8095 0.4092,0.0861 0.9478,-0.9047 1.8095,-0.9047 0.6892,0 0.883,0.4525 1.8525,0.5387 0.3447,0 0.3447,-0.7972 1.7234,-0.7972 1.3786,0.043 -1.5079,2.6927 -1.0341,4.1145l0.6677 -0.0648z"/>
    <path id="_77167088" fill="white" fill-rule="nonzero" stroke="black" stroke-width="0.0762" stroke-linejoin="bevel" d="M37.1352 145.282c0.9694,-1.6372 2.628,-5.17 4.2868,-5.17 1.1202,0.0862 2.1972,0.6032 2.3696,1.0772 0.5169,0.5814 1.6154,-0.6032 2.4125,-0.6032 2.2667,0.0478 1.3349,0.4223 0.0862,0.4308 -0.8833,0 -1.5296,0.7968 -2.6711,0.5601 -0.3447,0 -0.4308,-0.9909 -2.0466,-0.8617 -1.7016,0.1724 -2.6924,3.0372 -3.5971,4.6312l-0.8403 -0.0644z"/>
    <path id="_65734984" fill="white" fill-rule="nonzero" stroke="black" stroke-width="0.0762" stroke-linejoin="bevel" d="M45.084 139.918c-0.9047,-1.2063 -0.7324,-2.7787 -2.3695,-2.9296 -1.8094,-0.0862 -2.8004,0.4956 -2.9513,0.8186 -0.474,0.4308 -1.6155,-0.4522 -2.434,-0.4522 -0.9909,0 -1.7233,1.0122 -2.1328,0.7538 -0.5814,-0.1292 -1.2277,-0.6893 -0.5601,-1.2277 0.2857,-0.4787 -0.3289,-1.093 -0.6462,0.2154 -0.4091,0.7538 0.9478,1.3787 1.4217,1.4 0.5171,0.0431 1.0127,-0.6893 1.8957,-0.6893 0.8833,0 1.0339,0.4095 2.262,0.5169 0.4308,0 0.7754,-0.9691 2.434,-0.8399 1.6802,0.0862 1.4434,1.2925 2.3264,2.4989l0.7541 -0.0649z"/>
    <path id="_76550896" fill="white" fill-rule="nonzero" stroke="black" stroke-width="0.0762" stroke-linejoin="bevel" d="M34.8735 144.098c0.56,-1.4001 1.1846,-4.502 2.1755,-4.5882 0.9695,-0.1078 1.551,0.5384 1.7233,0.883 0.3016,0.5601 0.9909,-0.3877 1.4648,-0.3877 0.6031,0 0.9695,1.228 1.2494,0.9048 0.2802,-0.3016 0.6248,-0.5385 0.4094,-1.551 -0.6054,-2.2889 0.3016,-1.2494 0.3878,0.0862 0.0862,1.4648 -0.6249,1.8093 -0.991,1.8093 -0.3876,0 -0.4525,-0.883 -1.0125,-0.883 -0.517,0 -0.7969,0.5385 -1.5079,0.5815 -0.2585,0 -0.3661,-0.9478 -1.2925,-0.9047 -1.0553,0.1723 -1.5292,2.6497 -2.068,4.0929l-0.5383 -0.0431z"/>
    <path id="_66455200" fill="white" fill-rule="nonzero" stroke="black" stroke-width="0.0762" stroke-linejoin="bevel" d="M36.1012 138.928c0.7971,-1.1415 -2.5202,-3.5328 -1.0771,-3.662 1.5295,-0.1506 2.4126,0.4094 2.5419,0.6463 0.4095,0.4308 1.3142,-0.2369 2.111,-0.2369 0.8617,0 1.4866,0.797 1.9387,0.5816 1.0677,-0.3767 8.3645,-3.4259 0.0431,0.3015 -0.4308,0.2154 -1.0339,-0.5601 -1.874,-0.5601 -0.7971,0 -0.5817,0.4309 -2.2188,0.3447 -0.323,0 -0.4953,-0.6677 -1.9818,-0.6677 -1.4431,0.0645 1.9818,2.1111 1.271,3.2526l-0.754 0z"/>
    <path id="_66268912" fill="white" fill-rule="nonzero" stroke="black" stroke-width="0.0762" stroke-linejoin="bevel" d="M46.0963 144.873c-0.9478,-0.9909 2.5636,-3.0158 0.9265,-3.0589 -1.6589,-0.2154 -2.1759,0.2155 -2.4558,0.3016 -0.3446,0.5818 -1.4434,-0.0861 -2.2189,-0.0861 -0.9261,0 -1.9387,0.5601 -2.0462,0.4956 -0.4526,-0.0431 -0.4309,-0.5387 -0.8403,-1.077 -0.8293,-0.5711 -0.409,0.1936 -0.4091,0.1936 0.4952,0.2154 0.0862,0.7972 1.0122,1.2712 0.3447,0.1723 1.1849,-0.4095 2.1111,-0.4095 0.9264,0 1.7881,0.5169 2.3264,0.2371 0.3016,-0.1723 0.2802,-0.6679 1.9818,-0.6679 1.5079,0.0647 -1.917,1.8525 -1.077,2.822l0.6893 -0.0217z"/>
    <path id="_77534880" fill="white" fill-rule="nonzero" stroke="black" stroke-width="0.0762" stroke-linejoin="bevel" d="M32.03 144.744c0.6894,-1.4648 -2.1758,-4.1572 -0.754,-4.3296 1.4434,-0.1509 1.7233,0.2368 1.8311,0.517 0.366,0.6245 1.4861,-0.3446 2.2617,-0.3446 0.7541,0 1.2924,1.1415 1.7233,0.8186 0.3877,-0.2371 0.6892,-0.7542 0.6892,-1.745 0,-1.1515 0.5182,-2.405 0.3016,0.3877 -0.1505,1.3355 -0.6245,1.7663 -1.0339,1.8094 -0.4092,0.0862 -0.9478,-0.9047 -1.8095,-0.9047 -0.6893,0 -0.883,0.4526 -1.8526,0.5388 -0.3446,0 -0.3446,-0.7973 -1.7233,-0.7973 -1.3786,0.0431 1.5079,2.6928 1.0341,4.1145l-0.6677 -0.0648z"/>
    <path id="_65746176" fill="white" fill-rule="nonzero" stroke="black" stroke-width="0.0762" stroke-linejoin="bevel" d="M18.3634 136.809c0.3651,-0.7758 -1.1523,-2.2018 -0.3993,-2.2931 0.7644,-0.0799 0.9127,0.1255 0.9698,0.2739 0.1938,0.3307 0.7871,-0.1826 1.1978,-0.1826 0.3994,0 0.6845,0.6046 0.9127,0.4336 0.2054,-0.1256 0.365,-0.3994 0.365,-0.9242 0,-0.6099 0.2745,-1.2737 0.1598,0.2053 -0.0798,0.7073 -0.3308,0.9355 -0.5476,0.9583 -0.2167,0.0457 -0.502,-0.4791 -0.9584,-0.4791 -0.365,0 -0.4676,0.2397 -0.9811,0.2853 -0.1826,0 -0.1826,-0.4222 -0.9127,-0.4222 -0.7302,0.0228 0.7986,1.4261 0.5476,2.1791l-0.3536 -0.0343z"/>
    <path id="_77169496" fill="white" fill-rule="nonzero" stroke="black" stroke-width="0.0762" stroke-linejoin="bevel" d="M15.2157 150.437c0.9695,-1.6371 2.628,-5.1699 4.2868,-5.1699 1.1202,0.0862 2.1973,0.6032 2.3696,1.0771 0.5169,0.5814 1.6155,-0.6031 2.4126,-0.6031 2.2666,0.0478 1.3349,0.4223 0.0862,0.4308 -0.8833,0 -1.5296,0.7968 -2.6711,0.5601 -0.3447,0 -0.4309,-0.9909 -2.0466,-0.8617 -1.7016,0.1723 -2.6925,3.0372 -3.5972,4.6312l-0.8403 -0.0645z"/>
    <path id="_77063360" fill="white" fill-rule="nonzero" stroke="black" stroke-width="0.0762" stroke-linejoin="bevel" d="M23.1646 145.073c-0.9047,-1.2063 -0.7325,-2.7787 -2.3695,-2.9296 -1.8095,-0.0862 -2.8005,0.4956 -2.9514,0.8186 -0.4739,0.4308 -1.6154,-0.4522 -2.434,-0.4522 -0.9908,0 -1.7233,1.0122 -2.1327,0.7538 -0.5814,-0.1293 -1.2277,-0.6894 -0.5601,-1.2277 0.2856,-0.4787 -0.329,-1.093 -0.6462,0.2153 -0.4092,0.7539 0.9478,1.3788 1.4217,1.4001 0.517,0.0431 1.0126,-0.6893 1.8956,-0.6893 0.8833,0 1.034,0.4095 2.2621,0.5169 0.4307,0 0.7754,-0.9691 2.4339,-0.8399 1.6803,0.0862 1.4434,1.2925 2.3264,2.4989l0.7542 -0.0649z"/>
    <path id="_66447544" fill="white" fill-rule="nonzero" stroke="black" stroke-width="0.0762" stroke-linejoin="bevel" d="M12.9541 149.252c0.56,-1.4001 1.1846,-4.502 2.1754,-4.5882 0.9696,-0.1078 1.551,0.5383 1.7233,0.883 0.3016,0.5601 0.9909,-0.3877 1.4648,-0.3877 0.6031,0 0.9695,1.228 1.2494,0.9047 0.2802,-0.3016 0.6249,-0.5384 0.4095,-1.5509 -0.6055,-2.2889 0.3016,-1.2494 0.3877,0.0861 0.0862,1.4648 -0.6248,1.8094 -0.9909,1.8094 -0.3877,0 -0.4526,-0.883 -1.0126,-0.883 -0.517,0 -0.7968,0.5384 -1.5079,0.5815 -0.2585,0 -0.366,-0.9478 -1.2924,-0.9048 -1.0554,0.1724 -1.5293,2.6498 -2.068,4.0929l-0.5383 -0.043z"/>
    <path id="_77090952" fill="white" fill-rule="nonzero" stroke="black" stroke-width="0.0762" stroke-linejoin="bevel" d="M22.5397 149.489c-0.883,-1.2063 -1.96,-3.7052 -3.5541,-3.8344 -0.668,-0.1079 -0.6249,-0.3233 -0.991,-0.56 -0.5817,-0.3233 -1.5726,-0.4526 -2.4773,-0.4526 -0.9692,0 -1.6673,0.5544 -2.1844,0.3603 -0.6147,-0.198 -0.2545,0.275 0.245,0.3573 0.3016,0.0214 0.8841,-0.2437 1.8749,-0.3512 0.883,-0.108 0.9047,-0.0862 2.1111,0.2154 0.3446,0.1723 0.7537,0.7755 1.1201,0.7969 1.7446,0.1078 2.1972,2.3264 3.1664,3.5326l0.6893 -0.0643z"/>
    <path id="_66277936" fill="white" fill-rule="nonzero" stroke="black" stroke-width="0.0762" stroke-linejoin="bevel" d="M14.1818 144.082c0.7971,-1.1415 -2.5203,-3.5328 -1.0772,-3.662 1.5296,-0.1506 2.4127,0.4094 2.542,0.6463 0.4094,0.4308 1.3141,-0.2369 2.1109,-0.2369 0.8617,0 1.4866,0.797 1.9388,0.5815 1.0676,-0.3766 8.3645,-3.4258 0.0431,0.3016 -0.4309,0.2154 -1.034,-0.5601 -1.874,-0.5601 -0.7971,0 -0.5817,0.4309 -2.2188,0.3447 -0.323,0 -0.4954,-0.6677 -1.9819,-0.6677 -1.4431,0.0645 1.9819,2.1111 1.2711,3.2526l-0.754 0z"/>
    <path id="_65733600" fill="white" fill-rule="nonzero" stroke="black" stroke-width="0.0762" stroke-linejoin="bevel" d="M24.1768 150.027c-0.9477,-0.9909 2.5637,-3.0158 0.9265,-3.0589 -1.6588,-0.2154 -2.1758,0.2155 -2.4557,0.3016 -0.3446,0.5818 -1.4434,-0.0861 -2.219,-0.0861 -0.9261,0 -1.9386,0.5601 -2.0462,0.4956 -0.4525,-0.0431 -0.4308,-0.5387 -0.8403,-1.077 -0.8293,-0.5711 -0.409,0.1936 -0.4091,0.1936 0.4953,0.2154 0.0862,0.7972 1.0123,1.2712 0.3447,0.1723 1.1849,-0.4095 2.1111,-0.4095 0.9264,0 1.7881,0.5169 2.3264,0.2371 0.3016,-0.1723 0.2802,-0.668 1.9818,-0.668 1.5079,0.0648 -1.917,1.8526 -1.077,2.8221l0.6892 -0.0217z"/>
    <path id="_77532656" fill="white" fill-rule="nonzero" stroke="black" stroke-width="0.0762" stroke-linejoin="bevel" d="M10.1105 149.898c0.6894,-1.4648 -2.1757,-4.1572 -0.754,-4.3296 1.4434,-0.1509 1.7233,0.2368 1.8312,0.517 0.366,0.6245 1.4861,-0.3446 2.2616,-0.3446 0.7541,0 1.2925,1.1415 1.7233,0.8186 0.3878,-0.2371 0.6893,-0.7542 0.6893,-1.745 0,-1.1515 0.5182,-2.405 0.3016,0.3876 -0.1506,1.3356 -0.6245,1.7664 -1.034,1.8095 -0.4091,0.0862 -0.9477,-0.9047 -1.8094,-0.9047 -0.6893,0 -0.8831,0.4526 -1.8526,0.5387 -0.3447,0 -0.3447,-0.7972 -1.7233,-0.7972 -1.3787,0.0431 1.5079,2.6928 1.034,4.1145l-0.6677 -0.0648z"/>
    <path id="_77749240" fill="white" fill-rule="nonzero" stroke="black" stroke-width="0.0762" stroke-linejoin="bevel" d="M25.4453 142.815c-0.6894,-1.4648 2.1757,-4.1572 0.754,-4.3296 -1.4434,-0.1509 -1.7233,0.2368 -1.8312,0.517 -0.366,0.6245 -1.4861,-0.3446 -2.2616,-0.3446 -0.7541,0 -1.2925,1.1415 -1.7233,0.8186 -0.3878,-0.2371 -0.6893,-0.7542 -0.6893,-1.745 0,-1.1515 -0.5182,-2.405 -0.3016,0.3876 0.1506,1.3356 0.6245,1.7664 1.034,1.8095 0.4091,0.0862 0.9477,-0.9047 1.8095,-0.9047 0.6892,0 0.883,0.4526 1.8525,0.5387 0.3447,0 0.3447,-0.7972 1.7233,-0.7972 1.3787,0.0431 -1.5079,2.6928 -1.034,4.1145l0.6677 -0.0648z"/>
    <path id="_77750464" fill="white" fill-rule="nonzero" stroke="black" stroke-width="0.0762" stroke-linejoin="bevel" d="M37.3657 149.308c0.56,-1.4 1.1846,-4.502 2.1754,-4.5881 0.9696,-0.1079 1.551,0.5383 1.7233,0.883 0.3016,0.5601 0.9909,-0.3878 1.4648,-0.3878 0.6031,0 0.9695,1.2281 1.2494,0.9048 0.2802,-0.3016 0.6249,-0.5384 0.4095,-1.551 -0.6055,-2.2889 0.3015,-1.2494 0.3877,0.0862 0.0862,1.4648 -0.6249,1.8094 -0.9909,1.8094 -0.3877,0 -0.4526,-0.883 -1.0126,-0.883 -0.517,0 -0.7968,0.5384 -1.5079,0.5815 -0.2585,0 -0.3661,-0.9479 -1.2924,-0.9048 -1.0554,0.1723 -1.5293,2.6498 -2.068,4.0929l-0.5383 -0.0431z"/>
    <path id="_77605640" fill="white" fill-rule="nonzero" stroke="black" stroke-width="0.0762" stroke-linejoin="bevel" d="M46.9513 149.545c-0.883,-1.2063 -1.9601,-3.7051 -3.5541,-3.8344 -0.668,-0.1078 -0.6249,-0.3233 -0.991,-0.56 -0.5818,-0.3233 -1.5726,-0.4525 -2.4773,-0.4525 -0.9692,0 -1.6673,0.5543 -2.1844,0.3603 -0.6147,-0.1981 -0.2545,0.2749 0.245,0.3573 0.3016,0.0214 0.884,-0.2438 1.8749,-0.3513 0.883,-0.1079 0.9047,-0.0861 2.1111,0.2155 0.3446,0.1722 0.7537,0.7754 1.1201,0.7968 1.7446,0.1079 2.1971,2.3264 3.1664,3.5327l0.6893 -0.0644z"/>
    <path id="_76901776" fill="white" fill-rule="nonzero" stroke="black" stroke-width="0.0762" stroke-linejoin="bevel" d="M27.4879 150.739c0.4702,-0.6733 -1.4866,-2.0838 -0.6354,-2.1601 0.9023,-0.0888 1.4232,0.2416 1.4994,0.3812 0.2415,0.2542 0.7752,-0.1396 1.2452,-0.1396 0.5082,0 0.8768,0.47 1.1435,0.343 0.6298,-0.2222 4.9339,-2.0208 0.0255,0.1779 -0.2542,0.127 -0.6099,-0.3304 -1.1054,-0.3304 -0.4702,0 -0.3431,0.2541 -1.3088,0.2033 -0.1905,0 -0.2922,-0.3938 -1.169,-0.3938 -0.8512,0.038 1.169,1.2452 0.7497,1.9185l-0.4447 0z"/>
    <path id="_45490224" fill="white" fill-rule="nonzero" stroke="black" stroke-width="0.0762" stroke-linejoin="bevel" d="M33.7458 150.646c0.6894,-1.4648 -2.1757,-4.1573 -0.754,-4.3296 1.4434,-0.1509 1.7233,0.2368 1.8312,0.517 0.366,0.6245 1.4861,-0.3447 2.2616,-0.3447 0.7541,0 1.2925,1.1416 1.7233,0.8187 0.3878,-0.2372 0.6893,-0.7542 0.6893,-1.745 0,-1.1515 0.5182,-2.405 0.3016,0.3876 -0.1506,1.3356 -0.6245,1.7664 -1.034,1.8095 -0.4091,0.0862 -0.9477,-0.9047 -1.8095,-0.9047 -0.6892,0 -0.883,0.4526 -1.8525,0.5387 -0.3447,0 -0.3447,-0.7972 -1.7233,-0.7972 -1.3787,0.0431 1.5079,2.6928 1.034,4.1145l-0.6677 -0.0648z"/>
    <path id="_66420456" fill="white" fill-rule="nonzero" stroke="black" stroke-width="0.0762" stroke-linejoin="bevel" d="M48.5884 150.084c-0.9478,-0.9908 2.5636,-3.0157 0.9265,-3.0588 -1.6588,-0.2155 -2.1759,0.2154 -2.4558,0.3016 -0.3445,0.5818 -1.4434,-0.0862 -2.2189,-0.0862 -0.9261,0 -1.9386,0.5601 -2.0462,0.4956 -0.4525,-0.0431 -0.4309,-0.5387 -0.8403,-1.077 -0.8293,-0.5711 -0.409,0.1936 -0.4091,0.1936 0.4953,0.2155 0.0862,0.7973 1.0123,1.2712 0.3447,0.1723 1.1849,-0.4095 2.1111,-0.4095 0.9263,0 1.788,0.517 2.3264,0.2372 0.3016,-0.1724 0.2802,-0.668 1.9818,-0.668 1.5079,0.0648 -1.9171,1.8525 -1.077,2.822l0.6892 -0.0217z"/>
    <path id="_66430632" fill="white" fill-rule="nonzero" stroke="black" stroke-width="0.0762" stroke-linejoin="bevel" d="M39.6273 150.493c0.9695,-1.6372 2.628,-5.1699 4.2868,-5.1699 1.1202,0.0861 2.1973,0.6031 2.3696,1.0771 0.5169,0.5814 1.6155,-0.6032 2.4126,-0.6032 2.2666,0.0479 1.3348,0.4223 0.0861,0.4308 -0.8832,0 -1.5295,0.7969 -2.671,0.5601 -0.3447,0 -0.4309,-0.9909 -2.0466,-0.8617 -1.7017,0.1724 -2.6925,3.0372 -3.5972,4.6313l-0.8403 -0.0645z"/>
   </g>
  </g>
  <g id="LfPilo_Pubes" onclick="parent.replacechar('LfPilo_Pubes')" onmousemove="parent.showtooltip('LfPilo_Pubes', 'Leaf with pubescent lower surface')" onmouseout="parent.hidetooltip('LfPilo_Pubes')" cursor="pointer" >
   <polygon id="sans" fill="#009341" fill-rule="nonzero" stroke="black" stroke-width="0.0762" stroke-linejoin="bevel" points="197.328,41.982 186.866,57.9672 233.134,57.9672 222.672,41.982 "/>
   <g id="poils_7">
    <path id="_66456000" fill="none" stroke="black" stroke-width="0.0762" d="M196.823 46.3043c0,0 -0.7064,-4.3956 2.9828,-6.8289"/>
    <path id="_77215392" fill="none" stroke="black" stroke-width="0.0762" d="M201.386 45.8895c0,0 -0.7065,-4.3956 2.9827,-6.8288"/>
    <path id="_66367416" fill="none" stroke="black" stroke-width="0.0762" d="M206.985 46.5117c0,0 -0.7064,-4.3956 2.9827,-6.8289"/>
    <path id="_76988552" fill="none" stroke="black" stroke-width="0.0762" d="M213 46.408c0,0 -0.7065,-4.3956 2.9827,-6.8289"/>
    <path id="_77035896" fill="none" stroke="black" stroke-width="0.0762" d="M192.883 52.215c0,0 -0.7065,-4.3956 2.9827,-6.8289"/>
    <path id="_77759672" fill="none" stroke="black" stroke-width="0.0762" d="M197.445 50.4521c0,0 -0.7064,-4.3955 2.9827,-6.8288"/>
    <path id="_77054848" fill="none" stroke="black" stroke-width="0.0762" d="M202.215 50.6595c0,0 -0.7065,-4.3955 2.9827,-6.8288"/>
    <path id="_76660656" fill="none" stroke="black" stroke-width="0.0762" d="M209.059 50.2447c0,0 -0.7064,-4.3955 2.9827,-6.8288"/>
    <path id="_77047456" fill="none" stroke="black" stroke-width="0.0762" d="M218.392 46.2006c0,0 -0.7064,-4.3956 2.9827,-6.8289"/>
    <path id="_77764592" fill="none" stroke="black" stroke-width="0.0762" d="M221.814 47.6523c0,0 -0.7065,-4.3955 2.9827,-6.8288"/>
    <path id="_76869832" fill="none" stroke="black" stroke-width="0.0762" d="M224.925 51.6965c0,0 -0.7065,-4.3956 2.9827,-6.8288"/>
    <path id="_76996704" fill="none" stroke="black" stroke-width="0.0762" d="M193.505 56.4665c0,0 -0.7065,-4.3955 2.9827,-6.8288"/>
    <path id="_76436328" fill="none" stroke="black" stroke-width="0.0762" d="M199.042 55.8987c0,0 -0.7064,-4.3956 2.9827,-6.8289"/>
    <path id="_66364856" fill="none" stroke="black" stroke-width="0.0762" d="M189.481 56.8813c0,0 -0.7065,-4.3956 2.9827,-6.8288"/>
    <path id="_76793320" fill="none" stroke="black" stroke-width="0.0762" d="M203.685 53.9074c0,0 -0.7064,-4.3955 2.9827,-6.8288"/>
    <path id="_27670464" fill="none" stroke="black" stroke-width="0.0762" d="M209.342 56.1554c0,0 -0.7064,-4.3955 2.9827,-6.8288"/>
    <path id="_77225016" fill="none" stroke="black" stroke-width="0.0762" d="M215.154 56.1587c0,0 -0.7064,-4.3955 2.9827,-6.8288"/>
    <path id="_77268360" fill="none" stroke="black" stroke-width="0.0762" d="M217.562 56.4665c0,0 -0.7064,-4.3955 2.9827,-6.8288"/>
    <path id="_67171960" fill="none" stroke="black" stroke-width="0.0762" d="M227.414 56.0517c0,0 -0.7065,-4.3955 2.9827,-6.8288"/>
    <path id="_65784144" fill="none" stroke="black" stroke-width="0.0762" d="M205.119 55.1185c0,0 -0.7065,-4.3956 2.9827,-6.8289"/>
    <path id="_66454584" fill="none" stroke="black" stroke-width="0.0762" d="M213.829 51.0743c0,0 -0.7064,-4.3956 2.9828,-6.8288"/>
    <path id="_66402840" fill="none" stroke="black" stroke-width="0.0762" d="M221.176 56.1954c0,0 -0.7064,-4.3956 2.9828,-6.8289"/>
    <path id="_66385680" fill="none" stroke="black" stroke-width="0.0762" d="M204.963 45.7053c0,0 -0.7064,-4.3956 2.9827,-6.8289"/>
    <path id="_77814152" fill="none" stroke="black" stroke-width="0.0762" d="M209.526 45.2905c0,0 -0.7064,-4.3956 2.9828,-6.8289"/>
    <path id="_66887240" fill="none" stroke="black" stroke-width="0.0762" d="M215.126 45.9126c0,0 -0.7065,-4.3955 2.9827,-6.8288"/>
    <path id="_66446376" fill="none" stroke="black" stroke-width="0.0762" d="M221.14 45.8089c0,0 -0.7064,-4.3955 2.9828,-6.8288"/>
    <path id="_27680976" fill="none" stroke="black" stroke-width="0.0762" d="M199.295 50.3428c0,0 -0.7064,-4.3956 2.9827,-6.8289"/>
    <path id="_66389312" fill="none" stroke="black" stroke-width="0.0762" d="M205.586 49.8531c0,0 -0.7064,-4.3956 2.9827,-6.8288"/>
    <path id="_65503272" fill="none" stroke="black" stroke-width="0.0762" d="M210.356 50.0605c0,0 -0.7064,-4.3956 2.9827,-6.8288"/>
    <path id="_76991944" fill="none" stroke="black" stroke-width="0.0762" d="M217.2 49.6457c0,0 -0.7065,-4.3956 2.9827,-6.8288"/>
    <path id="_66460648" fill="none" stroke="black" stroke-width="0.0762" d="M193.157 55.1503c0,0 -0.7064,-4.3956 2.9828,-6.8289"/>
    <path id="_77787072" fill="none" stroke="black" stroke-width="0.0762" d="M199.853 43.5066c0,0 -0.7065,-4.3955 2.9827,-6.8288"/>
    <path id="_66506432" fill="none" stroke="black" stroke-width="0.0762" d="M203.782 43.3676c0,0 -0.7064,-4.3956 2.9827,-6.8289"/>
    <path id="_67216960" fill="none" stroke="black" stroke-width="0.0762" d="M201.645 55.8675c0,0 -0.7064,-4.3956 2.9827,-6.8288"/>
    <path id="_77815456" fill="none" stroke="black" stroke-width="0.0762" d="M206 54.2084c0,0 -0.7065,-4.3956 2.9827,-6.8289"/>
    <path id="_76486896" fill="none" stroke="black" stroke-width="0.0762" d="M197.621 56.2823c0,0 -0.7064,-4.3956 2.9827,-6.8289"/>
    <path id="_76602880" fill="none" stroke="black" stroke-width="0.0762" d="M211.279 55.4c0,0 -0.7064,-4.3955 2.9827,-6.8288"/>
    <path id="_65458736" fill="none" stroke="black" stroke-width="0.0762" d="M219.483 54.9198c0,0 -0.7065,-4.3955 2.9827,-6.8288"/>
    <path id="_66529216" fill="none" stroke="black" stroke-width="0.0762" d="M222.839 54.1047c0,0 -0.7064,-4.3956 2.9827,-6.8289"/>
    <path id="_76923016" fill="none" stroke="black" stroke-width="0.0762" d="M225.703 55.8675c0,0 -0.7065,-4.3956 2.9827,-6.8288"/>
    <path id="_76536584" fill="none" stroke="black" stroke-width="0.0762" d="M217.548 44.6308c0,0 -0.7064,-4.3955 2.9827,-6.8288"/>
    <path id="_77032192" fill="none" stroke="black" stroke-width="0.0762" d="M214.168 53.5191c0,0 -0.7064,-4.3956 2.9827,-6.8288"/>
    <path id="_66914560" fill="none" stroke="black" stroke-width="0.0762" d="M221.97 50.4753c0,0 -0.7064,-4.3956 2.9827,-6.8289"/>
    <path id="_77202064" fill="none" stroke="black" stroke-width="0.0762" d="M229.316 55.5963c0,0 -0.7064,-4.3956 2.9827,-6.8288"/>
   </g>
  </g>
  <g id="LfPilo_Scale" onclick="parent.replacechar('LfPilo_Scale')" onmousemove="parent.showtooltip('LfPilo_Scale', 'Leaf with scaly lower surface')" onmouseout="parent.hidetooltip('LfPilo_Scale')" cursor="pointer" >
   <polygon id="surface_8" fill="#009341" fill-rule="nonzero" stroke="black" stroke-width="0.0762" stroke-linejoin="bevel" points="137.842,42.6301 127.804,57.9672 172.197,57.9672 162.158,42.6301 "/>
   <g id="scales">
    <polygon id="_77299264" fill="white" stroke="black" stroke-width="0.0762" points="142.113,47.5575 143.128,44.7947 145.665,45.3263 146.218,48.4174 144.023,49.7964 "/>
    <polygon id="_45410624" fill="white" stroke="black" stroke-width="0.0762" points="146.38,48.6119 148.92,50.0976 147.95,52.5014 144.81,52.5014 143.839,50.0976 "/>
    <polygon id="_77610696" fill="white" stroke="black" stroke-width="0.0762" points="141.493,54.0849 144.034,52.5992 143.063,50.1954 139.923,50.1954 138.952,52.5992 "/>
    <polygon id="_65722224" fill="white" stroke="black" stroke-width="0.0762" points="136.943,48.6251 139.484,50.1109 138.513,52.5147 135.373,52.5147 134.402,50.1109 "/>
    <polygon id="_66894768" fill="white" stroke="black" stroke-width="0.0762" points="150.81,54.1175 153.351,52.6318 152.38,50.228 149.24,50.228 148.269,52.6318 "/>
    <polygon id="_77230432" fill="white" stroke="black" stroke-width="0.0762" points="155.241,48.3638 157.781,49.8496 156.811,52.2534 153.671,52.2534 152.7,49.8496 "/>
    <polygon id="_65832192" fill="white" stroke="black" stroke-width="0.0762" points="159.671,53.6614 162.212,52.1757 161.241,49.7719 158.101,49.7719 157.131,52.1757 "/>
    <polygon id="_66881936" fill="white" stroke="black" stroke-width="0.0762" points="164.265,48.2861 166.805,49.7719 165.835,52.1757 162.695,52.1757 161.724,49.7719 "/>
    <polygon id="_67172032" fill="white" stroke="black" stroke-width="0.0762" points="150.81,45.8428 153.351,47.3285 152.38,49.7323 149.24,49.7323 148.269,47.3285 "/>
    <polygon id="_76673656" fill="white" stroke="black" stroke-width="0.0762" points="155.501,56.3328 158.042,54.847 157.072,52.4432 153.931,52.4432 152.961,54.847 "/>
    <polygon id="_66806144" fill="white" stroke="black" stroke-width="0.0762" points="146.347,56.6912 148.888,55.2054 147.917,52.8016 144.777,52.8016 143.806,55.2054 "/>
    <polygon id="_76559808" fill="white" stroke="black" stroke-width="0.0762" points="136.899,56.6912 139.44,55.2054 138.47,52.8016 135.329,52.8016 134.359,55.2054 "/>
    <polygon id="_77066952" fill="white" stroke="black" stroke-width="0.0762" points="164.623,56.2676 167.164,54.7819 166.193,52.3781 163.053,52.3781 162.083,54.7819 "/>
    <polygon id="_77041824" fill="white" stroke="black" stroke-width="0.0762" points="159.802,45.9938 162.087,47.3302 161.214,49.4924 158.389,49.4924 157.516,47.3302 "/>
    <polygon id="_76515344" fill="white" stroke="black" stroke-width="0.0762" points="139.438,46.7648 141.978,45.2791 141.008,42.8753 137.868,42.8753 136.897,45.2791 "/>
    <polygon id="_67092904" fill="white" stroke="black" stroke-width="0.0762" points="147.9,46.664 150.441,45.1783 149.47,42.7745 146.33,42.7745 145.36,45.1783 "/>
    <polygon id="_66785080" fill="white" stroke="black" stroke-width="0.0762" points="153.379,46.664 155.92,45.1783 154.949,42.7745 151.809,42.7745 150.838,45.1783 "/>
    <polygon id="_77054696" fill="white" stroke="black" stroke-width="0.0762" points="158.727,46.4695 161.084,45.091 160.183,42.8606 157.27,42.8606 156.369,45.091 "/>
    <polygon id="_67161992" fill="white" stroke="black" stroke-width="0.0762" points="133.858,56.1861 133.972,53.2451 131.423,52.7704 129.735,55.4179 131.239,57.5289 "/>
    <polygon id="_66290552" fill="white" stroke="black" stroke-width="0.0762" points="141.46,54.0198 144.001,55.5055 143.03,57.9093 139.89,57.9093 138.92,55.5055 "/>
    <polygon id="_77063056" fill="white" stroke="black" stroke-width="0.0762" points="151.201,53.922 153.742,55.4078 152.771,57.8116 149.631,57.8116 148.66,55.4078 "/>
    <polygon id="_66447520" fill="white" stroke="black" stroke-width="0.0762" points="159.965,53.8895 162.505,55.3752 161.535,57.779 158.394,57.779 157.424,55.3752 "/>
    <polygon id="_66750264" fill="white" stroke="black" stroke-width="0.0762" points="168.07,54.4107 170.377,55.7596 169.496,57.9419 166.645,57.9419 165.764,55.7596 "/>
    <polygon id="_66882800" fill="white" stroke="black" stroke-width="0.0762" points="155.795,48.3841 157.45,47.4159 156.818,45.8495 154.771,45.8495 154.139,47.4159 "/>
    <polygon id="_77035648" fill="white" stroke="black" stroke-width="0.0762" points="162.44,47.1787 164.096,46.2105 163.464,44.6441 161.417,44.6441 160.785,46.2105 "/>
    <polygon id="_77280512" fill="white" stroke="black" stroke-width="0.0762" points="141.037,47.5435 142.693,48.5117 142.06,50.0782 140.014,50.0782 139.381,48.5117 "/>
    <polygon id="_65736616" fill="white" stroke="black" stroke-width="0.0762" points="137.003,45.6627 138.659,46.6309 138.027,48.1973 135.98,48.1973 135.348,46.6309 "/>
   </g>
  </g>
  <polygon id="LfPilo_Glau" onclick="parent.replacechar('LfPilo_Glau')" onmousemove="parent.showtooltip('LfPilo_Glau', 'Leaf with glaucous lower surface')" onmouseout="parent.hidetooltip('LfPilo_Glau')" cursor="pointer"  fill="url(#id0)" fill-rule="nonzero" stroke="black" stroke-width="0.0762" stroke-linejoin="bevel" points="77.8417,42.6301 67.8035,57.9671 112.196,57.9671 102.158,42.6301 "/>
  <polygon id="LfPilo_Glab" onclick="parent.replacechar('LfPilo_Glab')" onmousemove="parent.showtooltip('LfPilo_Glab', 'Leaf with glabrous lower surface')" onmouseout="parent.hidetooltip('LfPilo_Glab')" cursor="pointer"  fill="#009341" fill-rule="nonzero" stroke="black" stroke-width="0.0762" stroke-linejoin="bevel" points="17.8418,42.6301 7.8036,57.9671 52.1964,57.9671 42.1578,42.6301 "/>
 </g>
<image xlink:href="tick.gif" id="imgtick" x="-100" y="-100" width="15" height="15"/>
<rect id="recttooltip" x="-100" y="-100" width="55" height="6" fill-opacity="0.4" pointer-events="none"/>
<text id="textboxid" x="-100" y="-100" pointer-events="none"> </text>
</a></svg>
