<?xml version="1.0" encoding="UTF-8"?>
<!DOCTYPE svg PUBLIC "-//W3C//DTD SVG 1.1//EN" "http://www.w3.org/Graphics/SVG/1.1/DTD/svg11.dtd">
<!-- Creator: CorelDRAW -->
<svg xmlns="http://www.w3.org/2000/svg" xml:space="preserve" shape-rendering="geometricPrecision" text-rendering="geometricPrecision" image-rendering="optimizeQuality" fill-rule="evenodd" clip-rule="evenodd"
viewBox="0 0 240 180"
 xmlns:xlink="http://www.w3.org/1999/xlink">
<a>
 <g id="Layer_x0020_1">
  <metadata id="CorelCorpID_0Corel-Layer"/>
  <rect fill="none" transform="matrix(3.24291E-013 -17.1512 10.3131 3.82591E-013 -1.55692E-005 180)" width="10.4949" height="23.2713"/>
  <g id="F_Trip" onclick="parent.replacechar('F_Trip')" onmousemove="parent.showtooltip('F_Trip', 'Tripinnate')" onmouseout="parent.hidetooltip('F_Trip')" cursor="pointer" >
   <g id="foliole_x0020_1_x0020_gauche">
    <path id="feuille" fill="#78B43C" stroke="black" stroke-width="0.0762" d="M187.214 140.52c0.0731,-0.49 0.4022,-1.1733 1.3443,-1.7365 0.9422,-0.5632 1.6434,-0.4601 2.0644,-0.2759 0.0088,0.4664 -0.3517,1.1151 -1.2938,1.6783 -0.9421,0.5632 -1.7838,0.5428 -2.1149,0.3341z"/>
    <path id="feuille_0" fill="#78B43C" stroke="black" stroke-width="0.0762" d="M190.448 141.396c0.0731,-0.4899 0.4022,-1.1732 1.3444,-1.7364 0.9421,-0.5632 1.6433,-0.4601 2.0644,-0.276 0.0088,0.4664 -0.3517,1.1152 -1.2939,1.6784 -0.9421,0.5632 -1.7837,0.5428 -2.1149,0.334z"/>
    <path id="feuille_1" fill="#78B43C" stroke="black" stroke-width="0.0762" d="M188.971 134.094c0.3322,0.0299 1.1786,0.4069 1.721,1.3611 0.5424,0.9543 0.4095,1.674 0.2162,2.0909 -0.4665,-0.0014 -1.1481,-0.3501 -1.6905,-1.3044 -0.5424,-0.9542 -0.4627,-1.8211 -0.2467,-2.1476z"/>
    <path id="feuille_2" fill="#78B43C" stroke="black" stroke-width="0.0762" d="M192.138 134.907c0.3322,0.0299 1.1786,0.4068 1.7211,1.3611 0.5424,0.9542 0.4095,1.674 0.2162,2.0909 -0.4665,-0.0014 -1.1481,-0.3502 -1.6906,-1.3044 -0.5424,-0.9543 -0.4626,-1.8211 -0.2467,-2.1476z"/>
    <path id="feuille_x0020_terminale" fill="#78B43C" stroke="black" stroke-width="0.0762" d="M185.603 136.702c0.3982,-0.2945 1.1143,-0.5447 2.1786,-0.2763 1.0643,0.2685 1.4869,0.8374 1.6543,1.2654 -0.3238,0.3359 -1.0375,0.5394 -2.1018,0.271 -1.0643,-0.2685 -1.6447,-0.8782 -1.7311,-1.2601z"/>
    <polygon id="petiolule_x0020_large" fill="#78B43C" stroke="black" stroke-width="0.0762" stroke-linejoin="bevel" points="186.157,136.785 210.144,143.162 "/>
    <line id="petiolule5" fill="none" stroke="black" stroke-width="0.0762" x1="189.069" y1="134.294" x2="191.232" y2= "138.142" />
    <line id="petiolule4" fill="none" stroke="black" stroke-width="0.0762" x1="192.271" y1="135.144" x2="194.433" y2= "138.992" />
    <line id="petiolule5_3" fill="none" stroke="black" stroke-width="0.0762" x1="187.427" y1="140.364" x2="191.245" y2= "138.149" />
    <line id="petiolule4_4" fill="none" stroke="black" stroke-width="0.0762" x1="190.634" y1="141.237" x2="194.452" y2= "139.023" />
    <g id="foliole_x0020_1_x0020_bas">
     <path id="feuille_5" fill="#78B43C" stroke="black" stroke-width="0.0762" d="M200.569 149.576c0.0183,-0.495 0.2697,-1.2106 1.1437,-1.8747 0.8739,-0.6641 1.5822,-0.6393 2.0211,-0.503 0.0604,0.4626 -0.226,1.1473 -1.1,1.8114 -0.8739,0.6641 -1.7126,0.7371 -2.0648,0.5663z"/>
     <path id="feuille_6" fill="#78B43C" stroke="black" stroke-width="0.0762" d="M200.034 145.911c0.3197,-0.3783 0.959,-0.7865 2.0566,-0.7701 1.0975,0.0164 1.6396,0.4728 1.901,0.8509 -0.2378,0.4013 -0.8856,0.7636 -1.9831,0.7472 -1.0975,-0.0164 -1.8027,-0.4763 -1.9745,-0.828z"/>
     <path id="feuille_7" fill="#78B43C" stroke="black" stroke-width="0.0762" d="M201.674 143.844c0.3197,-0.3783 0.959,-0.7865 2.0566,-0.7701 1.0975,0.0164 1.6396,0.4729 1.901,0.8509 -0.2378,0.4014 -0.8856,0.7636 -1.9831,0.7472 -1.0975,-0.0164 -1.8027,-0.4763 -1.9745,-0.828z"/>
     <path id="feuille_8" fill="#78B43C" stroke="black" stroke-width="0.0762" d="M204.826 150.683c-0.3858,-0.3107 -0.809,-0.9401 -0.8187,-2.0377 -0.0097,-1.0976 0.4337,-1.6505 0.8054,-1.9207 0.4069,0.2282 0.7844,0.8671 0.7941,1.9647 0.0097,1.0976 -0.4333,1.8135 -0.7808,1.9937z"/>
     <path id="feuille_9" fill="#78B43C" stroke="black" stroke-width="0.0762" d="M206.466 148.722c-0.3858,-0.3107 -0.809,-0.9401 -0.8187,-2.0377 -0.0097,-1.0976 0.4337,-1.6504 0.8054,-1.9207 0.4069,0.2282 0.7844,0.8672 0.7941,1.9648 0.0097,1.0976 -0.4333,1.8134 -0.7808,1.9936z"/>
     <polyline id="petiolule1" fill="none" stroke="black" stroke-width="0.0762" points="200.947,149.34 203.769,147.251 207.589,142.431 "/>
     <line id="_76606216" fill="none" stroke="black" stroke-width="0.0762" x1="206.417" y1="143.88" x2="202.003" y2= "143.884" />
     <line id="_67101840" fill="none" stroke="black" stroke-width="0.0762" x1="204.767" y1="145.981" x2="200.354" y2= "145.985" />
     <line id="_67101680" fill="none" stroke="black" stroke-width="0.0762" x1="206.44" y1="143.871" x2="206.504" y2= "148.284" />
     <line id="_77271448" fill="none" stroke="black" stroke-width="0.0762" x1="204.753" y1="146.011" x2="204.817" y2= "150.424" />
    </g>
    <g id="foliole_x0020_1_x0020_haut">
     <path id="feuille_10" fill="#78B43C" stroke="black" stroke-width="0.0762" d="M203.354 133.123c-0.1499,0.4975 -0.1537,1.2893 0.4492,2.2305 0.6029,0.9411 1.2819,1.1446 1.7434,1.1505 0.2136,-0.44 0.1738,-1.2123 -0.4291,-2.1535 -0.603,-0.9411 -1.3723,-1.2837 -1.7635,-1.2275z"/>
     <path id="feuille_11" fill="#78B43C" stroke="black" stroke-width="0.0762" d="M201.608 136.592c0.1749,0.4788 0.6422,1.0901 1.6868,1.4273 1.0446,0.3372 1.7121,0.0585 2.0873,-0.2328 -0.0895,-0.4753 -0.5804,-1.0437 -1.6249,-1.3809 -1.0446,-0.3373 -1.8676,-0.1076 -2.1492,0.1864z"/>
     <path id="feuille_12" fill="#78B43C" stroke="black" stroke-width="0.0762" d="M202.463 139.173c0.1749,0.4787 0.6422,1.09 1.6868,1.4273 1.0445,0.3372 1.712,0.0584 2.0872,-0.2329 -0.0895,-0.4752 -0.5803,-1.0437 -1.6249,-1.3809 -1.0445,-0.3372 -1.8675,-0.1075 -2.1491,0.1865z"/>
     <path id="feuille_13" fill="#78B43C" stroke="black" stroke-width="0.0762" d="M207.758 133.395c-0.4702,0.1843 -1.0836,0.6732 -1.4637,1.7603 -0.3801,1.0871 -0.1471,1.7791 0.1134,2.1673 0.4623,-0.0956 1.0357,-0.6087 1.4158,-1.6958 0.3801,-1.0871 0.2026,-1.9409 -0.0655,-2.2318z"/>
     <path id="feuille_14" fill="#78B43C" stroke="black" stroke-width="0.0762" d="M208.648 135.871c-0.4702,0.1843 -1.0836,0.6732 -1.4637,1.7603 -0.3801,1.0871 -0.1472,1.7791 0.1134,2.1672 0.4623,-0.0956 1.0356,-0.6086 1.4158,-1.6958 0.3801,-1.0871 0.2026,-1.9408 -0.0655,-2.2317z"/>
     <polyline id="petiolule1_15" fill="none" stroke="black" stroke-width="0.0762" points="203.631,133.479 205.597,136.464 207.584,142.481 "/>
     <line id="_77167624" fill="none" stroke="black" stroke-width="0.0762" x1="206.965" y1="140.665" x2="202.788" y2= "139.239" />
     <line id="_77167448" fill="none" stroke="black" stroke-width="0.0762" x1="206.113" y1="138.047" x2="201.936" y2= "136.621" />
     <line id="_77166456" fill="none" stroke="black" stroke-width="0.0762" x1="206.983" y1="140.681" x2="208.536" y2= "136.318" />
     <line id="_77612336" fill="none" stroke="black" stroke-width="0.0762" x1="206.11" y1="138.013" x2="207.662" y2= "133.65" />
    </g>
    <g id="foliole_x0020_2_x0020_haut">
     <path id="feuille_16" fill="#78B43C" stroke="black" stroke-width="0.0762" d="M196.874 134.27c-0.15,0.4976 -0.1538,1.2894 0.4492,2.2306 0.6029,0.9411 1.2818,1.1446 1.7434,1.1505 0.2135,-0.44 0.1738,-1.2123 -0.4292,-2.1535 -0.6029,-0.9411 -1.3723,-1.2838 -1.7634,-1.2276z"/>
     <path id="feuille_17" fill="#78B43C" stroke="black" stroke-width="0.0762" d="M195.128 137.739c0.1749,0.4788 0.6422,1.0901 1.6868,1.4273 1.0445,0.3372 1.7121,0.0585 2.0872,-0.2328 -0.0895,-0.4753 -0.5803,-1.0437 -1.6249,-1.381 -1.0445,-0.3372 -1.8675,-0.1075 -2.1491,0.1865z"/>
     <path id="feuille_18" fill="#78B43C" stroke="black" stroke-width="0.0762" d="M201.278 134.542c-0.4702,0.1843 -1.0836,0.6732 -1.4637,1.7603 -0.3801,1.0871 -0.1472,1.7791 0.1134,2.1673 0.4623,-0.0956 1.0356,-0.6087 1.4158,-1.6958 0.3801,-1.0871 0.2026,-1.9409 -0.0655,-2.2318z"/>
     <polyline id="petiolule1_19" fill="none" stroke="black" stroke-width="0.0762" points="197.151,134.626 199.117,137.611 200.094,140.514 "/>
     <line id="_76559144" fill="none" stroke="black" stroke-width="0.0762" x1="199.633" y1="139.194" x2="195.456" y2= "137.768" />
     <line id="_76841192" fill="none" stroke="black" stroke-width="0.0762" x1="199.63" y1="139.16" x2="201.182" y2= "134.797" />
    </g>
    <g id="foliole_x0020_2_x0020_bas">
     <path id="feuille_20" fill="#78B43C" stroke="black" stroke-width="0.0762" d="M195.023 144.749c0.0213,-0.481 0.2749,-1.1634 1.1447,-1.7601 0.8697,-0.5966 1.5709,-0.5319 2.0047,-0.3739 0.0568,0.4539 -0.2312,1.1042 -1.1009,1.7009 -0.8698,0.5966 -1.7008,0.6197 -2.0485,0.4331z"/>
     <path id="feuille_21" fill="#78B43C" stroke="black" stroke-width="0.0762" d="M194.516 141.149c0.3191,-0.3501 0.9548,-0.7109 2.0416,-0.6321 1.0867,0.0789 1.6207,0.5544 1.8771,0.9376 -0.2381,0.3772 -0.8819,0.6928 -1.9687,0.614 -1.0867,-0.0789 -1.7821,-0.5672 -1.95,-0.9195z"/>
     <path id="feuille_22" fill="#78B43C" stroke="black" stroke-width="0.0762" d="M199.232 146.072c-0.3801,-0.3247 -0.7952,-0.9619 -0.7977,-2.0314 -0.0025,-1.0694 0.4402,-1.5824 0.81,-1.8243 0.4015,0.2456 0.7712,0.8895 0.7738,1.9589 0.0025,1.0694 -0.4408,1.7412 -0.7861,1.8968z"/>
     <polyline id="petiolule1_23" fill="none" stroke="black" stroke-width="0.0762" points="195.398,144.541 198.207,142.668 200.064,140.516 "/>
     <line id="_66737944" fill="none" stroke="black" stroke-width="0.0762" x1="199.204" y1="141.489" x2="194.833" y2= "141.24" />
     <line id="_76841304" fill="none" stroke="black" stroke-width="0.0762" x1="199.189" y1="141.517" x2="199.225" y2= "145.819" />
    </g>
   </g>
   <g id="foliole_x0020_1_x0020_droite">
    <path id="feuille_24" fill="#78B43C" stroke="black" stroke-width="0.0762" d="M232.837 140.604c-0.0708,-0.49 -0.3896,-1.1733 -1.3019,-1.7365 -0.9124,-0.5632 -1.5915,-0.46 -1.9993,-0.2759 -0.0085,0.4664 0.3406,1.1151 1.253,1.6783 0.9124,0.5632 1.7275,0.5428 2.0482,0.3341z"/>
    <path id="feuille_25" fill="#78B43C" stroke="black" stroke-width="0.0762" d="M229.705 141.48c-0.0707,-0.4899 -0.3895,-1.1732 -1.3019,-1.7364 -0.9124,-0.5632 -1.5914,-0.4601 -1.9992,-0.276 -0.0085,0.4665 0.3406,1.1152 1.253,1.6784 0.9124,0.5632 1.7275,0.5428 2.0481,0.334z"/>
    <path id="feuille_26" fill="#78B43C" stroke="black" stroke-width="0.0762" d="M231.135 134.178c-0.3217,0.03 -1.1414,0.4069 -1.6667,1.3611 -0.5253,0.9543 -0.3966,1.674 -0.2094,2.091 0.4518,-0.0015 1.1119,-0.3502 1.6372,-1.3045 0.5253,-0.9542 0.448,-1.8211 0.2389,-2.1476z"/>
    <path id="feuille_27" fill="#78B43C" stroke="black" stroke-width="0.0762" d="M228.069 134.991c-0.3217,0.0299 -1.1414,0.4068 -1.6667,1.3611 -0.5253,0.9542 -0.3966,1.674 -0.2094,2.0909 0.4518,-0.0014 1.1119,-0.3502 1.6372,-1.3044 0.5253,-0.9543 0.4481,-1.8211 0.2389,-2.1476z"/>
    <path id="feuille_x0020_terminale_28" fill="#78B43C" stroke="black" stroke-width="0.0762" d="M234.397 136.786c-0.3856,-0.2946 -1.0791,-0.5448 -2.1098,-0.2763 -1.0307,0.2684 -1.44,0.8373 -1.6021,1.2653 0.3136,0.3359 1.0047,0.5394 2.0355,0.271 1.0307,-0.2684 1.5928,-0.8782 1.6764,-1.26z"/>
    <polygon id="petiolule_x0020_large_29" fill="#78B43C" stroke="black" stroke-width="0.0762" stroke-linejoin="bevel" points="233.861,136.869 210.637,143.212 "/>
    <line id="petiolule5_30" fill="none" stroke="black" stroke-width="0.0762" x1="231.04" y1="134.378" x2="228.946" y2= "138.226" />
    <line id="petiolule4_31" fill="none" stroke="black" stroke-width="0.0762" x1="227.94" y1="135.228" x2="225.846" y2= "139.076" />
    <line id="petiolule5_32" fill="none" stroke="black" stroke-width="0.0762" x1="232.631" y1="140.448" x2="228.933" y2= "138.234" />
    <line id="petiolule4_33" fill="none" stroke="black" stroke-width="0.0762" x1="229.525" y1="141.321" x2="225.827" y2= "139.107" />
    <g id="foliole_x0020_1_x0020_bas_34">
     <path id="feuille_35" fill="#78B43C" stroke="black" stroke-width="0.0762" d="M219.904 149.66c-0.0178,-0.495 -0.2613,-1.2106 -1.1076,-1.8747 -0.8464,-0.6641 -1.5323,-0.6393 -1.9573,-0.503 -0.0585,0.4626 0.2188,1.1473 1.0652,1.8114 0.8464,0.6641 1.6586,0.7371 1.9997,0.5663z"/>
     <path id="feuille_36" fill="#78B43C" stroke="black" stroke-width="0.0762" d="M220.422 145.995c-0.3097,-0.3783 -0.9288,-0.7865 -1.9917,-0.7701 -1.0628,0.0164 -1.5879,0.4729 -1.841,0.8509 0.2303,0.4013 0.8576,0.7636 1.9205,0.7472 1.0629,-0.0164 1.7457,-0.4763 1.9122,-0.828z"/>
     <path id="feuille_37" fill="#78B43C" stroke="black" stroke-width="0.0762" d="M218.834 143.928c-0.3097,-0.3783 -0.9288,-0.7865 -1.9917,-0.7701 -1.0629,0.0164 -1.5879,0.4729 -1.841,0.8509 0.2303,0.4014 0.8576,0.7636 1.9205,0.7472 1.0628,-0.0164 1.7457,-0.4763 1.9122,-0.828z"/>
     <path id="feuille_38" fill="#78B43C" stroke="black" stroke-width="0.0762" d="M215.781 150.768c0.3736,-0.3107 0.7834,-0.9401 0.7928,-2.0377 0.0094,-1.0976 -0.42,-1.6505 -0.78,-1.9207 -0.394,0.2282 -0.7596,0.8671 -0.769,1.9647 -0.0094,1.0976 0.4196,1.8135 0.7562,1.9937z"/>
     <path id="feuille_39" fill="#78B43C" stroke="black" stroke-width="0.0762" d="M214.193 148.807c0.3736,-0.3107 0.7834,-0.9401 0.7928,-2.0377 0.0094,-1.0976 -0.42,-1.6504 -0.78,-1.9207 -0.394,0.2282 -0.7596,0.8672 -0.769,1.9648 -0.0094,1.0976 0.4196,1.8135 0.7562,1.9936z"/>
     <polyline id="petiolule1_40" fill="none" stroke="black" stroke-width="0.0762" points="219.538,149.424 216.805,147.335 213.106,142.515 "/>
     <line id="_76909792" fill="none" stroke="black" stroke-width="0.0762" x1="214.24" y1="143.965" x2="218.515" y2= "143.968" />
     <line id="_76548800" fill="none" stroke="black" stroke-width="0.0762" x1="215.838" y1="146.065" x2="220.112" y2= "146.069" />
     <line id="_66914352" fill="none" stroke="black" stroke-width="0.0762" x1="214.219" y1="143.955" x2="214.156" y2= "148.368" />
     <line id="_76548416" fill="none" stroke="black" stroke-width="0.0762" x1="215.852" y1="146.095" x2="215.79" y2= "150.508" />
    </g>
    <g id="foliole_x0020_1_x0020_haut_41">
     <path id="feuille_42" fill="#78B43C" stroke="black" stroke-width="0.0762" d="M217.207 133.208c0.1452,0.4976 0.1489,1.2893 -0.4351,2.2305 -0.5839,0.9411 -1.2413,1.1446 -1.6884,1.1505 -0.2067,-0.44 -0.1682,-1.2123 0.4157,-2.1535 0.5839,-0.9411 1.3289,-1.2837 1.7078,-1.2275z"/>
     <path id="feuille_43" fill="#78B43C" stroke="black" stroke-width="0.0762" d="M218.897 136.676c-0.1694,0.4788 -0.6219,1.0901 -1.6335,1.4273 -1.0116,0.3372 -1.658,0.0585 -2.0213,-0.2328 0.0866,-0.4753 0.562,-1.0437 1.5735,-1.3809 1.0116,-0.3373 1.8086,-0.1076 2.0813,0.1864z"/>
     <path id="feuille_44" fill="#78B43C" stroke="black" stroke-width="0.0762" d="M218.07 139.258c-0.1693,0.4787 -0.6219,1.09 -1.6335,1.4273 -1.0116,0.3372 -1.658,0.0584 -2.0213,-0.2329 0.0866,-0.4752 0.562,-1.0437 1.5736,-1.3809 1.0115,-0.3372 1.8086,-0.1075 2.0812,0.1865z"/>
     <path id="feuille_45" fill="#78B43C" stroke="black" stroke-width="0.0762" d="M212.942 133.479c0.4554,0.1844 1.0494,0.6732 1.4175,1.7603 0.3681,1.0871 0.1425,1.7791 -0.1098,2.1673 -0.4478,-0.0956 -1.003,-0.6087 -1.3711,-1.6958 -0.3681,-1.0871 -0.1962,-1.9409 0.0634,-2.2318z"/>
     <path id="feuille_46" fill="#78B43C" stroke="black" stroke-width="0.0762" d="M212.08 135.955c0.4554,0.1843 1.0494,0.6732 1.4176,1.7603 0.3681,1.0871 0.1425,1.7791 -0.1099,2.1673 -0.4477,-0.0957 -1.0029,-0.6087 -1.3711,-1.6958 -0.3681,-1.0872 -0.1962,-1.9409 0.0634,-2.2318z"/>
     <polyline id="petiolule1_47" fill="none" stroke="black" stroke-width="0.0762" points="216.938,133.564 215.034,136.548 213.11,142.566 "/>
     <line id="_77254728" fill="none" stroke="black" stroke-width="0.0762" x1="213.709" y1="140.749" x2="217.755" y2= "139.323" />
     <line id="_77254640" fill="none" stroke="black" stroke-width="0.0762" x1="214.534" y1="138.131" x2="218.58" y2= "136.705" />
     <line id="_76839584" fill="none" stroke="black" stroke-width="0.0762" x1="213.692" y1="140.766" x2="212.189" y2= "136.403" />
     <line id="_76866008" fill="none" stroke="black" stroke-width="0.0762" x1="214.538" y1="138.097" x2="213.035" y2= "133.734" />
    </g>
    <g id="foliole_x0020_2_x0020_haut_48">
     <path id="feuille_49" fill="#78B43C" stroke="black" stroke-width="0.0762" d="M223.482 134.354c0.1452,0.4975 0.1489,1.2893 -0.435,2.2305 -0.5839,0.9411 -1.2414,1.1446 -1.6884,1.1505 -0.2068,-0.44 -0.1683,-1.2123 0.4156,-2.1535 0.5839,-0.9411 1.329,-1.2837 1.7078,-1.2275z"/>
     <path id="feuille_50" fill="#78B43C" stroke="black" stroke-width="0.0762" d="M225.173 137.823c-0.1694,0.4788 -0.622,1.0901 -1.6336,1.4273 -1.0115,0.3372 -1.658,0.0585 -2.0213,-0.2328 0.0867,-0.4753 0.562,-1.0437 1.5736,-1.3809 1.0116,-0.3373 1.8086,-0.1076 2.0813,0.1864z"/>
     <path id="feuille_51" fill="#78B43C" stroke="black" stroke-width="0.0762" d="M219.217 134.626c0.4554,0.1843 1.0494,0.6732 1.4175,1.7603 0.3682,1.0871 0.1425,1.7791 -0.1098,2.1673 -0.4477,-0.0956 -1.0029,-0.6087 -1.3711,-1.6958 -0.3681,-1.0871 -0.1962,-1.9409 0.0634,-2.2318z"/>
     <polyline id="petiolule1_52" fill="none" stroke="black" stroke-width="0.0762" points="223.213,134.711 221.31,137.695 220.364,140.598 "/>
     <line id="_76644776" fill="none" stroke="black" stroke-width="0.0762" x1="220.81" y1="139.278" x2="224.855" y2= "137.852" />
     <line id="_76578280" fill="none" stroke="black" stroke-width="0.0762" x1="220.813" y1="139.244" x2="219.31" y2= "134.881" />
    </g>
    <g id="foliole_x0020_2_x0020_bas_53">
     <path id="feuille_54" fill="#78B43C" stroke="black" stroke-width="0.0762" d="M225.275 144.834c-0.0207,-0.481 -0.2663,-1.1634 -1.1086,-1.7601 -0.8423,-0.5966 -1.5214,-0.5318 -1.9414,-0.3739 -0.0551,0.4539 0.2239,1.1042 1.0661,1.7009 0.8423,0.5966 1.6471,0.6197 1.9839,0.4331z"/>
     <path id="feuille_55" fill="#78B43C" stroke="black" stroke-width="0.0762" d="M225.765 141.233c-0.3091,-0.3501 -0.9247,-0.7109 -1.9772,-0.6321 -1.0524,0.0789 -1.5695,0.5545 -1.8178,0.9376 0.2306,0.3772 0.854,0.6928 1.9065,0.614 1.0524,-0.0789 1.7258,-0.5672 1.8885,-0.9195z"/>
     <path id="feuille_56" fill="#78B43C" stroke="black" stroke-width="0.0762" d="M221.199 146.156c0.368,-0.3247 0.77,-0.9619 0.7724,-2.0313 0.0025,-1.0695 -0.4262,-1.5825 -0.7844,-1.8244 -0.3888,0.2456 -0.7469,0.8895 -0.7493,1.9589 -0.0025,1.0694 0.4268,1.7412 0.7613,1.8968z"/>
     <polyline id="petiolule1_57" fill="none" stroke="black" stroke-width="0.0762" points="224.911,144.625 222.191,142.752 220.393,140.6 "/>
     <line id="_76418152" fill="none" stroke="black" stroke-width="0.0762" x1="221.226" y1="141.573" x2="225.459" y2= "141.324" />
     <line id="_77803896" fill="none" stroke="black" stroke-width="0.0762" x1="221.24" y1="141.601" x2="221.206" y2= "145.903" />
    </g>
   </g>
   <g id="foliole_x0020_2_x0020_gauche">
    <path id="feuille_58" fill="#78B43C" stroke="black" stroke-width="0.0762" d="M193.648 126.08c0.0731,-0.4899 0.4022,-1.1733 1.3444,-1.7365 0.9421,-0.5632 1.6433,-0.46 2.0644,-0.2759 0.0088,0.4664 -0.3517,1.1151 -1.2939,1.6783 -0.9421,0.5632 -1.7837,0.5429 -2.1149,0.3341z"/>
    <path id="feuille_59" fill="#78B43C" stroke="black" stroke-width="0.0762" d="M196.882 126.955c0.0731,-0.4899 0.4023,-1.1732 1.3444,-1.7364 0.9421,-0.5632 1.6433,-0.4601 2.0644,-0.276 0.0088,0.4665 -0.3517,1.1152 -1.2938,1.6784 -0.9422,0.5632 -1.7838,0.5428 -2.115,0.334z"/>
    <path id="feuille_60" fill="#78B43C" stroke="black" stroke-width="0.0762" d="M195.406 119.654c0.3322,0.0299 1.1786,0.4068 1.721,1.361 0.5425,0.9543 0.4095,1.674 0.2162,2.091 -0.4665,-0.0015 -1.1481,-0.3502 -1.6905,-1.3045 -0.5424,-0.9542 -0.4627,-1.8211 -0.2467,-2.1475z"/>
    <path id="feuille_61" fill="#78B43C" stroke="black" stroke-width="0.0762" d="M198.572 120.466c0.3323,0.0299 1.1787,0.4069 1.7211,1.3611 0.5424,0.9543 0.4095,1.674 0.2162,2.0909 -0.4665,-0.0014 -1.1481,-0.3501 -1.6905,-1.3044 -0.5425,-0.9542 -0.4627,-1.8211 -0.2468,-2.1476z"/>
    <path id="feuille_x0020_terminale_62" fill="#78B43C" stroke="black" stroke-width="0.0762" d="M192.037 122.261c0.3982,-0.2946 1.1143,-0.5447 2.1786,-0.2763 1.0643,0.2684 1.4869,0.8373 1.6543,1.2653 -0.3237,0.3359 -1.0374,0.5394 -2.1018,0.271 -1.0643,-0.2684 -1.6447,-0.8782 -1.7311,-1.26z"/>
    <polygon id="petiolule_x0020_large_63" fill="#78B43C" stroke="black" stroke-width="0.0762" stroke-linejoin="bevel" points="192.591,122.345 210.262,127.01 "/>
    <line id="petiolule5_64" fill="none" stroke="black" stroke-width="0.0762" x1="195.504" y1="119.853" x2="197.666" y2= "123.701" />
    <line id="petiolule4_65" fill="none" stroke="black" stroke-width="0.0762" x1="198.705" y1="120.704" x2="200.867" y2= "124.552" />
    <line id="petiolule5_66" fill="none" stroke="black" stroke-width="0.0762" x1="193.861" y1="125.924" x2="197.679" y2= "123.709" />
    <line id="petiolule4_67" fill="none" stroke="black" stroke-width="0.0762" x1="197.068" y1="126.797" x2="200.887" y2= "124.582" />
    <g id="foliole_x0020_2_x0020_haut_68">
     <path id="feuille_69" fill="#78B43C" stroke="black" stroke-width="0.0762" d="M203.308 119.83c-0.1499,0.4976 -0.1538,1.2893 0.4492,2.2305 0.6029,0.9411 1.2819,1.1446 1.7434,1.1505 0.2135,-0.44 0.1738,-1.2123 -0.4292,-2.1534 -0.6029,-0.9412 -1.3722,-1.2838 -1.7634,-1.2276z"/>
     <path id="feuille_70" fill="#78B43C" stroke="black" stroke-width="0.0762" d="M201.562 123.299c0.1749,0.4788 0.6422,1.0901 1.6868,1.4273 1.0446,0.3373 1.7121,0.0585 2.0873,-0.2328 -0.0895,-0.4753 -0.5804,-1.0437 -1.6249,-1.3809 -1.0446,-0.3372 -1.8676,-0.1076 -2.1492,0.1864z"/>
     <path id="feuille_71" fill="#78B43C" stroke="black" stroke-width="0.0762" d="M207.712 120.101c-0.4702,0.1844 -1.0836,0.6732 -1.4637,1.7603 -0.3801,1.0871 -0.1472,1.7791 0.1134,2.1673 0.4623,-0.0956 1.0357,-0.6087 1.4158,-1.6958 0.3801,-1.0871 0.2026,-1.9409 -0.0655,-2.2318z"/>
     <polyline id="petiolule1_72" fill="none" stroke="black" stroke-width="0.0762" points="203.586,120.186 205.551,123.171 206.528,126.074 "/>
     <line id="_67102408" fill="none" stroke="black" stroke-width="0.0762" x1="206.068" y1="124.753" x2="201.89" y2= "123.328" />
     <line id="_77014072" fill="none" stroke="black" stroke-width="0.0762" x1="206.064" y1="124.719" x2="207.616" y2= "120.356" />
    </g>
    <g id="foliole_x0020_2_x0020_bas_73">
     <path id="feuille_74" fill="#78B43C" stroke="black" stroke-width="0.0762" d="M201.457 130.309c0.0213,-0.481 0.2749,-1.1635 1.1447,-1.7602 0.8697,-0.5966 1.571,-0.5318 2.0047,-0.3739 0.0569,0.4539 -0.2312,1.1043 -1.1009,1.7009 -0.8698,0.5967 -1.7008,0.6197 -2.0485,0.4332z"/>
     <path id="feuille_75" fill="#78B43C" stroke="black" stroke-width="0.0762" d="M200.951 126.709c0.3191,-0.3501 0.9548,-0.7109 2.0416,-0.6321 1.0868,0.0789 1.6207,0.5545 1.8771,0.9376 -0.2381,0.3772 -0.8819,0.6928 -1.9687,0.614 -1.0867,-0.0789 -1.7821,-0.5672 -1.95,-0.9195z"/>
     <path id="feuille_76" fill="#78B43C" stroke="black" stroke-width="0.0762" d="M205.666 131.631c-0.3801,-0.3247 -0.7951,-0.9619 -0.7977,-2.0313 -0.0025,-1.0695 0.4402,-1.5824 0.81,-1.8243 0.4015,0.2455 0.7712,0.8894 0.7738,1.9588 0.0025,1.0695 -0.4408,1.7412 -0.7861,1.8968z"/>
     <polyline id="petiolule1_77" fill="none" stroke="black" stroke-width="0.0762" points="201.832,130.101 204.641,128.228 206.498,126.076 "/>
     <line id="_66515408" fill="none" stroke="black" stroke-width="0.0762" x1="205.638" y1="127.049" x2="201.267" y2= "126.799" />
     <line id="_76415128" fill="none" stroke="black" stroke-width="0.0762" x1="205.624" y1="127.077" x2="205.659" y2= "131.378" />
    </g>
   </g>
   <g id="foliole_x0020_2_x0020_droite">
    <path id="feuille_78" fill="#78B43C" stroke="black" stroke-width="0.0762" d="M226.558 126.08c-0.0701,-0.4899 -0.3862,-1.1733 -1.291,-1.7365 -0.9048,-0.5632 -1.5782,-0.46 -1.9826,-0.2759 -0.0085,0.4664 0.3377,1.1151 1.2425,1.6783 0.9048,0.5632 1.7131,0.5429 2.0311,0.3341z"/>
    <path id="feuille_79" fill="#78B43C" stroke="black" stroke-width="0.0762" d="M223.452 126.955c-0.0702,-0.4899 -0.3863,-1.1732 -1.2911,-1.7364 -0.9048,-0.5632 -1.5782,-0.4601 -1.9826,-0.276 -0.0084,0.4665 0.3378,1.1152 1.2426,1.6784 0.9048,0.5632 1.7131,0.5428 2.0311,0.334z"/>
    <path id="feuille_80" fill="#78B43C" stroke="black" stroke-width="0.0762" d="M224.87 119.654c-0.319,0.0299 -1.1319,0.4068 -1.6528,1.361 -0.5209,0.9543 -0.3933,1.674 -0.2076,2.091 0.448,-0.0015 1.1026,-0.3502 1.6235,-1.3045 0.5209,-0.9542 0.4443,-1.8211 0.2369,-2.1475z"/>
    <path id="feuille_81" fill="#78B43C" stroke="black" stroke-width="0.0762" d="M221.829 120.466c-0.3191,0.0299 -1.132,0.4069 -1.6529,1.3611 -0.5209,0.9543 -0.3932,1.674 -0.2076,2.0909 0.448,-0.0014 1.1026,-0.3501 1.6235,-1.3044 0.5209,-0.9542 0.4444,-1.8211 0.237,-2.1476z"/>
    <path id="feuille_x0020_terminale_82" fill="#78B43C" stroke="black" stroke-width="0.0762" d="M228.105 122.261c-0.3824,-0.2946 -1.0701,-0.5447 -2.0922,-0.2763 -1.0222,0.2684 -1.428,0.8373 -1.5888,1.2653 0.3109,0.3359 0.9964,0.5394 2.0185,0.271 1.0221,-0.2684 1.5796,-0.8782 1.6625,-1.26z"/>
    <polygon id="petiolule_x0020_large_83" fill="#78B43C" stroke="black" stroke-width="0.0762" stroke-linejoin="bevel" points="227.573,122.345 210.557,127.109 "/>
    <line id="petiolule5_84" fill="none" stroke="black" stroke-width="0.0762" x1="224.776" y1="119.853" x2="222.699" y2= "123.701" />
    <line id="petiolule4_85" fill="none" stroke="black" stroke-width="0.0762" x1="221.702" y1="120.704" x2="219.625" y2= "124.552" />
    <line id="petiolule5_86" fill="none" stroke="black" stroke-width="0.0762" x1="226.353" y1="125.924" x2="222.686" y2= "123.709" />
    <line id="petiolule4_87" fill="none" stroke="black" stroke-width="0.0762" x1="223.273" y1="126.797" x2="219.606" y2= "124.582" />
    <g id="foliole_x0020_2_x0020_haut_88">
     <path id="feuille_89" fill="#78B43C" stroke="black" stroke-width="0.0762" d="M217.281 119.83c0.144,0.4976 0.1477,1.2893 -0.4314,2.2305 -0.579,0.9411 -1.231,1.1446 -1.6743,1.1505 -0.2051,-0.44 -0.1669,-1.2123 0.4122,-2.1534 0.579,-0.9412 1.3179,-1.2838 1.6935,-1.2276z"/>
     <path id="feuille_90" fill="#78B43C" stroke="black" stroke-width="0.0762" d="M218.957 123.299c-0.168,0.4788 -0.6167,1.0901 -1.6199,1.4273 -1.0032,0.3373 -1.6442,0.0585 -2.0045,-0.2328 0.0859,-0.4753 0.5573,-1.0437 1.5604,-1.3809 1.0032,-0.3372 1.7936,-0.1076 2.064,0.1864z"/>
     <path id="feuille_91" fill="#78B43C" stroke="black" stroke-width="0.0762" d="M213.051 120.101c0.4515,0.1844 1.0406,0.6732 1.4057,1.7603 0.365,1.0871 0.1413,1.7791 -0.109,2.1673 -0.444,-0.0956 -0.9946,-0.6087 -1.3596,-1.6958 -0.3651,-1.0871 -0.1946,-1.9409 0.0629,-2.2318z"/>
     <polyline id="petiolule1_92" fill="none" stroke="black" stroke-width="0.0762" points="217.014,120.186 215.126,123.171 214.188,126.074 "/>
     <line id="_78032768" fill="none" stroke="black" stroke-width="0.0762" x1="214.63" y1="124.753" x2="218.642" y2= "123.328" />
     <line id="_78032728" fill="none" stroke="black" stroke-width="0.0762" x1="214.634" y1="124.719" x2="213.143" y2= "120.356" />
    </g>
    <g id="foliole_x0020_2_x0020_bas_93">
     <path id="feuille_94" fill="#78B43C" stroke="black" stroke-width="0.0762" d="M219.059 130.309c-0.0206,-0.481 -0.2641,-1.1635 -1.0994,-1.7602 -0.8352,-0.5966 -1.5087,-0.5318 -1.9253,-0.3739 -0.0545,0.4539 0.2221,1.1043 1.0574,1.7009 0.8352,0.5967 1.6333,0.6197 1.9673,0.4332z"/>
     <path id="feuille_95" fill="#78B43C" stroke="black" stroke-width="0.0762" d="M219.545 126.709c-0.3065,-0.3501 -0.917,-0.7109 -1.9607,-0.6321 -1.0437,0.0789 -1.5565,0.5545 -1.8027,0.9376 0.2286,0.3772 0.8469,0.6928 1.8906,0.614 1.0437,-0.0789 1.7115,-0.5672 1.8728,-0.9195z"/>
     <path id="feuille_96" fill="#78B43C" stroke="black" stroke-width="0.0762" d="M215.017 131.631c0.3649,-0.3247 0.7636,-0.9619 0.766,-2.0313 0.0025,-1.0695 -0.4227,-1.5824 -0.7779,-1.8243 -0.3855,0.2455 -0.7406,0.8894 -0.7431,1.9588 -0.0024,1.0695 0.4233,1.7412 0.755,1.8968z"/>
     <polyline id="petiolule1_97" fill="none" stroke="black" stroke-width="0.0762" points="218.698,130.101 216.001,128.228 214.217,126.076 "/>
     <line id="_77733136" fill="none" stroke="black" stroke-width="0.0762" x1="215.043" y1="127.049" x2="219.241" y2= "126.799" />
     <line id="_66258536" fill="none" stroke="black" stroke-width="0.0762" x1="215.057" y1="127.077" x2="215.023" y2= "131.378" />
    </g>
   </g>
   <g id="foliole_x0020_2_x0020_gauche_98">
    <path id="feuille_99" fill="#78B43C" stroke="black" stroke-width="0.0762" d="M200.73 117.512c0.0731,-0.4899 0.4022,-1.1732 1.3443,-1.7364 0.9422,-0.5632 1.6433,-0.4601 2.0644,-0.276 0.0088,0.4665 -0.3517,1.1152 -1.2938,1.6784 -0.9422,0.5632 -1.7838,0.5428 -2.1149,0.334z"/>
    <path id="feuille_100" fill="#78B43C" stroke="black" stroke-width="0.0762" d="M203.964 118.388c0.0731,-0.4899 0.4022,-1.1733 1.3444,-1.7365 0.9421,-0.5632 1.6433,-0.46 2.0644,-0.2759 0.0087,0.4664 -0.3517,1.1151 -1.2939,1.6783 -0.9421,0.5632 -1.7838,0.5429 -2.1149,0.3341z"/>
    <path id="feuille_101" fill="#78B43C" stroke="black" stroke-width="0.0762" d="M202.488 111.086c0.3322,0.0299 1.1786,0.4068 1.721,1.3611 0.5424,0.9542 0.4095,1.674 0.2162,2.0909 -0.4665,-0.0014 -1.1481,-0.3501 -1.6905,-1.3044 -0.5425,-0.9543 -0.4627,-1.8211 -0.2467,-2.1476z"/>
    <path id="feuille_102" fill="#78B43C" stroke="black" stroke-width="0.0762" d="M205.654 111.899c0.3322,0.0299 1.1786,0.4068 1.7211,1.3611 0.5424,0.9542 0.4094,1.6739 0.2162,2.0909 -0.4666,-0.0014 -1.1481,-0.3502 -1.6906,-1.3044 -0.5424,-0.9543 -0.4627,-1.8211 -0.2467,-2.1476z"/>
    <path id="feuille_x0020_terminale_103" fill="#78B43C" stroke="black" stroke-width="0.0762" d="M199.12 113.694c0.3982,-0.2945 1.1142,-0.5447 2.1786,-0.2763 1.0643,0.2685 1.4869,0.8374 1.6543,1.2654 -0.3238,0.3359 -1.0375,0.5394 -2.1018,0.2709 -1.0643,-0.2684 -1.6448,-0.8782 -1.7311,-1.26z"/>
    <polygon id="petiolule_x0020_large_104" fill="#78B43C" stroke="black" stroke-width="0.0762" stroke-linejoin="bevel" points="199.673,113.777 210.293,116.616 "/>
    <line id="petiolule5_105" fill="none" stroke="black" stroke-width="0.0762" x1="202.586" y1="111.286" x2="204.748" y2= "115.134" />
    <line id="petiolule4_106" fill="none" stroke="black" stroke-width="0.0762" x1="205.787" y1="112.136" x2="207.949" y2= "115.984" />
    <line id="petiolule5_107" fill="none" stroke="black" stroke-width="0.0762" x1="200.944" y1="117.356" x2="204.762" y2= "115.142" />
    <line id="petiolule4_108" fill="none" stroke="black" stroke-width="0.0762" x1="204.151" y1="118.229" x2="207.969" y2= "116.015" />
   </g>
   <g id="foliole_x0020_2_x0020_gauche_109">
    <path id="feuille_110" fill="#78B43C" stroke="black" stroke-width="0.0762" d="M219.935 117.557c-0.0719,-0.4899 -0.396,-1.1733 -1.3236,-1.7365 -0.9276,-0.5632 -1.618,-0.46 -2.0326,-0.2759 -0.0086,0.4664 0.3463,1.1152 1.2739,1.6783 0.9276,0.5632 1.7563,0.5429 2.0823,0.3341z"/>
    <path id="feuille_111" fill="#78B43C" stroke="black" stroke-width="0.0762" d="M216.751 118.433c-0.0719,-0.49 -0.396,-1.1733 -1.3236,-1.7365 -0.9276,-0.5632 -1.618,-0.46 -2.0326,-0.2759 -0.0086,0.4664 0.3463,1.1151 1.2739,1.6783 0.9276,0.5632 1.7563,0.5428 2.0823,0.3341z"/>
    <path id="feuille_112" fill="#78B43C" stroke="black" stroke-width="0.0762" d="M218.204 111.131c-0.3271,0.0299 -1.1604,0.4068 -1.6945,1.3611 -0.534,0.9542 -0.4032,1.6739 -0.2129,2.0909 0.4594,-0.0014 1.1305,-0.3502 1.6645,-1.3044 0.5341,-0.9543 0.4556,-1.8211 0.2429,-2.1476z"/>
    <path id="feuille_113" fill="#78B43C" stroke="black" stroke-width="0.0762" d="M215.087 111.944c-0.3271,0.03 -1.1605,0.4069 -1.6946,1.3611 -0.534,0.9543 -0.4031,1.674 -0.2128,2.091 0.4593,-0.0015 1.1304,-0.3502 1.6645,-1.3045 0.534,-0.9542 0.4555,-1.8211 0.2429,-2.1476z"/>
    <path id="feuille_x0020_terminale_114" fill="#78B43C" stroke="black" stroke-width="0.0762" d="M221.521 113.739c-0.3921,-0.2946 -1.0971,-0.5447 -2.145,-0.2763 -1.0479,0.2684 -1.464,0.8373 -1.6288,1.2654 0.3187,0.3358 1.0214,0.5393 2.0694,0.2709 1.0479,-0.2684 1.6194,-0.8782 1.7044,-1.26z"/>
    <polygon id="petiolule_x0020_large_115" fill="#78B43C" stroke="black" stroke-width="0.0762" stroke-linejoin="bevel" points="220.976,113.822 210.476,116.687 "/>
    <line id="petiolule5_116" fill="none" stroke="black" stroke-width="0.0762" x1="218.108" y1="111.331" x2="215.979" y2= "115.179" />
    <line id="petiolule4_117" fill="none" stroke="black" stroke-width="0.0762" x1="214.956" y1="112.181" x2="212.827" y2= "116.029" />
    <line id="petiolule5_118" fill="none" stroke="black" stroke-width="0.0762" x1="219.725" y1="117.401" x2="215.966" y2= "115.187" />
    <line id="petiolule4_119" fill="none" stroke="black" stroke-width="0.0762" x1="216.567" y1="118.274" x2="212.808" y2= "116.06" />
   </g>
   <g id="folioles_x0020_terminales">
    <path id="feuille_x0020_terminale_120" fill="#78B43C" stroke="black" stroke-width="0.0762" d="M215.55 109.489c-0.4356,-0.3272 -1.2189,-0.6051 -2.3831,-0.3069 -1.1642,0.2982 -1.6265,0.9303 -1.8096,1.4058 0.3541,0.3731 1.1348,0.5992 2.2991,0.301 1.1642,-0.2982 1.7991,-0.9757 1.8936,-1.3999z"/>
    <path id="feuille_x0020_terminale_121" fill="#78B43C" stroke="black" stroke-width="0.0762" d="M215.151 107.062c-0.4045,-0.3039 -1.1318,-0.562 -2.2128,-0.2851 -1.0811,0.2769 -1.5103,0.8638 -1.6804,1.3054 0.3289,0.3465 1.0538,0.5564 2.1349,0.2795 1.081,-0.2769 1.6706,-0.9059 1.7583,-1.2998z"/>
    <path id="feuille_x0020_terminale_122" fill="#78B43C" stroke="black" stroke-width="0.0762" d="M214.751 104.835c-0.3734,-0.2806 -1.0447,-0.5188 -2.0426,-0.2632 -0.9979,0.2557 -1.3942,0.7974 -1.5511,1.205 0.3036,0.3198 0.9727,0.5136 1.9706,0.258 0.9979,-0.2556 1.5421,-0.8363 1.6231,-1.1998z"/>
    <path id="feuille_x0020_terminale_123" fill="#78B43C" stroke="black" stroke-width="0.0762" d="M210.418 99.9796c-0.4302,0.3725 -0.9039,1.1285 -0.9215,2.4498 -0.0176,1.3213 0.4712,1.9886 0.8822,2.3155 0.4531,-0.273 0.8761,-1.0407 0.8937,-2.362 0.0176,-1.3213 -0.4697,-2.1849 -0.8544,-2.4033z"/>
    <path id="feuille_x0020_terminale_124" fill="#78B43C" stroke="black" stroke-width="0.0762" d="M205.203 109.936c0.4082,-0.3604 1.1667,-0.6989 2.3498,-0.4928 1.1831,0.2061 1.6931,0.8 1.9128,1.2597 -0.3235,0.3997 -1.0834,0.6863 -2.2665,0.4802 -1.1832,-0.206 -1.8688,-0.8317 -1.9961,-1.2471z"/>
    <path id="feuille_x0020_terminale_125" fill="#78B43C" stroke="black" stroke-width="0.0762" d="M205.687 107.617c0.3503,-0.3476 1.0141,-0.6863 2.0787,-0.5338 1.0646,0.1524 1.5435,0.6866 1.7579,1.1058 -0.2731,0.3814 -0.9403,0.672 -2.0049,0.5195 -1.0646,-0.1525 -1.7016,-0.7103 -1.8317,-1.0915z"/>
    <path id="feuille_x0020_terminale_126" fill="#78B43C" stroke="black" stroke-width="0.0762" d="M205.954 105.032c0.3642,-0.2956 1.03,-0.5611 2.0444,-0.3467 1.0145,0.2144 1.4353,0.7395 1.6098,1.1403 -0.2924,0.332 -0.9578,0.5531 -1.9722,0.3387 -1.0145,-0.2145 -1.5857,-0.7723 -1.682,-1.1323z"/>
    <line id="_76931808" fill="none" stroke="black" stroke-width="0.0762" x1="210.414" y1="110.84" x2="215.122" y2= "109.615" />
    <line id="_66460392" fill="none" stroke="black" stroke-width="0.0762" x1="210.413" y1="108.34" x2="214.669" y2= "107.26" />
    <line id="_76568728" fill="none" stroke="black" stroke-width="0.0762" x1="210.421" y1="105.991" x2="214.376" y2= "104.959" />
    <line id="_65722688" fill="none" stroke="black" stroke-width="0.0762" x1="205.591" y1="110.052" x2="210.314" y2= "110.813" />
    <line id="_66881680" fill="none" stroke="black" stroke-width="0.0762" x1="206.078" y1="107.702" x2="210.377" y2= "108.333" />
    <line id="_76634984" fill="none" stroke="black" stroke-width="0.0762" x1="210.37" y1="105.968" x2="206.357" y2= "105.228" />
    <line id="_76639560" fill="none" stroke="black" stroke-width="0.0762" x1="210.39" y1="105.193" x2="210.382" y2= "100.46" />
   </g>
   <path id="pétiole" fill="#78B43C" stroke="black" stroke-width="0.0762" d="M209.721 161.898c0.14,0.1057 1.0565,0.1947 1.3146,0.1783l-0.3391 -2.5488 0 -27.1961 -0.3107 -29.5054c-0.3983,9.6763 -0.3079,47.6362 -0.3079,56.7017 0,0.828 -0.1429,1.5785 -0.3569,2.3703z"/>
  </g>
  <g id="F_Bip" onclick="parent.replacechar('F_Bip')" onmousemove="parent.showtooltip('F_Bip', 'Bipinnate')" onmouseout="parent.hidetooltip('F_Bip')" cursor="pointer" >
   <g id="rameau_x0020_gauche1">
    <polygon id="petiolule" fill="#78B43C" stroke="black" stroke-width="0.0762" stroke-linejoin="bevel" points="131.25,101.488 149.97,120.297 "/>
    <g>
     <ellipse id="_27661104" fill="#78B43C" stroke="black" stroke-width="0.0762" cx="131.293" cy="98.6134" rx="0.782299" ry="2.13511"/>
     <line id="_76955832" fill="none" stroke="black" stroke-width="0.0762" x1="131.328" y1="96.7785" x2="131.259" y2= "101.507" />
    </g>
    <g>
     <ellipse id="_66299040" fill="#78B43C" stroke="black" stroke-width="0.0762" cx="133.78" cy="101.087" rx="0.782299" ry="2.13511"/>
     <line id="_76916448" fill="none" stroke="black" stroke-width="0.0762" x1="133.815" y1="99.2523" x2="133.746" y2= "103.981" />
    </g>
    <g>
     <ellipse id="_66519912" fill="#78B43C" stroke="black" stroke-width="0.0762" cx="136.351" cy="103.706" rx="0.782299" ry="2.13511"/>
     <line id="_66914984" fill="none" stroke="black" stroke-width="0.0762" x1="136.386" y1="101.871" x2="136.317" y2= "106.599" />
    </g>
    <g>
     <ellipse id="_77384864" fill="#78B43C" stroke="black" stroke-width="0.0762" cx="138.575" cy="105.911" rx="0.782299" ry="2.13511"/>
     <line id="_76520528" fill="none" stroke="black" stroke-width="0.0762" x1="138.61" y1="104.076" x2="138.541" y2= "108.805" />
    </g>
    <g>
     <ellipse id="_66419296" fill="#78B43C" stroke="black" stroke-width="0.0762" cx="141.082" cy="108.423" rx="0.782299" ry="2.13511"/>
     <line id="_66396256" fill="none" stroke="black" stroke-width="0.0762" x1="141.117" y1="106.588" x2="141.048" y2= "111.316" />
    </g>
    <g>
     <ellipse id="_27681424" fill="#78B43C" stroke="black" stroke-width="0.0762" cx="143.415" cy="110.825" rx="0.782299" ry="2.13511"/>
     <line id="_65905776" fill="none" stroke="black" stroke-width="0.0762" x1="143.45" y1="108.99" x2="143.381" y2= "113.719" />
    </g>
    <g>
     <ellipse id="_76504296" fill="#78B43C" stroke="black" stroke-width="0.0762" cx="145.922" cy="113.314" rx="0.782299" ry="2.13511"/>
     <line id="_76715064" fill="none" stroke="black" stroke-width="0.0762" x1="145.957" y1="111.48" x2="145.888" y2= "116.208" />
    </g>
    <g>
     <ellipse id="_63375256" fill="#78B43C" stroke="black" stroke-width="0.0762" cx="147.972" cy="115.367" rx="0.782299" ry="2.13511"/>
     <line id="_67105704" fill="none" stroke="black" stroke-width="0.0762" x1="148.006" y1="113.532" x2="147.938" y2= "118.261" />
    </g>
    <g>
     <ellipse id="_66470592" fill="#78B43C" stroke="black" stroke-width="0.0762" transform="matrix(-0.013666 -1.00067 1.10491 -0.0150895 128.371 101.513)" rx="0.7817" ry="1.9322"/>
     <line id="_66748120" fill="none" stroke="black" stroke-width="0.0762" x1="126.536" y1="101.503" x2="131.265" y2= "101.507" />
    </g>
    <g>
     <ellipse id="_66821936" fill="#78B43C" stroke="black" stroke-width="0.0762" transform="matrix(-0.013666 -1.00067 1.10491 -0.0150895 130.862 104.005)" rx="0.7817" ry="1.9322"/>
     <line id="_66368752" fill="none" stroke="black" stroke-width="0.0762" x1="129.027" y1="103.995" x2="133.756" y2= "103.999" />
    </g>
    <g>
     <ellipse id="_66740992" fill="#78B43C" stroke="black" stroke-width="0.0762" transform="matrix(-0.013666 -1.00067 1.10491 -0.0150895 133.411 106.594)" rx="0.7817" ry="1.9322"/>
     <line id="_66446216" fill="none" stroke="black" stroke-width="0.0762" x1="131.576" y1="106.584" x2="136.305" y2= "106.588" />
    </g>
    <g>
     <ellipse id="_66357600" fill="#78B43C" stroke="black" stroke-width="0.0762" transform="matrix(-0.013666 -1.00067 1.10491 -0.0150895 135.655 108.825)" rx="0.7817" ry="1.9322"/>
     <line id="_27658608" fill="none" stroke="black" stroke-width="0.0762" x1="133.82" y1="108.815" x2="138.549" y2= "108.82" />
    </g>
    <g>
     <ellipse id="_66744832" fill="#78B43C" stroke="black" stroke-width="0.0762" transform="matrix(-0.013666 -1.00067 1.10491 -0.0150895 138.156 111.361)" rx="0.7817" ry="1.9322"/>
     <line id="_66461504" fill="none" stroke="black" stroke-width="0.0762" x1="136.321" y1="111.351" x2="141.05" y2= "111.355" />
    </g>
    <g>
     <ellipse id="_27577000" fill="#78B43C" stroke="black" stroke-width="0.0762" transform="matrix(-0.013666 -1.00067 1.10491 -0.0150895 140.487 113.699)" rx="0.7817" ry="1.9322"/>
     <line id="_76845112" fill="none" stroke="black" stroke-width="0.0762" x1="138.652" y1="113.689" x2="143.381" y2= "113.693" />
    </g>
    <g>
     <ellipse id="_76537352" fill="#78B43C" stroke="black" stroke-width="0.0762" transform="matrix(-0.013666 -1.00067 1.10491 -0.0150895 142.998 116.2)" rx="0.7817" ry="1.9322"/>
     <line id="_76537288" fill="none" stroke="black" stroke-width="0.0762" x1="141.163" y1="116.191" x2="145.892" y2= "116.195" />
    </g>
    <g>
     <ellipse id="_76436368" fill="#78B43C" stroke="black" stroke-width="0.0762" transform="matrix(-0.013666 -1.00067 1.10491 -0.0150895 145.019 118.263)" rx="0.7817" ry="1.9322"/>
     <line id="_66385504" fill="none" stroke="black" stroke-width="0.0762" x1="143.184" y1="118.253" x2="147.913" y2= "118.257" />
    </g>
   </g>
   <g id="rameau_x0020_droite1">
    <polygon id="petiolule_127" fill="#78B43C" stroke="black" stroke-width="0.0762" stroke-linejoin="bevel" points="168.747,101.322 149.982,120.19 "/>
    <g>
     <ellipse id="_76887784" fill="#78B43C" stroke="black" stroke-width="0.0762" cx="168.707" cy="98.4443" rx="0.782299" ry="2.13511"/>
     <line id="_76684896" fill="none" stroke="black" stroke-width="0.0762" x1="168.673" y1="96.6094" x2="168.741" y2= "101.338" />
    </g>
    <g>
     <ellipse id="_77216960" fill="#78B43C" stroke="black" stroke-width="0.0762" cx="166.22" cy="100.918" rx="0.782299" ry="2.13511"/>
     <line id="_66458624" fill="none" stroke="black" stroke-width="0.0762" x1="166.186" y1="99.0832" x2="166.254" y2= "103.812" />
    </g>
    <g>
     <ellipse id="_66490160" fill="#78B43C" stroke="black" stroke-width="0.0762" cx="163.649" cy="103.537" rx="0.782299" ry="2.13511"/>
     <line id="_65729744" fill="none" stroke="black" stroke-width="0.0762" x1="163.614" y1="101.702" x2="163.683" y2= "106.43" />
    </g>
    <g>
     <ellipse id="_77194344" fill="#78B43C" stroke="black" stroke-width="0.0762" cx="161.425" cy="105.742" rx="0.782299" ry="2.13511"/>
     <line id="_76456832" fill="none" stroke="black" stroke-width="0.0762" x1="161.391" y1="103.907" x2="161.459" y2= "108.636" />
    </g>
    <g>
     <ellipse id="_77330672" fill="#78B43C" stroke="black" stroke-width="0.0762" cx="158.918" cy="108.254" rx="0.782299" ry="2.13511"/>
     <line id="_66364904" fill="none" stroke="black" stroke-width="0.0762" x1="158.883" y1="106.419" x2="158.952" y2= "111.147" />
    </g>
    <g>
     <ellipse id="_65752576" fill="#78B43C" stroke="black" stroke-width="0.0762" cx="156.585" cy="110.656" rx="0.782299" ry="2.13511"/>
     <line id="_77333480" fill="none" stroke="black" stroke-width="0.0762" x1="156.55" y1="108.821" x2="156.619" y2= "113.549" />
    </g>
    <g>
     <ellipse id="_65740624" fill="#78B43C" stroke="black" stroke-width="0.0762" cx="154.078" cy="113.145" rx="0.782299" ry="2.13511"/>
     <line id="_27669328" fill="none" stroke="black" stroke-width="0.0762" x1="154.043" y1="111.311" x2="154.112" y2= "116.039" />
    </g>
    <g>
     <ellipse id="_76569040" fill="#78B43C" stroke="black" stroke-width="0.0762" cx="152.029" cy="115.198" rx="0.782299" ry="2.13511"/>
     <line id="_77181800" fill="none" stroke="black" stroke-width="0.0762" x1="151.994" y1="113.363" x2="152.063" y2= "118.092" />
    </g>
    <g>
     <ellipse id="_77767112" fill="#78B43C" stroke="black" stroke-width="0.0762" transform="matrix(0.013666 -1.00067 -1.10491 -0.0150895 171.629 101.344)" rx="0.7817" ry="1.9322"/>
     <line id="_76537072" fill="none" stroke="black" stroke-width="0.0762" x1="173.464" y1="101.334" x2="168.735" y2= "101.338" />
    </g>
    <g>
     <ellipse id="_77610624" fill="#78B43C" stroke="black" stroke-width="0.0762" transform="matrix(0.013666 -1.00067 -1.10491 -0.0150895 169.138 103.836)" rx="0.7817" ry="1.9322"/>
     <line id="_76510936" fill="none" stroke="black" stroke-width="0.0762" x1="170.973" y1="103.826" x2="166.244" y2= "103.83" />
    </g>
    <g>
     <ellipse id="_76437432" fill="#78B43C" stroke="black" stroke-width="0.0762" transform="matrix(0.013666 -1.00067 -1.10491 -0.0150895 166.589 106.425)" rx="0.7817" ry="1.9322"/>
     <line id="_76444240" fill="none" stroke="black" stroke-width="0.0762" x1="168.424" y1="106.415" x2="163.695" y2= "106.419" />
    </g>
    <g>
     <ellipse id="_77812736" fill="#78B43C" stroke="black" stroke-width="0.0762" transform="matrix(0.013666 -1.00067 -1.10491 -0.0150895 164.345 108.656)" rx="0.7817" ry="1.9322"/>
     <line id="_67227512" fill="none" stroke="black" stroke-width="0.0762" x1="166.18" y1="108.646" x2="161.451" y2= "108.65" />
    </g>
    <g>
     <ellipse id="_77220608" fill="#78B43C" stroke="black" stroke-width="0.0762" transform="matrix(0.013666 -1.00067 -1.10491 -0.0150895 161.844 111.191)" rx="0.7817" ry="1.9322"/>
     <line id="_77801376" fill="none" stroke="black" stroke-width="0.0762" x1="163.679" y1="111.182" x2="158.95" y2= "111.186" />
    </g>
    <g>
     <ellipse id="_66442232" fill="#78B43C" stroke="black" stroke-width="0.0762" transform="matrix(0.013666 -1.00067 -1.10491 -0.0150895 159.513 113.53)" rx="0.7817" ry="1.9322"/>
     <line id="_66441824" fill="none" stroke="black" stroke-width="0.0762" x1="161.349" y1="113.52" x2="156.619" y2= "113.524" />
    </g>
    <g>
     <ellipse id="_66522600" fill="#78B43C" stroke="black" stroke-width="0.0762" transform="matrix(0.013666 -1.00067 -1.10491 -0.0150895 157.002 116.031)" rx="0.7817" ry="1.9322"/>
     <line id="_77504024" fill="none" stroke="black" stroke-width="0.0762" x1="158.837" y1="116.021" x2="154.108" y2= "116.026" />
    </g>
    <g>
     <ellipse id="_76423704" fill="#78B43C" stroke="black" stroke-width="0.0762" transform="matrix(0.013666 -1.00067 -1.10491 -0.0150895 154.981 118.094)" rx="0.7817" ry="1.9322"/>
     <line id="_27679304" fill="none" stroke="black" stroke-width="0.0762" x1="156.816" y1="118.084" x2="152.087" y2= "118.088" />
    </g>
   </g>
   <g id="rameau_x0020_gauche3">
    <polygon id="petiolule_128" fill="#78B43C" stroke="black" stroke-width="0.0762" stroke-linejoin="bevel" points="131.573,136.714 149.845,155.076 "/>
    <g>
     <ellipse id="_77200440" fill="#78B43C" stroke="black" stroke-width="0.0762" cx="131.614" cy="133.838" rx="0.782299" ry="2.13511"/>
     <line id="_76451168" fill="none" stroke="black" stroke-width="0.0762" x1="131.649" y1="132.003" x2="131.58" y2= "136.732" />
    </g>
    <g>
     <ellipse id="_76653568" fill="#78B43C" stroke="black" stroke-width="0.0762" cx="134.101" cy="136.312" rx="0.782299" ry="2.13511"/>
     <line id="_66735728" fill="none" stroke="black" stroke-width="0.0762" x1="134.136" y1="134.477" x2="134.067" y2= "139.205" />
    </g>
    <g>
     <ellipse id="_45640768" fill="#78B43C" stroke="black" stroke-width="0.0762" cx="136.672" cy="138.93" rx="0.782299" ry="2.13511"/>
     <line id="_76951600" fill="none" stroke="black" stroke-width="0.0762" x1="136.707" y1="137.095" x2="136.638" y2= "141.824" />
    </g>
    <g>
     <ellipse id="_77202672" fill="#78B43C" stroke="black" stroke-width="0.0762" cx="138.896" cy="141.136" rx="0.782299" ry="2.13511"/>
     <line id="_77332584" fill="none" stroke="black" stroke-width="0.0762" x1="138.931" y1="139.301" x2="138.862" y2= "144.03" />
    </g>
    <g>
     <ellipse id="_77506520" fill="#78B43C" stroke="black" stroke-width="0.0762" cx="141.403" cy="143.647" rx="0.782299" ry="2.13511"/>
     <line id="_66518584" fill="none" stroke="black" stroke-width="0.0762" x1="141.438" y1="141.812" x2="141.369" y2= "146.541" />
    </g>
    <g>
     <ellipse id="_77765304" fill="#78B43C" stroke="black" stroke-width="0.0762" cx="143.736" cy="146.049" rx="0.782299" ry="2.13511"/>
     <line id="_77500600" fill="none" stroke="black" stroke-width="0.0762" x1="143.771" y1="144.215" x2="143.702" y2= "148.943" />
    </g>
    <g>
     <ellipse id="_77770808" fill="#78B43C" stroke="black" stroke-width="0.0762" cx="146.243" cy="148.539" rx="0.782299" ry="2.13511"/>
     <line id="_77492872" fill="none" stroke="black" stroke-width="0.0762" x1="146.278" y1="146.704" x2="146.209" y2= "151.433" />
    </g>
    <g>
     <ellipse id="_77536784" fill="#78B43C" stroke="black" stroke-width="0.0762" cx="148.293" cy="150.592" rx="0.782299" ry="2.13511"/>
     <line id="_66450632" fill="none" stroke="black" stroke-width="0.0762" x1="148.328" y1="148.757" x2="148.259" y2= "153.485" />
    </g>
    <g>
     <ellipse id="_27681824" fill="#78B43C" stroke="black" stroke-width="0.0762" transform="matrix(-0.013666 -1.00067 1.10491 -0.0150895 128.692 136.738)" rx="0.7817" ry="1.9322"/>
     <line id="_67210328" fill="none" stroke="black" stroke-width="0.0762" x1="126.857" y1="136.728" x2="131.586" y2= "136.732" />
    </g>
    <g>
     <ellipse id="_76543960" fill="#78B43C" stroke="black" stroke-width="0.0762" transform="matrix(-0.013666 -1.00067 1.10491 -0.0150895 131.183 139.229)" rx="0.7817" ry="1.9322"/>
     <line id="_66438416" fill="none" stroke="black" stroke-width="0.0762" x1="129.348" y1="139.22" x2="134.077" y2= "139.224" />
    </g>
    <g>
     <ellipse id="_76687016" fill="#78B43C" stroke="black" stroke-width="0.0762" transform="matrix(-0.013666 -1.00067 1.10491 -0.0150895 133.732 141.818)" rx="0.7817" ry="1.9322"/>
     <line id="_76718024" fill="none" stroke="black" stroke-width="0.0762" x1="131.897" y1="141.809" x2="136.626" y2= "141.813" />
    </g>
    <g>
     <ellipse id="_76588432" fill="#78B43C" stroke="black" stroke-width="0.0762" transform="matrix(-0.013666 -1.00067 1.10491 -0.0150895 135.976 144.05)" rx="0.7817" ry="1.9322"/>
     <line id="_66248264" fill="none" stroke="black" stroke-width="0.0762" x1="134.141" y1="144.04" x2="138.87" y2= "144.044" />
    </g>
    <g>
     <ellipse id="_76917600" fill="#78B43C" stroke="black" stroke-width="0.0762" transform="matrix(-0.013666 -1.00067 1.10491 -0.0150895 138.477 146.585)" rx="0.7817" ry="1.9322"/>
     <line id="_65717920" fill="none" stroke="black" stroke-width="0.0762" x1="136.642" y1="146.575" x2="141.371" y2= "146.58" />
    </g>
    <g>
     <ellipse id="_76460368" fill="#78B43C" stroke="black" stroke-width="0.0762" transform="matrix(-0.013666 -1.00067 1.10491 -0.0150895 140.808 148.923)" rx="0.7817" ry="1.9322"/>
     <line id="_77331136" fill="none" stroke="black" stroke-width="0.0762" x1="138.973" y1="148.914" x2="143.702" y2= "148.918" />
    </g>
    <g>
     <ellipse id="_76859832" fill="#78B43C" stroke="black" stroke-width="0.0762" transform="matrix(-0.013666 -1.00067 1.10491 -0.0150895 143.319 151.425)" rx="0.7817" ry="1.9322"/>
     <line id="_77270176" fill="none" stroke="black" stroke-width="0.0762" x1="141.484" y1="151.415" x2="146.213" y2= "151.419" />
    </g>
    <g>
     <ellipse id="_76668184" fill="#78B43C" stroke="black" stroke-width="0.0762" transform="matrix(-0.013666 -1.00067 1.10491 -0.0150895 145.341 153.487)" rx="0.7817" ry="1.9322"/>
     <line id="_76757736" fill="none" stroke="black" stroke-width="0.0762" x1="143.505" y1="153.478" x2="148.234" y2= "153.482" />
    </g>
   </g>
   <g id="rameau_x0020_droite3">
    <polygon id="petiolule_129" fill="#78B43C" stroke="black" stroke-width="0.0762" stroke-linejoin="bevel" points="168.255,136.726 149.995,155.076 "/>
    <g>
     <ellipse id="_67170456" fill="#78B43C" stroke="black" stroke-width="0.0762" cx="168.226" cy="133.838" rx="0.782299" ry="2.13511"/>
     <line id="_76445608" fill="none" stroke="black" stroke-width="0.0762" x1="168.191" y1="132.003" x2="168.26" y2= "136.732" />
    </g>
    <g>
     <ellipse id="_77268312" fill="#78B43C" stroke="black" stroke-width="0.0762" cx="165.739" cy="136.312" rx="0.782299" ry="2.13511"/>
     <line id="_45410368" fill="none" stroke="black" stroke-width="0.0762" x1="165.704" y1="134.477" x2="165.773" y2= "139.205" />
    </g>
    <g>
     <ellipse id="_76586480" fill="#78B43C" stroke="black" stroke-width="0.0762" cx="163.167" cy="138.93" rx="0.782299" ry="2.13511"/>
     <line id="_66507192" fill="none" stroke="black" stroke-width="0.0762" x1="163.133" y1="137.095" x2="163.201" y2= "141.824" />
    </g>
    <g>
     <ellipse id="_67164392" fill="#78B43C" stroke="black" stroke-width="0.0762" cx="160.944" cy="141.136" rx="0.782299" ry="2.13511"/>
     <line id="_64448152" fill="none" stroke="black" stroke-width="0.0762" x1="160.909" y1="139.301" x2="160.978" y2= "144.03" />
    </g>
    <g>
     <ellipse id="_77171208" fill="#78B43C" stroke="black" stroke-width="0.0762" cx="158.436" cy="143.647" rx="0.782299" ry="2.13511"/>
     <line id="_66817800" fill="none" stroke="black" stroke-width="0.0762" x1="158.402" y1="141.812" x2="158.47" y2= "146.541" />
    </g>
    <g>
     <ellipse id="_66869000" fill="#78B43C" stroke="black" stroke-width="0.0762" cx="156.104" cy="146.049" rx="0.782299" ry="2.13511"/>
     <line id="_76967464" fill="none" stroke="black" stroke-width="0.0762" x1="156.069" y1="144.215" x2="156.137" y2= "148.943" />
    </g>
    <g>
     <ellipse id="_77118544" fill="#78B43C" stroke="black" stroke-width="0.0762" cx="153.596" cy="148.539" rx="0.782299" ry="2.13511"/>
     <line id="_76635096" fill="none" stroke="black" stroke-width="0.0762" x1="153.562" y1="146.704" x2="153.63" y2= "151.433" />
    </g>
    <g>
     <ellipse id="_65717432" fill="#78B43C" stroke="black" stroke-width="0.0762" cx="151.547" cy="150.592" rx="0.782299" ry="2.13511"/>
     <line id="_76416112" fill="none" stroke="black" stroke-width="0.0762" x1="151.512" y1="148.757" x2="151.581" y2= "153.485" />
    </g>
    <g>
     <ellipse id="_76995392" fill="#78B43C" stroke="black" stroke-width="0.0762" transform="matrix(0.013666 -1.00067 -1.10491 -0.0150895 171.148 136.738)" rx="0.7817" ry="1.9322"/>
     <line id="_66802768" fill="none" stroke="black" stroke-width="0.0762" x1="172.983" y1="136.728" x2="168.254" y2= "136.732" />
    </g>
    <g>
     <ellipse id="_77783592" fill="#78B43C" stroke="black" stroke-width="0.0762" transform="matrix(0.013666 -1.00067 -1.10491 -0.0150895 168.656 139.229)" rx="0.7817" ry="1.9322"/>
     <line id="_67143640" fill="none" stroke="black" stroke-width="0.0762" x1="170.491" y1="139.22" x2="165.762" y2= "139.224" />
    </g>
    <g>
     <ellipse id="_77788616" fill="#78B43C" stroke="black" stroke-width="0.0762" transform="matrix(0.013666 -1.00067 -1.10491 -0.0150895 166.107 141.818)" rx="0.7817" ry="1.9322"/>
     <line id="_66872416" fill="none" stroke="black" stroke-width="0.0762" x1="167.943" y1="141.809" x2="163.214" y2= "141.813" />
    </g>
    <g>
     <ellipse id="_77502320" fill="#78B43C" stroke="black" stroke-width="0.0762" transform="matrix(0.013666 -1.00067 -1.10491 -0.0150895 163.863 144.05)" rx="0.7817" ry="1.9322"/>
     <line id="_66495496" fill="none" stroke="black" stroke-width="0.0762" x1="165.699" y1="144.04" x2="160.97" y2= "144.044" />
    </g>
    <g>
     <ellipse id="_66451088" fill="#78B43C" stroke="black" stroke-width="0.0762" transform="matrix(0.013666 -1.00067 -1.10491 -0.0150895 161.362 146.585)" rx="0.7817" ry="1.9322"/>
     <line id="_27623512" fill="none" stroke="black" stroke-width="0.0762" x1="163.197" y1="146.575" x2="158.469" y2= "146.58" />
    </g>
    <g>
     <ellipse id="_77269344" fill="#78B43C" stroke="black" stroke-width="0.0762" transform="matrix(0.013666 -1.00067 -1.10491 -0.0150895 159.032 148.923)" rx="0.7817" ry="1.9322"/>
     <line id="_66470000" fill="none" stroke="black" stroke-width="0.0762" x1="160.867" y1="148.914" x2="156.138" y2= "148.918" />
    </g>
    <g>
     <ellipse id="_66388080" fill="#78B43C" stroke="black" stroke-width="0.0762" transform="matrix(0.013666 -1.00067 -1.10491 -0.0150895 156.52 151.425)" rx="0.7817" ry="1.9322"/>
     <line id="_66399376" fill="none" stroke="black" stroke-width="0.0762" x1="158.356" y1="151.415" x2="153.627" y2= "151.419" />
    </g>
    <g>
     <ellipse id="_66247736" fill="#78B43C" stroke="black" stroke-width="0.0762" transform="matrix(0.013666 -1.00067 -1.10491 -0.0150895 154.499 153.487)" rx="0.7817" ry="1.9322"/>
     <line id="_27681696" fill="none" stroke="black" stroke-width="0.0762" x1="156.334" y1="153.478" x2="151.605" y2= "153.482" />
    </g>
   </g>
   <g id="rameau_x0020_gauche2">
    <polygon id="petiolule_130" fill="none" stroke="black" stroke-width="0.0762" stroke-linejoin="bevel" points="131.299,118.775 149.708,137.285 "/>
    <g>
     <ellipse id="_66744256" fill="#78B43C" stroke="black" stroke-width="0.0762" cx="131.342" cy="115.901" rx="0.782299" ry="2.13511"/>
     <line id="_77336104" fill="none" stroke="black" stroke-width="0.0762" x1="131.377" y1="114.066" x2="131.308" y2= "118.795" />
    </g>
    <g>
     <ellipse id="_65792352" fill="#78B43C" stroke="black" stroke-width="0.0762" cx="133.829" cy="118.375" rx="0.782299" ry="2.13511"/>
     <line id="_66814672" fill="none" stroke="black" stroke-width="0.0762" x1="133.863" y1="116.54" x2="133.795" y2= "121.269" />
    </g>
    <g>
     <ellipse id="_76460456" fill="#78B43C" stroke="black" stroke-width="0.0762" cx="136.4" cy="120.993" rx="0.782299" ry="2.13511"/>
     <line id="_77066280" fill="none" stroke="black" stroke-width="0.0762" x1="136.435" y1="119.158" x2="136.366" y2= "123.887" />
    </g>
    <g>
     <ellipse id="_76660944" fill="#78B43C" stroke="black" stroke-width="0.0762" cx="138.624" cy="123.199" rx="0.782299" ry="2.13511"/>
     <line id="_66015048" fill="none" stroke="black" stroke-width="0.0762" x1="138.659" y1="121.364" x2="138.59" y2= "126.093" />
    </g>
    <g>
     <ellipse id="_66915184" fill="#78B43C" stroke="black" stroke-width="0.0762" cx="141.131" cy="125.71" rx="0.782299" ry="2.13511"/>
     <line id="_66425816" fill="none" stroke="black" stroke-width="0.0762" x1="141.166" y1="123.876" x2="141.097" y2= "128.604" />
    </g>
    <g>
     <ellipse id="_65746984" fill="#78B43C" stroke="black" stroke-width="0.0762" cx="143.464" cy="128.113" rx="0.782299" ry="2.13511"/>
     <line id="_76750800" fill="none" stroke="black" stroke-width="0.0762" x1="143.499" y1="126.278" x2="143.43" y2= "131.006" />
    </g>
    <g>
     <ellipse id="_66489792" fill="#78B43C" stroke="black" stroke-width="0.0762" cx="145.971" cy="130.602" rx="0.782299" ry="2.13511"/>
     <line id="_63155784" fill="none" stroke="black" stroke-width="0.0762" x1="146.006" y1="128.767" x2="145.937" y2= "133.496" />
    </g>
    <g>
     <ellipse id="_45444768" fill="#78B43C" stroke="black" stroke-width="0.0762" cx="148.02" cy="132.655" rx="0.782299" ry="2.13511"/>
     <line id="_76762368" fill="none" stroke="black" stroke-width="0.0762" x1="148.055" y1="130.82" x2="147.987" y2= "135.548" />
    </g>
    <g>
     <ellipse id="_76650440" fill="#78B43C" stroke="black" stroke-width="0.0762" transform="matrix(-0.013666 -1.00067 1.10491 -0.0150895 128.42 118.801)" rx="0.7817" ry="1.9322"/>
     <line id="_77790280" fill="none" stroke="black" stroke-width="0.0762" x1="126.585" y1="118.791" x2="131.314" y2= "118.795" />
    </g>
    <g>
     <ellipse id="_66457848" fill="#78B43C" stroke="black" stroke-width="0.0762" transform="matrix(-0.013666 -1.00067 1.10491 -0.0150895 130.911 121.292)" rx="0.7817" ry="1.9322"/>
     <line id="_65783944" fill="none" stroke="black" stroke-width="0.0762" x1="129.076" y1="121.283" x2="133.805" y2= "121.287" />
    </g>
    <g>
     <ellipse id="_76998008" fill="#78B43C" stroke="black" stroke-width="0.0762" transform="matrix(-0.013666 -1.00067 1.10491 -0.0150895 133.46 123.881)" rx="0.7817" ry="1.9322"/>
     <line id="_76998032" fill="none" stroke="black" stroke-width="0.0762" x1="131.625" y1="123.872" x2="136.354" y2= "123.876" />
    </g>
    <g>
     <ellipse id="_77493792" fill="#78B43C" stroke="black" stroke-width="0.0762" transform="matrix(-0.013666 -1.00067 1.10491 -0.0150895 135.704 126.113)" rx="0.7817" ry="1.9322"/>
     <line id="_76583056" fill="none" stroke="black" stroke-width="0.0762" x1="133.869" y1="126.103" x2="138.598" y2= "126.107" />
    </g>
    <g>
     <ellipse id="_77134888" fill="#78B43C" stroke="black" stroke-width="0.0762" transform="matrix(-0.013666 -1.00067 1.10491 -0.0150895 138.205 128.648)" rx="0.7817" ry="1.9322"/>
     <line id="_65733368" fill="none" stroke="black" stroke-width="0.0762" x1="136.37" y1="128.638" x2="141.099" y2= "128.643" />
    </g>
    <g>
     <ellipse id="_76638168" fill="#78B43C" stroke="black" stroke-width="0.0762" transform="matrix(-0.013666 -1.00067 1.10491 -0.0150895 140.536 130.986)" rx="0.7817" ry="1.9322"/>
     <line id="_76910472" fill="none" stroke="black" stroke-width="0.0762" x1="138.701" y1="130.977" x2="143.429" y2= "130.981" />
    </g>
    <g>
     <ellipse id="_76685128" fill="#78B43C" stroke="black" stroke-width="0.0762" transform="matrix(-0.013666 -1.00067 1.10491 -0.0150895 143.047 133.488)" rx="0.7817" ry="1.9322"/>
     <line id="_77772936" fill="none" stroke="black" stroke-width="0.0762" x1="141.212" y1="133.478" x2="145.941" y2= "133.482" />
    </g>
    <g>
     <ellipse id="_65498552" fill="#78B43C" stroke="black" stroke-width="0.0762" transform="matrix(-0.013666 -1.00067 1.10491 -0.0150895 145.068 135.551)" rx="0.7817" ry="1.9322"/>
     <line id="_77761640" fill="none" stroke="black" stroke-width="0.0762" x1="143.233" y1="135.541" x2="147.962" y2= "135.545" />
    </g>
   </g>
   <g id="rameau_x0020_droite2">
    <polygon id="petiolule_131" fill="none" stroke="black" stroke-width="0.0762" stroke-linejoin="bevel" points="168.538,118.753 150.134,137.243 "/>
    <g>
     <ellipse id="_77534008" fill="#78B43C" stroke="black" stroke-width="0.0762" cx="168.498" cy="115.876" rx="0.782299" ry="2.13511"/>
     <line id="_66728272" fill="none" stroke="black" stroke-width="0.0762" x1="168.463" y1="114.041" x2="168.532" y2= "118.769" />
    </g>
    <g>
     <ellipse id="_67234608" fill="#78B43C" stroke="black" stroke-width="0.0762" cx="166.011" cy="118.349" rx="0.782299" ry="2.13511"/>
     <line id="_78025832" fill="none" stroke="black" stroke-width="0.0762" x1="165.976" y1="116.514" x2="166.045" y2= "121.243" />
    </g>
    <g>
     <ellipse id="_77189472" fill="#78B43C" stroke="black" stroke-width="0.0762" cx="163.44" cy="120.968" rx="0.782299" ry="2.13511"/>
     <line id="_67099024" fill="none" stroke="black" stroke-width="0.0762" x1="163.405" y1="119.133" x2="163.474" y2= "123.861" />
    </g>
    <g>
     <ellipse id="_66745720" fill="#78B43C" stroke="black" stroke-width="0.0762" cx="161.216" cy="123.174" rx="0.782299" ry="2.13511"/>
     <line id="_66745744" fill="none" stroke="black" stroke-width="0.0762" x1="161.181" y1="121.339" x2="161.25" y2= "126.067" />
    </g>
    <g>
     <ellipse id="_77282392" fill="#78B43C" stroke="black" stroke-width="0.0762" cx="158.709" cy="125.685" rx="0.782299" ry="2.13511"/>
     <line id="_76579368" fill="none" stroke="black" stroke-width="0.0762" x1="158.674" y1="123.85" x2="158.743" y2= "128.578" />
    </g>
    <g>
     <ellipse id="_76695776" fill="#78B43C" stroke="black" stroke-width="0.0762" cx="156.376" cy="128.087" rx="0.782299" ry="2.13511"/>
     <line id="_67104520" fill="none" stroke="black" stroke-width="0.0762" x1="156.341" y1="126.252" x2="156.41" y2= "130.981" />
    </g>
    <g>
     <ellipse id="_76454472" fill="#78B43C" stroke="black" stroke-width="0.0762" cx="153.869" cy="130.577" rx="0.782299" ry="2.13511"/>
     <line id="_77278656" fill="none" stroke="black" stroke-width="0.0762" x1="153.834" y1="128.742" x2="153.903" y2= "133.47" />
    </g>
    <g>
     <ellipse id="_76968576" fill="#78B43C" stroke="black" stroke-width="0.0762" cx="151.819" cy="132.629" rx="0.782299" ry="2.13511"/>
     <line id="_77182904" fill="none" stroke="black" stroke-width="0.0762" x1="151.784" y1="130.795" x2="151.853" y2= "135.523" />
    </g>
    <g>
     <ellipse id="_76942464" fill="#78B43C" stroke="black" stroke-width="0.0762" transform="matrix(0.013666 -1.00067 -1.10491 -0.0150895 171.42 118.775)" rx="0.7817" ry="1.9322"/>
     <line id="_77299056" fill="none" stroke="black" stroke-width="0.0762" x1="173.255" y1="118.765" x2="168.526" y2= "118.77" />
    </g>
    <g>
     <ellipse id="_66524592" fill="#78B43C" stroke="black" stroke-width="0.0762" transform="matrix(0.013666 -1.00067 -1.10491 -0.0150895 168.928 121.267)" rx="0.7817" ry="1.9322"/>
     <line id="_77340232" fill="none" stroke="black" stroke-width="0.0762" x1="170.764" y1="121.257" x2="166.035" y2= "121.261" />
    </g>
    <g>
     <ellipse id="_76993992" fill="#78B43C" stroke="black" stroke-width="0.0762" transform="matrix(0.013666 -1.00067 -1.10491 -0.0150895 166.38 123.856)" rx="0.7817" ry="1.9322"/>
     <line id="_76474016" fill="none" stroke="black" stroke-width="0.0762" x1="168.215" y1="123.846" x2="163.486" y2= "123.85" />
    </g>
    <g>
     <ellipse id="_66495440" fill="#78B43C" stroke="black" stroke-width="0.0762" transform="matrix(0.013666 -1.00067 -1.10491 -0.0150895 164.136 126.087)" rx="0.7817" ry="1.9322"/>
     <line id="_66530488" fill="none" stroke="black" stroke-width="0.0762" x1="165.971" y1="126.078" x2="161.242" y2= "126.082" />
    </g>
    <g>
     <ellipse id="_76440216" fill="#78B43C" stroke="black" stroke-width="0.0762" transform="matrix(0.013666 -1.00067 -1.10491 -0.0150895 161.635 128.623)" rx="0.7817" ry="1.9322"/>
     <line id="_76440936" fill="none" stroke="black" stroke-width="0.0762" x1="163.47" y1="128.613" x2="158.741" y2= "128.617" />
    </g>
    <g>
     <ellipse id="_76769200" fill="#78B43C" stroke="black" stroke-width="0.0762" transform="matrix(0.013666 -1.00067 -1.10491 -0.0150895 159.304 130.961)" rx="0.7817" ry="1.9322"/>
     <line id="_77126224" fill="none" stroke="black" stroke-width="0.0762" x1="161.139" y1="130.951" x2="156.41" y2= "130.955" />
    </g>
    <g>
     <ellipse id="_76914080" fill="#78B43C" stroke="black" stroke-width="0.0762" transform="matrix(0.013666 -1.00067 -1.10491 -0.0150895 156.793 133.462)" rx="0.7817" ry="1.9322"/>
     <line id="_76519160" fill="none" stroke="black" stroke-width="0.0762" x1="158.628" y1="133.453" x2="153.899" y2= "133.457" />
    </g>
    <g>
     <ellipse id="_77455632" fill="#78B43C" stroke="black" stroke-width="0.0762" transform="matrix(0.013666 -1.00067 -1.10491 -0.0150895 154.771 135.525)" rx="0.7817" ry="1.9322"/>
     <line id="_76519040" fill="none" stroke="black" stroke-width="0.0762" x1="156.607" y1="135.515" x2="151.878" y2= "135.519" />
    </g>
   </g>
   <path id="pétiole_132" fill="#78B43C" stroke="black" stroke-width="0.0762" d="M149.462 161.827c0.0977,0.1403 0.8359,0.2707 1.0161,0.2489 -0.1505,-1.1184 -0.3011,-2.2369 -0.335,-3.3944 0,-12.8685 0,-25.737 0,-38.6056 -0.1493,-0.0637 -0.2933,-0.0641 -0.4319,-0.0019 0,12.0292 0,26.5783 0,38.6077 0,1.0988 -0.0998,2.0947 -0.2492,3.1453z"/>
  </g>
  <g id="F_Imparip" onclick="parent.replacechar('F_Imparip')" onmousemove="parent.showtooltip('F_Imparip', 'Imparipinnate')" onmouseout="parent.hidetooltip('F_Imparip')" cursor="pointer" >
   <g id="foliole">
    <path id="f_x0020_droite1" fill="#78B43C" stroke="black" stroke-width="0.0762" d="M103.026 107.968l0.0816 0.0152c0.5971,6.9113 -0.8829,19.5468 -11.0304,18.042 -5.3598,-9.0992 5.2556,-15.4746 10.9488,-18.0572z"/>
    <path id="petiolule_x0020_f_x0020_doite1" fill="none" stroke="black" stroke-width="0.0762" stroke-linejoin="bevel" d="M103.081 107.99c-2.8829,6.6937 -6.3925,12.86 -11.0109,18.0345"/>
    <path id="pétiole_x0020_" fill="none" stroke="black" stroke-width="0.0762" d="M90.0097 126.729c0.5729,-0.1265 1.3942,-0.4628 2.0469,-0.7407"/>
   </g>
   <g id="foliole_133">
    <path id="f_x0020_gauche1" fill="#78B43C" stroke="black" stroke-width="0.0762" d="M76.5856 108.707l-0.0792 0.0171c-0.3912,6.7517 0.2638,17.1019 11.2472,17.2782 5.2967,-9.4692 -5.5487,-14.9355 -11.168,-17.2953z"/>
    <path id="petiolule_x0020_f_x0020_gauche1" fill="none" stroke="black" stroke-width="0.0762" stroke-linejoin="bevel" d="M76.5514 108.73c2.9038,6.1363 6.4596,11.9714 11.1786,17.2703"/>
    <path id="pétiole_x0020__134" fill="none" stroke="black" stroke-width="0.0762" d="M87.745 125.976c0.5302,0.2512 1.582,0.5552 2.2681,0.7356"/>
   </g>
   <g id="foliole_135">
    <path id="f_x0020_droite1_136" fill="#78B43C" stroke="black" stroke-width="0.0762" d="M107.252 123.403l0.0758 0.034c-1.0471,6.8575 -5.4607,18.7892 -14.9686,14.9374 -3.0665,-10.1054 8.7516,-13.802 14.8928,-14.9714z"/>
    <path id="petiolule_x0020_f_x0020_doite1_137" fill="none" stroke="black" stroke-width="0.0762" stroke-linejoin="bevel" d="M107.3 123.437c-4.3779,5.8266 -9.2408,10.9932 -14.9478,14.9347"/>
    <path id="pétiole_x0020__138" fill="none" stroke="black" stroke-width="0.0762" d="M90.1664 138.571c0.5866,0.0119 1.4819,-0.1215 2.1816,-0.2379"/>
   </g>
   <g id="foliole_139">
    <path id="f_x0020_gauche1_140" fill="#78B43C" stroke="black" stroke-width="0.0762" d="M73.6784 123.081l-0.0751 0.0303c0.7707,6.719 3.1882,16.8042 14.0396,15.0972 3.5971,-10.2363 -8.0241,-13.7648 -13.9645,-15.1275z"/>
    <path id="petiolule_x0020_f_x0020_gauche1_141" fill="none" stroke="black" stroke-width="0.0762" stroke-linejoin="bevel" d="M73.6487 123.11c3.9116,5.5484 8.414,10.6886 13.9707,15.1012"/>
    <path id="pétiole_x0020__142" fill="none" stroke="black" stroke-width="0.0762" d="M87.63 138.185c0.5654,0.1567 1.6538,0.276 2.3606,0.3363"/>
   </g>
   <g id="foliole_143">
    <path id="f_x0020_droite1_144" fill="#78B43C" stroke="black" stroke-width="0.0762" d="M108.837 140.129l0.0583 0.0477c-2.5439,5.7599 -9.2409,15.167 -16.6576,9.5371 -0.2899,-9.5811 10.9413,-10.0168 16.5993,-9.5848z"/>
    <path id="petiolule_x0020_f_x0020_doite1_145" fill="none" stroke="black" stroke-width="0.0762" stroke-linejoin="bevel" d="M108.871 140.171c-5.2177,4.0666 -10.7037,7.4399 -16.6387,9.5396"/>
    <path id="pétiole_x0020__146" fill="none" stroke="black" stroke-width="0.0762" d="M90.2994 149.703c0.6459,0.0374 1.3197,0.0056 1.938,-0.0276"/>
   </g>
   <g id="foliole_147">
    <path id="f_x0020_gauche1_148" fill="#78B43C" stroke="black" stroke-width="0.0762" d="M71.1615 140.673l-0.0567 0.0483c2.623,5.6395 7.6602,13.7384 16.634,9.0989 0.1674,-9.9768 -10.9979,-9.6824 -16.5773,-9.1472z"/>
    <path id="petiolule_x0020_f_x0020_gauche1_149" fill="none" stroke="black" stroke-width="0.0762" stroke-linejoin="bevel" d="M71.1439 140.706c5.024,3.7063 10.4451,6.8848 16.575,9.1224"/>
    <path id="pétiole_x0020__150" fill="none" stroke="black" stroke-width="0.0762" d="M87.7206 149.803c0.5157,0.0517 1.5093,0.0682 2.1575,-0.0238"/>
   </g>
   <g id="foliole_x0020_centrale">
    <path id="_77058048" fill="#78B43C" stroke="black" stroke-width="0.0762" d="M89.8876 92.931l0.0788 -0.0306c4.2155,5.6593 9.7659,15.911 0.1141,21.5115 -10.05,-5.2124 -3.7357,-16.1997 -0.1929,-21.4809z"/>
    <polygon id="_66303880" fill="none" stroke="black" stroke-width="0.0762" stroke-linejoin="bevel" points="89.9461,93.6121 90.0655,114.429 "/>
   </g>
   <path id="pétiole_151" fill="#78B43C" stroke="black" stroke-width="0.0762" d="M89.6268 161.864c0.0977,0.126 0.7376,0.2321 0.9178,0.2125l-0.2367 -3.0388 0 -32.425 -0.4202 -33.6814c0,10.8083 -0.0117,55.2981 -0.0117,66.1066 0,0.9873 -0.0998,1.8821 -0.2492,2.8261z"/>
  </g>
  <g id="F_Parip" onclick="parent.replacechar('F_Parip')" onmousemove="parent.showtooltip('F_Parip', 'Paripinnate')" onmouseout="parent.hidetooltip('F_Parip')" cursor="pointer" >
   <g id="foliole_152">
    <path id="f_x0020_droite1_153" fill="#78B43C" stroke="black" stroke-width="0.0762" d="M46.1973 94.4644l0.1015 0.0189c0.7424,8.5938 -1.0979,24.3054 -13.7157,22.4344 -6.6647,-11.3145 6.5351,-19.242 13.6142,-22.4533z"/>
    <path id="petiolule_x0020_f_x0020_doite1_154" fill="none" stroke="black" stroke-width="0.0762" stroke-linejoin="bevel" d="M46.2654 94.4915c-3.5847,8.3233 -7.9486,15.9908 -13.6915,22.4251"/>
    <path id="pétiole_x0020__155" fill="none" stroke="black" stroke-width="0.0762" d="M30.012 117.792c0.7124,-0.1573 1.7337,-0.5754 2.5452,-0.921"/>
   </g>
   <g id="foliole_156">
    <path id="f_x0020_gauche1_157" fill="#78B43C" stroke="black" stroke-width="0.0762" d="M13.3198 95.3831l-0.0984 0.0212c-0.4864,8.3954 0.328,21.2654 13.9853,21.4847 6.5862,-11.7747 -6.8995,-18.5716 -13.8869,-21.5059z"/>
    <path id="petiolule_x0020_f_x0020_gauche1_158" fill="none" stroke="black" stroke-width="0.0762" stroke-linejoin="bevel" d="M13.2774 95.4117c3.6107,7.6302 8.0321,14.8859 13.9,21.4749"/>
    <path id="pétiole_x0020__159" fill="none" stroke="black" stroke-width="0.0762" d="M27.196 116.857c0.6593,0.3123 1.9672,0.6903 2.8203,0.9146"/>
   </g>
   <g id="foliole_160">
    <path id="f_x0020_droite1_161" fill="#78B43C" stroke="black" stroke-width="0.0762" d="M51.4523 113.656l0.0942 0.0423c-1.302,8.527 -6.7901,23.3635 -18.6126,18.574 -3.8131,-12.5656 10.8821,-17.1621 18.5184,-18.6163z"/>
    <path id="petiolule_x0020_f_x0020_doite1_162" fill="none" stroke="black" stroke-width="0.0762" stroke-linejoin="bevel" d="M51.5121 113.699c-5.4437,7.2452 -11.4905,13.6695 -18.5869,18.5706"/>
    <path id="pétiole_x0020__163" fill="none" stroke="black" stroke-width="0.0762" d="M30.2069 132.517c0.7294,0.0149 1.8427,-0.151 2.7128,-0.2957"/>
   </g>
   <g id="foliole_164">
    <path id="f_x0020_gauche1_165" fill="#78B43C" stroke="black" stroke-width="0.0762" d="M9.7048 113.257l-0.0933 0.0377c0.9583,8.3547 3.9644,20.8952 17.4576,18.7727 4.4727,-12.7285 -9.9776,-17.116 -17.3643,-18.8104z"/>
    <path id="petiolule_x0020_f_x0020_gauche1_166" fill="none" stroke="black" stroke-width="0.0762" stroke-linejoin="bevel" d="M9.6679 113.292c4.8639,6.8992 10.4625,13.2908 17.3719,18.7776"/>
    <path id="pétiole_x0020__167" fill="none" stroke="black" stroke-width="0.0762" d="M27.053 132.038c0.7031,0.1948 2.0564,0.3432 2.9353,0.4182"/>
   </g>
   <g id="foliole_168">
    <path id="f_x0020_droite1_169" fill="#78B43C" stroke="black" stroke-width="0.0762" d="M53.4228 134.456l0.0725 0.0594c-3.1633,7.162 -11.4907,18.8593 -20.7129,11.8589 -0.3605,-11.9138 13.605,-12.4555 20.6404,-11.9183z"/>
    <path id="petiolule_x0020_f_x0020_doite1_170" fill="none" stroke="black" stroke-width="0.0762" stroke-linejoin="bevel" d="M53.4651 134.507c-6.488,5.0567 -13.3095,9.2512 -20.6895,11.8621"/>
    <path id="pétiole_x0020__171" fill="none" stroke="black" stroke-width="0.0762" d="M30.3723 146.36c0.8031,0.0464 1.641,0.0069 2.4098,-0.0344"/>
   </g>
   <g id="foliole_172">
    <path id="f_x0020_gauche1_173" fill="#78B43C" stroke="black" stroke-width="0.0762" d="M6.5752 135.131l-0.0704 0.06c3.2615,7.0125 9.525,17.083 20.6835,11.314 0.2082,-12.4057 -13.6753,-12.0396 -20.6131,-11.374z"/>
    <path id="petiolule_x0020_f_x0020_gauche1_174" fill="none" stroke="black" stroke-width="0.0762" stroke-linejoin="bevel" d="M6.5533 135.173c6.2472,4.6086 12.988,8.5609 20.6102,11.3432"/>
    <path id="pétiole_x0020__175" fill="none" stroke="black" stroke-width="0.0762" d="M27.1657 146.484c0.6412,0.0642 1.8768,0.0847 2.6828,-0.0296"/>
   </g>
   <path id="pétiole_176" fill="#78B43C" stroke="black" stroke-width="0.0762" d="M28.9718 161.929c0.2337,0.0878 1.7645,0.1618 2.1955,0.1481l-0.5663 -2.1186 -0.3712 -23.9685 -0.4696 -18.2863c0,7.5355 -0.1924,34.7192 -0.1924,42.2549 0,0.6884 -0.2386,1.3122 -0.596,1.9704z"/>
  </g>
  <g id="F_Digit" onclick="parent.replacechar('F_Digit')" onmousemove="parent.showtooltip('F_Digit', 'Digitate or palmate')" onmouseout="parent.hidetooltip('F_Digit')" cursor="pointer" >
   <g id="foliole_x0020_droite1">
    <path id="limbe" fill="#78B43C" stroke="black" stroke-width="0.0762" d="M224.359 25.4428l0.0648 0.0398c-3.4028,6.4154 -10.5206,16.5066 -20.2095,12.7153 0.3137,-10.4327 13.5502,-12.2528 20.1447,-12.7551z"/>
    <polygon id="nervure" fill="none" stroke="black" stroke-width="0.0762" stroke-linejoin="bevel" points="223.744,25.8856 200.072,40.8356 "/>
   </g>
   <g id="foliole_x0020_centrale_177">
    <path id="limbe_178" fill="#78B43C" stroke="black" stroke-width="0.0762" d="M199.788 11.6155l0.091 -0.0353c4.8721,6.5408 11.287,18.3893 0.1318,24.8621 -11.6152,-6.0242 -4.3175,-18.7229 -0.2228,-24.8268z"/>
    <polygon id="nervure_179" fill="none" stroke="black" stroke-width="0.0762" stroke-linejoin="bevel" points="199.855,12.4028 200.019,40.8543 "/>
   </g>
   <g id="foliole_x0020_gauche1">
    <path id="limbe_180" fill="#78B43C" stroke="black" stroke-width="0.0762" d="M175.576 25.6418l0.0078 -0.0756c7.2565,0.2782 19.4379,2.3061 20.2315,12.6801 -9.5333,4.2491 -16.9223,-6.8828 -20.2393,-12.6045z"/>
    <polygon id="nervure_181" fill="none" stroke="black" stroke-width="0.0762" stroke-linejoin="bevel" points="176.242,26.0033 199.991,40.8315 "/>
   </g>
   <g id="foliole_x0020_droite2">
    <path id="limbe_182" fill="#78B43C" stroke="black" stroke-width="0.0762" d="M220.028 48.9617l0.0071 0.0554c-5.8053,0.4007 -15.8236,-0.0565 -18.2699,-7.5012 6.8186,-3.8675 14.6295,3.5787 18.2628,7.4458z"/>
    <polygon id="nervure_183" fill="none" stroke="black" stroke-width="0.0762" stroke-linejoin="bevel" points="219.977,48.9587 200.115,40.8644 "/>
   </g>
   <g id="foliole_x0020_gauche2">
    <path id="limbe_184" fill="#78B43C" stroke="black" stroke-width="0.0762" d="M180.492 49.4769l-0.0449 -0.0334c3.7443,-4.4545 11.0323,-11.3437 18.087,-7.9322 -1.9543,7.5915 -12.7365,8.0381 -18.0421,7.9656z"/>
    <polygon id="nerv" fill="none" stroke="black" stroke-width="0.0762" stroke-linejoin="bevel" points="180.529,49.4423 200.108,40.8613 "/>
   </g>
   <path id="petiolule_185" fill="none" stroke="black" stroke-width="0.0762" stroke-linejoin="bevel" d="M199.998 36.4224c0.1481,5.8002 0.1091,19.2432 0.257,25.0433 -0.291,0.3294 -0.4052,0.2671 -0.4712,-0.1375l0.2142 -24.9058z"/>
   <path id="pétiole_186" fill="#78B43C" stroke="black" stroke-width="0.0762" d="M199.332 61.6021c0.1453,0.14 1.0974,0.2579 1.3654,0.2362l-0.3522 -3.3771c0,-5.8625 0,-11.9123 0,-17.7749 -0.2002,-0.1337 -0.4146,-0.1333 -0.6425,0.0013 0,12.0114 0,5.7622 0,17.7738 0,1.0972 -0.1485,2.0915 -0.3707,3.1407z"/>
  </g>
  <g id="F_Trif" onclick="parent.replacechar('F_Trif')" onmousemove="parent.showtooltip('F_Trif', 'Trifoliolate')" onmouseout="parent.hidetooltip('F_Trif')" cursor="pointer" >
   <g id="folioles">
    <g id="foliole_x0020_droite">
     <path id="limbe_187" fill="#78B43C" stroke="black" stroke-width="0.0762" d="M143.812 29.8168l0.078 0.0547c-2.6674,7.5043 -8.8072,19.1407 -20.1146,13.5952 -1.4102,-12.6989 12.8593,-13.663 20.0366,-13.6499z"/>
     <polygon id="nervure_188" fill="none" stroke="black" stroke-width="0.0762" stroke-linejoin="bevel" points="143.21,30.2987 119.945,46.0785 "/>
    </g>
    <g id="foliole_x0020_gauche">
     <path id="limbe_189" fill="#78B43C" stroke="black" stroke-width="0.0762" d="M96.1097 29.6187l0.0233 -0.0925c7.962,-0.187 21.0235,1.3945 19.8797,13.9365 -11.359,5.8504 -17.3532,-7.1349 -19.903,-13.844z"/>
     <polygon id="nervure_190" fill="none" stroke="black" stroke-width="0.0762" stroke-linejoin="bevel" points="96.775,30.0095 119.799,46.0964 "/>
    </g>
    <g id="foliole_x0020_centrale_191">
     <path id="limbe_192" fill="#78B43C" stroke="black" stroke-width="0.0762" d="M119.702 15.8408l0.0889 -0.0345c4.7576,6.387 11.0218,17.957 0.1288,24.2778 -11.3423,-5.8827 -4.2161,-18.283 -0.2177,-24.2433z"/>
     <polygon id="nervure_193" fill="none" stroke="black" stroke-width="0.0762" stroke-linejoin="bevel" points="119.768,16.6095 119.928,44.3923 "/>
    </g>
   </g>
   <path id="petiolule_194" fill="none" stroke="black" stroke-width="0.0762" stroke-linejoin="bevel" d="M119.909 40.4854c0.091,7.1585 0.1619,13.8478 0.2529,21.0064 -0.3165,0.2305 -0.4203,0.1232 -0.5375,-0.1072l0.2846 -20.8992z"/>
   <path id="pétiole_195" fill="#78B43C" stroke="black" stroke-width="0.0762" d="M119.2 61.6021c0.1453,0.14 1.0974,0.2579 1.3655,0.2362l-0.3522 -3.3771c0,-5.8625 0,-5.9954 0,-11.8581 -0.2003,-0.1337 -0.4147,-0.1587 -0.6426,-0.0241 0,12.0113 0,-0.1292 0,11.8824 0,1.0972 -0.1485,2.0915 -0.3707,3.1407z"/>
  </g>
  <g id="F_Bifol" onclick="parent.replacechar('F_Bifol')" onmousemove="parent.showtooltip('F_Bifol', 'Bifoliolate')" onmouseout="parent.hidetooltip('F_Bifol')" cursor="pointer" >
   <g id="F">
    <path id="petiole" fill="#78B43C" stroke="black" stroke-width="0.0762" stroke-linejoin="bevel" d="M40.6629 53.1642c1.3734,-3.2101 3.1343,-3.8935 0.5013,0.6255l-0.004 8.0045c-0.4512,0.1199 -0.8253,0.0086 -1.1223,-0.3338 0.0093,-2.6991 0.0186,-4.9331 0.0278,-7.6322 -3.2608,-5.3811 0.4745,-1.4909 0.5972,-0.664z"/>
    <path id="limbe_x0020_droite" fill="#78B43C" stroke="black" stroke-width="0.0762" d="M41.8545 51.6847c-3.7143,-8.2471 0.3316,-30.6467 8.0896,-36.5846 8.7493,6.34 12.3348,37.835 -8.0896,36.5846z"/>
    <path id="limbe_x0020_gauche" fill="#78B43C" stroke="black" stroke-width="0.0762" d="M39.321 51.7205c2.8102,-8.5077 -3.1438,-30.4743 -11.1487,-35.7576 -7.8259,7.0162 -8.3692,38.651 11.1487,35.7576z"/>
   </g>
   <path id="nerv_196" fill="none" stroke="black" stroke-width="0.0762" d="M28.1811 16.0017c0.5153,15.9009 3.9496,27.3296 11.1358,35.7267"/>
   <path id="nerv_197" fill="none" stroke="black" stroke-width="0.0762" d="M49.9421 15.1386c-0.0559,14.0671 -2.1885,27.0686 -8.0852,36.5415"/>
  </g>
 </g>
<image xlink:href="tick.gif" id="imgtick" x="-100" y="-100" width="15" height="15"/>
<rect id="recttooltip" x="-100" y="-100" width="55" height="6" fill-opacity="0.4" pointer-events="none"/>
<text id="textboxid" x="-100" y="-100" pointer-events="none"> </text>
</a></svg>
