<?xml version="1.0" encoding="UTF-8"?>
<!DOCTYPE svg PUBLIC "-//W3C//DTD SVG 1.1//EN" "http://www.w3.org/Graphics/SVG/1.1/DTD/svg11.dtd">
<!-- Creator: CorelDRAW -->
<svg xmlns="http://www.w3.org/2000/svg" xml:space="preserve" shape-rendering="geometricPrecision" text-rendering="geometricPrecision" image-rendering="optimizeQuality" fill-rule="evenodd" clip-rule="evenodd"
viewBox="0 0 240 180"
 xmlns:xlink="http://www.w3.org/1999/xlink">
<a>
 <g id="Layer_x0020_1">
  <metadata id="CorelCorpID_0Corel-Layer"/>
  <rect fill="none" width="240" height="180"/>
  <g id="LftNb_10" onclick="parent.replacechar('LftNb_10')" onmousemove="parent.showtooltip('LftNb_10', 'More than 10 pairs of leaflets')" onmouseout="parent.hidetooltip('LftNb_10')" cursor="pointer" >
   <path id="Rachis" fill="#00C800" stroke="black" stroke-width="0.0762" stroke-linejoin="bevel" d="M181.156 80.9563c-0.5123,-79.5847 -1.2552,-26.4433 -3.1255,0.1299 -3.2307,23.4404 -2.4341,55.788 12.0877,62.5851 1.3982,-0.8764 -0.1881,0.0363 1.4819,-2.4543 1.0836,-3.4581 -0.7203,2.2114 -6.2719,-6.935 -6.0067,-9.1443 -5.3688,-30.1599 -4.1722,-53.3257z">
    <metadata id="CorelCorpID_1">
     <odm name="Nom" value="Rachis" type="0"/>
    </metadata>
   </path>
   <g id="foliole">
     <metadata id="CorelCorpID_2">
      <odm name="Nom" value="foliole" type="0"/>
     </metadata>
    <path id="_76871448" fill="#00C800" stroke="black" stroke-width="0.0762" stroke-linejoin="bevel" d="M180.918 43.0847c-0.2107,-4.3653 10.3481,-8.8 12.1422,-5.3613 0.3609,3.6616 -11.7171,10.7912 -12.0358,6.2175l-0.1064 -0.8562z"/>
    <path id="_66454392" fill="#00C800" stroke="black" stroke-width="0.0762" stroke-linejoin="bevel" d="M180.709 43.9304c0.3329,0.0777 -0.5001,-0.1816 -0.2936,-0.4888 1.3989,-0.7309 8.1768,-4.5047 12.4852,-5.8126 -6.842,3.195 -11.3322,5.8771 -12.1916,6.3014z"/>
   </g>
   <g id="foliole_0">
     <metadata id="CorelCorpID_3">
      <odm name="Nom" value="foliole" type="0"/>
     </metadata>
    <path id="_77545776" fill="#00C800" stroke="black" stroke-width="0.0762" stroke-linejoin="bevel" d="M181.294 87.7386c0.5479,-6.032 15.914,-10.5811 17.7206,-5.5909 -0.2063,5.0865 -18.1779,13.1177 -17.7386,6.7835l0.018 -1.1926z"/>
    <path id="_76769200" fill="#00C800" stroke="black" stroke-width="0.0762" stroke-linejoin="bevel" d="M180.844 88.8705c0.4428,0.1557 -0.6526,-0.3229 -0.3098,-0.715 2.0634,-0.7997 12.1051,-4.9944 18.2787,-6.161 -10.0187,3.3896 -16.706,6.4186 -17.9689,6.876z"/>
   </g>
   <g id="foliole_1">
     <metadata id="CorelCorpID_4">
      <odm name="Nom" value="foliole" type="0"/>
     </metadata>
    <path id="_77180864" fill="#00C800" stroke="black" stroke-width="0.0762" stroke-linejoin="bevel" d="M183.952 130.517c0.5479,-6.032 15.914,-10.5811 17.7206,-5.5909 -0.2063,5.0865 -18.1779,13.1177 -17.7386,6.7835l0.018 -1.1926z"/>
    <path id="_66858128" fill="#00C800" stroke="black" stroke-width="0.0762" stroke-linejoin="bevel" d="M183.502 131.649c0.4428,0.1557 -0.6526,-0.3229 -0.3098,-0.715 2.0634,-0.7997 12.1051,-4.9944 18.2787,-6.161 -10.0187,3.3896 -16.706,6.4186 -17.9689,6.876z"/>
   </g>
   <g id="foliole_2">
     <metadata id="CorelCorpID_5">
      <odm name="Nom" value="foliole" type="0"/>
     </metadata>
    <path id="_76880528" fill="#00C800" stroke="black" stroke-width="0.0762" stroke-linejoin="bevel" d="M182.187 123.066c0.5479,-6.032 15.914,-10.5811 17.7206,-5.5909 -0.2063,5.0865 -18.1779,13.1177 -17.7386,6.7835l0.018 -1.1926z"/>
    <path id="_77807328" fill="#00C800" stroke="black" stroke-width="0.0762" stroke-linejoin="bevel" d="M181.737 124.198c0.4428,0.1557 -0.6526,-0.3229 -0.3098,-0.715 2.0634,-0.7997 12.1051,-4.9944 18.2787,-6.161 -10.0187,3.3896 -16.706,6.4186 -17.9689,6.876z"/>
   </g>
   <g id="foliole_3">
     <metadata id="CorelCorpID_6">
      <odm name="Nom" value="foliole" type="0"/>
     </metadata>
    <path id="_76913976" fill="#00C800" stroke="black" stroke-width="0.0762" stroke-linejoin="bevel" d="M181.459 114.843c0.5479,-6.032 15.914,-10.5811 17.7206,-5.5909 -0.2063,5.0865 -18.1779,13.1177 -17.7386,6.7835l0.018 -1.1926z"/>
    <path id="_66467352" fill="#00C800" stroke="black" stroke-width="0.0762" stroke-linejoin="bevel" d="M181.01 115.975c0.4428,0.1557 -0.6526,-0.3229 -0.3098,-0.715 2.0634,-0.7997 12.1051,-4.9944 18.2787,-6.161 -10.0187,3.3896 -16.706,6.4186 -17.9689,6.876z"/>
   </g>
   <g id="foliole_4">
     <metadata id="CorelCorpID_7">
      <odm name="Nom" value="foliole" type="0"/>
     </metadata>
    <path id="_76491448" fill="#00C800" stroke="black" stroke-width="0.0762" stroke-linejoin="bevel" d="M180.996 106.263c0.5479,-6.032 15.914,-10.5811 17.7206,-5.5909 -0.2063,5.0865 -18.1779,13.1177 -17.7386,6.7835l0.018 -1.1926z"/>
    <path id="_77014040" fill="#00C800" stroke="black" stroke-width="0.0762" stroke-linejoin="bevel" d="M180.546 107.395c0.4428,0.1557 -0.6526,-0.3229 -0.3098,-0.715 2.0634,-0.7997 12.1051,-4.9944 18.2787,-6.161 -10.0187,3.3896 -16.706,6.4186 -17.9689,6.876z"/>
   </g>
   <g id="foliole_5">
     <metadata id="CorelCorpID_8">
      <odm name="Nom" value="foliole" type="0"/>
     </metadata>
    <path id="_77029840" fill="#00C800" stroke="black" stroke-width="0.0762" stroke-linejoin="bevel" d="M180.968 97.0814c0.5479,-6.032 15.914,-10.5811 17.7206,-5.5909 -0.2063,5.0865 -18.1779,13.1177 -17.7386,6.7835l0.018 -1.1926z"/>
    <path id="_76981624" fill="#00C800" stroke="black" stroke-width="0.0762" stroke-linejoin="bevel" d="M180.518 98.2133c0.4428,0.1557 -0.6526,-0.3229 -0.3098,-0.715 2.0634,-0.7997 12.1051,-4.9944 18.2787,-6.161 -10.0187,3.3896 -16.706,6.4186 -17.9689,6.876z"/>
   </g>
   <g id="foliole_6">
     <metadata id="CorelCorpID_9">
      <odm name="Nom" value="foliole" type="0"/>
     </metadata>
    <path id="_76922048" fill="#00C800" stroke="black" stroke-width="0.0762" stroke-linejoin="bevel" d="M181.542 68.8245c0.5479,-6.032 15.914,-10.5811 17.7206,-5.5909 -0.2063,5.0865 -18.1779,13.1177 -17.7386,6.7835l0.018 -1.1926z"/>
    <path id="_77228560" fill="#00C800" stroke="black" stroke-width="0.0762" stroke-linejoin="bevel" d="M181.092 69.9564c0.4428,0.1557 -0.6526,-0.3229 -0.3098,-0.715 2.0634,-0.7997 12.1051,-4.9944 18.2787,-6.161 -10.0187,3.3896 -16.706,6.4186 -17.9689,6.876z"/>
   </g>
   <g id="foliole_7">
     <metadata id="CorelCorpID_10">
      <odm name="Nom" value="foliole" type="0"/>
     </metadata>
    <path id="_76656592" fill="#00C800" stroke="black" stroke-width="0.0762" stroke-linejoin="bevel" d="M181.18 51.4327c-0.2444,-5.0656 12.0082,-10.2117 14.0901,-6.2213 0.4188,4.2489 -13.5967,12.5223 -13.9666,7.2149l-0.1235 -0.9936z"/>
    <path id="_76849160" fill="#00C800" stroke="black" stroke-width="0.0762" stroke-linejoin="bevel" d="M180.937 52.4141c0.3863,0.0902 -0.5803,-0.2107 -0.3407,-0.5673 1.6233,-0.8481 9.4885,-5.2273 14.488,-6.7449 -7.9396,3.7075 -13.15,6.8197 -14.1473,7.3122z"/>
   </g>
   <g id="foliole_8">
     <metadata id="CorelCorpID_11">
      <odm name="Nom" value="foliole" type="0"/>
     </metadata>
    <path id="_76996240" fill="#00C800" stroke="black" stroke-width="0.0762" stroke-linejoin="bevel" d="M181.244 59.8143c-0.279,-5.7822 13.7068,-11.6563 16.0832,-7.1014 0.478,4.8499 -15.5201,14.2937 -15.9423,8.2355l-0.1409 -1.1341z"/>
    <path id="_76625656" fill="#00C800" stroke="black" stroke-width="0.0762" stroke-linejoin="bevel" d="M180.967 60.9345c0.441,0.1029 -0.6624,-0.2405 -0.3889,-0.6475 1.853,-0.9681 10.8308,-5.9668 16.5375,-7.6991 -9.0627,4.2319 -15.0102,7.7845 -16.1486,8.3466z"/>
   </g>
   <g id="foliole_9">
     <metadata id="CorelCorpID_12">
      <odm name="Nom" value="foliole" type="0"/>
     </metadata>
    <path id="_67149720" fill="#00C800" stroke="black" stroke-width="0.0762" stroke-linejoin="bevel" d="M181.466 78.5781c0.5479,-6.032 15.914,-10.5811 17.7206,-5.5909 -0.2063,5.0865 -18.1779,13.1177 -17.7386,6.7835l0.018 -1.1926z"/>
    <path id="_77135792" fill="#00C800" stroke="black" stroke-width="0.0762" stroke-linejoin="bevel" d="M181.016 79.71c0.4428,0.1557 -0.6526,-0.3229 -0.3098,-0.715 2.0634,-0.7997 12.1051,-4.9944 18.2787,-6.161 -10.0187,3.3896 -16.706,6.4186 -17.9689,6.876z"/>
   </g>
   <g id="foliole_10">
     <metadata id="CorelCorpID_13">
      <odm name="Nom" value="foliole" type="0"/>
     </metadata>
    <path id="_65729560" fill="#00C800" stroke="black" stroke-width="0.0762" stroke-linejoin="bevel" d="M180.466 131.644c-0.5479,-6.032 -15.914,-10.5811 -17.7206,-5.5909 0.2063,5.0865 18.1779,13.1177 17.7386,6.7835l-0.018 -1.1926z"/>
    <path id="_66881384" fill="#00C800" stroke="black" stroke-width="0.0762" stroke-linejoin="bevel" d="M180.916 132.776c-0.4428,0.1557 0.6526,-0.3229 0.3098,-0.715 -2.0634,-0.7997 -12.1051,-4.9944 -18.2787,-6.161 10.0187,3.3896 16.706,6.4186 17.9689,6.876z"/>
   </g>
   <g id="foliole_11">
     <metadata id="CorelCorpID_14">
      <odm name="Nom" value="foliole" type="0"/>
     </metadata>
    <path id="_76845112" fill="#00C800" stroke="black" stroke-width="0.0762" stroke-linejoin="bevel" d="M177.875 123.629c-0.5479,-6.032 -15.914,-10.5811 -17.7206,-5.5909 0.2063,5.0865 18.1779,13.1177 17.7386,6.7835l-0.018 -1.1926z"/>
    <path id="_77067360" fill="#00C800" stroke="black" stroke-width="0.0762" stroke-linejoin="bevel" d="M178.325 124.761c-0.4428,0.1557 0.6526,-0.3229 0.3098,-0.715 -2.0634,-0.7997 -12.1051,-4.9944 -18.2787,-6.161 10.0187,3.3896 16.706,6.4186 17.9689,6.876z"/>
   </g>
   <g id="foliole_12">
     <metadata id="CorelCorpID_15">
      <odm name="Nom" value="foliole" type="0"/>
     </metadata>
    <path id="_65040088" fill="#00C800" stroke="black" stroke-width="0.0762" stroke-linejoin="bevel" d="M176.493 114.423c-0.5479,-6.032 -15.914,-10.5811 -17.7206,-5.5909 0.2063,5.0865 18.1779,13.1177 17.7386,6.7835l-0.018 -1.1926z"/>
    <path id="_45490224" fill="#00C800" stroke="black" stroke-width="0.0762" stroke-linejoin="bevel" d="M176.943 115.555c-0.4428,0.1557 0.6526,-0.3229 0.3098,-0.715 -2.0634,-0.7997 -12.1051,-4.9944 -18.2787,-6.161 10.0187,3.3896 16.706,6.4186 17.9689,6.876z"/>
   </g>
   <g id="foliole_13">
     <metadata id="CorelCorpID_16">
      <odm name="Nom" value="foliole" type="0"/>
     </metadata>
    <path id="_76916552" fill="#00C800" stroke="black" stroke-width="0.0762" stroke-linejoin="bevel" d="M176.048 105.353c-0.5479,-6.032 -15.914,-10.5811 -17.7206,-5.5909 0.2063,5.0865 18.1779,13.1177 17.7386,6.7835l-0.018 -1.1926z"/>
    <path id="_77610696" fill="#00C800" stroke="black" stroke-width="0.0762" stroke-linejoin="bevel" d="M176.498 106.485c-0.4428,0.1557 0.6526,-0.3229 0.3098,-0.715 -2.0634,-0.7997 -12.1051,-4.9944 -18.2787,-6.161 10.0187,3.3896 16.706,6.4186 17.9689,6.876z"/>
   </g>
   <g id="foliole_14">
     <metadata id="CorelCorpID_17">
      <odm name="Nom" value="foliole" type="0"/>
     </metadata>
    <path id="_65830448" fill="#00C800" stroke="black" stroke-width="0.0762" stroke-linejoin="bevel" d="M176.308 96.2649c-0.5479,-6.032 -15.914,-10.5811 -17.7206,-5.5909 0.2063,5.0865 18.1779,13.1177 17.7386,6.7835l-0.018 -1.1926z"/>
    <path id="_76877920" fill="#00C800" stroke="black" stroke-width="0.0762" stroke-linejoin="bevel" d="M176.758 97.3968c-0.4428,0.1557 0.6526,-0.3229 0.3098,-0.715 -2.0634,-0.7997 -12.1051,-4.9944 -18.2787,-6.161 10.0187,3.3896 16.706,6.4186 17.9689,6.876z"/>
   </g>
   <g id="foliole_15">
     <metadata id="CorelCorpID_18">
      <odm name="Nom" value="foliole" type="0"/>
     </metadata>
    <path id="_76991944" fill="#00C800" stroke="black" stroke-width="0.0762" stroke-linejoin="bevel" d="M176.925 86.1499c-0.5479,-6.032 -15.914,-10.5811 -17.7206,-5.5909 0.2063,5.0865 18.1779,13.1177 17.7386,6.7835l-0.018 -1.1926z"/>
    <path id="_67142696" fill="#00C800" stroke="black" stroke-width="0.0762" stroke-linejoin="bevel" d="M177.375 87.2818c-0.4428,0.1557 0.6526,-0.3229 0.3098,-0.715 -2.0634,-0.7997 -12.1051,-4.9944 -18.2787,-6.161 10.0187,3.3896 16.706,6.4186 17.9689,6.876z"/>
   </g>
   <g id="foliole_16">
     <metadata id="CorelCorpID_19">
      <odm name="Nom" value="foliole" type="0"/>
     </metadata>
    <path id="_66396904" fill="#00C800" stroke="black" stroke-width="0.0762" stroke-linejoin="bevel" d="M177.937 77.2534c-0.5479,-6.032 -15.914,-10.5811 -17.7206,-5.5909 0.2063,5.0865 18.1779,13.1177 17.7386,6.7835l-0.018 -1.1926z"/>
    <path id="_66364928" fill="#00C800" stroke="black" stroke-width="0.0762" stroke-linejoin="bevel" d="M178.387 78.3853c-0.4428,0.1557 0.6526,-0.3229 0.3098,-0.715 -2.0634,-0.7997 -12.1051,-4.9944 -18.2787,-6.161 10.0187,3.3896 16.706,6.4186 17.9689,6.876z"/>
   </g>
   <g id="foliole_17">
     <metadata id="CorelCorpID_20">
      <odm name="Nom" value="foliole" type="0"/>
     </metadata>
    <path id="_77220232" fill="#00C800" stroke="black" stroke-width="0.0762" stroke-linejoin="bevel" d="M178.442 67.9185c-0.5479,-6.032 -15.914,-10.5811 -17.7206,-5.5909 0.2063,5.0865 18.1779,13.1177 17.7386,6.7835l-0.018 -1.1926z"/>
    <path id="_76961072" fill="#00C800" stroke="black" stroke-width="0.0762" stroke-linejoin="bevel" d="M178.892 69.0504c-0.4428,0.1557 0.6526,-0.3229 0.3098,-0.715 -2.0634,-0.7997 -12.1051,-4.9944 -18.2787,-6.161 10.0187,3.3896 16.706,6.4186 17.9689,6.876z"/>
   </g>
   <g id="foliole_18">
     <metadata id="CorelCorpID_21">
      <odm name="Nom" value="foliole" type="0"/>
     </metadata>
    <path id="_65501008" fill="#00C800" stroke="black" stroke-width="0.0762" stroke-linejoin="bevel" d="M178.901 59.6217c0.2672,-5.5388 -13.1298,-11.1655 -15.4061,-6.8024 -0.4579,4.6457 14.8667,13.6919 15.2711,7.8887l0.135 -1.0863z"/>
    <path id="_77064016" fill="#00C800" stroke="black" stroke-width="0.0762" stroke-linejoin="bevel" d="M179.166 60.6947c-0.4224,0.0986 0.6345,-0.2304 0.3725,-0.6202 -1.775,-0.9273 -10.3748,-5.7156 -15.8412,-7.375 8.6811,4.0538 14.3783,7.4568 15.4687,7.9952z"/>
   </g>
   <g id="foliole_19">
     <metadata id="CorelCorpID_22">
      <odm name="Nom" value="foliole" type="0"/>
     </metadata>
    <path id="_65789376" fill="#00C800" stroke="black" stroke-width="0.0762" stroke-linejoin="bevel" d="M179.35 51.2561c0.2552,-5.2896 -12.539,-10.6631 -14.7129,-6.4963 -0.4373,4.4367 14.1977,13.0757 14.584,7.5337l0.1289 -1.0374z"/>
    <path id="_76861432" fill="#00C800" stroke="black" stroke-width="0.0762" stroke-linejoin="bevel" d="M179.604 52.2808c-0.4034,0.0942 0.6059,-0.22 0.3557,-0.5923 -1.6951,-0.8856 -9.9079,-5.4584 -15.1284,-7.0431 8.2905,3.8714 13.7313,7.1212 14.7727,7.6354z"/>
   </g>
   <g id="foliole_20">
     <metadata id="CorelCorpID_23">
      <odm name="Nom" value="foliole" type="0"/>
     </metadata>
    <path id="_77815232" fill="#00C800" stroke="black" stroke-width="0.0762" stroke-linejoin="bevel" d="M179.639 43.0691c0.2155,-4.4661 -10.5867,-9.003 -12.4222,-5.4849 -0.3692,3.7459 11.9872,11.0399 12.3133,6.3608l0.1089 -0.8759z"/>
    <path id="_76690144" fill="#00C800" stroke="black" stroke-width="0.0762" stroke-linejoin="bevel" d="M179.853 43.9342c-0.3406,0.0796 0.5116,-0.1857 0.3004,-0.5001 -1.4312,-0.7476 -8.3654,-4.6085 -12.7731,-5.9465 6.9998,3.2686 11.5934,6.0125 12.4727,6.4466z"/>
   </g>
  </g>
  <g id="LftNb_5" onclick="parent.replacechar('LftNb_5')" onmousemove="parent.showtooltip('LftNb_5', 'Less than 5 pairs of leaflets')" onmouseout="parent.hidetooltip('LftNb_5')" cursor="pointer" >
   <path id="Rachis_21" fill="#00C800" stroke="black" stroke-width="0.0762" stroke-linejoin="bevel" d="M61.239 89.0625c-0.4461,-69.298 -1.0929,-23.0254 -2.7215,0.1131 -2.8131,20.4106 -2.1195,48.5772 10.5253,54.4957 1.2175,-0.7631 -0.1638,0.0316 1.2904,-2.137 0.9435,-3.0112 -0.6272,1.9255 -5.4613,-6.0387 -5.2303,-7.9624 -4.6749,-26.2616 -3.6329,-46.4331z">
    <metadata id="CorelCorpID_24">
     <odm name="Nom" value="Rachis" type="0"/>
    </metadata>
   </path>
   <g id="foliole_22">
     <metadata id="CorelCorpID_25">
      <odm name="Nom" value="foliole" type="0"/>
     </metadata>
    <path id="_77219672" fill="#00C800" stroke="black" stroke-width="0.0762" stroke-linejoin="bevel" d="M58.2452 76.9357c-0.7418,-8.1659 -21.5439,-14.3244 -23.9896,-7.5687 0.2793,6.8858 24.6087,17.7582 24.0139,9.1832l-0.0243 -1.6145z"/>
    <path id="_76425272" fill="#00C800" stroke="black" stroke-width="0.0762" stroke-linejoin="bevel" d="M58.8541 78.468c-0.5994,0.2107 0.8835,-0.4371 0.4195,-0.968 -2.7933,-1.0826 -16.3874,-6.7613 -24.7451,-8.3404 13.563,4.5886 22.616,8.6892 24.3256,9.3084z"/>
   </g>
   <g id="foliole_23">
     <metadata id="CorelCorpID_26">
      <odm name="Nom" value="foliole" type="0"/>
     </metadata>
    <path id="_66397664" fill="#00C800" stroke="black" stroke-width="0.0762" stroke-linejoin="bevel" d="M56.5514 98.2423c-0.9012,-9.9209 -26.1742,-17.4029 -29.1456,-9.1954 0.3394,8.3658 29.8978,21.575 29.1752,11.157l-0.0296 -1.9616z"/>
    <path id="_77228920" fill="#00C800" stroke="black" stroke-width="0.0762" stroke-linejoin="bevel" d="M57.2913 100.104c-0.7283,0.256 1.0733,-0.531 0.5095,-1.176 -3.3936,-1.3152 -19.9094,-8.2144 -30.0634,-10.133 16.4781,5.5748 27.4767,10.5567 29.5539,11.309z"/>
   </g>
   <g id="foliole_24">
     <metadata id="CorelCorpID_27">
      <odm name="Nom" value="foliole" type="0"/>
     </metadata>
    <path id="_45410624" fill="#00C800" stroke="black" stroke-width="0.0762" stroke-linejoin="bevel" d="M57.6835 123.698c-1.0546,-11.6088 -30.6272,-20.3637 -34.1041,-10.7598 0.3971,9.789 34.9842,25.2455 34.1387,13.0551l-0.0346 -2.2953z"/>
    <path id="_65763208" fill="#00C800" stroke="black" stroke-width="0.0762" stroke-linejoin="bevel" d="M58.5492 125.876c-0.8521,0.2996 1.256,-0.6214 0.5963,-1.3761 -3.971,-1.539 -23.2966,-9.612 -35.1781,-11.8569 19.2815,6.5232 32.1513,12.3527 34.5818,13.233z"/>
   </g>
   <g id="foliole_25">
     <metadata id="CorelCorpID_28">
      <odm name="Nom" value="foliole" type="0"/>
     </metadata>
    <path id="_67078232" fill="#00C800" stroke="black" stroke-width="0.0762" stroke-linejoin="bevel" d="M61.7584 77.1298c0.7418,-8.1659 21.5439,-14.3243 23.9896,-7.5687 -0.2793,6.8858 -24.6087,17.7583 -24.014,9.1833l0.0244 -1.6146z"/>
    <path id="_77542752" fill="#00C800" stroke="black" stroke-width="0.0762" stroke-linejoin="bevel" d="M61.1494 78.6622c0.5994,0.2107 -0.8834,-0.4371 -0.4194,-0.968 2.7933,-1.0826 16.3874,-6.7613 24.7451,-8.3405 -13.5631,4.5887 -22.616,8.6893 -24.3257,9.3085z"/>
   </g>
   <g id="foliole_26">
     <metadata id="CorelCorpID_29">
      <odm name="Nom" value="foliole" type="0"/>
     </metadata>
    <path id="_76673136" fill="#00C800" stroke="black" stroke-width="0.0762" stroke-linejoin="bevel" d="M61.1958 98.5693c0.9012,-9.921 26.1742,-17.403 29.1455,-9.1954 -0.3393,8.3657 -29.8977,21.5749 -29.1751,11.1569l0.0296 -1.9615z"/>
    <path id="_77768320" fill="#00C800" stroke="black" stroke-width="0.0762" stroke-linejoin="bevel" d="M60.4559 100.431c0.7282,0.256 -1.0733,-0.531 -0.5096,-1.176 3.3937,-1.3152 19.9095,-8.2144 30.0634,-10.133 -16.478,5.5748 -27.4767,10.5567 -29.5538,11.309z"/>
   </g>
   <g id="foliole_27">
     <metadata id="CorelCorpID_30">
      <odm name="Nom" value="foliole" type="0"/>
     </metadata>
    <path id="_77607392" fill="#00C800" stroke="black" stroke-width="0.0762" stroke-linejoin="bevel" d="M62.3164 123.373c1.0545,-11.6088 30.6272,-20.3637 34.1041,-10.7598 -0.3971,9.789 -34.9842,25.2456 -34.1388,13.0551l0.0347 -2.2953z"/>
    <path id="_77787072" fill="#00C800" stroke="black" stroke-width="0.0762" stroke-linejoin="bevel" d="M61.4506 125.551c0.8521,0.2996 -1.2559,-0.6214 -0.5962,-1.3761 3.971,-1.539 23.2966,-9.6119 35.178,-11.8569 -19.2814,6.5232 -32.1513,12.3527 -34.5818,13.233z"/>
   </g>
   <g id="foliole_28">
     <metadata id="CorelCorpID_31">
      <odm name="Nom" value="foliole" type="0"/>
     </metadata>
    <path id="_76572528" fill="#00C800" stroke="black" stroke-width="0.0762" stroke-linejoin="bevel" d="M58.7014 63.4239c-5.9307,-2.9546 -3.0517,-20.1408 2.826,-19.9671 5.111,2.2345 6.4556,18.2074 -0.6896,20.5266l-2.1364 -0.5595z"/>
    <path id="_66750264" fill="#00C800" stroke="black" stroke-width="0.0762" stroke-linejoin="bevel" d="M61.0107 64.3917c0.3494,-0.3829 -1.0311,0.5284 -1.2847,0.0277 0.0694,-2.3919 0.0972,-14.1532 1.5582,-20.8211 -0.8411,11.4173 -0.1983,19.3422 -0.2735,20.7934z"/>
   </g>
  </g>
 </g>
<image xlink:href="tick.gif" id="imgtick" x="-100" y="-100" width="15" height="15"/>
<rect id="recttooltip" x="-100" y="-100" width="55" height="6" fill-opacity="0.4" pointer-events="none"/>
<text id="textboxid" x="-100" y="-100" pointer-events="none"> </text>
</a></svg>
