<?xml version="1.0" encoding="UTF-8"?>
<!DOCTYPE svg PUBLIC "-//W3C//DTD SVG 1.1//EN" "http://www.w3.org/Graphics/SVG/1.1/DTD/svg11.dtd">
<!-- Creator: CorelDRAW -->
<svg xmlns="http://www.w3.org/2000/svg" xml:space="preserve" shape-rendering="geometricPrecision" text-rendering="geometricPrecision" image-rendering="optimizeQuality" fill-rule="evenodd" clip-rule="evenodd"
viewBox="0 0 240 180"
 xmlns:xlink="http://www.w3.org/1999/xlink">
<a>
 <g id="Layer_x0020_1">
  <metadata id="CorelCorpID_0Corel-Layer"/>
  <rect fill="none" width="240" height="180"/>
  <g id="LfGlands_Opaque" onclick="parent.replacechar('LfGlands_Opaque')" onmousemove="parent.showtooltip('LfGlands_Opaque', 'Glands opaque')" onmouseout="parent.hidetooltip('LfGlands_Opaque')" cursor="pointer" >
   <path id="limbe" fill="#A6D10D" stroke="black" stroke-width="0.0762" d="M201.777 100.414c8.9884,16.3974 14.563,33.0762 20.9391,48.4418 2.8179,6.9214 5.2045,13.82 7.1337,20.7317l-60.534 0 0 -69.1735 32.4612 0z"/>
   <path id="cadre" fill="#CCCCCC" fill-rule="nonzero" stroke="#CCCCCC" stroke-width="0.0762" d="M169.315 100.414l61.369 0 0 69.1735 -61.369 0 0 -69.1735zm61.308 0.061l-61.2469 0 0 69.0514 61.2469 0 0 -69.0514z"/>
   <g id="n_x0020_sommet_x0020_II">
    <path id="_59906928" fill="#CCCCCC" fill-rule="nonzero" stroke="black" stroke-width="0.0762" d="M210.648 169.027c1.8505,-4.456 3.2037,-8.556 4.0853,-12.419 3.0884,-13.5309 0.4077,-24.1688 -6.8065,-37.0991l0.107 -0.0581c7.229,12.9569 9.915,23.6185 6.8188,37.1835 -0.8802,3.8563 -2.2289,7.9478 -4.0727,12.3927l-0.1319 0z"/>
    <path id="_59905848" fill="#CCCCCC" fill-rule="nonzero" stroke="black" stroke-width="0.0762" d="M195.032 169.106c6.2063,-12.1277 10.3045,-23.0482 12.0539,-32.6687 2.4245,-13.3316 0.3397,-24.1681 -6.8901,-32.2674l0.0913 -0.0804c7.2567,8.1296 9.3504,18.9998 6.919,32.3691 -1.7489,9.6179 -5.841,20.5307 -12.037,32.6474l-0.1371 0z"/>
    <path id="_59904632" fill="#CCCCCC" fill-rule="nonzero" stroke="black" stroke-width="0.0762" d="M186.304 154.081c6.4389,-12.3584 11.8845,-24.098 13.856,-34.2704 1.3898,-7.1707 1.0516,-13.5623 -1.8833,-18.8431l0.1412 0c2.9197,5.2945 3.2524,11.6928 1.8623,18.8657 -1.9742,10.1864 -7.424,21.9358 -13.8676,34.3032l-0.1086 -0.0554z"/>
    <path id="_59902936" fill="#CCCCCC" fill-rule="nonzero" stroke="black" stroke-width="0.0762" d="M186.562 126.724c4.7551,-12.8937 7.1544,-20.6838 7.4208,-25.7562l0.1225 0c-0.2661,5.0871 -2.6682,12.8883 -7.4286,25.7965l-0.1147 -0.0403z"/>
   </g>
   <g id="n_x0020_sommet_x0020_II_0">
    <path id="_59901608" fill="#CCCCCC" fill-rule="nonzero" stroke="black" stroke-width="0.0762" d="M177.074 169.145c-2.8997,-6.26 -5.294,-12.2056 -7.1532,-17.8253l0 -0.3651c1.8779,5.7267 4.3143,11.7941 7.2793,18.1904l-0.1261 0zm-7.1532 -62.1918c0.8882,-1.5168 1.9042,-2.9598 3.0531,-4.3259l0.0834 0.0811c-1.1855,1.4095 -2.2296,2.9008 -3.1365,4.4717l0 -0.2269z"/>
    <path id="_59900528" fill="#CCCCCC" fill-rule="nonzero" stroke="black" stroke-width="0.0762" d="M186.156 153.635c-6.4338,-12.6034 -11.8574,-24.577 -13.7389,-34.9583 -1.203,-6.6376 -0.9579,-12.624 1.3937,-17.7091l0.1353 0c-2.3627,5.0735 -2.6113,11.0536 -1.4088,17.6878 1.879,10.367 7.2985,22.3309 13.7277,34.9252l-0.109 0.0544z"/>
    <path id="_59898832" fill="#CCCCCC" fill-rule="nonzero" stroke="black" stroke-width="0.0762" d="M186.265 125.735c-4.2855,-11.9897 -6.6913,-19.6197 -7.3049,-24.7678l0.1227 0c0.6144,5.1352 3.0178,12.7548 7.2976,24.7285l-0.1154 0.0393z"/>
   </g>
   <polygon id="nerv_x0020_I" fill="black" points="186.643,100.414 186.643,169.587 185.262,169.587 185.262,100.414 "/>
   <ellipse id="_59896544" fill="#CEF794" stroke="#7F7F7F" stroke-width="0.0762" transform="matrix(1.89171 0.398882 -0.398882 1.89171 193.514 125.794)" rx="0.9281" ry="1.9051"/>
   <ellipse id="_59895552" fill="#CEF794" stroke="#7F7F7F" stroke-width="0.0762" transform="matrix(1.89171 0.398882 -0.398882 1.89171 193.514 152.787)" rx="0.9281" ry="1.9051"/>
   <ellipse id="_59894568" fill="#CEF794" stroke="#7F7F7F" stroke-width="0.0762" transform="matrix(1.89171 0.398882 -0.398882 1.89171 203.619 130.531)" rx="0.9281" ry="1.9051"/>
   <ellipse id="_59893584" fill="#CEF794" stroke="#7F7F7F" stroke-width="0.0762" transform="matrix(1.89171 0.398882 -0.398882 1.89171 209.062 153.475)" rx="0.9281" ry="1.9051"/>
   <ellipse id="_59892464" fill="#CEF794" stroke="#7F7F7F" stroke-width="0.0762" transform="matrix(1.89171 0.398882 -0.398882 1.89171 221.068 162.321)" rx="0.9281" ry="1.9051"/>
   <ellipse id="_59891472" fill="#CEF794" stroke="#7F7F7F" stroke-width="0.0762" transform="matrix(1.89171 0.398882 -0.398882 1.89171 189.251 104.794)" rx="0.9281" ry="1.9051"/>
   <ellipse id="_59890488" fill="#CEF794" stroke="#7F7F7F" stroke-width="0.0762" transform="matrix(-1.89171 0.398882 0.398882 1.89171 178.089 118.081)" rx="0.9281" ry="1.9051"/>
   <ellipse id="_59889672" fill="#CEF794" stroke="#7F7F7F" stroke-width="0.0762" transform="matrix(-1.89171 0.398882 0.398882 1.89171 173.561 135.886)" rx="0.9281" ry="1.9051"/>
   <ellipse id="_59888200" fill="#CEF794" stroke="#7F7F7F" stroke-width="0.0762" transform="matrix(-1.89171 0.398882 0.398882 1.89171 178.089 160.5)" rx="0.9281" ry="1.9051"/>
  </g>
  <g id="LfGlands_Margin" onclick="parent.replacechar('LfGlands_Margin')" onmousemove="parent.showtooltip('LfGlands_Margin', 'Margin glands')" onmouseout="parent.hidetooltip('LfGlands_Margin')" cursor="pointer" >
   <path id="limbe_1" fill="#A6D10D" stroke="black" stroke-width="0.0762" d="M121.777 100.413c8.9884,16.3975 14.5631,33.0763 20.9392,48.4418 2.8179,6.9215 5.2044,13.8201 7.1336,20.7317l-60.5339 0 0 -69.1735 32.4611 0z"/>
   <path id="cadre_2" fill="#CCCCCC" fill-rule="nonzero" stroke="#CCCCCC" stroke-width="0.0762" d="M89.3155 100.413l61.369 0 0 69.1735 -61.369 0 0 -69.1735zm61.3079 0.0611l-61.2469 0 0 69.0514 61.2469 0 0 -69.0514z"/>
   <g id="n_x0020_sommet_x0020_II_3">
    <path id="_59884656" fill="#CCCCCC" fill-rule="nonzero" stroke="black" stroke-width="0.0762" d="M130.648 169.027c1.8505,-4.456 3.2037,-8.5559 4.0853,-12.419 3.0883,-13.5308 0.4076,-24.1687 -6.8066,-37.099l0.1071 -0.0582c7.2289,12.957 9.9149,23.6186 6.8187,37.1836 -0.8802,3.8562 -2.2289,7.9477 -4.0726,12.3926l-0.1319 0z"/>
    <path id="_59883576" fill="#CCCCCC" fill-rule="nonzero" stroke="black" stroke-width="0.0762" d="M115.032 169.106c6.2062,-12.1276 10.3044,-23.0481 12.0539,-32.6687 2.4244,-13.3315 0.3396,-24.1681 -6.8901,-32.2674l0.0912 -0.0804c7.2568,8.1297 9.3504,18.9999 6.9191,32.3692 -1.749,9.6179 -5.8411,20.5307 -12.0371,32.6473l-0.137 0z"/>
    <path id="_59882496" fill="#CCCCCC" fill-rule="nonzero" stroke="black" stroke-width="0.0762" d="M106.304 154.081c6.4389,-12.3585 11.8846,-24.098 13.856,-34.2705 1.3899,-7.1706 1.0517,-13.5622 -1.8832,-18.8431l0.1412 0c2.9196,5.2946 3.2524,11.6928 1.8622,18.8657 -1.9742,10.1864 -7.424,21.9359 -13.8676,34.3032l-0.1086 -0.0553z"/>
    <path id="_59880672" fill="#CCCCCC" fill-rule="nonzero" stroke="black" stroke-width="0.0762" d="M106.562 126.724c4.755,-12.8937 7.1544,-20.6839 7.4208,-25.7563l0.1224 0c-0.2661,5.0872 -2.6682,12.8884 -7.4285,25.7965l-0.1147 -0.0402z"/>
   </g>
   <g id="n_x0020_sommet_x0020_II_4">
    <path id="_59879344" fill="#CCCCCC" fill-rule="nonzero" stroke="black" stroke-width="0.0762" d="M97.0737 169.145c-2.8996,-6.2599 -5.2939,-12.2055 -7.1531,-17.8253l0 -0.365c1.8779,5.7267 4.3143,11.7941 7.2792,18.1903l-0.1261 0zm-7.1531 -62.1918c0.8881,-1.5168 1.9041,-2.9597 3.0531,-4.3258l0.0833 0.081c-1.1854,1.4096 -2.2296,2.9009 -3.1364,4.4718l0 -0.227z"/>
    <path id="_59878264" fill="#CCCCCC" fill-rule="nonzero" stroke="black" stroke-width="0.0762" d="M106.156 153.635c-6.4338,-12.6034 -11.8574,-24.577 -13.7389,-34.9583 -1.203,-6.6376 -0.958,-12.6241 1.3937,-17.7092l0.1353 0c-2.3628,5.0735 -2.6113,11.0536 -1.4088,17.6879 1.8789,10.367 7.2985,22.3309 13.7276,34.9252l-0.1089 0.0544z"/>
    <path id="_59876576" fill="#CCCCCC" fill-rule="nonzero" stroke="black" stroke-width="0.0762" d="M106.265 125.735c-4.2856,-11.9898 -6.6914,-19.6198 -7.305,-24.7679l0.1228 0c0.6144,5.1352 3.0178,12.7549 7.2975,24.7286l-0.1153 0.0393z"/>
   </g>
   <polygon id="nerv_x0020_I_5" fill="black" points="106.643,100.413 106.643,169.587 105.262,169.587 105.262,100.413 "/>
   <g id="glands">
    <ellipse id="_59874456" fill="#CEF794" stroke="#7F7F7F" stroke-width="0.0762" transform="matrix(1.77506 -0.766042 0.766042 1.77506 132.942 124.326)" rx="0.9281" ry="1.9051"/>
    <ellipse id="_59873640" fill="#CEF794" stroke="#7F7F7F" stroke-width="0.0762" transform="matrix(1.77506 -0.766042 0.766042 1.77506 123.883 104.377)" rx="0.9281" ry="1.9051"/>
    <ellipse id="_59871416" fill="#CEF794" stroke="#7F7F7F" stroke-width="0.0762" transform="matrix(1.77506 -0.766042 0.766042 1.77506 140.59 143.626)" rx="0.9281" ry="1.9051"/>
    <ellipse id="_59871456" fill="#CEF794" stroke="#7F7F7F" stroke-width="0.0762" transform="matrix(1.77506 -0.766042 0.766042 1.77506 146.579 159.119)" rx="0.9281" ry="1.9051"/>
   </g>
  </g>
  <g id="LfGlands_Lamina" onclick="parent.replacechar('LfGlands_Lamina')" onmousemove="parent.showtooltip('LfGlands_Lamina', 'Surface glands on the lower side of the lamina')" onmouseout="parent.hidetooltip('LfGlands_Lamina')" cursor="pointer" >
   <path id="limbe_6" fill="#A6D10D" stroke="black" stroke-width="0.0762" d="M41.7767 100.414c8.9883,16.3974 14.5629,33.076 20.9389,48.4415 2.818,6.9214 5.2045,13.8199 7.1337,20.7315l-60.5336 0 0 -69.173 32.461 0z"/>
   <path id="cadre_7" fill="#CCCCCC" fill-rule="nonzero" stroke="#CCCCCC" stroke-width="0.0762" d="M9.3157 100.414l61.3686 0 0 69.173 -61.3686 0 0 -69.173zm61.3075 0.0611l-61.2464 0 0 69.0508 61.2464 0 0 -69.0508z"/>
   <g id="n_x0020_sommet_x0020_II_8">
    <path id="_59866800" fill="#CCCCCC" fill-rule="nonzero" stroke="black" stroke-width="0.0762" d="M50.6475 169.027c1.8505,-4.456 3.2037,-8.5559 4.0853,-12.4189 3.0884,-13.5307 0.4077,-24.1686 -6.8065,-37.0988l0.1071 -0.0581c7.2289,12.9569 9.9149,23.6184 6.8187,37.1833 -0.8802,3.8562 -2.2289,7.9477 -4.0727,12.3925l-0.1319 0z"/>
    <path id="_59865720" fill="#CCCCCC" fill-rule="nonzero" stroke="black" stroke-width="0.0762" d="M35.0324 169.105c6.2062,-12.1276 10.3043,-23.0479 12.0538,-32.6684 2.4244,-13.3315 0.3396,-24.1679 -6.8901,-32.2672l0.0913 -0.0804c7.2567,8.1296 9.3503,18.9997 6.919,32.3689 -1.749,9.6178 -5.841,20.5305 -12.037,32.6471l-0.137 0z"/>
    <path id="_59864640" fill="#CCCCCC" fill-rule="nonzero" stroke="black" stroke-width="0.0762" d="M26.3044 154.081c6.4388,-12.3584 11.8844,-24.0979 13.8559,-34.2702 1.3898,-7.1706 1.0516,-13.5621 -1.8833,-18.843l0.1413 0c2.9196,5.2945 3.2523,11.6928 1.8622,18.8656 -1.9742,10.1863 -7.424,21.9357 -13.8675,34.3029l-0.1086 -0.0553z"/>
    <path id="_59862952" fill="#CCCCCC" fill-rule="nonzero" stroke="black" stroke-width="0.0762" d="M26.5619 126.724c4.755,-12.8936 7.1544,-20.6837 7.4208,-25.7561l0.1224 0c-0.2661,5.0872 -2.6682,12.8883 -7.4285,25.7963l-0.1147 -0.0402z"/>
   </g>
   <g id="n_x0020_sommet_x0020_II_9">
    <path id="_59861624" fill="#CCCCCC" fill-rule="nonzero" stroke="black" stroke-width="0.0762" d="M17.074 169.144c-2.8997,-6.2599 -5.294,-12.2055 -7.1532,-17.8251l0 -0.3651c1.8779,5.7266 4.3143,11.794 7.2792,18.1902l-0.126 0zm-7.1532 -62.1913c0.8882,-1.5168 1.9042,-2.9597 3.0531,-4.3259l0.0834 0.0811c-1.1855,1.4096 -2.2296,2.9008 -3.1365,4.4718l0 -0.227z"/>
    <path id="_59860544" fill="#CCCCCC" fill-rule="nonzero" stroke="black" stroke-width="0.0762" d="M26.1557 153.635c-6.4337,-12.6033 -11.8573,-24.5768 -13.7388,-34.9581 -1.203,-6.6375 -0.9579,-12.6239 1.3937,-17.709l0.1353 0c-2.3627,5.0735 -2.6113,11.0535 -1.4088,17.6877 1.8789,10.367 7.2985,22.3308 13.7276,34.925l-0.109 0.0544z"/>
    <path id="_59858856" fill="#CCCCCC" fill-rule="nonzero" stroke="black" stroke-width="0.0762" d="M26.2648 125.735c-4.2855,-11.9897 -6.6913,-19.6196 -7.3049,-24.7677l0.1228 0c0.6144,5.1352 3.0178,12.7548 7.2975,24.7284l-0.1154 0.0393z"/>
   </g>
   <polygon id="nerv_x0020_I_10" fill="black" points="26.6435,100.414 26.6435,169.587 25.2624,169.587 25.2624,100.414 "/>
   <g id="glands_11">
    <ellipse id="_59856944" fill="#FFFF66" stroke="#7F7F7F" stroke-width="0.0762" transform="matrix(1.00755 -0.434817 0.434817 1.00755 16.6704 143.047)" rx="0.9281" ry="1.9051"/>
    <ellipse id="_59855992" fill="#CCCC33" stroke="#7F7F7F" stroke-width="0.0762" transform="matrix(1.00755 -0.434817 0.434817 1.00755 21.7933 157.903)" rx="0.9281" ry="1.9051"/>
    <ellipse id="_59855176" fill="#FFFF66" stroke="#7F7F7F" stroke-width="0.0762" transform="matrix(1.00755 -0.434817 0.434817 1.00755 16.4861 108.66)" rx="0.9281" ry="1.9051"/>
    <ellipse id="_59854352" fill="#CCCC33" stroke="#7F7F7F" stroke-width="0.0762" transform="matrix(1.00755 -0.434817 0.434817 1.00755 18.9869 127.301)" rx="0.9281" ry="1.9051"/>
    <ellipse id="_59853536" fill="#FFCC00" stroke="#7F7F7F" stroke-width="0.0762" transform="matrix(-1.00755 -0.434817 -0.434817 1.00755 30.1608 109.406)" rx="0.9281" ry="1.9051"/>
    <ellipse id="_59852720" fill="#FFCC00" stroke="#7F7F7F" stroke-width="0.0762" transform="matrix(-1.00755 -0.434817 -0.434817 1.00755 40.0001 143.732)" rx="0.9281" ry="1.9051"/>
    <ellipse id="_59851904" fill="#FFFF66" stroke="#7F7F7F" stroke-width="0.0762" transform="matrix(-1.00755 -0.434817 -0.434817 1.00755 34.9675 117.132)" rx="0.9281" ry="1.9051"/>
    <ellipse id="_59851088" fill="#FFFF66" stroke="#7F7F7F" stroke-width="0.0762" transform="matrix(-1.00755 -0.434817 -0.434817 1.00755 32.4278 130.979)" rx="0.9281" ry="1.9051"/>
    <ellipse id="_59850264" fill="#FFFF66" stroke="#7F7F7F" stroke-width="0.0762" transform="matrix(-1.00755 -0.434817 -0.434817 1.00755 32.4259 157.699)" rx="0.9281" ry="1.9051"/>
    <ellipse id="_59849448" fill="#CCCC33" stroke="#7F7F7F" stroke-width="0.0762" transform="matrix(-1.00755 -0.434817 -0.434817 1.00755 44.5835 162.065)" rx="0.9281" ry="1.9051"/>
    <ellipse id="_59847088" fill="#CCCC33" stroke="#7F7F7F" stroke-width="0.0762" transform="matrix(-1.00755 -0.434817 -0.434817 1.00755 49.2863 138.778)" rx="0.9281" ry="1.9051"/>
    <ellipse id="_59847128" fill="#FFFF66" stroke="#7F7F7F" stroke-width="0.0762" transform="matrix(-1.00755 -0.434817 -0.434817 1.00755 43.587 124.204)" rx="0.9281" ry="1.9051"/>
   </g>
  </g>
  <g id="LfGlands_LinesTrans" onclick="parent.replacechar('LfGlands_LinesTrans')" onmousemove="parent.showtooltip('LfGlands_LinesTrans', 'Transparent dots and lines')" onmouseout="parent.hidetooltip('LfGlands_LinesTrans')" cursor="pointer" >
   <path id="limbe_12" fill="#A6D10D" stroke="black" stroke-width="0.0762" d="M201.777 10.4353c8.9883,16.3973 14.5629,33.0759 20.9389,48.4414 2.8179,6.9214 5.2044,13.82 7.1337,20.7315l-60.5336 0 0 -69.1729 32.461 0z"/>
   <path id="cadre_13" fill="#CCCCCC" fill-rule="nonzero" stroke="#CCCCCC" stroke-width="0.0762" d="M169.316 10.4353l61.3686 0 0 69.1729 -61.3686 0 0 -69.1729zm61.3075 0.061l-61.2464 0 0 69.0509 61.2464 0 0 -69.0509z"/>
   <g id="n_x0020_sommet_x0020_II_14">
    <path id="_59842608" fill="#CCCCCC" fill-rule="nonzero" stroke="black" stroke-width="0.0762" d="M210.648 79.0484c1.8505,-4.4559 3.2037,-8.5558 4.0853,-12.4189 3.0884,-13.5307 0.4077,-24.1685 -6.8065,-37.0987l0.107 -0.0582c7.229,12.9569 9.9149,23.6184 6.8187,37.1833 -0.8801,3.8562 -2.2288,7.9477 -4.0726,12.3925l-0.1319 0z"/>
    <path id="_59841528" fill="#CCCCCC" fill-rule="nonzero" stroke="black" stroke-width="0.0762" d="M195.032 79.1269c6.2063,-12.1276 10.3044,-23.048 12.0539,-32.6685 2.4244,-13.3314 0.3396,-24.1679 -6.8901,-32.2672l0.0913 -0.0803c7.2567,8.1295 9.3503,18.9996 6.9189,32.3689 -1.7489,9.6178 -5.841,20.5305 -12.0369,32.6471l-0.1371 0z"/>
    <path id="_59840448" fill="#CCCCCC" fill-rule="nonzero" stroke="black" stroke-width="0.0762" d="M186.304 64.1024c6.4389,-12.3583 11.8845,-24.0978 13.856,-34.2702 1.3898,-7.1706 1.0516,-13.5621 -1.8833,-18.8429l0.1412 0c2.9197,5.2945 3.2524,11.6927 1.8623,18.8655 -1.9742,10.1864 -7.424,21.9357 -13.8675,34.303l-0.1087 -0.0554z"/>
    <path id="_59838976" fill="#CCCCCC" fill-rule="nonzero" stroke="black" stroke-width="0.0762" d="M186.562 36.7453c4.755,-12.8936 7.1544,-20.6837 7.4208,-25.756l0.1224 0c-0.2661,5.0871 -2.6682,12.8882 -7.4285,25.7963l-0.1147 -0.0403z"/>
   </g>
   <g id="n_x0020_sommet_x0020_II_15">
    <path id="_50593088" fill="#CCCCCC" fill-rule="nonzero" stroke="black" stroke-width="0.0762" d="M177.074 79.1661c-2.8996,-6.2599 -5.2939,-12.2055 -7.1531,-17.8252l0 -0.365c1.8779,5.7266 4.3143,11.794 7.2792,18.1902l-0.1261 0zm-7.1531 -62.1914c0.8882,-1.5168 1.9042,-2.9597 3.0531,-4.3258l0.0833 0.0811c-1.1854,1.4095 -2.2296,2.9008 -3.1364,4.4717l0 -0.227z"/>
    <path id="_50591856" fill="#CCCCCC" fill-rule="nonzero" stroke="black" stroke-width="0.0762" d="M186.156 63.6563c-6.4337,-12.6033 -11.8573,-24.5768 -13.7388,-34.958 -1.203,-6.6376 -0.9579,-12.624 1.3937,-17.709l0.1353 0c-2.3627,5.0734 -2.6113,11.0535 -1.4088,17.6877 1.8789,10.3669 7.2985,22.3307 13.7276,34.9249l-0.109 0.0544z"/>
    <path id="_50590384" fill="#CCCCCC" fill-rule="nonzero" stroke="black" stroke-width="0.0762" d="M186.265 35.7569c-4.2855,-11.9896 -6.6913,-19.6196 -7.3049,-24.7676l0.1228 0c0.6144,5.1351 3.0177,12.7547 7.2975,24.7283l-0.1154 0.0393z"/>
   </g>
   <polygon id="nerv_x0020_I_16" fill="black" points="186.644,10.4353 186.644,79.6082 185.262,79.6082 185.262,10.4353 "/>
   <g id="lines">
    <circle id="_50588296" fill="white" transform="matrix(1.00952 0.756662 -0.443145 0.0985443 189.208 45.1766)" r="1.3688"/>
    <circle id="_50587328" fill="white" transform="matrix(1.00952 0.756662 -0.443145 0.0985443 202.473 36.0994)" r="1.3688"/>
    <circle id="_50586360" fill="white" transform="matrix(1.00952 0.756662 -0.443145 0.0985443 196.764 22.4573)" r="1.3688"/>
    <circle id="_50585384" fill="white" transform="matrix(1.00952 0.756662 -0.443145 0.0985443 189.826 12.199)" r="1.3688"/>
    <circle id="_50584416" fill="white" transform="matrix(1.00952 0.756662 -0.443145 0.0985443 191.32 61.0952)" r="1.3688"/>
    <circle id="_50583448" fill="white" transform="matrix(1.00952 0.756662 -0.443145 0.0985443 205.669 61.3587)" r="1.3688"/>
    <circle id="_50582480" fill="white" transform="matrix(1.00952 0.756662 -0.443145 0.0985443 199.993 48.6118)" r="1.3688"/>
    <circle id="_50581512" fill="white" transform="matrix(1.00952 0.756662 -0.443145 0.0985443 211.741 54.9576)" r="1.3688"/>
    <circle id="_50580536" fill="white" transform="matrix(1.00952 0.756662 -0.443145 0.0985443 210.885 41.436)" r="1.3688"/>
    <circle id="_50579432" fill="white" transform="matrix(1.00952 0.756662 -0.443145 0.0985443 204.066 25.8421)" r="1.3688"/>
    <circle id="_50578464" fill="white" transform="matrix(1.00952 0.756662 -0.443145 0.0985443 201.947 75.8513)" r="1.3688"/>
    <circle id="_50577496" fill="white" transform="matrix(1.00952 0.756662 -0.443145 0.0985443 213.916 78.4503)" r="1.3688"/>
    <circle id="_50576528" fill="white" transform="matrix(1.00952 0.756662 -0.443145 0.0985443 221.589 70.1251)" r="1.3688"/>
    <circle id="_50575560" fill="white" transform="matrix(1.00952 0.756662 -0.443145 0.0985443 219.294 61.728)" r="1.3688"/>
    <circle id="_50574592" fill="white" transform="matrix(1.00952 0.756662 -0.443145 0.0985443 190.822 33.4106)" r="1.3688"/>
    <circle id="_50573624" fill="white" transform="matrix(1.00952 0.756662 -0.443145 0.0985443 192.351 76.5244)" r="1.3688"/>
    <circle id="_50572656" fill="white" transform="matrix(-1.05966 0.794246 0.465156 0.103439 179.509 35.3358)" r="1.3688"/>
    <circle id="_50571688" fill="white" transform="matrix(-1.05966 0.794246 0.465156 0.103439 171.578 11.488)" r="1.3688"/>
    <circle id="_50570720" fill="white" transform="matrix(-1.05966 0.794246 0.465156 0.103439 183.402 50.2353)" r="1.3688"/>
    <circle id="_50569616" fill="white" transform="matrix(-1.05966 0.794246 0.465156 0.103439 174.191 57.311)" r="1.3688"/>
    <circle id="_50568640" fill="white" transform="matrix(-1.05966 0.794246 0.465156 0.103439 172 41.1782)" r="1.3688"/>
    <circle id="_50567672" fill="white" transform="matrix(-1.05966 0.794246 0.465156 0.103439 174.988 49.2446)" r="1.3688"/>
    <circle id="_50566704" fill="white" transform="matrix(-1.05966 0.794246 0.465156 0.103439 181.959 75.8338)" r="1.3688"/>
    <circle id="_50565736" fill="white" transform="matrix(-1.05966 0.794246 0.465156 0.103439 172.598 75.1367)" r="1.3688"/>
    <circle id="_50564760" fill="white" transform="matrix(-1.05966 0.794246 0.465156 0.103439 176.382 19.1699)" r="1.3688"/>
    <circle id="_50563136" fill="white" transform="matrix(-1.05966 0.794246 0.465156 0.103439 181.799 63.5273)" r="1.3688"/>
   </g>
   <g id="dots">
    <circle id="_50562064" fill="white" transform="matrix(-0.433602 0.0877718 0.0877718 0.433602 200.895 12.3912)" r="1.3688"/>
    <circle id="_50561096" fill="white" transform="matrix(-0.433602 0.0877718 0.0877718 0.433602 180.764 29.8255)" r="1.3688"/>
    <circle id="_50560280" fill="white" transform="matrix(-0.433602 0.0877718 0.0877718 0.433602 172.399 36.5973)" r="1.3688"/>
    <circle id="_50559176" fill="white" transform="matrix(-0.433602 0.0877718 0.0877718 0.433602 181.027 70.9855)" r="1.3688"/>
    <circle id="_50558208" fill="white" transform="matrix(-0.433602 0.0877718 0.0877718 0.433602 221.295 76.6305)" r="1.3688"/>
    <circle id="_50557240" fill="white" transform="matrix(0.433602 0.0877718 -0.0877718 0.433602 172.1 45.5599)" r="1.3688"/>
    <circle id="_50556272" fill="white" transform="matrix(0.433602 0.0877718 -0.0877718 0.433602 199.036 38.3925)" r="1.3688"/>
    <circle id="_50555304" fill="white" transform="matrix(0.433602 0.0877718 -0.0877718 0.433602 191.916 40.6898)" r="1.3688"/>
    <circle id="_50554336" fill="white" transform="matrix(0.433602 0.0877718 -0.0877718 0.433602 219.403 59.8006)" r="1.3688"/>
    <circle id="_50553368" fill="white" transform="matrix(0.433602 0.0877718 -0.0877718 0.433602 212.332 63.8915)" r="1.3688"/>
    <circle id="_50552392" fill="white" transform="matrix(0.433602 0.0877718 -0.0877718 0.433602 196.839 59.5256)" r="1.3688"/>
    <circle id="_50551424" fill="white" transform="matrix(0.433602 0.0877718 -0.0877718 0.433602 203.518 48.7548)" r="1.3688"/>
    <circle id="_50550456" fill="white" transform="matrix(-0.428987 0.108094 0.108094 0.428987 210.938 45.1616)" r="1.3688"/>
    <circle id="_50549352" fill="white" transform="matrix(-0.428987 0.108094 0.108094 0.428987 175.585 52.7301)" r="1.3688"/>
    <circle id="_50548352" fill="white" transform="matrix(-0.428987 0.108094 0.108094 0.428987 180.863 42.2737)" r="1.3688"/>
    <circle id="_50547384" fill="white" transform="matrix(-0.428987 0.108094 0.108094 0.428987 174.49 28.1326)" r="1.3688"/>
    <circle id="_50546416" fill="white" transform="matrix(-0.428987 0.108094 0.108094 0.428987 177.975 23.2529)" r="1.3688"/>
    <circle id="_50545448" fill="white" transform="matrix(-0.428987 0.108094 0.108094 0.428987 182.457 12.9957)" r="1.3688"/>
    <circle id="_50544448" fill="white" transform="matrix(-0.428987 0.108094 0.108094 0.428987 196.97 18.1768)" r="1.3688"/>
    <circle id="_50543480" fill="white" transform="matrix(-0.428987 0.108094 0.108094 0.428987 192.247 12.6785)" r="1.3688"/>
    <circle id="_50542512" fill="white" transform="matrix(-0.428987 0.108094 0.108094 0.428987 171.466 69.47)" r="1.3688"/>
    <circle id="_50541544" fill="white" transform="matrix(-0.428987 0.108094 0.108094 0.428987 176.854 61.8527)" r="1.3688"/>
    <circle id="_50540576" fill="white" transform="matrix(-0.276464 0.0559631 0.0559631 0.276464 204.353 75.8338)" r="1.3688"/>
    <circle id="_50539472" fill="white" transform="matrix(-0.276464 0.0559631 0.0559631 0.276464 178.187 75.5351)" r="1.3688"/>
    <circle id="_50538504" fill="white" transform="matrix(-0.276464 0.0559631 0.0559631 0.276464 175.061 76.9422)" r="1.3688"/>
    <circle id="_50537536" fill="white" transform="matrix(-0.276464 0.0559631 0.0559631 0.276464 195.771 12.8899)" r="1.3688"/>
    <circle id="_50536568" fill="white" transform="matrix(-0.276464 0.0559631 0.0559631 0.276464 190.822 18.7716)" r="1.3688"/>
    <circle id="_50535600" fill="white" transform="matrix(-0.276464 0.0559631 0.0559631 0.276464 175.087 43.3691)" r="1.3688"/>
    <circle id="_50534632" fill="white" transform="matrix(-0.276464 0.0559631 0.0559631 0.276464 178.849 33.6894)" r="1.3688"/>
    <circle id="_50533664" fill="white" transform="matrix(-0.276464 0.0559631 0.0559631 0.276464 197.494 28.5309)" r="1.3688"/>
    <circle id="_50532696" fill="white" transform="matrix(-0.276464 0.0559631 0.0559631 0.276464 205.58 67.7027)" r="1.3688"/>
    <circle id="_50531728" fill="white" transform="matrix(-0.276464 0.0559631 0.0559631 0.276464 187.876 24.5546)" r="1.3688"/>
    <circle id="_50530760" fill="white" transform="matrix(0.276464 0.0559631 -0.0559631 0.276464 174.849 68.7651)" r="1.3688"/>
    <circle id="_50529656" fill="white" transform="matrix(0.276464 0.0559631 -0.0559631 0.276464 202.971 74.1408)" r="1.3688"/>
    <circle id="_50528688" fill="white" transform="matrix(0.276464 0.0559631 -0.0559631 0.276464 182.536 72.4307)" r="1.3688"/>
    <circle id="_50527688" fill="white" transform="matrix(0.276464 0.0559631 -0.0559631 0.276464 182.629 67.5726)" r="1.3688"/>
    <circle id="_50526720" fill="white" transform="matrix(-0.273521 0.0689202 0.0689202 0.273521 199.8 66.7862)" r="1.3688"/>
    <circle id="_50525752" fill="white" transform="matrix(-0.273521 0.0689202 0.0689202 0.273521 172.278 62.2356)" r="1.3688"/>
    <circle id="_50524784" fill="white" transform="matrix(-0.273521 0.0689202 0.0689202 0.273521 205.157 59.3142)" r="1.3688"/>
    <circle id="_50523784" fill="white" transform="matrix(-0.273521 0.0689202 0.0689202 0.273521 200.364 55.6487)" r="1.3688"/>
    <circle id="_50522816" fill="white" transform="matrix(-0.273521 0.0689202 0.0689202 0.273521 194.442 55.6117)" r="1.3688"/>
    <circle id="_50521848" fill="white" transform="matrix(-0.273521 0.0689202 0.0689202 0.273521 191.618 45.7591)" r="1.3688"/>
    <circle id="_50520880" fill="white" transform="matrix(-0.273521 0.0689202 0.0689202 0.273521 201.291 43.6423)" r="1.3688"/>
    <circle id="_50519744" fill="white" transform="matrix(-0.273521 0.0689202 0.0689202 0.273521 192.403 32.9127)" r="1.3688"/>
    <circle id="_50518776" fill="white" transform="matrix(-0.273521 0.0689202 0.0689202 0.273521 192.129 26.3061)" r="1.3688"/>
    <circle id="_50517808" fill="white" transform="matrix(-0.433602 0.0877718 0.0877718 0.433602 202.69 69.8879)" r="1.3688"/>
    <circle id="_50516840" fill="white" transform="matrix(0.433602 0.0877718 -0.0877718 0.433602 193.879 68.6896)" r="1.3688"/>
    <circle id="_50515728" fill="white" transform="matrix(0.433602 0.0877718 -0.0877718 0.433602 188.233 54.2238)" r="1.3688"/>
    <circle id="_50489216" fill="white" transform="matrix(-0.273521 0.0689202 0.0689202 0.273521 175.087 65.0786)" r="1.3688"/>
   </g>
   <g id="A_Sun">
    <path id="path5462" fill="#FCEF3C" fill-rule="nonzero" d="M212.001 10.4823c-0.8812,0.1574 -1.8042,0.1456 -2.8029,0 1.7329,1.2984 3.5594,1.4061 5.4551,1.0818 1.8801,-0.3219 3.7054,-0.178 5.312,0.9778 -2.1287,0.5735 -3.5564,1.6486 -4.5096,3.0589 -1.1378,1.6836 -2.6281,2.5787 -4.6242,3.084 2.0979,0.5364 3.8243,-0.0601 5.4517,-1.0853 1.6129,-1.0162 3.3542,-1.5836 5.2796,-1.1319 -1.7465,1.3444 -2.6536,2.8851 -2.9944,4.5525 -0.407,1.9909 -1.4404,3.39 -3.0912,4.6206 2.1435,-0.3072 3.5095,-1.5212 4.6206,-3.0911 1.102,-1.557 2.4952,-2.7473 4.4487,-3.0661 -1.0997,1.911 -1.3513,3.68 -1.028,5.3514 0.386,1.9949 -0.0311,3.6828 -1.0853,5.4515 1.8628,-1.1041 2.6583,-2.7485 3.084,-4.6242 0.4224,-1.861 1.2565,-3.4926 2.9407,-4.5346 -0.2851,2.1866 0.1577,3.9201 1.0961,5.3406 0.5709,0.8642 0.9178,1.7345 1.0817,2.6499l0 -18.6358 -18.6346 0z"/>
    <path id="_50432328" fill="black" fill-rule="nonzero" d="M213.426 10.5656c-0.4026,0.1539 -0.8111,0.2685 -1.2285,0.3464l-0.0014 0c-0.4402,0.0821 -0.8892,0.1241 -1.3505,0.1292 0.3806,0.1506 0.7656,0.2532 1.1542,0.3167 0.8647,0.1412 1.757,0.0884 2.6694,-0.0677 0.9744,-0.1667 1.9391,-0.2122 2.8748,-0.0652 0.9463,0.1488 1.857,0.4937 2.7094,1.1069l0.6186 0.4452 -0.7363 0.1983c-1.0214,0.2751 -1.8731,0.6695 -2.5822,1.1632 -0.7037,0.4901 -1.2684,1.0794 -1.7204,1.7482 -0.5963,0.8824 -1.2879,1.5602 -2.0937,2.0846 -0.3745,0.2437 -0.7727,0.4536 -1.1961,0.6346 0.4087,-0.0063 0.8028,-0.0583 1.1852,-0.1478 0.854,-0.2 1.6571,-0.5891 2.4387,-1.0815 0.8371,-0.5275 1.711,-0.9394 2.6304,-1.1618 0.9313,-0.2254 1.9038,-0.2562 2.9242,-0.0168l0.743 0.1743 -0.604 0.4649c-0.8387,0.6456 -1.4747,1.3366 -1.9408,2.0645 -0.4627,0.7228 -0.7588,1.4836 -0.9204,2.2741 -0.2136,1.0451 -0.5923,1.9359 -1.1345,2.7272 -0.253,0.3693 -0.5409,0.7162 -0.8634,1.046 0.3754,-0.1622 0.7198,-0.3612 1.0386,-0.5904 0.7127,-0.5125 1.3057,-1.1799 1.8395,-1.9341 0.5725,-0.8089 1.2229,-1.5241 1.9872,-2.081 0.7748,-0.5645 1.6625,-0.965 2.6982,-1.1339l0.7511 -0.1226 -0.3797 0.6598c-0.5282,0.9179 -0.8524,1.7992 -1.0051,2.6494 -0.1514,0.8427 -0.1341,1.6593 0.0196,2.4539 0.2023,1.0456 0.1937,2.013 -0.004,2.9524 -0.0922,0.4383 -0.2256,0.8694 -0.3977,1.2984 0.2849,-0.2938 0.5272,-0.6098 0.734,-0.944 0.4611,-0.745 0.753,-1.5888 0.9577,-2.4908 0.2195,-0.9672 0.5475,-1.8772 1.0411,-2.6835 0.5001,-0.8169 1.1683,-1.5261 2.0626,-2.0793l0.6469 -0.4002 -0.0983 0.7546c-0.1367,1.0486 -0.0992,1.9878 0.085,2.8342 0.1825,0.839 0.5099,1.5868 0.9543,2.2597 0.328,0.4964 0.5854,0.9953 0.7798,1.5033l0 4.751 -0.5636 0.7523 0.205 -1.4062c0.1431,-0.9814 0.153,-1.8823 -0.0065,-2.7364 -0.1587,-0.8486 -0.4862,-1.6584 -1.0185,-2.4643 -0.4937,-0.7474 -0.8571,-1.5769 -1.0593,-2.5064 -0.1523,-0.7001 -0.2127,-1.4573 -0.168,-2.2797 -0.4891,0.4046 -0.883,0.8746 -1.2013,1.3944 -0.4499,0.735 -0.7506,1.5717 -0.9533,2.4652 -0.2209,0.9735 -0.5398,1.8902 -1.0485,2.7121 -0.5149,0.832 -1.2192,1.5609 -2.2042,2.1447l-1.2235 0.7252 0.7288 -1.2228c0.5066,-0.85 0.8597,-1.6779 1.0388,-2.5289 0.1778,-0.8454 0.1848,-1.7197 0.0012,-2.6689 -0.1695,-0.8765 -0.1879,-1.7804 -0.0196,-2.7177 0.1268,-0.7058 0.3599,-1.4285 0.7149,-2.17 -0.6069,0.187 -1.1506,0.4706 -1.6426,0.829 -0.6959,0.5071 -1.2933,1.1657 -1.8228,1.9137 -0.5772,0.8155 -1.223,1.5405 -2.0068,2.1042 -0.7944,0.5711 -1.7242,0.9748 -2.8576,1.1372l-1.4098 0.202 1.1419 -0.8512c0.7949,-0.5925 1.439,-1.2225 1.9298,-1.9387 0.4889,-0.7134 0.8306,-1.5181 1.0238,-2.4636 0.1792,-0.8769 0.5073,-1.7204 1.0197,-2.5207 0.3862,-0.6033 0.8771,-1.1814 1.488,-1.7306 -0.6311,-0.0589 -1.2405,-0.0047 -1.8308,0.1381 -0.8357,0.2021 -1.6391,0.5823 -2.4148,1.0711 -0.8455,0.5326 -1.7197,0.9547 -2.66,1.1749 -0.9517,0.2229 -1.9647,0.2392 -3.0739,-0.0443l-1.3813 -0.3531 1.3828 -0.35c0.9607,-0.2431 1.7968,-0.5782 2.5248,-1.0519 0.7224,-0.4701 1.3455,-1.0822 1.8868,-1.8833 0.501,-0.7414 1.1271,-1.3948 1.9075,-1.9382 0.5881,-0.4095 1.2633,-0.7556 2.0386,-1.0293 -0.5604,-0.2961 -1.1442,-0.4801 -1.7448,-0.5744 -0.8485,-0.1333 -1.7367,-0.0898 -2.6422,0.0652 -0.983,0.1681 -1.9523,0.2236 -2.9077,0.0676 -0.9648,-0.1575 -1.9078,-0.53 -2.8253,-1.2175l-0.386 -0.2892 4.7538 0z"/>
   </g>
  </g>
  <g id="LfGlands_Dots" onclick="parent.replacechar('LfGlands_Dots')" onmousemove="parent.showtooltip('LfGlands_Dots', 'Transparent dots against sunlight')" onmouseout="parent.hidetooltip('LfGlands_Dots')" cursor="pointer" >
   <path id="limbe_17" fill="#A6D10D" stroke="black" stroke-width="0.0762" d="M122.504 10.3513c8.9822,16.3863 14.553,33.0537 20.9248,48.4088 2.816,6.9167 5.2009,13.8106 7.1288,20.7175l-60.4926 0 0 -69.1263 32.439 0z"/>
   <path id="cadre_18" fill="#CCCCCC" fill-rule="nonzero" stroke="#CCCCCC" stroke-width="0.0762" d="M90.0646 10.3513l61.3271 0 0 69.1263 -61.3271 0 0 -69.1263zm61.2661 0.061l-61.2051 0 0 69.0043 61.2051 0 0 -69.0043z"/>
   <g id="n_x0020_sommet_x0020_II_19">
    <path id="_50482064" fill="#CCCCCC" fill-rule="nonzero" stroke="black" stroke-width="0.0762" d="M131.368 78.9182c1.8493,-4.453 3.2016,-8.5501 4.0826,-12.4105 3.0862,-13.5217 0.4073,-24.1523 -6.8019,-37.0738l0.1069 -0.0581c7.2241,12.9481 9.9082,23.6025 6.8141,37.1582 -0.8796,3.8536 -2.2273,7.9423 -4.0698,12.3842l-0.1319 0z"/>
    <path id="_50480984" fill="#CCCCCC" fill-rule="nonzero" stroke="black" stroke-width="0.0762" d="M115.764 78.9965c6.202,-12.1194 10.2974,-23.0324 12.0457,-32.6464 2.4228,-13.3224 0.3394,-24.1516 -6.8854,-32.2454l0.0912 -0.0803c7.2518,8.1241 9.344,18.9869 6.9143,32.3471 -1.7478,9.6113 -5.8371,20.5166 -12.0288,32.625l-0.137 0z"/>
    <path id="_50479904" fill="#CCCCCC" fill-rule="nonzero" stroke="black" stroke-width="0.0762" d="M107.042 63.9822c6.4345,-12.35 11.8764,-24.0815 13.8466,-34.247 1.3889,-7.1658 1.0509,-13.553 -1.882,-18.8303l0.1411 0c2.9177,5.2909 3.2502,11.6849 1.861,18.8528 -1.9729,10.1795 -7.419,21.9209 -13.8582,34.2798l-0.1085 -0.0553z"/>
    <path id="_50478424" fill="#CCCCCC" fill-rule="nonzero" stroke="black" stroke-width="0.0762" d="M107.299 36.6436c4.7518,-12.8849 7.1495,-20.6698 7.4157,-25.7387l0.1224 0c-0.2659,5.0837 -2.6664,12.8796 -7.4235,25.7789l-0.1146 -0.0402z"/>
   </g>
   <g id="n_x0020_sommet_x0020_II_20">
    <path id="_50477208" fill="#CCCCCC" fill-rule="nonzero" stroke="black" stroke-width="0.0762" d="M97.8175 79.0357c-2.8977,-6.2556 -5.2903,-12.1972 -7.1482,-17.8131l0 -0.3648c1.8766,5.7227 4.3113,11.786 7.2742,18.1779l-0.126 0zm-7.1482 -62.1494c0.8875,-1.5157 1.9028,-2.9577 3.0509,-4.3229l0.0834 0.081c-1.1847,1.4086 -2.2281,2.8989 -3.1343,4.4688l0 -0.2269z"/>
    <path id="_50475976" fill="#CCCCCC" fill-rule="nonzero" stroke="black" stroke-width="0.0762" d="M106.893 63.5364c-6.4294,-12.5948 -11.8493,-24.5602 -13.7296,-34.9344 -1.2021,-6.6331 -0.9572,-12.6155 1.3928,-17.6971l0.1352 0c-2.3611,5.07 -2.6095,11.0461 -1.4078,17.6758 1.8776,10.3599 7.2935,22.3156 13.7182,34.9014l-0.1088 0.0543z"/>
    <path id="_50474472" fill="#CCCCCC" fill-rule="nonzero" stroke="black" stroke-width="0.0762" d="M107.002 35.6559c-4.2826,-11.9816 -6.6868,-19.6064 -7.3,-24.751l0.1227 0c0.614,5.1317 3.0157,12.7461 7.2926,24.7117l-0.1153 0.0393z"/>
   </g>
   <polygon id="nerv_x0020_I_21" fill="black" points="107.381,10.3513 107.381,79.4776 106,79.4776 106,10.3513 "/>
   <g id="dots_x0020_droite">
    <circle id="_50472520" fill="white" stroke="#7F7F7F" stroke-width="0.0762" transform="matrix(0.433602 0.0877718 -0.0877718 0.433602 108.258 31.2383)" r="1.3688"/>
    <circle id="_50471552" fill="white" stroke="#7F7F7F" stroke-width="0.0762" transform="matrix(0.433602 0.0877718 -0.0877718 0.433602 115.958 39.2303)" r="1.3688"/>
    <circle id="_50470416" fill="white" stroke="#7F7F7F" stroke-width="0.0762" transform="matrix(0.433602 0.0877718 -0.0877718 0.433602 108.916 27.3835)" r="1.3688"/>
    <circle id="_50469448" fill="white" stroke="#7F7F7F" stroke-width="0.0762" transform="matrix(0.433602 0.0877718 -0.0877718 0.433602 112.503 32.322)" r="1.3688"/>
    <circle id="_50468480" fill="white" stroke="#7F7F7F" stroke-width="0.0762" transform="matrix(0.433602 0.0877718 -0.0877718 0.433602 109.723 23.4993)" r="1.3688"/>
    <circle id="_50274208" fill="white" stroke="#7F7F7F" stroke-width="0.0762" transform="matrix(0.433602 0.0877718 -0.0877718 0.433602 111.587 19.8451)" r="1.3688"/>
    <circle id="_50274000" fill="white" stroke="#7F7F7F" stroke-width="0.0762" transform="matrix(0.433602 0.0877718 -0.0877718 0.433602 108.979 17.9418)" r="1.3688"/>
    <circle id="_50273032" fill="white" stroke="#7F7F7F" stroke-width="0.0762" transform="matrix(0.433602 0.0877718 -0.0877718 0.433602 114.407 26.6123)" r="1.3688"/>
    <circle id="_50272064" fill="white" stroke="#7F7F7F" stroke-width="0.0762" transform="matrix(0.433602 0.0877718 -0.0877718 0.433602 110.994 15.3258)" r="1.3688"/>
    <circle id="_50271096" fill="white" stroke="#7F7F7F" stroke-width="0.0762" transform="matrix(0.433602 0.0877718 -0.0877718 0.433602 112.503 12.6549)" r="1.3688"/>
    <circle id="_50270128" fill="white" stroke="#7F7F7F" stroke-width="0.0762" transform="matrix(0.433602 0.0877718 -0.0877718 0.433602 108.908 12.4434)" r="1.3688"/>
    <circle id="_50269160" fill="white" stroke="#7F7F7F" stroke-width="0.0762" transform="matrix(-0.433602 0.0877718 0.0877718 0.433602 121.949 45.8565)" r="1.3688"/>
    <circle id="_50268056" fill="white" stroke="#7F7F7F" stroke-width="0.0762" transform="matrix(-0.433602 0.0877718 0.0877718 0.433602 116.098 50.7204)" r="1.3688"/>
    <circle id="_50267088" fill="white" stroke="#7F7F7F" stroke-width="0.0762" transform="matrix(-0.433602 0.0877718 0.0877718 0.433602 123.218 53.0177)" r="1.3688"/>
    <circle id="_50266120" fill="white" stroke="#7F7F7F" stroke-width="0.0762" transform="matrix(-0.433602 0.0877718 0.0877718 0.433602 117.508 57.2761)" r="1.3688"/>
    <circle id="_50265152" fill="white" stroke="#7F7F7F" stroke-width="0.0762" transform="matrix(-0.433602 0.0877718 0.0877718 0.433602 112.849 70.5244)" r="1.3688"/>
    <circle id="_50264184" fill="white" stroke="#7F7F7F" stroke-width="0.0762" transform="matrix(-0.433602 0.0877718 0.0877718 0.433602 118.002 66.863)" r="1.3688"/>
    <circle id="_50263216" fill="white" stroke="#7F7F7F" stroke-width="0.0762" transform="matrix(-0.433602 0.0877718 0.0877718 0.433602 111.616 61.0827)" r="1.3688"/>
    <circle id="_50262248" fill="white" stroke="#7F7F7F" stroke-width="0.0762" transform="matrix(0.428987 0.108094 -0.108094 0.428987 109.754 53.6106)" r="1.3688"/>
    <circle id="_50261280" fill="white" stroke="#7F7F7F" stroke-width="0.0762" transform="matrix(0.428987 0.108094 -0.108094 0.428987 109.966 43.4597)" r="1.3688"/>
    <circle id="_50260312" fill="white" stroke="#7F7F7F" stroke-width="0.0762" transform="matrix(0.428987 0.108094 -0.108094 0.428987 114.054 44.8696)" r="1.3688"/>
    <circle id="_50259344" fill="white" stroke="#7F7F7F" stroke-width="0.0762" transform="matrix(0.428987 0.108094 -0.108094 0.428987 109.966 38.1729)" r="1.3688"/>
    <circle id="_50225120" fill="white" stroke="#7F7F7F" stroke-width="0.0762" transform="matrix(0.428987 0.108094 -0.108094 0.428987 120.61 38.8073)" r="1.3688"/>
    <circle id="_50224504" fill="white" stroke="#7F7F7F" stroke-width="0.0762" transform="matrix(0.428987 0.108094 -0.108094 0.428987 126.038 38.9484)" r="1.3688"/>
    <circle id="_50223536" fill="white" stroke="#7F7F7F" stroke-width="0.0762" transform="matrix(0.428987 0.108094 -0.108094 0.428987 123.994 35.0007)" r="1.3688"/>
    <circle id="_50222568" fill="white" stroke="#7F7F7F" stroke-width="0.0762" transform="matrix(0.428987 0.108094 -0.108094 0.428987 125.967 31.1238)" r="1.3688"/>
    <circle id="_50221600" fill="white" stroke="#7F7F7F" stroke-width="0.0762" transform="matrix(0.428987 0.108094 -0.108094 0.428987 122.795 29.15)" r="1.3688"/>
    <circle id="_50220632" fill="white" stroke="#7F7F7F" stroke-width="0.0762" transform="matrix(0.428987 0.108094 -0.108094 0.428987 113.913 35.3532)" r="1.3688"/>
    <circle id="_50219664" fill="white" stroke="#7F7F7F" stroke-width="0.0762" transform="matrix(0.428987 0.108094 -0.108094 0.428987 118.636 29.8549)" r="1.3688"/>
    <circle id="_50218696" fill="white" stroke="#7F7F7F" stroke-width="0.0762" transform="matrix(0.428987 0.108094 -0.108094 0.428987 126.179 25.2729)" r="1.3688"/>
    <circle id="_50217728" fill="white" stroke="#7F7F7F" stroke-width="0.0762" transform="matrix(0.428987 0.108094 -0.108094 0.428987 117.283 24.2671)" r="1.3688"/>
    <circle id="_50216728" fill="white" stroke="#7F7F7F" stroke-width="0.0762" transform="matrix(0.428987 0.108094 -0.108094 0.428987 122.866 24.1451)" r="1.3688"/>
    <circle id="_50215624" fill="white" stroke="#7F7F7F" stroke-width="0.0762" transform="matrix(0.428987 0.108094 -0.108094 0.428987 120.187 22.8763)" r="1.3688"/>
    <circle id="_50214656" fill="white" stroke="#7F7F7F" stroke-width="0.0762" transform="matrix(0.428987 0.108094 -0.108094 0.428987 115.041 18.0123)" r="1.3688"/>
    <circle id="_50213688" fill="white" stroke="#7F7F7F" stroke-width="0.0762" transform="matrix(0.428987 0.108094 -0.108094 0.428987 118.065 16.0403)" r="1.3688"/>
    <circle id="_50212720" fill="white" stroke="#7F7F7F" stroke-width="0.0762" transform="matrix(0.428987 0.108094 -0.108094 0.428987 123.007 19.2811)" r="1.3688"/>
    <circle id="_50211752" fill="white" stroke="#7F7F7F" stroke-width="0.0762" transform="matrix(0.428987 0.108094 -0.108094 0.428987 117.618 11.6638)" r="1.3688"/>
    <circle id="_50210784" fill="white" stroke="#7F7F7F" stroke-width="0.0762" transform="matrix(0.276464 0.0559631 -0.0559631 0.276464 115.041 22.8763)" r="1.3688"/>
    <circle id="_50209816" fill="white" stroke="#7F7F7F" stroke-width="0.0762" transform="matrix(0.276464 0.0559631 -0.0559631 0.276464 116.911 20.691)" r="1.3688"/>
    <circle id="_50208848" fill="white" stroke="#7F7F7F" stroke-width="0.0762" transform="matrix(0.276464 0.0559631 -0.0559631 0.276464 119.412 26.7533)" r="1.3688"/>
    <circle id="_50207880" fill="white" stroke="#7F7F7F" stroke-width="0.0762" transform="matrix(0.276464 0.0559631 -0.0559631 0.276464 115.112 30.0663)" r="1.3688"/>
    <circle id="_50206912" fill="white" stroke="#7F7F7F" stroke-width="0.0762" transform="matrix(0.276464 0.0559631 -0.0559631 0.276464 117.649 34.2254)" r="1.3688"/>
    <circle id="_50205824" fill="white" stroke="#7F7F7F" stroke-width="0.0762" transform="matrix(0.276464 0.0559631 -0.0559631 0.276464 110.6 34.5779)" r="1.3688"/>
    <circle id="_50192272" fill="white" stroke="#7F7F7F" stroke-width="0.0762" transform="matrix(0.276464 0.0559631 -0.0559631 0.276464 112.574 40.0762)" r="1.3688"/>
    <circle id="_50191584" fill="white" stroke="#7F7F7F" stroke-width="0.0762" transform="matrix(0.276464 0.0559631 -0.0559631 0.276464 111.023 46.9138)" r="1.3688"/>
    <circle id="_50190616" fill="white" stroke="#7F7F7F" stroke-width="0.0762" transform="matrix(0.276464 0.0559631 -0.0559631 0.276464 109.261 75.04)" r="1.3688"/>
    <circle id="_50189648" fill="white" stroke="#7F7F7F" stroke-width="0.0762" transform="matrix(0.276464 0.0559631 -0.0559631 0.276464 124.839 27.4581)" r="1.3688"/>
    <circle id="_50188680" fill="white" stroke="#7F7F7F" stroke-width="0.0762" transform="matrix(0.276464 0.0559631 -0.0559631 0.276464 123.007 41.731)" r="1.3688"/>
    <circle id="_50187712" fill="white" stroke="#7F7F7F" stroke-width="0.0762" transform="matrix(-0.276464 0.0559631 0.0559631 0.276464 109.402 25.414)" r="1.3688"/>
    <circle id="_50186744" fill="white" stroke="#7F7F7F" stroke-width="0.0762" transform="matrix(-0.276464 0.0559631 0.0559631 0.276464 119.623 18.5762)" r="1.3688"/>
    <circle id="_50185776" fill="white" stroke="#7F7F7F" stroke-width="0.0762" transform="matrix(-0.276464 0.0559631 0.0559631 0.276464 115.957 14.7697)" r="1.3688"/>
    <circle id="_50184808" fill="white" stroke="#7F7F7F" stroke-width="0.0762" transform="matrix(-0.276464 0.0559631 0.0559631 0.276464 111.164 22.2418)" r="1.3688"/>
    <circle id="_50183672" fill="white" stroke="#7F7F7F" stroke-width="0.0762" transform="matrix(-0.276464 0.0559631 0.0559631 0.276464 109.261 20.6204)" r="1.3688"/>
    <circle id="_50182704" fill="white" stroke="#7F7F7F" stroke-width="0.0762" transform="matrix(-0.276464 0.0559631 0.0559631 0.276464 111.843 17.3837)" r="1.3688"/>
    <circle id="_50181736" fill="white" stroke="#7F7F7F" stroke-width="0.0762" transform="matrix(-0.276464 0.0559631 0.0559631 0.276464 109.125 15.2887)" r="1.3688"/>
    <circle id="_50180768" fill="white" stroke="#7F7F7F" stroke-width="0.0762" transform="matrix(0.273521 0.0689202 -0.0689202 0.273521 126.444 70.4612)" r="1.3688"/>
    <circle id="_50179768" fill="white" stroke="#7F7F7F" stroke-width="0.0762" transform="matrix(0.273521 0.0689202 -0.0689202 0.273521 127.121 69.0245)" r="1.3688"/>
    <circle id="_50178800" fill="white" stroke="#7F7F7F" stroke-width="0.0762" transform="matrix(0.273521 0.0689202 -0.0689202 0.273521 131.47 67.7238)" r="1.3688"/>
    <circle id="_50177832" fill="white" stroke="#7F7F7F" stroke-width="0.0762" transform="matrix(0.273521 0.0689202 -0.0689202 0.273521 124.717 66.401)" r="1.3688"/>
    <circle id="_50176864" fill="white" stroke="#7F7F7F" stroke-width="0.0762" transform="matrix(0.273521 0.0689202 -0.0689202 0.273521 132.597 61.4566)" r="1.3688"/>
    <circle id="_50175896" fill="white" stroke="#7F7F7F" stroke-width="0.0762" transform="matrix(0.273521 0.0689202 -0.0689202 0.273521 133.085 56.5907)" r="1.3688"/>
    <circle id="_50174928" fill="white" stroke="#7F7F7F" stroke-width="0.0762" transform="matrix(0.273521 0.0689202 -0.0689202 0.273521 115.041 74.1236)" r="1.3688"/>
    <circle id="_50173824" fill="white" stroke="#7F7F7F" stroke-width="0.0762" transform="matrix(0.273521 0.0689202 -0.0689202 0.273521 130.323 53.9598)" r="1.3688"/>
    <circle id="_50172856" fill="white" stroke="#7F7F7F" stroke-width="0.0762" transform="matrix(0.273521 0.0689202 -0.0689202 0.273521 127.072 56.404)" r="1.3688"/>
    <circle id="_50171888" fill="white" stroke="#7F7F7F" stroke-width="0.0762" transform="matrix(0.273521 0.0689202 -0.0689202 0.273521 131.142 44.1207)" r="1.3688"/>
    <circle id="_50170920" fill="white" stroke="#7F7F7F" stroke-width="0.0762" transform="matrix(0.273521 0.0689202 -0.0689202 0.273521 130.526 36.8558)" r="1.3688"/>
    <circle id="_50169952" fill="white" stroke="#7F7F7F" stroke-width="0.0762" transform="matrix(0.273521 0.0689202 -0.0689202 0.273521 109.684 66.6515)" r="1.3688"/>
    <circle id="_50168984" fill="white" stroke="#7F7F7F" stroke-width="0.0762" transform="matrix(0.273521 0.0689202 -0.0689202 0.273521 114.477 62.986)" r="1.3688"/>
    <circle id="_49717176" fill="white" stroke="#7F7F7F" stroke-width="0.0762" transform="matrix(0.273521 0.0689202 -0.0689202 0.273521 120.398 62.949)" r="1.3688"/>
    <circle id="_49716488" fill="white" stroke="#7F7F7F" stroke-width="0.0762" transform="matrix(0.273521 0.0689202 -0.0689202 0.273521 119.872 57.981)" r="1.3688"/>
    <circle id="_49715520" fill="white" stroke="#7F7F7F" stroke-width="0.0762" transform="matrix(0.273521 0.0689202 -0.0689202 0.273521 113.843 55.9703)" r="1.3688"/>
    <circle id="_49714552" fill="white" stroke="#7F7F7F" stroke-width="0.0762" transform="matrix(0.273521 0.0689202 -0.0689202 0.273521 121.174 50.4384)" r="1.3688"/>
    <circle id="_49713448" fill="white" stroke="#7F7F7F" stroke-width="0.0762" transform="matrix(0.273521 0.0689202 -0.0689202 0.273521 118.753 43.4825)" r="1.3688"/>
    <circle id="_49712480" fill="white" stroke="#7F7F7F" stroke-width="0.0762" transform="matrix(0.273521 0.0689202 -0.0689202 0.273521 125.615 45.749)" r="1.3688"/>
    <circle id="_49711512" fill="white" stroke="#7F7F7F" stroke-width="0.0762" transform="matrix(0.433602 0.0877718 -0.0877718 0.433602 112.151 77.2253)" r="1.3688"/>
    <circle id="_49710544" fill="white" stroke="#7F7F7F" stroke-width="0.0762" transform="matrix(0.433602 0.0877718 -0.0877718 0.433602 141.668 73.3453)" r="1.3688"/>
    <circle id="_49709576" fill="white" stroke="#7F7F7F" stroke-width="0.0762" transform="matrix(0.433602 0.0877718 -0.0877718 0.433602 136.189 77.1548)" r="1.3688"/>
    <circle id="_49675800" fill="white" stroke="#7F7F7F" stroke-width="0.0762" transform="matrix(0.433602 0.0877718 -0.0877718 0.433602 146.128 73.4187)" r="1.3688"/>
    <circle id="_49674832" fill="white" stroke="#7F7F7F" stroke-width="0.0762" transform="matrix(0.433602 0.0877718 -0.0877718 0.433602 142.744 67.5277)" r="1.3688"/>
    <circle id="_49673880" fill="white" stroke="#7F7F7F" stroke-width="0.0762" transform="matrix(0.433602 0.0877718 -0.0877718 0.433602 137.246 70.3171)" r="1.3688"/>
    <circle id="_49110952" fill="white" stroke="#7F7F7F" stroke-width="0.0762" transform="matrix(0.433602 0.0877718 -0.0877718 0.433602 143.661 61.9286)" r="1.3688"/>
    <circle id="_49110744" fill="white" stroke="#7F7F7F" stroke-width="0.0762" transform="matrix(0.433602 0.0877718 -0.0877718 0.433602 138.585 61.2237)" r="1.3688"/>
    <circle id="_49109640" fill="white" stroke="#7F7F7F" stroke-width="0.0762" transform="matrix(0.433602 0.0877718 -0.0877718 0.433602 137.528 48.3237)" r="1.3688"/>
    <circle id="_49108672" fill="white" stroke="#7F7F7F" stroke-width="0.0762" transform="matrix(0.433602 0.0877718 -0.0877718 0.433602 134.397 52.574)" r="1.3688"/>
    <circle id="_48836576" fill="white" stroke="#7F7F7F" stroke-width="0.0762" transform="matrix(0.433602 0.0877718 -0.0877718 0.433602 130.972 38.9482)" r="1.3688"/>
    <circle id="_48836368" fill="white" stroke="#7F7F7F" stroke-width="0.0762" transform="matrix(-0.433602 0.0877718 0.0877718 0.433602 120.962 76.0269)" r="1.3688"/>
    <circle id="_48835400" fill="white" stroke="#7F7F7F" stroke-width="0.0762" transform="matrix(-0.433602 0.0877718 0.0877718 0.433602 129.21 75.6745)" r="1.3688"/>
    <circle id="_48834432" fill="white" stroke="#7F7F7F" stroke-width="0.0762" transform="matrix(-0.433602 0.0877718 0.0877718 0.433602 127.8 70.3171)" r="1.3688"/>
    <circle id="_48833464" fill="white" stroke="#7F7F7F" stroke-width="0.0762" transform="matrix(-0.433602 0.0877718 0.0877718 0.433602 123.148 69.4711)" r="1.3688"/>
    <circle id="_24473576" fill="white" stroke="#7F7F7F" stroke-width="0.0762" transform="matrix(-0.433602 0.0877718 0.0877718 0.433602 133.369 63.8319)" r="1.3688"/>
    <circle id="_24472608" fill="white" stroke="#7F7F7F" stroke-width="0.0762" transform="matrix(-0.433602 0.0877718 0.0877718 0.433602 127.871 59.3204)" r="1.3688"/>
    <circle id="_24471640" fill="white" stroke="#7F7F7F" stroke-width="0.0762" transform="matrix(-0.433602 0.0877718 0.0877718 0.433602 129.844 48.8877)" r="1.3688"/>
    <circle id="_24470536" fill="white" stroke="#7F7F7F" stroke-width="0.0762" transform="matrix(0.273521 0.0689202 -0.0689202 0.273521 147.011 75.3924)" r="1.3688"/>
    <circle id="_24469568" fill="white" stroke="#7F7F7F" stroke-width="0.0762" transform="matrix(0.273521 0.0689202 -0.0689202 0.273521 142.251 74.7917)" r="1.3688"/>
    <circle id="_24468600" fill="white" stroke="#7F7F7F" stroke-width="0.0762" transform="matrix(0.273521 0.0689202 -0.0689202 0.273521 136.682 73.9827)" r="1.3688"/>
    <circle id="_24467632" fill="white" stroke="#7F7F7F" stroke-width="0.0762" transform="matrix(0.273521 0.0689202 -0.0689202 0.273521 144.084 77.7893)" r="1.3688"/>
    <circle id="_24466664" fill="white" stroke="#7F7F7F" stroke-width="0.0762" transform="matrix(0.273521 0.0689202 -0.0689202 0.273521 144.507 70.8811)" r="1.3688"/>
    <circle id="_24465696" fill="white" stroke="#7F7F7F" stroke-width="0.0762" transform="matrix(0.273521 0.0689202 -0.0689202 0.273521 138.35 66.744)" r="1.3688"/>
    <circle id="_24424432" fill="white" stroke="#7F7F7F" stroke-width="0.0762" transform="matrix(0.273521 0.0689202 -0.0689202 0.273521 142.321 62.3515)" r="1.3688"/>
    <circle id="_24423464" fill="white" stroke="#7F7F7F" stroke-width="0.0762" transform="matrix(0.273521 0.0689202 -0.0689202 0.273521 139.971 56.3816)" r="1.3688"/>
    <circle id="_24422496" fill="white" stroke="#7F7F7F" stroke-width="0.0762" transform="matrix(0.273521 0.0689202 -0.0689202 0.273521 138.209 49.544)" r="1.3688"/>
    <circle id="_24421528" fill="white" stroke="#7F7F7F" stroke-width="0.0762" transform="matrix(0.273521 0.0689202 -0.0689202 0.273521 135.168 40.5697)" r="1.3688"/>
    <circle id="_24420424" fill="white" stroke="#7F7F7F" stroke-width="0.0762" transform="matrix(-0.273521 0.0689202 0.0689202 0.273521 128.486 23.9651)" r="1.3688"/>
    <circle id="_24419456" fill="white" stroke="#7F7F7F" stroke-width="0.0762" transform="matrix(-0.273521 0.0689202 0.0689202 0.273521 124.676 16.3068)" r="1.3688"/>
    <circle id="_24418488" fill="white" stroke="#7F7F7F" stroke-width="0.0762" transform="matrix(-0.273521 0.0689202 0.0689202 0.273521 126.51 19.4489)" r="1.3688"/>
    <circle id="_24417520" fill="white" stroke="#7F7F7F" stroke-width="0.0762" transform="matrix(-0.273521 0.0689202 0.0689202 0.273521 121.994 12.4963)" r="1.3688"/>
    <circle id="_24416680" fill="white" stroke="#7F7F7F" stroke-width="0.0762" transform="matrix(-0.273521 0.0689202 0.0689202 0.273521 122.089 13.2567)" r="1.3688"/>
    <circle id="_24415312" fill="white" stroke="#7F7F7F" stroke-width="0.0762" transform="matrix(-0.273521 0.0689202 0.0689202 0.273521 131.027 30.4195)" r="1.3688"/>
   </g>
   <g id="dots_x0020_gauche">
    <circle id="_24414368" fill="white" stroke="#7F7F7F" stroke-width="0.0762" transform="matrix(-0.433602 0.0877718 0.0877718 0.433602 102.66 29.4317)" r="1.3688"/>
    <circle id="_24413528" fill="white" stroke="#7F7F7F" stroke-width="0.0762" transform="matrix(-0.433602 0.0877718 0.0877718 0.433602 97.889 38.9743)" r="1.3688"/>
    <circle id="_24412688" fill="white" stroke="#7F7F7F" stroke-width="0.0762" transform="matrix(-0.433602 0.0877718 0.0877718 0.433602 104.931 27.1275)" r="1.3688"/>
    <circle id="_24411848" fill="white" stroke="#7F7F7F" stroke-width="0.0762" transform="matrix(-0.433602 0.0877718 0.0877718 0.433602 101.343 32.0661)" r="1.3688"/>
    <circle id="_24410872" fill="white" stroke="#7F7F7F" stroke-width="0.0762" transform="matrix(-0.433602 0.0877718 0.0877718 0.433602 104.123 23.2433)" r="1.3688"/>
    <circle id="_24410048" fill="white" stroke="#7F7F7F" stroke-width="0.0762" transform="matrix(-0.433602 0.0877718 0.0877718 0.433602 100.402 20.5406)" r="1.3688"/>
    <circle id="_49657144" fill="white" stroke="#7F7F7F" stroke-width="0.0762" transform="matrix(-0.433602 0.0877718 0.0877718 0.433602 104.868 17.6859)" r="1.3688"/>
    <circle id="_49657080" fill="white" stroke="#7F7F7F" stroke-width="0.0762" transform="matrix(-0.433602 0.0877718 0.0877718 0.433602 99.4398 26.3563)" r="1.3688"/>
    <circle id="_50250048" fill="white" stroke="#7F7F7F" stroke-width="0.0762" transform="matrix(-0.433602 0.0877718 0.0877718 0.433602 102.852 15.0698)" r="1.3688"/>
    <circle id="_49658536" fill="white" stroke="#7F7F7F" stroke-width="0.0762" transform="matrix(-0.433602 0.0877718 0.0877718 0.433602 101.343 12.3989)" r="1.3688"/>
    <circle id="_24473904" fill="white" stroke="#7F7F7F" stroke-width="0.0762" transform="matrix(-0.433602 0.0877718 0.0877718 0.433602 104.938 12.1874)" r="1.3688"/>
    <circle id="_24383528" fill="white" stroke="#7F7F7F" stroke-width="0.0762" transform="matrix(0.433602 0.0877718 -0.0877718 0.433602 91.8974 45.6006)" r="1.3688"/>
    <circle id="_49808296" fill="white" stroke="#7F7F7F" stroke-width="0.0762" transform="matrix(0.433602 0.0877718 -0.0877718 0.433602 97.7481 50.4645)" r="1.3688"/>
    <circle id="_50167728" fill="white" stroke="#7F7F7F" stroke-width="0.0762" transform="matrix(0.433602 0.0877718 -0.0877718 0.433602 90.6285 52.7618)" r="1.3688"/>
    <circle id="_50253184" fill="white" stroke="#7F7F7F" stroke-width="0.0762" transform="matrix(0.433602 0.0877718 -0.0877718 0.433602 96.3382 57.0201)" r="1.3688"/>
    <circle id="_50254184" fill="white" stroke="#7F7F7F" stroke-width="0.0762" transform="matrix(0.433602 0.0877718 -0.0877718 0.433602 100.997 70.2685)" r="1.3688"/>
    <circle id="_50255184" fill="white" stroke="#7F7F7F" stroke-width="0.0762" transform="matrix(0.433602 0.0877718 -0.0877718 0.433602 95.8448 66.607)" r="1.3688"/>
    <circle id="_24392392" fill="white" stroke="#7F7F7F" stroke-width="0.0762" transform="matrix(0.433602 0.0877718 -0.0877718 0.433602 102.231 60.8268)" r="1.3688"/>
    <circle id="_29876944" fill="white" stroke="#7F7F7F" stroke-width="0.0762" transform="matrix(-0.428987 0.108094 0.108094 0.428987 104.092 53.3546)" r="1.3688"/>
    <circle id="_24375968" fill="white" stroke="#7F7F7F" stroke-width="0.0762" transform="matrix(-0.428987 0.108094 0.108094 0.428987 103.881 43.2037)" r="1.3688"/>
    <circle id="_49698480" fill="white" stroke="#7F7F7F" stroke-width="0.0762" transform="matrix(-0.428987 0.108094 0.108094 0.428987 99.7923 44.6136)" r="1.3688"/>
    <circle id="_49361312" fill="white" stroke="#7F7F7F" stroke-width="0.0762" transform="matrix(-0.428987 0.108094 0.108094 0.428987 103.881 37.917)" r="1.3688"/>
    <circle id="_49826424" fill="white" stroke="#7F7F7F" stroke-width="0.0762" transform="matrix(-0.428987 0.108094 0.108094 0.428987 93.2366 38.5514)" r="1.3688"/>
    <circle id="_24380152" fill="white" stroke="#7F7F7F" stroke-width="0.0762" transform="matrix(-0.428987 0.108094 0.108094 0.428987 91.0514 28.8941)" r="1.3688"/>
    <circle id="_50243408" fill="white" stroke="#7F7F7F" stroke-width="0.0762" transform="matrix(-0.428987 0.108094 0.108094 0.428987 99.9333 35.0972)" r="1.3688"/>
    <circle id="_24386360" fill="white" stroke="#7F7F7F" stroke-width="0.0762" transform="matrix(-0.428987 0.108094 0.108094 0.428987 95.2104 29.5989)" r="1.3688"/>
    <circle id="_49814400" fill="white" stroke="#7F7F7F" stroke-width="0.0762" transform="matrix(-0.428987 0.108094 0.108094 0.428987 96.5637 24.0111)" r="1.3688"/>
    <circle id="_49824112" fill="white" stroke="#7F7F7F" stroke-width="0.0762" transform="matrix(-0.428987 0.108094 0.108094 0.428987 90.9809 23.8891)" r="1.3688"/>
    <circle id="_24387336" fill="white" stroke="#7F7F7F" stroke-width="0.0762" transform="matrix(-0.428987 0.108094 0.108094 0.428987 93.6596 22.6203)" r="1.3688"/>
    <circle id="_50245304" fill="white" stroke="#7F7F7F" stroke-width="0.0762" transform="matrix(-0.428987 0.108094 0.108094 0.428987 98.8055 17.7563)" r="1.3688"/>
    <circle id="_60144232" fill="white" stroke="#7F7F7F" stroke-width="0.0762" transform="matrix(-0.428987 0.108094 0.108094 0.428987 95.7812 15.7844)" r="1.3688"/>
    <circle id="_24388320" fill="white" stroke="#7F7F7F" stroke-width="0.0762" transform="matrix(-0.428987 0.108094 0.108094 0.428987 90.8399 19.0251)" r="1.3688"/>
    <circle id="_50246312" fill="white" stroke="#7F7F7F" stroke-width="0.0762" transform="matrix(-0.428987 0.108094 0.108094 0.428987 96.2287 11.4078)" r="1.3688"/>
    <circle id="_49106760" fill="white" stroke="#7F7F7F" stroke-width="0.0762" transform="matrix(-0.276464 0.0559631 0.0559631 0.276464 98.8054 22.6203)" r="1.3688"/>
    <circle id="_49728568" fill="white" stroke="#7F7F7F" stroke-width="0.0762" transform="matrix(-0.276464 0.0559631 0.0559631 0.276464 96.9357 20.4351)" r="1.3688"/>
    <circle id="_48799936" fill="white" stroke="#7F7F7F" stroke-width="0.0762" transform="matrix(-0.276464 0.0559631 0.0559631 0.276464 94.435 26.4973)" r="1.3688"/>
    <circle id="_50248960" fill="white" stroke="#7F7F7F" stroke-width="0.0762" transform="matrix(-0.276464 0.0559631 0.0559631 0.276464 98.735 29.8103)" r="1.3688"/>
    <circle id="_48535976" fill="white" stroke="#7F7F7F" stroke-width="0.0762" transform="matrix(-0.276464 0.0559631 0.0559631 0.276464 96.1973 33.9695)" r="1.3688"/>
    <circle id="_48847488" fill="white" stroke="#7F7F7F" stroke-width="0.0762" transform="matrix(-0.276464 0.0559631 0.0559631 0.276464 103.246 34.3219)" r="1.3688"/>
    <circle id="_49759072" fill="white" stroke="#7F7F7F" stroke-width="0.0762" transform="matrix(-0.276464 0.0559631 0.0559631 0.276464 101.273 39.8202)" r="1.3688"/>
    <circle id="_49648880" fill="white" stroke="#7F7F7F" stroke-width="0.0762" transform="matrix(-0.276464 0.0559631 0.0559631 0.276464 102.824 46.6579)" r="1.3688"/>
    <circle id="_49766224" fill="white" stroke="#7F7F7F" stroke-width="0.0762" transform="matrix(-0.276464 0.0559631 0.0559631 0.276464 104.586 74.7841)" r="1.3688"/>
    <circle id="_49830136" fill="white" stroke="#7F7F7F" stroke-width="0.0762" transform="matrix(-0.276464 0.0559631 0.0559631 0.276464 90.8399 41.4751)" r="1.3688"/>
    <circle id="_49720704" fill="white" stroke="#7F7F7F" stroke-width="0.0762" transform="matrix(0.276464 0.0559631 -0.0559631 0.276464 104.445 25.158)" r="1.3688"/>
    <circle id="_49741704" fill="white" stroke="#7F7F7F" stroke-width="0.0762" transform="matrix(0.276464 0.0559631 -0.0559631 0.276464 94.2234 18.3202)" r="1.3688"/>
    <circle id="_49361464" fill="white" stroke="#7F7F7F" stroke-width="0.0762" transform="matrix(0.276464 0.0559631 -0.0559631 0.276464 97.8891 14.5137)" r="1.3688"/>
    <circle id="_49254192" fill="white" stroke="#7F7F7F" stroke-width="0.0762" transform="matrix(0.276464 0.0559631 -0.0559631 0.276464 101.911 21.9858)" r="1.3688"/>
    <circle id="_49808776" fill="white" stroke="#7F7F7F" stroke-width="0.0762" transform="matrix(0.276464 0.0559631 -0.0559631 0.276464 104.586 20.3645)" r="1.3688"/>
    <circle id="_49763376" fill="white" stroke="#7F7F7F" stroke-width="0.0762" transform="matrix(0.276464 0.0559631 -0.0559631 0.276464 102.004 17.1277)" r="1.3688"/>
    <circle id="_49679720" fill="white" stroke="#7F7F7F" stroke-width="0.0762" transform="matrix(0.276464 0.0559631 -0.0559631 0.276464 104.722 15.0328)" r="1.3688"/>
    <circle id="_49679960" fill="white" stroke="#7F7F7F" stroke-width="0.0762" transform="matrix(-0.273521 0.0689202 0.0689202 0.273521 98.8055 73.8676)" r="1.3688"/>
    <circle id="_49801168" fill="white" stroke="#7F7F7F" stroke-width="0.0762" transform="matrix(-0.273521 0.0689202 0.0689202 0.273521 91.6519 11.7907)" r="1.3688"/>
    <circle id="_49765504" fill="white" stroke="#7F7F7F" stroke-width="0.0762" transform="matrix(-0.273521 0.0689202 0.0689202 0.273521 104.163 66.3956)" r="1.3688"/>
    <circle id="_49800584" fill="white" stroke="#7F7F7F" stroke-width="0.0762" transform="matrix(-0.273521 0.0689202 0.0689202 0.273521 99.3694 62.7301)" r="1.3688"/>
    <circle id="_49796856" fill="white" stroke="#7F7F7F" stroke-width="0.0762" transform="matrix(-0.273521 0.0689202 0.0689202 0.273521 93.4481 62.6931)" r="1.3688"/>
    <circle id="_49846496" fill="white" stroke="#7F7F7F" stroke-width="0.0762" transform="matrix(-0.273521 0.0689202 0.0689202 0.273521 93.975 57.7251)" r="1.3688"/>
    <circle id="_48847992" fill="white" stroke="#7F7F7F" stroke-width="0.0762" transform="matrix(-0.273521 0.0689202 0.0689202 0.273521 100.004 55.7143)" r="1.3688"/>
    <circle id="_49866760" fill="white" stroke="#7F7F7F" stroke-width="0.0762" transform="matrix(-0.273521 0.0689202 0.0689202 0.273521 92.6727 50.1825)" r="1.3688"/>
    <circle id="_50201776" fill="white" stroke="#7F7F7F" stroke-width="0.0762" transform="matrix(-0.273521 0.0689202 0.0689202 0.273521 95.0932 43.2265)" r="1.3688"/>
    <circle id="_49080824" fill="white" stroke="#7F7F7F" stroke-width="0.0762" transform="matrix(-0.433602 0.0877718 0.0877718 0.433602 101.696 76.9693)" r="1.3688"/>
    <circle id="_49196576" fill="white" stroke="#7F7F7F" stroke-width="0.0762" transform="matrix(0.433602 0.0877718 -0.0877718 0.433602 92.8842 75.771)" r="1.3688"/>
    <circle id="_49794352" fill="white" stroke="#7F7F7F" stroke-width="0.0762" transform="matrix(0.433602 0.0877718 -0.0877718 0.433602 90.6989 69.2152)" r="1.3688"/>
    <circle id="_50249056" fill="white" stroke="#7F7F7F" stroke-width="0.0762" transform="matrix(-0.273521 0.0689202 0.0689202 0.273521 91.5281 14.2974)" r="1.3688"/>
   </g>
   <g id="A_Sun_22">
    <path id="path5462_23" fill="#FCEF3C" fill-rule="nonzero" d="M132.648 10.3457c-0.8812,0.1574 -1.8042,0.1456 -2.8029,0 1.7329,1.2984 3.5594,1.4061 5.4551,1.0818 1.8801,-0.3219 3.7054,-0.178 5.312,0.9778 -2.1287,0.5735 -3.5564,1.6486 -4.5096,3.0589 -1.1378,1.6836 -2.6281,2.5787 -4.6242,3.084 2.0979,0.5364 3.8243,-0.0601 5.4517,-1.0853 1.6129,-1.0162 3.3542,-1.5836 5.2796,-1.1319 -1.7465,1.3444 -2.6536,2.8851 -2.9944,4.5525 -0.407,1.9909 -1.4404,3.39 -3.0912,4.6206 2.1435,-0.3072 3.5095,-1.5212 4.6206,-3.0911 1.102,-1.557 2.4952,-2.7473 4.4487,-3.0661 -1.0997,1.911 -1.3513,3.68 -1.028,5.3514 0.386,1.9949 -0.0311,3.6828 -1.0853,5.4515 1.8628,-1.1041 2.6583,-2.7485 3.084,-4.6242 0.4224,-1.861 1.2565,-3.4926 2.9407,-4.5346 -0.2851,2.1866 0.1577,3.9201 1.0961,5.3406 0.5709,0.8642 0.9178,1.7345 1.0817,2.6499l0 -18.6358 -18.6346 0z"/>
    <path id="_60480808" fill="black" fill-rule="nonzero" d="M134.073 10.429c-0.4026,0.1539 -0.8111,0.2685 -1.2285,0.3464l-0.0014 0c-0.4402,0.0821 -0.8892,0.1241 -1.3505,0.1292 0.3806,0.1506 0.7656,0.2532 1.1542,0.3167 0.8647,0.1412 1.757,0.0884 2.6694,-0.0677 0.9744,-0.1667 1.9391,-0.2122 2.8748,-0.0652 0.9463,0.1488 1.857,0.4937 2.7094,1.1069l0.6186 0.4452 -0.7363 0.1983c-1.0214,0.2751 -1.8731,0.6695 -2.5822,1.1632 -0.7037,0.4901 -1.2684,1.0794 -1.7204,1.7482 -0.5963,0.8824 -1.2879,1.5602 -2.0937,2.0846 -0.3745,0.2437 -0.7727,0.4536 -1.1961,0.6346 0.4087,-0.0063 0.8028,-0.0583 1.1852,-0.1478 0.854,-0.2 1.6571,-0.5891 2.4387,-1.0815 0.8371,-0.5275 1.711,-0.9394 2.6304,-1.1618 0.9313,-0.2254 1.9038,-0.2562 2.9242,-0.0168l0.743 0.1743 -0.604 0.4649c-0.8387,0.6456 -1.4747,1.3366 -1.9408,2.0645 -0.4627,0.7228 -0.7588,1.4836 -0.9204,2.2741 -0.2136,1.0451 -0.5923,1.9359 -1.1345,2.7272 -0.253,0.3693 -0.5409,0.7162 -0.8634,1.046 0.3754,-0.1622 0.7198,-0.3612 1.0386,-0.5904 0.7127,-0.5125 1.3057,-1.1799 1.8395,-1.9341 0.5725,-0.8089 1.2229,-1.5241 1.9872,-2.081 0.7748,-0.5645 1.6625,-0.965 2.6982,-1.1339l0.7511 -0.1226 -0.3797 0.6598c-0.5282,0.9179 -0.8524,1.7992 -1.0051,2.6494 -0.1514,0.8427 -0.1341,1.6593 0.0196,2.4539 0.2023,1.0456 0.1937,2.013 -0.004,2.9524 -0.0922,0.4383 -0.2256,0.8694 -0.3977,1.2984 0.2849,-0.2938 0.5272,-0.6098 0.734,-0.944 0.4611,-0.745 0.753,-1.5888 0.9577,-2.4908 0.2195,-0.9672 0.5475,-1.8772 1.0411,-2.6835 0.5001,-0.8169 1.1683,-1.5261 2.0626,-2.0793l0.6469 -0.4002 -0.0983 0.7546c-0.1367,1.0486 -0.0992,1.9878 0.085,2.8342 0.1825,0.839 0.5099,1.5868 0.9543,2.2597 0.328,0.4964 0.5854,0.9953 0.7798,1.5033l0 4.751 -0.5636 0.7523 0.205 -1.4062c0.1431,-0.9814 0.153,-1.8823 -0.0065,-2.7364 -0.1587,-0.8486 -0.4862,-1.6584 -1.0185,-2.4643 -0.4937,-0.7474 -0.8571,-1.5769 -1.0593,-2.5064 -0.1523,-0.7001 -0.2127,-1.4573 -0.168,-2.2797 -0.4891,0.4046 -0.883,0.8746 -1.2013,1.3944 -0.4499,0.735 -0.7506,1.5717 -0.9533,2.4652 -0.2209,0.9735 -0.5398,1.8902 -1.0485,2.7121 -0.5149,0.832 -1.2192,1.5609 -2.2042,2.1447l-1.2235 0.7252 0.7288 -1.2228c0.5066,-0.85 0.8597,-1.6779 1.0388,-2.5289 0.1778,-0.8454 0.1848,-1.7197 0.0012,-2.6689 -0.1695,-0.8765 -0.1879,-1.7804 -0.0196,-2.7177 0.1268,-0.7058 0.3599,-1.4285 0.7149,-2.17 -0.6069,0.187 -1.1506,0.4706 -1.6426,0.829 -0.6959,0.5071 -1.2933,1.1657 -1.8228,1.9137 -0.5772,0.8155 -1.223,1.5405 -2.0068,2.1042 -0.7944,0.5711 -1.7242,0.9748 -2.8576,1.1372l-1.4098 0.202 1.1419 -0.8512c0.7949,-0.5925 1.439,-1.2225 1.9298,-1.9387 0.4889,-0.7134 0.8306,-1.5181 1.0238,-2.4636 0.1792,-0.8769 0.5073,-1.7204 1.0197,-2.5207 0.3862,-0.6033 0.8771,-1.1814 1.488,-1.7306 -0.6311,-0.0589 -1.2405,-0.0047 -1.8308,0.1381 -0.8357,0.2021 -1.6391,0.5823 -2.4148,1.0711 -0.8455,0.5326 -1.7197,0.9547 -2.66,1.1749 -0.9517,0.2229 -1.9647,0.2392 -3.0739,-0.0443l-1.3813 -0.3531 1.3828 -0.35c0.9607,-0.2431 1.7968,-0.5782 2.5248,-1.0519 0.7224,-0.4701 1.3455,-1.0822 1.8868,-1.8833 0.501,-0.7414 1.1271,-1.3948 1.9075,-1.9382 0.5881,-0.4095 1.2633,-0.7556 2.0386,-1.0293 -0.5604,-0.2961 -1.1442,-0.4801 -1.7448,-0.5744 -0.8485,-0.1333 -1.7367,-0.0898 -2.6422,0.0652 -0.983,0.1681 -1.9523,0.2236 -2.9077,0.0676 -0.9648,-0.1575 -1.9078,-0.53 -2.8253,-1.2175l-0.386 -0.2892 4.7538 0z"/>
   </g>
  </g>
  <g id="LfGlands_No" onclick="parent.replacechar('LfGlands_No')" onmousemove="parent.showtooltip('LfGlands_No', 'No gland nor dot')" onmouseout="parent.hidetooltip('LfGlands_No')" cursor="pointer" >
   <path id="limbe_24" fill="#A6D10D" stroke="black" stroke-width="0.0762" d="M41.7766 10.4136c8.9883,16.3973 14.5629,33.076 20.939,48.4414 2.8179,6.9214 5.2044,13.8199 7.1336,20.7315l-60.5335 0 0 -69.1729 32.4609 0z"/>
   <path id="cadre_25" fill="#CCCCCC" fill-rule="nonzero" stroke="#CCCCCC" stroke-width="0.0762" d="M9.3157 10.4136l61.3685 0 0 69.1729 -61.3685 0 0 -69.1729zm61.3074 0.0611l-61.2463 0 0 69.0508 61.2463 0 0 -69.0508z"/>
   <g id="n_x0020_sommet_x0020_II_26">
    <path id="_49757752" fill="#CCCCCC" fill-rule="nonzero" stroke="black" stroke-width="0.0762" d="M50.6475 79.0267c1.8504,-4.4559 3.2036,-8.5558 4.0853,-12.4189 3.0883,-13.5307 0.4076,-24.1685 -6.8065,-37.0987l0.107 -0.0581c7.2289,12.9568 9.9149,23.6183 6.8187,37.1832 -0.8802,3.8562 -2.2289,7.9477 -4.0726,12.3925l-0.1319 0z"/>
    <path id="_49805440" fill="#CCCCCC" fill-rule="nonzero" stroke="black" stroke-width="0.0762" d="M35.0323 79.1051c6.2062,-12.1275 10.3044,-23.0479 12.0538,-32.6684 2.4244,-13.3314 0.3397,-24.1679 -6.89,-32.2671l0.0912 -0.0804c7.2567,8.1295 9.3503,18.9997 6.919,32.3689 -1.7489,9.6178 -5.841,20.5305 -12.0369,32.647l-0.1371 0z"/>
    <path id="_24378424" fill="#CCCCCC" fill-rule="nonzero" stroke="black" stroke-width="0.0762" d="M26.3043 64.0807c6.4389,-12.3583 11.8845,-24.0978 13.8559,-34.2702 1.3899,-7.1705 1.0517,-13.5621 -1.8832,-18.8429l0.1412 0c2.9196,5.2945 3.2524,11.6927 1.8622,18.8655 -1.9742,10.1864 -7.4239,21.9357 -13.8675,34.303l-0.1086 -0.0554z"/>
    <path id="_49817032" fill="#CCCCCC" fill-rule="nonzero" stroke="black" stroke-width="0.0762" d="M26.5619 36.7236c4.755,-12.8936 7.1543,-20.6837 7.4207,-25.756l0.1225 0c-0.2661,5.0871 -2.6682,12.8882 -7.4285,25.7963l-0.1147 -0.0403z"/>
   </g>
   <g id="n_x0020_sommet_x0020_II_27">
    <path id="_29774416" fill="#CCCCCC" fill-rule="nonzero" stroke="black" stroke-width="0.0762" d="M17.0739 79.1443c-2.8996,-6.2598 -5.2939,-12.2054 -7.1531,-17.8251l0 -0.365c1.8779,5.7266 4.3143,11.794 7.2792,18.1901l-0.1261 0zm-7.1531 -62.1912c0.8882,-1.5169 1.9042,-2.9598 3.0531,-4.3259l0.0833 0.0811c-1.1854,1.4095 -2.2296,2.9008 -3.1364,4.4717l0 -0.2269z"/>
    <path id="_49812136" fill="#CCCCCC" fill-rule="nonzero" stroke="black" stroke-width="0.0762" d="M26.1557 63.6346c-6.4337,-12.6033 -11.8573,-24.5768 -13.7388,-34.958 -1.203,-6.6375 -0.9579,-12.624 1.3937,-17.709l0.1353 0c-2.3627,5.0734 -2.6113,11.0535 -1.4088,17.6877 1.8789,10.3669 7.2985,22.3307 13.7275,34.9249l-0.1089 0.0544z"/>
    <path id="_49847712" fill="#CCCCCC" fill-rule="nonzero" stroke="black" stroke-width="0.0762" d="M26.2648 35.7352c-4.2855,-11.9896 -6.6913,-19.6195 -7.3049,-24.7676l0.1227 0c0.6145,5.1352 3.0178,12.7547 7.2976,24.7284l-0.1154 0.0392z"/>
   </g>
   <polygon id="nerv_x0020_I_28" fill="black" points="26.6435,10.4136 26.6435,79.5865 25.2623,79.5865 25.2623,10.4136 "/>
  </g>
 </g>
<image xlink:href="tick.gif" id="imgtick" x="-100" y="-100" width="15" height="15"/>
<rect id="recttooltip" x="-100" y="-100" width="55" height="6" fill-opacity="0.4" pointer-events="none"/>
<text id="textboxid" x="-100" y="-100" pointer-events="none"> </text>
</a></svg>
