<?xml version="1.0" encoding="UTF-8"?>
<!DOCTYPE svg PUBLIC "-//W3C//DTD SVG 1.1//EN" "http://www.w3.org/Graphics/SVG/1.1/DTD/svg11.dtd">
<!-- Creator: CorelDRAW -->
<svg xmlns="http://www.w3.org/2000/svg" xml:space="preserve" shape-rendering="geometricPrecision" text-rendering="geometricPrecision" image-rendering="optimizeQuality" fill-rule="evenodd" clip-rule="evenodd"
viewBox="0 0 240 180"
 xmlns:xlink="http://www.w3.org/1999/xlink">
<a>
 <g id="Layer_x0020_1">
  <metadata id="CorelCorpID_0Corel-Layer"/>
  <rect fill="none" width="240" height="180"/>
  <g id="LfDomatia_Hairy" onclick="parent.replacechar('LfDomatia_Hairy')" onmousemove="parent.showtooltip('LfDomatia_Hairy', 'Domatia hairy')" onmouseout="parent.hidetooltip('LfDomatia_Hairy')" cursor="pointer" >
   <path id="limbe" fill="#A6D10D" stroke="black" stroke-width="0.0762" d="M201.875 53.505c9.4844,17.3022 15.3666,34.9013 22.0945,51.1147 2.9734,7.3034 5.4916,14.5826 7.5273,21.8756l-63.8741 0 0 -72.9903 34.2523 0z"/>
   <path id="cadre" fill="#CCCCCC" fill-rule="nonzero" stroke="#CCCCCC" stroke-width="0.0762" d="M167.622 53.505l64.7552 0 0 72.9903 -64.7552 0 0 -72.9903zm64.6908 0.0644l-64.6264 0 0 72.8615 64.6264 0 0 -72.8615z"/>
   <g id="n_x0020_sommet_x0020_II">
    <path id="_77214552" fill="#CCCCCC" fill-rule="nonzero" stroke="black" stroke-width="0.0762" d="M211.235 125.905c1.9526,-4.7019 3.3805,-9.0281 4.3108,-13.1043 3.2587,-14.2775 0.4301,-25.5024 -7.1821,-39.1461l0.1129 -0.0614c7.6278,13.6719 10.4621,24.9218 7.195,39.2353 -0.9288,4.069 -2.3519,8.3863 -4.2974,13.0765l-0.1392 0z"/>
    <path id="_66389048" fill="#CCCCCC" fill-rule="nonzero" stroke="black" stroke-width="0.0762" d="M194.758 125.987c6.5487,-12.7969 10.8731,-24.3199 12.719,-34.4713 2.5582,-14.0672 0.3584,-25.5017 -7.2703,-34.0479l0.0963 -0.0848c7.6572,8.5782 9.8664,20.0482 7.3008,34.1552 -1.8454,10.1486 -6.1633,21.6635 -12.7012,34.4488l-0.1446 0z"/>
    <path id="_65740624" fill="#CCCCCC" fill-rule="nonzero" stroke="black" stroke-width="0.0762" d="M185.548 110.134c6.7943,-13.0404 12.5404,-25.4277 14.6206,-36.1614 1.4666,-7.5663 1.1097,-14.3106 -1.9872,-19.8829l0.1491 0c3.0807,5.5867 3.4318,12.338 1.965,19.9067 -2.0832,10.7485 -7.8337,23.1462 -14.6328,36.196l-0.1147 -0.0584z"/>
    <path id="_67149720" fill="#CCCCCC" fill-rule="nonzero" stroke="black" stroke-width="0.0762" d="M185.906 85.4395c4.9734,-15.737 7.4794,-25.208 7.7442,-31.35l0.1292 0c-0.2874,6.0419 -2.8324,15.3395 -7.8734,30.7752l0 0.5748z"/>
   </g>
   <g id="n_x0020_sommet_x0020_II_0">
    <path id="_77187896" fill="#CCCCCC" fill-rule="nonzero" stroke="black" stroke-width="0.0762" d="M175.809 126.029c-3.0597,-6.6054 -5.5861,-12.8791 -7.5479,-18.8089l0 -0.3852c1.9815,6.0427 4.5523,12.4449 7.6809,19.1941l-0.133 0zm-7.5479 -65.6235c0.9371,-1.6005 2.0092,-3.123 3.2215,-4.5646l0.088 0.0856c-1.2508,1.4873 -2.3526,3.0609 -3.3095,4.7185l0 -0.2395z"/>
    <path id="_77224856" fill="#CCCCCC" fill-rule="nonzero" stroke="black" stroke-width="0.0762" d="M184.449 117.114c-6.435,-16.0948 -11.8332,-31.2958 -13.5544,-44.3381 -1.2693,-7.0038 -1.0108,-13.3206 1.4706,-18.6863l0.1428 0c-2.4931,5.3535 -2.7554,11.6635 -1.4866,18.6639 1.7344,12.9756 7.1476,28.1017 13.5983,44.1164l-0.1707 0.2441z"/>
    <path id="_77034664" fill="#CCCCCC" fill-rule="nonzero" stroke="black" stroke-width="0.0762" d="M185.507 80.224c-4.522,-12.6513 -7.0605,-20.7023 -7.708,-26.1345l0.1295 0c0.6484,5.4186 3.1844,13.4586 7.7003,26.0931l-0.1218 0.0414z"/>
   </g>
   <polygon id="nerv_x0020_I" fill="black" points="185.906,53.505 185.906,126.495 184.449,126.495 184.449,53.505 "/>
   <g id="dom_hairy">
    <path id="_78095048" fill="#CEF794" stroke="#7F7F7F" stroke-width="0.0762" d="M182.004 104.441c-1.5275,0.1867 -2.1002,0.8576 -0.2774,5.1088 1.7303,4.0353 2.1788,6.4654 2.6708,6.7391 0.4921,0.2737 0.0513,-5.5911 0.0514,-8.04 0.0001,-2.449 0.2523,-4.1377 -2.4448,-3.8079z"/>
    <ellipse id="_77755784" fill="#7F7F7F" stroke="#B2B2B2" stroke-width="0.0762" transform="matrix(1.45294 -0.133264 0.133264 1.45294 182.332 105.338)" rx="0.5246" ry="0.3172"/>
    <g id="hairs">
     <path id="_77014064" fill="white" fill-rule="nonzero" stroke="black" stroke-width="0.0762" stroke-linejoin="bevel" d="M182.53 106.622c0.0019,-0.0091 0.0203,0.0618 -0.0735,0.0083 -0.6411,-0.4048 -0.9283,-1.5045 -1.0159,-2.1932 -0.0726,-0.6471 -0.1239,-1.0122 -0.1337,-1.6843 0.0784,0.9116 0.2905,1.847 0.3758,2.2097 0.1627,0.5611 0.4863,1.2427 0.9166,1.3345 -0.0312,0.1465 -0.0472,-0.1154 -0.0693,0.325z"/>
     <path id="_66850184" fill="white" fill-rule="nonzero" stroke="black" stroke-width="0.0762" stroke-linejoin="bevel" d="M182.997 106.887c-0.0107,-0.0171 0.0172,0.0274 0.0578,-0.0219 0.2608,-0.459 0.0579,-1.4906 -0.1312,-2.0969 -0.2016,-0.5652 -0.3085,-0.8271 -0.5555,-1.4115 0.225,0.808 0.4348,1.592 0.4909,1.9097 0.1179,0.5079 0.1812,1.1263 -0.0722,1.2851 0.0858,0.0988 0.0514,-0.0322 0,0l0.2102 0.3355z"/>
     <path id="_76746576" fill="white" fill-rule="nonzero" stroke="black" stroke-width="0.0762" stroke-linejoin="bevel" d="M184.002 105.981c-0.0118,-0.0146 -0.058,-1.1503 -0.2111,-1.5692 -0.1252,-0.376 -0.1967,-0.5153 -0.3948,-0.8874 0.2513,0.4674 0.3328,0.9687 0.3767,1.1892 0.0337,0.1353 0.0461,0.7689 0.0402,1.0644 0.0118,0.0146 0.0374,-0.0477 0.189,0.203z"/>
     <path id="_76609104" fill="white" fill-rule="nonzero" stroke="black" stroke-width="0.0762" stroke-linejoin="bevel" d="M183.184 110.976c0,-0.0474 0.0211,0.0526 -0.0685,0.0158 -0.6473,-0.3211 -1.1474,-1.6159 -1.3421,-2.3896 -0.1842,-0.779 -0.2316,-1.1158 -0.3737,-1.9264 0.2947,1.0422 0.4737,1.7159 0.6053,2.1317 0.2579,0.621 0.7895,1.6526 1.179,1.6526 0,0.1948 -0.0685,0 0,0l0 0.5159z"/>
     <path id="_76758992" fill="white" fill-rule="nonzero" stroke="black" stroke-width="0.0762" stroke-linejoin="bevel" d="M184.471 116.324c0,-0.0264 0.0106,0.0526 -0.1052,0.0157 -0.7895,-0.2737 -1.4211,-1.4632 -1.6948,-2.2106 -0.2316,-0.7 -0.2948,-1.0263 -0.4632,-1.7737 0.3369,1.0106 0.7,1.9369 0.8895,2.3159 0.2895,0.5947 0.8842,1.3316 1.4,1.3316 0,0.0369 -0.1315,-0.1579 -0.0263,0.3211z"/>
     <path id="_77044848" fill="white" fill-rule="nonzero" stroke="black" stroke-width="0.0762" stroke-linejoin="bevel" d="M182.862 109.225c-0.5475,-0.0388 -1.5066,-1.1848 -1.894,-1.8973 -0.3941,-0.6719 -0.3756,-0.8171 -0.743,-1.5474 0.5833,0.8904 0.7725,1.2128 1.0202,1.5312 0.373,0.5317 1.3369,1.6444 1.5687,1.5817 0.0266,0.0454 -0.0332,0.0683 0.0213,0.0363l0.0268 0.2955z"/>
     <path id="_77499976" fill="white" fill-rule="nonzero" stroke="black" stroke-width="0.0762" stroke-linejoin="bevel" d="M184.003 107.688c0.5737,-0.3105 0.7368,-1.4895 0.6369,-2.3053 -0.1053,-0.7737 -0.2842,-1.2895 -0.479,-2.1211 0.0895,1.0894 0.2684,1.9685 0.2842,2.4053 0,0.5474 -0.1158,1.4895 -0.5158,1.6316 0,0.0895 0.0369,0.3211 0.0737,0.3895z"/>
     <path id="_76495312" fill="white" fill-rule="nonzero" stroke="black" stroke-width="0.0762" stroke-linejoin="bevel" d="M183.09 108.126c0,-0.0157 0.0105,0.0527 -0.1053,0.0106 -0.7736,-0.2842 -1.4368,-1.4579 -1.7053,-2.2106 -0.221,-0.6948 -0.3,-1.0316 -0.4684,-1.7685 0.2842,0.979 0.7264,1.9738 0.9053,2.3633 0.3263,0.5842 0.8527,1.2052 1.3737,1.2052 0,0.1685 -0.1053,-0.0683 0,-0.0683l0 0.4683z"/>
     <path id="_66393080" fill="white" fill-rule="nonzero" stroke="black" stroke-width="0.0762" stroke-linejoin="bevel" d="M184.385 113.64c-0.0058,-0.0088 0.0039,0.0731 0.0804,-0.0214 0.5066,-0.6857 0.3586,-1.9553 0.1693,-2.7126 -0.1882,-0.7078 -0.2833,-1.1113 -0.5474,-1.8196 0.2899,0.9872 0.4495,2.0539 0.5081,2.4689 0.0587,0.6543 -0.0023,1.5006 -0.4157,1.7724 0.0925,0.1408 0.0023,-0.1401 0.2053,0.3123z"/>
     <path id="_66277936" fill="white" fill-rule="nonzero" stroke="black" stroke-width="0.0762" stroke-linejoin="bevel" d="M184.103 115.58c0,-0.0264 0,0.0421 0.0789,0.0157 0.6053,-0.3263 1.0948,-1.6053 1.3054,-2.4053 0.1684,-0.7632 0.2316,-1.1264 0.3631,-1.9422 -0.3105,1.0474 -0.6211,2.058 -0.779,2.4475 -0.221,0.6421 -0.579,1.3685 -0.9684,1.3685 0.0263,0.1684 0.0789,0 0,0l0 0.5158z"/>
     <path id="_77812176" fill="white" fill-rule="nonzero" stroke="black" stroke-width="0.0762" stroke-linejoin="bevel" d="M184.29 111.456c-0.0133,-0.0343 0.5816,-2.1798 0.5473,-3.0529 -0.008,-0.7762 -0.0578,-1.0787 -0.2042,-1.8915 0.1884,1.0223 0.0398,2.0061 -0.0105,2.4435 -0.0183,0.2726 -0.375,1.4615 -0.5633,2.009 0.0134,0.0343 0.0984,-0.0665 0.2307,0.4919z"/>
     <path id="_66372160" fill="white" fill-rule="nonzero" stroke="black" stroke-width="0.0762" stroke-linejoin="bevel" d="M183.899 114.967c0,-0.0474 0.0211,0.0526 -0.0685,0.0158 -0.6473,-0.3211 -1.1474,-1.6159 -1.3421,-2.3896 -0.1842,-0.779 -0.2316,-1.1158 -0.3737,-1.9264 0.2947,1.0422 0.4737,1.7159 0.6053,2.1317 0.2579,0.621 0.7895,1.6526 1.179,1.6526 0,0.1948 -0.0685,0 0,0l0 0.5159z"/>
     <path id="_76529008" fill="white" fill-rule="nonzero" stroke="black" stroke-width="0.0762" stroke-linejoin="bevel" d="M184.08 114.602c-0.4527,-0.3105 -0.7001,-1.7842 -0.6737,-2.5948 0,-0.779 0.0894,-0.8948 0.1421,-1.7107 0.0526,1.0632 0.0526,1.437 0.1052,1.837 0.0526,0.6473 0.3211,2.0948 0.5527,2.158 0,0.0526 -0.0632,0.0421 0,0.0421l-0.1263 0.2684z"/>
     <path id="_65784144" fill="white" fill-rule="nonzero" stroke="black" stroke-width="0.0762" stroke-linejoin="bevel" d="M183.266 110.173c0.5737,-0.3105 0.7368,-1.4895 0.6369,-2.3053 -0.1053,-0.7737 -0.2842,-1.2895 -0.479,-2.1211 0.0895,1.0894 0.2684,1.9685 0.2842,2.4053 0,0.5474 -0.1158,1.4895 -0.5158,1.6316 0,0.0895 0.0369,0.3211 0.0737,0.3895z"/>
     <path id="_66248344" fill="white" fill-rule="nonzero" stroke="black" stroke-width="0.0762" stroke-linejoin="bevel" d="M183.156 112.21c0,-0.0157 0.0105,0.0527 -0.1053,0.0106 -0.7736,-0.2842 -1.4368,-1.4579 -1.7053,-2.2106 -0.221,-0.6948 -0.3,-1.0316 -0.4684,-1.7685 0.2842,0.979 0.7264,1.9738 0.9053,2.3633 0.3263,0.5842 0.8527,1.2052 1.3737,1.2052 0,0.1685 -0.1053,-0.0683 0,-0.0683l0 0.4683z"/>
    </g>
   </g>
   <g id="dom_hairy_1">
    <path id="_77284080" fill="#CEF794" stroke="#7F7F7F" stroke-width="0.0762" d="M182.004 63.8012c-1.5275,0.1867 -2.1002,0.8576 -0.2774,5.1088 1.7303,4.0353 2.1788,6.4654 2.6708,6.7391 0.4921,0.2737 0.0513,-5.5911 0.0514,-8.04 0.0001,-2.449 0.2523,-4.1377 -2.4448,-3.8079z"/>
    <ellipse id="_65831600" fill="#7F7F7F" stroke="#B2B2B2" stroke-width="0.0762" transform="matrix(1.45294 -0.133264 0.133264 1.45294 182.332 64.6983)" rx="0.5246" ry="0.3172"/>
    <g id="hairs_2">
     <path id="_77067808" fill="white" fill-rule="nonzero" stroke="black" stroke-width="0.0762" stroke-linejoin="bevel" d="M182.53 65.982c0.0019,-0.0091 0.0203,0.0618 -0.0735,0.0083 -0.6411,-0.4048 -0.9283,-1.5045 -1.0159,-2.1932 -0.0726,-0.6471 -0.1239,-1.0122 -0.1337,-1.6843 0.0784,0.9116 0.2905,1.847 0.3758,2.2097 0.1627,0.5611 0.4863,1.2427 0.9166,1.3345 -0.0312,0.1465 -0.0472,-0.1154 -0.0693,0.325z"/>
     <path id="_76902144" fill="white" fill-rule="nonzero" stroke="black" stroke-width="0.0762" stroke-linejoin="bevel" d="M182.997 66.2467c-0.0107,-0.0171 0.0172,0.0274 0.0578,-0.0219 0.2608,-0.459 0.0579,-1.4906 -0.1312,-2.0969 -0.2016,-0.5652 -0.3085,-0.8271 -0.5555,-1.4115 0.225,0.808 0.4348,1.592 0.4909,1.9097 0.1179,0.5079 0.1812,1.1263 -0.0722,1.2851 0.0858,0.0988 0.0514,-0.0322 0,0l0.2102 0.3355z"/>
     <path id="_67142696" fill="white" fill-rule="nonzero" stroke="black" stroke-width="0.0762" stroke-linejoin="bevel" d="M184.002 65.3407c-0.0118,-0.0146 -0.058,-1.1503 -0.2111,-1.5692 -0.1252,-0.376 -0.1967,-0.5153 -0.3948,-0.8874 0.2513,0.4674 0.3328,0.9687 0.3767,1.1892 0.0337,0.1353 0.0461,0.7689 0.0402,1.0644 0.0118,0.0146 0.0374,-0.0477 0.189,0.203z"/>
     <path id="_67078232" fill="white" fill-rule="nonzero" stroke="black" stroke-width="0.0762" stroke-linejoin="bevel" d="M183.184 70.3356c0,-0.0474 0.0211,0.0526 -0.0685,0.0158 -0.6473,-0.3211 -1.1474,-1.6159 -1.3421,-2.3896 -0.1842,-0.779 -0.2316,-1.1158 -0.3737,-1.9264 0.2947,1.0422 0.4737,1.7159 0.6053,2.1317 0.2579,0.621 0.7895,1.6526 1.179,1.6526 0,0.1948 -0.0685,0 0,0l0 0.5159z"/>
     <path id="_66269888" fill="white" fill-rule="nonzero" stroke="black" stroke-width="0.0762" stroke-linejoin="bevel" d="M184.471 75.6843c0,-0.0264 0.0106,0.0526 -0.1052,0.0157 -0.7895,-0.2737 -1.4211,-1.4632 -1.6948,-2.2106 -0.2316,-0.7 -0.2948,-1.0263 -0.4632,-1.7737 0.3369,1.0106 0.7,1.9369 0.8895,2.3159 0.2895,0.5947 0.8842,1.3316 1.4,1.3316 0,0.0369 -0.1315,-0.1579 -0.0263,0.3211z"/>
     <path id="_76950440" fill="white" fill-rule="nonzero" stroke="black" stroke-width="0.0762" stroke-linejoin="bevel" d="M182.862 68.5849c-0.5475,-0.0388 -1.5066,-1.1848 -1.894,-1.8973 -0.3941,-0.6719 -0.3756,-0.8171 -0.743,-1.5474 0.5833,0.8904 0.7725,1.2128 1.0202,1.5312 0.373,0.5317 1.3369,1.6444 1.5687,1.5817 0.0266,0.0454 -0.0332,0.0683 0.0213,0.0363l0.0268 0.2955z"/>
     <path id="_76471824" fill="white" fill-rule="nonzero" stroke="black" stroke-width="0.0762" stroke-linejoin="bevel" d="M184.003 67.0478c0.5737,-0.3105 0.7368,-1.4895 0.6369,-2.3053 -0.1053,-0.7737 -0.2842,-1.2895 -0.479,-2.1211 0.0895,1.0894 0.2684,1.9685 0.2842,2.4053 0,0.5474 -0.1158,1.4895 -0.5158,1.6316 0,0.0895 0.0369,0.3211 0.0737,0.3895z"/>
     <path id="_27628000" fill="white" fill-rule="nonzero" stroke="black" stroke-width="0.0762" stroke-linejoin="bevel" d="M183.09 67.4857c0,-0.0157 0.0105,0.0527 -0.1053,0.0106 -0.7736,-0.2842 -1.4368,-1.4579 -1.7053,-2.2106 -0.221,-0.6948 -0.3,-1.0316 -0.4684,-1.7685 0.2842,0.979 0.7264,1.9738 0.9053,2.3633 0.3263,0.5842 0.8527,1.2052 1.3737,1.2052 0,0.1685 -0.1053,-0.0683 0,-0.0683l0 0.4683z"/>
     <path id="_66529216" fill="white" fill-rule="nonzero" stroke="black" stroke-width="0.0762" stroke-linejoin="bevel" d="M184.385 72.9998c-0.0058,-0.0088 0.0039,0.0731 0.0804,-0.0214 0.5066,-0.6857 0.3586,-1.9553 0.1693,-2.7126 -0.1882,-0.7078 -0.2833,-1.1113 -0.5474,-1.8196 0.2899,0.9872 0.4495,2.0539 0.5081,2.4689 0.0587,0.6543 -0.0023,1.5006 -0.4157,1.7724 0.0925,0.1408 0.0023,-0.1401 0.2053,0.3123z"/>
     <path id="_66506432" fill="white" fill-rule="nonzero" stroke="black" stroke-width="0.0762" stroke-linejoin="bevel" d="M184.103 74.9399c0,-0.0264 0,0.0421 0.0789,0.0157 0.6053,-0.3263 1.0948,-1.6053 1.3054,-2.4053 0.1684,-0.7632 0.2316,-1.1264 0.3631,-1.9422 -0.3105,1.0474 -0.6211,2.058 -0.779,2.4475 -0.221,0.6421 -0.579,1.3685 -0.9684,1.3685 0.0263,0.1684 0.0789,0 0,0l0 0.5158z"/>
     <path id="_66745424" fill="white" fill-rule="nonzero" stroke="black" stroke-width="0.0762" stroke-linejoin="bevel" d="M184.29 70.8163c-0.0133,-0.0343 0.5816,-2.1798 0.5473,-3.0529 -0.008,-0.7762 -0.0578,-1.0787 -0.2042,-1.8915 0.1884,1.0223 0.0398,2.0061 -0.0105,2.4435 -0.0183,0.2726 -0.375,1.4615 -0.5633,2.009 0.0134,0.0343 0.0984,-0.0665 0.2307,0.4919z"/>
     <path id="_66472680" fill="white" fill-rule="nonzero" stroke="black" stroke-width="0.0762" stroke-linejoin="bevel" d="M183.899 74.3272c0,-0.0474 0.0211,0.0526 -0.0685,0.0158 -0.6473,-0.3211 -1.1474,-1.6159 -1.3421,-2.3896 -0.1842,-0.779 -0.2316,-1.1158 -0.3737,-1.9264 0.2947,1.0422 0.4737,1.7159 0.6053,2.1317 0.2579,0.621 0.7895,1.6526 1.179,1.6526 0,0.1948 -0.0685,0 0,0l0 0.5159z"/>
     <path id="_66433888" fill="white" fill-rule="nonzero" stroke="black" stroke-width="0.0762" stroke-linejoin="bevel" d="M184.08 73.9617c-0.4527,-0.3105 -0.7001,-1.7842 -0.6737,-2.5948 0,-0.779 0.0894,-0.8948 0.1421,-1.7107 0.0526,1.0632 0.0526,1.437 0.1052,1.837 0.0526,0.6473 0.3211,2.0948 0.5527,2.158 0,0.0526 -0.0632,0.0421 0,0.0421l-0.1263 0.2684z"/>
     <path id="_66514536" fill="white" fill-rule="nonzero" stroke="black" stroke-width="0.0762" stroke-linejoin="bevel" d="M183.266 69.5325c0.5737,-0.3105 0.7368,-1.4895 0.6369,-2.3053 -0.1053,-0.7737 -0.2842,-1.2895 -0.479,-2.1211 0.0895,1.0894 0.2684,1.9685 0.2842,2.4053 0,0.5474 -0.1158,1.4895 -0.5158,1.6316 0,0.0895 0.0369,0.3211 0.0737,0.3895z"/>
     <path id="_76488552" fill="white" fill-rule="nonzero" stroke="black" stroke-width="0.0762" stroke-linejoin="bevel" d="M183.156 71.5697c0,-0.0157 0.0105,0.0527 -0.1053,0.0106 -0.7736,-0.2842 -1.4368,-1.4579 -1.7053,-2.2106 -0.221,-0.6948 -0.3,-1.0316 -0.4684,-1.7685 0.2842,0.979 0.7264,1.9738 0.9053,2.3633 0.3263,0.5842 0.8527,1.2052 1.3737,1.2052 0,0.1685 -0.1053,-0.0683 0,-0.0683l0 0.4683z"/>
    </g>
   </g>
   <g id="dom_hairy_3">
    <path id="_76544008" fill="#CEF794" stroke="#7F7F7F" stroke-width="0.0762" d="M190.002 93.7785c-2.0891,-0.5613 -4.0955,-0.8356 -3.8967,5.3547 0.1726,5.3732 -0.4826,8.326 -0.007,8.8738 0.4757,0.5479 3.3719,-6.122 4.8198,-8.8147 1.4479,-2.6927 2.7728,-4.4228 -0.9161,-5.4138z"/>
    <ellipse id="_77057016" fill="#7F7F7F" stroke="#B2B2B2" stroke-width="0.0762" transform="matrix(1.96108 0.582513 -0.686319 1.66447 189.897 94.9296)" rx="0.5246" ry="0.3172"/>
    <g id="hairs_4">
     <path id="_76584880" fill="white" fill-rule="nonzero" stroke="black" stroke-width="0.0762" stroke-linejoin="bevel" d="M189.394 96.4403c0.008,-0.0091 -0.0101,0.0781 -0.1001,-0.0278 -0.5913,-0.7668 -0.3131,-2.12 -0.0195,-2.9212 0.2886,-0.7481 0.4379,-1.1753 0.8225,-1.9192 -0.4373,1.0417 -0.7155,2.1766 -0.8194,2.6183 -0.121,0.6986 -0.1047,1.6105 0.3985,1.9273 -0.1271,0.1454 0.0071,-0.1505 -0.282,0.3226z"/>
     <path id="_76648288" fill="white" fill-rule="nonzero" stroke="black" stroke-width="0.0762" stroke-linejoin="bevel" d="M189.841 96.9654c-0.0038,-0.0242 0.0061,0.0388 0.0879,0.0049 0.6091,-0.3739 0.9562,-1.61 1.0696,-2.3715 0.073,-0.7226 0.0893,-1.0643 0.1148,-1.8308 -0.1862,1.0013 -0.3778,1.9687 -0.493,2.3462 -0.1475,0.6176 -0.4312,1.3293 -0.8533,1.3768 0.0527,0.1517 0.0856,-0.0097 0,0l0.074 0.4744z"/>
     <path id="_77162680" fill="white" fill-rule="nonzero" stroke="black" stroke-width="0.0762" stroke-linejoin="bevel" d="M191.68 96.4738c-0.0067,-0.022 0.605,-1.2939 0.6543,-1.8314 0.0601,-0.4763 0.0498,-0.6652 0.0131,-1.1738 0.0492,0.64 -0.1415,1.2322 -0.215,1.4966 -0.0363,0.1657 -0.3948,0.8686 -0.5772,1.1905 0.0067,0.022 0.0767,-0.0336 0.1248,0.3181z"/>
     <path id="_77354288" fill="white" fill-rule="nonzero" stroke="black" stroke-width="0.0762" stroke-linejoin="bevel" d="M187.667 101.555c0.028,-0.0521 -0.0039,0.0684 -0.0981,-0.017 -0.6488,-0.6779 -0.5311,-2.3525 -0.326,-3.3009 0.2218,-0.949 0.3596,-1.3432 0.6547,-2.3057 -0.2343,1.2938 -0.4007,2.1243 -0.476,2.6476 -0.0331,0.8123 0.0458,2.2134 0.5503,2.4088 -0.1151,0.2142 -0.0887,-0.0344 0,0l-0.3049 0.5672z"/>
     <path id="_76607344" fill="white" fill-rule="nonzero" stroke="black" stroke-width="0.0762" stroke-linejoin="bevel" d="M186.172 108.082c0.0156,-0.029 -0.0175,0.0631 -0.1457,-0.0355 -0.861,-0.6971 -0.976,-2.322 -0.8888,-3.2811 0.1139,-0.8859 0.225,-1.2764 0.4486,-2.1828 -0.161,1.2802 -0.2383,2.481 -0.2168,2.9928 0.0235,0.7992 0.3583,1.9079 1.0265,2.1667 -0.0218,0.0405 -0.077,-0.2396 -0.2238,0.3399z"/>
     <path id="_67233568" fill="white" fill-rule="nonzero" stroke="black" stroke-width="0.0762" stroke-linejoin="bevel" d="M188.285 99.469c-0.6865,-0.3174 -1.2514,-2.0588 -1.3321,-3.0366 -0.1134,-0.9365 -0.0035,-1.0868 -0.0477,-2.0742 0.2293,1.2718 0.2837,1.7211 0.4164,2.1955 0.1688,0.7719 0.7598,2.479 1.0971,2.5263 0.0077,0.0633 -0.0833,0.0585 0.0061,0.0507l-0.1398 0.3383z"/>
     <path id="_77282184" fill="white" fill-rule="nonzero" stroke="black" stroke-width="0.0762" stroke-linejoin="bevel" d="M190.671 98.351c0.9268,-0.0535 1.8351,-1.268 2.188,-2.2153 0.321,-0.9035 0.3941,-1.5605 0.6334,-2.5726 -0.5281,1.2428 -0.816,2.2992 -1.0538,2.7874 -0.3236,0.6019 -1.0306,1.5797 -1.6328,1.5353 -0.0529,0.0984 -0.1421,0.3716 -0.1348,0.4652z"/>
     <path id="_67171960" fill="white" fill-rule="nonzero" stroke="black" stroke-width="0.0762" stroke-linejoin="bevel" d="M189.231 98.3749c0.0093,-0.0173 -0.0175,0.0632 -0.1426,-0.0412 -0.8343,-0.7007 -0.9996,-2.324 -0.9024,-3.2864 0.1244,-0.8748 0.2213,-1.2848 0.4387,-2.1796 -0.2105,1.2191 -0.2259,2.5348 -0.2243,3.0529 0.0774,0.806 0.3921,1.7531 1.0671,2.0145 -0.0996,0.1852 -0.096,-0.128 0.0404,-0.0752l-0.2769 0.515z"/>
     <path id="_67232680" fill="white" fill-rule="nonzero" stroke="black" stroke-width="0.0762" stroke-linejoin="bevel" d="M187.648 105.088c-0.0022,-0.0125 -0.0381,0.0823 0.1168,0.0168 1.0617,-0.4998 1.6205,-1.97 1.823,-2.8978 0.1747,-0.8726 0.29,-1.3641 0.3666,-2.2754 -0.208,1.231 -0.6319,2.484 -0.8013,2.9697 -0.3109,0.7489 -0.8901,1.6489 -1.5864,1.7403 0.0367,0.2012 0.0858,-0.1529 0.0813,0.4464z"/>
     <path id="_77338752" fill="white" fill-rule="nonzero" stroke="black" stroke-width="0.0762" stroke-linejoin="bevel" d="M186.136 107.079c0.0156,-0.029 -0.0249,0.0463 0.0931,0.057 0.977,-0.0552 2.3673,-1.2158 3.113,-1.9898 0.6694,-0.7548 0.9659,-1.1224 1.6187,-1.9535 -1.0215,0.996 -2.0213,1.9513 -2.4561,2.3004 -0.666,0.5951 -1.5591,1.2142 -2.0637,1.0188 -0.0654,0.1984 0.1023,0.0396 0,0l-0.305 0.5671z"/>
     <path id="_76905616" fill="white" fill-rule="nonzero" stroke="black" stroke-width="0.0762" stroke-linejoin="bevel" d="M188.816 102.639c0.003,-0.0444 2.0421,-2.105 2.5138,-3.0823 0.4486,-0.8574 0.5629,-1.2151 0.8538,-2.1822 -0.3604,1.2186 -1.1344,2.2258 -1.4582,2.6815 -0.1849,0.2905 -1.3499,1.4188 -1.9175,1.9263 -0.003,0.0444 0.1668,-0.0237 0.0081,0.6567z"/>
     <path id="_67220456" fill="white" fill-rule="nonzero" stroke="black" stroke-width="0.0762" stroke-linejoin="bevel" d="M186.234 106.303c0.028,-0.0521 -0.0038,0.0684 -0.098,-0.017 -0.6488,-0.6779 -0.5312,-2.3525 -0.3261,-3.3009 0.2219,-0.949 0.3597,-1.3432 0.6547,-2.3057 -0.2343,1.2938 -0.4007,2.1243 -0.476,2.6476 -0.0331,0.8123 0.0458,2.2133 0.5504,2.4088 -0.1152,0.2142 -0.0887,-0.0344 0,0l-0.305 0.5672z"/>
     <path id="_66495440" fill="white" fill-rule="nonzero" stroke="black" stroke-width="0.0762" stroke-linejoin="bevel" d="M186.684 105.992c-0.4029,-0.5686 0.1479,-2.3132 0.6613,-3.1912 0.4605,-0.8566 0.6448,-0.939 1.1953,-1.8097 -0.5603,1.1954 -0.7813,1.6064 -0.9496,2.0726 -0.3145,0.7383 -0.8225,2.4646 -0.5598,2.6502 -0.0311,0.0579 -0.1067,0.0146 -0.0249,0.0463l-0.3223 0.2318z"/>
     <path id="_76519040" fill="white" fill-rule="nonzero" stroke="black" stroke-width="0.0762" stroke-linejoin="bevel" d="M188.248 100.714c0.9269,-0.0536 1.8352,-1.2681 2.1881,-2.2154 0.321,-0.9035 0.3941,-1.5604 0.6334,-2.5726 -0.5281,1.2429 -0.816,2.2992 -1.0538,2.7874 -0.3236,0.6019 -1.0307,1.5798 -1.6328,1.5353 -0.053,0.0984 -0.1421,0.3716 -0.1349,0.4653z"/>
     <path id="_76521424" fill="white" fill-rule="nonzero" stroke="black" stroke-width="0.0762" stroke-linejoin="bevel" d="M186.901 102.898c0.0093,-0.0173 -0.0175,0.0632 -0.1426,-0.0412 -0.8343,-0.7007 -0.9995,-2.324 -0.9024,-3.2864 0.1244,-0.8748 0.2213,-1.2848 0.4387,-2.1796 -0.2105,1.2191 -0.2259,2.5348 -0.2243,3.0529 0.0774,0.806 0.3921,1.753 1.0671,2.0145 -0.0996,0.1852 -0.096,-0.128 0.0404,-0.0752l-0.2769 0.515z"/>
    </g>
   </g>
  </g>
  <g id="LfDomatia_Yes" onclick="parent.replacechar('LfDomatia_Yes')" onmousemove="parent.showtooltip('LfDomatia_Yes', 'Domatia not hairy')" onmouseout="parent.hidetooltip('LfDomatia_Yes')" cursor="pointer" >
   <path id="limbe_5" fill="#A6D10D" stroke="black" stroke-width="0.0762" d="M121.875 53.505c9.4844,17.3022 15.3666,34.9013 22.0945,51.1147 2.9734,7.3034 5.4916,14.5826 7.5273,21.8756l-63.8741 0 0 -72.9903 34.2523 0z"/>
   <path id="cadre_6" fill="#CCCCCC" fill-rule="nonzero" stroke="#CCCCCC" stroke-width="0.0762" d="M87.6224 53.505l64.7552 0 0 72.9903 -64.7552 0 0 -72.9903zm64.6908 0.0644l-64.6264 0 0 72.8615 64.6264 0 0 -72.8615z"/>
   <g id="n_x0020_sommet_x0020_II_7">
    <path id="_77064016" fill="#CCCCCC" fill-rule="nonzero" stroke="black" stroke-width="0.0762" d="M131.235 125.905c1.9526,-4.7019 3.3805,-9.0281 4.3108,-13.1043 3.2587,-14.2775 0.4301,-25.5024 -7.1821,-39.1461l0.1129 -0.0614c7.6278,13.6719 10.4621,24.9218 7.195,39.2353 -0.9288,4.069 -2.3519,8.3863 -4.2974,13.0765l-0.1392 0z"/>
    <path id="_77765472" fill="#CCCCCC" fill-rule="nonzero" stroke="black" stroke-width="0.0762" d="M114.758 125.987c6.5487,-12.7969 10.8731,-24.3199 12.719,-34.4713 2.5582,-14.0672 0.3584,-25.5017 -7.2703,-34.0479l0.0963 -0.0848c7.6572,8.5782 9.8664,20.0482 7.3008,34.1552 -1.8454,10.1486 -6.1633,21.6635 -12.7012,34.4488l-0.1446 0z"/>
    <path id="_67139808" fill="#CCCCCC" fill-rule="nonzero" stroke="black" stroke-width="0.0762" d="M105.549 110.134c6.7943,-13.0404 12.5404,-25.4277 14.6206,-36.1614 1.4666,-7.5663 1.1097,-14.3106 -1.9872,-19.8829l0.1491 0c3.0807,5.5867 3.4318,12.338 1.965,19.9067 -2.0832,10.7485 -7.8337,23.1462 -14.6328,36.196l-0.1147 -0.0584z"/>
    <path id="_76625448" fill="#CCCCCC" fill-rule="nonzero" stroke="black" stroke-width="0.0762" d="M105.906 85.4395c4.9734,-15.737 7.4794,-25.208 7.7442,-31.35l0.1292 0c-0.2874,6.0419 -2.8324,15.3395 -7.8734,30.7752l0 0.5748z"/>
   </g>
   <g id="n_x0020_sommet_x0020_II_8">
    <path id="_66478920" fill="#CCCCCC" fill-rule="nonzero" stroke="black" stroke-width="0.0762" d="M95.8088 126.029c-3.0597,-6.6054 -5.5861,-12.8791 -7.5479,-18.8089l0 -0.3852c1.9815,6.0427 4.5523,12.4449 7.6809,19.1941l-0.133 0zm-7.5479 -65.6235c0.9371,-1.6005 2.0092,-3.123 3.2215,-4.5646l0.088 0.0856c-1.2508,1.4873 -2.3526,3.0609 -3.3095,4.7185l0 -0.2395z"/>
    <path id="_77227504" fill="#CCCCCC" fill-rule="nonzero" stroke="black" stroke-width="0.0762" d="M104.449 117.114c-6.435,-16.0948 -11.8332,-31.2958 -13.5544,-44.3381 -1.2693,-7.0038 -1.0108,-13.3206 1.4706,-18.6863l0.1428 0c-2.4931,5.3535 -2.7554,11.6635 -1.4866,18.6639 1.7344,12.9756 7.1476,28.1017 13.5983,44.1164l-0.1707 0.2441z"/>
    <path id="_77206360" fill="#CCCCCC" fill-rule="nonzero" stroke="black" stroke-width="0.0762" d="M105.507 80.224c-4.522,-12.6513 -7.0605,-20.7023 -7.708,-26.1345l0.1295 0c0.6484,5.4186 3.1844,13.4586 7.7003,26.0931l-0.1218 0.0414z"/>
   </g>
   <polygon id="nerv_x0020_I_9" fill="black" points="105.906,53.505 105.906,126.495 104.449,126.495 104.449,53.505 "/>
   <g id="domatio">
    <path id="_76619024" fill="#CEF794" stroke="#7F7F7F" stroke-width="0.0762" d="M102.004 104.441c-1.5275,0.1867 -2.1002,0.8576 -0.2774,5.1088 1.7303,4.0353 2.1788,6.4654 2.6708,6.7391 0.4921,0.2737 0.0513,-5.5911 0.0514,-8.04 0.0001,-2.449 0.2523,-4.1377 -2.4448,-3.8079z"/>
    <ellipse id="_77873376" fill="#7F7F7F" stroke="#B2B2B2" stroke-width="0.0762" transform="matrix(1.45294 -0.133264 0.133264 1.45294 102.332 105.338)" rx="0.5246" ry="0.3172"/>
   </g>
   <g id="domatio_10">
    <path id="_76454840" fill="#CEF794" stroke="#7F7F7F" stroke-width="0.0762" d="M102.174 63.7862c-1.5323,0.1429 -2.1239,0.7971 -0.4238,5.0988 1.6139,4.0833 1.9925,6.5252 2.4764,6.8129 0.484,0.2877 0.2116,-5.5873 0.2819,-8.0352 0.0704,-2.4479 0.3709,-4.1287 -2.3345,-3.8765z"/>
    <ellipse id="_76714280" fill="#7F7F7F" stroke="#B2B2B2" stroke-width="0.0762" transform="matrix(1.45616 -0.0915422 0.0915422 1.45616 102.476 64.6924)" rx="0.5246" ry="0.3172"/>
   </g>
   <g id="domatio_11">
    <path id="_67216960" fill="#CEF794" stroke="#7F7F7F" stroke-width="0.0762" d="M109.884 95.356c1.893,0.2984 2.5634,1.0823 0.0116,5.7295 -2.4224,4.4113 -3.2627,7.1513 -3.7724,7.3797 -0.5097,0.2285 -0.0867,-7.3261 -0.2168,-10.1169 -0.1301,-2.7907 0.6351,-3.5194 3.9776,-2.9923z"/>
    <ellipse id="_76877920" fill="#7F7F7F" stroke="#B2B2B2" stroke-width="0.0762" transform="matrix(-1.80351 -0.234305 -0.261326 1.61703 109.416 96.34)" rx="0.5246" ry="0.3172"/>
   </g>
  </g>
  <g id="LfDomatia_No" onclick="parent.replacechar('LfDomatia_No')" onmousemove="parent.showtooltip('LfDomatia_No', 'Domatia absent')" onmouseout="parent.hidetooltip('LfDomatia_No')" cursor="pointer" >
   <path id="limbe_12" fill="#A6D10D" stroke="black" stroke-width="0.0762" d="M41.8747 53.505c9.4843,17.3022 15.3665,34.9013 22.0945,51.1147 2.9734,7.3034 5.4916,14.5826 7.5273,21.8756l-63.8742 0 0 -72.9903 34.2524 0z"/>
   <path id="cadre_13" fill="#CCCCCC" fill-rule="nonzero" stroke="#CCCCCC" stroke-width="0.0762" d="M7.6223 53.505l64.7553 0 0 72.9903 -64.7553 0 0 -72.9903zm64.6908 0.0644l-64.6263 0 0 72.8615 64.6263 0 0 -72.8615z"/>
   <g id="n_x0020_sommet_x0020_II_14">
    <path id="_76603080" fill="#CCCCCC" fill-rule="nonzero" stroke="black" stroke-width="0.0762" d="M51.235 125.905c1.9527,-4.7019 3.3805,-9.0281 4.3108,-13.1043 3.2588,-14.2775 0.4301,-25.5024 -7.1821,-39.1461l0.1129 -0.0614c7.6279,13.6719 10.4621,24.9218 7.195,39.2353 -0.9287,4.069 -2.3519,8.3863 -4.2974,13.0765l-0.1392 0z"/>
    <path id="_66280688" fill="#CCCCCC" fill-rule="nonzero" stroke="black" stroke-width="0.0762" d="M34.7581 125.987c6.5488,-12.7969 10.8731,-24.3199 12.7191,-34.4713 2.5582,-14.0672 0.3584,-25.5017 -7.2703,-34.0479l0.0963 -0.0848c7.6572,8.5782 9.8663,20.0482 7.3008,34.1552 -1.8455,10.1486 -6.1634,21.6635 -12.7012,34.4488l-0.1447 0z"/>
    <path id="_67091232" fill="#CCCCCC" fill-rule="nonzero" stroke="black" stroke-width="0.0762" d="M25.5485 110.134c6.7942,-13.0404 12.5403,-25.4277 14.6206,-36.1614 1.4665,-7.5663 1.1096,-14.3106 -1.9872,-19.8829l0.149 0c3.0807,5.5867 3.4319,12.338 1.965,19.9067 -2.0832,10.7485 -7.8337,23.1462 -14.6328,36.196l-0.1146 -0.0584z"/>
    <path id="_77267104" fill="#CCCCCC" fill-rule="nonzero" stroke="black" stroke-width="0.0762" d="M25.8202 81.267c5.0175,-13.6052 7.5492,-21.8252 7.8303,-27.1775l0.1292 0c-0.2807,5.3679 -2.8154,13.5995 -7.8384,27.2199l-0.1211 -0.0424z"/>
   </g>
   <g id="n_x0020_sommet_x0020_II_15">
    <path id="_66505032" fill="#CCCCCC" fill-rule="nonzero" stroke="black" stroke-width="0.0762" d="M15.8087 126.029c-3.0597,-6.6054 -5.5861,-12.8791 -7.5479,-18.8089l0 -0.3852c1.9815,6.0427 4.5524,12.4449 7.6809,19.1941l-0.133 0zm-7.5479 -65.6235c0.9372,-1.6005 2.0092,-3.123 3.2216,-4.5646l0.0879 0.0856c-1.2508,1.4873 -2.3526,3.0609 -3.3095,4.7185l0 -0.2395z"/>
    <path id="_66866424" fill="#CCCCCC" fill-rule="nonzero" stroke="black" stroke-width="0.0762" d="M25.3916 109.663c-6.7887,-13.2988 -12.5116,-25.9331 -14.497,-36.8873 -1.2693,-7.0038 -1.0108,-13.3206 1.4707,-18.6863l0.1427 0c-2.4931,5.3535 -2.7554,11.6635 -1.4865,18.6639 1.9826,10.939 7.7012,23.563 14.4851,36.8523l-0.115 0.0574z"/>
    <path id="_76841904" fill="#CCCCCC" fill-rule="nonzero" stroke="black" stroke-width="0.0762" d="M25.5068 80.224c-4.522,-12.6513 -7.0606,-20.7023 -7.7081,-26.1345l0.1296 0c0.6483,5.4186 3.1843,13.4586 7.7002,26.0931l-0.1217 0.0414z"/>
   </g>
   <polygon id="nerv_x0020_I_16" fill="black" points="25.9064,53.505 25.9064,126.495 24.449,126.495 24.449,53.505 "/>
  </g>
 </g>
<image xlink:href="tick.gif" id="imgtick" x="-100" y="-100" width="15" height="15"/>
<rect id="recttooltip" x="-100" y="-100" width="55" height="6" fill-opacity="0.4" pointer-events="none"/>
<text id="textboxid" x="-100" y="-100" pointer-events="none"> </text>
</a></svg>
