<?xml version="1.0" encoding="UTF-8"?>
<!DOCTYPE svg PUBLIC "-//W3C//DTD SVG 1.1//EN" "http://www.w3.org/Graphics/SVG/1.1/DTD/svg11.dtd">
<!-- Creator: CorelDRAW -->
<svg xmlns="http://www.w3.org/2000/svg" xml:space="preserve" shape-rendering="geometricPrecision" text-rendering="geometricPrecision" image-rendering="optimizeQuality" fill-rule="evenodd" clip-rule="evenodd"
viewBox="0 0 240 180"
 xmlns:xlink="http://www.w3.org/1999/xlink">
<a>
 <g id="Plan_x0020_1">
  <metadata id="CorelCorpID_0Corel-Layer"/>
  <rect fill="none" width="240" height="180"/>
  <g id="Margin_Spiny" onclick="parent.replacechar('Margin_Spiny')" onmousemove="parent.showtooltip('Margin_Spiny', 'Margin spiny')" onmouseout="parent.hidetooltip('Margin_Spiny')" cursor="pointer" >
   <polygon id="_77811616" fill="none" stroke="black" stroke-width="0.0762" stroke-linejoin="bevel" points="168.911,118.72 231.089,118.72 231.089,135.72 168.911,135.72 "/>
   <path id="_66739488" fill="none" stroke="black" stroke-width="0.0762" stroke-linecap="round" stroke-linejoin="bevel" d="M222.203 135.83c1.8079,1.4552 3.2409,2.4253 5.1593,3.2854 0,0 0,0 0,0 -9.3486,4.1893 -16.2501,17.5507 -33.448,14.9268 -10.2966,-1.4771 -13.0088,-11.1125 -18.5209,-14.7504 0,0 -6.416,0.0441 -6.4382,0.0441 -0.0441,-0.0441 0.0222,-1.1687 -0.0441,-1.1687 0,0 5.0712,0.0881 6.5927,0 1.2347,-0.1101 3.6378,-2.0945 3.616,-2.4032"/>
   <path id="_76903984" fill="#78B43C" stroke="black" stroke-width="0.0762" stroke-linejoin="bevel" d="M179.12 135.72l42.9286 0c-1.0755,-0.8984 -2.1337,-1.8679 -3.2031,-2.8585 -1.9726,-0.0703 -4.7645,0.0801 -6.2126,-5.3846 -3.4245,-1.4266 -10.8127,1.8783 -11.607,-4.743 -6.332,3.7728 -10.9787,5.6792 -12.6255,2.5571 -4.0147,4.8337 -6.461,6.5636 -9.2804,10.429z"/>
   <path id="_67220560" fill="none" stroke="black" stroke-width="0.0762" stroke-linejoin="bevel" d="M225.863 139.182c-8.2243,0.1104 -15.9192,0.441 -24.0772,0.2427 -9.1944,-0.0441 -14.6402,0.066 -23.8348,-0.2427"/>
   <polygon id="_67172008" fill="none" stroke="black" stroke-width="0.0762" stroke-linejoin="bevel" points="219.523,132.482 215.277,135.72 "/>
   <polygon id="_67161992" fill="none" stroke="black" stroke-width="0.0762" stroke-linejoin="bevel" points="213.192,127.142 200.285,135.72 "/>
   <polygon id="_76576504" fill="none" stroke="black" stroke-width="0.0762" stroke-linejoin="bevel" points="201.431,122.336 189.33,135.692 "/>
   <polygon id="_77299080" fill="none" stroke="black" stroke-width="0.0762" stroke-linejoin="bevel" points="188.785,124.699 182.484,135.637 "/>
  </g>
  <g id="Margin_Undulate" onclick="parent.replacechar('Margin_Undulate')" onmousemove="parent.showtooltip('Margin_Undulate', 'Margin undulate')" onmouseout="parent.hidetooltip('Margin_Undulate')" cursor="pointer" >
   <polygon id="_66455952" fill="none" stroke="black" stroke-width="0.0762" stroke-linejoin="bevel" points="88.9113,118.72 151.089,118.72 151.089,135.72 88.9113,135.72 "/>
   <path id="_66382032" fill="none" stroke="black" stroke-width="0.0762" stroke-linecap="round" stroke-linejoin="bevel" d="M142.247 135.83c1.7197,1.4552 3.1972,2.4253 5.1152,3.2854 0,0 0,0 0,0 -9.3264,4.1893 -16.1837,17.5507 -33.4035,14.9268 -10.341,-1.4771 -13.0529,-11.1125 -18.5432,-14.7504 0,0 -6.4601,0.0441 -6.5042,0.0441 0,-0.0441 0.066,-1.1687 0,-1.1687 0,0 5.0931,0.0881 6.5483,0 1.2347,-0.1101 3.5059,-2.0504 3.3736,-2.3372"/>
   <path id="_76966376" fill="#78B43C" stroke="black" stroke-width="0.0762" stroke-linejoin="bevel" d="M98.8773 135.72l43.4578 0c-2.4031,-2.0284 -6.0631,-3.2632 -7.4302,-6.6145 -0.86,-1.8303 -4.7848,-0.3751 -4.9612,-3.4837 -0.1323,-2.624 -4.3875,-2.9545 -6.9232,-2.5799 -2.249,0.2427 -5.7768,3.0649 -6.9233,0.926 -1.9621,-3.5496 -7.9594,0.9261 -8.8854,3.5941 -0.6174,1.4112 -2.5577,0.8157 -3.616,2.0063 -1.698,2.0285 -3.1091,4.0351 -4.7185,6.1517z"/>
   <path id="_76750256" fill="#91CDAE" stroke="black" stroke-width="0.0762" d="M103.86 129.282l2.9323 -0.8819c-0.7274,1.6976 -1.7639,5.049 -2.2049,5.2476 -0.551,0.0882 -0.5069,-2.9327 -0.7274,-4.3657z"/>
   <path id="_77133072" fill="#91CDAE" stroke="black" stroke-width="0.0762" d="M114.245 122.623c-0.2864,2.4694 -1.4993,7.1215 -0.9701,7.4743 0.5732,0.3968 2.7781,-3.5497 4.0569,-5.3136l-1.1684 -0.5073 -0.6614 -0.992 -1.257 -0.6614z"/>
   <path id="_77285768" fill="#91CDAE" stroke="black" stroke-width="0.0762" d="M128.665 123.836c-0.926,1.7861 -3.0205,4.9388 -2.7559,5.4461 0.3087,0.4629 3.0646,-1.5215 4.542,-2.293l-0.485 -0.9261 -0.2428 -1.0364 -0.3968 -1.0143 -0.6615 -0.1763z"/>
   <path id="_65788352" fill="#91CDAE" stroke="black" stroke-width="0.0762" d="M134.971 129.282c-0.6833,0.8157 -2.1608,2.3591 -2.0285,2.5796 0.1323,0.0881 1.8521,-0.9261 2.7563,-1.323l-0.3309 -0.4409 -0.3969 -0.8157z"/>
   <path id="_65575504" fill="none" stroke="black" stroke-width="0.0762" stroke-linejoin="bevel" d="M146.172 139.116c-8.8413,0.1323 -14.3977,-0.1764 -23.1952,-0.375 -9.8778,-0.0441 -15.8087,0.2427 -25.6866,-0.0882"/>
  </g>
  <g id="Margin_Serrate" onclick="parent.replacechar('Margin_Serrate')" onmousemove="parent.showtooltip('Margin_Serrate', 'Margin serrate')" onmouseout="parent.hidetooltip('Margin_Serrate')" cursor="pointer" >
   <polygon id="_76917752" fill="none" stroke="black" stroke-width="0.0762" stroke-linejoin="bevel" points="8.9113,118.72 71.0886,118.72 71.0886,135.72 8.9113,135.72 "/>
   <path id="_45415304" fill="none" stroke="black" stroke-width="0.0762" stroke-linecap="round" stroke-linejoin="bevel" d="M62.2032 135.83c1.8079,1.4552 3.2409,2.4253 5.1593,3.2854 0,0 0,0 0,0 -9.3486,4.1893 -16.2501,17.5507 -33.448,14.9268 -10.2966,-1.4771 -13.0088,-11.1125 -18.5209,-14.7504 0,0 -6.416,0.0441 -6.4382,0.0441 -0.0441,-0.0441 0.0222,-1.1687 -0.0441,-1.1687 0,0 5.0712,0.0881 6.5927,0 1.2347,-0.1101 3.6378,-2.0945 3.616,-2.4032"/>
   <path id="_65753976" fill="#78B43C" stroke="black" stroke-width="0.0762" stroke-linejoin="bevel" d="M19.12 135.72l42.9286 0c-0.3534,-0.2945 -1.1684,-0.887 0.1544,-1.2804 -0.1285,-0.1093 -1.2553,-0.6715 -1.6047,0.0551 -0.3304,-0.2822 -0.6591,-0.5649 -0.9833,-0.8446 -0.1479,-0.1275 0.0428,-0.8559 0.7282,-1.0485 -0.1443,-0.1246 -1.0689,-0.393 -1.6029,0.2929 -0.3313,-0.2863 -0.6613,-0.5715 -0.9902,-0.8545 -0.1586,-0.1365 -0.2037,-0.9294 0.6008,-1.0388 -0.1761,-0.1507 -1.077,-0.6764 -1.6041,0.1803 -0.3687,-0.3132 -0.7369,-0.6232 -1.105,-0.9287 -0.1488,-0.1235 0.2226,-0.8344 0.8414,-1.0087 -0.1299,-0.1064 -1.1188,-0.4082 -1.6781,0.3227 -0.3742,-0.3028 -0.7489,-0.6005 -1.1249,-0.8918 -0.1599,-0.1238 0.0559,-0.8264 0.8711,-0.9088 -0.1442,-0.1093 -1.2502,-0.7094 -1.7853,0.2155 -0.3618,-0.2682 -0.7254,-0.53 -1.0912,-0.7844 -0.1869,-0.1299 -0.2703,-0.9115 0.4913,-1.2465 -0.1503,-0.1007 -0.9646,-0.5921 -1.5062,0.5642 -0.3504,-0.2271 -0.7034,-0.447 -1.0593,-0.6588 -0.1742,-0.1037 0.0018,-1.0157 0.5806,-1.22 -0.1452,-0.0823 -1.2276,-0.4116 -1.543,0.6717 -0.3967,-0.2157 -0.7977,-0.4211 -1.2034,-0.6148 -0.1761,-0.0841 0.0374,-1.043 0.9783,-1.2011 -0.148,-0.0663 -1.4681,-0.5084 -1.9558,0.7612 -0.2872,-0.1213 -0.5771,-0.2367 -0.8697,-0.3459 -0.1943,-0.0725 -0.1431,-0.9809 0.6357,-1.2438 -0.1804,-0.0612 -1.5324,-0.2614 -1.7671,0.8581 -0.402,-0.1242 -0.8097,-0.2364 -1.2234,-0.3359 -0.1755,-0.0422 -0.3263,-0.9444 0.4715,-1.3087 -0.1783,-0.0376 -1.4117,-0.2428 -1.5404,1.0832 -0.3305,-0.06 -0.6651,-0.1121 -1.0038,-0.1555 -0.1733,-0.0222 -0.3987,-0.8712 0.6356,-1.3593 -0.1805,-0.0182 -1.5345,0.0763 -1.7045,1.2521 -0.3377,-0.0245 -0.5126,-0.0306 -1.0259,-0.0482 -0.2108,-0.0045 -0.5529,-1.0396 0.6388,-1.3246 -0.1722,0.0016 -1.5829,-0.1111 -1.7966,1.3322 -0.4264,0.0146 -0.8597,0.0423 -1.3001,0.0836 -0.1811,0.0169 -0.3896,-0.83 0.6108,-1.3832 -0.1635,0.0193 -1.7331,0.1489 -1.6514,1.5047 -0.423,0.0588 -0.8526,0.1302 -1.289,0.2144 -0.1601,0.0313 -0.4856,-0.8405 0.36,-1.4465 -0.1851,0.0405 -1.5531,0.1774 -1.3815,1.6721 -0.4311,0.1066 -0.8466,0.2246 -1.2477,0.3531 -0.175,0.056 -0.4229,-0.8011 0.3963,-1.4597 -0.1723,0.0609 -1.6583,0.4119 -1.4219,1.8228 -0.445,0.1731 -0.8712,0.3603 -1.2801,0.5602 -0.8227,-0.7902 0.2043,-1.6241 0.0584,-1.5472 -0.1653,0.0872 -1.3773,0.7344 -0.9906,2.0411 -0.3804,0.2177 -0.7745,0.3652 -1.1255,0.6053 -0.1544,0.1057 -0.7996,-0.3498 0.066,-1.4552 -0.1414,0.1039 -1.5013,0.8288 -0.9097,2.1776 -0.3358,0.2633 -0.6586,0.5368 -0.9702,0.8192 -0.1367,0.1238 -0.7334,-0.4085 -0.2545,-1.4179 -0.1505,0.1444 -1.2545,0.9098 -0.5936,2.2344 -0.3586,0.3658 -0.7117,0.6724 -1.0453,1.0596 -0.1233,0.1431 -0.8168,-0.2371 -0.2868,-1.4111 -1.5071,1.8876 -0.3212,2.2219 -0.4447,2.3769 -0.291,0.3652 -0.5323,0.6795 -0.812,1.0564 -0.1065,0.1434 -0.7552,-0.1471 -0.3402,-1.4528 -0.1161,0.1596 -1.1759,1.4005 -0.3673,2.424 -0.3035,0.4243 -0.6042,0.8533 -0.9056,1.2844 -0.1056,0.151 -0.8318,-0.204 -0.2612,-1.4115 -1.6291,1.818 -0.2963,2.209 -0.4171,2.381 -0.3226,0.4594 -0.6489,0.9194 -0.983,1.3774z"/>
   <path id="_66256896" fill="none" stroke="black" stroke-width="0.0762" stroke-linejoin="bevel" d="M65.8632 139.182c-8.2243,0.1104 -15.9192,0.441 -24.0772,0.2427 -9.1944,-0.0441 -14.6402,0.066 -23.8348,-0.2427"/>
  </g>
  <g id="Margin_Crenate" onclick="parent.replacechar('Margin_Crenate')" onmousemove="parent.showtooltip('Margin_Crenate', 'Margin crenate')" onmouseout="parent.hidetooltip('Margin_Crenate')" cursor="pointer" >
   <path id="_76531456" fill="none" stroke="black" stroke-width="0.0762" stroke-linejoin="bevel" d="M223.636 46.1711c0.6614,0.3309 1.1606,1.3574 1.6457,1.622 -0.6615,0.7715 -4.7548,2.1484 -5.9895,3.0082 0.441,5.0493 -5.8209,3.9027 -6.2619,3.7704 0.2646,5.9973 -7.342,4.7403 -7.4524,4.7403 -0.1323,4.5643 -7.1656,2.6681 -7.342,2.4695 -1.9184,2.7121 -7.2542,0.3309 -7.2542,-0.9702 -4.101,2.2712 -7.0998,-3.3955 -7.1438,-3.4396 -0.066,-0.0441 -0.5511,0.3969 -0.7497,0.3309 -0.1983,-0.0663 -2.3372,-1.5215 -2.2267,-2.9545 -0.4191,-0.6837 -2.0285,-3.6823 -3.616,-4.476 -1.5875,-0.7938 -7.4747,-1.5434 -8.3125,-1.6757"/>
   <line id="_67142040" fill="none" stroke="black" stroke-width="0.0762" stroke-linejoin="bevel" x1="168.933" y1="48.5964" x2="168.889" y2= "47.5162" />
   <path id="_66401312" fill="none" stroke="black" stroke-width="0.0762" stroke-linejoin="bevel" d="M168.889 47.5162c2.6017,0.6392 8.4007,0.2864 9.0399,-0.3309 0.2646,-0.2646 0.9924,-0.8819 1.1247,-1.1242"/>
   <path id="_66520200" fill="#78B43C" stroke="black" stroke-width="0.0762" stroke-linejoin="bevel" d="M179.01 45.9948c0.6614,-1.3671 1.433,-4.0348 2.5795,-5.2695 0.3087,0.3528 0.6396,1.2125 0.7937,1.1024 -0.7274,-3.8805 4.2775,-6.4822 6.1738,-5.8649 1.0583,-3.0427 6.6586,-4.1892 10.5614,-1.8743 2.4472,-3.1087 10.5393,2.0726 9.525,3.991 1.1243,-0.6615 7.2979,0.5069 8.5109,5.4458 2.4031,-0.9479 5.9531,2.2271 6.5482,2.4695l-44.6925 0z"/>
   <polygon id="_67239888" fill="none" stroke="black" stroke-width="0.0762" stroke-linejoin="bevel" points="168.889,28.9955 231.111,28.9955 231.111,45.9948 168.889,45.9948 "/>
   <path id="_27628000" fill="none" stroke="black" stroke-width="0.0762" stroke-linejoin="bevel" d="M222.955 48.3231c-7.7213,0.1104 -14.9456,0.441 -22.6046,0.2427 -8.6321,-0.0441 -13.7449,0.066 -22.3771,-0.2427"/>
  </g>
  <g id="Margin_Dentate" onclick="parent.replacechar('Margin_Dentate')" onmousemove="parent.showtooltip('Margin_Dentate', 'Margin dentate')" onmouseout="parent.hidetooltip('Margin_Dentate')" cursor="pointer" >
   <path id="_76993992" fill="#78B43C" stroke="black" stroke-width="0.0762" stroke-linejoin="bevel" d="M142.768 45.1537l-43.305 0.0058c0.4328,-0.9333 1.2844,-4.6646 1.7501,-5.1888 0.2331,0.7378 0.3767,0.5294 0.6437,1.3864 0.3316,-2.6804 0.8456,-3.1622 0.9725,-3.5512 0.5336,0.4577 0.6754,0.6753 0.9273,1.0418 1.2006,-3.0691 1.6888,-3.3272 1.9912,-3.6808 0.0295,0.6099 0.0892,0.886 0.4486,1.6992 1.5472,-2.9989 2.1574,-3.3378 2.6926,-3.6159 0.3389,0.5347 0.4076,0.5126 0.6185,1.1963 2.0658,-2.2222 2.3537,-2.2249 2.6214,-2.5419 0.2534,0.1923 0.3608,0.3766 0.8604,1.1654 1.59,-1.5236 2.186,-1.9412 2.5725,-2.0667 0.2649,0.3333 0.292,0.196 0.7018,1.0579 1.4815,-1.1616 1.9828,-1.4741 2.4034,-1.482 0.1407,0.3681 0.1812,0.2929 0.5074,1.1889 1.7012,-0.9985 2.5068,-1.087 2.961,-1.2235 0.2297,0.4157 0.2137,0.7189 0.6366,1.7631 2.0781,-0.8297 2.728,-0.9774 3.2131,-1.1983 0.1712,0.5043 -0.1874,1.05 0.0411,2.0977 1.4992,-0.4733 1.8923,-1.0146 3.1156,-1.0462 -0.1655,0.5337 -0.2567,1.7371 -0.1034,2.5819 1.8966,-0.327 2.7668,-0.6409 3.3801,-0.568 -0.2324,0.7886 -0.2922,1.544 -0.5361,2.4182 1.6054,-0.0473 3.4367,-0.389 3.9707,-0.3598 -0.2397,0.8118 -0.7853,1.935 -0.7936,2.5071 0.8896,-0.0048 2.2329,-0.0101 3.4438,-0.2412 -0.5768,1.0913 -0.8066,1.688 -0.6703,2.3162 0.4987,0.7152 3.0197,0.4528 3.1732,0.4949 -0.3586,0.7152 -0.6186,1.7788 -0.7733,2.1327 0.3134,-0.0927 2.3673,0.9348 2.479,1.2699l0.0561 0.4409z"/>
   <path id="_66476824" fill="none" stroke="black" stroke-width="0.0762" stroke-linejoin="bevel" d="M146.211 48.6004c-8.2243,0.1104 -15.9192,0.441 -24.0772,0.2427 -9.1944,-0.0441 -14.6402,0.066 -23.8348,-0.2427"/>
   <path id="_76822088" fill="none" stroke="black" stroke-width="0.0762" stroke-linecap="round" stroke-linejoin="bevel" d="M142.756 45.1595c1.8079,1.4552 2.9742,2.5756 4.8926,3.4357 0,0 0,0 0,0 -9.3486,4.1893 -16.2501,17.5507 -33.448,14.9268 -10.2966,-1.4771 -13.0088,-11.1125 -18.5209,-14.7504 0,0 -6.416,0.0441 -6.4382,0.0441 -0.0441,-0.0441 0.0222,-1.1687 -0.0441,-1.1687 0,0 5.0712,0.0881 6.5927,0 1.2347,-0.1101 3.6378,-2.0945 3.616,-2.4032"/>
   <polygon id="_66474864" fill="none" stroke="black" stroke-width="0.0762" stroke-linejoin="bevel" points="88.9113,28.1599 151.089,28.1599 151.089,45.1595 88.9113,45.1595 "/>
  </g>
  <g id="Margin_Entire" onclick="parent.replacechar('Margin_Entire')" onmousemove="parent.showtooltip('Margin_Entire', 'Margin entire')" onmouseout="parent.hidetooltip('Margin_Entire')" cursor="pointer" >
   <polygon id="_76701976" fill="none" stroke="black" stroke-width="0.0762" stroke-linejoin="bevel" points="8.9113,28.18 71.0886,28.18 71.0886,45.1796 8.9113,45.1796 "/>
   <path id="_77054696" fill="none" stroke="black" stroke-width="0.0762" stroke-linecap="round" stroke-linejoin="bevel" d="M62.2032 45.2897c1.8079,1.4552 3.2409,2.4253 5.1593,3.2854 0,0 0,0 0,0 -9.3486,4.1893 -16.2501,17.5507 -33.448,14.9268 -10.2966,-1.4771 -13.0088,-11.1125 -18.5209,-14.7504 0,0 -6.416,0.0441 -6.4382,0.0441 -0.0441,-0.0441 0.0222,-1.1687 -0.0441,-1.1687 0,0 5.0712,0.0881 6.5927,0 1.2347,-0.1101 3.6378,-2.0945 3.616,-2.4032"/>
   <path id="_77610624" fill="#78B43C" stroke="black" stroke-width="0.0762" stroke-linejoin="bevel" d="M19.12 45.1796l42.9286 0c-6.9674,-5.8208 -13.207,-14.6184 -26.5025,-12.8545 -9.3928,1.3011 -12.3251,7.232 -16.4261,12.8545z"/>
   <path id="_66520632" fill="none" stroke="black" stroke-width="0.0762" stroke-linejoin="bevel" d="M65.8632 48.6411c-8.2243,0.1104 -15.9192,0.441 -24.0772,0.2427 -9.1944,-0.0441 -14.6402,0.066 -23.8348,-0.2427"/>
  </g>
 </g>
<image xlink:href="tick.gif" id="imgtick" x="-100" y="-100" width="15" height="15"/>
<rect id="recttooltip" x="-100" y="-100" width="55" height="6" fill-opacity="0.4" pointer-events="none"/>
<text id="textboxid" x="-100" y="-100" pointer-events="none"> </text>
</a></svg>
