<?xml version="1.0" encoding="UTF-8"?>
<!DOCTYPE svg PUBLIC "-//W3C//DTD SVG 1.1//EN" "http://www.w3.org/Graphics/SVG/1.1/DTD/svg11.dtd">
<!-- Creator: CorelDRAW -->
<svg xmlns="http://www.w3.org/2000/svg" xml:space="preserve" shape-rendering="geometricPrecision" text-rendering="geometricPrecision" image-rendering="optimizeQuality" fill-rule="evenodd" clip-rule="evenodd"
viewBox="0 0 240 180"
 xmlns:xlink="http://www.w3.org/1999/xlink">
<a>
 <g id="Layer_x0020_1">
  <metadata id="CorelCorpID_0Corel-Layer"/>
  <rect fill="none" width="240" height="180"/>
  <g id="MrgAsp_Thickened" onclick="parent.replacechar('MrgAsp_Thickened')" onmousemove="parent.showtooltip('MrgAsp_Thickened', 'Margin thickened')" onmouseout="parent.hidetooltip('MrgAsp_Thickened')" cursor="pointer" >
   <path id="limbe" fill="#00923F" stroke="#7F7F7F" stroke-width="0.0762" stroke-linejoin="bevel" d="M156.738 162.185l-46.9379 3.8257 -42.4697 -13.6261c14.2122,-6.7853 30.2679,-18.9872 42.6655,-20.3557 12.3975,-1.3679 21.221,8.0975 31.8316,12.1184 10.6104,-1.6195 28.0341,-7.8741 30.5189,-4.8862 2.4854,2.9875 -9.9681,15.3013 -15.6084,22.9239z"/>
   <polygon id="nerv_I" fill="#7ABC42" stroke="#7F7F7F" stroke-width="0.0762" stroke-linejoin="bevel" points="108.823,165.676 140.18,143.756 142.33,144.231 112.453,166.262 "/>
   <path id="section" fill="#CEF794" stroke="#7F7F7F" stroke-width="0.0762" stroke-linejoin="bevel" d="M67.3961 152.353c-0.1393,-0.2516 27.5217,8.9107 41.2873,13.3783l4.6633 0.0558c14.4638,-1.2009 43.5867,-3.8533 43.3914,-3.6023 -0.0672,0.0865 -3.9404,6.8732 -8.8096,1.1435 -9.948,1.1725 -26.0159,2.9701 -35.7828,4.106l-2.6523 -0.0835c-9.8493,-3.5052 -26.518,-9.3464 -35.6464,-12.61 -5.9383,2.6113 -6.4091,-2.3128 -6.4509,-2.3878z"/>
   <path id="_65475008" fill="#BED250" stroke="#7F7F7F" stroke-width="0.0762" stroke-linejoin="bevel" d="M110.861 168.105c-1.3403,0.0282 -2.3733,-0.8376 -2.2616,-1.9263 0.0836,-1.0893 1.1728,-0.391 2.4572,-0.391 1.368,-0.0281 2.3174,-0.7541 2.2338,0.2793 -0.0281,1.1446 -1.1451,2.0104 -2.4294,2.038z"/>
   <path id="nerv" fill="none" stroke="#7F7F7F" stroke-width="0.0762" stroke-linejoin="bevel" d="M116.781 133.313c-3.6018,5.417 -7.4832,17.8144 3.5182,23.427"/>
   <path id="nerv_0" fill="none" stroke="#7F7F7F" stroke-width="0.0762" stroke-linejoin="bevel" d="M99.5248 142.053c-4.1883,6.2546 -5.4728,13.626 -4.1883,19.4616"/>
   <path id="nerv_1" fill="none" stroke="#7F7F7F" stroke-width="0.0762" stroke-linejoin="bevel" d="M161.597 142.249c-5.4452,5.6962 -16.7535,16.1673 -33.0044,13.2074"/>
  </g>
  <g id="MrgAsp_Revolute" onclick="parent.replacechar('MrgAsp_Revolute')" onmousemove="parent.showtooltip('MrgAsp_Revolute', 'Margin revolute')" onmouseout="parent.hidetooltip('MrgAsp_Revolute')" cursor="pointer" >
   <rect id="_3667792" fill="#CEF794" stroke="#7F7F7F" stroke-width="0.0762" transform="matrix(1.13206 -0.567635 0.567635 1.13206 69.115 93.8786)" width="6.2528" height="2.0517"/>
   <rect id="_77273256" fill="#CEF794" stroke="#7F7F7F" stroke-width="0.0762" transform="matrix(-0.305018 0.349519 0.375617 0.283826 153.848 102.424)" width="6.2528" height="2.0517"/>
   <path id="limbe_2" fill="#00923F" stroke="#7F7F7F" stroke-width="0.0762" stroke-linejoin="bevel" d="M156.738 102.185l-46.9379 3.8257 -42.4697 -13.6261c14.2122,-6.7853 30.2679,-18.9872 42.6655,-20.3557 12.3975,-1.3679 21.221,8.0975 31.8316,12.1184 10.6104,-1.6195 28.0341,-7.8741 30.5189,-4.8862 2.4854,2.9875 -9.9681,15.3013 -15.6084,22.9239z"/>
   <polygon id="nerv_I_3" fill="#7ABC42" stroke="#7F7F7F" stroke-width="0.0762" stroke-linejoin="bevel" points="108.823,105.676 140.18,83.7565 142.33,84.2314 112.453,106.262 "/>
   <path id="section_4" fill="#CEF794" stroke="#7F7F7F" stroke-width="0.0762" stroke-linejoin="bevel" d="M67.3961 92.3532c-0.1393,-0.2516 27.5217,8.9107 41.2873,13.3783l4.6633 0.0558c14.4638,-1.2009 43.5867,-3.8533 43.3914,-3.6023 -0.1957,0.2517 -29.7094,3.5184 -44.5924,5.2495l-2.6523 -0.0835c-14.0452,-4.9984 -41.9574,-14.7468 -42.0973,-14.9978z"/>
   <path id="_66444600" fill="#BED250" stroke="#7F7F7F" stroke-width="0.0762" stroke-linejoin="bevel" d="M110.861 108.105c-1.3403,0.0282 -2.3733,-0.8376 -2.2616,-1.9263 0.0836,-1.0893 1.1728,-0.391 2.4572,-0.391 1.368,-0.0281 2.3174,-0.7541 2.2338,0.2793 -0.0281,1.1446 -1.1451,2.0104 -2.4294,2.038z"/>
   <path id="revolute" fill="#00923F" stroke="#7F7F7F" stroke-width="0.0762" stroke-linejoin="bevel" d="M70.0928 93.4305l-1.304 -0.4437 -1.4141 -0.5569c1.134,3.5679 3.1924,4.9862 3.8109,3.9457 -0.5206,0.3984 -2.2243,-1.6675 -1.0928,-2.9451z"/>
   <path id="nerv_5" fill="none" stroke="#7F7F7F" stroke-width="0.0762" stroke-linejoin="bevel" d="M116.781 73.3134c-3.6018,5.417 -7.4832,17.8144 3.5182,23.427"/>
   <path id="nerv_6" fill="none" stroke="#7F7F7F" stroke-width="0.0762" stroke-linejoin="bevel" d="M99.5248 82.0534c-4.1883,6.2546 -5.4728,13.626 -4.1883,19.4616"/>
   <path id="nerv_7" fill="none" stroke="#7F7F7F" stroke-width="0.0762" stroke-linejoin="bevel" d="M161.597 82.2486c-5.4452,5.6962 -16.7535,16.1673 -33.0044,13.2074"/>
   <path id="revolute_8" fill="#00923F" stroke="#7F7F7F" stroke-width="0.0762" stroke-linejoin="bevel" d="M153.953 102.605l1.2424 -0.1613 1.5428 -0.2585c-2.3545,2.9107 -4.7444,4.5014 -5.0036,2.2207 0.34,0.5606 2.8074,-0.1992 2.2184,-1.8009z"/>
  </g>
  <g id="MrgAsp_Flat" onclick="parent.replacechar('MrgAsp_Flat')" onmousemove="parent.showtooltip('MrgAsp_Flat', 'Margin flat')" onmouseout="parent.hidetooltip('MrgAsp_Flat')" cursor="pointer" >
   <path id="limbe_9" fill="#00923F" stroke="#7F7F7F" stroke-width="0.0762" stroke-linejoin="bevel" d="M156.738 42.185l-46.9379 3.8257 -42.4697 -13.6261c14.2122,-6.7853 30.2679,-18.9872 42.6655,-20.3557 12.3975,-1.3679 21.221,8.0975 31.8316,12.1184 10.6104,-1.6195 28.0341,-7.8741 30.5189,-4.8862 2.4854,2.9875 -9.9681,15.3013 -15.6084,22.9239z"/>
   <polygon id="nerv_I_10" fill="#7ABC42" stroke="#7F7F7F" stroke-width="0.0762" stroke-linejoin="bevel" points="108.823,45.6756 140.18,23.7565 142.33,24.2314 112.453,46.2617 "/>
   <path id="section_11" fill="#CEF794" stroke="#7F7F7F" stroke-width="0.0762" stroke-linejoin="bevel" d="M67.3961 32.3532c-0.1393,-0.2516 27.5217,8.9107 41.2873,13.3783l4.6633 0.0558c14.4638,-1.2009 43.5867,-3.8533 43.3914,-3.6023 -0.1957,0.2517 -29.7094,3.5184 -44.5924,5.2495l-2.6523 -0.0835c-14.0452,-4.9984 -41.9574,-14.7468 -42.0973,-14.9978z"/>
   <path id="_65749624" fill="#BED250" stroke="#7F7F7F" stroke-width="0.0762" stroke-linejoin="bevel" d="M110.861 48.1046c-1.3403,0.0282 -2.3733,-0.8376 -2.2616,-1.9263 0.0836,-1.0893 1.1728,-0.391 2.4572,-0.391 1.368,-0.0281 2.3174,-0.7541 2.2338,0.2793 -0.0281,1.1446 -1.1451,2.0104 -2.4294,2.038z"/>
   <path id="nerv_12" fill="none" stroke="#7F7F7F" stroke-width="0.0762" stroke-linejoin="bevel" d="M116.781 13.3134c-3.6018,5.417 -7.4832,17.8144 3.5182,23.427"/>
   <path id="nerv_13" fill="none" stroke="#7F7F7F" stroke-width="0.0762" stroke-linejoin="bevel" d="M99.5248 22.0534c-4.1883,6.2546 -5.4728,13.626 -4.1883,19.4616"/>
   <path id="nerv_14" fill="none" stroke="#7F7F7F" stroke-width="0.0762" stroke-linejoin="bevel" d="M161.597 22.2486c-5.4452,5.6962 -16.7535,16.1673 -33.0044,13.2074"/>
  </g>
 </g>
<image xlink:href="tick.gif" id="imgtick" x="-100" y="-100" width="15" height="15"/>
<rect id="recttooltip" x="-100" y="-100" width="55" height="6" fill-opacity="0.4" pointer-events="none"/>
<text id="textboxid" x="-100" y="-100" pointer-events="none"> </text>
</a></svg>
