<?xml version="1.0" encoding="UTF-8"?>
<!DOCTYPE svg PUBLIC "-//W3C//DTD SVG 1.1//EN" "http://www.w3.org/Graphics/SVG/1.1/DTD/svg11.dtd">
<!-- Creator: CorelDRAW -->
<svg xmlns="http://www.w3.org/2000/svg" xml:space="preserve" shape-rendering="geometricPrecision" text-rendering="geometricPrecision" image-rendering="optimizeQuality" fill-rule="evenodd" clip-rule="evenodd"
viewBox="0 0 240 180"
 xmlns:xlink="http://www.w3.org/1999/xlink">
<a>
 <g id="Layer_x0020_1">
  <metadata id="CorelCorpID_0Corel-Layer"/>
  <rect fill="none" width="240" height="180"/>
  <g id="PetSect_Winged" onclick="parent.replacechar('PetSect_Winged')" onmousemove="parent.showtooltip('PetSect_Winged', 'Winged')" onmouseout="parent.hidetooltip('PetSect_Winged')" cursor="pointer" >
   <path id="profondeur" fill="#BCFA63" stroke="#7F7F7F" stroke-width="0.0762" d="M199.83 128.313c1.6112,-1.5401 16.6867,-10.5176 21.2664,-12.8374 4.7554,-1.6332 8.9023,0.5908 9.7283,1.2356 4.0135,3.133 4.7454,11.1663 0.4452,13.7849 -2.1411,1.3038 -19.2129,11.5496 -18.7639,11.1407 4.1068,-3.7418 2.3355,-9.5179 0.3631,-11.7657 -3.7166,-3.8214 -8.8614,-4.0183 -13.0391,-1.5581z"/>
   <path id="_76486896" fill="#BCFA63" stroke="#7F7F7F" stroke-width="0.0762" d="M189.298 135.383c1.6161,-1.1721 6.8465,-4.1757 8.7762,-5.5067 0.3818,-0.2634 0.2038,0.3047 0.0535,1.1884 -0.0836,0.4914 -0.141,2.4273 -0.3182,2.5454 -2.2116,1.4735 -6.1386,0.982 -8.5115,1.7729z"/>
   <path id="_67230152" fill="#CEF794" stroke="#7F7F7F" stroke-width="0.0762" d="M188.18 135.393c1.5675,-1.1058 7.4483,-1.9264 8.6342,-3.8818 3.7298,-6.1494 12.8785,-5.6219 16.983,-0.7009 3.5236,4.2246 3.9358,4.349 7.6882,5.5579 -5.4374,3.0571 -4.688,2.5589 -8.9964,5.476 -2.5518,2.0488 -5.2089,2.8111 -7.9439,2.6504 -3.2766,-0.8577 -4.5917,-1.8862 -7.3075,-4.2964 -1.1741,-2.0776 -8.022,-3.2143 -9.0576,-4.8052z"/>
   <ellipse id="section" fill="#CEF794" stroke="#7F7F7F" stroke-width="0.0762" cx="205.461" cy="135.572" rx="9.60022" ry="8.96325"/>
   <g id="tige">
    <path id="_77230912" fill="#BCFA63" fill-rule="nonzero" stroke="#7F7F7F" stroke-width="0.0762" stroke-linejoin="bevel" d="M190.994 37.3184l0 45.2681c0.4018,4.082 10.9292,3.8805 10.8117,0l0 -45.2681 -10.8117 0z"/>
    <path id="_66274376" fill="#CEF794" fill-rule="nonzero" stroke="#7F7F7F" stroke-width="0.0762" stroke-linejoin="bevel" d="M196.362 40.2438c-2.9254,0 -5.3381,-1.2215 -5.3381,-2.7746 0,-1.5232 2.4127,-2.7746 5.3381,-2.7746 3.0007,0 5.4134,1.2514 5.4134,2.7746 0,1.5531 -2.4127,2.7746 -5.4134,2.7746z"/>
   </g>
   <path id="petiole" fill="#CEF794" stroke="#7F7F7F" stroke-width="0.0762" d="M201.725 73.5329c-0.7609,-4.5545 3.9685,-10.7229 8.1308,-14.2236 2.7185,-2.2865 5.6929,-3.9096 9.156,-5.3703 5.4739,-2.3088 0.6203,-3.7095 -2.5152,-2.387 -5.6073,2.3651 -9.2918,3.1319 -14.6478,7.3794 -0.1948,3.0045 0.7245,0.8222 -2.546,5.7076 -0.933,1.3936 -0.6656,7.6851 2.4222,8.8939z"/>
   <path id="limbe" fill="#78B43C" stroke="#7F7F7F" stroke-width="0.0762" d="M231.366 53.4022c-2.6353,-1.2819 -10.6376,-5.3524 -12.9126,-2.4918 -4.6104,5.7971 1.3433,17.715 2.2335,17.2038 4.6342,-2.6611 9.8105,-9.0994 10.6791,-14.712z"/>
   <path id="nervure" fill="#CEF794" stroke="#B2B2B2" stroke-width="0.0762" d="M218.301 51.0903c1.1596,3.2069 6.6784,7.385 9.0752,10.8239 0.2402,-0.3935 0.7632,-1.0571 0.9149,-1.3657 -0.0315,-0.0276 -9.2644,-10.8984 -9.9901,-9.4582z"/>
   <path id="petiole_0" fill="#CEF794" stroke="#838281" stroke-width="0.0762" d="M198.427 75.3589c-0.1476,-6.7212 1.5556,-8.1477 3.6054,-11.2841 3.2315,-4.9443 13.7431,-9.5759 14.9357,-10.1667 -1.5228,-0.3667 -13.7876,4.8899 -17.456,10.4199 -0.5021,0.7568 -2.8182,4.2856 -1.0851,11.0309z"/>
   <g>
    <path id="_76425648" fill="#1F1A17" fill-rule="nonzero" d="M210.74 67.0836l-2.1168 -4.9392 0 0 0.1323 0.0641 0.1323 0.0599 0.1323 0.0558 0.1323 0.0517 0.1323 0.0476 0.1323 0.0434 0.1323 0.0393 0.1323 0.0351 0.1323 0.031 0.1323 0.0269 0.1323 0.0227 0.1323 0.0186 0.1323 0.0145 0.1323 0.0103 0.1323 0.0062 0.1323 0.0021 0.1323 -0.0021 0.1323 -0.0062 0.1323 -0.0103 0.1323 -0.0145 0.1323 -0.0186 0.1323 -0.0227 0.1323 -0.0269 0.1323 -0.031 0.1323 -0.0351 0.1323 -0.0393 0.1323 -0.0434 0.1323 -0.0476 0.1323 -0.0517 0.1323 -0.0558 0.1323 -0.0599 0.1323 -0.0641 -2.1168 4.9392zm0.3528 -19.8945l0 17.4122 -0.7056 0 0 -17.4122 0.7056 0zm-0.3528 -2.4823l2.1168 4.9392 -0.1323 -0.0641 -0.1323 -0.0599 -0.1323 -0.0558 -0.1323 -0.0517 -0.1323 -0.0476 -0.1323 -0.0434 -0.1323 -0.0393 -0.1323 -0.0351 -0.1323 -0.031 -0.1323 -0.0269 -0.1323 -0.0227 -0.1323 -0.0186 -0.1323 -0.0145 -0.1323 -0.0103 -0.1323 -0.0062 -0.1323 -0.0021 -0.1323 0.0021 -0.1323 0.0062 -0.1323 0.0103 -0.1323 0.0145 -0.1323 0.0186 -0.1323 0.0227 -0.1323 0.0269 -0.1323 0.031 -0.1323 0.0351 -0.1323 0.0393 -0.1323 0.0434 -0.1323 0.0476 -0.1323 0.0517 -0.1323 0.0558 -0.1323 0.0599 -0.1323 0.0641 0 0 2.1168 -4.9392z"/>
   </g>
  </g>
  <g id="PetSect_Plano" onclick="parent.replacechar('PetSect_Plano')" onmousemove="parent.showtooltip('PetSect_Plano', 'Planoconvex')" onmouseout="parent.hidetooltip('PetSect_Plano')" cursor="pointer" >
   <path id="section_1" fill="#CEF794" stroke="#7F7F7F" stroke-width="0.0762" d="M143.076 122.61c4.2203,-2.8511 7.4344,3.9252 7.4344,9.2244 0,5.2993 -4.603,9.5969 -10.2789,9.5969 -5.6759,0 -10.4419,-4.6662 -10.2472,-10.3549 5.2072,-1.844 8.8714,-5.6153 13.0917,-8.4664z"/>
   <path id="profondeur_2" fill="#BCFA63" stroke="#7F7F7F" stroke-width="0.0762" d="M129.984 131.076c1.1444,-1.0938 11.84,-7.7735 20.3415,-12.871 6.8883,-0.0306 12.1421,-0.0913 20.5062,-0.2112 0.5312,3.3217 -0.3421,6.8063 -2.9679,8.4052 -2.2924,1.3959 -20.5709,12.366 -20.0902,11.9281 2.7912,-2.9112 2.9009,-5.5457 2.687,-7.4413 -9.746,0.1872 -16.1983,-0.0106 -20.4766,0.1902z"/>
   <path fill="none" stroke="#7F7F7F" stroke-width="0.0762" d="M150.46 130.886c20.951,-12.5631 20.3721,-12.8868 20.3721,-12.8868"/>
   <g id="tige_3">
    <path id="_66802944" fill="#BCFA63" fill-rule="nonzero" stroke="#7F7F7F" stroke-width="0.0762" stroke-linejoin="bevel" d="M130.307 37.0826l0 45.2681c0.4018,4.082 10.9292,3.8805 10.8117,0l0 -45.2681 -10.8117 0z"/>
    <path id="_65732432" fill="#CEF794" fill-rule="nonzero" stroke="#7F7F7F" stroke-width="0.0762" stroke-linejoin="bevel" d="M135.675 40.008c-2.9254,0 -5.3381,-1.2215 -5.3381,-2.7746 0,-1.5232 2.4127,-2.7746 5.3381,-2.7746 3.0007,0 5.4134,1.2514 5.4134,2.7746 0,1.5531 -2.4127,2.7746 -5.4134,2.7746z"/>
   </g>
   <path id="petiole_4" fill="#CEF794" stroke="#7F7F7F" stroke-width="0.0762" d="M138.77 64.1392c3.7744,-0.0781 6.2362,-4.686 10.3985,-8.1866 2.7185,-2.2864 12.8641,-5.9831 9.156,-5.3702 -0.5586,0.0923 0.6201,-0.7769 -1.4834,-0.1061 -7.2757,2.3203 -12.6841,6.1764 -15.7231,8.1953 0,1.0833 0.1766,2.6391 -2.348,5.4676z"/>
   <path id="petiole_5" fill="#CEF794" stroke="#7F7F7F" stroke-width="0.0762" d="M141.038 73.2971c-0.7609,-4.5545 3.9685,-10.7229 8.1308,-14.2236 2.7185,-2.2865 5.6929,-3.9096 9.156,-5.3703 5.4739,-2.3088 0.9737,-3.4739 -2.1619,-2.1514 -7.0365,2.9679 -13.6246,7.3572 -17.5471,12.8514 -0.9746,1.3649 -0.6656,7.6851 2.4222,8.8939z"/>
   <path id="limbe_6" fill="#78B43C" stroke="#7F7F7F" stroke-width="0.0762" d="M170.653 51.6799c-2.7529,-1.005 -11.1302,-4.234 -13.1001,-1.1553 -3.992,6.2391 3.1519,17.484 3.9849,16.8844 4.3372,-3.1222 8.8264,-10.057 9.1152,-15.7291z"/>
   <path id="nervure_7" fill="#CEF794" stroke="#B2B2B2" stroke-width="0.0762" d="M157.421 50.7192c1.4821,3.0711 7.4001,6.6616 10.1367,9.8367 0.1987,-0.416 0.6509,-1.1297 0.7702,-1.4522 -0.0342,-0.0243 -10.3326,-9.8916 -10.9069,-8.3845z"/>
   <g>
    <path fill="#1F1A17" fill-rule="nonzero" d="M150.053 66.8478l-2.1168 -4.9392 0 0 0.1323 0.0641 0.1323 0.0599 0.1323 0.0558 0.1323 0.0517 0.1323 0.0476 0.1323 0.0434 0.1323 0.0393 0.1323 0.0351 0.1323 0.031 0.1323 0.0269 0.1323 0.0227 0.1323 0.0186 0.1323 0.0145 0.1323 0.0103 0.1323 0.0062 0.1323 0.0021 0.1323 -0.0021 0.1323 -0.0062 0.1323 -0.0103 0.1323 -0.0145 0.1323 -0.0186 0.1323 -0.0227 0.1323 -0.0269 0.1323 -0.031 0.1323 -0.0351 0.1323 -0.0393 0.1323 -0.0434 0.1323 -0.0476 0.1323 -0.0517 0.1323 -0.0558 0.1323 -0.0599 0.1323 -0.0641 -2.1168 4.9392zm0.3528 -19.8945l0 17.4122 -0.7056 0 0 -17.4122 0.7056 0zm-0.3528 -2.4823l2.1168 4.9392 -0.1323 -0.0641 -0.1323 -0.0599 -0.1323 -0.0558 -0.1323 -0.0517 -0.1323 -0.0476 -0.1323 -0.0434 -0.1323 -0.0393 -0.1323 -0.0351 -0.1323 -0.031 -0.1323 -0.0269 -0.1323 -0.0227 -0.1323 -0.0186 -0.1323 -0.0145 -0.1323 -0.0103 -0.1323 -0.0062 -0.1323 -0.0021 -0.1323 0.0021 -0.1323 0.0062 -0.1323 0.0103 -0.1323 0.0145 -0.1323 0.0186 -0.1323 0.0227 -0.1323 0.0269 -0.1323 0.031 -0.1323 0.0351 -0.1323 0.0393 -0.1323 0.0434 -0.1323 0.0476 -0.1323 0.0517 -0.1323 0.0558 -0.1323 0.0599 -0.1323 0.0641 0 0 2.1168 -4.9392z"/>
   </g>
  </g>
  <g id="PetSect_Terete" onclick="parent.replacechar('PetSect_Terete')" onmousemove="parent.showtooltip('PetSect_Terete', 'Terete')" onmouseout="parent.hidetooltip('PetSect_Terete')" cursor="pointer" >
   <ellipse id="section_8" fill="#CEF794" stroke="#7F7F7F" stroke-width="0.0762" cx="79.5518" cy="135.982" rx="10.2719" ry="9.59035"/>
   <path id="profondeur_9" fill="#BCFA63" stroke="#7F7F7F" stroke-width="0.0762" d="M73.5263 128.215c1.724,-1.6479 17.8542,-11.2535 22.7543,-13.7355 5.0882,-1.7475 9.5252,0.6321 10.409,1.322 4.2943,3.3522 5.0774,11.9476 0.4763,14.7493 -2.2909,1.3951 -20.5571,12.3577 -20.0767,11.9201 4.3941,-4.0035 2.499,-10.1838 0.3885,-12.5888 -3.9766,-4.0888 -9.4814,-4.2995 -13.9514,-1.6671z"/>
   <g id="tige_10">
    <path fill="#BCFA63" fill-rule="nonzero" stroke="#7F7F7F" stroke-width="0.0762" stroke-linejoin="bevel" d="M69.5939 37.0826l0 45.2681c0.4018,4.082 10.9292,3.8805 10.8117,0l0 -45.2681 -10.8117 0z"/>
    <path fill="#CEF794" fill-rule="nonzero" stroke="#7F7F7F" stroke-width="0.0762" stroke-linejoin="bevel" d="M74.9621 40.008c-2.9254,0 -5.3381,-1.2215 -5.3381,-2.7746 0,-1.5232 2.4127,-2.7746 5.3381,-2.7746 3.0007,0 5.4134,1.2514 5.4134,2.7746 0,1.5531 -2.4127,2.7746 -5.4134,2.7746z"/>
   </g>
   <path id="petiole_11" fill="#CEF794" stroke="#7F7F7F" stroke-width="0.0762" d="M80.3253 73.2971c-0.7609,-4.5545 3.9685,-10.7229 8.1308,-14.2236 2.7185,-2.2865 5.6929,-3.9096 9.156,-5.3703 5.4739,-2.3088 0.6203,-3.7095 -2.5152,-2.387 -7.0366,2.9679 -13.2712,7.5928 -17.1938,13.087 -0.9745,1.365 -0.6656,7.6851 2.4222,8.8939z"/>
   <path id="limbe_12" fill="#78B43C" stroke="#7F7F7F" stroke-width="0.0762" d="M109.966 53.1664c-2.6353,-1.2819 -10.6376,-5.3524 -12.9126,-2.4918 -4.6104,5.7971 1.3433,17.715 2.2335,17.2038 4.6342,-2.6611 9.8105,-9.0994 10.6791,-14.712z"/>
   <path id="nervure_13" fill="#CEF794" stroke="#B2B2B2" stroke-width="0.0762" d="M96.9013 50.8545c1.1596,3.2069 6.6784,7.385 9.0752,10.8239 0.2402,-0.3935 0.7632,-1.0571 0.9149,-1.3657 -0.0315,-0.0276 -9.2644,-10.8984 -9.9901,-9.4582z"/>
   <g>
    <path fill="#1F1A17" fill-rule="nonzero" d="M89.3401 66.8478l-2.1168 -4.9392 0 0 0.1323 0.0641 0.1323 0.0599 0.1323 0.0558 0.1323 0.0517 0.1323 0.0476 0.1323 0.0434 0.1323 0.0393 0.1323 0.0351 0.1323 0.031 0.1323 0.0269 0.1323 0.0227 0.1323 0.0186 0.1323 0.0145 0.1323 0.0103 0.1323 0.0062 0.1323 0.0021 0.1323 -0.0021 0.1323 -0.0062 0.1323 -0.0103 0.1323 -0.0145 0.1323 -0.0186 0.1323 -0.0227 0.1323 -0.0269 0.1323 -0.031 0.1323 -0.0351 0.1323 -0.0393 0.1323 -0.0434 0.1323 -0.0476 0.1323 -0.0517 0.1323 -0.0558 0.1323 -0.0599 0.1323 -0.0641 -2.1168 4.9392zm0.3528 -19.8945l0 17.4122 -0.7056 0 0 -17.4122 0.7056 0zm-0.3528 -2.4823l2.1168 4.9392 -0.1323 -0.0641 -0.1323 -0.0599 -0.1323 -0.0558 -0.1323 -0.0517 -0.1323 -0.0476 -0.1323 -0.0434 -0.1323 -0.0393 -0.1323 -0.0351 -0.1323 -0.031 -0.1323 -0.0269 -0.1323 -0.0227 -0.1323 -0.0186 -0.1323 -0.0145 -0.1323 -0.0103 -0.1323 -0.0062 -0.1323 -0.0021 -0.1323 0.0021 -0.1323 0.0062 -0.1323 0.0103 -0.1323 0.0145 -0.1323 0.0186 -0.1323 0.0227 -0.1323 0.0269 -0.1323 0.031 -0.1323 0.0351 -0.1323 0.0393 -0.1323 0.0434 -0.1323 0.0476 -0.1323 0.0517 -0.1323 0.0558 -0.1323 0.0599 -0.1323 0.0641 0 0 2.1168 -4.9392z"/>
   </g>
  </g>
  <g id="PetSect_Canal" onclick="parent.replacechar('PetSect_Canal')" onmousemove="parent.showtooltip('PetSect_Canal', 'Canaliculate')" onmouseout="parent.hidetooltip('PetSect_Canal')" cursor="pointer" >
   <path id="section_14" fill="#CEF794" stroke="#7F7F7F" stroke-width="0.0762" d="M13.2969 128.574c1.2297,3.5045 -0.2831,7.4161 7.1382,7.2154 4.3615,-0.118 0.867,-10.2693 4.918,-7.8937 6.2614,3.6718 6.4022,16.3095 -6.1282,17.4516 -5.0392,0.4593 -9.0206,-3.7612 -10.1074,-7.7283 -1.2439,-4.5404 3.0581,-12.2406 4.1794,-9.045z"/>
   <path id="profondeur_15" fill="#BCFA63" stroke="#7F7F7F" stroke-width="0.0762" d="M12.7054 127.845c1.7299,-1.6535 18.8603,-11.3094 23.7773,-13.8 0.2697,3.498 4.5999,4.1368 8.5706,1.0461 1.6688,-1.2989 7.4139,12.6476 1.8199,15.2637 -2.4381,1.1402 -20.6279,12.4003 -20.1459,11.9612 4.4093,-4.0173 2.5251,-10.2616 0.5294,-12.7237 -5.6266,-6.2875 -3.5331,4.3456 -5.1446,5.5667 -1.8742,1.4202 -5.6726,0.7601 -7.2139,-0.4708 -1.6761,-1.3384 -1.4751,-4.7701 -2.1928,-6.8432z"/>
   <path fill="none" stroke="#7F7F7F" stroke-width="0.0762" d="M24.4123 127.599c20.5883,-12.3455 20.641,-12.5077 20.641,-12.5077"/>
   <path id="petiole_16" fill="#A7BA84" stroke="#7F7F7F" stroke-width="0.0762" d="M19.6253 70.1762c-0.7609,-4.5545 3.9685,-10.7229 8.1308,-14.2236 2.7185,-2.2864 12.8641,-5.9831 9.156,-5.3702 -0.5586,0.0923 0.6202,-0.7769 -1.4834,-0.1061 -7.2758,2.3202 -14.3031,5.3119 -18.2256,10.806 -0.9745,1.3649 -0.6656,7.6851 2.4222,8.8939z"/>
   <g id="tige_17">
    <path fill="#BCFA63" fill-rule="nonzero" stroke="#7F7F7F" stroke-width="0.0762" stroke-linejoin="bevel" d="M8.8939 37.0826l0 45.2681c0.4018,4.082 10.9292,3.8805 10.8117,0l0 -45.2681 -10.8117 0z"/>
    <path fill="#CEF794" fill-rule="nonzero" stroke="#7F7F7F" stroke-width="0.0762" stroke-linejoin="bevel" d="M14.2621 40.008c-2.9254,0 -5.3381,-1.2215 -5.3381,-2.7746 0,-1.5232 2.4127,-2.7746 5.3381,-2.7746 3.0007,0 5.4134,1.2514 5.4134,2.7746 0,1.5531 -2.4127,2.7746 -5.4134,2.7746z"/>
   </g>
   <path id="petiole_18" fill="#CEF794" stroke="#7F7F7F" stroke-width="0.0762" d="M19.6253 73.2971c-0.7609,-4.5545 3.9685,-10.7229 8.1308,-14.2236 2.7185,-2.2865 5.6929,-3.9096 9.156,-5.3703 5.4739,-2.3088 0.6203,-3.7095 -2.5152,-2.387 -7.0366,2.9679 -13.2712,7.5928 -17.1938,13.087 -0.9745,1.365 -0.6656,7.6851 2.4222,8.8939z"/>
   <path id="limbe_19" fill="#78B43C" stroke="#7F7F7F" stroke-width="0.0762" d="M49.266 53.1664c-2.6353,-1.2819 -10.6376,-5.3524 -12.9126,-2.4918 -4.6104,5.7971 1.3433,17.715 2.2335,17.2038 4.6342,-2.6611 9.8105,-9.0994 10.6791,-14.712z"/>
   <path id="nervure_20" fill="#CEF794" stroke="#B2B2B2" stroke-width="0.0762" d="M36.2013 50.8545c1.1596,3.2069 6.6784,7.385 9.0752,10.8239 0.2402,-0.3935 0.7632,-1.0571 0.9149,-1.3657 -0.0315,-0.0276 -9.2644,-10.8984 -9.9901,-9.4582z"/>
   <g>
    <path fill="#1F1A17" fill-rule="nonzero" d="M28.6401 66.8478l-2.1168 -4.9392 0 0 0.1323 0.0641 0.1323 0.0599 0.1323 0.0558 0.1323 0.0517 0.1323 0.0476 0.1323 0.0434 0.1323 0.0393 0.1323 0.0351 0.1323 0.031 0.1323 0.0269 0.1323 0.0227 0.1323 0.0186 0.1323 0.0145 0.1323 0.0103 0.1323 0.0062 0.1323 0.0021 0.1323 -0.0021 0.1323 -0.0062 0.1323 -0.0103 0.1323 -0.0145 0.1323 -0.0186 0.1323 -0.0227 0.1323 -0.0269 0.1323 -0.031 0.1323 -0.0351 0.1323 -0.0393 0.1323 -0.0434 0.1323 -0.0476 0.1323 -0.0517 0.1323 -0.0558 0.1323 -0.0599 0.1323 -0.0641 -2.1168 4.9392zm0.3528 -19.8945l0 17.4122 -0.7056 0 0 -17.4122 0.7056 0zm-0.3528 -2.4823l2.1168 4.9392 -0.1323 -0.0641 -0.1323 -0.0599 -0.1323 -0.0558 -0.1323 -0.0517 -0.1323 -0.0476 -0.1323 -0.0434 -0.1323 -0.0393 -0.1323 -0.0351 -0.1323 -0.031 -0.1323 -0.0269 -0.1323 -0.0227 -0.1323 -0.0186 -0.1323 -0.0145 -0.1323 -0.0103 -0.1323 -0.0062 -0.1323 -0.0021 -0.1323 0.0021 -0.1323 0.0062 -0.1323 0.0103 -0.1323 0.0145 -0.1323 0.0186 -0.1323 0.0227 -0.1323 0.0269 -0.1323 0.031 -0.1323 0.0351 -0.1323 0.0393 -0.1323 0.0434 -0.1323 0.0476 -0.1323 0.0517 -0.1323 0.0558 -0.1323 0.0599 -0.1323 0.0641 0 0 2.1168 -4.9392z"/>
   </g>
  </g>
 </g>
<image xlink:href="tick.gif" id="imgtick" x="-100" y="-100" width="15" height="15"/>
<rect id="recttooltip" x="-100" y="-100" width="55" height="6" fill-opacity="0.4" pointer-events="none"/>
<text id="textboxid" x="-100" y="-100" pointer-events="none"> </text>
</a></svg>
