<?xml version="1.0" encoding="UTF-8"?>
<!DOCTYPE svg PUBLIC "-//W3C//DTD SVG 1.1//EN" "http://www.w3.org/Graphics/SVG/1.1/DTD/svg11.dtd">
<!-- Creator: CorelDRAW -->
<svg xmlns="http://www.w3.org/2000/svg" xml:space="preserve" shape-rendering="geometricPrecision" text-rendering="geometricPrecision" image-rendering="optimizeQuality" fill-rule="evenodd" clip-rule="evenodd"
viewBox="0 0 240 180"
 xmlns:xlink="http://www.w3.org/1999/xlink">
<a>
 <g id="Layer_x0020_1">
  <metadata id="CorelCorpID_0Corel-Layer"/>
  <rect fill="none" width="240" height="180"/>
  <g id="PetPl_Scaly" onclick="parent.replacechar('PetPl_Scaly')" onmousemove="parent.showtooltip('PetPl_Scaly', 'Petiole scaly')" onmouseout="parent.hidetooltip('PetPl_Scaly')" cursor="pointer" >
   <g id="tige">
    <path id="_76931328" fill="#BCFA63" fill-rule="nonzero" stroke="#7F7F7F" stroke-width="0.0762" stroke-linejoin="bevel" d="M162.913 56.5657l0 66.3386c0.5889,5.9819 16.0164,5.6867 15.8442,0l0 -66.3386 -15.8442 0z"/>
    <path id="_77804392" fill="#CEF794" fill-rule="nonzero" stroke="#7F7F7F" stroke-width="0.0762" stroke-linejoin="bevel" d="M170.78 60.8528c-4.2871,0 -7.8228,-1.7901 -7.8228,-4.0661 0,-2.2321 3.5357,-4.066 7.8228,-4.066 4.3973,0 7.9331,1.8339 7.9331,4.066 0,2.276 -3.5358,4.0661 -7.9331,4.0661z"/>
   </g>
   <path id="petiole" fill="#CEF794" stroke="#7F7F7F" stroke-width="0.0762" d="M178.64 109.637c-1.1151,-6.6745 5.8157,-15.714 11.9152,-20.8441 3.9839,-3.3507 8.3428,-5.7294 13.4178,-7.8699 8.0218,-3.3835 0.909,-5.4361 -3.686,-3.498 -10.3118,4.3493 -19.4484,11.1269 -25.1968,19.1784 -1.4281,2.0003 -0.9753,11.2622 3.5498,13.0336z"/>
   <path id="limbe" fill="#78B43C" stroke="#7F7F7F" stroke-width="0.0762" d="M235.607 92.3923c-10.7063,-7.2904 -28.3509,-20.4932 -32.4527,-15.9081 -8.4765,9.4752 12.315,45.2205 13.6195,44.4715 6.7913,-3.8999 17.5604,-20.3383 18.8332,-28.5634z"/>
   <path id="nervure" fill="#CEF794" stroke="#B2B2B2" stroke-width="0.0762" d="M202.931 76.7479c1.6993,4.6995 23.038,24.5904 26.5503,29.63 0.3521,-0.5766 0.482,-0.713 0.7043,-1.1653 -0.0461,-0.0406 -26.1911,-30.5753 -27.2546,-28.4647z"/>
   <g id="scales">
    <polygon id="_66377384" fill="white" stroke="#7F7F7F" stroke-width="0.0762" points="194.748,84.0759 195.196,85.1911 194.281,85.7237 193.268,84.9378 193.557,83.9194 "/>
    <polygon id="_77016464" fill="white" stroke="#7F7F7F" stroke-width="0.0762" points="191.446,86.414 190.269,86.6582 189.906,85.664 190.858,84.8052 191.81,85.2687 "/>
    <polygon id="_66039328" fill="white" stroke="#7F7F7F" stroke-width="0.0762" points="191.917,83.8801 191.606,84.8566 192.418,85.2518 193.23,84.5196 192.92,83.6718 "/>
    <polygon id="_76454768" fill="white" stroke="#7F7F7F" stroke-width="0.0762" points="196.958,80.9539 195.781,81.1982 195.418,80.2039 196.37,79.3452 197.322,79.8086 "/>
    <polygon id="_77272904" fill="white" stroke="#7F7F7F" stroke-width="0.0762" points="188.211,85.5572 187.847,86.7024 188.799,87.1659 189.751,86.3072 189.388,85.3129 "/>
    <polygon id="_76724912" fill="white" stroke="#7F7F7F" stroke-width="0.0762" points="188.441,88.5133 187.265,88.7576 186.901,87.7634 187.854,86.9046 188.805,87.3681 "/>
    <polygon id="_77030288" fill="white" stroke="#7F7F7F" stroke-width="0.0762" points="185.649,88.1186 185.285,89.2639 186.237,89.7273 187.189,88.8686 186.826,87.8744 "/>
    <polygon id="_77196864" fill="white" stroke="#7F7F7F" stroke-width="0.0762" points="185.726,91.0046 184.55,91.2489 184.187,90.2546 185.139,89.3959 186.09,89.8593 "/>
    <polygon id="_76506984" fill="white" stroke="#7F7F7F" stroke-width="0.0762" points="190.283,87.8444 189.489,88.0093 189.244,87.3382 189.886,86.7586 190.529,87.0714 "/>
    <polygon id="_77065232" fill="white" stroke="#7F7F7F" stroke-width="0.0762" points="187.962,84.5484 187.738,85.2539 188.324,85.5395 188.911,85.0104 188.687,84.3979 "/>
    <polygon id="_76685072" fill="white" stroke="#7F7F7F" stroke-width="0.0762" points="191.166,82.2982 190.858,83.2676 191.664,83.66 192.47,82.933 192.162,82.0914 "/>
    <polygon id="_77847728" fill="white" stroke="#7F7F7F" stroke-width="0.0762" points="192.844,82.12 192.48,83.2653 193.432,83.7287 194.384,82.87 194.021,81.8758 "/>
    <polygon id="_27616856" fill="white" stroke="#7F7F7F" stroke-width="0.0762" points="183.435,88.6825 183.071,89.8278 184.023,90.2912 184.975,89.4325 184.612,88.4383 "/>
    <polygon id="_77078880" fill="white" stroke="#7F7F7F" stroke-width="0.0762" points="187.706,90.4792 186.648,90.6989 186.321,89.8046 187.178,89.0321 188.034,89.449 "/>
    <polygon id="_27661568" fill="white" stroke="#7F7F7F" stroke-width="0.0762" points="195.6,83.03 195.236,84.1753 196.188,84.6388 197.14,83.78 196.777,82.7858 "/>
    <polygon id="_78236592" fill="white" stroke="#7F7F7F" stroke-width="0.0762" points="192.038,85.3701 191.674,86.5153 192.626,86.9788 193.578,86.1201 193.215,85.1258 "/>
    <polygon id="_66518752" fill="white" stroke="#7F7F7F" stroke-width="0.0762" points="191.084,86.9701 190.902,87.5425 191.378,87.7742 191.854,87.345 191.672,86.848 "/>
    <polygon id="_67081272" fill="white" stroke="#7F7F7F" stroke-width="0.0762" points="188.57,88.3031 188.233,89.3658 189.116,89.7958 189.999,88.999 189.662,88.0765 "/>
    <polygon id="_77135680" fill="white" stroke="#7F7F7F" stroke-width="0.0762" points="193.944,81.6171 194.714,82.54 195.616,81.987 195.405,80.7224 194.371,80.4937 "/>
    <polygon id="_77036128" fill="white" stroke="#7F7F7F" stroke-width="0.0762" points="198.762,79.9165 197.571,79.7552 197.559,78.6968 198.743,78.2039 199.486,78.9577 "/>
    <polygon id="_67227192" fill="white" stroke="#7F7F7F" stroke-width="0.0762" points="190.452,84.7168 189.25,84.7396 189.077,83.6954 190.172,83.0272 191.021,83.6585 "/>
    <polygon id="_76609032" fill="white" stroke="#7F7F7F" stroke-width="0.0762" points="187.338,86.726 186.161,86.9702 185.798,85.976 186.75,85.1173 187.702,85.5807 "/>
    <polygon id="_66527208" fill="white" stroke="#7F7F7F" stroke-width="0.0762" points="185.62,87.8878 184.552,88.1096 184.222,87.207 185.086,86.4273 185.95,86.8481 "/>
    <polygon id="_66385832" fill="white" stroke="#7F7F7F" stroke-width="0.0762" points="193.113,81.1204 192.93,81.6973 193.409,81.9307 193.889,81.4982 193.706,80.9973 "/>
    <polygon id="_66300616" fill="white" stroke="#7F7F7F" stroke-width="0.0762" points="186.582,90.8415 186.345,91.5878 186.965,91.8898 187.586,91.3302 187.349,90.6823 "/>
    <polygon id="_77133704" fill="white" stroke="#7F7F7F" stroke-width="0.0762" points="195.167,83.7689 194.4,83.928 194.164,83.2801 194.784,82.7205 195.404,83.0226 "/>
    <polygon id="_77614640" fill="white" stroke="#7F7F7F" stroke-width="0.0762" points="197.273,82.4168 196.506,82.576 196.27,81.9281 196.89,81.3685 197.51,81.6705 "/>
    <polygon id="_66453056" fill="white" stroke="#7F7F7F" stroke-width="0.0762" points="200.193,78.5005 200.397,77.467 201.324,77.5129 201.693,78.5746 200.994,79.185 "/>
    <polygon id="_65739664" fill="white" stroke="#7F7F7F" stroke-width="0.0762" points="182.832,90.2884 181.879,90.4862 181.585,89.6808 182.356,88.9852 183.127,89.3606 "/>
    <polygon id="_67220688" fill="white" stroke="#7F7F7F" stroke-width="0.0762" points="181.528,91.5399 180.532,91.7467 180.224,90.905 181.03,90.1781 181.836,90.5704 "/>
    <polygon id="_76583672" fill="white" stroke="#7F7F7F" stroke-width="0.0762" points="179.868,92.932 179.019,93.1082 178.757,92.3908 179.444,91.7711 180.131,92.1056 "/>
    <polygon id="_65736864" fill="white" stroke="#7F7F7F" stroke-width="0.0762" points="178.658,94.3522 177.63,94.5658 177.312,93.6966 178.145,92.9458 178.977,93.351 "/>
    <polygon id="_66391680" fill="white" stroke="#7F7F7F" stroke-width="0.0762" points="185.347,91.9526 185.058,92.8616 185.814,93.2295 186.569,92.5479 186.281,91.7587 "/>
    <polygon id="_66456000" fill="white" stroke="#7F7F7F" stroke-width="0.0762" points="183.484,93.4041 183.12,94.5494 184.072,95.0128 185.024,94.1541 184.661,93.1598 "/>
    <polygon id="_65774120" fill="white" stroke="#7F7F7F" stroke-width="0.0762" points="182.251,95.1136 181.887,96.2588 182.838,96.7223 183.79,95.8635 183.427,94.8693 "/>
    <polygon id="_66515352" fill="white" stroke="#7F7F7F" stroke-width="0.0762" points="180.68,96.5311 180.316,97.6764 181.267,98.1399 182.219,97.2811 181.856,96.2869 "/>
    <polygon id="_77173984" fill="white" stroke="#7F7F7F" stroke-width="0.0762" points="176.767,94.7429 176.012,95.6774 176.73,96.4552 177.929,96.0015 177.952,94.9432 "/>
    <polygon id="_77220744" fill="white" stroke="#7F7F7F" stroke-width="0.0762" points="182.636,90.59 182.327,91.5632 183.136,91.957 183.945,91.2273 183.636,90.3824 "/>
    <polygon id="_76711784" fill="white" stroke="#7F7F7F" stroke-width="0.0762" points="180.548,92.0082 180.184,93.1534 181.136,93.6169 182.088,92.7582 181.725,91.7639 "/>
    <polygon id="_76487944" fill="white" stroke="#7F7F7F" stroke-width="0.0762" points="179.057,93.6098 178.757,94.5517 179.54,94.9329 180.323,94.2266 180.024,93.4089 "/>
    <polygon id="_66453392" fill="white" stroke="#7F7F7F" stroke-width="0.0762" points="183.774,91.533 183.187,92.5816 184.025,93.2271 185.131,92.5775 184.975,91.5306 "/>
    <polygon id="_66384120" fill="white" stroke="#7F7F7F" stroke-width="0.0762" points="182.331,93.1866 181.8,93.7927 182.26,94.333 183.076,94.061 183.12,93.3524 "/>
    <polygon id="_76896464" fill="white" stroke="#7F7F7F" stroke-width="0.0762" points="180.611,94.3985 180.023,95.4471 180.862,96.0926 181.968,95.443 181.812,94.3961 "/>
    <polygon id="_77229048" fill="white" stroke="#7F7F7F" stroke-width="0.0762" points="179.161,95.014 178.104,95.1506 178.088,96.0892 179.135,96.5328 179.798,95.8683 "/>
    <polygon id="_76633160" fill="white" stroke="#7F7F7F" stroke-width="0.0762" points="179.969,98.6573 180.038,99.7641 181.011,99.8453 181.543,98.7889 180.899,98.0546 "/>
    <polygon id="_67206720" fill="white" stroke="#7F7F7F" stroke-width="0.0762" points="179.674,96.1338 179.299,96.787 179.82,97.1971 180.517,96.7974 180.427,96.1403 "/>
    <polygon id="_66428776" fill="white" stroke="#7F7F7F" stroke-width="0.0762" points="199.526,80.976 199.162,82.1213 200.114,82.5847 201.066,81.726 200.703,80.7318 "/>
    <polygon id="_77803528" fill="white" stroke="#7F7F7F" stroke-width="0.0762" points="197.692,82.0577 197.08,83.0923 197.904,83.7572 199.024,83.1336 198.893,82.0833 "/>
    <polygon id="_77802952" fill="white" stroke="#7F7F7F" stroke-width="0.0762" points="199.704,80.406 200.869,80.7046 201.277,79.7282 200.366,78.8263 199.394,79.2451 "/>
    <polygon id="_76881472" fill="white" stroke="#7F7F7F" stroke-width="0.0762" points="198.848,80.4536 199.026,81.6422 198.013,81.9488 197.209,80.9498 197.725,80.0258 "/>
    <polygon id="_66525032" fill="white" stroke="#7F7F7F" stroke-width="0.0762" points="178.289,97.4418 177.425,98.2768 176.587,97.6302 176.933,96.3956 177.985,96.2792 "/>
    <polygon id="_77298736" fill="white" stroke="#7F7F7F" stroke-width="0.0762" points="175.339,96.7463 175.562,97.5985 176.333,97.5131 176.587,96.6082 175.973,96.1343 "/>
    <polygon id="_27681824" fill="white" stroke="#7F7F7F" stroke-width="0.0762" points="179.143,97.3362 178.749,97.7175 178.366,97.4222 178.524,96.8585 179.005,96.8053 "/>
    <polygon id="_27666768" fill="white" stroke="#7F7F7F" stroke-width="0.0762" points="179.413,100.558 179.611,101.315 180.297,101.239 180.522,100.435 179.976,100.013 "/>
    <polygon id="_77275952" fill="white" stroke="#7F7F7F" stroke-width="0.0762" points="175.283,98.5808 174.933,98.919 174.593,98.6571 174.734,98.157 175.16,98.1098 "/>
    <polygon id="_66481424" fill="white" stroke="#7F7F7F" stroke-width="0.0762" points="175.37,99.999 174.936,100.418 174.516,100.094 174.69,99.4738 175.218,99.4153 "/>
    <polygon id="_67092168" fill="white" stroke="#7F7F7F" stroke-width="0.0762" points="178.475,98.4457 178.717,99.3685 179.552,99.2761 179.826,98.2962 179.161,97.7829 "/>
    <polygon id="_77130168" fill="white" stroke="#7F7F7F" stroke-width="0.0762" points="177.675,100.668 177.979,101.831 179.031,101.714 179.378,100.48 178.54,99.833 "/>
    <polygon id="_66401360" fill="white" stroke="#7F7F7F" stroke-width="0.0762" points="177.912,102.633 178.216,103.796 179.268,103.679 179.614,102.445 178.776,101.798 "/>
    <polygon id="_76768456" fill="white" stroke="#7F7F7F" stroke-width="0.0762" points="176.987,105.285 177.291,106.448 178.343,106.331 178.689,105.097 177.851,104.45 "/>
    <polygon id="_77027760" fill="white" stroke="#7F7F7F" stroke-width="0.0762" points="175.456,98.7416 175.714,99.7296 176.608,99.6306 176.902,98.5816 176.19,98.0321 "/>
    <polygon id="_77596560" fill="white" stroke="#7F7F7F" stroke-width="0.0762" points="174.448,101.056 174.752,102.219 175.804,102.102 176.15,100.868 175.312,100.221 "/>
    <polygon id="_78094592" fill="white" stroke="#7F7F7F" stroke-width="0.0762" points="174.685,103.077 174.935,104.034 175.8,103.938 176.085,102.923 175.396,102.391 "/>
    <polygon id="_77064552" fill="white" stroke="#7F7F7F" stroke-width="0.0762" points="176.921,98.9315 176.984,100.132 178.038,100.229 178.626,99.0896 177.935,98.2876 "/>
    <polygon id="_65763208" fill="white" stroke="#7F7F7F" stroke-width="0.0762" points="176.585,101.1 176.459,101.896 177.137,102.107 177.681,101.441 177.34,100.819 "/>
    <polygon id="_76957024" fill="white" stroke="#7F7F7F" stroke-width="0.0762" points="176.22,103.014 176.283,104.214 177.337,104.311 177.925,103.172 177.234,102.37 "/>
    <polygon id="_66485912" fill="white" stroke="#7F7F7F" stroke-width="0.0762" points="175.938,104.468 175.117,105.148 175.605,105.95 176.727,105.765 176.933,104.85 "/>
    <polygon id="_65830448" fill="white" stroke="#7F7F7F" stroke-width="0.0762" points="176.896,108.018 177.545,108.917 178.411,108.466 178.297,107.288 177.361,107.011 "/>
    <polygon id="_76825160" fill="white" stroke="#7F7F7F" stroke-width="0.0762" points="176.228,106.643 176.26,107.395 176.92,107.463 177.295,106.753 176.868,106.246 "/>
   </g>
  </g>
  <g id="PetPl_Hairy" onclick="parent.replacechar('PetPl_Hairy')" onmousemove="parent.showtooltip('PetPl_Hairy', 'Petiole hairy')" onmouseout="parent.hidetooltip('PetPl_Hairy')" cursor="pointer" >
   <g id="tige_0">
    <path id="_66286496" fill="#BCFA63" fill-rule="nonzero" stroke="#7F7F7F" stroke-width="0.0762" stroke-linejoin="bevel" d="M84.1731 56.5657l0 66.3386c0.5889,5.9819 16.0164,5.6867 15.8442,0l0 -66.3386 -15.8442 0z"/>
    <path id="_76486896" fill="#CEF794" fill-rule="nonzero" stroke="#7F7F7F" stroke-width="0.0762" stroke-linejoin="bevel" d="M92.0401 60.8528c-4.2871,0 -7.8228,-1.7901 -7.8228,-4.0661 0,-2.2321 3.5357,-4.066 7.8228,-4.066 4.3973,0 7.9331,1.8339 7.9331,4.066 0,2.276 -3.5358,4.0661 -7.9331,4.0661z"/>
   </g>
   <path id="petiole_1" fill="#CEF794" stroke="#7F7F7F" stroke-width="0.0762" d="M99.8997 109.637c-1.1151,-6.6745 5.8157,-15.714 11.9152,-20.8441 3.9839,-3.3507 8.3428,-5.7294 13.4178,-7.8699 8.0218,-3.3835 0.909,-5.4361 -3.686,-3.498 -10.3118,4.3493 -19.4484,11.1269 -25.1968,19.1784 -1.4281,2.0003 -0.9753,11.2622 3.5498,13.0336z"/>
   <path id="limbe_2" fill="#78B43C" stroke="#7F7F7F" stroke-width="0.0762" d="M156.867 92.3923c-10.7063,-7.2904 -28.3509,-20.4932 -32.4527,-15.9081 -8.4765,9.4752 12.315,45.2205 13.6195,44.4715 6.7913,-3.8999 17.5604,-20.3383 18.8332,-28.5634z"/>
   <path id="nervure_3" fill="#CEF794" stroke="#B2B2B2" stroke-width="0.0762" d="M124.191 76.7479c1.6993,4.6995 23.038,24.5904 26.5503,29.63 0.3521,-0.5766 0.482,-0.713 0.7043,-1.1653 -0.0461,-0.0406 -26.1911,-30.5753 -27.2546,-28.4647z"/>
   <g id="poils">
    <path id="_76845112" fill="white" fill-rule="nonzero" stroke="#838281" stroke-width="0.0762" stroke-linejoin="bevel" d="M118.639 83.3376c-0.008,0.0049 0.0303,-0.0577 0.0571,0.0472 0.1552,0.7437 -0.4367,1.7168 -0.8717,2.2597 -0.4156,0.5032 -0.6427,0.7946 -1.1199,1.27 0.6019,-0.6917 1.1278,-1.4962 1.3296,-1.8104 0.2908,-0.5081 0.5562,-1.2161 0.3225,-1.59 0.1272,-0.0795 -0.0503,0.1144 0.2824,-0.1765z"/>
    <path id="_27589840" fill="white" fill-rule="nonzero" stroke="#838281" stroke-width="0.0762" stroke-linejoin="bevel" d="M122.082 81.8591c-0.0199,0.0125 0.0318,-0.0199 0.0492,0.0523 0.0394,0.6115 -0.6958,1.5855 -1.2008,2.1225 -0.4972,0.4879 -0.7417,0.7071 -1.296,1.1919 0.6447,-0.7294 1.2616,-1.4415 1.4813,-1.7448 0.3808,-0.4703 0.7606,-1.0839 0.5766,-1.3782 0.1397,-0.0597 0.0373,0.0597 0,0l0.3897 -0.2437z"/>
    <path id="_66279664" fill="white" fill-rule="nonzero" stroke="#838281" stroke-width="0.0762" stroke-linejoin="bevel" d="M116.658 84.7612c-0.0278,0.0173 -0.747,1.8664 -1.2371,2.4715 -0.4195,0.5499 -0.6164,0.7394 -1.1543,1.2416 0.6796,-0.6294 1.0981,-1.4111 1.2954,-1.7502 0.1323,-0.2044 0.5115,-1.2435 0.669,-1.7347 0.0278,-0.0174 0.0348,0.0999 0.427,-0.2282z"/>
    <path id="_66427088" fill="white" fill-rule="nonzero" stroke="#838281" stroke-width="0.0762" stroke-linejoin="bevel" d="M122.258 77.2928c-0.0358,0.0224 0.0497,-0.0089 -0.0204,-0.0592 -0.5484,-0.3374 -1.763,-0.1036 -2.4396,0.1147 -0.6756,0.2288 -0.9525,0.3521 -1.6321,0.6276 0.9266,-0.2696 1.5202,-0.4526 1.8966,-0.5495 0.5911,-0.0986 1.6217,-0.1842 1.8057,0.1101 0.1472,-0.092 -0.0323,-0.0517 0,0l0.3898 -0.2437z"/>
    <path id="_77228000" fill="white" fill-rule="nonzero" stroke="#838281" stroke-width="0.0762" stroke-linejoin="bevel" d="M115.634 81.2056c-0.0199,0.0125 0.0447,-0.0169 -0.0378,-0.0869 -0.5798,-0.4673 -1.777,-0.3826 -2.471,-0.2364 -0.6383,0.1557 -0.9147,0.2621 -1.5591,0.4879 0.9228,-0.2228 1.7943,-0.386 2.1701,-0.4219 0.5862,-0.0622 1.4239,0.0391 1.6676,0.4289 0.0278,-0.0174 -0.1815,-0.0248 0.2302,-0.1716z"/>
    <path id="_77030736" fill="white" fill-rule="nonzero" stroke="#838281" stroke-width="0.0762" stroke-linejoin="bevel" d="M122.124 79.2734c-0.4484,-0.1953 -1.6789,0.3139 -2.2789,0.7168 -0.5886,0.3679 -0.6339,0.4902 -1.2255,0.9154 0.8283,-0.4625 1.1107,-0.639 1.4378,-0.7882 0.514,-0.2661 1.7345,-0.747 1.8917,-0.6018 0.0397,-0.0249 0.0019,-0.0677 0.0318,-0.0199l0.1431 -0.2223z"/>
    <path id="_77230912" fill="white" fill-rule="nonzero" stroke="#838281" stroke-width="0.0762" stroke-linejoin="bevel" d="M117.878 81.6681c0.0364,0.5802 -0.7774,1.2604 -1.4411,1.5703 -0.6343,0.2859 -1.1086,0.3944 -1.829,0.6401 0.8655,-0.4471 1.6143,-0.7271 1.9518,-0.9216 0.4136,-0.2585 1.0708,-0.7911 0.9892,-1.1605 0.0676,-0.0423 0.2601,-0.1238 0.3291,-0.1283z"/>
    <path id="_66496040" fill="white" fill-rule="nonzero" stroke="#838281" stroke-width="0.0762" stroke-linejoin="bevel" d="M118.55 79.7435c-0.0119,0.0074 0.0447,-0.0169 -0.0418,-0.0845 -0.5802,-0.4504 -1.7803,-0.397 -2.4759,-0.2443 -0.6294,0.1611 -0.9212,0.2606 -1.5576,0.4815 0.874,-0.2477 1.8346,-0.3836 2.2134,-0.4324 0.5956,-0.0294 1.3135,0.075 1.5596,0.4686 0.1273,-0.0795 -0.1014,-0.0472 -0.0516,0.0323l0.3539 -0.2212z"/>
    <path id="_45415376" fill="white" fill-rule="nonzero" stroke="#838281" stroke-width="0.0762" stroke-linejoin="bevel" d="M110.084 89.4484c-0.008,0.0049 0.0303,-0.0577 0.0571,0.0472 0.1552,0.7437 -0.4367,1.7168 -0.8717,2.2597 -0.4156,0.5032 -0.6427,0.7946 -1.1199,1.27 0.6019,-0.6917 1.1278,-1.4962 1.3296,-1.8104 0.2908,-0.5081 0.5562,-1.2161 0.3225,-1.59 0.1272,-0.0795 -0.0503,0.1144 0.2824,-0.1765z"/>
    <path id="_77610544" fill="white" fill-rule="nonzero" stroke="#838281" stroke-width="0.0762" stroke-linejoin="bevel" d="M113.515 87.516c-0.0199,0.0125 0.0318,-0.0199 0.0492,0.0523 0.0394,0.6115 -0.6958,1.5855 -1.2008,2.1225 -0.4972,0.4879 -0.7417,0.7071 -1.296,1.1919 0.6447,-0.7294 1.2616,-1.4415 1.4813,-1.7448 0.3808,-0.4703 0.7606,-1.0839 0.5766,-1.3782 0.1397,-0.0597 0.0373,0.0597 0,0l0.3897 -0.2437z"/>
    <path id="_66274376" fill="white" fill-rule="nonzero" stroke="#838281" stroke-width="0.0762" stroke-linejoin="bevel" d="M107.612 91.4513c-0.0278,0.0173 -0.747,1.8664 -1.2371,2.4715 -0.4195,0.5499 -0.6164,0.7394 -1.1543,1.2416 0.6796,-0.6294 1.0981,-1.4111 1.2954,-1.7502 0.1323,-0.2044 0.5115,-1.2435 0.669,-1.7347 0.0278,-0.0174 0.0348,0.0999 0.427,-0.2282z"/>
    <path id="_76619024" fill="white" fill-rule="nonzero" stroke="#838281" stroke-width="0.0762" stroke-linejoin="bevel" d="M113.692 82.9497c-0.0358,0.0224 0.0497,-0.0089 -0.0204,-0.0592 -0.5484,-0.3374 -1.763,-0.1036 -2.4396,0.1147 -0.6756,0.2288 -0.9525,0.3521 -1.6321,0.6276 0.9266,-0.2696 1.5202,-0.4526 1.8966,-0.5495 0.5911,-0.0986 1.6217,-0.1842 1.8057,0.1101 0.1472,-0.092 -0.0323,-0.0517 0,0l0.3898 -0.2437z"/>
    <path id="_66291184" fill="white" fill-rule="nonzero" stroke="#838281" stroke-width="0.0762" stroke-linejoin="bevel" d="M107.068 86.8625c-0.0199,0.0125 0.0447,-0.0169 -0.0378,-0.0869 -0.5798,-0.4673 -1.777,-0.3826 -2.471,-0.2364 -0.6383,0.1557 -0.9147,0.2621 -1.5591,0.4879 0.9228,-0.2228 1.7943,-0.386 2.1701,-0.4219 0.5862,-0.0622 1.4239,0.0391 1.6676,0.4289 0.0278,-0.0174 -0.1815,-0.0248 0.2302,-0.1716z"/>
    <path id="_65766688" fill="white" fill-rule="nonzero" stroke="#838281" stroke-width="0.0762" stroke-linejoin="bevel" d="M113.558 84.9303c-0.4484,-0.1953 -1.6789,0.3139 -2.2789,0.7168 -0.5886,0.3679 -0.6339,0.4902 -1.2255,0.9154 0.8283,-0.4625 1.1107,-0.639 1.4378,-0.7882 0.514,-0.2661 1.7345,-0.747 1.8917,-0.6018 0.0397,-0.0249 0.0019,-0.0677 0.0318,-0.0199l0.1431 -0.2223z"/>
    <path id="_27617168" fill="white" fill-rule="nonzero" stroke="#838281" stroke-width="0.0762" stroke-linejoin="bevel" d="M109.311 87.325c0.0364,0.5802 -0.7774,1.2604 -1.4411,1.5703 -0.6343,0.2859 -1.1086,0.3944 -1.829,0.6401 0.8655,-0.4471 1.6143,-0.7271 1.9518,-0.9216 0.4136,-0.2585 1.0708,-0.7911 0.9892,-1.1605 0.0676,-0.0423 0.2601,-0.1238 0.3291,-0.1283z"/>
    <path id="_76519040" fill="white" fill-rule="nonzero" stroke="#838281" stroke-width="0.0762" stroke-linejoin="bevel" d="M109.983 85.4004c-0.0119,0.0074 0.0447,-0.0169 -0.0418,-0.0845 -0.5802,-0.4504 -1.7803,-0.397 -2.4759,-0.2443 -0.6294,0.1611 -0.9212,0.2606 -1.5576,0.4815 0.874,-0.2477 1.8346,-0.3836 2.2134,-0.4324 0.5956,-0.0294 1.3135,0.075 1.5596,0.4686 0.1273,-0.0795 -0.1014,-0.0472 -0.0516,0.0323l0.3539 -0.2212z"/>
    <path id="_65575504" fill="white" fill-rule="nonzero" stroke="#838281" stroke-width="0.0762" stroke-linejoin="bevel" d="M103.15 94.5106c-0.008,0.0049 0.0303,-0.0577 0.0571,0.0472 0.1552,0.7437 -0.4367,1.7168 -0.8717,2.2597 -0.4156,0.5032 -0.6427,0.7946 -1.1199,1.27 0.6019,-0.6917 1.1278,-1.4962 1.3296,-1.8104 0.2908,-0.5081 0.5562,-1.2161 0.3225,-1.59 0.1272,-0.0795 -0.0503,0.1144 0.2824,-0.1765z"/>
    <path id="_66455952" fill="white" fill-rule="nonzero" stroke="#838281" stroke-width="0.0762" stroke-linejoin="bevel" d="M104.664 94.953c-0.0138,0.019 0.022,-0.0304 0.0652,0.0299 0.266,0.552 -0.0497,1.7308 -0.3162,2.4181 -0.2777,0.6388 -0.4221,0.9338 -0.7539,1.5913 0.3239,-0.9182 0.6283,-1.8097 0.7181,-2.1733 0.1764,-0.5789 0.298,-1.2902 0.017,-1.4939 0.1071,-0.1077 0.057,0.0413 0,0l0.2698 -0.3721z"/>
    <path id="_77018328" fill="white" fill-rule="nonzero" stroke="#838281" stroke-width="0.0762" stroke-linejoin="bevel" d="M101.656 95.7331c-0.0278,0.0173 -0.747,1.8664 -1.2371,2.4715 -0.4195,0.5499 -0.6164,0.7394 -1.1543,1.2416 0.6796,-0.6294 1.0981,-1.4111 1.2954,-1.7502 0.1323,-0.2044 0.5115,-1.2435 0.669,-1.7347 0.0278,-0.0174 0.0348,0.0999 0.427,-0.2282z"/>
    <path id="_66419456" fill="white" fill-rule="nonzero" stroke="#838281" stroke-width="0.0762" stroke-linejoin="bevel" d="M105.167 89.3279c-0.0358,0.0224 0.0497,-0.0089 -0.0204,-0.0592 -0.5484,-0.3374 -1.763,-0.1036 -2.4396,0.1147 -0.6756,0.2288 -0.9525,0.3521 -1.6321,0.6276 0.9266,-0.2696 1.5202,-0.4526 1.8966,-0.5495 0.5911,-0.0986 1.6217,-0.1842 1.8057,0.1101 0.1472,-0.092 -0.0323,-0.0517 0,0l0.3898 -0.2437z"/>
    <path id="_76889936" fill="white" fill-rule="nonzero" stroke="#838281" stroke-width="0.0762" stroke-linejoin="bevel" d="M99.3152 94.0336c-0.0199,0.0125 0.0447,-0.0169 -0.0378,-0.0869 -0.5798,-0.4673 -1.777,-0.3826 -2.471,-0.2364 -0.6383,0.1557 -0.9147,0.2621 -1.5591,0.4879 0.9228,-0.2228 1.7943,-0.386 2.1701,-0.4219 0.5862,-0.0622 1.4239,0.0391 1.6676,0.4289 0.0278,-0.0174 -0.1815,-0.0248 0.2302,-0.1716z"/>
    <path id="_67220560" fill="white" fill-rule="nonzero" stroke="#838281" stroke-width="0.0762" stroke-linejoin="bevel" d="M105.033 91.3085c-0.4484,-0.1953 -1.6789,0.3139 -2.2789,0.7168 -0.5886,0.3679 -0.6339,0.4902 -1.2255,0.9154 0.8283,-0.4625 1.1107,-0.639 1.4378,-0.7882 0.514,-0.2661 1.7345,-0.747 1.8917,-0.6018 0.0397,-0.0249 0.0019,-0.0677 0.0318,-0.0199l0.1431 -0.2223z"/>
    <path id="_76880528" fill="white" fill-rule="nonzero" stroke="#838281" stroke-width="0.0762" stroke-linejoin="bevel" d="M100.786 93.7032c0.0364,0.5802 -0.7774,1.2604 -1.4411,1.5703 -0.6343,0.2859 -1.1086,0.3944 -1.829,0.6401 0.8655,-0.4471 1.6143,-0.7271 1.9518,-0.9216 0.4136,-0.2585 1.0708,-0.7911 0.9892,-1.1605 0.0676,-0.0423 0.2601,-0.1238 0.3291,-0.1283z"/>
    <path id="_65830224" fill="white" fill-rule="nonzero" stroke="#838281" stroke-width="0.0762" stroke-linejoin="bevel" d="M101.459 91.7786c-0.0119,0.0074 0.0447,-0.0169 -0.0418,-0.0845 -0.5802,-0.4504 -1.7803,-0.397 -2.4759,-0.2443 -0.6294,0.1611 -0.9212,0.2606 -1.5576,0.4815 0.874,-0.2477 1.8346,-0.3836 2.2134,-0.4324 0.5956,-0.0294 1.3135,0.075 1.5596,0.4686 0.1273,-0.0795 -0.1014,-0.0472 -0.0516,0.0323l0.3539 -0.2212z"/>
    <path id="_77454552" fill="white" fill-rule="nonzero" stroke="#838281" stroke-width="0.0762" stroke-linejoin="bevel" d="M99.7617 102.081c-0.001,0.0094 -0.0265,-0.0595 0.0725,-0.0156 0.68,0.3389 1.0772,1.4063 1.234,2.0841 0.1376,0.6379 0.2257,0.9968 0.3032,1.6659 -0.1701,-0.901 -0.4759,-1.8122 -0.5976,-2.1653 -0.2187,-0.543 -0.6102,-1.1899 -1.0484,-1.238 0.0163,-0.1492 0.0586,0.1102 0.0363,-0.3311z"/>
    <path id="_76483608" fill="white" fill-rule="nonzero" stroke="#838281" stroke-width="0.0762" stroke-linejoin="bevel" d="M100.904 99.7343c-0.0026,0.0233 0.0041,-0.0373 0.0715,-0.0063 0.5044,0.3479 0.8137,1.5284 0.9225,2.2575 0.075,0.6925 0.0956,1.0203 0.1329,1.7558 -0.1733,-0.958 -0.3502,-1.8834 -0.4522,-2.2437 -0.1334,-0.5903 -0.3798,-1.2685 -0.7248,-1.3064 0.0397,-0.1466 0.0699,0.0077 0,0l0.0501 -0.4569z"/>
    <path id="_66516496" fill="white" fill-rule="nonzero" stroke="#838281" stroke-width="0.0762" stroke-linejoin="bevel" d="M99.3431 105.071c-0.0036,0.0326 1.0025,1.7426 1.174,2.5021 0.1718,0.6701 0.1986,0.942 0.2597,1.6753 -0.0732,-0.9234 -0.4276,-1.7361 -0.5716,-2.1011 -0.0785,-0.2304 -0.6594,-1.1718 -0.9475,-1.5997 0.0036,-0.0326 0.1,0.0346 0.0854,-0.4766z"/>
    <path id="_77540224" fill="white" fill-rule="nonzero" stroke="#838281" stroke-width="0.0762" stroke-linejoin="bevel" d="M97.426 95.5043c-0.0046,0.042 0.0238,-0.0445 -0.0591,-0.0206 -0.6046,0.2215 -1.1734,1.3198 -1.4211,1.9862 -0.2389,0.6722 -0.3136,0.9659 -0.5183,1.6701 0.3624,-0.8945 0.5864,-1.4739 0.7434,-1.8294 0.2888,-0.5251 0.86,-1.3872 1.205,-1.3493 0.0189,-0.1726 -0.0607,-0.0067 0,0l0.0501 -0.457z"/>
    <path id="_65711904" fill="white" fill-rule="nonzero" stroke="#838281" stroke-width="0.0762" stroke-linejoin="bevel" d="M98.3753 101.887c-0.0026,0.0234 0.0144,-0.0456 -0.0917,-0.0242 -0.7259,0.1657 -1.401,1.158 -1.7161,1.7935 -0.2732,0.5975 -0.3609,0.8805 -0.5827,1.5261 0.3966,-0.8624 0.8083,-1.6477 1.013,-1.9649 0.3142,-0.4987 0.9127,-1.0936 1.3696,-1.0435 0.0036,-0.0327 -0.1319,0.1271 0.0079,-0.287z"/>
    <path id="_66397032" fill="white" fill-rule="nonzero" stroke="#838281" stroke-width="0.0762" stroke-linejoin="bevel" d="M99.1237 97.4091c-0.4311,0.2311 -0.7935,1.5125 -0.8489,2.233 -0.0757,0.6901 -0.0078,0.8013 -0.0405,1.5291 0.15,-0.9366 0.1863,-1.2677 0.2718,-1.6169 0.1096,-0.5683 0.4881,-1.8244 0.6994,-1.8579 0.0051,-0.0466 -0.0519,-0.0434 0.004,-0.0373l-0.0858 -0.25z"/>
    <path id="_66516744" fill="white" fill-rule="nonzero" stroke="#838281" stroke-width="0.0762" stroke-linejoin="bevel" d="M97.9927 103.632c0.4781,0.3308 0.508,1.3911 0.3401,2.104 -0.1684,0.6751 -0.3771,1.1146 -0.6304,1.8324 0.1851,-0.9564 0.4291,-1.7177 0.4855,-2.1031 0.0532,-0.4848 0.0422,-1.3307 -0.2983,-1.4954 0.0087,-0.0793 0.0639,-0.2809 0.1031,-0.3379z"/>
    <path id="_76568968" fill="white" fill-rule="nonzero" stroke="#838281" stroke-width="0.0762" stroke-linejoin="bevel" d="M97.6541 98.2462c-0.0015,0.0139 0.0145,-0.0456 -0.0922,-0.0196 -0.7129,0.1766 -1.4145,1.1518 -1.7254,1.7924 -0.2634,0.594 -0.366,0.8847 -0.5868,1.521 0.3469,-0.8395 0.8352,-1.6778 1.0316,-2.0054 0.3458,-0.4857 0.8724,-0.9847 1.334,-0.9341 0.0163,-0.1492 -0.0999,0.0503 -0.0067,0.0606l0.0455 -0.4149z"/>
   </g>
  </g>
  <g id="PetPl_Glab" onclick="parent.replacechar('PetPl_Glab')" onmousemove="parent.showtooltip('PetPl_Glab', 'Petiole glabrous')" onmouseout="parent.hidetooltip('PetPl_Glab')" cursor="pointer" >
   <g id="tige_4">
    <path id="_76648288" fill="#BCFA63" fill-rule="nonzero" stroke="#7F7F7F" stroke-width="0.0762" stroke-linejoin="bevel" d="M2.8931 56.5657l0 66.3386c0.5889,5.9819 16.0164,5.6867 15.8442,0l0 -66.3386 -15.8442 0z"/>
    <path id="_77010184" fill="#CEF794" fill-rule="nonzero" stroke="#7F7F7F" stroke-width="0.0762" stroke-linejoin="bevel" d="M10.7601 60.8528c-4.2871,0 -7.8228,-1.7901 -7.8228,-4.0661 0,-2.2321 3.5357,-4.066 7.8228,-4.066 4.3973,0 7.9331,1.8339 7.9331,4.066 0,2.276 -3.5358,4.0661 -7.9331,4.0661z"/>
   </g>
   <path id="petiole_5" fill="#CEF794" stroke="#7F7F7F" stroke-width="0.0762" d="M18.6197 109.637c-1.1151,-6.6745 5.8157,-15.714 11.9152,-20.8441 3.9839,-3.3507 8.3428,-5.7294 13.4178,-7.8699 8.0218,-3.3835 0.909,-5.4361 -3.686,-3.498 -10.3118,4.3493 -19.4484,11.1269 -25.1968,19.1784 -1.4281,2.0003 -0.9753,11.2622 3.5498,13.0336z"/>
   <path id="limbe_6" fill="#78B43C" stroke="#7F7F7F" stroke-width="0.0762" d="M75.5866 92.3923c-10.7063,-7.2904 -28.3509,-20.4932 -32.4527,-15.9081 -8.4765,9.4752 12.315,45.2205 13.6195,44.4715 6.7913,-3.8999 17.5604,-20.3383 18.8332,-28.5634z"/>
   <path id="nervure_7" fill="#CEF794" stroke="#B2B2B2" stroke-width="0.0762" d="M42.911 76.7479c1.6993,4.6995 23.038,24.5904 26.5503,29.63 0.3521,-0.5766 0.482,-0.713 0.7043,-1.1653 -0.0461,-0.0406 -26.1911,-30.5753 -27.2546,-28.4647z"/>
  </g>
 </g>
<image xlink:href="tick.gif" id="imgtick" x="-100" y="-100" width="15" height="15"/>
<rect id="recttooltip" x="-100" y="-100" width="55" height="6" fill-opacity="0.4" pointer-events="none"/>
<text id="textboxid" x="-100" y="-100" pointer-events="none"> </text>
</a></svg>
