<?xml version="1.0" encoding="UTF-8"?>
<!DOCTYPE svg PUBLIC "-//W3C//DTD SVG 1.1//EN" "http://www.w3.org/Graphics/SVG/1.1/DTD/svg11.dtd">
<!-- Creator: CorelDRAW -->
<svg xmlns="http://www.w3.org/2000/svg" xml:space="preserve" shape-rendering="geometricPrecision" text-rendering="geometricPrecision" image-rendering="optimizeQuality" fill-rule="evenodd" clip-rule="evenodd"
viewBox="0 0 240 180"
 xmlns:xlink="http://www.w3.org/1999/xlink">
<a>
 <g id="Layer_x0020_1">
  <metadata id="CorelCorpID_0Corel-Layer"/>
  <rect fill="none" width="240" height="180"/>
  <g id="Phyllo_Vert" onclick="parent.replacechar('Phyllo_Vert')" onmousemove="parent.showtooltip('Phyllo_Vert', 'Verticilate phyllotaxy')" onmouseout="parent.hidetooltip('Phyllo_Vert')" cursor="pointer" >
   <g id="f2">
    <path id="limbe" fill="#00733B" stroke="black" stroke-width="0.0762" d="M223.907 49.8252c-1.1509,5.7348 -8.4152,21.7228 -16.1374,18.1436 -4.8296,-3.7093 8.8117,-15.6777 16.1374,-18.1436z"/>
    <path id="nervure" fill="#005E31" stroke="black" stroke-width="0.0762" d="M207.308 69.0829c-0.1289,-0.0634 -0.1475,-0.0711 -0.2666,-0.1237 3.3746,-6.9158 12.2336,-15.3612 16.8589,-19.1338 -6.8169,6.1191 -12.8317,12.4049 -16.5923,19.2575z"/>
   </g>
   <g id="f3">
    <path id="limbe_0" fill="#00733B" stroke="black" stroke-width="0.0762" d="M206.562 68.1237c0.0546,8.341 -20.5559,1.8011 -24.8913,-7.4004 7.9315,-4.8284 27.5286,0.6788 24.8913,7.4004z"/>
    <path id="nervure_1" fill="#005E31" stroke="black" stroke-width="0.0762" d="M181.698 60.7253c9.0975,2.3341 19.4916,4.2543 25.4391,7.4786 -0.0982,0.2368 -0.1017,0.3282 -0.1998,0.5651 -3.863,-2.8797 -14.7875,-5.1366 -25.2393,-8.0437z"/>
   </g>
   <g id="f7">
    <path id="limbe_2" fill="#00733B" stroke="black" stroke-width="0.0762" d="M206.486 108.392c0.0546,8.3409 -20.5558,1.8011 -24.8913,-7.4004 7.9315,-4.8285 27.5286,0.6788 24.8913,7.4004z"/>
    <path id="nervure_3" fill="#005E31" stroke="black" stroke-width="0.0762" d="M181.622 100.993c9.0975,2.3341 19.4917,4.2543 25.4392,7.4786 -0.0983,0.2368 -0.1018,0.3282 -0.1999,0.5651 -3.863,-2.8797 -14.7875,-5.1366 -25.2393,-8.0437z"/>
   </g>
   <g id="f2_4">
    <path id="limbe_5" fill="#00733B" stroke="black" stroke-width="0.0762" d="M223.907 91.4158c-1.1509,5.7349 -8.4152,21.7229 -16.1374,18.1437 -4.8296,-3.7093 8.8117,-15.6778 16.1374,-18.1437z"/>
    <path id="nervure_6" fill="#005E31" stroke="black" stroke-width="0.0762" d="M207.308 110.674c-0.1289,-0.0635 -0.1475,-0.0712 -0.2666,-0.1237 3.3746,-6.9158 12.2336,-15.3612 16.8589,-19.1339 -6.8169,6.1192 -12.8317,12.405 -16.5923,19.2576z"/>
   </g>
   <path id="axe" fill="#D2A01E" stroke="black" stroke-width="0.0762" d="M206.674 43.8806c0.5504,-3.0584 3.0874,-3.1717 3.5543,0l0 92.6061c-1.1835,0.7504 -2.3714,0.782 -3.5543,0l0 -92.6061z"/>
   <g id="f_x0020_5">
    <path id="limbe_7" fill="#00733B" stroke="black" stroke-width="0.0762" d="M189.586 130.354c10.1031,-2.9932 27.2972,-20.1858 16.1452,-20.0276 -5.5906,-1.902 -17.2335,14.2589 -16.1452,20.0276z"/>
    <path id="nervure_8" fill="#005E31" stroke="black" stroke-width="0.0762" d="M189.617 130.319c6.6428,-9.7025 12.8082,-17.9781 17.4014,-20.8159 0.274,-0.1069 0.5085,-0.2078 0.8485,-0.1818 -4.472,2.787 -11.5458,11.8665 -18.2499,20.9977z"/>
   </g>
   <g id="f_x0020_9">
    <path id="limbe_9" fill="#00733B" stroke="black" stroke-width="0.0762" d="M184.338 83.7331c10.5362,-0.1385 31.7514,-12.0187 20.9752,-14.8934 -4.8645,-3.3481 -20.4568,9.046 -20.9752,14.8934z"/>
    <path id="nervure_10" fill="#005E31" stroke="black" stroke-width="0.0762" d="M184.378 83.7077c9.1365,-7.6266 17.2771,-13.7846 22.5312,-15.2872 0.1784,-0.0509 0.5298,-0.0608 0.6737,0.0849 -5.122,1.4863 -14.1657,8.1491 -23.2049,15.2023z"/>
   </g>
   <g id="f4">
    <path id="limbe_11" fill="#00733B" stroke="black" stroke-width="0.0762" d="M236.213 76.8645c-7.3962,4.3904 -30.6635,0.0394 -26.0524,-8.1263 2.5155,-10.5063 21.8686,1.8176 26.0524,8.1263z"/>
    <path id="nervure_12" fill="#005E31" stroke="black" stroke-width="0.0762" d="M209.698 68.0147c8.4592,-0.0984 18.3443,4.3163 26.4607,8.8247 -14.5484,-7.2634 -23.7428,-9.0355 -27.4636,-8.3111 0.0596,-0.28 0.6609,-0.4196 1.0029,-0.5136z"/>
   </g>
   <g id="f8">
    <path id="limbe_13" fill="#00733B" stroke="black" stroke-width="0.0762" d="M236.785 118.193c-7.3962,4.3904 -30.6635,0.0394 -26.0524,-8.1264 2.5156,-10.5062 21.8687,1.8177 26.0524,8.1264z"/>
    <path id="nervure_14" fill="#005E31" stroke="black" stroke-width="0.0762" d="M210.21 109.248c8.4027,0.1806 18.4248,4.4119 26.5204,8.9203 -14.5124,-7.1863 -22.4824,-8.8082 -28.0079,-8.616 0.2201,-0.3249 1.1346,-0.3844 1.4875,-0.3043z"/>
   </g>
  </g>
  <g id="Phyllo_Op" onclick="parent.replacechar('Phyllo_Op')" onmousemove="parent.showtooltip('Phyllo_Op', 'Opposite or subopposite phyllotaxy')" onmouseout="parent.hidetooltip('Phyllo_Op')" cursor="pointer" >
   <g id="f2_15">
    <path id="limbe_16" fill="#00733B" stroke="black" stroke-width="0.0762" d="M165.628 39.3483c-3.4524,4.7216 -16.7585,16.1817 -22.2642,9.6908 -2.8257,-5.3944 14.5802,-10.5288 22.2642,-9.6908z"/>
    <path id="nervure_17" fill="#005E31" stroke="black" stroke-width="0.0762" d="M142.477 49.8563c-0.0904,-0.1117 -0.1041,-0.1265 -0.1901,-0.2242 5.9666,-4.8597 17.5529,-8.8047 23.3348,-10.2866 -8.7562,2.6913 -16.8544,5.8706 -23.1447,10.5108z"/>
   </g>
   <g id="f3_18">
    <path id="limbe_19" fill="#00733B" stroke="black" stroke-width="0.0762" d="M140.719 68.1237c0.0546,8.341 -20.5559,1.8011 -24.8913,-7.4004 7.9315,-4.8284 27.5286,0.6789 24.8913,7.4004z"/>
    <path id="nervure_20" fill="#005E31" stroke="black" stroke-width="0.0762" d="M115.855 60.7253c9.0975,2.3342 19.4917,4.2544 25.4392,7.4787 -0.0983,0.2368 -0.1018,0.3282 -0.1999,0.565 -3.863,-2.8797 -14.7875,-5.1365 -25.2393,-8.0437z"/>
   </g>
   <g id="f7_21">
    <path id="limbe_22" fill="#00733B" stroke="black" stroke-width="0.0762" d="M140.719 102.665c0.0546,8.341 -20.5559,1.8011 -24.8913,-7.4004 7.9315,-4.8284 27.5286,0.6788 24.8913,7.4004z"/>
    <path id="nervure_23" fill="#005E31" stroke="black" stroke-width="0.0762" d="M115.855 95.2668c9.0975,2.3342 19.4917,4.2543 25.4392,7.4786 -0.0983,0.2368 -0.1018,0.3283 -0.1999,0.5651 -3.863,-2.8797 -14.7875,-5.1366 -25.2393,-8.0437z"/>
   </g>
   <g id="f6">
    <path id="limbe_24" fill="#00733B" stroke="black" stroke-width="0.0762" d="M165.628 73.8897c-3.4524,4.7216 -16.7585,16.1817 -22.2642,9.6909 -2.8257,-5.3944 14.5802,-10.5288 22.2642,-9.6909z"/>
    <path id="nervure_25" fill="#005E31" stroke="black" stroke-width="0.0762" d="M142.477 84.3978c-0.0904,-0.1118 -0.1041,-0.1266 -0.1901,-0.2242 5.9666,-4.8597 17.5529,-8.8048 23.3348,-10.2866 -8.7562,2.6912 -16.8544,5.8706 -23.1447,10.5108z"/>
   </g>
   <g id="f10">
    <path id="limbe_26" fill="#00733B" stroke="black" stroke-width="0.0762" d="M165.628 108.431c-3.4524,4.7216 -16.7585,16.1817 -22.2642,9.6908 -2.8257,-5.3944 14.5802,-10.5288 22.2642,-9.6908z"/>
    <path id="nervure_27" fill="#005E31" stroke="black" stroke-width="0.0762" d="M142.477 118.939c-0.0904,-0.1117 -0.1041,-0.1265 -0.1901,-0.2242 5.9666,-4.8597 17.5529,-8.8047 23.3348,-10.2865 -8.7562,2.6912 -16.8544,5.8705 -23.1447,10.5107z"/>
   </g>
   <path id="axe_28" fill="#D2A01E" stroke="black" stroke-width="0.0762" d="M140.831 43.8806c0.5504,-3.0583 3.0874,-3.1716 3.5543,0l0 92.6062c-1.1834,0.7504 -2.3714,0.782 -3.5543,0l0 -92.6062z"/>
   <g id="f_x0020_1">
    <path id="limbe_29" fill="#00733B" stroke="black" stroke-width="0.0762" d="M120.028 64.8053c10.5362,-0.1385 31.7514,-12.0187 20.9751,-14.8934 -4.8644,-3.3481 -20.4568,9.0459 -20.9751,14.8934z"/>
    <path id="nervure_30" fill="#005E31" stroke="black" stroke-width="0.0762" d="M120.068 64.7799c9.027,-7.5352 17.3457,-13.7863 22.5368,-15.2709 0.0463,0.0993 0.5232,0.0444 0.5695,0.1437 -5.0606,1.4685 -14.1754,8.1585 -23.1063,15.1272z"/>
   </g>
   <path id="limbe_31" fill="#00733B" stroke="black" stroke-width="0.0762" d="M169.851 76.9294c-7.3962,4.3904 -30.6635,0.0394 -26.0524,-8.1263 2.5155,-10.5063 21.8686,1.8176 26.0524,8.1263z"/>
   <g id="f_x0020_5_32">
    <path id="limbe_33" fill="#00733B" stroke="black" stroke-width="0.0762" d="M120.028 99.3467c10.5362,-0.1385 31.7514,-12.0187 20.9751,-14.8934 -4.8644,-3.348 -20.4568,9.046 -20.9751,14.8934z"/>
    <path id="nervure_34" fill="#005E31" stroke="black" stroke-width="0.0762" d="M120.068 99.3213c9.027,-7.5352 17.2072,-13.8266 22.3983,-15.3112 0.2926,-0.0285 0.5457,-0.062 0.8659,0.0554 -5.0606,1.4685 -14.3333,8.2872 -23.2642,15.2558z"/>
   </g>
   <g id="f_x0020_9_35">
    <path id="limbe_36" fill="#00733B" stroke="black" stroke-width="0.0762" d="M120.028 133.888c10.5362,-0.1385 31.7514,-12.0187 20.9751,-14.8934 -4.8644,-3.3481 -20.4568,9.046 -20.9751,14.8934z"/>
    <path id="nervure_37" fill="#005E31" stroke="black" stroke-width="0.0762" d="M120.068 133.863c9.1365,-7.6266 17.2771,-13.7846 22.5312,-15.2872 0.1784,-0.0509 0.5298,-0.0608 0.6737,0.0849 -5.122,1.4863 -14.1656,8.1491 -23.2049,15.2023z"/>
   </g>
   <g id="f4_38">
    <path id="limbe_39" fill="#00733B" stroke="black" stroke-width="0.0762" d="M169.851 76.9294c-7.3962,4.3904 -30.6635,0.0394 -26.0524,-8.1263 2.5155,-10.5063 21.8686,1.8176 26.0524,8.1263z"/>
    <path id="nervure_40" fill="#005E31" stroke="black" stroke-width="0.0762" d="M143.336 68.0796c8.4592,-0.0984 18.3442,4.3164 26.4607,8.8247 -14.5484,-7.2634 -23.7428,-9.0355 -27.4636,-8.311 0.0595,-0.2801 0.6608,-0.4196 1.0029,-0.5137z"/>
   </g>
   <g id="f8_41">
    <path id="limbe_42" fill="#00733B" stroke="black" stroke-width="0.0762" d="M169.851 111.471c-7.3962,4.3904 -30.6635,0.0394 -26.0524,-8.1264 2.5155,-10.5062 21.8686,1.8177 26.0524,8.1264z"/>
    <path id="nervure_43" fill="#005E31" stroke="black" stroke-width="0.0762" d="M143.276 102.525c8.4027,0.1806 18.4247,4.4119 26.5204,8.9203 -14.5124,-7.1863 -22.4825,-8.8082 -28.008,-8.616 0.2202,-0.3249 1.1346,-0.3844 1.4876,-0.3043z"/>
   </g>
  </g>
  <g id="Phyllo_Dist" onclick="parent.replacechar('Phyllo_Dist')" onmousemove="parent.showtooltip('Phyllo_Dist', 'Alternate distichous phyllotaxy')" onmouseout="parent.hidetooltip('Phyllo_Dist')" cursor="pointer" >
   <path id="axe_44" fill="#D2A01E" stroke="black" stroke-width="0.0762" d="M77.7574 43.9722c0.5498,-3.0553 3.0844,-3.1685 3.5508,0l0 92.5151c-1.1823,0.7496 -2.3691,0.7812 -3.5508,0l0 -92.5151z"/>
   <g>
    <path id="limbe_45" fill="#00733B" stroke="black" stroke-width="0.0762" d="M77.4344 122.703c-0.1741,-2.8191 -2.2648,-5.663 -6.7772,-6.8445 -5.862,-1.5348 -9.1451,-0.322 -14.0604,1.6543 4.2041,3.8849 6.6051,5.8433 10.9341,7.1701 4.6286,1.4185 8.2513,1.2346 9.9035,-1.9799z"/>
    <path id="nervure_46" fill="#005E31" stroke="black" stroke-width="0.0762" d="M56.6567 117.532c8.0194,0.2339 13.894,0.4034 21.2011,6.0094 0.1397,-0.0945 0.105,-0.1901 0.2586,-0.2801 -7.3824,-6.0595 -14.6713,-5.8302 -21.4597,-5.7293z"/>
   </g>
   <g>
    <path id="limbe_47" fill="#00733B" stroke="black" stroke-width="0.0762" d="M77.3355 104.703c-0.1741,-2.8191 -2.2647,-5.6631 -6.7772,-6.8445 -5.862,-1.5348 -9.1451,-0.322 -14.0603,1.6543 4.204,3.8849 6.605,5.8433 10.934,7.1701 4.6287,1.4185 8.2513,1.2346 9.9035,-1.9799z"/>
    <path id="nervure_48" fill="#005E31" stroke="black" stroke-width="0.0762" d="M56.5578 99.5319c8.0195,0.2338 13.894,0.4034 21.2011,6.0094 0.1398,-0.0945 0.1051,-0.1901 0.2586,-0.2801 -7.3824,-6.0595 -14.6712,-5.8302 -21.4597,-5.7293z"/>
   </g>
   <g>
    <path id="limbe_49" fill="#00733B" stroke="black" stroke-width="0.0762" d="M77.4344 87.5106c-0.1741,-2.8191 -2.2648,-5.6631 -6.7772,-6.8445 -5.862,-1.5348 -9.1451,-0.322 -14.0604,1.6543 4.2041,3.8849 6.6051,5.8433 10.9341,7.1701 4.6286,1.4185 8.2513,1.2346 9.9035,-1.9799z"/>
    <path id="nervure_50" fill="#005E31" stroke="black" stroke-width="0.0762" d="M56.6567 82.3394c8.0194,0.2339 13.894,0.4034 21.2011,6.0094 0.1397,-0.0945 0.105,-0.1901 0.2586,-0.2801 -7.3824,-6.0595 -14.6713,-5.8302 -21.4597,-5.7293z"/>
   </g>
   <g>
    <path id="limbe_51" fill="#00733B" stroke="black" stroke-width="0.0762" d="M77.2886 69.0457c-0.174,-2.8191 -2.2647,-5.663 -6.7771,-6.8445 -5.862,-1.5348 -9.1451,-0.322 -14.0604,1.6543 4.2041,3.8849 6.6051,5.8434 10.9341,7.1701 4.6286,1.4185 8.2513,1.2346 9.9034,-1.9799z"/>
    <path id="nervure_52" fill="#005E31" stroke="black" stroke-width="0.0762" d="M56.511 63.8745c8.0194,0.2339 13.894,0.4034 21.2011,6.0094 0.1397,-0.0945 0.105,-0.1901 0.2586,-0.2801 -7.3824,-6.0595 -14.6713,-5.8302 -21.4597,-5.7293z"/>
   </g>
   <g>
    <path id="limbe_53" fill="#00733B" stroke="black" stroke-width="0.0762" d="M81.6647 116.159c0.1741,-2.8191 2.2647,-5.6631 6.7772,-6.8446 5.862,-1.5347 9.1451,-0.322 14.0603,1.6543 -4.2041,3.8849 -6.605,5.8434 -10.934,7.1701 -4.6287,1.4186 -8.2513,1.2346 -9.9035,-1.9798z"/>
    <path id="nervure_54" fill="#005E31" stroke="black" stroke-width="0.0762" d="M102.442 110.988c-8.0195,0.2338 -13.8941,0.4034 -21.2012,6.0094 -0.1397,-0.0946 -0.105,-0.1901 -0.2586,-0.2801 7.3825,-6.0596 14.6713,-5.8302 21.4598,-5.7293z"/>
   </g>
   <g>
    <path id="limbe_55" fill="#00733B" stroke="black" stroke-width="0.0762" d="M81.6647 96.963c0.1741,-2.8191 2.2647,-5.6631 6.7772,-6.8446 5.862,-1.5347 9.1451,-0.322 14.0603,1.6544 -4.2041,3.8848 -6.605,5.8433 -10.934,7.17 -4.6287,1.4186 -8.2513,1.2346 -9.9035,-1.9798z"/>
    <path id="nervure_56" fill="#005E31" stroke="black" stroke-width="0.0762" d="M102.442 91.7918c-8.0195,0.2338 -13.8941,0.4034 -21.2012,6.0094 -0.1397,-0.0946 -0.105,-0.1901 -0.2586,-0.2801 7.3825,-6.0596 14.6713,-5.8302 21.4598,-5.7293z"/>
   </g>
   <g>
    <path id="limbe_57" fill="#00733B" stroke="black" stroke-width="0.0762" d="M81.6647 80.9666c0.1741,-2.8191 2.2647,-5.6631 6.7772,-6.8446 5.862,-1.5347 9.1451,-0.322 14.0603,1.6543 -4.2041,3.8849 -6.605,5.8434 -10.934,7.1701 -4.6287,1.4186 -8.2513,1.2346 -9.9035,-1.9798z"/>
    <path id="nervure_58" fill="#005E31" stroke="black" stroke-width="0.0762" d="M102.442 75.7954c-8.0195,0.2338 -13.8941,0.4034 -21.2012,6.0094 -0.1397,-0.0946 -0.105,-0.1901 -0.2586,-0.2801 7.3825,-6.0596 14.6713,-5.8302 21.4598,-5.7293z"/>
   </g>
   <g>
    <path id="limbe_59" fill="#00733B" stroke="black" stroke-width="0.0762" d="M81.6647 64.9702c0.1741,-2.8191 2.2647,-5.6631 6.7772,-6.8446 5.862,-1.5347 9.1451,-0.322 14.0603,1.6543 -4.2041,3.8849 -6.605,5.8434 -10.934,7.1701 -4.6287,1.4186 -8.2513,1.2346 -9.9035,-1.9798z"/>
    <path id="nervure_60" fill="#005E31" stroke="black" stroke-width="0.0762" d="M102.442 59.799c-8.0195,0.2338 -13.8941,0.4034 -21.2012,6.0094 -0.1397,-0.0946 -0.105,-0.1901 -0.2586,-0.2801 7.3825,-6.0596 14.6713,-5.8302 21.4598,-5.7293z"/>
   </g>
  </g>
  <g id="Phyllo_Alt" onclick="parent.replacechar('Phyllo_Alt')" onmousemove="parent.showtooltip('Phyllo_Alt', 'Alternate phyllotaxy')" onmouseout="parent.hidetooltip('Phyllo_Alt')" cursor="pointer" >
   <g id="f_x0020_4">
    <path id="limbe_61" fill="#00733B" stroke="black" stroke-width="0.0762" d="M28.3594 85.3173c-2.6904,2.4711 -2.2886,6.402 -0.766,8.6187 3.4852,5.0737 6.0862,5.2248 10.7511,8.0139 0.3488,-6.3147 -0.1838,-10.9598 -2.5048,-14.5407 -1.3736,-2.1194 -4.9783,-3.7174 -7.4803,-2.0919z"/>
    <path id="nervure_62" fill="#005E31" stroke="black" stroke-width="0.0762" d="M38.3479 101.936c-2.2091,-7.3795 -6.0937,-13.2407 -11.1413,-17.535 0.0072,0.157 0.0112,0.3844 0.0244,0.5538 4.3185,3.6375 8.0782,8.4532 11.1169,16.9812z"/>
   </g>
   <g id="f_x0020_1_63">
    <path id="limbe_64" fill="#00733B" stroke="black" stroke-width="0.0762" d="M24.4181 46.6695c-2.3669,-2.2898 -5.4966,-0.3356 -7.021,3.5595 -1.9391,4.9543 -0.797,9.8826 1.691,15.0935 7.601,-3.0786 12.8124,-17.8414 5.33,-18.653z"/>
    <path id="nervure_65" fill="#005E31" stroke="black" stroke-width="0.0762" d="M19.1007 65.3153c1.0873,-6.9493 2.7027,-13.8736 5.4796,-18.6694 -0.1646,-0.0854 -0.3292,-0.171 -0.4937,-0.2565 -2.5297,5.405 -3.9932,11.9363 -4.9859,18.9259z"/>
   </g>
   <path id="axe_66" fill="#D2A01E" stroke="black" stroke-width="0.0762" d="M23.6843 43.9722c0.5498,-3.0553 3.0844,-3.1685 3.5508,0l0 92.5151c-1.1823,0.7496 -2.3691,0.7812 -3.5508,0l0 -92.5151z"/>
   <g>
    <path id="limbe_67" fill="#00733B" stroke="black" stroke-width="0.0762" d="M23.599 117.909c-10.3736,-3.0351 -15.1023,12.4511 -13.3309,17.6959 6.9201,-0.5512 19.5114,-10.9098 13.3309,-17.6959z"/>
    <path id="nervure_68" fill="#005E31" stroke="black" stroke-width="0.0762" d="M10.2778 135.595c3.0848,-7.1539 7.5845,-14.4738 15.7133,-18.7601 -0.0922,-0.1237 -0.8935,0.3478 -0.8577,-0.2319 -9.2328,4.6061 -12.5148,12.8538 -14.8556,18.992z"/>
   </g>
   <g>
    <path id="limbe_69" fill="#00733B" stroke="black" stroke-width="0.0762" d="M22.7255 100.053c-2.1195,-1.8669 -5.6097,-2.3939 -9.6321,-0.0321 -5.2254,3.0682 -6.6842,6.2497 -8.7545,11.1261 5.7194,-0.2349 8.8015,-0.5528 12.7973,-2.6822 4.2723,-2.2767 6.6995,-4.9723 5.5893,-8.4118z"/>
    <path id="nervure_70" fill="#005E31" stroke="black" stroke-width="0.0762" d="M4.3947 111.118c5.827,-5.5146 10.0944,-9.5556 19.2234,-10.7731 0.0317,-0.1657 -0.0605,-0.2086 -0.0158,-0.3809 -9.5034,0.9507 -14.4867,6.2749 -19.2076,11.154z"/>
   </g>
   <g id="f_x0020_6">
    <path id="limbe_71" fill="#00733B" stroke="black" stroke-width="0.0762" d="M28.5232 108.005c-4.4536,8.5596 7.0543,11.468 14.6842,11.8549 -0.276,-2.4615 -1.3978,-15.9694 -14.6842,-11.8549z"/>
    <path id="nervure_72" fill="#005E31" stroke="black" stroke-width="0.0762" d="M43.2073 119.847c-4.1925,-5.7454 -9.6165,-9.8819 -15.9724,-12.4461 -0.0014,0.1332 -0.0056,0.3151 -0.0011,0.4747 5.4283,2.1631 10.6228,5.4324 15.9735,11.9714z"/>
   </g>
   <g>
    <path id="limbe_73" fill="#00733B" stroke="black" stroke-width="0.0762" d="M22.6833 73.2971c-2.6681,-0.9268 -5.9527,0.1241 -8.7833,3.8318 -3.6772,4.8163 -3.8245,8.3132 -3.897,13.6104 5.2059,-2.3803 7.1037,-2.5574 11.3593,-7.6354 3.1093,-3.7103 4.9549,-8.3659 1.321,-9.8068z"/>
    <path id="nervure_74" fill="#005E31" stroke="black" stroke-width="0.0762" d="M10.0437 90.6914c3.347,-7.3928 6.6849,-13.1006 15.8651,-17.8878 -0.0392,-0.1663 -1.0641,0.5089 -1.0271,-0.2233 -9.5646,4.8946 -12.2837,11.7365 -14.838,18.1111z"/>
   </g>
   <g id="f_x0020_2">
    <path id="limbe_75" fill="#00733B" stroke="black" stroke-width="0.0762" d="M27.6276 56.8038c-4.5594,2.6717 -2.1738,9.0499 0.7161,12.5538 2.8899,3.504 4.9636,3.3945 7.4426,5.0469 1.0187,-6.2417 1.8924,-10.4218 -1.8302,-15.7387 -1.9134,-2.733 -4.8263,-3.7127 -6.3285,-1.862z"/>
    <path id="nervure_76" fill="#005E31" stroke="black" stroke-width="0.0762" d="M35.7911 74.3908c-1.9773,-7.518 -5.4706,-13.6771 -8.0561,-17.7108 -0.1804,0.0429 -0.3609,0.0857 -0.5413,0.1285 2.6605,3.5615 5.9278,9.2873 8.5974,17.5823z"/>
   </g>
  </g>
 </g>
<image xlink:href="tick.gif" id="imgtick" x="-100" y="-100" width="15" height="15"/>
<rect id="recttooltip" x="-100" y="-100" width="55" height="6" fill-opacity="0.4" pointer-events="none"/>
<text id="textboxid" x="-100" y="-100" pointer-events="none"> </text>
</a></svg>
