<?xml version="1.0" encoding="UTF-8"?>
<!DOCTYPE svg PUBLIC "-//W3C//DTD SVG 1.1//EN" "http://www.w3.org/Graphics/SVG/1.1/DTD/svg11.dtd">
<!-- Creator: CorelDRAW -->
<svg xmlns="http://www.w3.org/2000/svg" xml:space="preserve" shape-rendering="geometricPrecision" text-rendering="geometricPrecision" image-rendering="optimizeQuality" fill-rule="evenodd" clip-rule="evenodd"
viewBox="0 0 240 180"
 xmlns:xlink="http://www.w3.org/1999/xlink">
<a>
 <g id="Layer_x0020_1">
  <metadata id="CorelCorpID_0Corel-Layer"/>
  <rect fill="none" width="240" height="180"/>
  <g id="Phyllo_Vert" onclick="parent.replacechar('Phyllo_Vert')" onmousemove="parent.showtooltip('Phyllo_Vert', 'Verticilate phyllotaxy')" onmouseout="parent.hidetooltip('Phyllo_Vert')" cursor="pointer" >
   <path id="feuille_4" fill="#00C800" stroke="black" stroke-width="0.0762" stroke-linejoin="bevel" d="M218.132 63.8473c2.7494,4.9483 15.8709,0.6432 17.7579,-5.1555 -7.4413,1.5439 -20.4825,-2.0687 -18.4973,3.4751l-0.0596 0.2091c-0.4279,0.9157 -0.7246,2.1449 -0.7844,3.8094 0.1293,0.0011 0.3544,1.2888 0.6233,2.1524 -0.0007,-1.8968 0.3467,-3.3131 0.9144,-4.3791l0.0457 -0.1114z"/>
   <path id="feuille_4_0" fill="#00C800" stroke="black" stroke-width="0.0762" stroke-linejoin="bevel" d="M211.422 65.1325c-1.7507,5.3833 -15.4538,3.6711 -18.4165,-1.6587 7.5992,0.09 19.707,-5.9536 18.8204,-0.1322l0.0985 0.1938c0.5954,0.8168 1.1221,1.9664 1.4996,3.5886 -0.1267,0.0259 -0.101,1.3328 -0.1996,2.232 -0.3626,-1.8618 -0.9748,-3.1854 -1.7362,-4.123l-0.0662 -0.1005z"/>
   <path id="feuille_4_1" fill="#00C800" stroke="black" stroke-width="0.0762" stroke-linejoin="bevel" d="M218.634 110.849c1.9708,5.3066 15.5918,3.0319 18.3326,-2.4154 -7.589,0.4028 -19.9354,-5.1374 -18.8099,0.6426l-0.0905 0.1977c-0.5612,0.8406 -1.0401,2.011 -1.3505,3.6473 0.1276,0.0206 0.1557,1.3275 0.2912,2.2219 0.2857,-1.8752 0.8429,-3.2228 1.5651,-4.1909l0.062 -0.1032z"/>
   <path id="feuille_4_2" fill="#00C800" stroke="black" stroke-width="0.0762" stroke-linejoin="bevel" d="M211.034 112.897c-1.7507,5.3833 -15.4538,3.6711 -18.4165,-1.6587 7.5992,0.09 19.707,-5.9536 18.8204,-0.1322l0.0985 0.1938c0.5954,0.8168 1.1221,1.9664 1.4996,3.5886 -0.1267,0.0259 -0.101,1.3328 -0.1996,2.232 -0.3626,-1.8618 -0.9748,-3.1854 -1.7362,-4.1229l-0.0662 -0.1006z"/>
   <path id="axe" fill="#D2A01E" stroke="black" stroke-width="0.0762" d="M212.919 41.5116c0.6305,-3.5038 3.5371,-3.6337 4.072,0l0 106.095c-1.3558,0.8597 -2.7168,0.896 -4.072,0l0 -106.095z"/>
   <path id="feuille_5" fill="#00C800" stroke="black" stroke-width="0.0762" stroke-linejoin="bevel" d="M218.796 69.7453c-1.0155,-0.0953 -2.1554,-0.1236 -3.4651,-0.0831 0.5173,-0.2329 1.1355,-0.4057 1.49,-0.6427 0.353,-0.2821 0.3376,-0.7788 0.5634,-1.0842 1.1702,0.1269 2.2062,0.303 3.0889,0.4926l0.074 0.052c8.077,-6.053 10.1493,2.8158 14.4179,8.1359 -4.4749,3.5371 -24.1165,-1.8974 -16.0128,-6.7938l-0.1563 -0.0767z"/>
   <path id="feuille_5_3" fill="#00C800" stroke="black" stroke-width="0.0762" stroke-linejoin="bevel" d="M211.802 70.6932c0.9551,-0.3579 2.0479,-0.6835 3.3225,-0.9872 -0.5601,-0.0894 -1.2021,-0.0943 -1.6062,-0.2303 -0.4145,-0.1799 -0.5297,-0.6634 -0.8275,-0.899 -1.0963,0.4287 -2.05,0.8699 -2.8524,1.2839l-0.0577 0.0695c-9.3798,-3.728 -9.0586,5.374 -11.786,11.6259 5.2446,2.2426 22.7793,-8.1432 13.6765,-10.748l0.1308 -0.1148z"/>
   <path id="feuille_5_4" fill="#00C800" stroke="black" stroke-width="0.0762" stroke-linejoin="bevel" d="M218.408 117.51c-1.0155,-0.0953 -2.1554,-0.1236 -3.4651,-0.0831 0.5172,-0.2329 1.1355,-0.4057 1.49,-0.6427 0.353,-0.2821 0.3376,-0.7788 0.5634,-1.0842 1.1702,0.1269 2.2062,0.303 3.0889,0.4926l0.074 0.052c8.077,-6.053 10.1493,2.8158 14.4179,8.1359 -4.4749,3.5372 -24.1165,-1.8974 -16.0129,-6.7938l-0.1562 -0.0767z"/>
   <path id="feuille_5_5" fill="#00C800" stroke="black" stroke-width="0.0762" stroke-linejoin="bevel" d="M211.449 118.457c0.9551,-0.3579 2.0479,-0.6835 3.3225,-0.9871 -0.5601,-0.0895 -1.2021,-0.0944 -1.6062,-0.2304 -0.4146,-0.1799 -0.5297,-0.6633 -0.8275,-0.899 -1.0963,0.4287 -2.05,0.8699 -2.8524,1.2839l-0.0577 0.0695c-9.3798,-3.728 -9.0586,5.374 -11.786,11.6259 5.2446,2.2427 22.7792,-8.1432 13.6765,-10.748l0.1308 -0.1148z"/>
  </g>
  <g id="Phyllo_Op" onclick="parent.replacechar('Phyllo_Op')" onmousemove="parent.showtooltip('Phyllo_Op', 'Opposite or subopposite phyllotaxy')" onmouseout="parent.hidetooltip('Phyllo_Op')" cursor="pointer" >
   <path id="feuille_5_6" fill="#00C800" stroke="black" stroke-width="0.0762" stroke-linejoin="bevel" d="M157.707 46.6604c-0.8568,0.5533 -1.7699,1.2363 -2.7738,2.0784 0.2623,-0.503 0.6412,-1.0212 0.773,-1.4268 0.1028,-0.44 -0.2166,-0.8207 -0.2281,-1.2003 0.9979,-0.6243 1.9208,-1.1268 2.7316,-1.524l0.0903 -0.0049c1.5436,-4.8591 9.4342,-6.1793 16.0792,-4.6403 -1.3274,5.5474 -19.8395,15.5417 -16.502,6.6814l-0.1702 0.0365z"/>
   <path id="axe_7" fill="#D2A01E" stroke="black" stroke-width="0.0762" d="M151.617 41.5115c0.6305,-3.5038 3.5371,-3.6336 4.072,0l0 106.095c-1.3558,0.8597 -2.7169,0.8959 -4.072,0l0 -106.095z"/>
   <path id="feuille_5_8" fill="#00C800" stroke="black" stroke-width="0.0762" stroke-linejoin="bevel" d="M150.16 49.5765c1.0002,-0.1998 2.1311,-0.3459 3.4379,-0.441 -0.5385,-0.1782 -1.1713,-0.2861 -1.5484,-0.4851 -0.3803,-0.2441 -0.4163,-0.7398 -0.6725,-1.0202 -1.1509,0.2472 -2.163,0.5296 -3.0215,0.8095l-0.0681 0.0593c-8.6598,-5.1852 -9.8037,3.8504 -13.4991,9.5835 4.8167,3.0553 23.7909,-4.3816 15.2243,-8.4136l0.1474 -0.0924z"/>
   <path id="feuille_5_9" fill="#00C800" stroke="black" stroke-width="0.0762" stroke-linejoin="bevel" d="M157.707 85.9001c-0.8569,0.5533 -1.77,1.2363 -2.7738,2.0784 0.2622,-0.503 0.6411,-1.0213 0.773,-1.4268 0.1028,-0.44 -0.2167,-0.8207 -0.2282,-1.2004 0.9979,-0.6243 1.9208,-1.1268 2.7317,-1.5239l0.0902 -0.0049c1.5436,-4.8592 9.4342,-6.1793 16.0792,-4.6403 -1.3274,5.5474 -19.8395,15.5417 -16.502,6.6814l-0.1701 0.0365z"/>
   <path id="feuille_5_10" fill="#00C800" stroke="black" stroke-width="0.0762" stroke-linejoin="bevel" d="M157.281 70.1864c-1.0002,-0.1998 -2.1311,-0.3459 -3.4379,-0.441 0.5385,-0.1782 1.1714,-0.2861 1.5485,-0.4852 0.3802,-0.244 0.4163,-0.7397 0.6724,-1.0201 1.1509,0.2472 2.1631,0.5296 3.0215,0.8095l0.0681 0.0593c8.6598,-5.1852 9.8037,3.8504 13.4991,9.5835 -4.8167,3.0553 -23.7909,-4.3816 -15.2242,-8.4136l-0.1475 -0.0924z"/>
   <path id="feuille_5_11" fill="#00C800" stroke="black" stroke-width="0.0762" stroke-linejoin="bevel" d="M150.16 89.8947c1.0002,-0.1998 2.1311,-0.3459 3.4379,-0.441 -0.5385,-0.1782 -1.1713,-0.2861 -1.5484,-0.4852 -0.3803,-0.2441 -0.4163,-0.7397 -0.6725,-1.0201 -1.1509,0.2472 -2.163,0.5296 -3.0215,0.8095l-0.0681 0.0593c-8.6598,-5.1852 -9.8037,3.8504 -13.4991,9.5835 4.8167,3.0553 23.7909,-4.3816 15.2243,-8.4136l0.1474 -0.0924z"/>
   <path id="feuille_5_12" fill="#00C800" stroke="black" stroke-width="0.0762" stroke-linejoin="bevel" d="M157.836 124.457c-0.8568,0.5533 -1.7699,1.2363 -2.7737,2.0784 0.2622,-0.503 0.6411,-1.0212 0.773,-1.4268 0.1028,-0.44 -0.2167,-0.8207 -0.2282,-1.2003 0.9979,-0.6243 1.9208,-1.1268 2.7316,-1.524l0.0903 -0.0049c1.5436,-4.8591 9.4342,-6.1793 16.0792,-4.6403 -1.3274,5.5474 -19.8395,15.5417 -16.502,6.6814l-0.1702 0.0365z"/>
   <path id="feuille_avant" fill="#00C800" stroke="black" stroke-width="0.0762" stroke-linejoin="bevel" d="M157.386 109.481c-1.0002,-0.1999 -2.1311,-0.3459 -3.4379,-0.4411 0.5386,-0.1782 1.1714,-0.2861 1.5485,-0.4851 0.3802,-0.2441 0.4163,-0.7398 0.6725,-1.0202 1.1508,0.2472 2.163,0.5296 3.0214,0.8095l0.0682 0.0593c8.6597,-5.1852 9.8036,3.8504 13.4991,9.5835 -4.8167,3.0553 -23.7909,-4.3816 -15.2243,-8.4136l-0.1475 -0.0923z"/>
   <path id="feuille_5_13" fill="#00C800" stroke="black" stroke-width="0.0762" stroke-linejoin="bevel" d="M150.075 128.489c1.0002,-0.1999 2.131,-0.3459 3.4379,-0.441 -0.5386,-0.1782 -1.1714,-0.2861 -1.5485,-0.4852 -0.3803,-0.2441 -0.4163,-0.7398 -0.6725,-1.0201 -1.1508,0.2472 -2.163,0.5295 -3.0214,0.8094l-0.0682 0.0594c-8.6598,-5.1852 -9.8037,3.8504 -13.4991,9.5835 4.8167,3.0553 23.7909,-4.3816 15.2243,-8.4136l0.1475 -0.0924z"/>
   <path id="feuille_5_14" fill="#00C800" stroke="black" stroke-width="0.0762" stroke-linejoin="bevel" d="M149.695 68.0728c0.8569,0.5533 1.7699,1.2363 2.7738,2.0784 -0.2623,-0.503 -0.6411,-1.0213 -0.773,-1.4268 -0.1028,-0.44 0.2166,-0.8207 0.2282,-1.2004 -0.9979,-0.6243 -1.9208,-1.1268 -2.7317,-1.5239l-0.0902 -0.0049c-1.5436,-4.8592 -9.4343,-6.1793 -16.0793,-4.6403 1.3275,5.5474 19.8396,15.5417 16.5021,6.6814l0.1701 0.0365z"/>
   <path id="feuille_5_15" fill="#00C800" stroke="black" stroke-width="0.0762" stroke-linejoin="bevel" d="M149.736 107.274c0.8568,0.5533 1.7699,1.2363 2.7738,2.0784 -0.2623,-0.503 -0.6412,-1.0212 -0.773,-1.4267 -0.1028,-0.4401 0.2166,-0.8208 0.2282,-1.2004 -0.998,-0.6243 -1.9208,-1.1268 -2.7317,-1.524l-0.0902 -0.0049c-1.5437,-4.8591 -9.4343,-6.1793 -16.0793,-4.6403 1.3275,5.5474 19.8396,15.5417 16.502,6.6814l0.1702 0.0365z"/>
  </g>
  <g id="Phyllo_Dist" onclick="parent.replacechar('Phyllo_Dist')" onmousemove="parent.showtooltip('Phyllo_Dist', 'Alternate distichous phyllotaxy')" onmouseout="parent.hidetooltip('Phyllo_Dist')" cursor="pointer" >
   <path id="axe_16" fill="#D2A01E" stroke="black" stroke-width="0.0762" d="M84.4825 41.6165c0.6299,-3.5004 3.5336,-3.6301 4.0681,0l0 105.991c-1.3546,0.8588 -2.7143,0.895 -4.0681,0l0 -105.991z"/>
   <path id="feuille_5_17" fill="#00C800" stroke="black" stroke-width="0.0762" stroke-linejoin="bevel" d="M90.4684 61.689c-0.8965,0.3889 -1.8589,0.8778 -2.9241,1.4879 0.2999,-0.385 0.7171,-0.775 0.8795,-1.0903 0.136,-0.3445 -0.1535,-0.6675 -0.1361,-0.9708 1.0426,-0.4369 2.0011,-0.7813 2.8398,-1.0485l0.0904 0.0016c3.3364,-7.6162 9.9975,-2.6502 16.5059,-1.0186 -1.7462,4.3415 -21.0858,9.4801 -17.083,2.62l-0.1724 0.0187z"/>
   <path id="feuille_5_18" fill="#00C800" stroke="black" stroke-width="0.0762" stroke-linejoin="bevel" d="M90.4684 80.0154c-0.8965,0.389 -1.8589,0.8778 -2.9241,1.488 0.2999,-0.385 0.7171,-0.7751 0.8795,-1.0903 0.136,-0.3445 -0.1535,-0.6675 -0.1361,-0.9708 1.0426,-0.437 2.0011,-0.7813 2.8398,-1.0486l0.0904 0.0016c3.3364,-7.6162 9.9975,-2.6501 16.5059,-1.0185 -1.7462,4.3415 -21.0858,9.48 -17.083,2.6199l-0.1724 0.0187z"/>
   <path id="feuille_5_19" fill="#00C800" stroke="black" stroke-width="0.0762" stroke-linejoin="bevel" d="M90.4684 98.3419c-0.8965,0.3889 -1.8589,0.8778 -2.9241,1.4879 0.2999,-0.385 0.7171,-0.775 0.8795,-1.0903 0.136,-0.3445 -0.1535,-0.6675 -0.1361,-0.9708 1.0426,-0.4369 2.0011,-0.7813 2.8398,-1.0485l0.0904 0.0016c3.3364,-7.6162 9.9975,-2.6502 16.5059,-1.0186 -1.7462,4.3415 -21.0858,9.4801 -17.083,2.62l-0.1724 0.0187z"/>
   <path id="feuille_5_20" fill="#00C800" stroke="black" stroke-width="0.0762" stroke-linejoin="bevel" d="M90.4684 120.334c-0.8965,0.389 -1.8589,0.8778 -2.9241,1.488 0.2999,-0.385 0.7171,-0.7751 0.8795,-1.0903 0.136,-0.3446 -0.1535,-0.6675 -0.1361,-0.9709 1.0426,-0.4369 2.0011,-0.7812 2.8398,-1.0485l0.0904 0.0016c3.3364,-7.6162 9.9975,-2.6501 16.5059,-1.0185 -1.7462,4.3414 -21.0858,9.48 -17.083,2.6199l-0.1724 0.0187z"/>
   <path id="feuille_5_21" fill="#00C800" stroke="black" stroke-width="0.0762" stroke-linejoin="bevel" d="M82.3359 66.2663c0.8965,0.3889 1.8589,0.8778 2.9241,1.4879 -0.2999,-0.385 -0.7171,-0.775 -0.8795,-1.0903 -0.136,-0.3445 0.1535,-0.6675 0.1361,-0.9708 -1.0426,-0.4369 -2.0011,-0.7813 -2.8399,-1.0485l-0.0903 0.0016c-3.3365,-7.6162 -9.9975,-2.6502 -16.506,-1.0186 1.7462,4.3415 21.0859,9.4801 17.083,2.62l0.1725 0.0187z"/>
   <path id="feuille_5_22" fill="#00C800" stroke="black" stroke-width="0.0762" stroke-linejoin="bevel" d="M82.3184 86.9697c0.8965,0.3889 1.859,0.8778 2.9241,1.4879 -0.2998,-0.385 -0.7171,-0.775 -0.8795,-1.0903 -0.136,-0.3445 0.1535,-0.6675 0.1361,-0.9708 -1.0426,-0.4369 -2.0011,-0.7813 -2.8398,-1.0485l-0.0904 0.0016c-3.3364,-7.6162 -9.9975,-2.6502 -16.5059,-1.0186 1.7462,4.3415 21.0858,9.4801 17.083,2.62l0.1724 0.0187z"/>
   <path id="feuille_5_23" fill="#00C800" stroke="black" stroke-width="0.0762" stroke-linejoin="bevel" d="M82.2655 107.11c0.8965,0.389 1.8589,0.8778 2.924,1.488 -0.2998,-0.385 -0.7171,-0.7751 -0.8794,-1.0903 -0.136,-0.3446 0.1535,-0.6675 0.136,-0.9709 -1.0425,-0.4369 -2.001,-0.7812 -2.8398,-1.0485l-0.0903 0.0016c-3.3365,-7.6162 -9.9975,-2.6501 -16.506,-1.0185 1.7462,4.3414 21.0858,9.48 17.083,2.6199l0.1725 0.0187z"/>
   <path id="feuille_5_24" fill="#00C800" stroke="black" stroke-width="0.0762" stroke-linejoin="bevel" d="M82.4679 127.223c0.8965,0.3889 1.859,0.8778 2.9241,1.4879 -0.2998,-0.385 -0.7171,-0.775 -0.8795,-1.0903 -0.136,-0.3445 0.1535,-0.6675 0.1361,-0.9708 -1.0426,-0.4369 -2.0011,-0.7813 -2.8398,-1.0485l-0.0904 0.0016c-3.3364,-7.6162 -9.9975,-2.6502 -16.5059,-1.0186 1.7462,4.3415 21.0858,9.4801 17.083,2.62l0.1724 0.0187z"/>
  </g>
  <g id="Phyllo_Alt" onclick="parent.replacechar('Phyllo_Alt')" onmousemove="parent.showtooltip('Phyllo_Alt', 'Alternate phyllotaxy')" onmouseout="parent.hidetooltip('Phyllo_Alt')" cursor="pointer" >
   <path id="feuille_5_25" fill="#00C800" stroke="black" stroke-width="0.0762" stroke-linejoin="bevel" d="M25.7277 46.3643c0.7565,-0.6842 1.6527,-1.3892 2.7261,-2.1406 -0.5537,0.123 -1.1525,0.3547 -1.5783,0.377 -0.4516,-0.0147 -0.7366,-0.4219 -1.1003,-0.5314 -0.8615,0.8021 -1.5859,1.5633 -2.1796,2.2435l-0.0281 0.0859c-10.0935,-0.0145 -6.4451,8.3306 -6.6803,15.1474 5.7019,0.1551 18.1837,-15.9549 8.7612,-15.0269l0.0793 -0.1549z"/>
   <path id="axe_26" fill="#D2A01E" stroke="black" stroke-width="0.0762" d="M24.5958 41.6165c0.6299,-3.5004 3.5336,-3.6301 4.068,0l0 105.991c-1.3545,0.8588 -2.7142,0.895 -4.068,0l0 -105.991z"/>
   <path id="feuille_5_27" fill="#00C800" stroke="black" stroke-width="0.0762" stroke-linejoin="bevel" d="M23.6106 76.566c0.8859,-0.5057 1.9126,-1.0015 3.1225,-1.5047 -0.5673,0.0011 -1.2018,0.0987 -1.6225,0.029 -0.4379,-0.1115 -0.6287,-0.5704 -0.9603,-0.7555 -1.0138,0.5982 -1.8849,1.1859 -2.6109,1.7227l-0.046 0.0779c-9.8544,-2.1834 -8.0847,6.7508 -9.7794,13.3578 5.5353,1.3769 21.1877,-11.6743 11.7859,-12.793l0.1107 -0.1342z"/>
   <path id="feuille_5_28" fill="#00C800" stroke="black" stroke-width="0.0762" stroke-linejoin="bevel" d="M22.6743 106.141c1.0176,0.0699 2.1471,0.2261 3.4331,0.4776 -0.4729,-0.3134 -1.0551,-0.5838 -1.3667,-0.8749 -0.3028,-0.3354 -0.2073,-0.8232 -0.3809,-1.161 -1.1753,-0.0638 -2.2261,-0.0572 -3.1279,-0.0127l-0.0814 0.0394c-6.9935,-7.278 -10.4708,1.1397 -15.5426,5.7006 3.8449,4.2134 24.1064,2.0222 16.8999,-4.1186l0.1665 -0.0504z"/>
   <path id="feuille_5_29" fill="#00C800" stroke="black" stroke-width="0.0762" stroke-linejoin="bevel" d="M29.3377 58.2179c-0.7113,-0.731 -1.5609,-1.4916 -2.5843,-2.3098 0.5448,0.158 1.1276,0.4273 1.5511,0.4767 0.4517,0.014 0.762,-0.3742 1.1319,-0.4603 0.8087,0.8553 1.4832,1.661 2.0324,2.3777l0.0226 0.0875c10.0739,0.628 5.9018,8.7239 5.7025,15.5419 -5.7002,-0.2081 -17.1312,-17.08 -7.7869,-15.5541l-0.0693 -0.1596z"/>
   <path id="feuille_5_30" fill="#00C800" stroke="black" stroke-width="0.0762" stroke-linejoin="bevel" d="M29.6245 89.9456c-0.8858,-0.5057 -1.9126,-1.0015 -3.1224,-1.5047 0.5672,0.0011 1.2017,0.0987 1.6224,0.029 0.4379,-0.1115 0.6287,-0.5704 0.9604,-0.7555 1.0138,0.5982 1.8849,1.1859 2.6109,1.7227l0.0459 0.0779c9.8545,-2.1834 8.0848,6.7508 9.7795,13.3578 -5.5354,1.3769 -21.1877,-11.6743 -11.786,-12.793l-0.1107 -0.1342z"/>
   <path id="feuille_5_31" fill="#00C800" stroke="black" stroke-width="0.0762" stroke-linejoin="bevel" d="M23.8219 128.324c0.8858,-0.5057 1.9126,-1.0016 3.1224,-1.5048 -0.5672,0.0012 -1.2017,0.0987 -1.6224,0.029 -0.4379,-0.1114 -0.6287,-0.5703 -0.9604,-0.7554 -1.0138,0.5982 -1.8849,1.1859 -2.6109,1.7227l-0.0459 0.0778c-9.8545,-2.1833 -8.0848,6.7508 -9.7795,13.3578 5.5354,1.3769 21.1877,-11.6742 11.786,-12.7929l0.1107 -0.1342z"/>
   <path id="feuille_5_32" fill="#00C800" stroke="black" stroke-width="0.0762" stroke-linejoin="bevel" d="M29.6245 115.578c-0.8858,-0.5057 -1.9126,-1.0015 -3.1224,-1.5047 0.5672,0.0011 1.2017,0.0987 1.6224,0.0289 0.4379,-0.1114 0.6287,-0.5703 0.9604,-0.7554 1.0138,0.5982 1.8849,1.1859 2.6109,1.7227l0.0459 0.0779c9.8545,-2.1834 8.0848,6.7507 9.7795,13.3578 -5.5354,1.3769 -21.1877,-11.6743 -11.786,-12.793l-0.1107 -0.1342z"/>
  </g>
 </g>
<image xlink:href="tick.gif" id="imgtick" x="-100" y="-100" width="15" height="15"/>
<rect id="recttooltip" x="-100" y="-100" width="55" height="6" fill-opacity="0.4" pointer-events="none"/>
<text id="textboxid" x="-100" y="-100" pointer-events="none"> </text>
</a></svg>
