<?xml version="1.0" encoding="UTF-8"?>
<!DOCTYPE svg PUBLIC "-//W3C//DTD SVG 1.1//EN" "http://www.w3.org/Graphics/SVG/1.1/DTD/svg11.dtd">
<!-- Creator: CorelDRAW -->
<svg xmlns="http://www.w3.org/2000/svg" xml:space="preserve" shape-rendering="geometricPrecision" text-rendering="geometricPrecision" image-rendering="optimizeQuality" fill-rule="evenodd" clip-rule="evenodd"
viewBox="0 0 240 180"
 xmlns:xlink="http://www.w3.org/1999/xlink">
<a>
 <g id="Layer_x0020_1">
  <metadata id="CorelCorpID_0Corel-Layer"/>
  <rect fill="none" transform="matrix(3.24291E-013 -17.1512 10.3131 3.82591E-013 -1.55692E-005 180)" width="10.4949" height="23.2713"/>
  <g id="Pheno_Ddus" onclick="parent.replacechar('Pheno_Ddus')" onmousemove="parent.showtooltip('Pheno_Ddus', 'Deciduous plant')" onmouseout="parent.hidetooltip('Pheno_Ddus')" cursor="pointer" >
   <polygon id="sol" fill="none" stroke="black" stroke-width="0.0762" stroke-linejoin="bevel" points="142.797,169.553 218.106,169.553 ">
    <metadata id="CorelCorpID_1">
     <odm name="Nom" value="sol" type="0"/>
    </metadata>
   </polygon>
   <path id="_66914528" fill="#CC6633" stroke="#1F1A17" stroke-width="0.0762" stroke-linejoin="round" d="M174.12 169.484c2.3655,-2.8537 1.6093,-4.3501 1.8304,-6.4067 0,-25.9512 0.1596,-52.9397 0.1596,-78.891 -5.6682,-6.0601 -9.4883,-15.009 -11.4194,-17.6218 -11.147,-2.3597 -19.3344,-9.2692 -21.2328,-17.3723 2.2735,5.3705 6.5449,12.9726 21.2277,15.6687 -1.4897,-5.5996 -3.6972,-11.3673 -6.0604,-16.0143 -4.254,-4.1672 -7.8325,-9.8201 -8.1764,-14.2539 0.8694,4.0886 3.9629,8.1684 7.6051,12.229 0.0414,-4.9662 0.1186,-11.1659 -1.2799,-16.7124 1.755,5.3889 1.7733,10.8472 2.5659,16.7222 4.453,10.3038 7.5486,23.4033 16.4719,33.3479 0.7157,-7.1996 0.7963,-15.3519 0.3212,-22.5515 -4.7044,-5.2296 -8.1418,-11.8054 -9.5995,-17.6686 -4.4314,-3.202 -6.7244,-6.7229 -6.7213,-10.7178 -0.0749,3.8731 3.5452,7.5603 7.0002,10.0031 -0.1916,-4.6911 -0.7588,-10.2551 -1.8789,-14.255 0.7467,2.6665 1.4934,6.5178 2.2399,9.1843 2.6679,-2.7774 3.2132,-6.752 4.1497,-9.8263 -0.6166,3.7257 -0.8231,5.7579 -3.7556,11.4913 0.0292,1.1129 0.2482,2.7082 0.5659,3.7099 0.0288,3.5693 4.0498,10.899 8.7995,15.5192 0.4462,-6.1863 0.4975,-16.0847 -0.32,-18.559l0 0c-0.9795,-6.0028 -1.7572,-12.3809 -0.6103,-18.6206 -0.5697,6.3429 0.6015,13.058 2.2951,19.2443 3.9783,-6.2742 5.7126,-12.5548 5.9948,-17.5829 0.5411,6.1864 -1.8174,10.8054 -4.9597,18.5591 -1.4956,2.8753 -0.2481,11.9419 -0.8032,17.1682 4.1493,-6.0184 12.4295,-16.6275 11.0427,-17.8082 -1.6023,-4.6114 -0.8534,-9.0661 -1.28,-13.5993 0.7466,3.7865 0.3396,9.124 2.2399,12.7701 3.455,-2.3377 7.7148,-11.6524 7.0267,-15.0492 0.6805,4.9694 -3.6549,14.2373 -6.1875,15.5625 -2.2246,5.2168 -11.2928,17.5531 -12.3586,19.5149 -1.7709,1.2318 -0.6532,19.7165 -0.16,18.294 7.2754,-6.8642 17.4638,-16.0558 18.8598,-19.2655 -2.6919,-5.0453 -4.9915,-9.7544 -4.1405,-17.5875 -0.088,5.374 0.5393,11.7652 4.7997,15.656 4.6429,-7.0589 7.389,-17.2911 8.6984,-24.8459 -0.5867,4.9065 -1.6418,11.5304 -3.0871,16.4367 4.2048,-2.025 6.3964,-6.2773 7.3481,-9.8067 -0.4347,5.2901 -4.5309,9.092 -7.9023,11.051 -1.3317,4.1065 -4.2247,9.8524 -7.3519,13.8027 2.5071,-1.0056 13.448,-1.6321 16.8541,-11.8943 -1.5233,10.0759 -12.951,12.2381 -18.1434,13.4143 -4.804,4.4291 -10.9573,10.5201 -15.6149,16.5041 0.6401,28.0052 1.2801,56.0102 1.9202,84.0153 0.0355,2.7365 0.1946,5.3628 1.837,7.0419 -2.9367,0 -5.8733,0 -8.8099,0z"/>
   <g id="deciduous_5">
    <g id="feuille_x0020_tombant_1">
      <metadata id="CorelCorpID_2">
       <odm name="Nom" value="feuille7" type="0"/>
      </metadata>
     <path id="limbe" fill="#B1CF1B" stroke="#7F7F7F" stroke-width="0.0762" d="M192.109 52.4443c2.6771,-1.3919 3.9381,3.0443 3.533,4.0191 -1.4954,0.4961 -5.7177,-2.8831 -3.533,-4.0191z">
      <metadata id="CorelCorpID_3">
       <odm name="Nom" value="feuille7" type="0"/>
      </metadata>
     </path>
     <path id="_77031600" fill="#33CC33" stroke="#7F7F7F" stroke-width="0.0762" d="M191.757 51.7676c0.5041,0.3974 2.891,2.7521 3.3111,4.0823 -0.4435,-0.6888 -1.2732,-1.8418 -1.7335,-2.2726 -0.3145,-0.2945 -1.5416,-1.3093 -1.9614,-1.6315 -0.0497,-0.0382 0.2071,-0.2079 0.3838,-0.1782z"/>
    </g>
    <g id="feuille_x0020_tombant_2">
      <metadata id="CorelCorpID_4">
       <odm name="Nom" value="feuille7" type="0"/>
      </metadata>
     <path id="limbe_0" fill="#E3DC1E" stroke="#7F7F7F" stroke-width="0.0762" d="M191.022 61.7467c3.759,0.2175 2.2777,5.7787 1.2209,6.5651 -1.92,-0.4232 -4.2886,-6.7426 -1.2209,-6.5651z">
      <metadata id="CorelCorpID_5">
       <odm name="Nom" value="feuille7" type="0"/>
      </metadata>
     </path>
     <path id="_77004368" fill="#33CC33" stroke="#7F7F7F" stroke-width="0.0762" d="M191.078 60.7967c0.2866,0.748 1.3417,4.7968 0.9426,6.4912 -0.0356,-1.0216 -0.1886,-2.7877 -0.407,-3.5435 -0.1492,-0.5166 -0.8165,-2.3882 -1.0608,-3.0018 -0.029,-0.0726 0.3548,-0.0906 0.5252,0.0541z"/>
    </g>
    <g id="feuille_x0020_tombant_3">
      <metadata id="CorelCorpID_6">
       <odm name="Nom" value="feuille7" type="0"/>
      </metadata>
     <path id="limbe_1" fill="#B1CF1B" stroke="#7F7F7F" stroke-width="0.0762" d="M198.06 70.7176c3.2716,1.6653 -0.2275,6.0518 -1.479,6.3405 -1.549,-1.1294 -1.191,-7.6995 1.479,-6.3405z">
      <metadata id="CorelCorpID_7">
       <odm name="Nom" value="feuille7" type="0"/>
      </metadata>
     </path>
     <path id="_76455160" fill="#33CC33" stroke="#7F7F7F" stroke-width="0.0762" d="M198.482 69.891c-0.0367,0.7801 -0.679,4.8086 -1.6985,6.1655 0.3681,-0.9263 0.9225,-2.5632 1.0233,-3.3236 0.0689,-0.5197 0.2054,-2.4523 0.2274,-3.0958 0.0026,-0.0761 0.3523,0.058 0.4478,0.2539z"/>
    </g>
   </g>
   <g id="deciduous_4">
    <g id="feuille_x0020_tombant_1_2">
      <metadata id="CorelCorpID_8">
       <odm name="Nom" value="feuille7" type="0"/>
      </metadata>
     <path id="limbe_3" fill="#B1CF1B" stroke="#7F7F7F" stroke-width="0.0762" d="M211.604 36.4547c2.6771,-1.3919 3.9381,3.0443 3.533,4.0191 -1.4954,0.4961 -5.7177,-2.8831 -3.533,-4.0191z">
      <metadata id="CorelCorpID_9">
       <odm name="Nom" value="feuille7" type="0"/>
      </metadata>
     </path>
     <path id="_76644872" fill="#33CC33" stroke="#7F7F7F" stroke-width="0.0762" d="M211.253 35.778c0.5041,0.3974 2.891,2.7521 3.3111,4.0823 -0.4435,-0.6888 -1.2732,-1.8418 -1.7335,-2.2726 -0.3145,-0.2945 -1.5416,-1.3093 -1.9614,-1.6315 -0.0497,-0.0382 0.2071,-0.2079 0.3838,-0.1782z"/>
    </g>
    <g id="feuille_x0020_tombant_2_4">
      <metadata id="CorelCorpID_10">
       <odm name="Nom" value="feuille7" type="0"/>
      </metadata>
     <path id="limbe_5" fill="#E3DC1E" stroke="#7F7F7F" stroke-width="0.0762" d="M210.517 45.7571c3.759,0.2175 2.2777,5.7787 1.2209,6.5651 -1.92,-0.4232 -4.2886,-6.7426 -1.2209,-6.5651z">
      <metadata id="CorelCorpID_11">
       <odm name="Nom" value="feuille7" type="0"/>
      </metadata>
     </path>
     <path id="_66896624" fill="#33CC33" stroke="#7F7F7F" stroke-width="0.0762" d="M210.573 44.8071c0.2866,0.748 1.3417,4.7968 0.9426,6.4912 -0.0356,-1.0216 -0.1886,-2.7877 -0.407,-3.5435 -0.1492,-0.5166 -0.8165,-2.3882 -1.0608,-3.0018 -0.029,-0.0726 0.3548,-0.0906 0.5252,0.0541z"/>
    </g>
    <g id="feuille_x0020_tombant_3_6">
      <metadata id="CorelCorpID_12">
       <odm name="Nom" value="feuille7" type="0"/>
      </metadata>
     <path id="limbe_7" fill="#B1CF1B" stroke="#7F7F7F" stroke-width="0.0762" d="M217.556 54.728c3.2716,1.6653 -0.2275,6.0518 -1.479,6.3405 -1.549,-1.1294 -1.191,-7.6995 1.479,-6.3405z">
      <metadata id="CorelCorpID_13">
       <odm name="Nom" value="feuille7" type="0"/>
      </metadata>
     </path>
     <path id="_66878304" fill="#33CC33" stroke="#7F7F7F" stroke-width="0.0762" d="M217.977 53.9014c-0.0367,0.7801 -0.679,4.8086 -1.6985,6.1655 0.3681,-0.9263 0.9225,-2.5632 1.0233,-3.3236 0.0689,-0.5197 0.2054,-2.4523 0.2274,-3.0958 0.0026,-0.0761 0.3523,0.058 0.4478,0.2539z"/>
    </g>
   </g>
   <g id="deciduous_3">
    <g id="feuille_x0020_tombant_1_8">
      <metadata id="CorelCorpID_14">
       <odm name="Nom" value="feuille7" type="0"/>
      </metadata>
     <path id="limbe_9" fill="#B1CF1B" stroke="#7F7F7F" stroke-width="0.0762" d="M167.979 44.3687c2.6771,-1.3919 3.9381,3.0443 3.533,4.0191 -1.4954,0.4961 -5.7177,-2.8831 -3.533,-4.0191z">
      <metadata id="CorelCorpID_15">
       <odm name="Nom" value="feuille7" type="0"/>
      </metadata>
     </path>
     <path id="_77860048" fill="#33CC33" stroke="#7F7F7F" stroke-width="0.0762" d="M167.628 43.692c0.5041,0.3974 2.891,2.7521 3.3111,4.0823 -0.4435,-0.6888 -1.2732,-1.8418 -1.7335,-2.2726 -0.3145,-0.2945 -1.5416,-1.3093 -1.9614,-1.6315 -0.0497,-0.0382 0.2071,-0.2079 0.3838,-0.1782z"/>
    </g>
    <g id="feuille_x0020_tombant_2_10">
      <metadata id="CorelCorpID_16">
       <odm name="Nom" value="feuille7" type="0"/>
      </metadata>
     <path id="limbe_11" fill="#E3DC1E" stroke="#7F7F7F" stroke-width="0.0762" d="M166.893 53.6711c3.759,0.2175 2.2777,5.7787 1.2209,6.5651 -1.92,-0.4232 -4.2886,-6.7426 -1.2209,-6.5651z">
      <metadata id="CorelCorpID_17">
       <odm name="Nom" value="feuille7" type="0"/>
      </metadata>
     </path>
     <path id="_77647160" fill="#33CC33" stroke="#7F7F7F" stroke-width="0.0762" d="M166.948 52.7211c0.2866,0.748 1.3417,4.7968 0.9426,6.4912 -0.0356,-1.0216 -0.1886,-2.7877 -0.407,-3.5435 -0.1492,-0.5166 -0.8165,-2.3882 -1.0608,-3.0018 -0.029,-0.0726 0.3548,-0.0906 0.5252,0.0541z"/>
    </g>
    <g id="feuille_x0020_tombant_3_12">
      <metadata id="CorelCorpID_18">
       <odm name="Nom" value="feuille7" type="0"/>
      </metadata>
     <path id="limbe_13" fill="#B1CF1B" stroke="#7F7F7F" stroke-width="0.0762" d="M173.931 62.642c3.2716,1.6653 -0.2275,6.0518 -1.479,6.3405 -1.549,-1.1294 -1.191,-7.6995 1.479,-6.3405z">
      <metadata id="CorelCorpID_19">
       <odm name="Nom" value="feuille7" type="0"/>
      </metadata>
     </path>
     <path id="_77298760" fill="#33CC33" stroke="#7F7F7F" stroke-width="0.0762" d="M174.352 61.8154c-0.0367,0.7801 -0.679,4.8086 -1.6985,6.1655 0.3681,-0.9263 0.9225,-2.5632 1.0233,-3.3236 0.0689,-0.5197 0.2054,-2.4523 0.2274,-3.0958 0.0026,-0.0761 0.3523,0.058 0.4478,0.2539z"/>
    </g>
   </g>
   <g id="deciduous_2">
    <g id="feuille_x0020_tombant_1_14">
      <metadata id="CorelCorpID_20">
       <odm name="Nom" value="feuille7" type="0"/>
      </metadata>
     <path id="limbe_15" fill="#B1CF1B" stroke="#7F7F7F" stroke-width="0.0762" d="M191.976 96.9176c2.6771,-1.3919 3.9381,3.0443 3.533,4.0191 -1.4954,0.4961 -5.7177,-2.8831 -3.533,-4.0191z">
      <metadata id="CorelCorpID_21">
       <odm name="Nom" value="feuille7" type="0"/>
      </metadata>
     </path>
     <path id="_76480232" fill="#33CC33" stroke="#7F7F7F" stroke-width="0.0762" d="M191.624 96.2409c0.5041,0.3974 2.891,2.7521 3.3111,4.0823 -0.4435,-0.6888 -1.2732,-1.8418 -1.7335,-2.2726 -0.3145,-0.2945 -1.5416,-1.3093 -1.9614,-1.6315 -0.0497,-0.0382 0.2071,-0.2079 0.3838,-0.1782z"/>
    </g>
    <g id="feuille_x0020_tombant_2_16">
      <metadata id="CorelCorpID_22">
       <odm name="Nom" value="feuille7" type="0"/>
      </metadata>
     <path id="limbe_17" fill="#E3DC1E" stroke="#7F7F7F" stroke-width="0.0762" d="M190.889 106.22c3.759,0.2175 2.2777,5.7787 1.2209,6.5651 -1.92,-0.4232 -4.2886,-6.7426 -1.2209,-6.5651z">
      <metadata id="CorelCorpID_23">
       <odm name="Nom" value="feuille7" type="0"/>
      </metadata>
     </path>
     <path id="_77874832" fill="#33CC33" stroke="#7F7F7F" stroke-width="0.0762" d="M190.945 105.27c0.2866,0.748 1.3417,4.7968 0.9426,6.4912 -0.0356,-1.0216 -0.1886,-2.7877 -0.407,-3.5435 -0.1492,-0.5166 -0.8165,-2.3882 -1.0608,-3.0018 -0.029,-0.0726 0.3548,-0.0906 0.5252,0.0541z"/>
    </g>
    <g id="feuille_x0020_tombant_3_18">
      <metadata id="CorelCorpID_24">
       <odm name="Nom" value="feuille7" type="0"/>
      </metadata>
     <path id="limbe_19" fill="#B1CF1B" stroke="#7F7F7F" stroke-width="0.0762" d="M197.927 115.191c3.2716,1.6653 -0.2275,6.0518 -1.479,6.3405 -1.549,-1.1294 -1.191,-7.6995 1.479,-6.3405z">
      <metadata id="CorelCorpID_25">
       <odm name="Nom" value="feuille7" type="0"/>
      </metadata>
     </path>
     <path id="_77181832" fill="#33CC33" stroke="#7F7F7F" stroke-width="0.0762" d="M198.349 114.364c-0.0367,0.7801 -0.679,4.8086 -1.6985,6.1655 0.3681,-0.9263 0.9225,-2.5632 1.0233,-3.3236 0.0689,-0.5197 0.2054,-2.4523 0.2274,-3.0958 0.0026,-0.0761 0.3523,0.058 0.4478,0.2539z"/>
    </g>
   </g>
   <g id="feuille_x0020_tombant_1_20">
     <metadata id="CorelCorpID_26">
      <odm name="Nom" value="feuille7" type="0"/>
     </metadata>
    <path id="limbe_21" fill="#B1CF1B" stroke="#7F7F7F" stroke-width="0.0762" d="M146.166 50.6951c2.6771,-1.3919 3.9381,3.0443 3.533,4.0191 -1.4954,0.4961 -5.7177,-2.8831 -3.533,-4.0191z">
     <metadata id="CorelCorpID_27">
      <odm name="Nom" value="feuille7" type="0"/>
     </metadata>
    </path>
    <path id="_66419432" fill="#33CC33" stroke="#7F7F7F" stroke-width="0.0762" d="M145.815 50.0184c0.5041,0.3974 2.891,2.7521 3.3111,4.0823 -0.4435,-0.6888 -1.2732,-1.8418 -1.7335,-2.2726 -0.3145,-0.2945 -1.5416,-1.3093 -1.9614,-1.6315 -0.0497,-0.0382 0.2071,-0.2079 0.3838,-0.1782z"/>
   </g>
   <g id="feuille_x0020_tombant_2_22">
     <metadata id="CorelCorpID_28">
      <odm name="Nom" value="feuille7" type="0"/>
     </metadata>
    <path id="limbe_23" fill="#E3DC1E" stroke="#7F7F7F" stroke-width="0.0762" d="M145.079 59.9975c3.759,0.2175 2.2777,5.7787 1.2209,6.5651 -1.92,-0.4232 -4.2886,-6.7426 -1.2209,-6.5651z">
     <metadata id="CorelCorpID_29">
      <odm name="Nom" value="feuille7" type="0"/>
     </metadata>
    </path>
    <path id="_76822184" fill="#33CC33" stroke="#7F7F7F" stroke-width="0.0762" d="M145.135 59.0475c0.2866,0.748 1.3417,4.7968 0.9426,6.4912 -0.0356,-1.0216 -0.1886,-2.7877 -0.407,-3.5435 -0.1492,-0.5166 -0.8165,-2.3882 -1.0608,-3.0018 -0.029,-0.0726 0.3548,-0.0906 0.5252,0.0541z"/>
   </g>
   <g id="feuille_x0020_tombant_3_24">
     <metadata id="CorelCorpID_30">
      <odm name="Nom" value="feuille7" type="0"/>
     </metadata>
    <path id="limbe_25" fill="#B1CF1B" stroke="#7F7F7F" stroke-width="0.0762" d="M152.118 68.9684c3.2716,1.6653 -0.2275,6.0518 -1.479,6.3405 -1.549,-1.1294 -1.191,-7.6995 1.479,-6.3405z">
     <metadata id="CorelCorpID_31">
      <odm name="Nom" value="feuille7" type="0"/>
     </metadata>
    </path>
    <path id="_76436400" fill="#33CC33" stroke="#7F7F7F" stroke-width="0.0762" d="M152.539 68.1418c-0.0367,0.7801 -0.679,4.8086 -1.6985,6.1655 0.3681,-0.9263 0.9225,-2.5632 1.0233,-3.3236 0.0689,-0.5197 0.2054,-2.4523 0.2274,-3.0958 0.0026,-0.0761 0.3523,0.058 0.4478,0.2539z"/>
   </g>
   <g id="feuilles_x0020_mortes">
    <g id="feuille7">
      <metadata id="CorelCorpID_32">
       <odm name="Nom" value="feuille7" type="0"/>
      </metadata>
     <path id="_65746088" fill="#B1CF1B" stroke="#7F7F7F" stroke-width="0.0762" d="M179.658 161.744c3.9352,-1.0499 4.2972,5.1648 3.478,6.3307 -2.1158,0.2155 -6.6895,-5.4739 -3.478,-6.3307z"/>
     <path id="_67232680" fill="#B1CF1B" stroke="#7F7F7F" stroke-width="0.0762" d="M179.393 160.749c0.5478,0.6713 3.0031,4.4732 3.167,6.3489 -0.3826,-1.0374 -1.138,-2.7998 -1.6184,-3.5022 -0.3282,-0.4802 -1.6477,-2.1768 -2.1065,-2.7243 -0.0543,-0.0649 0.3338,-0.2133 0.5579,-0.1224z"/>
    </g>
    <g id="feuille7_26">
      <metadata id="CorelCorpID_33">
       <odm name="Nom" value="feuille7" type="0"/>
      </metadata>
     <path id="_77173984" fill="#C81E28" stroke="#7F7F7F" stroke-width="0.0762" d="M198.137 162.15c4.1725,-2.1695 6.1379,4.7447 5.5066,6.2641 -2.3307,0.7732 -8.9117,-4.4936 -5.5066,-6.2641z"/>
     <path id="_66832136" fill="#C81E28" stroke="#7F7F7F" stroke-width="0.0762" d="M197.589 161.095c0.7858,0.6194 4.506,4.2894 5.1608,6.3626 -0.6912,-1.0735 -1.9844,-2.8706 -2.7018,-3.5421 -0.4903,-0.4589 -2.4028,-2.0406 -3.0571,-2.5428 -0.0775,-0.0595 0.3228,-0.324 0.5981,-0.2777z"/>
    </g>
    <g id="feuille7_27">
      <metadata id="CorelCorpID_34">
       <odm name="Nom" value="feuille7" type="0"/>
      </metadata>
     <path id="_76825160" fill="#B1CF1B" stroke="#7F7F7F" stroke-width="0.0762" d="M190.593 166.853c1.6225,-4.3633 7.6565,-0.5926 8.202,0.942 -1.1976,2.1152 -9.526,2.6188 -8.202,-0.942z"/>
     <path id="_65830200" fill="#B1CF1B" stroke="#7F7F7F" stroke-width="0.0762" d="M189.491 166.443c0.9881,-0.0671 6.1561,0.1568 8.0135,1.2439 -1.2203,-0.329 -3.3629,-0.7897 -4.3354,-0.8062 -0.6647,-0.0113 -3.119,0.0975 -3.9328,0.1633 -0.0963,0.0078 0.0219,-0.4522 0.2547,-0.601z"/>
    </g>
    <g id="feuille7_28">
      <metadata id="CorelCorpID_35">
       <odm name="Nom" value="feuille7" type="0"/>
      </metadata>
     <path id="_77228000" fill="#B1CF1B" stroke="#7F7F7F" stroke-width="0.0762" d="M157.076 160.749c4.1165,-2.1403 6.0555,4.6812 5.4327,6.1802 -2.2995,0.7627 -8.7922,-4.4334 -5.4327,-6.1802z"/>
     <path id="_77811616" fill="#B1CF1B" stroke="#7F7F7F" stroke-width="0.0762" d="M156.536 159.708c0.7752,0.6111 4.4455,4.2319 5.0915,6.2773 -0.6819,-1.0591 -1.9577,-2.8322 -2.6656,-3.4946 -0.4836,-0.4528 -2.3705,-2.0133 -3.016,-2.5087 -0.0765,-0.0587 0.3185,-0.3197 0.5901,-0.274z"/>
    </g>
    <g id="feuille7_29">
      <metadata id="CorelCorpID_36">
       <odm name="Nom" value="feuille7" type="0"/>
      </metadata>
     <path id="_76428968" fill="#C81E28" stroke="#7F7F7F" stroke-width="0.0762" d="M179.695 168.484c0.3533,-4.0575 -5.8304,-3.339 -6.8369,-2.3304 0.1536,2.1211 6.5485,5.6417 6.8369,2.3304z"/>
     <path id="_77084288" fill="#C81E28" stroke="#7F7F7F" stroke-width="0.0762" d="M180.72 168.573c-0.756,-0.4235 -4.9253,-2.1841 -6.8011,-2.0211 1.088,0.1974 2.9544,0.6366 3.7294,0.9882 0.5297,0.2402 2.429,1.2464 3.0476,1.6035 0.0733,0.0423 0.1523,-0.3657 0.0241,-0.5706z"/>
    </g>
    <g id="feuille7_30">
      <metadata id="CorelCorpID_37">
       <odm name="Nom" value="feuille7" type="0"/>
      </metadata>
     <path id="_76519040" fill="#E3DC1E" stroke="#7F7F7F" stroke-width="0.0762" d="M184.842 168.169c-1.952,-4.2262 4.9757,-5.8495 6.4488,-5.155 0.6566,2.3404 -4.8557,8.6038 -6.4488,5.155z"/>
     <path id="_77228360" fill="#E3DC1E" stroke="#7F7F7F" stroke-width="0.0762" d="M183.773 168.662c0.6489,-0.7482 4.4499,-4.2568 6.5301,-4.8084 -1.0934,0.6338 -2.9302,1.8293 -3.6273,2.5076 -0.4765,0.4635 -2.129,2.2814 -2.6558,2.9051 -0.0624,0.0739 -0.3055,-0.3342 -0.247,-0.6043z"/>
    </g>
    <g id="feuille7_31">
      <metadata id="CorelCorpID_38">
       <odm name="Nom" value="feuille7" type="0"/>
      </metadata>
     <path id="_77064552" fill="#B1CF1B" stroke="#7F7F7F" stroke-width="0.0762" d="M185.312 159.284c0.0453,-4.6549 7.0009,-3.156 8.0348,-1.8977 -0.4086,2.3962 -8.0717,5.6966 -8.0348,1.8977z"/>
     <path id="_66525032" fill="#B1CF1B" stroke="#7F7F7F" stroke-width="0.0762" d="M184.135 159.272c0.9067,-0.3985 5.8439,-1.9419 7.96,-1.5497 -1.2595,0.1046 -3.4313,0.3986 -4.3517,0.7131 -0.6291,0.2149 -2.9007,1.1502 -3.6439,1.4884 -0.088,0.04 -0.1329,-0.4328 0.0356,-0.6518z"/>
    </g>
    <g id="feuille7_32">
      <metadata id="CorelCorpID_39">
       <odm name="Nom" value="feuille7" type="0"/>
      </metadata>
     <path id="_77021664" fill="#D2A01E" stroke="#7F7F7F" stroke-width="0.0762" d="M211.499 164.743c1.503,3.9187 -4.8263,4.9643 -6.1099,4.2514 -0.4506,-2.1448 4.8832,-7.4494 6.1099,-4.2514z"/>
     <path id="_76903984" fill="#D2A01E" stroke="#7F7F7F" stroke-width="0.0762" d="M212.49 164.364c-0.6285,0.6343 -4.258,3.5631 -6.1624,3.9347 1.0216,-0.5047 2.7456,-1.4702 3.4133,-2.0387 0.4564,-0.3884 2.0518,-1.9249 2.5631,-2.4545 0.0605,-0.0627 0.2548,0.319 0.186,0.5585z"/>
    </g>
    <g id="feuille7_33">
      <metadata id="CorelCorpID_40">
       <odm name="Nom" value="feuille7" type="0"/>
      </metadata>
     <path id="_66516520" fill="#B1CF1B" stroke="#7F7F7F" stroke-width="0.0762" d="M212.552 166.916c1.7178,-3.8294 6.9233,-0.0803 7.3233,1.3326 -1.2026,1.8321 -8.725,1.7926 -7.3233,-1.3326z"/>
     <path id="_66624720" fill="#B1CF1B" stroke="#7F7F7F" stroke-width="0.0762" d="M211.584 166.481c0.893,-0.0019 5.5291,0.5052 7.1358,1.5931 -1.0783,-0.3682 -2.9787,-0.9094 -3.8527,-0.9817 -0.5973,-0.0496 -2.8117,-0.0968 -3.5477,-0.0857 -0.0872,0.0013 0.0464,-0.4056 0.2646,-0.5257z"/>
    </g>
   </g>
  </g>
  <g id="Pheno_Evgr" onclick="parent.replacechar('Pheno_Evgr')" onmousemove="parent.showtooltip('Pheno_Evgr', 'Evergreen plant')" onmouseout="parent.hidetooltip('Pheno_Evgr')" cursor="pointer" >
   <line id="_77226944" fill="none" stroke="#1F1A17" stroke-width="0.0762" x1="21.7176" y1="169.84" x2="102.177" y2= "169.84" />
   <path id="courone" fill="#33CC33" stroke="#7F7F7F" stroke-width="0.0762" d="M39.2777 71.3613c-14.6851,-6.5266 -20.713,-2.2975 -25.0017,-16.4252 -4.3802,-14.4296 5.3791,-8.2334 4.7453,-9.9244 -7.8418,-20.9226 7.2258,-14.3145 18.0947,-19.8697 0.9419,-19.2486 11.8157,-13.8469 15.1701,-10.4926 4.3606,4.3606 2.1417,-4.9008 10.1921,-4.9008 3.0189,0 7.4426,3.6484 7.4426,6.6673 2.6333,-2.066 12.6544,-11.8849 17.7299,6.5985 13.726,-6.4677 12.4251,9.7914 13.395,9.7291 21.2612,8.9362 -0.4113,16.9172 0.3105,19.8291 3.0165,12.1679 9.2243,20.8417 -18.4902,17.4419 -9.1476,2.0503 -13.1394,-8.3886 -23.778,2.5082 -0.9214,-14.1052 -10.1823,4.7236 -19.8103,-1.1614z">
    <metadata id="CorelCorpID_41">
     <odm name="Nom" value="courone" type="0"/>
    </metadata>
   </path>
   <path id="_67206720" fill="#CC6633" stroke="#1F1A17" stroke-width="0.0762" stroke-linejoin="round" d="M56.8731 169.701c2.3655,-2.8537 1.6093,-4.3501 1.8304,-6.4067 0,-25.9512 0.1596,-52.9397 0.1596,-78.891 -5.6682,-6.0601 -9.4883,-15.009 -11.4194,-17.6218 -11.147,-2.3597 -19.3344,-9.2692 -21.2328,-17.3723 2.2735,5.3705 6.5449,12.9726 21.2277,15.6687 -1.4897,-5.5996 -3.6972,-11.3673 -6.0604,-16.0143 -4.254,-4.1672 -7.8325,-9.8201 -8.1764,-14.2539 0.8694,4.0886 3.9629,8.1684 7.6051,12.229 0.0414,-4.9662 0.1186,-11.1659 -1.2799,-16.7124 1.755,5.3889 1.7733,10.8472 2.5659,16.7222 4.453,10.3038 7.5486,23.4033 16.4719,33.3479 0.7157,-7.1996 0.7963,-15.3519 0.3212,-22.5515 -4.7044,-5.2296 -8.1418,-11.8054 -9.5995,-17.6686 -4.4314,-3.202 -6.7244,-6.7229 -6.7213,-10.7178 -0.0749,3.8731 3.5452,7.5603 7.0002,10.0031 -0.1916,-4.6911 -0.7588,-10.2551 -1.8789,-14.255 0.7467,2.6665 1.4934,6.5178 2.2399,9.1843 2.6679,-2.7774 3.2132,-6.752 4.1497,-9.8263 -0.6166,3.7257 -0.8231,5.7579 -3.7556,11.4913 0.0292,1.1129 0.2482,2.7082 0.5659,3.7099 0.0288,3.5693 4.0498,10.899 8.7995,15.5192 0.4462,-6.1863 0.4975,-16.0847 -0.32,-18.559l0 0c-0.9795,-6.0028 -1.7572,-12.3809 -0.6103,-18.6206 -0.5697,6.3429 0.6015,13.058 2.2951,19.2443 3.9783,-6.2742 5.7126,-12.5548 5.9948,-17.5829 0.5411,6.1864 -1.8174,10.8054 -4.9597,18.5591 -1.4956,2.8753 -0.2481,11.9419 -0.8032,17.1682 4.1493,-6.0184 12.4295,-16.6275 11.0427,-17.8082 -1.6023,-4.6114 -0.8534,-9.0661 -1.28,-13.5993 0.7466,3.7865 0.3396,9.124 2.2399,12.7701 3.455,-2.3377 7.7148,-11.6524 7.0267,-15.0492 0.6805,4.9694 -3.6549,14.2373 -6.1875,15.5625 -2.2246,5.2168 -11.2928,17.5531 -12.3586,19.5149 -1.7709,1.2318 -0.6532,19.7165 -0.16,18.294 7.2754,-6.8642 17.4638,-16.0558 18.8598,-19.2655 -2.6919,-5.0453 -4.9915,-9.7544 -4.1405,-17.5875 -0.088,5.374 0.5393,11.7652 4.7997,15.656 4.6429,-7.0589 7.389,-17.2911 8.6984,-24.8459 -0.5867,4.9065 -1.6418,11.5304 -3.0871,16.4367 4.2048,-2.025 6.3964,-6.2773 7.3481,-9.8067 -0.4347,5.2901 -4.5309,9.092 -7.9023,11.051 -1.3317,4.1065 -4.2247,9.8524 -7.3519,13.8027 2.5071,-1.0056 13.448,-1.6321 16.8541,-11.8943 -1.5233,10.0759 -12.951,12.2381 -18.1434,13.4143 -4.804,4.4291 -10.9573,10.5201 -15.6149,16.5041 0.6401,28.0052 1.2801,56.0102 1.9202,84.0153 0.0355,2.7365 0.1946,5.3628 1.837,7.0419 -2.9367,0 -5.8733,0 -8.8099,0z"/>
  </g>
 </g>
<image xlink:href="tick.gif" id="imgtick" x="-100" y="-100" width="15" height="15"/>
<rect id="recttooltip" x="-100" y="-100" width="55" height="6" fill-opacity="0.4" pointer-events="none"/>
<text id="textboxid" x="-100" y="-100" pointer-events="none"> </text>
</a></svg>
