<?xml version="1.0" encoding="UTF-8"?>
<!DOCTYPE svg PUBLIC "-//W3C//DTD SVG 1.1//EN" "http://www.w3.org/Graphics/SVG/1.1/DTD/svg11.dtd">
<!-- Creator: CorelDRAW -->
<svg xmlns="http://www.w3.org/2000/svg" xml:space="preserve" shape-rendering="geometricPrecision" text-rendering="geometricPrecision" image-rendering="optimizeQuality" fill-rule="evenodd" clip-rule="evenodd"
viewBox="0 0 240 180"
 xmlns:xlink="http://www.w3.org/1999/xlink">
<a>
 <g id="Layer_x0020_1">
  <metadata id="CorelCorpID_0Corel-Layer"/>
  <rect fill="none" width="240" height="180"/>
  <g id="PhylLft_Alt" onclick="parent.replacechar('PhylLft_Alt')" onmousemove="parent.showtooltip('PhylLft_Alt', 'Leaflets alternate')" onmouseout="parent.hidetooltip('PhylLft_Alt')" cursor="pointer" >
   <path id="Rachis" fill="#00C800" stroke="black" stroke-width="0.0762" stroke-linejoin="bevel" d="M181.175 90.6569c-0.439,-68.1966 -1.0756,-22.6594 -2.6782,0.1113 -2.7684,20.0862 -2.0858,47.805 10.358,53.6295 1.1981,-0.751 -0.1612,0.0311 1.2699,-2.1031 0.9284,-2.9633 -0.6173,1.8949 -5.3745,-5.9427 -5.1472,-7.8358 -4.6006,-25.8441 -3.5752,-45.695z">
    <metadata id="CorelCorpID_1">
     <odm name="Nom" value="Rachis" type="0"/>
    </metadata>
   </path>
   <g id="foliole">
     <metadata id="CorelCorpID_2">
      <odm name="Nom" value="foliole" type="0"/>
     </metadata>
    <path id="_66832136" fill="#00C800" stroke="black" stroke-width="0.0762" stroke-linejoin="bevel" d="M181.206 71.1777c-0.3143,-6.513 15.4392,-13.1295 18.116,-7.9989 0.5384,5.4629 -17.4817,16.1002 -17.9573,9.2763l-0.1587 -1.2774z"/>
    <path id="_77228000" fill="#00C800" stroke="black" stroke-width="0.0762" stroke-linejoin="bevel" d="M180.894 72.4395c0.4968,0.1159 -0.746,-0.2709 -0.438,-0.7294 2.0872,-1.0904 12.1997,-6.7209 18.6277,-8.6722 -10.2081,4.7669 -16.9074,8.7684 -18.1897,9.4016z"/>
   </g>
   <g id="foliole_0">
     <metadata id="CorelCorpID_3">
      <odm name="Nom" value="foliole" type="0"/>
     </metadata>
    <path id="_77228360" fill="#00C800" stroke="black" stroke-width="0.0762" stroke-linejoin="bevel" d="M178.229 82.9506c-0.7301,-8.0361 -21.2015,-14.0966 -23.6083,-7.4484 0.2749,6.7764 24.2175,17.4761 23.6322,9.0373l-0.0239 -1.5889z"/>
    <path id="_66866288" fill="#00C800" stroke="black" stroke-width="0.0762" stroke-linejoin="bevel" d="M178.828 84.4586c-0.5899,0.2074 0.8694,-0.4301 0.4127,-0.9526 -2.7489,-1.0653 -16.1269,-6.6538 -24.3517,-8.2079 13.3474,4.5157 22.2565,8.5511 23.939,9.1605z"/>
   </g>
   <g id="foliole_1">
     <metadata id="CorelCorpID_4">
      <odm name="Nom" value="foliole" type="0"/>
     </metadata>
    <path id="_76711784" fill="#00C800" stroke="black" stroke-width="0.0762" stroke-linejoin="bevel" d="M176.562 103.075c-0.8869,-9.7632 -25.7582,-17.1263 -28.6823,-9.0492 0.334,8.2328 29.4225,21.2321 28.7114,10.9796l-0.0291 -1.9304z"/>
    <path id="_77042664" fill="#00C800" stroke="black" stroke-width="0.0762" stroke-linejoin="bevel" d="M177.29 104.907c-0.7166,0.252 1.0563,-0.5226 0.5015,-1.1573 -3.3397,-1.2943 -19.593,-8.0839 -29.5856,-9.972 16.2162,5.4862 27.04,10.389 29.0841,11.1293z"/>
   </g>
   <g id="foliole_2">
     <metadata id="CorelCorpID_5">
      <odm name="Nom" value="foliole" type="0"/>
     </metadata>
    <path id="_76715592" fill="#00C800" stroke="black" stroke-width="0.0762" stroke-linejoin="bevel" d="M178.398 127.105c-1.0378,-11.4243 -30.1404,-20.0401 -33.562,-10.5888 0.3908,9.6334 34.4281,24.8442 33.5961,12.8475l-0.0341 -2.2587z"/>
    <path id="_76568760" fill="#00C800" stroke="black" stroke-width="0.0762" stroke-linejoin="bevel" d="M179.25 129.249c-0.8386,0.2947 1.236,-0.6116 0.5868,-1.3543 -3.9079,-1.5145 -22.9264,-9.4592 -34.6189,-11.6685 18.9749,6.4196 31.6402,12.1564 34.0321,13.0228z"/>
   </g>
   <g id="foliole_3">
     <metadata id="CorelCorpID_6">
      <odm name="Nom" value="foliole" type="0"/>
     </metadata>
    <path id="_77737072" fill="#00C800" stroke="black" stroke-width="0.0762" stroke-linejoin="bevel" d="M181.469 91.9251c0.7301,-8.0361 21.2015,-14.0966 23.6084,-7.4484 -0.2749,6.7764 -24.2176,17.4761 -23.6323,9.0373l0.0239 -1.5889z"/>
    <path id="_76428992" fill="#00C800" stroke="black" stroke-width="0.0762" stroke-linejoin="bevel" d="M180.87 93.4331c0.5898,0.2074 -0.8695,-0.4301 -0.4128,-0.9526 2.7489,-1.0653 16.1269,-6.6538 24.3517,-8.2079 -13.3474,4.5157 -22.2565,8.5511 -23.9389,9.1605z"/>
   </g>
   <g id="foliole_4">
     <metadata id="CorelCorpID_7">
      <odm name="Nom" value="foliole" type="0"/>
     </metadata>
    <path id="_77201544" fill="#00C800" stroke="black" stroke-width="0.0762" stroke-linejoin="bevel" d="M181.602 114.945c1.0378,-11.4243 30.1404,-20.0401 33.5621,-10.5888 -0.3908,9.6334 -34.4282,24.8442 -33.5961,12.8475l0.034 -2.2587z"/>
    <path id="_27631456" fill="#00C800" stroke="black" stroke-width="0.0762" stroke-linejoin="bevel" d="M180.75 117.089c0.8385,0.2947 -1.236,-0.6116 -0.5868,-1.3543 3.9079,-1.5145 22.9263,-9.4592 34.6189,-11.6685 -18.975,6.4196 -31.6403,12.1564 -34.0321,13.0228z"/>
   </g>
   <g id="foliole_5">
     <metadata id="CorelCorpID_8">
      <odm name="Nom" value="foliole" type="0"/>
     </metadata>
    <path id="_66862664" fill="#00C800" stroke="black" stroke-width="0.0762" stroke-linejoin="bevel" d="M180.487 55.5544c-0.7378,-4.6756 10.4568,-10.1209 12.7911,-6.6282 0.8172,3.9001 -7.9214,11.3007 -12.2315,8.1033l-0.5596 -1.4751z"/>
    <path id="_76963152" fill="#00C800" stroke="black" stroke-width="0.0762" stroke-linejoin="bevel" d="M180.88 57.2993c0.3676,0.0447 -0.7347,-0.3811 -0.5484,-0.7362 1.4207,-0.9506 8.2769,-5.8074 12.7627,-7.7199 -6.9929,4.241 -11.3386,7.8986 -12.2143,8.4561z"/>
   </g>
   <g id="foliole_6">
     <metadata id="CorelCorpID_9">
      <odm name="Nom" value="foliole" type="0"/>
     </metadata>
    <path id="_77852064" fill="#00C800" stroke="black" stroke-width="0.0762" stroke-linejoin="bevel" d="M180.118 63.4321c0.7378,-4.6756 -10.4568,-10.1209 -12.7911,-6.6282 -0.8172,3.9001 7.9214,11.3007 12.2315,8.1033l0.5596 -1.4751z"/>
    <path id="_76491400" fill="#00C800" stroke="black" stroke-width="0.0762" stroke-linejoin="bevel" d="M179.725 65.177c-0.3676,0.0447 0.7347,-0.3811 0.5484,-0.7362 -1.4207,-0.9506 -8.2769,-5.8074 -12.7627,-7.7199 6.9929,4.241 11.3386,7.8986 12.2143,8.4561z"/>
   </g>
  </g>
  <g id="PhylLft_Opp" onclick="parent.replacechar('PhylLft_Opp')" onmousemove="parent.showtooltip('PhylLft_Opp', 'Leaflets opposite or subopposite')" onmouseout="parent.hidetooltip('PhylLft_Opp')" cursor="pointer" >
   <path id="Rachis_7" fill="#00C800" stroke="black" stroke-width="0.0762" stroke-linejoin="bevel" d="M61.2193 91.1612c-0.439,-68.1966 -1.0756,-22.6594 -2.6782,0.1113 -2.7684,20.0862 -2.0858,47.805 10.358,53.6295 1.1981,-0.751 -0.1612,0.0311 1.2699,-2.1031 0.9284,-2.9633 -0.6173,1.8949 -5.3745,-5.9427 -5.1472,-7.8358 -4.6006,-25.8441 -3.5752,-45.695z">
    <metadata id="CorelCorpID_10">
     <odm name="Nom" value="Rachis" type="0"/>
    </metadata>
   </path>
   <g id="foliole_8">
     <metadata id="CorelCorpID_11">
      <odm name="Nom" value="foliole" type="0"/>
     </metadata>
    <path id="_77385192" fill="#00C800" stroke="black" stroke-width="0.0762" stroke-linejoin="bevel" d="M59.2627 73.1882c0.3143,-6.5131 -15.4392,-13.1295 -18.116,-7.9989 -0.5384,5.4629 17.4817,16.1002 17.9573,9.2763l0.1587 -1.2774z"/>
    <path id="_76709008" fill="#00C800" stroke="black" stroke-width="0.0762" stroke-linejoin="bevel" d="M59.5748 74.4499c-0.4967,0.116 0.7461,-0.2709 0.4381,-0.7293 -2.0872,-1.0904 -12.1997,-6.721 -18.6277,-8.6722 10.2081,4.7668 16.9074,8.7684 18.1896,9.4015z"/>
   </g>
   <g id="foliole_9">
     <metadata id="CorelCorpID_12">
      <odm name="Nom" value="foliole" type="0"/>
     </metadata>
    <path id="_77454528" fill="#00C800" stroke="black" stroke-width="0.0762" stroke-linejoin="bevel" d="M61.2781 73.1417c-0.3143,-6.513 15.4392,-13.1295 18.116,-7.9989 0.5384,5.4629 -17.4817,16.1002 -17.9573,9.2763l-0.1587 -1.2774z"/>
    <path id="_77852240" fill="#00C800" stroke="black" stroke-width="0.0762" stroke-linejoin="bevel" d="M60.9659 74.4035c0.4968,0.1159 -0.746,-0.2709 -0.438,-0.7294 2.0872,-1.0904 12.1997,-6.7209 18.6277,-8.6722 -10.2081,4.7669 -16.9074,8.7684 -18.1897,9.4016z"/>
   </g>
   <g id="foliole_10">
     <metadata id="CorelCorpID_13">
      <odm name="Nom" value="foliole" type="0"/>
     </metadata>
    <path id="_76531456" fill="#00C800" stroke="black" stroke-width="0.0762" stroke-linejoin="bevel" d="M58.2731 85.9949c-0.7301,-8.0361 -21.2015,-14.0966 -23.6083,-7.4484 0.2749,6.7764 24.2175,17.4761 23.6322,9.0373l-0.0239 -1.5889z"/>
    <path id="_76715536" fill="#00C800" stroke="black" stroke-width="0.0762" stroke-linejoin="bevel" d="M58.8724 87.5029c-0.5899,0.2074 0.8694,-0.4301 0.4127,-0.9526 -2.7489,-1.0653 -16.1269,-6.6538 -24.3517,-8.2079 13.3474,4.5157 22.2565,8.5511 23.939,9.1605z"/>
   </g>
   <g id="foliole_11">
     <metadata id="CorelCorpID_14">
      <odm name="Nom" value="foliole" type="0"/>
     </metadata>
    <path id="_77135680" fill="#00C800" stroke="black" stroke-width="0.0762" stroke-linejoin="bevel" d="M56.6062 103.579c-0.8869,-9.7632 -25.7582,-17.1263 -28.6823,-9.0492 0.334,8.2328 29.4225,21.2321 28.7114,10.9796l-0.0291 -1.9304z"/>
    <path id="_77540496" fill="#00C800" stroke="black" stroke-width="0.0762" stroke-linejoin="bevel" d="M57.3343 105.411c-0.7166,0.252 1.0563,-0.5226 0.5015,-1.1573 -3.3397,-1.2943 -19.593,-8.0839 -29.5856,-9.972 16.2162,5.4862 27.04,10.389 29.0841,11.1293z"/>
   </g>
   <g id="foliole_12">
     <metadata id="CorelCorpID_15">
      <odm name="Nom" value="foliole" type="0"/>
     </metadata>
    <path id="_76576480" fill="#00C800" stroke="black" stroke-width="0.0762" stroke-linejoin="bevel" d="M57.7203 125.246c-1.0378,-11.4243 -30.1404,-20.0401 -33.562,-10.5888 0.3908,9.6334 34.4281,24.8442 33.5961,12.8475l-0.0341 -2.2587z"/>
    <path id="_77493056" fill="#00C800" stroke="black" stroke-width="0.0762" stroke-linejoin="bevel" d="M58.5723 127.39c-0.8386,0.2947 1.236,-0.6116 0.5868,-1.3543 -3.9079,-1.5145 -22.9264,-9.4592 -34.6189,-11.6685 18.9749,6.4196 31.6402,12.1564 34.0321,13.0228z"/>
   </g>
   <g id="foliole_13">
     <metadata id="CorelCorpID_16">
      <odm name="Nom" value="foliole" type="0"/>
     </metadata>
    <path id="_76758952" fill="#00C800" stroke="black" stroke-width="0.0762" stroke-linejoin="bevel" d="M61.7304 86.186c0.7301,-8.0361 21.2015,-14.0966 23.6084,-7.4484 -0.2749,6.7764 -24.2176,17.4761 -23.6323,9.0373l0.0239 -1.5889z"/>
    <path id="_76913976" fill="#00C800" stroke="black" stroke-width="0.0762" stroke-linejoin="bevel" d="M61.1312 87.694c0.5898,0.2074 -0.8695,-0.4301 -0.4128,-0.9526 2.7489,-1.0653 16.1269,-6.6538 24.3517,-8.2079 -13.3474,4.5157 -22.2565,8.5511 -23.9389,9.1605z"/>
   </g>
   <g id="foliole_14">
     <metadata id="CorelCorpID_17">
      <odm name="Nom" value="foliole" type="0"/>
     </metadata>
    <path id="_77737048" fill="#00C800" stroke="black" stroke-width="0.0762" stroke-linejoin="bevel" d="M61.1768 103.901c0.8869,-9.7632 25.7581,-17.1263 28.6823,-9.0492 -0.334,8.2328 -29.4225,21.2321 -28.7115,10.9796l0.0292 -1.9304z"/>
    <path id="_66428776" fill="#00C800" stroke="black" stroke-width="0.0762" stroke-linejoin="bevel" d="M60.4487 105.733c0.7166,0.2519 -1.0563,-0.5227 -0.5015,-1.1574 3.3397,-1.2943 19.593,-8.0839 29.5855,-9.972 -16.2161,5.4862 -27.0399,10.389 -29.084,11.1294z"/>
   </g>
   <g id="foliole_15">
     <metadata id="CorelCorpID_18">
      <odm name="Nom" value="foliole" type="0"/>
     </metadata>
    <path id="_77123712" fill="#00C800" stroke="black" stroke-width="0.0762" stroke-linejoin="bevel" d="M62.2795 124.926c1.0378,-11.4243 30.1404,-20.0401 33.5621,-10.5888 -0.3908,9.6334 -34.4282,24.8442 -33.5961,12.8475l0.034 -2.2587z"/>
    <path id="_77051128" fill="#00C800" stroke="black" stroke-width="0.0762" stroke-linejoin="bevel" d="M61.4276 127.07c0.8385,0.2947 -1.236,-0.6116 -0.5868,-1.3543 3.9079,-1.5145 22.9263,-9.4592 34.6189,-11.6685 -18.975,6.4196 -31.6403,12.1564 -34.0321,13.0228z"/>
   </g>
   <g id="foliole_16">
     <metadata id="CorelCorpID_19">
      <odm name="Nom" value="foliole" type="0"/>
     </metadata>
    <path id="_76883800" fill="#00C800" stroke="black" stroke-width="0.0762" stroke-linejoin="bevel" d="M60.5651 58.1359c-0.7378,-4.6756 10.4568,-10.1209 12.7911,-6.6282 0.8172,3.9001 -7.9214,11.3007 -12.2315,8.1033l-0.5596 -1.4751z"/>
    <path id="_76474016" fill="#00C800" stroke="black" stroke-width="0.0762" stroke-linejoin="bevel" d="M60.9587 59.8808c0.3676,0.0447 -0.7347,-0.3811 -0.5484,-0.7362 1.4207,-0.9506 8.2769,-5.8074 12.7627,-7.7199 -6.9929,4.241 -11.3386,7.8986 -12.2143,8.4561z"/>
   </g>
   <g id="foliole_17">
     <metadata id="CorelCorpID_20">
      <odm name="Nom" value="foliole" type="0"/>
     </metadata>
    <path id="_66482808" fill="#00C800" stroke="black" stroke-width="0.0762" stroke-linejoin="bevel" d="M60.3729 58.2586c0.7378,-4.6756 -10.4568,-10.1209 -12.7911,-6.6282 -0.8172,3.9001 7.9214,11.3007 12.2315,8.1033l0.5596 -1.4751z"/>
    <path id="_76542328" fill="#00C800" stroke="black" stroke-width="0.0762" stroke-linejoin="bevel" d="M59.9793 60.0035c-0.3676,0.0447 0.7347,-0.3811 0.5484,-0.7362 -1.4207,-0.9506 -8.2769,-5.8074 -12.7627,-7.7199 6.9929,4.241 11.3386,7.8986 12.2143,8.4561z"/>
   </g>
  </g>
 </g>
<image xlink:href="tick.gif" id="imgtick" x="-100" y="-100" width="15" height="15"/>
<rect id="recttooltip" x="-100" y="-100" width="55" height="6" fill-opacity="0.4" pointer-events="none"/>
<text id="textboxid" x="-100" y="-100" pointer-events="none"> </text>
</a></svg>
