<?xml version="1.0" encoding="UTF-8"?>
<!DOCTYPE svg PUBLIC "-//W3C//DTD SVG 1.1//EN" "http://www.w3.org/Graphics/SVG/1.1/DTD/svg11.dtd">
<!-- Creator: CorelDRAW -->
<svg xmlns="http://www.w3.org/2000/svg" xml:space="preserve" shape-rendering="geometricPrecision" text-rendering="geometricPrecision" image-rendering="optimizeQuality" fill-rule="evenodd" clip-rule="evenodd"
viewBox="0 0 240 180"
 xmlns:xlink="http://www.w3.org/1999/xlink">
<a>
 <g id="Layer_x0020_1">
  <metadata id="CorelCorpID_0Corel-Layer"/>
  <rect fill="none" transform="matrix(3.24291E-013 -17.1512 10.3131 3.82591E-013 -1.55692E-005 180)" width="10.4949" height="23.2713"/>
  <g id="Pneu_Yes" onclick="parent.replacechar('Pneu_Yes')" onmousemove="parent.showtooltip('Pneu_Yes', 'Roots with pneumatophores')" onmouseout="parent.hidetooltip('Pneu_Yes')" cursor="pointer" >
   <g id="racines">
    <path id="_76690144" fill="#EE9719" stroke="black" stroke-width="0.0762" stroke-linejoin="bevel" d="M125.25 120.077c-8.5613,5.9271 -16.3932,11.1248 -23.8492,16.2287 -0.7998,0.5409 -2.2345,-5.4064 -3.0342,-4.8889 -0.823,0.5174 -1.2227,8.064 -1.9754,8.5814 -3.6928,2.5872 -7.2912,5.0333 -10.631,7.3149 -0.6115,0.4704 -2.2308,-5.512 -2.8423,-5.0654 -0.6585,0.4471 -0.4272,7.3466 -1.109,7.77 -3.4577,2.3991 -6.6564,4.5628 -9.5021,6.5153 -0.7056,0.4466 -1.9446,-3.4697 -2.6502,-3.0463 -0.6585,0.4704 -0.6192,5.2571 -1.2778,5.7275 -3.3631,2.2579 -5.927,3.9746 -7.7379,5.0332 0,-0.3293 2.5402,-2.4227 6.6326,-5.6214 0.6586,-0.5645 0.9879,-6.5385 1.8109,-7.1971 0.5411,-0.4233 2.5639,3.9043 3.1283,3.4106 2.8457,-2.1875 5.1977,-4.1395 8.5846,-6.6797 0.5412,-0.3763 1.0116,-8.7731 1.5053,-9.2198 0.7293,-0.4704 2.4698,6.2326 3.0813,5.6919 3.4572,-2.5402 6.0681,-4.4689 9.455,-6.9857 0.7526,-0.6115 2.305,-10.2547 3.0576,-10.7721 0.7526,-0.5408 2.5402,6.6563 3.222,6.1389 10.537,-7.8086 17.4755,-12.9596 18.04,-13.4064l6.0915 0.4704z"/>
    <path id="_78454728" fill="#EE9719" stroke="black" stroke-width="0.0762" stroke-linejoin="bevel" d="M125.532 113.962c0,0.2822 0.1881,1.1053 0.1881,0.9878 0.6115,0.3997 6.7505,2.352 15.735,5.0566 0.776,0.2119 2.8457,-7.6205 4.5629,-7.6437 1.5053,0 3.7162,10.0665 4.3747,10.2547 4.1395,1.27 8.3731,2.4693 12.4656,3.716 0.7996,0.1882 2.1636,-8.0908 2.8693,-7.8793 0.7527,0.2352 2.4461,9.5961 3.1516,9.7609 3.1987,0.9171 6.1623,1.7875 8.7728,2.5402 0.5174,0.0941 1.4819,-5.6214 1.9523,-5.4333 0.5175,0.0941 1.3171,6.3741 1.7876,6.4915 5.8562,1.7171 8.6083,2.5401 8.6083,2.9635 -3.5517,-0.8467 -6.6094,-1.5994 -9.3847,-2.2109 -0.4937,-0.1411 -0.4546,-4.9158 -0.9251,-4.9396 -0.5878,-0.2114 -0.9052,4.3048 -2.2499,4.2107 -3.5987,-0.8937 -6.6563,-1.6934 -9.7372,-2.3757 -0.8705,-0.2823 -0.929,-7.17 -1.7758,-7.3582 -0.5175,-0.1175 -1.9169,6.3704 -2.5285,6.2293 -4.6099,-1.129 -9.7606,-2.3521 -14.9586,-3.4573 -0.8467,-0.1882 -1.5876,-9.2986 -2.5047,-9.4397 -0.7057,-0.1411 -3.2813,8.2167 -4.0339,8.146 -3.5984,-0.7527 -7.5734,-1.5053 -12.3478,-2.3284l-8.4201 -1.176c-4.6806,0.6116 -9.4316,1.1523 -13.03,1.6464 -0.9408,0.1412 -1.7015,-7.9183 -2.5716,-7.6831 -0.9645,0.0707 -1.3094,8.365 -2.2031,8.5061 -5.9034,0.8938 -10.4662,1.035 -14.9587,1.6935 -0.5174,0.1178 -1.3404,-5.4885 -1.9286,-5.3707 -0.6819,0.1645 -1.1523,5.9118 -1.8109,6.0293 -4.751,0.7056 -9.808,1.7641 -16.9109,3.0105 -0.4938,0.1411 -1.2934,-2.3519 -1.858,-2.2109 -0.5174,0.0708 -0.7996,2.752 -1.3407,2.8224 -4.0925,0.6585 -8.8669,1.4819 -14.5117,2.3049 -0.2822,-0.4466 5.1977,-1.7875 13.6649,-3.7394 0.5645,-0.0941 1.2468,-5.2451 1.8112,-5.3626 0.5408,-0.1411 2.0931,4.4451 2.6343,4.3981 5.1273,-1.1523 9.6665,-2.1872 15.4053,-3.434 0.5882,-0.1411 2.399,-7.6203 2.9636,-7.7848 0.5173,-0.1412 1.6464,6.8678 2.1405,6.703 5.1035,-1.035 8.6552,-1.8816 13.124,-2.7284 1.129,-0.2822 2.7987,-12.8652 3.8103,-13.1241 0.9878,-0.1882 1.9519,11.6188 2.7987,11.5015 4.6098,-1.082 7.8556,-1.8582 9.6197,-2.305 0,0.0704 -0.0236,-0.9645 0.0471,-0.9878l7.5027 0z"/>
    <polygon id="_66432056" fill="#EE9719" points="117.959,120.688 117.959,119.395 124.544,119.395 124.544,120.688 "/>
   </g>
   <g id="collet">
    <path id="_66787128" fill="none" stroke="#A8A8A7" stroke-width="0.0762" stroke-linejoin="bevel" d="M117.982 113.985c0.2353,-4.6569 0.3764,-6.75 0.2586,-6.4915"/>
    <path id="_66402280" fill="none" stroke="#A8A8A7" stroke-width="0.0762" stroke-linejoin="bevel" d="M125.532 107.493c0.094,0.5411 -0.1174,1.5053 -0.0941,6.4915"/>
    <path id="_66514536" fill="none" stroke="#A8A8A7" stroke-width="0.0762" stroke-linejoin="bevel" d="M118.241 107.446c0.0941,-1.1052 3.2224,-0.9877 3.6458,-0.9877 0.5407,0 3.0339,-0.1175 3.7632,1.0348 -1.5523,0.4704 -5.3155,0.4234 -7.409,-0.0471z"/>
   </g>
   <polygon id="sol" fill="none" stroke="black" stroke-width="0.0762" stroke-linejoin="bevel" points="60.2672,114.04 178.698,114.04 "/>
  </g>
  <g id="Pneu_No" onclick="parent.replacechar('Pneu_No')" onmousemove="parent.showtooltip('Pneu_No', 'Roots without pneumatophores')" onmouseout="parent.hidetooltip('Pneu_No')" cursor="pointer" >
   <path id="_27589704" fill="none" stroke="#7F7F7F" stroke-width="0.0762" stroke-linejoin="bevel" d="M117.374 23.8844c0.2203,-4.621 0.3424,-6.6749 0.2446,-6.455"/>
   <path id="_76995736" fill="none" stroke="#7F7F7F" stroke-width="0.0762" stroke-linejoin="bevel" d="M125.447 17.4361c0.0979,0.5379 -0.0978,1.4916 -0.0489,6.455"/>
   <path id="_76527536" fill="#EE9719" stroke="black" stroke-width="0.0762" stroke-linejoin="bevel" d="M125.353 23.9278c1.9072,1.2468 62.8928,19.6095 63.6016,20.4408 -29.8054,-6.3572 -34.9158,-9.0469 -59.9779,-13.3749l-8.4357 -1.1736c-35.5271,4.7923 -32.3731,5.2571 -70.5408,10.6363 -0.8313,-1.1004 58.0982,-14.1323 67.5609,-16.5285 0,0.0489 7.7919,0.1219 7.7919,-0.0001z"/>
   <path id="_76715592" fill="#EE9719" stroke="black" stroke-width="0.0762" stroke-linejoin="bevel" d="M124.673 29.8447c-31.1263,21.4679 -56.3597,39.048 -64.1104,43.7915 -0.1224,-1.2226 56.4571,-43.0336 58.0708,-44.2804l6.0396 0.4889z"/>
   <polygon id="_77078888" fill="#EE9719" points="117.827,30.9937 116.677,27.9618 125.505,29.8936 122.595,30.6026 "/>
   <path id="_27616856" fill="none" stroke="#7F7F7F" stroke-width="0.0762" stroke-linejoin="bevel" d="M117.618 17.4297c0.0532,-1.2234 3.4676,-1.0562 3.9994,-1.0562 0.532,0 3.058,-0.187 3.8296,1.0628 -1.6758,0.532 -5.5948,0.4454 -7.829,-0.0066z"/>
   <polygon id="sol_0" fill="none" stroke="black" stroke-width="0.0762" stroke-linejoin="bevel" points="53.2704,23.9162 190,23.9162 "/>
  </g>
 </g>
<image xlink:href="tick.gif" id="imgtick" x="-100" y="-100" width="15" height="15"/>
<rect id="recttooltip" x="-100" y="-100" width="55" height="6" fill-opacity="0.4" pointer-events="none"/>
<text id="textboxid" x="-100" y="-100" pointer-events="none"> </text>
</a></svg>
