<?xml version="1.0" encoding="UTF-8"?>
<!DOCTYPE svg PUBLIC "-//W3C//DTD SVG 1.1//EN" "http://www.w3.org/Graphics/SVG/1.1/DTD/svg11.dtd">
<!-- Creator: CorelDRAW -->
<svg xmlns="http://www.w3.org/2000/svg" xml:space="preserve" shape-rendering="geometricPrecision" text-rendering="geometricPrecision" image-rendering="optimizeQuality" fill-rule="evenodd" clip-rule="evenodd"
viewBox="0 0 240 180"
 xmlns:xlink="http://www.w3.org/1999/xlink">
<a>
 <g id="Plan_x0020_1">
  <metadata id="CorelCorpID_0Corel-Layer"/>
  <rect fill="none" transform="matrix(3.24291E-013 -17.1512 10.3131 3.82591E-013 -1.55692E-005 180)" width="10.4949" height="23.2713"/>
  <g id="Rachis_Gland" onclick="parent.replacechar('Rachis_Gland')" onmousemove="parent.showtooltip('Rachis_Gland', 'Rachis with glands')" onmouseout="parent.hidetooltip('Rachis_Gland')" cursor="pointer" >
   <g id="foliole">
    <path id="f_x0020_droite1" fill="#B9CC76" stroke="#B2B2B2" stroke-width="0.0762" d="M236.145 72.6946c-2.4906,2.6739 -5.9954,4.1552 -10.8489,3.4354 -6.4096,-10.8814 2.7132,-19.1145 10.8489,-23.8544l0 20.419z"/>
    <path id="nervure" fill="none" stroke="#B2B2B2" stroke-width="0.0762" d="M236.145 60.568c-3.1118,5.6335 -6.6766,10.8739 -10.8597,15.5608"/>
    <path id="pétiole_x0020_" fill="none" stroke="#B2B2B2" stroke-width="0.0762" d="M222.255 77.1646c0.8427,-0.1861 2.0812,-0.6259 3.0412,-1.0346"/>
   </g>
   <g id="foliole_0">
    <path id="f_x0020_gauche1" fill="#B9CC76" stroke="#B2B2B2" stroke-width="0.0762" d="M208.548 72.7267c2.4492,2.0178 5.8081,3.2959 10.3887,3.3693 6.1276,-10.9549 -2.433,-18.2667 -10.3887,-22.5785l0 19.2092z"/>
    <path id="nervure_1" fill="none" stroke="#B2B2B2" stroke-width="0.0762" d="M208.548 62.039c2.987,4.8987 6.3919,9.6053 10.354,14.0543"/>
    <path id="pétiole_x0020__2" fill="none" stroke="#B2B2B2" stroke-width="0.0762" d="M218.951 76.0708c0.7799,0.3695 2.3003,0.8041 3.3093,1.0695"/>
   </g>
   <g id="foliole_3">
    <path id="f_x0020_droite1_4" fill="#B9CC76" stroke="#B2B2B2" stroke-width="0.0762" d="M236.145 94.0602c-2.8763,1.5577 -6.3328,1.895 -10.4339,0.2336 -2.9027,-9.5656 3.2628,-15.2268 10.4339,-18.506l0 18.2724z"/>
    <path id="nervure_5" fill="none" stroke="#B2B2B2" stroke-width="0.0762" d="M236.145 85.6224c-3.2692,3.193 -6.7357,6.1064 -10.4441,8.6676"/>
    <path id="pétiole_x0020__6" fill="none" stroke="#B2B2B2" stroke-width="0.0762" d="M222.485 94.583c0.8628,0.0176 2.1862,-0.1219 3.2155,-0.293"/>
   </g>
   <g id="foliole_7">
    <path id="f_x0020_gauche1_8" fill="#B9CC76" stroke="#B2B2B2" stroke-width="0.0762" d="M208.548 92.824c2.6675,1.3429 6.0147,1.889 10.2258,1.2266 3.5385,-10.0696 -2.9356,-15.726 -10.2258,-18.9679l0 17.7413z"/>
    <path id="nervure_9" fill="none" stroke="#B2B2B2" stroke-width="0.0762" d="M208.548 84.6446c3.1223,3.3258 6.4987,6.4769 10.1912,9.4092"/>
    <path id="pétiole_x0020__10" fill="none" stroke="#B2B2B2" stroke-width="0.0762" d="M218.773 94.0506c0.8316,0.2304 2.4137,0.371 3.4533,0.4597"/>
   </g>
   <g id="foliole_11">
    <path id="f_x0020_droite1_12" fill="#B9CC76" stroke="#B2B2B2" stroke-width="0.0762" d="M236.145 112.81c-3.2795,1.2398 -6.8846,0.9946 -10.6131,-1.8357 -0.2361,-7.8043 4.7254,-11.4824 10.6131,-13.1038l0 14.9395z"/>
    <path id="nervure_13" fill="none" stroke="#B2B2B2" stroke-width="0.0762" d="M236.145 106.175c-3.4377,1.8834 -6.9719,3.5022 -10.6212,4.7933"/>
    <path id="pétiole_x0020__14" fill="none" stroke="#B2B2B2" stroke-width="0.0762" d="M222.681 110.958c0.95,0.0549 1.9415,0.0653 2.851,0.0163"/>
   </g>
   <g id="foliole_15">
    <path id="f_x0020_gauche1_16" fill="#B9CC76" stroke="#B2B2B2" stroke-width="0.0762" d="M208.548 112.816c2.9759,0.7186 6.4114,0.3581 10.3669,-1.687 0.1338,-7.9717 -4.652,-11.4845 -10.3669,-12.9048l0 14.5918z"/>
    <path id="nervure_17" fill="none" stroke="#B2B2B2" stroke-width="0.0762" d="M208.548 106.572c3.2988,1.7182 6.7352,3.2547 10.3375,4.5697"/>
    <path id="pétiole_x0020__18" fill="none" stroke="#B2B2B2" stroke-width="0.0762" d="M218.915 111.107c0.7586,0.076 2.1929,0.0975 3.1463,-0.0377"/>
   </g>
   <path id="foliole_x0020_centrale" fill="#B9CC76" stroke="#B2B2B2" stroke-width="0.0762" d="M229.602 50.6755c-0.9803,3.1354 -3.207,6.0309 -7.243,8.3729 -4.2738,-2.2167 -6.5325,-5.1442 -7.4626,-8.3729l14.7056 0z"/>
   <path id="pétiole" fill="#78B43C" stroke="black" stroke-width="0.0762" d="M220.101 129.57c0.9246,-0.2587 4.1712,-0.0235 4.4362,-0.0457 0.4055,-0.8763 -0.6761,-5.1048 -1.8152,-6.93l-0.0615 -33.7692 -0.4626 -38.2523c0,12.2751 -0.1725,59.7838 -0.1725,72.0591 -1.2271,1.9252 -2.2263,6.7888 -1.9244,6.9381z"/>
   <rect id="_78030968" fill="none" stroke="#B2B2B2" stroke-width="0.0762" x="208.548" y="50.6755" width="27.5973" height="79.5676"/>
   <g id="glands">
    <ellipse id="_77495880" fill="#AAAA00" stroke="black" stroke-width="0.0762" transform="matrix(0.79469 -0.00259058 0.00259058 0.79469 222.485 94.583)" rx="0.9281" ry="1.9051"/>
    <ellipse id="_76460416" fill="#AAAA00" stroke="black" stroke-width="0.0762" transform="matrix(0.794225 -0.0272854 0.0272854 0.794225 222.26 77.1403)" rx="0.9281" ry="1.9051"/>
    <ellipse id="_78030128" fill="#AAAA00" stroke="black" stroke-width="0.0762" transform="matrix(0.766155 -0.211057 0.211057 0.766155 221.603 113.474)" rx="0.9281" ry="1.9051"/>
    <ellipse id="_76638152" fill="#AAAA00" stroke="black" stroke-width="0.0762" transform="matrix(0.776904 0.167208 -0.167208 0.776904 223.121 113.418)" rx="0.9281" ry="1.9051"/>
   </g>
  </g>
  <g id="Rachis_Spiny" onclick="parent.replacechar('Rachis_Spiny')" onmousemove="parent.showtooltip('Rachis_Spiny', 'Rachis armed')" onmouseout="parent.hidetooltip('Rachis_Spiny')" cursor="pointer" >
   <g id="foliole_19">
    <path id="f_x0020_droite1_20" fill="#B9CC76" stroke="#B2B2B2" stroke-width="0.0762" d="M202.11 72.6946c-2.4906,2.6739 -5.9954,4.1552 -10.8489,3.4354 -6.4096,-10.8814 2.7132,-19.1145 10.8489,-23.8544l0 20.419z"/>
    <path id="nervure_21" fill="none" stroke="#B2B2B2" stroke-width="0.0762" d="M202.11 60.568c-3.1118,5.6335 -6.6766,10.8739 -10.8597,15.5608"/>
    <path id="pétiole_x0020__22" fill="none" stroke="#B2B2B2" stroke-width="0.0762" d="M188.22 77.1646c0.8427,-0.1861 2.0812,-0.6259 3.0412,-1.0346"/>
   </g>
   <g id="foliole_23">
    <path id="f_x0020_gauche1_24" fill="#B9CC76" stroke="#B2B2B2" stroke-width="0.0762" d="M174.512 72.7267c2.4492,2.0178 5.8081,3.2959 10.3887,3.3693 6.1276,-10.9549 -2.433,-18.2667 -10.3887,-22.5785l0 19.2092z"/>
    <path id="nervure_25" fill="none" stroke="#B2B2B2" stroke-width="0.0762" d="M174.512 62.039c2.987,4.8987 6.3919,9.6053 10.354,14.0543"/>
    <path id="pétiole_x0020__26" fill="none" stroke="#B2B2B2" stroke-width="0.0762" d="M184.915 76.0708c0.7799,0.3695 2.3003,0.8041 3.3093,1.0695"/>
   </g>
   <g id="foliole_27">
    <path id="f_x0020_droite1_28" fill="#B9CC76" stroke="#B2B2B2" stroke-width="0.0762" d="M202.11 94.0602c-2.8763,1.5577 -6.3328,1.895 -10.4339,0.2336 -2.9027,-9.5656 3.2628,-15.2268 10.4339,-18.506l0 18.2724z"/>
    <path id="nervure_29" fill="none" stroke="#B2B2B2" stroke-width="0.0762" d="M202.11 85.6224c-3.2692,3.193 -6.7357,6.1064 -10.4441,8.6676"/>
    <path id="pétiole_x0020__30" fill="none" stroke="#B2B2B2" stroke-width="0.0762" d="M188.45 94.583c0.8628,0.0176 2.1862,-0.1219 3.2155,-0.293"/>
   </g>
   <g id="foliole_31">
    <path id="f_x0020_gauche1_32" fill="#B9CC76" stroke="#B2B2B2" stroke-width="0.0762" d="M174.512 92.824c2.6675,1.3429 6.0147,1.889 10.2258,1.2266 3.5385,-10.0696 -2.9356,-15.726 -10.2258,-18.9679l0 17.7413z"/>
    <path id="nervure_33" fill="none" stroke="#B2B2B2" stroke-width="0.0762" d="M174.512 84.6446c3.1223,3.3258 6.4987,6.4769 10.1912,9.4092"/>
    <path id="pétiole_x0020__34" fill="none" stroke="#B2B2B2" stroke-width="0.0762" d="M184.738 94.0506c0.8316,0.2304 2.4137,0.371 3.4533,0.4597"/>
   </g>
   <g id="foliole_35">
    <path id="f_x0020_droite1_36" fill="#B9CC76" stroke="#B2B2B2" stroke-width="0.0762" d="M202.11 112.81c-3.2795,1.2398 -6.8846,0.9946 -10.6131,-1.8357 -0.2361,-7.8043 4.7254,-11.4824 10.6131,-13.1038l0 14.9395z"/>
    <path id="nervure_37" fill="none" stroke="#B2B2B2" stroke-width="0.0762" d="M202.11 106.175c-3.4377,1.8834 -6.9719,3.5022 -10.6212,4.7933"/>
    <path id="pétiole_x0020__38" fill="none" stroke="#B2B2B2" stroke-width="0.0762" d="M188.646 110.958c0.95,0.0549 1.9415,0.0653 2.851,0.0163"/>
   </g>
   <g id="foliole_39">
    <path id="f_x0020_gauche1_40" fill="#B9CC76" stroke="#B2B2B2" stroke-width="0.0762" d="M174.512 112.816c2.9759,0.7186 6.4114,0.3581 10.3669,-1.687 0.1338,-7.9717 -4.652,-11.4845 -10.3669,-12.9048l0 14.5918z"/>
    <path id="nervure_41" fill="none" stroke="#B2B2B2" stroke-width="0.0762" d="M174.512 106.572c3.2988,1.7182 6.7352,3.2547 10.3375,4.5697"/>
    <path id="pétiole_x0020__42" fill="none" stroke="#B2B2B2" stroke-width="0.0762" d="M184.88 111.107c0.7586,0.076 2.1929,0.0975 3.1463,-0.0377"/>
   </g>
   <path id="foliole_x0020_centrale_43" fill="#B9CC76" stroke="#B2B2B2" stroke-width="0.0762" d="M195.567 50.6755c-0.9803,3.1354 -3.207,6.0309 -7.243,8.3729 -4.2738,-2.2167 -6.5325,-5.1442 -7.4626,-8.3729l14.7056 0z"/>
   <rect id="_77770296" fill="none" stroke="#B2B2B2" stroke-width="0.0762" x="174.512" y="50.6755" width="27.5973" height="79.5676"/>
   <path id="pétiole_44" fill="#78B43C" stroke="black" stroke-width="0.0762" d="M186.075 129.492c0.9246,-0.2587 4.1712,-0.0235 4.4362,-0.0457 0.4055,-0.8763 -0.7122,-4.9577 -1.8513,-6.7829l0.063 -33.5466c-0.1776,-11.9718 -0.1042,-26.4291 -0.3924,-38.383 -0.1158,0 0.001,-0.072 -0.1479,-0.026 -0.1259,12.469 -0.2193,59.7179 -0.2193,71.9932 -1.2271,1.9252 -2.1902,6.6417 -1.8883,6.791z"/>
   <g id="spines">
    <path id="_76443560" fill="white" fill-rule="nonzero" stroke="black" stroke-width="0.0762" stroke-linejoin="bevel" d="M188.714 121.042c-0.1543,0.3039 -0.2104,-2.0384 0,-1.7813 0.5611,0.4862 0.8556,0.6966 2.6089,0.8789 -1.7066,0.2992 -1.9684,0.3834 -2.6089,0.9024z"/>
    <path id="_77749832" fill="white" fill-rule="nonzero" stroke="black" stroke-width="0.0762" stroke-linejoin="bevel" d="M187.819 114.273c0.1542,0.2993 0.2103,-2.0431 0,-1.7813 -0.5611,0.4816 -0.8557,0.692 -2.6089,0.879 1.7018,0.2992 1.9637,0.3834 2.6089,0.9023z"/>
    <path id="_78184528" fill="white" fill-rule="nonzero" stroke="black" stroke-width="0.0762" stroke-linejoin="bevel" d="M188.291 64.1584c0.1012,0.1994 0.138,-1.3378 0,-1.1691 -0.3682,0.3161 -0.5616,0.4572 -1.7121,0.5769 1.1168,0.1963 1.2886,0.2516 1.7121,0.5922z"/>
    <path id="_78326112" fill="white" fill-rule="nonzero" stroke="black" stroke-width="0.0762" stroke-linejoin="bevel" d="M187.883 118.761c0.2853,0.3086 0.4349,-1.9402 0,-1.7812 -0.201,0.2758 0.1824,0.5236 -1.4727,1.3885 1.6831,-0.3553 1.108,-0.0374 1.4727,0.3927z"/>
    <path id="_78435424" fill="white" fill-rule="nonzero" stroke="black" stroke-width="0.0762" stroke-linejoin="bevel" d="M188.729 111.067c-0.1543,0.3039 -0.2104,-2.0385 0,-1.7813 0.561,0.4815 0.8603,0.6966 2.6135,0.8789 -1.7065,0.2993 -1.9683,0.3834 -2.6135,0.9024z"/>
    <path id="_78461528" fill="white" fill-rule="nonzero" stroke="black" stroke-width="0.0762" stroke-linejoin="bevel" d="M188.474 60.4201c-0.1013,0.1995 -0.1381,-1.3378 0,-1.169 0.3681,0.316 0.5614,0.4572 1.712,0.5768 -1.1199,0.1964 -1.2917,0.2516 -1.712,0.5922z"/>
    <path id="_78530968" fill="white" fill-rule="nonzero" stroke="black" stroke-width="0.0762" stroke-linejoin="bevel" d="M188.981 116.436c-0.2852,0.3085 -0.4301,-1.9403 0,-1.7814 0.201,0.2759 -0.1824,0.519 1.4727,1.3886 -1.6831,-0.3553 -1.108,-0.0374 -1.4727,0.3928z"/>
    <path id="_78544784" fill="white" fill-rule="nonzero" stroke="black" stroke-width="0.0762" stroke-linejoin="bevel" d="M188.83 105.353c-0.1543,0.3038 -0.2104,-2.0385 0,-1.7814 0.561,0.4863 0.8555,0.6967 2.6088,0.879 -1.7065,0.2992 -1.9683,0.3834 -2.6088,0.9024z"/>
    <path id="_76857496" fill="white" fill-rule="nonzero" stroke="black" stroke-width="0.0762" stroke-linejoin="bevel" d="M187.899 102.998c0.1542,0.2992 0.2103,-2.0431 0,-1.7813 -0.5611,0.4815 -0.8557,0.6919 -2.6089,0.879 1.7018,0.2992 1.9637,0.3833 2.6089,0.9023z"/>
    <path id="_77822032" fill="white" fill-rule="nonzero" stroke="black" stroke-width="0.0762" stroke-linejoin="bevel" d="M188.12 68.3364c0.1012,0.1995 0.138,-1.3377 0,-1.169 -0.3682,0.3161 -0.5616,0.4572 -1.7121,0.5768 1.1168,0.1964 1.2886,0.2516 1.7121,0.5922z"/>
    <path id="_76482840" fill="white" fill-rule="nonzero" stroke="black" stroke-width="0.0762" stroke-linejoin="bevel" d="M187.734 108.539c0.2853,0.3086 0.4349,-1.9402 0,-1.7812 -0.201,0.2758 0.1824,0.5236 -1.4726,1.3885 1.6831,-0.3553 1.108,-0.0374 1.4726,0.3927z"/>
    <path id="_76991856" fill="white" fill-rule="nonzero" stroke="black" stroke-width="0.0762" stroke-linejoin="bevel" d="M188.827 94.099c-0.1543,0.3039 -0.2104,-2.0385 0,-1.7813 0.5611,0.4815 0.8603,0.6966 2.6135,0.8789 -1.7065,0.2993 -1.9683,0.3834 -2.6135,0.9024z"/>
    <path id="_76475832" fill="white" fill-rule="nonzero" stroke="black" stroke-width="0.0762" stroke-linejoin="bevel" d="M187.951 97.9724c0.1543,0.304 0.2104,-2.0384 0,-1.7813 -0.561,0.4816 -0.8555,0.6966 -2.6088,0.879 1.7065,0.2992 1.9683,0.3834 2.6088,0.9023z"/>
    <path id="_77229928" fill="white" fill-rule="nonzero" stroke="black" stroke-width="0.0762" stroke-linejoin="bevel" d="M189.013 99.5644c-0.2852,0.3085 -0.4301,-1.9403 0,-1.7814 0.201,0.2759 -0.1824,0.519 1.4727,1.3886 -1.6831,-0.3553 -1.108,-0.0373 -1.4727,0.3928z"/>
    <path id="_77495520" fill="white" fill-rule="nonzero" stroke="black" stroke-width="0.0762" stroke-linejoin="bevel" d="M188.706 70.8133c-0.1012,0.1994 -0.1381,-1.3378 0,-1.169 0.3682,0.3191 0.5615,0.4572 1.7121,0.5768 -1.1199,0.1964 -1.2917,0.2516 -1.7121,0.5922z"/>
    <path id="_45640768" fill="white" fill-rule="nonzero" stroke="black" stroke-width="0.0762" stroke-linejoin="bevel" d="M188.086 80.0794c0.1194,0.2317 0.1628,-1.5816 0,-1.3789 -0.4343,0.3727 -0.6624,0.5356 -2.0196,0.6804 1.3174,0.2316 1.5201,0.2968 2.0196,0.6985z"/>
    <path id="_66423480" fill="white" fill-rule="nonzero" stroke="black" stroke-width="0.0762" stroke-linejoin="bevel" d="M188.311 77.0566c0.1194,0.2352 0.1628,-1.5781 0,-1.379 -0.4343,0.3728 -0.6624,0.5393 -2.0196,0.6804 1.3174,0.2316 1.5201,0.2968 2.0196,0.6986z"/>
    <path id="_77777120" fill="white" fill-rule="nonzero" stroke="black" stroke-width="0.0762" stroke-linejoin="bevel" d="M188.036 87.7465c0.2458,0.2659 0.3747,-1.672 0,-1.535 -0.1732,0.2377 0.1571,0.4512 -1.2691,1.1966 1.4504,-0.3062 0.9548,-0.0323 1.2691,0.3384z"/>
    <path id="_27656448" fill="white" fill-rule="nonzero" stroke="black" stroke-width="0.0762" stroke-linejoin="bevel" d="M188.697 83.0558c-0.1195,0.2353 -0.1629,-1.5781 0,-1.379 0.4343,0.3728 0.6659,0.5393 2.0232,0.6805 -1.3211,0.2316 -1.5237,0.2968 -2.0232,0.6985z"/>
    <path id="_66384328" fill="white" fill-rule="nonzero" stroke="black" stroke-width="0.0762" stroke-linejoin="bevel" d="M188.095 61.7249c0.1013,0.1995 0.1381,-1.3377 0,-1.169 -0.3681,0.316 -0.5614,0.4572 -1.712,0.5769 1.1199,0.1963 1.2917,0.2516 1.712,0.5921z"/>
    <path id="_77267344" fill="white" fill-rule="nonzero" stroke="black" stroke-width="0.0762" stroke-linejoin="bevel" d="M188.764 66.3476c-0.1871,0.2025 -0.2822,-1.2733 0,-1.169 0.132,0.181 -0.1196,0.3406 0.9665,0.9113 -1.1046,-0.2332 -0.7271,-0.0246 -0.9665,0.2577z"/>
    <path id="_79271112" fill="white" fill-rule="nonzero" stroke="black" stroke-width="0.0762" stroke-linejoin="bevel" d="M188.065 72.843c0.1871,0.2025 0.2822,-1.2733 0,-1.169 -0.1319,0.1811 0.1197,0.3406 -0.9665,0.9113 1.1046,-0.2332 0.7271,-0.0245 0.9665,0.2577z"/>
   </g>
  </g>
  <g id="Rachis_Sheathed" onclick="parent.replacechar('Rachis_Sheathed')" onmousemove="parent.showtooltip('Rachis_Sheathed', 'Rachis base sheathed')" onmouseout="parent.hidetooltip('Rachis_Sheathed')" cursor="pointer" >
   <g id="foliole_45">
    <path id="f_x0020_droite1_46" fill="#B9CC76" stroke="#B2B2B2" stroke-width="0.0762" d="M168.074 72.6946c-2.4906,2.6739 -5.9954,4.1552 -10.8489,3.4354 -6.4096,-10.8814 2.7132,-19.1145 10.8489,-23.8544l0 20.419z"/>
    <path id="nervure_47" fill="none" stroke="#B2B2B2" stroke-width="0.0762" d="M168.074 60.568c-3.1118,5.6335 -6.6766,10.8739 -10.8597,15.5608"/>
    <path id="pétiole_x0020__48" fill="none" stroke="#B2B2B2" stroke-width="0.0762" d="M154.184 77.1646c0.8427,-0.1861 2.0812,-0.6259 3.0412,-1.0346"/>
   </g>
   <g id="foliole_49">
    <path id="f_x0020_gauche1_50" fill="#B9CC76" stroke="#B2B2B2" stroke-width="0.0762" d="M140.477 72.7267c2.4492,2.0178 5.8081,3.2959 10.3887,3.3693 6.1276,-10.9549 -2.433,-18.2667 -10.3887,-22.5785l0 19.2092z"/>
    <path id="nervure_51" fill="none" stroke="#B2B2B2" stroke-width="0.0762" d="M140.477 62.039c2.987,4.8987 6.3919,9.6053 10.354,14.0543"/>
    <path id="pétiole_x0020__52" fill="none" stroke="#B2B2B2" stroke-width="0.0762" d="M150.88 76.0708c0.7799,0.3695 2.3003,0.8041 3.3093,1.0695"/>
   </g>
   <g id="foliole_53">
    <path id="f_x0020_droite1_54" fill="#B9CC76" stroke="#B2B2B2" stroke-width="0.0762" d="M168.074 94.0602c-2.8763,1.5577 -6.3328,1.895 -10.4339,0.2336 -2.9027,-9.5656 3.2628,-15.2268 10.4339,-18.506l0 18.2724z"/>
    <path id="nervure_55" fill="none" stroke="#B2B2B2" stroke-width="0.0762" d="M168.074 85.6224c-3.2692,3.193 -6.7357,6.1064 -10.4441,8.6676"/>
    <path id="pétiole_x0020__56" fill="none" stroke="#B2B2B2" stroke-width="0.0762" d="M154.415 94.583c0.8628,0.0176 2.1862,-0.1219 3.2155,-0.293"/>
   </g>
   <g id="foliole_57">
    <path id="f_x0020_gauche1_58" fill="#B9CC76" stroke="#B2B2B2" stroke-width="0.0762" d="M140.477 92.824c2.6675,1.3429 6.0147,1.889 10.2258,1.2266 3.5385,-10.0696 -2.9356,-15.726 -10.2258,-18.9679l0 17.7413z"/>
    <path id="nervure_59" fill="none" stroke="#B2B2B2" stroke-width="0.0762" d="M140.477 84.6446c3.1223,3.3258 6.4987,6.4769 10.1912,9.4092"/>
    <path id="pétiole_x0020__60" fill="none" stroke="#B2B2B2" stroke-width="0.0762" d="M150.703 94.0506c0.8316,0.2304 2.4137,0.371 3.4533,0.4597"/>
   </g>
   <g id="foliole_61">
    <path id="f_x0020_droite1_62" fill="#B9CC76" stroke="#B2B2B2" stroke-width="0.0762" d="M168.074 112.81c-3.2795,1.2398 -6.8846,0.9946 -10.6131,-1.8357 -0.2361,-7.8043 4.7254,-11.4824 10.6131,-13.1038l0 14.9395z"/>
    <path id="nervure_63" fill="none" stroke="#B2B2B2" stroke-width="0.0762" d="M168.074 106.175c-3.4377,1.8834 -6.9719,3.5022 -10.6212,4.7933"/>
    <path id="pétiole_x0020__64" fill="none" stroke="#B2B2B2" stroke-width="0.0762" d="M154.61 110.958c0.95,0.0549 1.9415,0.0653 2.851,0.0163"/>
   </g>
   <g id="foliole_65">
    <path id="f_x0020_gauche1_66" fill="#B9CC76" stroke="#B2B2B2" stroke-width="0.0762" d="M140.477 112.816c2.9759,0.7186 6.4114,0.3581 10.3669,-1.687 0.1338,-7.9717 -4.652,-11.4845 -10.3669,-12.9048l0 14.5918z"/>
    <path id="nervure_67" fill="none" stroke="#B2B2B2" stroke-width="0.0762" d="M140.477 106.572c3.2988,1.7182 6.7352,3.2547 10.3375,4.5697"/>
    <path id="pétiole_x0020__68" fill="none" stroke="#B2B2B2" stroke-width="0.0762" d="M150.844 111.107c0.7586,0.076 2.1929,0.0975 3.1463,-0.0377"/>
   </g>
   <path id="foliole_x0020_centrale_69" fill="#B9CC76" stroke="#B2B2B2" stroke-width="0.0762" d="M161.531 50.6755c-0.9803,3.1354 -3.207,6.0309 -7.243,8.3729 -4.2738,-2.2167 -6.5325,-5.1442 -7.4626,-8.3729l14.7056 0z"/>
   <path id="pétiole_70" fill="#78B43C" stroke="black" stroke-width="0.0762" d="M152.731 128.845c1.1318,0.7693 3.9047,0.229 4.1009,-0.341 -0.0731,-2.5282 -0.7621,-5.6257 -2.0831,-7.8679l-0.1263 -43.6424 -0.3284 -26.3183 -0.2935 0c-0.0051,25.8108 0.0778,58.7 0.0778,70.0891 -2.0956,1.913 -1.1277,6.6919 -1.3474,8.0805z"/>
   <rect id="_77282360" fill="none" stroke="#B2B2B2" stroke-width="0.0762" x="140.477" y="50.6755" width="27.5973" height="79.5676"/>
   <g id="interpet">
    <path id="_66373264" fill="#78B43C" stroke="black" stroke-width="0.0762" d="M154.033 128.815c0.0528,-1.1322 0.4231,-2.5049 0.7512,-3.2631 0.3821,-0.9407 0.8753,-3.6495 0.9057,-4.6564 0.0402,-1.3351 -0.0392,0.5212 0.3622,1.4625 0.4035,0.8102 1.009,1.5727 1.0154,3.7676 -0.025,2.0755 -0.0667,1.8026 -0.1608,2.1994 -0.706,1.8716 -2.6274,1.3402 -3.0435,1.2893 0.0851,-0.2505 0.1541,-0.4177 0.1698,-0.7993z"/>
    <path id="_66624664" fill="#99FF00" fill-opacity="0.501961" stroke="black" stroke-width="0.0762" stroke-dasharray="0.762000 0.228600" stroke-opacity="0.501961" d="M152.763 122.323c0.4321,-0.6042 0.8857,-1.9801 1.1841,-2.9191 0.3255,1.3829 0.613,1.4953 0.9567,2.1269 0.2864,0.5082 0.9159,2.2459 0.7775,3.2619 -0.2018,0.3175 -0.2231,0.2963 -0.2671,0.7746 -0.7397,-0.1138 -1.6664,1.7168 -2.2132,2.227 0.2136,-0.9117 -0.2906,-3.0933 -0.4354,-3.8104 -0.0011,-0.7291 -0.0042,-0.5782 -0.0026,-1.6609z"/>
    <path id="_66832208" fill="#99FF00" fill-opacity="0.360784" stroke="black" stroke-width="0.0762" stroke-dasharray="0.762000 0.228600" stroke-opacity="0.360784" d="M156.011 122.252c0.1627,1.3047 0.3249,2.1375 0.3632,3.63 -0.037,0.2916 -0.0588,0.4608 -0.0933,0.6102 -0.02,0.1021 0.6259,0.3307 0.6261,1.8326 0.2051,-0.8533 0.1571,-2.5819 0.1338,-2.933 -0.1031,-1.5526 -0.5862,-2.2652 -1.0298,-3.1398z"/>
    <path id="_77080896" fill="#78B43C" stroke="black" stroke-width="0.0762" d="M152.678 128.733c0.4621,0.6006 0.8781,0.877 1.1856,0.8813 0.2691,-2.1021 -0.669,-4.8032 -1.0999,-7.2914 -0.6174,3.3934 -0.413,4.769 -0.0857,6.4101z"/>
    <path id="_78088072" fill="#78B43C" fill-opacity="0.501961" stroke="black" stroke-width="0.0762" stroke-dasharray="0.762000 0.228600" stroke-opacity="0.501961" d="M152.678 128.733c0.3997,-0.8038 1.0562,-1.6011 1.0562,-1.6011 -0.0511,0.5924 -0.0978,1.7615 -0.2781,2.1712 -0.185,0.0277 -0.7155,-0.3217 -0.7781,-0.5701z"/>
   </g>
  </g>
  <g id="Rachis_Winged" onclick="parent.replacechar('Rachis_Winged')" onmousemove="parent.showtooltip('Rachis_Winged', 'Rachis winged')" onmouseout="parent.hidetooltip('Rachis_Winged')" cursor="pointer" >
   <g id="foliole_71">
    <path id="f_x0020_droite1_72" fill="#B9CC76" stroke="#B2B2B2" stroke-width="0.0762" d="M134.039 72.6946c-2.4906,2.6739 -5.9954,4.1552 -10.8489,3.4354 -6.4096,-10.8814 2.7132,-19.1145 10.8489,-23.8544l0 20.419z"/>
    <path id="nervure_73" fill="none" stroke="#B2B2B2" stroke-width="0.0762" d="M134.039 60.568c-3.1118,5.6335 -6.6766,10.8739 -10.8597,15.5608"/>
    <path id="pétiole_x0020__74" fill="none" stroke="#B2B2B2" stroke-width="0.0762" d="M120.149 77.1646c0.8427,-0.1861 2.0812,-0.6259 3.0412,-1.0346"/>
   </g>
   <g id="foliole_75">
    <path id="f_x0020_gauche1_76" fill="#B9CC76" stroke="#B2B2B2" stroke-width="0.0762" d="M106.442 72.7267c2.4492,2.0178 5.8081,3.2959 10.3887,3.3693 6.1276,-10.9549 -2.433,-18.2667 -10.3887,-22.5785l0 19.2092z"/>
    <path id="nervure_77" fill="none" stroke="#B2B2B2" stroke-width="0.0762" d="M106.442 62.039c2.987,4.8987 6.3919,9.6053 10.354,14.0543"/>
    <path id="pétiole_x0020__78" fill="none" stroke="#B2B2B2" stroke-width="0.0762" d="M116.845 76.0708c0.7799,0.3695 2.3003,0.8041 3.3093,1.0695"/>
   </g>
   <g id="foliole_79">
    <path id="f_x0020_droite1_80" fill="#B9CC76" stroke="#B2B2B2" stroke-width="0.0762" d="M134.039 94.0602c-2.8763,1.5577 -6.3328,1.895 -10.4339,0.2336 -2.9027,-9.5656 3.2628,-15.2268 10.4339,-18.506l0 18.2724z"/>
    <path id="nervure_81" fill="none" stroke="#B2B2B2" stroke-width="0.0762" d="M134.039 85.6224c-3.2692,3.193 -6.7357,6.1064 -10.4441,8.6676"/>
    <path id="pétiole_x0020__82" fill="none" stroke="#B2B2B2" stroke-width="0.0762" d="M120.38 94.583c0.8628,0.0176 2.1862,-0.1219 3.2155,-0.293"/>
   </g>
   <g id="foliole_83">
    <path id="f_x0020_gauche1_84" fill="#B9CC76" stroke="#B2B2B2" stroke-width="0.0762" d="M106.442 92.824c2.6675,1.3429 6.0147,1.889 10.2258,1.2266 3.5385,-10.0696 -2.9356,-15.726 -10.2258,-18.9679l0 17.7413z"/>
    <path id="nervure_85" fill="none" stroke="#B2B2B2" stroke-width="0.0762" d="M106.442 84.6446c3.1223,3.3258 6.4987,6.4769 10.1912,9.4092"/>
    <path id="pétiole_x0020__86" fill="none" stroke="#B2B2B2" stroke-width="0.0762" d="M116.668 94.0506c0.8316,0.2304 2.4137,0.371 3.4533,0.4597"/>
   </g>
   <g id="foliole_87">
    <path id="f_x0020_droite1_88" fill="#B9CC76" stroke="#B2B2B2" stroke-width="0.0762" d="M134.039 112.81c-3.2795,1.2398 -6.8846,0.9946 -10.6131,-1.8357 -0.2361,-7.8043 4.7254,-11.4824 10.6131,-13.1038l0 14.9395z"/>
    <path id="nervure_89" fill="none" stroke="#B2B2B2" stroke-width="0.0762" d="M134.039 106.175c-3.4377,1.8834 -6.9719,3.5022 -10.6212,4.7933"/>
    <path id="pétiole_x0020__90" fill="none" stroke="#B2B2B2" stroke-width="0.0762" d="M120.575 110.958c0.95,0.0549 1.9415,0.0653 2.851,0.0163"/>
   </g>
   <g id="foliole_91">
    <path id="f_x0020_gauche1_92" fill="#B9CC76" stroke="#B2B2B2" stroke-width="0.0762" d="M106.442 112.816c2.9759,0.7186 6.4114,0.3581 10.3669,-1.687 0.1338,-7.9717 -4.652,-11.4845 -10.3669,-12.9048l0 14.5918z"/>
    <path id="nervure_93" fill="none" stroke="#B2B2B2" stroke-width="0.0762" d="M106.442 106.572c3.2988,1.7182 6.7352,3.2547 10.3375,4.5697"/>
    <path id="pétiole_x0020__94" fill="none" stroke="#B2B2B2" stroke-width="0.0762" d="M116.809 111.107c0.7586,0.076 2.1929,0.0975 3.1463,-0.0377"/>
   </g>
   <path id="foliole_x0020_centrale_95" fill="#B9CC76" stroke="#B2B2B2" stroke-width="0.0762" d="M127.496 50.6755c-0.9803,3.1354 -3.207,6.0309 -7.243,8.3729 -4.2738,-2.2167 -6.5325,-5.1442 -7.4626,-8.3729l14.7056 0z"/>
   <rect id="_66456080" fill="none" stroke="#B2B2B2" stroke-width="0.0762" x="106.442" y="50.6755" width="27.5973" height="79.5676"/>
   <g id="rachis">
    <path id="pétiole_96" fill="#78B43C" stroke="black" stroke-width="0.0762" d="M118.228 129.805c1.3455,-0.1203 4.165,-0.0163 4.4361,-0.0458 0.2451,-1.4984 -0.6706,-4.7404 -1.7771,-6.6028 0,-3.4031 1.9939,-10.5002 0.35,-11.1111 1.381,-8.9252 3.01,-18.2109 0.046,-16.7609 0.7239,-9.269 3.4632,-19.9463 0.2691,-18.3074 0.2136,-10.3076 1.1873,-18.8974 -0.562,-17.6991 -0.5567,-0.7461 -0.8213,-0.7349 -1.347,0.0267 -1.9494,-1.1148 -0.6218,7.3497 -0.2635,17.6256 -3.0441,-1.3574 0.2658,15.0312 0.2658,18.3675 -3.0126,-1.2437 -1.2768,8.0581 0.0912,16.7676 -1.551,0.0781 0.3825,8.9933 0.3825,11.1092 -1.0052,1.8096 -2.0304,5.1838 -1.8911,6.6305z"/>
    <path id="pétiole_97" fill="#78B43C" stroke="#B2B2B2" stroke-width="0.0762" d="M119.787 127.852c0.147,0.1897 1.0891,0.0768 1.3602,0.0473l-0.3352 -4.3007 0 -48.7975c-0.124,-9.9439 -0.2277,-17.8071 -0.3175,-24.1258 -0.2028,0 -0.2335,-0.0039 -0.4674,0 0.0274,19.5244 0.1349,49.735 0.1349,72.9236 0,1.4858 -0.1502,2.8324 -0.375,4.2531z"/>
   </g>
  </g>
  <g id="Rachis_NodeSwoll" onclick="parent.replacechar('Rachis_NodeSwoll')" onmousemove="parent.showtooltip('Rachis_NodeSwoll', 'Rachis nodes swollen')" onmouseout="parent.hidetooltip('Rachis_NodeSwoll')" cursor="pointer" >
   <g id="foliole_98">
    <path id="f_x0020_droite1_99" fill="#B9CC76" stroke="#B2B2B2" stroke-width="0.0762" d="M100.004 72.6946c-2.4906,2.6739 -5.9954,4.1552 -10.8489,3.4354 -6.4096,-10.8814 2.7132,-19.1145 10.8489,-23.8544l0 20.419z"/>
    <path id="nervure_100" fill="none" stroke="#B2B2B2" stroke-width="0.0762" d="M100.004 60.568c-3.1118,5.6335 -6.6766,10.8739 -10.8597,15.5608"/>
    <path id="pétiole_x0020__101" fill="none" stroke="#B2B2B2" stroke-width="0.0762" d="M86.1137 77.1646c0.8427,-0.1861 2.0812,-0.6259 3.0412,-1.0346"/>
   </g>
   <g id="foliole_102">
    <path id="f_x0020_gauche1_103" fill="#B9CC76" stroke="#B2B2B2" stroke-width="0.0762" d="M72.4066 72.7267c2.4492,2.0178 5.8081,3.2959 10.3887,3.3693 6.1276,-10.9549 -2.433,-18.2667 -10.3887,-22.5785l0 19.2092z"/>
    <path id="nervure_104" fill="none" stroke="#B2B2B2" stroke-width="0.0762" d="M72.4066 62.039c2.987,4.8987 6.3919,9.6053 10.354,14.0543"/>
    <path id="pétiole_x0020__105" fill="none" stroke="#B2B2B2" stroke-width="0.0762" d="M82.8094 76.0708c0.7799,0.3695 2.3003,0.8041 3.3093,1.0695"/>
   </g>
   <g id="foliole_106">
    <path id="f_x0020_droite1_107" fill="#B9CC76" stroke="#B2B2B2" stroke-width="0.0762" d="M100.004 94.0602c-2.8763,1.5577 -6.3328,1.895 -10.4339,0.2336 -2.9027,-9.5656 3.2628,-15.2268 10.4339,-18.506l0 18.2724z"/>
    <path id="nervure_108" fill="none" stroke="#B2B2B2" stroke-width="0.0762" d="M100.004 85.6224c-3.2692,3.193 -6.7357,6.1064 -10.4441,8.6676"/>
    <path id="pétiole_x0020__109" fill="none" stroke="#B2B2B2" stroke-width="0.0762" d="M86.3443 94.583c0.8628,0.0176 2.1862,-0.1219 3.2155,-0.293"/>
   </g>
   <g id="foliole_110">
    <path id="f_x0020_gauche1_111" fill="#B9CC76" stroke="#B2B2B2" stroke-width="0.0762" d="M72.4066 92.824c2.6675,1.3429 6.0147,1.889 10.2258,1.2266 3.5385,-10.0696 -2.9356,-15.726 -10.2258,-18.9679l0 17.7413z"/>
    <path id="nervure_112" fill="none" stroke="#B2B2B2" stroke-width="0.0762" d="M72.4066 84.6446c3.1223,3.3258 6.4987,6.4769 10.1912,9.4092"/>
    <path id="pétiole_x0020__113" fill="none" stroke="#B2B2B2" stroke-width="0.0762" d="M82.6323 94.0506c0.8316,0.2304 2.4137,0.371 3.4533,0.4597"/>
   </g>
   <g id="foliole_114">
    <path id="f_x0020_droite1_115" fill="#B9CC76" stroke="#B2B2B2" stroke-width="0.0762" d="M100.004 112.81c-3.2795,1.2398 -6.8846,0.9946 -10.6131,-1.8357 -0.2361,-7.8043 4.7254,-11.4824 10.6131,-13.1038l0 14.9395z"/>
    <path id="nervure_116" fill="none" stroke="#B2B2B2" stroke-width="0.0762" d="M100.004 106.175c-3.4377,1.8834 -6.9719,3.5022 -10.6212,4.7933"/>
    <path id="pétiole_x0020__117" fill="none" stroke="#B2B2B2" stroke-width="0.0762" d="M86.5399 110.958c0.95,0.0549 1.9415,0.0653 2.851,0.0163"/>
   </g>
   <g id="foliole_118">
    <path id="f_x0020_gauche1_119" fill="#B9CC76" stroke="#B2B2B2" stroke-width="0.0762" d="M72.4066 112.816c2.9759,0.7186 6.4114,0.3581 10.3669,-1.687 0.1338,-7.9717 -4.652,-11.4845 -10.3669,-12.9048l0 14.5918z"/>
    <path id="nervure_120" fill="none" stroke="#B2B2B2" stroke-width="0.0762" d="M72.4066 106.572c3.2988,1.7182 6.7352,3.2547 10.3375,4.5697"/>
    <path id="pétiole_x0020__121" fill="none" stroke="#B2B2B2" stroke-width="0.0762" d="M82.7739 111.107c0.7586,0.076 2.1929,0.0975 3.1463,-0.0377"/>
   </g>
   <path id="foliole_x0020_centrale_122" fill="#B9CC76" stroke="#B2B2B2" stroke-width="0.0762" d="M93.4609 50.6755c-0.9803,3.1354 -3.207,6.0309 -7.243,8.3729 -4.2738,-2.2167 -6.5325,-5.1442 -7.4626,-8.3729l14.7056 0z"/>
   <rect id="_77203280" fill="none" stroke="#B2B2B2" stroke-width="0.0762" x="72.4066" y="50.6755" width="27.5973" height="79.5676"/>
   <path id="pétiole_123" fill="#78B43C" stroke="black" stroke-width="0.0762" d="M83.9727 129.804c1.4373,-0.2593 4.1712,-0.0169 4.4362,-0.0457 0.1385,-1.6844 -0.5963,-4.3475 -1.8483,-6.6224 0,-3.5351 -0.0083,-5.519 -0.0083,-9.0542 1.5728,-1.6318 2.3598,-3.1403 0,-6.4699 0,-3.5571 0,-7.1143 0,-10.6715 1.7917,-1.3346 1.4956,-3.2359 0,-4.871 0,-4.2036 0,-8.4073 0,-12.611 1.8444,-2.1712 1.4048,-3.9321 -0.0396,-5.6398 -0.0963,-7.719 -0.1925,-15.4241 -0.2888,-23.1432 0,0 -0.2935,0.0001 -0.293,0.0042 -0.0014,7.1334 -0.0032,15.1078 -0.0049,23.1575 -1.9894,2.0657 -1.4725,4.0676 -0.0012,5.6214 -0.0009,4.2771 -0.002,8.5252 -0.0028,12.6293 -1.9903,1.8435 -1.2357,3.7215 -0.0009,4.9274 -0.0007,3.7653 -0.0013,7.356 -0.0019,10.6719 -2.1032,3.0828 -1.7592,4.3929 -0.0011,6.3978 -0.0006,4.4796 -0.1018,6.6235 -0.0541,9.0886 -0.5279,1.013 -1.8275,3.8902 -1.8913,6.6306z"/>
  </g>
  <g id="Rachis_PetSwoll" onclick="parent.replacechar('Rachis_PetSwoll')" onmousemove="parent.showtooltip('Rachis_PetSwoll', 'Base and top of petiolules swollen')" onmouseout="parent.hidetooltip('Rachis_PetSwoll')" cursor="pointer" >
   <g id="petiolules">
    <path id="petiolule" fill="#78B43C" stroke="black" stroke-width="0.0762" d="M57.5412 74.8568c0.7778,0.1814 1.4049,0.1316 2.0983,0.1439 0.0734,0.6829 0.1305,1.3268 -1.9372,1.1295 -1.4507,1.197 -1.7554,2.6538 -3.4869,3.7316 0.8999,3.2564 -1.4375,3.7097 -1.6502,2.7557l-0.0125 -2.3916c1.6629,-1.7897 3.3257,-3.5794 4.9885,-5.3691z"/>
    <path id="petiolule_124" fill="#78B43C" stroke="black" stroke-width="0.0762" d="M46.8823 74.5724c-0.7918,0.1814 -1.4301,0.1316 -2.1359,0.1439 -0.0748,0.6829 -0.1328,1.3268 1.9719,1.1295 1.4768,1.197 1.7869,2.6538 3.5495,3.7316 -0.9161,3.2564 1.4632,3.7097 1.6798,2.7557l0.0127 -2.3916c-1.6927,-1.7897 -3.3854,-3.5794 -5.078,-5.3691z"/>
    <path id="petiolule_125" fill="#78B43C" stroke="black" stroke-width="0.0762" d="M59.3647 92.6845c0.5907,0.5375 1.1624,0.7998 1.7618,1.1486 -0.2688,0.632 -0.5329,1.222 -2.242,0.0417 -1.8503,0.3379 -2.8265,1.4612 -4.8637,1.5581 -0.0435,2.2242 -2.147,3.8046 -1.6291,2.1906l-0.0001 -2.6833c2.3244,-0.7519 4.6487,-1.5038 6.9731,-2.2557z"/>
    <path id="petiolule_126" fill="#78B43C" stroke="black" stroke-width="0.0762" d="M44.8963 91.9402c-0.5907,0.5375 -1.1624,0.7998 -1.7618,1.1486 0.2688,0.632 0.5329,1.222 2.242,0.0417 1.8503,0.3379 2.8265,1.4612 4.8637,1.5581 0.0435,2.2242 2.147,3.8046 1.6291,2.1906l0.0001 -2.6833c-2.3244,-0.7519 -4.6487,-1.5038 -6.9731,-2.2557z"/>
    <path id="petiolule_127" fill="#78B43C" stroke="black" stroke-width="0.0762" d="M59.5002 109.095c0.5907,0.5375 1.1624,0.7998 1.7618,1.1486 -0.2688,0.632 -0.5329,1.222 -2.242,0.0417 -1.8503,0.3379 -2.8265,1.4612 -4.8637,1.5581 -0.0435,2.2242 -2.147,3.8046 -1.6291,2.1906l-0.0001 -2.6833c2.3244,-0.7519 4.6487,-1.5038 6.9731,-2.2557z"/>
    <path id="petiolule_128" fill="#78B43C" stroke="black" stroke-width="0.0762" d="M44.9057 109.432c-0.5907,0.5375 -1.1624,0.7998 -1.7618,1.1486 0.2688,0.632 0.5329,1.222 2.242,0.0417 1.8503,0.3379 2.8265,1.4612 4.8637,1.5581 0.0435,2.2242 2.147,3.8046 1.6291,2.1906l0.0001 -2.6833c-2.3244,-0.7519 -4.6487,-1.5038 -6.9731,-2.2557z"/>
   </g>
   <g id="foliole_129">
    <path id="f_x0020_droite1_130" fill="#B9CC76" stroke="#B2B2B2" stroke-width="0.0762" d="M65.9686 72.6946c-2.4906,2.6739 -5.9954,4.1552 -10.8489,3.4354 -6.4096,-10.8814 2.7132,-19.1145 10.8489,-23.8544l0 20.419z"/>
    <path id="petiolule_x0020_f_x0020_doite1" fill="none" stroke="#B2B2B2" stroke-width="0.0762" d="M65.9686 60.568c-3.1118,5.6335 -6.6766,10.8739 -10.8597,15.5608"/>
   </g>
   <g id="foliole_131">
    <path id="f_x0020_gauche1_132" fill="#B9CC76" stroke="#B2B2B2" stroke-width="0.0762" d="M38.3713 72.7267c2.4492,2.0178 5.8081,3.2959 10.3887,3.3693 6.1276,-10.9549 -2.433,-18.2667 -10.3887,-22.5785l0 19.2092z"/>
    <path id="petiolule_x0020_f_x0020_gauche1" fill="none" stroke="#B2B2B2" stroke-width="0.0762" d="M38.3713 62.039c2.987,4.8987 6.3919,9.6053 10.354,14.0543"/>
   </g>
   <g id="foliole_133">
    <path id="f_x0020_droite1_134" fill="#B9CC76" stroke="#B2B2B2" stroke-width="0.0762" d="M65.9686 94.0602c-2.8763,1.5577 -6.3328,1.895 -10.4339,0.2336 -2.9027,-9.5656 3.2628,-15.2268 10.4339,-18.506l0 18.2724z"/>
    <path id="petiolule_x0020_f_x0020_doite1_135" fill="none" stroke="#B2B2B2" stroke-width="0.0762" d="M65.9686 85.6224c-3.2692,3.193 -6.7357,6.1064 -10.4441,8.6676"/>
   </g>
   <g id="foliole_136">
    <path id="f_x0020_gauche1_137" fill="#B9CC76" stroke="#B2B2B2" stroke-width="0.0762" d="M38.3713 92.824c2.6675,1.3429 6.0147,1.889 10.2258,1.2266 3.5385,-10.0696 -2.9356,-15.726 -10.2258,-18.9679l0 17.7413z"/>
    <path id="petiolule_x0020_f_x0020_gauche1_138" fill="none" stroke="#B2B2B2" stroke-width="0.0762" d="M38.3713 84.6446c3.1223,3.3258 6.4987,6.4769 10.1912,9.4092"/>
   </g>
   <g id="foliole_139">
    <path id="f_x0020_droite1_140" fill="#B9CC76" stroke="#B2B2B2" stroke-width="0.0762" d="M65.9686 112.81c-3.2795,1.2398 -6.8846,0.9946 -10.6131,-1.8357 -0.2361,-7.8043 4.7254,-11.4824 10.6131,-13.1038l0 14.9395z"/>
    <path id="petiolule_x0020_f_x0020_doite1_141" fill="none" stroke="#B2B2B2" stroke-width="0.0762" d="M65.9686 106.175c-3.4377,1.8834 -6.9719,3.5022 -10.6212,4.7933"/>
   </g>
   <g id="foliole_142">
    <path id="f_x0020_gauche1_143" fill="#B9CC76" stroke="#B2B2B2" stroke-width="0.0762" d="M38.3713 112.816c2.9759,0.7186 6.4114,0.3581 10.3669,-1.687 0.1338,-7.9717 -4.652,-11.4845 -10.3669,-12.9048l0 14.5918z"/>
    <path id="petiolule_x0020_f_x0020_gauche1_144" fill="none" stroke="#B2B2B2" stroke-width="0.0762" d="M38.3713 106.572c3.2988,1.7182 6.7352,3.2547 10.3375,4.5697"/>
   </g>
   <path id="foliole_x0020_centrale_145" fill="#B9CC76" stroke="#B2B2B2" stroke-width="0.0762" d="M59.4256 50.6755c-0.9803,3.1354 -3.207,6.0309 -7.243,8.3729 -4.2738,-2.2167 -6.5325,-5.1442 -7.4626,-8.3729l14.7056 0z"/>
   <rect id="_66390864" fill="none" stroke="#B2B2B2" stroke-width="0.0762" x="38.3713" y="50.6755" width="27.5973" height="79.5676"/>
   <path id="pétiole_146" fill="#78B43C" stroke="black" stroke-width="0.0762" d="M49.9375 129.804c0.9246,-0.2587 4.1712,-0.0235 4.4362,-0.0457 0.4056,-0.8763 -0.7093,-4.7972 -1.8484,-6.6224l-0.0615 -33.7692 -0.4626 -38.2523c0,12.2751 -0.1725,59.7838 -0.1725,72.0591 -1.2271,1.9252 -2.1931,6.4812 -1.8912,6.6305z"/>
  </g>
  <g id="Rachis_No" onclick="parent.replacechar('Rachis_No')" onmousemove="parent.showtooltip('Rachis_No', 'Rachis without special structures')" onmouseout="parent.hidetooltip('Rachis_No')" cursor="pointer" >
   <g id="foliole_147">
    <path id="f_x0020_droite1_148" fill="#B9CC76" stroke="#B2B2B2" stroke-width="0.0762" d="M31.9334 72.6946c-2.4906,2.6739 -5.9954,4.1552 -10.8489,3.4354 -6.4096,-10.8814 2.7132,-19.1145 10.8489,-23.8544l0 20.419z"/>
    <path id="petiolule_x0020_f_x0020_doite1_149" fill="none" stroke="#B2B2B2" stroke-width="0.0762" d="M31.9334 60.568c-3.1118,5.6335 -6.6766,10.8739 -10.8597,15.5608"/>
    <path id="pétiole_x0020__150" fill="none" stroke="#B2B2B2" stroke-width="0.0762" d="M18.0432 77.1646c0.8427,-0.1861 2.0812,-0.6259 3.0412,-1.0346"/>
   </g>
   <g id="foliole_151">
    <path id="f_x0020_gauche1_152" fill="#B9CC76" stroke="#B2B2B2" stroke-width="0.0762" d="M4.3361 72.7267c2.4492,2.0178 5.8081,3.2959 10.3887,3.3693 6.1276,-10.9549 -2.433,-18.2667 -10.3887,-22.5785l0 19.2092z"/>
    <path id="petiolule_x0020_f_x0020_gauche1_153" fill="none" stroke="#B2B2B2" stroke-width="0.0762" d="M4.3361 62.039c2.987,4.8987 6.3919,9.6053 10.354,14.0543"/>
    <path id="pétiole_x0020__154" fill="none" stroke="#B2B2B2" stroke-width="0.0762" d="M14.7389 76.0708c0.7799,0.3695 2.3003,0.8041 3.3093,1.0695"/>
   </g>
   <g id="foliole_155">
    <path id="f_x0020_droite1_156" fill="#B9CC76" stroke="#B2B2B2" stroke-width="0.0762" d="M31.9334 94.0602c-2.8763,1.5577 -6.3328,1.895 -10.4339,0.2336 -2.9027,-9.5656 3.2628,-15.2268 10.4339,-18.506l0 18.2724z"/>
    <path id="petiolule_x0020_f_x0020_doite1_157" fill="none" stroke="#B2B2B2" stroke-width="0.0762" d="M31.9334 85.6224c-3.2692,3.193 -6.7357,6.1064 -10.4441,8.6676"/>
    <path id="pétiole_x0020__158" fill="none" stroke="#B2B2B2" stroke-width="0.0762" d="M18.2738 94.583c0.8628,0.0176 2.1862,-0.1219 3.2155,-0.293"/>
   </g>
   <g id="foliole_159">
    <path id="f_x0020_gauche1_160" fill="#B9CC76" stroke="#B2B2B2" stroke-width="0.0762" d="M4.3361 92.824c2.6675,1.3429 6.0147,1.889 10.2258,1.2266 3.5385,-10.0696 -2.9356,-15.726 -10.2258,-18.9679l0 17.7413z"/>
    <path id="petiolule_x0020_f_x0020_gauche1_161" fill="none" stroke="#B2B2B2" stroke-width="0.0762" d="M4.3361 84.6446c3.1223,3.3258 6.4987,6.4769 10.1912,9.4092"/>
    <path id="pétiole_x0020__162" fill="none" stroke="#B2B2B2" stroke-width="0.0762" d="M14.5618 94.0506c0.8316,0.2304 2.4137,0.371 3.4533,0.4597"/>
   </g>
   <g id="foliole_163">
    <path id="f_x0020_droite1_164" fill="#B9CC76" stroke="#B2B2B2" stroke-width="0.0762" d="M31.9334 112.81c-3.2795,1.2398 -6.8846,0.9946 -10.6131,-1.8357 -0.2361,-7.8043 4.7254,-11.4824 10.6131,-13.1038l0 14.9395z"/>
    <path id="petiolule_x0020_f_x0020_doite1_165" fill="none" stroke="#B2B2B2" stroke-width="0.0762" d="M31.9334 106.175c-3.4377,1.8834 -6.9719,3.5022 -10.6212,4.7933"/>
    <path id="pétiole_x0020__166" fill="none" stroke="#B2B2B2" stroke-width="0.0762" d="M18.4694 110.958c0.95,0.0549 1.9415,0.0653 2.851,0.0163"/>
   </g>
   <g id="foliole_167">
    <path id="f_x0020_gauche1_168" fill="#B9CC76" stroke="#B2B2B2" stroke-width="0.0762" d="M4.3361 112.816c2.9759,0.7186 6.4114,0.3581 10.3669,-1.687 0.1338,-7.9717 -4.652,-11.4845 -10.3669,-12.9048l0 14.5918z"/>
    <path id="petiolule_x0020_f_x0020_gauche1_169" fill="none" stroke="#B2B2B2" stroke-width="0.0762" d="M4.3361 106.572c3.2988,1.7182 6.7352,3.2547 10.3375,4.5697"/>
    <path id="pétiole_x0020__170" fill="none" stroke="#B2B2B2" stroke-width="0.0762" d="M14.7034 111.107c0.7586,0.076 2.1929,0.0975 3.1463,-0.0377"/>
   </g>
   <path id="foliole_x0020_centrale_171" fill="#B9CC76" stroke="#B2B2B2" stroke-width="0.0762" d="M25.3904 50.6755c-0.9803,3.1354 -3.207,6.0309 -7.243,8.3729 -4.2738,-2.2167 -6.5325,-5.1442 -7.4626,-8.3729l14.7056 0z"/>
   <rect id="_67135376" fill="none" stroke="#B2B2B2" stroke-width="0.0762" x="4.33613" y="50.6755" width="27.5973" height="79.5676"/>
   <path id="pétiole_172" fill="#78B43C" stroke="black" stroke-width="0.0762" d="M15.9023 129.804c0.9246,-0.2587 4.1712,-0.0235 4.4362,-0.0457 0.4056,-0.8763 -0.7093,-4.7972 -1.8484,-6.6224l-0.0615 -33.7692 -0.4626 -38.2523c0,12.2751 -0.1725,59.7838 -0.1725,72.0591 -1.2271,1.9252 -2.1931,6.4812 -1.8912,6.6305z"/>
  </g>
 </g>
<image xlink:href="tick.gif" id="imgtick" x="-100" y="-100" width="15" height="15"/>
<rect id="recttooltip" x="-100" y="-100" width="55" height="6" fill-opacity="0.4" pointer-events="none"/>
<text id="textboxid" x="-100" y="-100" pointer-events="none"> </text>
</a></svg>
