<?xml version="1.0" encoding="UTF-8"?>
<!DOCTYPE svg PUBLIC "-//W3C//DTD SVG 1.1//EN" "http://www.w3.org/Graphics/SVG/1.1/DTD/svg11.dtd">
<!-- Creator: CorelDRAW -->
<svg xmlns="http://www.w3.org/2000/svg" xml:space="preserve" shape-rendering="geometricPrecision" text-rendering="geometricPrecision" image-rendering="optimizeQuality" fill-rule="evenodd" clip-rule="evenodd"
viewBox="0 0 240 180"
 xmlns:xlink="http://www.w3.org/1999/xlink">
<a>
 <g id="Layer_x0020_1">
  <metadata id="CorelCorpID_0Corel-Layer"/>
  <rect fill="none" transform="matrix(3.24291E-013 -17.1512 10.3131 3.82591E-013 -1.55692E-005 180)" width="10.4949" height="23.2713"/>
  <g id="Bk_Buttresses" onclick="parent.replacechar('Bk_Buttresses')" onmousemove="parent.showtooltip('Bk_Buttresses', 'Buttresses')" onmouseout="parent.hidetooltip('Bk_Buttresses')" cursor="pointer" >
   <g id="rien">
    <polygon id="_66745624" fill="#625F5E" stroke="#625F5E" stroke-width="0.0762" stroke-linejoin="bevel" points="127.584,157.48 234,157.48 "/>
    <path id="_76549928" fill="#63A342" stroke="#625F5E" stroke-width="0.0762" stroke-linejoin="bevel" d="M232.243 30.6582c3.7437,8.7906 0.5474,20.5285 -6.0781,20.3405 -13.4928,-12.4286 -11.8563,25.7034 -33.7316,4.0298 -13.8892,11.4037 -8.0849,20.8277 -27.3817,-1.298 -5.5712,19.0811 -26.0875,-7.9435 -30.7504,-1.5242 -7.0565,-7.1952 -12.2642,-9.7005 -7.178,-21.7265l105.12 0.1784z"/>
    <path id="_65739688" fill="#F1D145" stroke="#A8A8A7" stroke-width="0.0762" stroke-linejoin="bevel" d="M169.426 157.48l14.813 0c0.4461,-67.334 -4.9015,-60.3847 -2.6197,-85.7207 8.0858,-16.3897 15.7903,-20.584 27.993,-26.3891 4.7408,-3.3107 11.2774,-11.3737 10.9595,-14.7314 -5.258,5.4632 -13.2946,14.9432 -27.4186,19.8536 5.3574,-6.1106 10.393,-17.7865 12.5238,-19.8768l-4.6713 -0.01c-7.4444,14.3867 -8.5727,16.3649 -19.3864,28.8613 -0.5454,-13.931 -1.0813,-5.806 -0.5701,-28.882l-4.9356 -0.0208 -0.565 26.3984c0.9801,0.6662 1.2712,0.9691 2.0282,1.6772 -12.6167,-12.7219 -21.725,-27.2052 -22.5916,-28.1124l-4.9964 -0.0071c8.0811,7.0821 8.1983,11.3969 13.9031,17.543 -20.7571,-0.2685 -18.4988,-12.1981 -24.6734,-17.5626 3.0766,11.3604 8.442,16.7409 15.6902,19.8072 7.3915,1.7756 17.7818,9.9787 20.2127,21.7934 -0.8437,29.0914 -4.4548,51.1648 -5.6954,85.3788z"/>
   </g>
   <path id="_77820784" fill="#EE9719" stroke="#1F1A17" stroke-width="0.0762" stroke-linejoin="bevel" d="M171.365 125.369c-7.735,18.6845 -39.2645,24.577 -39.1142,32.0603 5.4244,-2.1594 17.4291,0.3014 17.7804,-0.1005 3.1646,-10.7982 8.4862,-11.308 20.0385,-13.5181l1.2953 -18.4417z"/>
   <path id="_77227248" fill="#EE9719" stroke="#1F1A17" stroke-width="0.0762" stroke-linejoin="bevel" d="M184.072 130.828c31.8439,25.6157 46.3158,8.2015 46.7177,29.2462 0.2009,-0.4517 -12.6074,-4.0182 -19.2872,0.151 -6.6805,-15.7713 -17.9713,-0.4355 -27.2635,-2.7459l-0.167 -26.6513z"/>
   <path id="_76955912" fill="#EE9719" stroke="#1F1A17" stroke-width="0.0762" stroke-linejoin="bevel" d="M177.696 134.11c-14.315,26.3687 -26.9721,15.821 -25.4654,32.6476 8.4888,-1.2056 11.201,1.3556 12.7079,-0.201 1.3059,-19.7396 10.2462,-4.3195 14.5658,-13.7124l-1.8083 -18.7342z"/>
  </g>
  <g id="Bk_Stiltroots" onclick="parent.replacechar('Bk_Stiltroots')" onmousemove="parent.showtooltip('Bk_Stiltroots', 'Stilt roots')" onmouseout="parent.hidetooltip('Bk_Stiltroots')" cursor="pointer" >
   <path id="_78181720" fill="#EE9719" stroke="#1F1A17" stroke-width="0.0762" stroke-linejoin="bevel" d="M54.1452 129.09c-6.936,10.3391 -12.3303,6.7426 -16.4406,10.0184 -2.1196,1.5414 -6.1571,5.9771 -7.8916,18.3712 1.3316,-0.0003 1.4301,0.1561 2.8151,0 1.0922,-5.1377 1.9293,-12.2059 5.1402,-14.6464 6.7438,-5.1377 11.0461,0.5138 16.9541,-8.0279l-0.5772 -5.7153z"/>
   <path id="_76626360" fill="#EE9719" stroke="#1F1A17" stroke-width="0.0762" stroke-linejoin="bevel" d="M65.8717 113.136c18.9095,21.6662 30.2677,23.0619 30.6695,44.0062 -0.7925,0.3378 -1.2859,0.4342 -2.6254,0.3378 1.155,-21.9488 -24.6111,-29.9119 -27.5748,-32.825l-0.4693 -11.519z"/>
   <path id="_66899232" fill="#EE9719" stroke="#1F1A17" stroke-width="0.0762" stroke-linejoin="bevel" d="M66.5914 143.035c3.8671,5.1738 14.5658,5.6761 14.0129,13.7125 -0.4018,0.9041 -1.1549,0.7032 -1.9087,0.351 1.7078,-6.981 -9.2916,-9.4925 -12.3557,-10.5973l0.2515 -3.4662z"/>
   <path id="_77758424" fill="#EE9719" stroke="#1F1A17" stroke-width="0.0762" stroke-linejoin="bevel" d="M66.7098 133.814c3.7168,6.228 7.2826,5.6752 14.3649,8.8897 4.8716,2.562 7.4336,8.9498 7.4336,14.776 -0.9052,0 -1.457,0 -2.1096,0 -0.4524,-11.3014 -9.6941,-15.5289 -19.8898,-15.5795l0.2009 -8.0862z"/>
   <g>
    <polygon id="_65763208" fill="#625F5E" stroke="#625F5E" stroke-width="0.0762" stroke-linejoin="bevel" points="10.0705,157.48 116.486,157.48 "/>
    <path id="_45415200" fill="#63A342" stroke="#625F5E" stroke-width="0.0762" stroke-linejoin="bevel" d="M114.729 30.6582c3.7436,8.7906 0.5473,20.5285 -6.0781,20.3405 -13.4928,-12.4286 -11.8563,25.7034 -33.7316,4.0298 -13.8892,11.4037 -8.0849,20.8277 -27.3818,-1.298 -5.5712,19.0811 -26.0874,-7.9435 -30.7503,-1.5242 -7.0566,-7.1952 -12.2642,-9.7005 -7.1781,-21.7265l105.12 0.1784z"/>
    <path id="_67140184" fill="#F1D145" stroke="#A8A8A7" stroke-width="0.0762" stroke-linejoin="bevel" d="M51.9121 157.48l14.8129 0c0.4462,-67.334 -4.9014,-60.3847 -2.6196,-85.7207 8.0858,-16.3897 15.7902,-20.584 27.993,-26.3891 4.7408,-3.3106 11.2774,-11.3737 10.9595,-14.7314 -5.2581,5.4632 -13.2946,14.9432 -27.4187,19.8536 5.3575,-6.1105 10.393,-17.7865 12.5238,-19.8768l-4.6713 -0.0099c-7.4443,14.3866 -8.5726,16.3648 -19.3863,28.8613 -0.5454,-13.9311 -1.0813,-5.8061 -0.5701,-28.8821l-4.9357 -0.0207 -0.5649 26.3983c0.98,0.6663 1.2712,0.9692 2.0282,1.6772 -12.6167,-12.7219 -21.725,-27.2052 -22.5917,-28.1124l-4.9963 -0.0071c8.0811,7.0821 8.1983,11.3969 13.9031,17.543 -20.7572,-0.2685 -18.4988,-12.1981 -24.6734,-17.5625 3.0766,11.3603 8.4419,16.7408 15.6901,19.8071 7.3916,1.7757 17.7819,9.9787 20.2128,21.7934 -0.8437,29.0914 -4.4549,51.1648 -5.6954,85.3788z"/>
   </g>
   <path id="_76987192" fill="#EE9719" stroke="#1F1A17" stroke-width="0.0762" stroke-linejoin="bevel" d="M56.4406 116.881c-2.2099,9.3423 1.5574,10.9993 -14.9169,24.4102 -5.0733,4.6209 -6.1278,8.7396 -5.9775,15.8718 0.352,0.5522 2.6117,0.6028 2.9637,0.2009 0.7531,-6.5294 1.1051,-10.3467 5.575,-13.4607 3.9177,-2.8127 9.871,-5.3857 12.7343,-12.2671l-0.3786 -14.7551z"/>
   <path id="_65721368" fill="#EE9719" stroke="#1F1A17" stroke-width="0.0762" stroke-linejoin="bevel" d="M55.7021 143.006c-2.6118,4.7214 -11.3017,6.4376 -12.4573,14.4738 0.4524,0.5023 1.2572,-0.1513 2.1611,0 0.7531,-0.8543 0.5014,-4.9301 4.6201,-7.1402 2.2604,-1.4062 4.9232,-1.4575 6.7811,-4.7725l-1.105 -2.5611z"/>
   <path id="_66411848" fill="#EE9719" stroke="#1F1A17" stroke-width="0.0762" stroke-linejoin="bevel" d="M57.1233 150.779c-2.4614,0.703 -6.2666,4.1396 -6.6185,6.7008 1.457,0.5023 2.4493,-4.2401 7.824,-4.8927l-1.2055 -1.8081z"/>
   <path id="_65716592" fill="#EE9719" stroke="#1F1A17" stroke-width="0.0762" stroke-linejoin="bevel" d="M64.2797 149.67c1.7078,0.7032 10.146,3.9676 9.8446,8.1368 -2.4607,-3.7168 -7.8853,-5.0227 -9.8446,-5.9269l0 -2.2099z"/>
  </g>
 </g>
<image xlink:href="tick.gif" id="imgtick" x="-100" y="-100" width="15" height="15"/>
<rect id="recttooltip" x="-100" y="-100" width="55" height="6" fill-opacity="0.4" pointer-events="none"/>
<text id="textboxid" x="-100" y="-100" pointer-events="none"> </text>
</a></svg>
