<?xml version="1.0" encoding="UTF-8"?>
<!DOCTYPE svg PUBLIC "-//W3C//DTD SVG 1.1//EN" "http://www.w3.org/Graphics/SVG/1.1/DTD/svg11.dtd">
<!-- Creator: CorelDRAW -->
<svg xmlns="http://www.w3.org/2000/svg" xml:space="preserve" shape-rendering="geometricPrecision" text-rendering="geometricPrecision" image-rendering="optimizeQuality" fill-rule="evenodd" clip-rule="evenodd"
viewBox="0 0 240 180"
 xmlns:xlink="http://www.w3.org/1999/xlink">
<a>
 <g id="Layer_x0020_1">
  <metadata id="CorelCorpID_0Corel-Layer"/>
  <rect fill="none" transform="matrix(3.24291E-013 -17.1512 10.3131 3.82591E-013 -1.55692E-005 180)" width="10.4949" height="23.2713"/>
  <g id="SeedType_Pappus" onclick="parent.replacechar('SeedType_Pappus')" onmousemove="parent.showtooltip('SeedType_Pappus', 'Seed with pappus')" onmouseout="parent.hidetooltip('SeedType_Pappus')" cursor="pointer" >
   <g id="pappus">
     <metadata id="CorelCorpID_1">
      <odm name="Nom" value="ake_plumose" type="0"/>
     </metadata>
    <line id="_76694360" fill="none" stroke="#7F7F7F" stroke-width="0.0409" x1="193.327" y1="51.6397" x2="198.419" y2= "76.6096" />
    <line id="_77289664" fill="none" stroke="#7F7F7F" stroke-width="0.0409" x1="196.406" y1="51.1493" x2="198.87" y2= "76.6119" />
    <line id="_77206672" fill="none" stroke="#7F7F7F" stroke-width="0.0409" x1="199.518" y1="50.5627" x2="199.32" y2= "76.5594" />
    <line id="_66866288" fill="none" stroke="#7F7F7F" stroke-width="0.0409" x1="203.55" y1="51.0633" x2="199.607" y2= "76.5258" />
    <line id="_66516744" fill="none" stroke="#7F7F7F" stroke-width="0.0409" x1="206.423" y1="51.9282" x2="200.017" y2= "76.4051" />
    <line id="_76903360" fill="none" stroke="#7F7F7F" stroke-width="0.0409" x1="209.668" y1="52.8691" x2="200.469" y2= "76.1963" />
    <line id="_66426976" fill="none" stroke="#7F7F7F" stroke-width="0.0409" x1="212.504" y1="54.3868" x2="201.005" y2= "75.9068" />
    <line id="_76583696" fill="none" stroke="#7F7F7F" stroke-width="0.0409" x1="190.495" y1="52.8748" x2="198.051" y2= "76.6946" />
    <line id="_66445192" fill="none" stroke="#7F7F7F" stroke-width="0.0409" x1="187.832" y1="53.4687" x2="197.689" y2= "76.6314" />
    <line id="_66402280" fill="none" stroke="#7F7F7F" stroke-width="0.0409" x1="185.937" y1="54.7599" x2="197.436" y2= "76.6085" />
    <line id="_78614512" fill="none" stroke="#7F7F7F" stroke-width="0.0409" x1="214.435" y1="55.8229" x2="201.458" y2= "75.8643" />
    <line id="_76692248" fill="none" stroke="#7F7F7F" stroke-width="0.0409" x1="216.901" y1="56.9728" x2="201.788" y2= "75.8643" />
    <line id="_66518552" fill="none" stroke="#7F7F7F" stroke-width="0.0409" x1="183.841" y1="56.4027" x2="197.312" y2= "76.6085" />
    <line id="_77353672" fill="none" stroke="#7F7F7F" stroke-width="0.0409" x1="197.147" y1="76.5672" x2="181.376" y2= "57.8398" />
    <polyline id="_76711784" fill="none" stroke="#7F7F7F" stroke-width="0.0409" points="217.474,58.6187 201.703,76.1962 218.624,60.0971 "/>
   </g>
   <path id="Seed_nowin" fill="#D2A01E" stroke="black" stroke-width="0.0762" d="M198.946 74.913c4.0954,0 8.9299,6.1488 10.9466,19.6434 1.5491,10.3657 -2.027,18.5961 -10.2429,19.6177 -0.2317,0.0286 -0.4678,3.1539 -0.7037,3.1539 -0.472,0 -0.9373,-3.1746 -1.3986,-3.2301 -8.382,-1.0087 -11.3376,-9.4694 -10.141,-19.5415 1.5641,-13.1652 7.4441,-19.6434 11.5396,-19.6434z"/>
  </g>
  <path id="SeedType_Nowin" onclick="parent.replacechar('SeedType_Nowin')" onmousemove="parent.showtooltip('SeedType_Nowin', 'Seed not winged')" onmouseout="parent.hidetooltip('SeedType_Nowin')" cursor="pointer"  fill="#D2A01E" stroke="black" stroke-width="0.0762" d="M120.246 74.913c4.0954,0 8.9299,6.1488 10.9466,19.6434 1.5491,10.3657 -2.027,18.5961 -10.2429,19.6177 -0.2317,0.0286 -0.4678,3.1539 -0.7037,3.1539 -0.472,0 -0.9373,-3.1746 -1.3986,-3.2301 -8.382,-1.0087 -11.3376,-9.4694 -10.141,-19.5415 1.5641,-13.1652 7.4441,-19.6434 11.5396,-19.6434z"/>
  <g id="SeedType_Win" onclick="parent.replacechar('SeedType_Win')" onmousemove="parent.showtooltip('SeedType_Win', 'Seed winged')" onmouseout="parent.hidetooltip('SeedType_Win')" cursor="pointer" >
   <path id="_76549928" fill="#F2F088" stroke="#1F1A17" stroke-width="0.0762" d="M42.3757 116.603c0.9542,-0.227 0.0567,-2.6473 1.9579,-2.6601 3.4926,-0.3818 8.0332,2.0854 12.1882,2.0854 8.4943,0 3.8497,-1.4495 3.8497,-3.9549 0,-4.3467 12.6316,-5.3445 7.0754,-13.9427 -4.562,-7.0599 4.9944,-3.8664 4.9944,-12.9022 0,-0.853 -1.6325,-2.378 -2.2891,-2.9134 -6.0461,-4.9293 10.7813,-18.8117 1.4576,-24.9746 -9.5915,-6.3398 -31.029,0.2092 -42.8681,0.2092 -1.6063,0 -23.6207,-2.2909 -19.5933,1.272 1.663,1.4711 8.8471,10.9928 2.7344,13.2959 -2.8218,1.0631 -5.071,5.2813 -6.2416,8.3246 -1.2286,3.1942 6.5743,6.4126 5.8268,7.9078 -0.8444,1.689 -3.067,3.2284 -1.8738,5.5155 1.6741,3.2089 13.6491,10.4938 10.614,14.8783 -4.4204,6.3854 6.0356,-1.2672 6.0356,3.956 0,7.5667 8.9914,3.8885 13.4279,2.5575 1.1961,0.0338 2.6992,1.3468 2.704,1.3457z"/>
   <path id="noix" fill="#D2A01E" stroke="#7F7F7F" stroke-width="0.0762" d="M42.3545 73.8253c4.0954,0 8.9299,6.1488 10.9466,19.6434 1.5491,10.3657 -2.027,18.5961 -10.2429,19.6177 -0.2317,0.0286 -0.4678,3.1539 -0.7037,3.1539 -0.472,0 -0.9373,-3.1746 -1.3986,-3.2301 -8.382,-1.0087 -11.3376,-9.4694 -10.141,-19.5415 1.5641,-13.1652 7.4441,-19.6434 11.5396,-19.6434z"/>
   <path id="_78085688" fill="none" stroke="#7F7F7F" stroke-width="0.0762" d="M47.9903 111.296c4.9643,0.7635 6.9198,5.5981 10.8004,2.6134"/>
   <path id="_76898512" fill="none" stroke="#7F7F7F" stroke-width="0.0762" d="M52.3104 105.735c3.6362,0.3396 7.268,0.8356 10.8693,-0.6343"/>
   <path id="_67140184" fill="none" stroke="#7F7F7F" stroke-width="0.0762" d="M52.5622 89.3919c2.3407,-5.6177 5.696,-6.735 10.0984,-10.8226 1.8153,-1.6854 3.8594,-3.2752 5.2025,-5.4106 1.1936,-1.8979 1.8365,-4.3768 3.3296,-6.243"/>
   <path id="_66411848" fill="none" stroke="#7F7F7F" stroke-width="0.0762" d="M51.1469 84.2096c-0.3981,-1.7255 3.4549,-3.3725 4.325,-4.8229 1.746,-2.9102 3.2733,-6.8032 4.4486,-9.9647 0.5326,-1.433 1.6634,-5.7272 2.4912,-6.7618"/>
   <path id="_66444104" fill="none" stroke="#7F7F7F" stroke-width="0.0762" d="M50.2207 109.413c2.8889,0.4443 4.0269,3.2578 6.2852,1.5208"/>
   <path id="_77335432" fill="none" stroke="#7F7F7F" stroke-width="0.0762" d="M53.121 103.253c3.6512,0.0785 7.3091,0.3133 10.796,-1.4105"/>
   <path id="_77800320" fill="none" stroke="#7F7F7F" stroke-width="0.0762" d="M51.655 107.317c2.7777,1.2221 5.5109,2.5664 8.736,2.3527"/>
   <path id="_79271320" fill="none" stroke="#7F7F7F" stroke-width="0.0762" d="M53.6538 98.1305c3.3988,-1.2102 5.5433,-4.0336 8.7962,-5.2847 3.4735,-1.3361 4.7684,-2.9302 7.353,-5.5147"/>
   <path id="_76586488" fill="none" stroke="#7F7F7F" stroke-width="0.0762" d="M53.2307 93.152c2.222,-0.7912 3.6241,-2.6371 5.7508,-3.455 2.2708,-0.8735 3.1175,-1.9157 4.8072,-3.6054"/>
   <path id="_66269216" fill="none" stroke="#7F7F7F" stroke-width="0.0762" d="M53.4974 99.9007c2.0416,-0.1815 3.6231,-1.4288 5.5903,-1.6536 2.1006,-0.2401 3.0398,-0.9324 4.8293,-1.9857"/>
   <path id="_66269192" fill="none" stroke="#7F7F7F" stroke-width="0.0762" d="M49.1747 79.6684c-0.4449,-1.9281 3.8607,-3.7687 4.833,-5.3893 3.0034,-5.0064 1.7656,-13.3542 5.0407,-17.4477"/>
   <path id="_66285848" fill="none" stroke="#7F7F7F" stroke-width="0.0762" d="M45.6917 75.1372c-0.2291,-0.9931 1.9886,-1.9411 2.4894,-2.7759 1.005,-1.6751 1.884,-3.9158 2.5605,-5.7355 0.3065,-0.8247 0.9574,-3.2964 1.4338,-3.8919"/>
   <path id="_76742224" fill="none" stroke="#7F7F7F" stroke-width="0.0762" d="M36.1189 111.4c-4.1183,0.6334 -5.7405,4.6441 -8.9598,2.168"/>
   <path id="_76896464" fill="none" stroke="#7F7F7F" stroke-width="0.0762" d="M31.7988 105.839c-3.6362,0.3396 -7.268,0.8356 -10.8693,-0.6343"/>
   <path id="_77542808" fill="none" stroke="#7F7F7F" stroke-width="0.0762" d="M31.547 89.4959c-1.822,-4.3728 -4.4338,-5.2426 -7.8607,-8.4244 -1.413,-1.3119 -3.0041,-2.5494 -4.0496,-4.2116 -0.9291,-1.4773 -1.4295,-3.4069 -2.5918,-4.8596"/>
   <path id="_76666992" fill="none" stroke="#7F7F7F" stroke-width="0.0762" d="M32.965 84.3243c0.3986,-1.7274 -3.4588,-3.3762 -4.3298,-4.8282 -1.748,-2.9135 -3.2769,-6.8108 -4.4535,-9.9758 -0.5332,-1.4345 -1.6652,-5.7335 -2.494,-6.7693"/>
   <path id="_77606680" fill="none" stroke="#7F7F7F" stroke-width="0.0762" d="M33.8885 109.517c-2.8889,0.4443 -4.0269,3.2578 -6.2852,1.5208"/>
   <path id="_77054848" fill="none" stroke="#7F7F7F" stroke-width="0.0762" d="M30.9882 103.357c-3.6512,0.0785 -7.3091,0.3133 -10.796,-1.4105"/>
   <path id="_77229024" fill="none" stroke="#7F7F7F" stroke-width="0.0762" d="M32.4542 107.421c-2.7777,1.2221 -5.5109,2.5664 -8.736,2.3527"/>
   <path id="_66799088" fill="none" stroke="#7F7F7F" stroke-width="0.0762" d="M30.4554 98.2345c-3.3988,-1.2102 -5.5433,-4.0336 -8.7962,-5.2847 -3.4735,-1.3361 -4.7684,-2.9302 -7.353,-5.5147"/>
   <path id="_76445608" fill="none" stroke="#7F7F7F" stroke-width="0.0762" d="M30.8785 93.256c-2.222,-0.7912 -3.6241,-2.6371 -5.7508,-3.455 -2.2708,-0.8735 -3.1175,-1.9157 -4.8072,-3.6054"/>
   <path id="_76715592" fill="none" stroke="#7F7F7F" stroke-width="0.0762" d="M30.6118 100.005c-2.0416,-0.1815 -3.6231,-1.4288 -5.5903,-1.6536 -2.1006,-0.2401 -3.0398,-0.9324 -4.8293,-1.9857"/>
   <path id="_77230144" fill="none" stroke="#7F7F7F" stroke-width="0.0762" d="M34.9382 79.7724c0.389,-1.6857 -3.3754,-3.2949 -4.2254,-4.7118 -2.6259,-4.3771 -1.5437,-11.6755 -4.4071,-15.2545"/>
   <path id="_76636112" fill="none" stroke="#7F7F7F" stroke-width="0.0762" d="M38.5304 75.472c0.2291,-0.9931 -1.9886,-1.9411 -2.4894,-2.7759 -1.005,-1.6751 -1.884,-3.9158 -2.5605,-5.7355 -0.3065,-0.8247 -0.9574,-3.2964 -1.4338,-3.8919"/>
   <path id="_76471824" fill="none" stroke="#7F7F7F" stroke-width="0.0762" d="M42.3566 73.7653c0.6353,-0.797 -0.9561,-2.6093 -1.0476,-3.5785 -0.1836,-1.9447 -0.0096,-4.3453 0.1655,-6.2788 0.0794,-0.8763 0.559,-3.3868 0.3862,-4.1296"/>
  </g>
 </g>
<image xlink:href="tick.gif" id="imgtick" x="-100" y="-100" width="15" height="15"/>
<rect id="recttooltip" x="-100" y="-100" width="55" height="6" fill-opacity="0.4" pointer-events="none"/>
<text id="textboxid" x="-100" y="-100" pointer-events="none"> </text>
</a></svg>
