<?xml version="1.0" encoding="UTF-8"?>
<!DOCTYPE svg PUBLIC "-//W3C//DTD SVG 1.1//EN" "http://www.w3.org/Graphics/SVG/1.1/DTD/svg11.dtd">
<!-- Creator: CorelDRAW -->
<svg xmlns="http://www.w3.org/2000/svg" xml:space="preserve" shape-rendering="geometricPrecision" text-rendering="geometricPrecision" image-rendering="optimizeQuality" fill-rule="evenodd" clip-rule="evenodd"
viewBox="0 0 240 180"
 xmlns:xlink="http://www.w3.org/1999/xlink">
<a>
 <g id="Layer_x0020_1">
  <metadata id="CorelCorpID_0Corel-Layer"/>
  <rect fill="none" width="240" height="180"/>
  <g id="SeedNb_Many" onclick="parent.replacechar('SeedNb_Many')" onmousemove="parent.showtooltip('SeedNb_Many', '4 to many seeds')" onmouseout="parent.hidetooltip('SeedNb_Many')" cursor="pointer" >
   <path id="_78093576" fill="#AAAA1E" stroke="black" stroke-width="0.0762" stroke-linejoin="bevel" d="M144.359 86.6692c-10.5416,20.0826 14.1575,51.0897 36.7786,53.0139 25.0055,-5.7712 41.625,-30.239 33.3929,-55.4759l-70.1715 2.462z"/>
   <path id="_67196816" fill="#FFFA89" stroke="black" stroke-width="0.0762" stroke-linejoin="bevel" d="M180.137 94.2871c-19.3121,0 -35.9316,-5.9251 -35.9316,-8.6948 0,-2.7701 17.0812,-7.5405 36.3933,-7.5405 19.3129,0 33.4704,2.3084 33.4704,5.0782 0,2.7701 -14.6192,11.1571 -33.9321,11.1571z"/>
   <path id="_66523520" fill="#AAAA00" stroke="black" stroke-width="0.0762" stroke-linejoin="bevel" d="M144.821 73.1275c2.2309,-13.6955 10.8483,-16.3878 19.0818,-30.9302 10.0024,0.3852 27.9295,-4.2312 39.3944,6.3089l-58.4762 24.6213z"/>
   <path id="_77853360" fill="#4EB148" stroke="black" stroke-width="0.0762" stroke-linejoin="bevel" d="M180.906 144.146c-0.6153,-0.2313 -0.23,-1.8463 -0.9995,-2.8472 -2.4623,-0.9998 -7.464,-1.3075 -9.4646,-5.3859 0.6934,-1.7693 1.5389,2.7697 10.2341,1.8464 2.9236,-0.6156 3.2314,-3.3079 6.8471,-4.3851 1.385,0.9997 -2.8462,3.0778 -1.6925,4.3851 1.4625,1.6164 4.6939,-2.7698 5.5398,-0.7695 -4.2312,3.6935 -5.5398,4.4629 -6.5396,4.6943 -1.0773,4.2312 -3.4632,2.8462 -3.9248,2.4619z"/>
   <path id="_78184376" fill="#FFFA89" stroke="black" stroke-width="0.0762" stroke-linejoin="bevel" d="M178.983 71.82c-14.7728,5.3859 -32.1618,9.9249 -34.1624,4.0773 -1.9242,-5.6159 11.7716,-16.6192 26.5444,-22.0051 14.7732,-5.3081 30.3929,-10.7719 33.0852,-3.3853 2.6936,7.3865 -10.6945,15.9271 -25.4672,21.3131z"/>
   <path id="_77226560" fill="red" stroke="black" stroke-width="0.0762" stroke-linejoin="bevel" d="M186.827 89.6753c-3.0591,-2.0427 -4.7629,-5.0205 -3.6346,-6.758 1.202,-1.7137 4.6123,-1.2563 7.6475,0.8589 3.1327,2.0665 4.8603,4.971 3.6344,6.7584 -1.1278,1.7373 -4.5146,1.2061 -7.6473,-0.8593z"/>
   <path id="_27682440" fill="red" stroke="black" stroke-width="0.0762" stroke-linejoin="bevel" d="M186.511 81.2638c-2.8461,-0.7694 -4.8468,-2.6922 -4.3851,-4.3851 0.4617,-1.7703 3.0775,-2.5397 5.9241,-1.8467 2.9236,0.692 4.9242,2.6162 4.4625,4.4626 -0.4616,1.6928 -3.0778,2.4623 -6.0015,1.7692z"/>
   <path id="_77860024" fill="red" stroke="black" stroke-width="0.0762" stroke-linejoin="bevel" d="M175.136 94.3635c-2.3859,0.0775 -5.6938,-1.5389 -1.8468,-3 2.3084,-0.847 4.6929,-0.6156 5.1546,0.6155 0.4617,1.2312 -0.8459,2.3081 -3.3078,2.3845z"/>
   <path id="_77453288" fill="red" stroke="black" stroke-width="0.0762" stroke-linejoin="bevel" d="M173.827 88.0542c-3.3078,2.3859 -6.8474,3.0015 -8.156,1.0773 -1.2312,-1.9228 0.5391,-5.386 3.7709,-7.7704 3.3079,-2.3859 6.8471,-3.0779 8.1557,-1.0009 1.2312,1.8464 -0.5391,5.2321 -3.7706,7.694z"/>
   <path id="_77048984" fill="red" stroke="black" stroke-width="0.0762" stroke-linejoin="bevel" d="M175.366 68.0494c-3.847,-1.4615 -7.3862,-1.0773 -8.1557,1.0772 -0.692,2.1542 1.9242,5.0782 5.6173,6.5407 3.8474,1.4611 7.463,1.2312 8.1561,-1.1547 0.6916,-2.0771 -1.8467,-4.9243 -5.6177,-6.4632z"/>
   <path id="_78863480" fill="red" stroke="black" stroke-width="0.0762" stroke-linejoin="bevel" d="M181.814 69.6274c-2.8462,-0.7695 -4.8468,-2.6923 -4.3851,-4.3851 0.4616,-1.7703 3.0775,-2.5398 5.924,-1.8467 2.9236,0.692 4.9243,2.6162 4.4626,4.4626 -0.4617,1.6928 -3.0779,2.4623 -6.0015,1.7692z"/>
   <path id="_66524848" fill="red" stroke="black" stroke-width="0.0762" stroke-linejoin="bevel" d="M184.848 94.0531c-2.3859,0.0774 -5.6938,-1.539 -1.8467,-3.0001 2.3084,-0.8469 4.6928,-0.6156 5.1545,0.6156 0.4617,1.2311 -0.8459,2.308 -3.3078,2.3845z"/>
   <path id="_77042664" fill="red" stroke="black" stroke-width="0.0762" stroke-linejoin="bevel" d="M166.062 82.5601c-3.3079,2.3859 -6.8474,3.0015 -8.156,1.0773 -1.2312,-1.9228 0.5391,-5.3859 3.7709,-7.7704 3.3078,-2.3859 6.847,-3.0779 8.1557,-1.0009 1.2311,1.8464 -0.5392,5.2321 -3.7706,7.694z"/>
   <path id="_66495392" fill="red" stroke="black" stroke-width="0.0762" stroke-linejoin="bevel" d="M166.116 89.3378c-3.3079,2.3859 -6.8474,3.0015 -8.1561,1.0773 -1.2311,-1.9228 0.5392,-5.386 3.771,-7.7705 3.3078,-2.3859 6.847,-3.0779 8.1557,-1.0008 1.2311,1.8464 -0.5392,5.232 -3.7706,7.694z"/>
   <path id="_77254704" fill="red" stroke="black" stroke-width="0.0762" stroke-linejoin="bevel" d="M156.809 88.0554c-3.3078,2.3859 -6.8474,3.0015 -8.156,1.0773 -1.2312,-1.9228 0.5391,-5.386 3.7709,-7.7705 3.3079,-2.3859 6.8471,-3.0779 8.1557,-1.0008 1.2312,1.8464 -0.5391,5.232 -3.7706,7.694z"/>
   <path id="_27627112" fill="red" stroke="black" stroke-width="0.0762" stroke-linejoin="bevel" d="M197.901 89.209c-3.5395,-1.0009 -6.0779,-3.3089 -5.5398,-5.3096 0.6156,-2.0006 4.0009,-2.6162 7.5401,-1.5389 3.617,1.0008 6.1554,3.2318 5.5398,5.3099 -0.5377,2.0002 -3.9234,2.5383 -7.5401,1.5386z"/>
   <path id="_76995736" fill="red" stroke="black" stroke-width="0.0762" stroke-linejoin="bevel" d="M206.345 85.8016c-3.5395,-1.0008 -6.0779,-3.3089 -5.5398,-5.3095 0.6156,-2.0006 4.0009,-2.6162 7.5401,-1.5389 3.617,1.0008 6.1554,3.2317 5.5398,5.3098 -0.5377,2.0003 -3.9234,2.5384 -7.5401,1.5386z"/>
   <path id="_66877496" fill="red" stroke="black" stroke-width="0.0762" stroke-linejoin="bevel" d="M191.829 80.8448c-2.456,-2.7383 -3.3671,-6.0459 -1.8427,-7.4489 1.5899,-1.3615 4.7798,-0.0717 7.1947,2.731 2.5215,2.7797 3.4738,6.0221 1.8425,7.4491 -1.5239,1.4029 -4.6727,0.0474 -7.1945,-2.7312z"/>
   <path id="_77604520" fill="red" stroke="black" stroke-width="0.0762" stroke-linejoin="bevel" d="M175.923 84.7629c0.6587,-3.6189 2.7142,-6.3658 4.757,-6.0209 2.0502,0.422 2.9858,3.7332 2.251,7.359 -0.6514,3.696 -2.6301,6.4355 -4.7574,6.0209 -2.0424,-0.3445 -2.901,-3.6635 -2.2506,-7.359z"/>
  </g>
  <g id="SeedNb_Few" onclick="parent.replacechar('SeedNb_Few')" onmousemove="parent.showtooltip('SeedNb_Few', '1 to 3 seeds')" onmouseout="parent.hidetooltip('SeedNb_Few')" cursor="pointer" >
   <path id="_76615088" fill="#AAAA1E" stroke="black" stroke-width="0.0762" stroke-linejoin="bevel" d="M24.9321 86.6692c-10.5416,20.0826 14.1576,51.0897 36.7786,53.0139 25.0055,-5.7712 41.625,-30.239 33.3929,-55.4759l-70.1715 2.462z"/>
   <path id="_78572992" fill="#FFFA89" stroke="black" stroke-width="0.0762" stroke-linejoin="bevel" d="M60.7099 94.2871c-19.3122,0 -35.9317,-5.9251 -35.9317,-8.6948 0,-2.7701 17.0812,-7.5405 36.3933,-7.5405 19.3129,0 33.4704,2.3084 33.4704,5.0782 0,2.7701 -14.6192,11.1571 -33.932,11.1571z"/>
   <path id="_66832160" fill="#AAAA00" stroke="black" stroke-width="0.0762" stroke-linejoin="bevel" d="M25.3938 73.1275c2.2309,-13.6955 10.8483,-16.3878 19.0818,-30.9302 10.0024,0.3852 27.9295,-4.2312 39.3944,6.3089l-58.4762 24.6213z"/>
   <path id="_65734776" fill="#4EB148" stroke="black" stroke-width="0.0762" stroke-linejoin="bevel" d="M61.479 144.146c-0.6152,-0.2313 -0.23,-1.8463 -0.9995,-2.8472 -2.4623,-0.9998 -7.464,-1.3075 -9.4646,-5.3859 0.6934,-1.7693 1.5389,2.7697 10.2341,1.8464 2.9236,-0.6156 3.2314,-3.3079 6.8471,-4.3851 1.385,0.9997 -2.8462,3.0778 -1.6925,4.3851 1.4625,1.6164 4.6939,-2.7698 5.5398,-0.7695 -4.2312,3.6935 -5.5398,4.4629 -6.5396,4.6943 -1.0773,4.2312 -3.4631,2.8462 -3.9248,2.4619z"/>
   <path id="_67143160" fill="#FFFA89" stroke="black" stroke-width="0.0762" stroke-linejoin="bevel" d="M59.5562 71.82c-14.7728,5.3859 -32.1618,9.9249 -34.1624,4.0773 -1.9242,-5.6159 11.7717,-16.6192 26.5444,-22.0051 14.7732,-5.3081 30.3929,-10.7719 33.0852,-3.3853 2.6936,7.3865 -10.6944,15.9271 -25.4672,21.3131z"/>
   <path id="_76466456" fill="red" stroke="black" stroke-width="0.0762" stroke-linejoin="bevel" d="M71.0201 89.209c-3.5396,-1.0009 -6.078,-3.3089 -5.5399,-5.3096 0.6156,-2.0006 4.0009,-2.6162 7.5401,-1.5389 3.6171,1.0008 6.1554,3.2318 5.5399,5.3099 -0.5378,2.0002 -3.9235,2.5383 -7.5401,1.5386z"/>
   <path id="_76466480" fill="red" stroke="black" stroke-width="0.0762" stroke-linejoin="bevel" d="M54.4005 88.0542c-3.3078,2.3859 -6.8474,3.0015 -8.156,1.0773 -1.2311,-1.9228 0.5392,-5.386 3.7709,-7.7704 3.3079,-2.3859 6.8471,-3.0779 8.1557,-1.0009 1.2312,1.8464 -0.5391,5.2321 -3.7706,7.694z"/>
   <path id="_77084056" fill="red" stroke="black" stroke-width="0.0762" stroke-linejoin="bevel" d="M61.955 67.5715c-3.847,-1.4615 -7.3862,-1.0773 -8.1556,1.0772 -0.692,2.1542 1.9242,5.0782 5.6173,6.5407 3.8473,1.4611 7.463,1.2312 8.156,-1.1547 0.6916,-2.0771 -1.8467,-4.9243 -5.6177,-6.4632z"/>
  </g>
 </g>
<image xlink:href="tick.gif" id="imgtick" x="-100" y="-100" width="15" height="15"/>
<rect id="recttooltip" x="-100" y="-100" width="55" height="6" fill-opacity="0.4" pointer-events="none"/>
<text id="textboxid" x="-100" y="-100" pointer-events="none"> </text>
</a></svg>
