<?xml version="1.0" encoding="UTF-8"?>
<!DOCTYPE svg PUBLIC "-//W3C//DTD SVG 1.1//EN" "http://www.w3.org/Graphics/SVG/1.1/DTD/svg11.dtd">
<!-- Creator: CorelDRAW -->
<svg xmlns="http://www.w3.org/2000/svg" xml:space="preserve" shape-rendering="geometricPrecision" text-rendering="geometricPrecision" image-rendering="optimizeQuality" fill-rule="evenodd" clip-rule="evenodd"
viewBox="0 0 240 180"
 xmlns:xlink="http://www.w3.org/1999/xlink">
<a>
 <g id="Layer_x0020_1">
  <metadata id="CorelCorpID_0Corel-Layer"/>
  <rect fill="none" width="240" height="180"/>
  <g id="Stem_Thorn" onclick="parent.replacechar('Stem_Thorn')" onmousemove="parent.showtooltip('Stem_Thorn', 'Branchlet with thorns')" onmouseout="parent.hidetooltip('Stem_Thorn')" cursor="pointer" >
   <path id="_76513768" fill="#786432" fill-rule="nonzero" stroke="black" stroke-width="0.0762" stroke-linejoin="bevel" d="M192.096 101.367l0 66.1899c0.5875,5.9685 15.9805,5.6739 15.8086,0l0 -66.1899 -15.8086 0z"/>
   <path id="_66393400" fill="yellow" fill-rule="nonzero" stroke="black" stroke-width="0.0762" stroke-linejoin="bevel" d="M199.945 105.644c-4.2775,0 -7.8052,-1.7861 -7.8052,-4.057 0,-2.2271 3.5277,-4.0569 7.8052,-4.0569 4.3875,0 7.9153,1.8298 7.9153,4.0569 0,2.2709 -3.5278,4.057 -7.9153,4.057z"/>
   <path id="_76736936" fill="white" fill-rule="nonzero" stroke="black" stroke-width="0.0762" stroke-linejoin="bevel" d="M203.616 166.288c-0.7278,1.433 -0.9924,-9.6132 0,-8.4007 2.6458,2.293 4.0347,3.2854 12.3031,4.1451 -8.0479,1.4111 -9.2826,1.808 -12.3031,4.2556z"/>
   <path id="_65726568" fill="white" fill-rule="nonzero" stroke="black" stroke-width="0.0762" stroke-linejoin="bevel" d="M192.491 134.852c0.7274,1.4111 0.992,-9.6351 0,-8.4004 -2.6458,2.2709 -4.0351,3.2632 -12.3031,4.1452 8.0257,1.4111 9.2604,1.808 12.3031,4.2552z"/>
   <path id="_77542568" fill="white" fill-rule="nonzero" stroke="black" stroke-width="0.0762" stroke-linejoin="bevel" d="M192.327 165.935c0.7274,1.433 0.992,-9.6132 0,-8.4007 -2.6458,2.2712 -4.0351,3.2854 -12.3031,4.1451 8.0257,1.4111 9.2604,1.808 12.3031,4.2556z"/>
   <path id="_77262976" fill="white" fill-rule="nonzero" stroke="black" stroke-width="0.0762" stroke-linejoin="bevel" d="M193.404 153.778c1.3452,1.4552 2.0507,-9.15 0,-8.4003 -0.9479,1.3007 0.8601,2.4694 -6.9451,6.5482 7.9375,-1.6757 5.2253,-0.1764 6.9451,1.8521z"/>
   <path id="_66804328" fill="white" fill-rule="nonzero" stroke="black" stroke-width="0.0762" stroke-linejoin="bevel" d="M204.286 122.53c-0.7278,1.4333 -0.9924,-9.6132 0,-8.4004 2.6458,2.2708 4.0569,3.2851 12.325,4.1451 -8.0476,1.4112 -9.2823,1.808 -12.325,4.2553z"/>
   <path id="_77340104" fill="white" fill-rule="nonzero" stroke="black" stroke-width="0.0762" stroke-linejoin="bevel" d="M192.774 113.42c0.7278,1.4334 0.9924,-9.6131 0,-8.4003 -2.6458,2.2708 -4.0347,3.2851 -12.3031,4.1451 8.0479,1.4112 9.2827,1.808 12.3031,4.2552z"/>
   <path id="_78094104" fill="white" fill-rule="nonzero" stroke="black" stroke-width="0.0762" stroke-linejoin="bevel" d="M202.693 142.799c-1.3451,1.4552 -2.0285,-9.1503 0,-8.4007 0.9479,1.3011 -0.8601,2.4476 6.9451,6.5486 -7.9375,-1.6756 -5.2253,-0.1763 -6.9451,1.8521z"/>
  </g>
  <g id="Stem_Prickle" onclick="parent.replacechar('Stem_Prickle')" onmousemove="parent.showtooltip('Stem_Prickle', 'Branchlet with prickles')" onmouseout="parent.hidetooltip('Stem_Prickle')" cursor="pointer" >
   <path id="_76617840" fill="#786432" fill-rule="nonzero" stroke="black" stroke-width="0.0762" stroke-linejoin="bevel" d="M112.096 101.367l0 66.1899c0.5875,5.9685 15.9805,5.6739 15.8086,0l0 -66.1899 -15.8086 0z"/>
   <path id="_77813744" fill="yellow" fill-rule="nonzero" stroke="black" stroke-width="0.0762" stroke-linejoin="bevel" d="M119.945 105.644c-4.2775,0 -7.8052,-1.7861 -7.8052,-4.057 0,-2.2271 3.5277,-4.0569 7.8052,-4.0569 4.3875,0 7.9153,1.8298 7.9153,4.0569 0,2.2709 -3.5278,4.057 -7.9153,4.057z"/>
   <path id="_65746088" fill="white" fill-rule="nonzero" stroke="#221D1A" stroke-width="0.0762" stroke-linejoin="bevel" d="M127.826 147.626c1.8678,0.4831 3.564,-0.7914 4.819,3.4544 -0.7653,-1.8509 -2.1981,-1.9245 -3.0853,-1.6062 -0.8871,0.3184 -0.5214,2.2018 -1.7092,2.0218 -0.1176,-1.0341 -2.2085,-1.3896 -0.0245,-3.87z"/>
   <path id="_78613272" fill="white" fill-rule="nonzero" stroke="#221D1A" stroke-width="0.0762" stroke-linejoin="bevel" d="M127.826 119.686c1.8678,0.4831 3.564,-0.7914 4.819,3.4544 -0.7653,-1.8509 -2.1981,-1.9245 -3.0853,-1.6062 -0.8871,0.3184 -0.5214,2.2018 -1.7092,2.0218 -0.1176,-1.0341 -2.2085,-1.3896 -0.0245,-3.87z"/>
   <path id="_76898512" fill="white" fill-rule="nonzero" stroke="#221D1A" stroke-width="0.0762" stroke-linejoin="bevel" d="M112.174 109.367c-1.8678,0.4831 -3.564,-0.7914 -4.819,3.4544 0.7653,-1.8509 2.1981,-1.9245 3.0853,-1.6062 0.8871,0.3184 0.5214,2.2018 1.7092,2.0218 0.1176,-1.0341 2.2085,-1.3896 0.0245,-3.87z"/>
   <path id="_78256312" fill="white" fill-rule="nonzero" stroke="#221D1A" stroke-width="0.0762" stroke-linejoin="bevel" d="M112.174 132.227c-1.8678,0.4831 -3.564,-0.7914 -4.819,3.4544 0.7653,-1.8509 2.1981,-1.9245 3.0853,-1.6062 0.8871,0.3184 0.5214,2.2018 1.7092,2.0218 0.1176,-1.0341 2.2085,-1.3896 0.0245,-3.87z"/>
   <path id="_78078928" fill="white" fill-rule="nonzero" stroke="#221D1A" stroke-width="0.0762" stroke-linejoin="bevel" d="M112.174 157.627c-1.8678,0.4831 -3.564,-0.7914 -4.819,3.4544 0.7653,-1.8509 2.1981,-1.9245 3.0853,-1.6062 0.8871,0.3184 0.5214,2.2018 1.7092,2.0218 0.1176,-1.0341 2.2085,-1.3896 0.0245,-3.87z"/>
   <path id="_78082192" fill="white" fill-rule="nonzero" stroke="#221D1A" stroke-width="0.0762" stroke-linejoin="bevel" d="M120.706 141.473c-1.8678,0.4831 -3.564,-0.7914 -4.819,3.4544 0.7653,-1.8509 2.1981,-1.9245 3.0853,-1.6062 0.8871,0.3184 0.5214,2.2018 1.7092,2.0218 0.1176,-1.0341 2.2085,-1.3896 0.0245,-3.87z"/>
  </g>
  <g id="Stem_Spiny" onclick="parent.replacechar('Stem_Spiny')" onmousemove="parent.showtooltip('Stem_Spiny', 'Branchlet spiny')" onmouseout="parent.hidetooltip('Stem_Spiny')" cursor="pointer" >
   <polygon id="_66393008" fill="white" fill-rule="nonzero" stroke="black" stroke-width="0.0762" stroke-linejoin="bevel" points="33.5093,110.411 24.8382,106.717 33.1662,111.274 "/>
   <g id="tige">
    <path id="_76776624" fill="#786432" fill-rule="nonzero" stroke="black" stroke-width="0.0762" stroke-linejoin="bevel" d="M31.1873 101.367l0 66.1899c0.5875,5.9685 15.9805,5.6739 15.8086,0l0 -66.1899 -15.8086 0z"/>
    <path id="_77086232" fill="yellow" fill-rule="nonzero" stroke="black" stroke-width="0.0762" stroke-linejoin="bevel" d="M39.0366 105.644c-4.2775,0 -7.8052,-1.7861 -7.8052,-4.057 0,-2.2271 3.5277,-4.0569 7.8052,-4.0569 4.3875,0 7.9153,1.8298 7.9153,4.0569 0,2.2709 -3.5278,4.057 -7.9153,4.057z"/>
   </g>
   <path id="feuille_2" fill="#E5E5E5" stroke="#7F7F7F" stroke-width="0.0762" stroke-linejoin="bevel" d="M36.4424 145.939c1.0999,-0.7333 2.3829,-1.4667 3.9019,-2.2259 -0.7333,0.0524 -1.5449,0.2355 -2.0951,0.1832 -0.5761,-0.1048 -0.8641,-0.681 -1.3095,-0.8905 -1.257,0.8644 -2.3305,1.7025 -3.221,2.4618l-0.0523 0.1047c-12.9372,-1.9379 -9.8469,9.4543 -11.4446,18.1488 7.2804,1.2832 26.3457,-16.9965 14.0895,-17.5986l0.1311 -0.1835z"/>
   <path id="feuille_1" fill="#E5E5E5" stroke="#7F7F7F" stroke-width="0.0762" stroke-linejoin="bevel" d="M47.4503 118.548c-1.0999,-0.7333 -2.3829,-1.4667 -3.9019,-2.2259 0.7333,0.0524 1.5449,0.2355 2.0951,0.1832 0.5761,-0.1048 0.8641,-0.681 1.3095,-0.8905 1.257,0.8644 2.3305,1.7025 3.221,2.4618l0.0523 0.1047c12.9372,-1.9379 9.8469,9.4543 11.4446,18.1488 -7.2804,1.2832 -26.3457,-16.9965 -14.0895,-17.5986l-0.1311 -0.1835z"/>
   <polygon id="_66814600" fill="white" fill-rule="nonzero" stroke="black" stroke-width="0.0762" stroke-linejoin="bevel" points="39.9159,143.2 51.6236,147.631 39.6073,144.17 "/>
   <polygon id="_76869800" fill="white" fill-rule="nonzero" stroke="black" stroke-width="0.0762" stroke-linejoin="bevel" points="44.6301,116.337 40.5417,126.173 43.5009,116.222 "/>
   <polygon id="_65713248" fill="white" fill-rule="nonzero" stroke="black" stroke-width="0.0762" stroke-linejoin="bevel" points="33.0838,130.938 23.4587,133.551 33.4135,131.866 "/>
   <polygon id="_76867336" fill="white" fill-rule="nonzero" stroke="black" stroke-width="0.0762" stroke-linejoin="bevel" points="44.6266,165.906 53.2977,162.212 44.9697,166.769 "/>
  </g>
  <g id="Stem_Scaly" onclick="parent.replacechar('Stem_Scaly')" onmousemove="parent.showtooltip('Stem_Scaly', 'Branchlet scaly')" onmouseout="parent.hidetooltip('Stem_Scaly')" cursor="pointer" >
   <path id="_76628136" fill="#786432" fill-rule="nonzero" stroke="black" stroke-width="0.0762" stroke-linejoin="bevel" d="M192.1 11.036l0 66.1899c0.5875,5.9685 15.9805,5.6739 15.8086,0l0 -66.1899 -15.8086 0z"/>
   <path id="_77770296" fill="yellow" fill-rule="nonzero" stroke="black" stroke-width="0.0762" stroke-linejoin="bevel" d="M199.95 15.3135c-4.2775,0 -7.8052,-1.7861 -7.8052,-4.057 0,-2.2271 3.5277,-4.0569 7.8052,-4.0569 4.3875,0 7.9153,1.8298 7.9153,4.0569 0,2.2709 -3.5278,4.057 -7.9153,4.057z"/>
   <g id="scales">
    <polygon id="_78184528" fill="white" stroke="black" stroke-width="0.0762" points="202.795,31.431 205.638,32.4759 205.09,35.0872 201.909,35.6562 200.49,33.3967 "/>
    <polygon id="_78461528" fill="white" stroke="black" stroke-width="0.0762" points="201.709,35.8221 200.179,38.4367 197.705,37.4372 197.706,34.2052 200.18,33.2069 "/>
    <polygon id="_76857496" fill="white" stroke="black" stroke-width="0.0762" points="196.077,30.7914 197.605,33.4066 200.08,32.4083 200.08,29.1763 197.607,28.1769 "/>
    <polygon id="_76493856" fill="white" stroke="black" stroke-width="0.0762" points="201.697,26.1096 200.167,28.7242 197.694,27.7248 197.694,24.4927 200.169,23.4944 "/>
    <polygon id="_66391080" fill="white" stroke="black" stroke-width="0.0762" points="196.041,40.3809 197.57,42.9961 200.044,41.9978 200.045,38.7657 197.571,37.7663 "/>
    <polygon id="_76710376" fill="white" stroke="black" stroke-width="0.0762" points="201.962,44.9422 200.432,47.5568 197.958,46.5573 197.959,43.3253 200.433,42.327 "/>
    <polygon id="_76704784" fill="white" stroke="black" stroke-width="0.0762" points="196.509,49.501 198.037,52.1162 200.511,51.1179 200.512,47.8859 198.038,46.8865 "/>
    <polygon id="_65716560" fill="white" stroke="black" stroke-width="0.0762" points="202.04,54.2299 200.51,56.8445 198.036,55.845 198.037,52.613 200.511,51.6147 "/>
    <polygon id="_76641392" fill="white" stroke="black" stroke-width="0.0762" points="204.558,40.3828 203.028,42.9973 200.554,41.9979 200.555,38.7658 203.029,37.7675 "/>
    <polygon id="_65904416" fill="white" stroke="black" stroke-width="0.0762" points="193.76,45.2086 195.289,47.8238 197.763,46.8255 197.764,43.5935 195.29,42.5941 "/>
    <polygon id="_76589808" fill="white" stroke="black" stroke-width="0.0762" points="193.393,35.7867 194.922,38.402 197.396,37.4036 197.397,34.1716 194.923,33.1722 "/>
    <polygon id="_65746960" fill="white" stroke="black" stroke-width="0.0762" points="193.396,26.0631 194.924,28.6784 197.398,27.68 197.399,24.448 194.925,23.4486 "/>
    <polygon id="_78692608" fill="white" stroke="black" stroke-width="0.0762" points="193.825,54.5969 195.354,57.2121 197.828,56.2138 197.829,52.9818 195.355,51.9824 "/>
    <polygon id="_77269344" fill="white" stroke="black" stroke-width="0.0762" points="204.4,49.6369 203.024,51.9887 200.799,51.0897 200.8,48.1825 203.025,47.2846 "/>
    <polygon id="_77021664" fill="white" stroke="black" stroke-width="0.0762" points="203.611,28.6777 205.14,31.2929 207.614,30.2946 207.615,27.0626 205.141,26.0631 "/>
    <polygon id="_76502400" fill="white" stroke="black" stroke-width="0.0762" points="203.713,37.3876 205.242,40.0028 207.716,39.0045 207.717,35.7724 205.243,34.773 "/>
    <polygon id="_76684880" fill="white" stroke="black" stroke-width="0.0762" points="203.712,43.0263 205.24,45.6415 207.715,44.6432 207.715,41.4112 205.242,40.4118 "/>
    <polygon id="_76872632" fill="white" stroke="black" stroke-width="0.0762" points="203.911,48.5303 205.329,50.9568 207.625,50.0305 207.626,47.0317 205.33,46.1044 "/>
    <polygon id="_66400640" fill="white" stroke="black" stroke-width="0.0762" points="193.916,22.933 196.943,23.0509 197.432,20.428 194.708,18.6892 192.535,20.2372 "/>
    <polygon id="_66730400" fill="white" stroke="black" stroke-width="0.0762" points="196.144,30.7579 194.614,33.3725 192.14,32.373 192.141,29.141 194.615,28.1427 "/>
    <polygon id="_77049008" fill="white" stroke="black" stroke-width="0.0762" points="196.242,40.7833 194.713,43.3978 192.239,42.3984 192.239,39.1664 194.714,38.168 "/>
    <polygon id="_77539080" fill="white" stroke="black" stroke-width="0.0762" points="196.274,49.8027 194.744,52.4173 192.27,51.4179 192.271,48.1858 194.745,47.1875 "/>
    <polygon id="_76996216" fill="white" stroke="black" stroke-width="0.0762" points="195.735,58.1453 194.347,60.5189 192.101,59.6116 192.101,56.6773 194.348,55.771 "/>
    <polygon id="_76429072" fill="white" stroke="black" stroke-width="0.0762" points="201.941,45.5121 202.937,47.2164 204.549,46.5658 204.55,44.4596 202.938,43.8084 "/>
    <polygon id="_65725184" fill="white" stroke="black" stroke-width="0.0762" points="203.18,52.3525 204.176,54.0567 205.789,53.4061 205.789,51.3 204.177,50.6487 "/>
    <polygon id="_76997360" fill="white" stroke="black" stroke-width="0.0762" points="202.81,30.3234 201.813,32.0272 200.201,31.3759 200.201,29.2698 201.813,28.6192 "/>
    <polygon id="_77493032" fill="white" stroke="black" stroke-width="0.0762" points="204.746,26.1725 203.749,27.8763 202.137,27.225 202.138,25.1189 203.75,24.4683 "/>
   </g>
   <polygon id="_77341144" fill="white" stroke="black" stroke-width="0.0762" points="194.034,18.0342 192.444,15.9073 194.095,14.2504 196.704,15.353 196.667,17.6915 "/>
   <polygon id="_66859536" fill="white" stroke="black" stroke-width="0.0762" points="196.095,63.2543 194.565,65.8689 192.091,64.8695 192.092,61.6374 194.566,60.6391 "/>
   <polygon id="_66468328" fill="white" stroke="black" stroke-width="0.0762" points="196.171,68.5121 194.641,71.1267 192.167,70.1273 192.168,66.8952 194.642,65.8969 "/>
   <polygon id="_76771088" fill="white" stroke="black" stroke-width="0.0762" points="196.376,73.8862 194.846,76.5008 192.373,75.5014 192.373,72.2693 194.848,71.271 "/>
   <polygon id="_77775752" fill="white" stroke="black" stroke-width="0.0762" points="198.686,78.5705 197.156,81.1851 194.682,80.1857 194.683,76.9536 197.157,75.9553 "/>
   <polygon id="_77289664" fill="white" stroke="black" stroke-width="0.0762" points="203.709,56.8525 205.237,59.4677 207.711,58.4694 207.712,55.2374 205.238,54.2379 "/>
   <polygon id="_66516744" fill="white" stroke="black" stroke-width="0.0762" points="203.709,62.1865 205.237,64.8017 207.711,63.8034 207.712,60.5714 205.238,59.5719 "/>
   <polygon id="_76583696" fill="white" stroke="black" stroke-width="0.0762" points="203.861,67.6729 205.389,70.2881 207.864,69.2898 207.864,66.0578 205.391,65.0583 "/>
   <polygon id="_66518552" fill="white" stroke="black" stroke-width="0.0762" points="203.861,73.0069 205.389,75.6221 207.864,74.6238 207.864,71.3918 205.391,70.3923 "/>
   <polygon id="_77227248" fill="white" stroke="black" stroke-width="0.0762" points="198.771,78.4593 199.244,81.4514 201.912,81.4211 203.088,78.4106 201.147,76.58 "/>
   <polygon id="_76549928" fill="white" stroke="black" stroke-width="0.0762" points="195.022,60.3577 196.55,62.9729 199.025,61.9746 199.025,58.7426 196.551,57.7431 "/>
   <polygon id="_76586488" fill="white" stroke="black" stroke-width="0.0762" points="195.174,65.6155 196.703,68.2307 199.177,67.2324 199.178,64.0004 196.704,63.0009 "/>
   <polygon id="_77606680" fill="white" stroke="black" stroke-width="0.0762" points="195.25,71.1019 196.779,73.7171 199.253,72.7188 199.254,69.4868 196.78,68.4873 "/>
   <polygon id="_66799088" fill="white" stroke="black" stroke-width="0.0762" points="199.732,58.7766 200.703,61.646 203.327,61.1661 203.978,58.0003 201.756,56.5235 "/>
   <polygon id="_76636112" fill="white" stroke="black" stroke-width="0.0762" points="199.757,63.9111 200.111,66.9196 202.778,66.9954 204.072,64.0341 202.206,62.1278 "/>
   <polygon id="_77445352" fill="white" stroke="black" stroke-width="0.0762" points="199.753,69.535 200.724,72.4044 203.349,71.9245 204,68.7587 201.778,67.2819 "/>
   <polygon id="_66274376" fill="white" stroke="black" stroke-width="0.0762" points="198.457,73.2869 196.928,75.4958 198.658,77.1106 201.256,75.8999 201.132,73.5367 "/>
   <polygon id="_78241536" fill="white" stroke="black" stroke-width="0.0762" points="203.484,78.5514 205.671,80.2913 207.467,78.607 206.389,75.8262 203.927,75.7917 "/>
   <polygon id="_77781224" fill="white" stroke="black" stroke-width="0.0762" points="201.419,74.2183 202.008,76.0229 203.656,75.7397 204.085,73.7601 202.703,72.8198 "/>
   <polygon id="_77035800" fill="white" stroke="black" stroke-width="0.0762" points="203.632,17.1523 205.161,19.7675 207.635,18.7692 207.636,15.5372 205.162,14.5377 "/>
   <polygon id="_77811616" fill="white" stroke="black" stroke-width="0.0762" points="203.632,22.7911 205.161,25.4063 207.635,24.408 207.636,21.176 205.162,20.1765 "/>
   <polygon id="_76742720" fill="white" stroke="black" stroke-width="0.0762" points="199.831,19.7171 202.355,18.0428 201.218,15.6291 197.991,15.8115 197.134,18.338 "/>
   <polygon id="_78444576" fill="white" stroke="black" stroke-width="0.0762" points="201.508,19.1559 204.032,20.8302 202.895,23.2439 199.668,23.0615 198.811,20.535 "/>
  </g>
  <g id="Stem_Hairy" onclick="parent.replacechar('Stem_Hairy')" onmousemove="parent.showtooltip('Stem_Hairy', 'Branchlet hairy')" onmouseout="parent.hidetooltip('Stem_Hairy')" cursor="pointer" >
   <path id="_77542832" fill="white" fill-rule="nonzero" stroke="#838281" stroke-width="0.0762" stroke-linejoin="bevel" d="M123.788 15.2752c0.0124,0.0191 -0.1411,-0.0709 0.1119,-0.1404 1.7949,-0.4076 4.1769,0.9848 5.5105,2.0151 1.2364,0.9852 1.9519,1.5229 3.1236,2.6586 -1.7009,-1.4285 -3.6718,-2.668 -4.4415,-3.1434 -1.2431,-0.6827 -2.9693,-1.2954 -3.8648,-0.7134 -0.1982,-0.3049 0.279,0.1168 -0.4397,-0.6765z"/>
   <path id="_77728536" fill="white" fill-rule="nonzero" stroke="#838281" stroke-width="0.0762" stroke-linejoin="bevel" d="M117.123 16.6144c-0.0205,0.0271 0.0866,-0.0771 -0.1677,-0.155 -1.7029,-0.5157 -4.3715,0.6453 -5.8125,1.5937 -1.284,0.9102 -1.8579,1.3882 -3.1059,2.4394 1.7623,-1.318 3.8174,-2.458 4.632,-2.8968 1.3217,-0.5827 3.0362,-0.9691 3.9342,-0.2919 0.2189,-0.2903 -0.2703,-0.019 -0.0889,0.1179l0.6088 -0.8073z"/>
   <path id="_66481160" fill="white" fill-rule="nonzero" stroke="#838281" stroke-width="0.0762" stroke-linejoin="bevel" d="M123.025 38.3369c0.016,0.0162 -0.1523,-0.0415 0.0818,-0.1599 1.6778,-0.7566 4.2893,0.1339 5.8012,0.8783 1.4078,0.7193 2.216,1.104 3.5902,1.9838 -1.9511,-1.0615 -4.1293,-1.884 -4.9782,-2.1967 -1.3541,-0.4217 -3.1677,-0.6786 -3.9295,0.07 -0.2549,-0.2594 0.2967,0.0589 -0.5655,-0.5755z"/>
   <path id="_77781136" fill="white" fill-rule="nonzero" stroke="#838281" stroke-width="0.0762" stroke-linejoin="bevel" d="M122.555 28.5056c0.0309,0.0478 -0.0494,-0.0763 0.1247,-0.1212 1.4797,-0.1179 3.8664,1.6266 5.1859,2.8299 1.2,1.1861 1.7402,1.7703 2.9351,3.095 -1.7908,-1.5347 -3.5384,-3.0025 -4.2812,-3.5234 -1.1535,-0.9048 -2.6538,-1.8019 -3.3598,-1.3453 -0.1497,-0.3362 0.1431,-0.0926 0,0l-0.6047 -0.935z"/>
   <path id="_77206744" fill="white" fill-rule="nonzero" stroke="#838281" stroke-width="0.0762" stroke-linejoin="bevel" d="M122.748 46.704c0.0554,0.0568 4.8025,0.809 6.4868,1.6581 1.5176,0.7106 2.0673,1.0792 3.5327,2.0944 -1.8395,-1.2852 -3.9049,-1.8742 -4.8092,-2.1669 -0.5518,-0.2081 -3.2066,-0.5717 -4.4506,-0.692 -0.0554,-0.0569 0.2187,-0.1337 -0.7597,-0.8936z"/>
   <path id="_76646224" fill="white" fill-rule="nonzero" stroke="#838281" stroke-width="0.0762" stroke-linejoin="bevel" d="M116.287 32.1997c-0.0448,0.0919 0.0907,-0.0821 -0.1178,-0.0955 -1.5599,0.0101 -3.7559,2.0487 -4.8661,3.3653 -1.095,1.3368 -1.5057,1.9455 -2.5489,3.3834 1.5585,-1.7427 2.5435,-2.8803 3.1925,-3.5623 1.0883,-0.9608 3.0963,-2.4589 3.852,-2.0901 0.1844,-0.3779 -0.1329,-0.0649 0,0l0.4883 -1.0008z"/>
   <path id="_77240272" fill="white" fill-rule="nonzero" stroke="#838281" stroke-width="0.0762" stroke-linejoin="bevel" d="M117.172 53.2173c-0.0353,0.0446 0.0883,-0.075 -0.157,-0.1677 -1.7031,-0.5944 -4.3658,0.573 -5.8304,1.4715 -1.3298,0.8747 -1.8739,1.3424 -3.1603,2.3819 1.9241,-1.2593 3.7798,-2.3409 4.6082,-2.7285 1.2868,-0.6189 3.2807,-1.0695 4.1538,-0.3784 0.0494,-0.0625 -0.4342,0.091 0.3857,-0.5788z"/>
   <path id="_66406072" fill="white" fill-rule="nonzero" stroke="#838281" stroke-width="0.0762" stroke-linejoin="bevel" d="M116.456 67.1149c-0.9779,-0.6691 -4.1375,-0.0181 -5.7486,0.667 -1.5681,0.6074 -1.7314,0.8777 -3.3327,1.6198 2.1812,-0.723 2.9335,-1.0144 3.7798,-1.2204 1.3442,-0.3988 4.4673,-0.987 4.775,-0.57 0.106,-0.0411 0.0355,-0.16 0.0848,-0.0329l0.4417 -0.4635z"/>
   <path id="_77048984" fill="white" fill-rule="nonzero" stroke="#838281" stroke-width="0.0762" stroke-linejoin="bevel" d="M123 53.7439c0.8827,-1.0973 3.4496,-0.9845 5.143,-0.4546 1.6018,0.5248 2.6273,1.1056 4.3173,1.8429 -2.2785,-0.6142 -4.0753,-1.3365 -4.9966,-1.54 -1.1623,-0.2131 -3.2079,-0.3341 -3.6654,0.4598 -0.19,-0.0349 -0.6674,-0.2033 -0.7983,-0.3081z"/>
   <path id="_77042664" fill="white" fill-rule="nonzero" stroke="#838281" stroke-width="0.0762" stroke-linejoin="bevel" d="M116.114 39.9785c-0.0191,0.0281 0.0827,-0.0813 -0.1752,-0.1464 -1.7265,-0.4302 -4.3339,0.8623 -5.7259,1.8813 -1.2371,0.973 -1.7864,1.4791 -2.9805,2.5911 1.6945,-1.4041 3.6902,-2.6451 4.482,-3.1239 1.291,-0.6479 2.9841,-1.1192 3.9147,-0.4876 0.2042,-0.3008 -0.2709,-0.0055 -0.0829,0.1221l0.5678 -0.8366z"/>
   <g id="tige_0">
    <path id="_27627112" fill="#786432" fill-rule="nonzero" stroke="black" stroke-width="0.0762" stroke-linejoin="bevel" d="M111.921 11.036l0 66.1899c0.5889,5.9687 15.9808,5.6736 15.8089,0l0 -66.1899 -15.8089 0z"/>
    <path id="_77860024" fill="yellow" fill-rule="nonzero" stroke="black" stroke-width="0.0762" stroke-linejoin="bevel" d="M119.77 15.3135c-4.2774,0 -7.8052,-1.7858 -7.8052,-4.057 0,-2.2267 3.5278,-4.0569 7.8052,-4.0569 4.3877,0 7.9155,1.8302 7.9155,4.0569 0,2.2712 -3.5278,4.057 -7.9155,4.057z"/>
   </g>
   <path id="_78184376" fill="white" fill-rule="nonzero" stroke="#838281" stroke-width="0.0762" stroke-linejoin="bevel" d="M120.82 42.4727c0.0155,0.0167 -0.151,-0.0461 0.0867,-0.1573 1.7001,-0.7049 4.2831,0.2651 5.7716,1.0554 1.3851,0.7621 2.1811,1.1713 3.5278,2.0928 -1.9177,-1.1207 -4.0698,-2.0095 -4.9087,-2.3481 -1.3405,-0.4629 -3.1454,-0.7752 -3.9298,-0.0503 -0.2468,-0.267 0.2948,0.068 -0.5476,-0.5925z"/>
   <path id="_67196816" fill="white" fill-rule="nonzero" stroke="#838281" stroke-width="0.0762" stroke-linejoin="bevel" d="M119.461 32.1003c0.0419,0.0385 -0.067,-0.0614 0.0902,-0.1486 1.4022,-0.4868 4.1513,0.6004 5.7314,1.4326 1.46,0.8457 2.1299,1.275 3.6199,2.2561 -2.1195,-1.0343 -4.1805,-2.0146 -5.0306,-2.3317 -1.3442,-0.5851 -3.022,-1.0755 -3.5903,-0.4558 -0.2295,-0.2876 0.1153,-0.1257 0,0l-0.8206 -0.7526z"/>
   <path id="_66406048" fill="white" fill-rule="nonzero" stroke="#838281" stroke-width="0.0762" stroke-linejoin="bevel" d="M121.621 53.8456c0.0489,0.0626 4.6851,1.3298 6.2664,2.3582 1.4306,0.8724 1.9367,1.299 3.2822,2.4684 -1.6877,-1.4788 -3.6763,-2.2903 -4.5431,-2.6802 -0.5257,-0.2672 -3.1248,-0.9192 -4.3481,-1.175 -0.0489,-0.0626 0.232,-0.109 -0.6574,-0.9714z"/>
   <path id="_76466240" fill="white" fill-rule="nonzero" stroke="#838281" stroke-width="0.0762" stroke-linejoin="bevel" d="M119.099 33.8832c-0.0542,0.0867 0.0989,-0.0722 -0.1071,-0.1073 -1.5523,-0.1539 -3.9503,1.6427 -5.1927,2.8355 -1.2293,1.2144 -1.7017,1.7766 -2.8901,3.0969 1.7329,-1.5694 2.8319,-2.5972 3.549,-3.2073 1.1831,-0.8411 3.3375,-2.12 4.0502,-1.6739 0.2231,-0.3564 -0.1253,-0.0784 0,0l0.5907 -0.9439z"/>
   <path id="_78572992" fill="white" fill-rule="nonzero" stroke="#838281" stroke-width="0.0762" stroke-linejoin="bevel" d="M118.337 59.9609c-0.039,0.0415 0.0943,-0.0673 -0.1425,-0.1802 -1.6475,-0.7347 -4.3985,0.206 -5.933,0.9789 -1.3983,0.7604 -1.9796,1.1811 -3.3484,2.1094 2.0227,-1.0941 3.9623,-2.0168 4.8202,-2.3338 1.3341,-0.5091 3.3587,-0.7914 4.1709,-0.0298 0.0545,-0.0581 -0.4403,0.0545 0.4328,-0.5445z"/>
   <path id="_67143160" fill="white" fill-rule="nonzero" stroke="#838281" stroke-width="0.0762" stroke-linejoin="bevel" d="M120.011 36.8181c-0.9772,0.6703 -1.5113,3.8517 -1.4543,5.6015 0,1.6816 0.193,1.9316 0.3066,3.6928 0.1137,-2.2951 0.1137,-3.1019 0.2273,-3.9655 0.1136,-1.3974 0.6931,-4.5221 1.1931,-4.6585 0,-0.1136 -0.1364,-0.0909 0,-0.0909l-0.2727 -0.5794z"/>
   <path id="_77084056" fill="white" fill-rule="nonzero" stroke="#838281" stroke-width="0.0762" stroke-linejoin="bevel" d="M118.187 48.6154c0.9749,1.0163 0.5335,3.5475 -0.2095,5.1589 -0.7261,1.5211 -1.4338,2.4636 -2.382,4.0448 0.9017,-2.1807 1.8487,-3.8699 2.1688,-4.7575 0.3606,-1.1253 0.7433,-3.1384 0.0147,-3.694 0.0589,-0.184 0.2873,-0.6358 0.408,-0.7522z"/>
   <path id="_65830328" fill="white" fill-rule="nonzero" stroke="#838281" stroke-width="0.0762" stroke-linejoin="bevel" d="M117.894 45.3544c-0.0256,0.0224 0.1006,-0.0575 -0.1322,-0.1862 -1.56,-0.8557 -4.4105,-0.2698 -6.0162,0.3611 -1.444,0.6259 -2.1041,0.9754 -3.5421,1.7466 1.9962,-0.9263 4.2422,-1.6181 5.1298,-1.8795 1.4134,-0.2977 3.1707,-0.3223 3.9098,0.5255 0.2741,-0.239 -0.2606,-0.0743 -0.1112,0.097l0.7621 -0.6645z"/>
   <path id="_76586528" fill="white" fill-rule="nonzero" stroke="#838281" stroke-width="0.0762" stroke-linejoin="bevel" d="M123.955 18.383c0.0225,0.0522 -0.0359,-0.0835 0.1432,-0.0986 1.4786,0.1309 3.5402,2.2497 4.6401,3.6567 0.9849,1.37 1.4199,2.0362 2.3766,3.542 -1.5091,-1.8125 -2.9869,-3.5516 -3.6322,-4.1894 -0.9861,-1.0848 -2.3154,-2.22 -3.0878,-1.8878 -0.0913,-0.3565 0.1567,-0.0674 0,0l-0.4399 -1.0229z"/>
   <path id="_66891440" fill="white" fill-rule="nonzero" stroke="#838281" stroke-width="0.0762" stroke-linejoin="bevel" d="M122.031 22.8356c0.0275,0.0745 4.0576,2.6933 5.2507,4.1544 1.097,1.2666 1.4492,1.8271 2.3746,3.3507 -1.1573,-1.9225 -2.8043,-3.301 -3.5112,-3.9364 -0.4193,-0.4146 -2.6964,-1.8271 -3.7837,-2.4433 -0.0275,-0.0745 0.2542,-0.0331 -0.3304,-1.1254z"/>
   <path id="_77133096" fill="white" fill-rule="nonzero" stroke="#838281" stroke-width="0.0762" stroke-linejoin="bevel" d="M115.681 22.9743c-0.056,0.0855 0.1004,-0.07 -0.1048,-0.1096 -1.5486,-0.1872 -3.9847,1.5573 -5.2525,2.723 -1.2552,1.1877 -1.7396,1.7396 -2.9561,3.0341 1.7662,-1.5318 2.8872,-2.5357 3.6172,-3.1302 1.201,-0.8155 3.3824,-2.0476 4.0853,-1.5863 0.2307,-0.3516 -0.1236,-0.0811 0,0l0.6109 -0.931z"/>
   <path id="_66519080" fill="white" fill-rule="nonzero" stroke="#838281" stroke-width="0.0762" stroke-linejoin="bevel" d="M117.079 23.779c0,0.0569 0.0228,-0.1137 -0.2272,-0.034 -1.7043,0.5908 -3.0677,3.1586 -3.6586,4.7721 -0.4999,1.5111 -0.6363,2.2155 -0.9999,3.8289 0.7272,-2.1815 1.5111,-4.1813 1.9202,-4.9993 0.6249,-1.2839 1.9088,-2.8746 3.0223,-2.8746 0,-0.0796 -0.284,0.3409 -0.0568,-0.6931z"/>
   <path id="_66455976" fill="white" fill-rule="nonzero" stroke="#838281" stroke-width="0.0762" stroke-linejoin="bevel" d="M119.284 15.6699c-1.1795,-0.1129 -3.6305,1.9846 -4.7096,3.3632 -1.079,1.2898 -1.0913,1.6054 -2.1343,3.0291 1.5599,-1.6874 2.0776,-2.3062 2.7187,-2.8957 0.9839,-0.9989 3.4334,-3.0237 3.9043,-2.8075 0.0729,-0.0872 -0.0462,-0.1572 0.0583,-0.0697l0.1626 -0.6194z"/>
   <path id="_77165912" fill="white" fill-rule="nonzero" stroke="#838281" stroke-width="0.0762" stroke-linejoin="bevel" d="M118.636 19.5864c1.2385,0.6703 1.5906,3.2154 1.3749,4.9766 -0.2273,1.6702 -0.6136,2.7837 -1.034,4.5789 0.1932,-2.3519 0.5795,-4.2495 0.6135,-5.1924 0,-1.1817 -0.25,-3.2156 -1.1134,-3.5223 0,-0.1932 0.0796,-0.6932 0.159,-0.8408z"/>
   <path id="_77227224" fill="white" fill-rule="nonzero" stroke="#838281" stroke-width="0.0762" stroke-linejoin="bevel" d="M122.374 66.9865c0.012,0.0193 -0.1397,-0.0736 0.1145,-0.1383 1.8022,-0.3741 4.1578,1.0625 5.4719,2.1176 1.2179,1.0081 1.9232,1.5591 3.0735,2.7164 -1.674,-1.46 -3.6214,-2.7361 -4.3821,-3.2257 -1.2301,-0.7059 -2.9446,-1.3506 -3.8508,-0.7854 -0.1925,-0.3086 0.2768,0.1219 -0.427,-0.6846z"/>
   <path id="_76845112" fill="white" fill-rule="nonzero" stroke="#838281" stroke-width="0.0762" stroke-linejoin="bevel" d="M120.426 60.5231c0.0436,0.0365 -0.0697,-0.0584 0.0833,-0.1526 1.3788,-0.5499 4.1744,0.4115 5.7905,1.1713 1.4969,0.7786 2.1856,1.1772 3.7185,2.0897 -2.1643,-0.9372 -4.2676,-1.823 -5.1311,-2.1012 -1.3693,-0.5237 -3.0677,-0.9375 -3.6073,-0.2927 -0.2423,-0.2769 0.1094,-0.1307 0,0l-0.8539 -0.7145z"/>
   <path id="_66514536" fill="white" fill-rule="nonzero" stroke="#838281" stroke-width="0.0762" stroke-linejoin="bevel" d="M123.4 72.4717c0,0.0795 2.8745,3.9314 3.488,5.7151 0.5909,1.568 0.7272,2.2157 1.0681,3.9655 -0.4203,-2.2042 -1.4884,-4.0676 -1.9316,-4.9084 -0.2499,-0.5342 -1.8974,-2.6475 -2.7042,-3.602 0,-0.0794 0.25,0.0569 0.0797,-1.1702z"/>
   <path id="_66501520" fill="white" fill-rule="nonzero" stroke="#838281" stroke-width="0.0762" stroke-linejoin="bevel" d="M116.943 62.6396c0,0.1022 0.0455,-0.1136 -0.1478,-0.0341 -1.3974,0.6931 -2.4769,3.4882 -2.8973,5.1584 -0.3977,1.6816 -0.4999,2.4088 -0.8068,4.1585 0.6363,-2.2497 1.0227,-3.704 1.3068,-4.6016 0.5567,-1.3407 1.7043,-3.5677 2.5451,-3.5677 0,-0.4205 -0.1478,0 0,0l0 -1.1135z"/>
   <path id="_76987240" fill="white" fill-rule="nonzero" stroke="#838281" stroke-width="0.0762" stroke-linejoin="bevel" d="M116.809 48.1411c-0.0268,0.0502 0.0735,-0.0896 -0.1845,-0.1369 -1.7819,-0.2804 -4.1931,1.3442 -5.4735,2.49 -1.1519,1.0983 -1.6037,1.6558 -2.6835,2.9085 1.668,-1.583 3.3004,-2.9789 4.0462,-3.5084 1.1555,-0.8389 3.0367,-1.6387 4.0193,-1.1149 0.0374,-0.0702 -0.411,0.1673 0.276,-0.6383z"/>
   <path id="_76466432" fill="white" fill-rule="nonzero" stroke="#838281" stroke-width="0.0762" stroke-linejoin="bevel" d="M120.011 67.2981c-0.9772,0.6703 -1.5113,3.8517 -1.4543,5.6015 0,1.6816 0.193,1.9316 0.3066,3.6928 0.1137,-2.2951 0.1137,-3.1019 0.2273,-3.9655 0.1136,-1.3974 0.6931,-4.5221 1.1931,-4.6585 0,-0.1136 -0.1364,-0.0909 0,-0.0909l-0.2727 -0.5794z"/>
   <path id="_66866952" fill="white" fill-rule="nonzero" stroke="#838281" stroke-width="0.0762" stroke-linejoin="bevel" d="M121.153 74.0942c1.2385,0.6703 1.5906,3.2154 1.3749,4.9766 -0.2273,1.6702 -0.6136,2.7837 -1.034,4.5789 0.1932,-2.3519 0.5795,-4.2495 0.6135,-5.1924 0,-1.1817 -0.25,-3.2156 -1.1134,-3.5223 0,-0.1932 0.0796,-0.6932 0.159,-0.8408z"/>
   <path id="_66389704" fill="white" fill-rule="nonzero" stroke="#838281" stroke-width="0.0762" stroke-linejoin="bevel" d="M118.586 77.3766c-0.0246,0.0236 0.0976,-0.0624 -0.1412,-0.1796 -1.5998,-0.7786 -4.4184,-0.0543 -5.9914,0.6542 -1.4118,0.6955 -2.054,1.0768 -3.4527,1.9172 1.9487,-1.0225 4.1582,-1.8231 5.032,-2.1274 1.3972,-0.3663 3.1512,-0.4766 3.9308,0.3341 0.2621,-0.252 -0.2639,-0.0615 -0.1064,0.1023l0.7289 -0.7008z"/>
  </g>
  <g id="Stem_Glab" onclick="parent.replacechar('Stem_Glab')" onmousemove="parent.showtooltip('Stem_Glab', 'Branchlet glabrous')" onmouseout="parent.hidetooltip('Stem_Glab')" cursor="pointer" >
   <path id="_64946632" fill="#786432" fill-rule="nonzero" stroke="black" stroke-width="0.0762" stroke-linejoin="bevel" d="M32.0957 11.036l0 66.1899c0.5875,5.9685 15.9805,5.6739 15.8086,0l0 -66.1899 -15.8086 0z"/>
   <path id="_66390864" fill="yellow" fill-rule="nonzero" stroke="black" stroke-width="0.0762" stroke-linejoin="bevel" d="M39.945 15.3135c-4.2775,0 -7.8052,-1.7861 -7.8052,-4.057 0,-2.2271 3.5277,-4.0569 7.8052,-4.0569 4.3875,0 7.9153,1.8298 7.9153,4.0569 0,2.2709 -3.5278,4.057 -7.9153,4.057z"/>
  </g>
 </g>
<image xlink:href="tick.gif" id="imgtick" x="-100" y="-100" width="15" height="15"/>
<rect id="recttooltip" x="-100" y="-100" width="55" height="6" fill-opacity="0.4" pointer-events="none"/>
<text id="textboxid" x="-100" y="-100" pointer-events="none"> </text>
</a></svg>
