<?xml version="1.0" encoding="UTF-8"?>
<!DOCTYPE svg PUBLIC "-//W3C//DTD SVG 1.1//EN" "http://www.w3.org/Graphics/SVG/1.1/DTD/svg11.dtd">
<!-- Creator: CorelDRAW -->
<svg xmlns="http://www.w3.org/2000/svg" xml:space="preserve" shape-rendering="geometricPrecision" text-rendering="geometricPrecision" image-rendering="optimizeQuality" fill-rule="evenodd" clip-rule="evenodd"
viewBox="0 0 240 180"
 xmlns:xlink="http://www.w3.org/1999/xlink">
<a>
 <g id="Layer_x0020_1">
  <metadata id="CorelCorpID_0Corel-Layer"/>
  <rect fill="none" transform="matrix(3.24291E-013 -17.1512 10.3131 3.82591E-013 -1.55692E-005 180)" width="10.4949" height="23.2713"/>
  <g id="Stp_No" onclick="parent.replacechar('Stp_No')" onmousemove="parent.showtooltip('Stp_No', 'Stipule absent')" onmouseout="parent.hidetooltip('Stp_No')" cursor="pointer" >
   <g>
    <path id="_76684880" fill="#BF9B76" stroke="#AAA9A9" stroke-width="0.0762" d="M223.459 60.7915c4.3918,0 7.9533,1.154 7.9533,2.5769 0,1.423 -3.5615,2.5769 -7.9533,2.5769 -4.3918,0 -7.9533,-1.1539 -7.9533,-2.5769 0,-1.4229 3.5615,-2.5769 7.9533,-2.5769z"/>
    <path id="_66730400" fill="#BF9B76" stroke="#AAA9A9" stroke-width="0.0762" d="M215.506 63.3721c-0.1432,17.6747 0.1431,35.6527 0,53.3274 0.2137,3.1747 15.2957,3.6608 15.9066,0l-0.0208 -53.3271c-0.4986,3.4515 -15.5656,3.4067 -15.8858,-0.0003z"/>
   </g>
   <g>
    <path id="_65725184" fill="#E5E5E5" stroke="#838281" stroke-width="0.0762" d="M217.099 87.5784c-1.8471,1.956 -29.3905,12.4976 -31.5591,13.7334 -0.1807,0.8166 1.4125,1.1661 1.5516,0.7097l33.5716 -12.6888c-0.3059,-0.2802 -1.2981,-0.2303 -2.2756,-0.6406 -1.072,-0.7894 -1.0991,-1.3096 -1.2885,-1.1137z"/>
    <path id="_77341144" fill="#E5E5E5" stroke="#838281" stroke-width="0.0762" d="M203.94 109.055c-4.3334,-5.5605 -13.3465,-7.4215 -16.8491,-7.0338l20.4562 -7.7694c5.5611,2.411 7.7044,12.2778 -3.6071,14.8032z"/>
    <path id="_76771088" fill="#E5E5E5" stroke="#838281" stroke-width="0.0762" d="M208.455 94.7174c-0.3248,-0.1925 -0.5355,-0.3006 -0.9076,-0.4653l13.1154 -4.9194c-0.5442,3.1615 -8.8265,3.144 -12.2078,5.3847z"/>
    <path id="_66516744" fill="#E5E5E5" stroke="#838281" stroke-width="0.0762" d="M218.049 87.6869c0.0417,-0.1463 1.1842,-0.9939 1.5644,-0.9104 0.3902,0.1721 0.7694,2.0461 0.0999,1.9414 -0.1667,-0.0261 -0.7858,-0.1332 -1.0684,-0.3077 -0.3411,-0.2106 -0.6228,-0.6292 -0.5959,-0.7233z"/>
    <path id="_76549928" fill="#E5E5E5" stroke="#838281" stroke-width="0.0762" d="M205.259 93.1765c-6.5712,2.7127 -13.1425,5.4254 -19.7138,8.1381 -1.0623,-1.3941 -10.2121,-4.0917 -16.4626,-2.9142 10.901,-4.3586 25.2282,-9.4358 36.1764,-5.2239z"/>
    <path id="_66788216" fill="#E5E5E5" stroke="#838281" stroke-width="0.0762" d="M203.94 109.055c-4.4052,-4.1131 -12.1302,-6.6682 -17.2366,-5.567 -0.1487,0.5807 -1.7381,-0.2178 -1.5454,-0.7338 -2.6414,-2.1395 -5.116,-4.7038 -16.5706,-4.2239 5.1634,-1.256 14.733,0.3501 16.9574,2.784 -0.1402,0.5208 1.4027,1.2388 1.5461,0.7069 5.034,-0.7555 14.1534,2.8827 16.8491,7.0338z"/>
   </g>
  </g>
  <g id="Stp_Scar" onclick="parent.replacechar('Stp_Scar')" onmousemove="parent.showtooltip('Stp_Scar', 'Stipule leaving annular scar')" onmouseout="parent.hidetooltip('Stp_Scar')" cursor="pointer" >
   <g>
    <path id="_77781224" fill="#BF9B76" stroke="#AAA9A9" stroke-width="0.0762" d="M139.733 60.7359c4.3959,0 7.9609,1.155 7.9609,2.5793 0,1.4243 -3.565,2.5794 -7.9609,2.5794 -4.396,0 -7.9609,-1.1551 -7.9609,-2.5794 0,-1.4243 3.5649,-2.5793 7.9609,-2.5793z"/>
    <path id="_76742720" fill="#BF9B76" stroke="#AAA9A9" stroke-width="0.0762" d="M131.773 63.3189c-0.1433,17.6915 0.1432,35.6866 0,53.3782 0.2139,3.1777 15.3102,3.6642 15.9218,0l-0.0209 -53.3779c-0.4991,3.4547 -15.5804,3.4099 -15.9009,-0.0003z"/>
   </g>
   <path id="_77728536" fill="#663300" fill-opacity="0.501961" stroke="black" stroke-width="0.0762" stroke-dasharray="0.762000 0.381000" stroke-opacity="0.501961" d="M147.687 90.0506c-0.001,-2.3702 -15.8977,-3.4974 -15.888,-0.6994 0.002,0.6416 -0.0001,0.2013 0.0019,0.6487 -0.0092,-2.8076 15.8872,-1.5643 15.8864,0.8323 -0.0021,-0.4472 0.0017,-0.3345 -0.0003,-0.7816z"/>
   <path id="_76646224" fill="#663300" stroke="black" stroke-width="0.0762" d="M131.801 89.9999c0.1703,0.8185 1.1609,1.0791 1.6375,1.2536 -0.0782,0.0261 0.0025,0.1347 -0.4707,0.6969 -0.4806,-0.1956 -1.0335,-0.6498 -1.1641,-1.0223 -0.0009,-0.3094 -0.0018,-0.6189 -0.0027,-0.9282z"/>
   <path id="_27627112" fill="#663300" stroke="black" stroke-width="0.0762" d="M136.548 92.6299c3.6107,0.4011 10.7054,0.5011 11.1391,-1.8038 0.0004,0.2453 0.0007,0.4907 0.0011,0.736 -1.0083,2.1566 -8.1695,2.3626 -11.508,1.9165 0.1675,-0.2496 0.3814,-0.635 0.3678,-0.8487z"/>
   <g>
    <path id="_67143160" fill="#E5E5E5" stroke="#838281" stroke-width="0.0762" d="M133.429 91.2642c-1.5069,1.7459 -24.6898,11.8292 -26.4995,12.9707 -0.1235,0.7061 1.2543,0.9444 1.3559,0.5482l28.2629 -12.1532c-0.2727,-0.2282 -1.1204,-0.1475 -1.9732,-0.4613 -0.9483,-0.635 -0.9916,-1.0794 -1.1461,-0.9044z"/>
    <path id="_66891440" fill="#E5E5E5" stroke="#838281" stroke-width="0.0762" d="M122.984 110.161c-3.9241,-4.5957 -11.714,-5.8438 -14.6986,-5.3776l17.22 -7.4376c4.8547,1.8516 7.0684,10.2188 -2.5214,12.8152z"/>
    <path id="_66455976" fill="#E5E5E5" stroke="#838281" stroke-width="0.0762" d="M126.3 97.7092c-0.2855,-0.1525 -0.4702,-0.2368 -0.7951,-0.3637l11.0429 -4.7156c-0.3448,2.7282 -7.4381,3.0308 -10.2478,5.0793z"/>
    <path id="_66514536" fill="#E5E5E5" stroke="#838281" stroke-width="0.0762" d="M134.246 91.3208c0.0301,-0.1269 0.976,-0.8966 1.3048,-0.8397 0.3408,0.1325 0.7373,1.7227 0.16,1.6587 -0.1438,-0.0159 -0.678,-0.0839 -0.9268,-0.2225 -0.3001,-0.1672 -0.5573,-0.515 -0.538,-0.5965z"/>
    <path id="_66866952" fill="#E5E5E5" stroke="#838281" stroke-width="0.0762" d="M123.504 96.5122c-5.5233,2.5749 -11.0467,5.1499 -16.5701,7.7249 -0.9632,-1.1532 -8.9021,-3.1125 -14.2097,-1.8646 9.1682,-4.1504 21.2428,-9.0475 30.7798,-5.8603z"/>
    <path id="_65830656" fill="#E5E5E5" stroke="#838281" stroke-width="0.0762" d="M122.984 110.161c-3.9302,-3.3535 -10.6435,-5.2454 -14.9742,-4.1066 -0.1051,0.503 -1.4968,-0.1199 -1.3516,-0.5691 -2.344,-1.731 -4.5614,-3.8322 -14.3523,-2.982 4.3735,-1.2734 12.6301,-0.265 14.6284,1.7341 -0.1001,0.4512 1.2487,1.007 1.3511,0.546 4.282,-0.84 12.2309,1.9261 14.6986,5.3776z"/>
   </g>
  </g>
  <g id="Stp_Yes" onclick="parent.replacechar('Stp_Yes')" onmousemove="parent.showtooltip('Stp_Yes', 'Stipule present')" onmouseout="parent.hidetooltip('Stp_Yes')" cursor="pointer" >
   <g id="a_Stipule_apex">
    <g id="feuille_1">
     <path id="_76536472" fill="#E5E5E5" stroke="#838281" stroke-width="0.0762" d="M40.9872 150.047c-1.4967,-3.2497 -22.858,-23.4973 -24.7917,-25.7721 0.1822,0.8593 1.7875,1.0249 1.6334,0.1926l25.5489 25.0316c-0.1829,0.1075 -0.6431,-0.0848 -1.5014,-0.0195 -0.9368,0.4542 -0.5142,0.5212 -0.8892,0.5674z"/>
     <path id="_76536792" fill="#E5E5E5" stroke="#838281" stroke-width="0.0762" d="M26.5442 125.333c-6.6207,-2.7098 -8.5946,-0.7762 -8.7022,-0.8543 5.8994,5.7374 8.5876,8.5236 14.5641,14.2702 4.8827,-0.4577 4.1714,-5.9711 -5.8619,-13.4159z"/>
     <path id="_77162648" fill="#E5E5E5" stroke="#838281" stroke-width="0.0762" d="M30.1559 138.786c0.7558,0.039 -0.0396,-0.0095 0.5784,-0.0094 3.8454,3.84 9.1016,8.9799 10.2529,11.2704 0.0001,0 0.1546,0.7983 0.2919,1.1528 -1.3843,-2.1306 -8.3089,-9.9994 -11.1232,-12.4138z"/>
     <path id="_76734152" fill="#E5E5E5" stroke="#838281" stroke-width="0.0762" d="M30.7343 138.776c-5.8474,-5.7288 -8.6914,-8.7726 -14.5388,-14.5016 -4.1942,-2.0827 -9.8964,-2.4133 -11.4774,-0.1688 10.2693,8.2219 16.3961,14.9686 26.0162,14.6704z"/>
    </g>
    <g id="feuille_3">
     <path id="_77546168" fill="#E5E5E5" stroke="#838281" stroke-width="0.0762" d="M41.0615 125.379c-1.4967,-3.2497 -22.858,-23.4974 -24.7917,-25.7721 0.1821,0.8593 1.7874,1.0248 1.6333,0.1926l25.549 25.0315c-0.1829,0.1076 -0.6431,-0.0847 -1.5014,-0.0194 -0.9369,0.4541 -0.5143,0.5212 -0.8892,0.5674z"/>
     <path id="_27631480" fill="#E5E5E5" stroke="#838281" stroke-width="0.0762" d="M26.6184 100.666c-6.6206,-2.7097 -8.5946,-0.7761 -8.7021,-0.8543 5.8994,5.7375 8.5876,8.5236 14.5641,14.2702 4.8827,-0.4577 4.1713,-5.971 -5.862,-13.4159z"/>
     <path id="_77460288" fill="#E5E5E5" stroke="#838281" stroke-width="0.0762" d="M30.2302 114.118c0.7558,0.039 -0.0397,-0.0095 0.5784,-0.0095 3.8453,3.8401 9.1015,8.98 10.2529,11.2705 0,0 0.1546,0.7983 0.2919,1.1528 -1.3844,-2.1307 -8.309,-9.9994 -11.1232,-12.4138z"/>
     <path id="_76445408" fill="#E5E5E5" stroke="#838281" stroke-width="0.0762" d="M30.8085 114.109c-5.8474,-5.7288 -8.6914,-8.7727 -14.5387,-14.5016 -4.1942,-2.0828 -9.8964,-2.4134 -11.4774,-0.1689 10.2692,8.2219 16.3961,14.9687 26.0161,14.6705z"/>
    </g>
    <g id="feuille_4">
     <path id="_66917120" fill="#E5E5E5" stroke="#838281" stroke-width="0.0762" d="M49.0687 116.57c0.5852,-2.0466 15.2071,-14.8328 16.4246,-16.2683 0.0403,0.5406 -1.384,0.6493 -1.4431,0.1259l-17.2928 15.8048c0.1924,0.067 0.5661,-0.0548 1.3646,-0.0164 0.9633,0.2823 0.5938,0.326 0.9467,0.354z"/>
     <path id="_76599920" fill="#E5E5E5" stroke="#838281" stroke-width="0.0762" d="M56.3105 100.996c5.3871,-1.722 7.6511,-0.5125 7.7305,-0.5617 -4.0032,3.6227 -5.7862,5.3814 -9.8572,9.01 -4.5627,-0.2737 -5.2366,-3.7407 2.1267,-8.4483z"/>
     <path id="_76495128" fill="#E5E5E5" stroke="#838281" stroke-width="0.0762" d="M56.2442 109.461c-0.6798,0.0268 0.034,-0.0059 -0.5297,-0.0041 -2.5853,2.4242 -6.1452,5.6697 -6.6458,7.1126 0,0 0.0505,0.5021 0.0107,0.7253 0.7509,-1.3432 5.1778,-6.3083 7.1648,-7.8338z"/>
     <path id="_67085616" fill="#E5E5E5" stroke="#838281" stroke-width="0.0762" d="M55.7145 109.457c3.9579,-3.6171 5.8211,-5.5383 9.7788,-9.1557 3.3252,-1.3208 8.4456,-1.545 10.4257,-0.1388 -7.3916,5.1966 -11.3603,9.4544 -20.2045,9.2945z"/>
    </g>
    <g id="feuille_2">
     <path id="_79683424" fill="#E5E5E5" stroke="#838281" stroke-width="0.0762" d="M49.4013 138.723c0.9306,-1.9145 17.5447,-11.9771 18.9923,-13.1802 -0.0539,0.5394 -1.4755,0.3999 -1.4431,-0.1258l-19.7672 12.5735c0.1778,0.0992 0.5671,0.044 1.3468,0.2199 0.8999,0.4448 0.5285,0.4239 0.8712,0.5126z"/>
     <path id="_76613864" fill="#E5E5E5" stroke="#838281" stroke-width="0.0762" d="M59.2291 124.638c5.6038,-0.7637 7.6243,0.8194 7.711,0.7848 -4.5697,2.8751 -6.6302,4.2987 -11.2678,7.168 -4.4465,-1.0593 -4.5102,-4.5906 3.5568,-7.9528z"/>
     <path id="_67208168" fill="#E5E5E5" stroke="#838281" stroke-width="0.0762" d="M57.6987 132.964c-0.6741,-0.0912 0.0345,0.0001 -0.5209,-0.0957 -2.9659,1.9402 -7.0338,4.5205 -7.7765,5.8551 0,0 -0.0372,0.5032 -0.115,0.7162 0.972,-1.193 6.1914,-5.317 8.4124,-6.4756z"/>
     <path id="_66470920" fill="#E5E5E5" stroke="#838281" stroke-width="0.0762" d="M57.1778 132.868c4.5241,-2.8775 6.6917,-4.4473 11.2158,-7.3251 3.5035,-0.7254 8.5855,-0.0601 10.2924,1.6677 -8.1795,3.8389 -12.8252,7.3455 -21.5082,5.6574z"/>
    </g>
    <path id="bourgeon" fill="#99FF00" stroke="black" stroke-width="0.0762" stroke-linejoin="round" d="M44.4396 98.2904c-7.8776,18.3941 -1.4109,19.1493 4.7321,17.3346 0.6879,-8.344 -4.053,-13.4146 -4.7321,-17.3346z"/>
    <path id="_67081784" fill="#BF9B76" stroke="#AAA9A9" stroke-width="0.0762" d="M41.0399 113.275c0.0242,6.4643 0.06,26.3071 -0.0152,40.9906 0.0178,2.1346 8.1408,2.0607 8.1729,-0.0019l0.0171 -41.1723c-0.0014,3.112 -8.1659,2.9911 -8.1748,0.1836z"/>
    <path id="bourgeon_0" fill="#33CC33" fill-opacity="0.501961" stroke="black" stroke-width="0.0762" stroke-linejoin="round" stroke-dasharray="0.762000 0.381000" stroke-opacity="0.501961" d="M44.9232 104.464c1.911,3.1973 4.4531,9.8083 -0.2671,11.1233 -0.6496,-0.0209 -1.4253,-0.1664 -2.3455,-0.4608 -1.1279,-3.4204 -2.0387,-2.2779 2.6126,-10.6625z"/>
    <path id="stipule_1" fill="#99FF00" stroke="black" stroke-width="0.0762" d="M45.6733 117.165c0.1923,-0.2275 0.2189,-0.3083 0.2339,-0.4434 -1.1968,-4.4784 4.5758,-5.1729 5.1206,-7.0806 2.9656,5.365 0.0123,5.2582 -0.6659,6.7109 -0.3459,0.7408 -2.8314,1.1655 -4.6886,0.8131z"/>
    <path id="stipule_2" fill="#99FF00" stroke="black" stroke-width="0.0762" d="M44.3882 126.768c-0.1923,-0.2276 -0.2188,-0.3084 -0.2339,-0.4435 1.1968,-4.4784 -4.5757,-5.1729 -5.1206,-7.0805 -2.9656,5.3649 -0.0123,5.2581 0.666,6.7109 0.3458,0.7408 2.8313,1.1654 4.6885,0.8131z"/>
   </g>
   <g id="a_Stipule">
    <g>
     <path id="_64450584" fill="#BF9B76" stroke="#AAA9A9" stroke-width="0.0762" d="M48.9262 24.1616c4.2868,0 7.7639,1.1265 7.7639,2.5157 0,1.3889 -3.4771,2.5154 -7.7639,2.5154 -4.2875,0 -7.7644,-1.1265 -7.7644,-2.5154 0,-1.3892 3.4769,-2.5157 7.7644,-2.5157z"/>
     <path id="_65716592" fill="#BF9B76" stroke="#AAA9A9" stroke-width="0.0762" d="M41.1618 26.6808c-0.1398,17.2539 0.14,34.8045 0,52.0584 0.2087,3.0995 14.9322,3.5743 15.5283,0l-0.0206 -52.0583c-0.4869,3.3695 -15.1952,3.3256 -15.5077,-0.0001z"/>
    </g>
    <g>
     <path id="_76638040" fill="#E5E5E5" stroke="#838281" stroke-width="0.0762" d="M42.7344 57.2959c-1.5177,1.7585 -24.8683,11.9147 -26.6911,13.0645 -0.1243,0.7112 1.2634,0.9512 1.3657,0.5522l28.4674 -12.2412c-0.2747,-0.2298 -1.1286,-0.1485 -1.9875,-0.4646 -0.9552,-0.6396 -0.9987,-1.0872 -1.1545,-0.9109z"/>
     <path id="_66495496" fill="#E5E5E5" stroke="#838281" stroke-width="0.0762" d="M32.214 76.329c-3.9525,-4.6289 -11.7987,-5.8861 -14.805,-5.4164l17.3446 -7.4915c4.8898,1.865 7.1195,10.2928 -2.5396,12.9079z"/>
     <path id="_66896224" fill="#E5E5E5" stroke="#838281" stroke-width="0.0762" d="M35.5545 63.7874c-0.2876,-0.1535 -0.4736,-0.2385 -0.8009,-0.3663l11.1228 -4.7497c-0.3473,2.748 -7.4919,3.0528 -10.3219,5.116z"/>
     <path id="_77452952" fill="#E5E5E5" stroke="#838281" stroke-width="0.0762" d="M43.558 57.3529c0.0304,-0.1279 0.9831,-0.9031 1.3143,-0.8458 0.3432,0.1335 0.7426,1.7352 0.1611,1.6708 -0.1449,-0.0161 -0.6829,-0.0846 -0.9334,-0.2242 -0.3024,-0.1685 -0.5614,-0.5187 -0.542,-0.6008z"/>
     <path id="_76548208" fill="#E5E5E5" stroke="#838281" stroke-width="0.0762" d="M32.7382 62.5818c-5.5634,2.5936 -11.1267,5.1871 -16.69,7.7807 -0.9701,-1.1615 -8.9665,-3.135 -14.3125,-1.878 9.2345,-4.1804 21.3964,-9.113 31.0025,-5.9027z"/>
     <path id="_76822432" fill="#E5E5E5" stroke="#838281" stroke-width="0.0762" d="M32.214 76.329c-3.9586,-3.3777 -10.7206,-5.2833 -15.0825,-4.1363 -0.1059,0.5067 -1.5077,-0.1208 -1.3614,-0.5733 -2.3609,-1.7434 -4.5944,-3.8597 -14.4561,-3.0034 4.4052,-1.2827 12.7215,-0.2669 14.7342,1.7465 -0.1008,0.4546 1.2577,1.0144 1.3608,0.5501 4.313,-0.8461 12.3194,1.9399 14.805,5.4164z"/>
    </g>
    <g>
     <path id="_66430632" fill="#99FF00" stroke="black" stroke-width="0.0762" d="M41.2209 55.4062c-0.0059,-1.9385 -0.0139,-3.244 -0.0186,-4.7292 -0.428,-0.4897 -0.5361,-0.7287 -0.6917,-1.1249 -0.3518,1.0272 0.1653,1.145 -0.4945,2.087 -0.0424,1.295 0.6743,2.9467 1.2048,3.7671z"/>
     <path id="_66782912" fill="#99FF00" stroke="black" stroke-width="0.0762" d="M41.2315 58.7716c0.1932,-0.1142 0.6367,-0.3755 0.7437,-0.501 1.3479,-1.1205 -1.9467,-3.0515 -1.9591,-6.6315 -3.4329,3.3118 1.8579,5.0012 1.2154,7.1325z"/>
     <path id="_27589704" fill="#99FF00" fill-opacity="0.501961" stroke="black" stroke-width="0.0762" stroke-linejoin="round" stroke-dasharray="0.762000 0.381000" stroke-opacity="0.501961" d="M41.2304 58.3819c-0.0106,-3.1839 -0.0329,-4.5226 -0.0434,-7.7065 1.2404,2.1388 6.006,1.5961 5.2886,5.4843 -0.0231,0.1254 -0.2245,0.5182 -0.0612,0.6827 -1.3522,-0.1708 -5.119,0.4672 -5.184,1.5395z"/>
     <path id="_76440496" fill="#99FF00" stroke="black" stroke-width="0.0762" d="M44.396 59.1915c0.2253,-0.2666 0.2564,-0.3613 0.2741,-0.5196 -1.4024,-5.2474 5.3614,-6.0611 5.9999,-8.2963 3.4747,6.2861 0.0143,6.161 -0.7804,7.8632 -0.4052,0.868 -3.3175,1.3656 -5.4936,0.9527z"/>
    </g>
   </g>
  </g>
 </g>
<image xlink:href="tick.gif" id="imgtick" x="-100" y="-100" width="15" height="15"/>
<rect id="recttooltip" x="-100" y="-100" width="55" height="6" fill-opacity="0.4" pointer-events="none"/>
<text id="textboxid" x="-100" y="-100" pointer-events="none"> </text>
</a></svg>
