<?xml version="1.0" encoding="UTF-8"?>
<!DOCTYPE svg PUBLIC "-//W3C//DTD SVG 1.1//EN" "http://www.w3.org/Graphics/SVG/1.1/DTD/svg11.dtd">
<!-- Creator: CorelDRAW -->
<svg xmlns="http://www.w3.org/2000/svg" xml:space="preserve" shape-rendering="geometricPrecision" text-rendering="geometricPrecision" image-rendering="optimizeQuality" fill-rule="evenodd" clip-rule="evenodd"
viewBox="0 0 240 180"
 xmlns:xlink="http://www.w3.org/1999/xlink">
<a>
 <defs>
    <clipPath id="id0">
     <path d="M113.717 6.6131c-0.1256,15.5069 0.1258,31.2805 0,46.7875 0.1876,2.7857 13.4203,3.2124 13.9561,0l-0.0184 -46.7875c-0.4376,3.0284 -13.6568,2.9889 -13.9377,0z"/>
    </clipPath>
 </defs>
 <g id="Layer_x0020_1">
  <metadata id="CorelCorpID_0Corel-Layer"/>
  <rect fill="none" x="-0.0001" y="-0.0001" width="240" height="180"/>
  <g id="StpAsp_Entire" onclick="parent.replacechar('StpAsp_Entire')" onmousemove="parent.showtooltip('StpAsp_Entire', 'Stipule entire')" onmouseout="parent.hidetooltip('StpAsp_Entire')" cursor="pointer" >
   <g id="feuille_2">
    <path id="_76839632" fill="#E5E5E5" stroke="#7F7F7F" stroke-width="0.0762" d="M125.873 150.482c1.5461,-1.9349 22.9785,-9.1053 24.9295,-10.1001 -0.1995,0.5983 -1.7772,0.0763 -1.606,-0.5123l-25.6538 9.2134c0.1767,0.1584 0.6325,0.1947 1.4724,0.5942 0.9074,0.7355 0.4914,0.6164 0.8579,0.8048z"/>
    <path id="_65726384" fill="#E5E5E5" stroke="#7F7F7F" stroke-width="0.0762" d="M140.632 137.009c6.5561,0.5672 8.4443,2.8812 8.5517,2.8637 -5.9226,2.0942 -8.6255,3.1828 -14.6239,5.2528 -4.7755,-2.3399 -3.9443,-6.3644 6.0722,-8.1165z"/>
    <path id="_67155488" fill="#E5E5E5" stroke="#7F7F7F" stroke-width="0.0762" d="M136.765 146.068c-0.7419,-0.2762 0.0391,0.0087 -0.5668,-0.2422 -3.8629,1.4435 -9.1404,3.3313 -10.3247,4.6559 0,0 -0.171,0.5618 -0.3141,0.7834 1.4088,-1.105 8.3881,-4.4505 11.2056,-5.1971z"/>
    <path id="_78487824" fill="#E5E5E5" stroke="#7F7F7F" stroke-width="0.0762" d="M136.198 145.826c5.8713,-2.1085 8.7333,-3.3355 14.6047,-5.4442 4.1621,0.0729 9.7602,2.1287 11.2556,4.5264 -10.2668,2.2642 -16.4369,5.0557 -25.8603,0.9178z"/>
   </g>
   <g>
    <path id="_77816000" fill="#BF9B76" stroke="#AAA9A9" stroke-width="0.0762" d="M120.695 124.349c3.8527,0 6.9777,1.0125 6.9777,2.261 0,1.2483 -3.125,2.2607 -6.9777,2.2607 -3.8535,0 -6.9784,-1.0124 -6.9784,-2.2607 0,-1.2485 3.1249,-2.261 6.9784,-2.261z"/>
    <path id="_77909096" fill="#BF9B76" stroke="#AAA9A9" stroke-width="0.0762" d="M113.717 126.613c-0.1256,15.5069 0.1258,31.2805 0,46.7875 0.1876,2.7857 13.4203,3.2124 13.9561,0l-0.0184 -46.7875c-0.4376,3.0284 -13.6568,2.9889 -13.9377,0z"/>
   </g>
   <path id="_76644712" fill="#99FF00" stroke="black" stroke-width="0.0762" d="M117.992 154.247c0.1778,-1.4536 1.4245,-3.2159 2.529,-4.1894 1.2865,-1.2076 2.947,-4.6853 3.0491,-5.9779 0.1355,-1.7141 -0.1319,0.6691 1.2194,1.8775 1.3585,1.0403 3.3969,2.0192 3.4186,4.837 -0.0844,2.6646 -0.2246,2.3142 -0.5414,2.8237 -2.3769,2.4029 -8.8456,1.7206 -10.2461,1.6552 0.2862,-0.3215 0.5186,-0.5362 0.5714,-1.0261z"/>
   <path id="_76736080" fill="#99FF00" fill-opacity="0.501961" stroke="black" stroke-width="0.0762" stroke-dasharray="0.762000 0.228600" stroke-opacity="0.501961" d="M113.718 145.912c1.4546,-0.7757 2.9818,-2.5422 3.9864,-3.7477 1.0958,1.7754 2.0638,1.9197 3.2207,2.7306 0.9644,0.6525 3.0836,2.8834 2.6177,4.1878 -0.6796,0.4076 -0.7512,0.3803 -0.8993,0.9943 -2.4902,-0.146 -5.4314,1.0602 -7.2722,1.7151 0.1018,-1.0289 -1.1571,-2.8272 -1.6448,-3.7478 -0.0035,-0.9361 -0.014,-0.7423 -0.0085,-2.1323z"/>
   <path id="_76860032" fill="#99FF00" fill-opacity="0.360784" stroke="black" stroke-width="0.0762" stroke-dasharray="0.762000 0.228600" stroke-opacity="0.360784" d="M124.65 145.821c0.5478,1.6751 1.0941,2.7442 1.2229,4.6603 -0.1247,0.3744 -0.1979,0.5917 -0.3141,0.7834 -0.0674,0.1311 2.1071,0.4246 2.1078,2.3528 0.6905,-1.0955 0.5289,-3.3148 0.4504,-3.7655 -0.3472,-1.9932 -1.9734,-2.9081 -3.467,-4.031z"/>
   <path id="_76496240" fill="#99FF00" stroke="black" stroke-width="0.0762" d="M113.152 146.379c0.2682,-0.4202 0.1793,-0.1908 0.5658,-0.4674 -0.0003,1.0948 -0.0006,1.0353 0.0053,2.1254 -0.3174,-0.6929 -0.4067,-0.9812 -0.5711,-1.658z"/>
   <path id="_78080664" fill="#99FF00" stroke="black" stroke-width="0.0762" d="M113.429 154.141c1.3981,-0.7535 1.6376,-1.0298 1.7391,-1.1307 0.906,-2.6988 -1.2903,-3.4297 -2.016,-6.6313 -2.0786,4.3565 -0.8249,5.6552 0.2769,7.762z"/>
   <g id="feuille">
    <path id="_76478040" fill="#E5E5E5" stroke="#7F7F7F" stroke-width="0.0762" d="M115.168 153.011c-1.364,1.5805 -22.3504,10.7084 -23.9886,11.7418 -0.1118,0.6392 1.1354,0.8549 1.2274,0.4962l25.5851 -11.0017c-0.2469,-0.2066 -1.0143,-0.1335 -1.7863,-0.4176 -0.8585,-0.5748 -0.8976,-0.9771 -1.0376,-0.8187z"/>
    <path id="_66384144" fill="#E5E5E5" stroke="#7F7F7F" stroke-width="0.0762" d="M105.713 170.117c-3.5523,-4.1603 -10.604,-5.2901 -13.3059,-4.8681l15.5885 -6.7329c4.3947,1.6761 6.3986,9.2506 -2.2826,11.601z"/>
    <path id="_77229928" fill="#E5E5E5" stroke="#7F7F7F" stroke-width="0.0762" d="M108.715 158.845c-0.2584,-0.138 -0.4256,-0.2143 -0.7197,-0.3292l9.9966 -4.2688c-0.3122,2.4698 -6.7334,2.7436 -9.2769,4.598z"/>
    <path id="_66423480" fill="#E5E5E5" stroke="#7F7F7F" stroke-width="0.0762" d="M115.909 153.062c0.0273,-0.1149 0.8835,-0.8117 1.1811,-0.7602 0.3085,0.12 0.6675,1.5595 0.1449,1.5016 -0.1303,-0.0144 -0.6139,-0.076 -0.839,-0.2015 -0.2717,-0.1514 -0.5045,-0.4661 -0.487,-0.5399z"/>
    <path id="_67081496" fill="#E5E5E5" stroke="#7F7F7F" stroke-width="0.0762" d="M106.184 157.761c-5.0001,2.3309 -10.0001,4.6619 -15.0002,6.9929 -0.8719,-1.0439 -8.0586,-2.8176 -12.8633,-1.6878 8.2995,-3.7572 19.23,-8.1904 27.8635,-5.3051z"/>
    <path id="_77649816" fill="#E5E5E5" stroke="#7F7F7F" stroke-width="0.0762" d="M105.713 170.117c-3.5577,-3.0358 -9.635,-4.7484 -13.5554,-3.7175 -0.0951,0.4554 -1.355,-0.1086 -1.2235,-0.5152 -2.1219,-1.567 -4.1292,-3.469 -12.9924,-2.6994 3.9591,-1.1528 11.4334,-0.2399 13.2423,1.5697 -0.0906,0.4085 1.1304,0.9116 1.2231,0.4943 3.8763,-0.7604 11.0721,1.7436 13.3059,4.8681z"/>
   </g>
   <path id="_67135272" fill="#99FF00" fill-opacity="0.501961" stroke="black" stroke-width="0.0762" stroke-dasharray="0.762000 0.228600" stroke-opacity="0.501961" d="M113.429 154.141c1.5103,-0.8117 1.7392,-1.1307 1.7392,-1.1307 -0.2261,0.7612 -0.3365,1.2365 -0.3123,1.8442 -0.623,0.0356 -1.216,-0.3945 -1.4269,-0.7135z"/>
  </g>
  <g id="StpAsp_Hairy" onclick="parent.replacechar('StpAsp_Hairy')" onmousemove="parent.showtooltip('StpAsp_Hairy', 'Stipule hairy')" onmouseout="parent.hidetooltip('StpAsp_Hairy')" cursor="pointer" >
   <g id="interpet">
    <g id="feuille_2_0">
     <path id="_65746096" fill="#E5E5E5" stroke="#7F7F7F" stroke-width="0.0762" d="M125.873 90.4815c1.5462,-1.9349 22.9786,-9.1054 24.9295,-10.1001 -0.1995,0.5983 -1.7772,0.0763 -1.6059,-0.5123l-25.6538 9.2133c0.1767,0.1584 0.6325,0.1948 1.4723,0.5942 0.9074,0.7356 0.4915,0.6165 0.8579,0.8049z"/>
     <path id="_78610880" fill="#E5E5E5" stroke="#7F7F7F" stroke-width="0.0762" d="M140.632 77.0094c6.5561,0.5672 8.4443,2.8811 8.5517,2.8636 -5.9226,2.0942 -8.6256,3.1829 -14.6239,5.2529 -4.7756,-2.3399 -3.9444,-6.3645 6.0722,-8.1165z"/>
     <path id="_77133656" fill="#E5E5E5" stroke="#7F7F7F" stroke-width="0.0762" d="M136.765 86.0678c-0.7419,-0.2763 0.0391,0.0086 -0.5668,-0.2422 -3.8629,1.4435 -9.1404,3.3312 -10.3248,4.6559 0,-0.0001 -0.1709,0.5617 -0.3141,0.7834 1.4088,-1.1051 8.3882,-4.4506 11.2057,-5.1971z"/>
     <path id="_77671600" fill="#E5E5E5" stroke="#7F7F7F" stroke-width="0.0762" d="M136.198 85.8256c5.8714,-2.1086 8.7333,-3.3356 14.6047,-5.4442 4.1622,0.0729 9.7602,2.1287 11.2557,4.5263 -10.2669,2.2643 -16.4369,5.0558 -25.8604,0.9179z"/>
    </g>
    <g>
     <path id="_77789520" fill="#BF9B76" stroke="#AAA9A9" stroke-width="0.0762" d="M120.695 64.3489c3.8527,0 6.9778,1.0125 6.9778,2.261 0,1.2482 -3.1251,2.2607 -6.9778,2.2607 -3.8535,0 -6.9783,-1.0125 -6.9783,-2.2607 0,-1.2485 3.1248,-2.261 6.9783,-2.261z"/>
     <path id="_79683064" fill="#BF9B76" stroke="#AAA9A9" stroke-width="0.0762" d="M113.717 66.6131c-0.1257,15.5069 0.1258,31.2805 0,46.7875 0.1876,2.7856 13.4203,3.2124 13.9561,0l-0.0185 -46.7875c-0.4376,3.0283 -13.6568,2.9889 -13.9376,0z"/>
    </g>
    <path id="_76491424" fill="#99FF00" stroke="black" stroke-width="0.0762" d="M117.992 94.2468c0.1778,-1.4536 1.4246,-3.2159 2.529,-4.1894 1.2866,-1.2076 2.9471,-4.6853 3.0492,-5.9779 0.1355,-1.7141 -0.132,0.669 1.2194,1.8775 1.3585,1.0402 3.3968,2.0192 3.4185,4.837 -0.0843,2.6646 -0.2245,2.3142 -0.5413,2.8237 -2.3769,2.4028 -8.8456,1.7205 -10.2462,1.6552 0.2863,-0.3215 0.5186,-0.5362 0.5714,-1.0261z"/>
    <path id="_66523216" fill="#99FF00" fill-opacity="0.501961" stroke="black" stroke-width="0.0762" stroke-dasharray="0.762000 0.228600" stroke-opacity="0.501961" d="M113.718 85.9118c1.4546,-0.7758 2.9817,-2.5422 3.9863,-3.7477 1.0959,1.7754 2.0638,1.9197 3.2208,2.7305 0.9644,0.6526 3.0835,2.8835 2.6177,4.1878 -0.6797,0.4076 -0.7513,0.3803 -0.8994,0.9944 -2.4901,-0.1461 -5.4313,1.0601 -7.2721,1.7151 0.1017,-1.0289 -1.1571,-2.8273 -1.6448,-3.7478 -0.0035,-0.9361 -0.0141,-0.7424 -0.0085,-2.1323z"/>
    <path id="_66499088" fill="#99FF00" fill-opacity="0.360784" stroke="black" stroke-width="0.0762" stroke-dasharray="0.762000 0.228600" stroke-opacity="0.360784" d="M124.65 85.8211c0.5477,1.6751 1.094,2.7443 1.2228,4.6604 -0.1247,0.3743 -0.1979,0.5916 -0.3141,0.7834 -0.0673,0.1311 2.1071,0.4246 2.1079,2.3528 0.6905,-1.0955 0.5288,-3.3148 0.4503,-3.7655 -0.3471,-1.9933 -1.9734,-2.9082 -3.4669,-4.0311z"/>
    <path id="_76821840" fill="#99FF00" stroke="black" stroke-width="0.0762" d="M113.152 86.3792c0.2682,-0.4203 0.1794,-0.1909 0.5659,-0.4674 -0.0003,1.0948 -0.0007,1.0352 0.0053,2.1254 -0.3174,-0.6929 -0.4068,-0.9812 -0.5712,-1.658z"/>
    <path id="_66515432" fill="#99FF00" stroke="black" stroke-width="0.0762" d="M113.429 94.1412c1.398,-0.7535 1.6375,-1.0298 1.7391,-1.1307 0.9059,-2.6988 -1.2903,-3.4297 -2.0161,-6.6313 -2.0786,4.3565 -0.8248,5.6552 0.277,7.762z"/>
    <g id="feuille_1">
     <path id="_66518024" fill="#E5E5E5" stroke="#7F7F7F" stroke-width="0.0762" d="M115.168 93.0105c-1.3641,1.5805 -22.3504,10.7084 -23.9887,11.7417 -0.1117,0.6392 1.1354,0.855 1.2274,0.4963l25.5851 -11.0017c-0.2468,-0.2066 -1.0143,-0.1335 -1.7862,-0.4176 -0.8585,-0.5748 -0.8976,-0.9771 -1.0376,-0.8187z"/>
     <path id="_67226744" fill="#E5E5E5" stroke="#7F7F7F" stroke-width="0.0762" d="M105.713 110.117c-3.5523,-4.1602 -10.6041,-5.2901 -13.306,-4.868l15.5885 -6.7329c4.3948,1.6761 6.3987,9.2506 -2.2825,11.6009z"/>
     <path id="_76893440" fill="#E5E5E5" stroke="#7F7F7F" stroke-width="0.0762" d="M108.715 98.8448c-0.2585,-0.138 -0.4256,-0.2144 -0.7198,-0.3292l9.9966 -4.2688c-0.3121,2.4698 -6.7333,2.7436 -9.2768,4.598z"/>
     <path id="_76710616" fill="#E5E5E5" stroke="#7F7F7F" stroke-width="0.0762" d="M115.909 93.0617c0.0273,-0.1149 0.8835,-0.8116 1.1812,-0.7601 0.3084,0.1199 0.6674,1.5595 0.1448,1.5016 -0.1302,-0.0145 -0.6138,-0.076 -0.8389,-0.2015 -0.2718,-0.1514 -0.5046,-0.4662 -0.4871,-0.54z"/>
     <path id="_45386144" fill="#E5E5E5" stroke="#7F7F7F" stroke-width="0.0762" d="M106.184 97.7612c-5,2.331 -10,4.662 -15.0001,6.993 -0.8719,-1.0439 -8.0587,-2.8176 -12.8634,-1.6879 8.2995,-3.7572 19.2301,-8.1903 27.8635,-5.3051z"/>
     <path id="_67148056" fill="#E5E5E5" stroke="#7F7F7F" stroke-width="0.0762" d="M105.713 110.117c-3.5578,-3.0357 -9.6351,-4.7483 -13.5554,-3.7175 -0.0952,0.4554 -1.355,-0.1085 -1.2235,-0.5152 -2.1219,-1.5669 -4.1292,-3.469 -12.9925,-2.6993 3.9592,-1.1529 11.4335,-0.2399 13.2424,1.5697 -0.0906,0.4085 1.1304,0.9116 1.223,0.4943 3.8764,-0.7604 11.0721,1.7435 13.306,4.868z"/>
    </g>
    <path id="_78079664" fill="#99FF00" fill-opacity="0.501961" stroke="black" stroke-width="0.0762" stroke-dasharray="0.762000 0.228600" stroke-opacity="0.501961" d="M113.429 94.1412c1.5103,-0.8117 1.7391,-1.1307 1.7391,-1.1307 -0.226,0.7612 -0.3364,1.2364 -0.3122,1.8442 -0.623,0.0356 -1.2161,-0.3945 -1.4269,-0.7135z"/>
   </g>
   <path id="_76605248" fill="none" stroke="black" stroke-width="0.0762" d="M121.997 89.0543c-0.0021,-0.0205 -0.0046,-0.0425 -0.0068,-0.0635 -0.073,-0.7158 -0.0388,-1.4324 0.0989,-2.0817"/>
   <path id="_77282112" fill="none" stroke="black" stroke-width="0.0762" d="M122.712 96.4035c-0.002,-0.0205 -0.0046,-0.0425 -0.0068,-0.0635 -0.073,-0.7158 -0.0388,-1.4324 0.0989,-2.0817"/>
   <path id="_66923880" fill="none" stroke="black" stroke-width="0.0762" d="M124.454 90.9957c-0.0021,-0.0205 -0.0046,-0.0425 -0.0068,-0.0635 -0.073,-0.7158 -0.0388,-1.4324 0.0989,-2.0817"/>
   <path id="_77331192" fill="none" stroke="black" stroke-width="0.0762" d="M123.664 96.0663c-0.0021,-0.0205 -0.0047,-0.0425 -0.0068,-0.0635 -0.0731,-0.7158 -0.0389,-1.4324 0.0988,-2.0817"/>
   <path id="_76876080" fill="none" stroke="black" stroke-width="0.0762" d="M124.068 92.2312c-0.0203,0.0027 -0.0423,0.006 -0.0632,0.0088 -0.713,0.0959 -1.4304,0.0847 -2.0838,-0.0322"/>
   <path id="_77496280" fill="none" stroke="black" stroke-width="0.0762" d="M120.748 90.2878c0.0173,0.0111 0.0362,0.0227 0.054,0.0341 0.6066,0.3868 1.1474,0.8583 1.5711,1.3692"/>
   <path id="_66459616" fill="none" stroke="black" stroke-width="0.0762" d="M124.263 91.2077c0.0173,0.0111 0.0362,0.0227 0.054,0.0341 0.6066,0.3868 1.1474,0.8583 1.5712,1.3692"/>
   <path id="_77491992" fill="none" stroke="black" stroke-width="0.0762" d="M126.381 93.3031c0.0174,0.011 0.0362,0.0227 0.054,0.0341 0.6067,0.3868 1.1475,0.8583 1.5712,1.3692"/>
   <path id="_76630768" fill="none" stroke="black" stroke-width="0.0762" d="M120.929 94.8043c-0.0152,0.0139 -0.0313,0.0291 -0.0469,0.0433 -0.5309,0.4857 -1.1265,0.8857 -1.7298,1.1625"/>
   <path id="_66306816" fill="none" stroke="black" stroke-width="0.0762" d="M123.064 92.7305c-0.0151,0.0139 -0.0313,0.0291 -0.0468,0.0433 -0.5309,0.4856 -1.1266,0.8857 -1.7298,1.1624"/>
   <path id="_78081184" fill="none" stroke="black" stroke-width="0.0762" d="M119.808 92.6203c-0.0173,-0.0112 -0.0361,-0.023 -0.0538,-0.0345 -0.6039,-0.391 -1.1414,-0.8663 -1.5615,-1.3802"/>
   <path id="_77631456" fill="none" stroke="black" stroke-width="0.0762" d="M126.459 95.4859c-0.0173,-0.0111 -0.0361,-0.0229 -0.0538,-0.0344 -0.6039,-0.3911 -1.1414,-0.8664 -1.5615,-1.3802"/>
   <path id="_76953144" fill="none" stroke="black" stroke-width="0.0762" d="M122.479 91.147c0.0204,0.0033 0.0423,0.0065 0.0631,0.0099 0.7102,0.1152 1.3935,0.3342 1.9848,0.6357"/>
   <path id="_77803240" fill="none" stroke="black" stroke-width="0.0762" d="M124.522 87.6982c0.0203,0.0033 0.0423,0.0066 0.0631,0.0099 0.7102,0.1152 1.3935,0.3342 1.9848,0.6357"/>
   <path id="_66873488" fill="none" stroke="black" stroke-width="0.0762" d="M121.015 89.7529c0.0203,0.0033 0.0422,0.0065 0.0631,0.0099 0.7102,0.1152 1.3934,0.3342 1.9847,0.6357"/>
   <path id="_76664952" fill="none" stroke="black" stroke-width="0.0762" d="M127.179 91.2317c0.0203,0.0033 0.0423,0.0066 0.0631,0.0099 0.7102,0.1152 1.3935,0.3342 1.9848,0.6357"/>
   <path id="_77339680" fill="none" stroke="black" stroke-width="0.0762" d="M125.054 90.82c0.0023,0.0204 0.005,0.0424 0.0073,0.0634 0.0787,0.7152 0.0501,1.4321 -0.0825,2.0824"/>
   <path id="_77268600" fill="none" stroke="black" stroke-width="0.0762" d="M124.992 92.0786c-0.0173,-0.0112 -0.0361,-0.023 -0.0538,-0.0344 -0.6039,-0.3911 -1.1414,-0.8664 -1.5615,-1.3802"/>
   <path id="_77330528" fill="none" stroke="black" stroke-width="0.0762" d="M121.805 93.5336c-0.0173,-0.0112 -0.0361,-0.023 -0.0538,-0.0344 -0.6039,-0.3911 -1.1414,-0.8664 -1.5615,-1.3802"/>
   <path id="_65496312" fill="none" stroke="black" stroke-width="0.0762" d="M121.54 92.1282c-0.0173,-0.0112 -0.0361,-0.023 -0.0538,-0.0344 -0.6039,-0.3911 -1.1414,-0.8664 -1.5615,-1.3803"/>
   <path id="_77269112" fill="none" stroke="black" stroke-width="0.0762" d="M122.725 94.1496c-0.0172,-0.0112 -0.036,-0.023 -0.0537,-0.0345 -0.604,-0.391 -1.1414,-0.8663 -1.5616,-1.3802"/>
   <path id="_77274728" fill="none" stroke="black" stroke-width="0.0762" d="M123.774 92.6387c-0.0172,-0.0112 -0.036,-0.023 -0.0537,-0.0345 -0.604,-0.3911 -1.1414,-0.8663 -1.5616,-1.3802"/>
   <path id="_76869280" fill="none" stroke="black" stroke-width="0.0762" d="M121.885 93.5776c0,-0.0206 -0.0003,-0.0428 -0.0003,-0.0639 0,-0.7195 0.1068,-1.429 0.3098,-2.0609"/>
   <path id="_76903560" fill="none" stroke="black" stroke-width="0.0762" d="M124.696 96.1306c0,-0.0206 -0.0003,-0.0428 -0.0003,-0.0639 0,-0.7195 0.1068,-1.4289 0.3097,-2.0609"/>
   <path id="_77274216" fill="none" stroke="black" stroke-width="0.0762" d="M120.763 93.9314c0,-0.0206 -0.0003,-0.0428 -0.0003,-0.0639 0,-0.7195 0.1068,-1.429 0.3098,-2.0609"/>
   <path id="_67085560" fill="none" stroke="black" stroke-width="0.0762" d="M117.6 92.1326c0.0203,0.0033 0.0422,0.0065 0.0631,0.0099 0.7102,0.1152 1.3934,0.3342 1.9847,0.6357"/>
   <path id="_77445288" fill="none" stroke="black" stroke-width="0.0762" d="M122.322 84.6231c0.0203,0.0032 0.0422,0.0065 0.063,0.0098 0.7103,0.1152 1.3935,0.3342 1.9848,0.6357"/>
   <path id="_76966328" fill="none" stroke="black" stroke-width="0.0762" d="M119.605 89.234c0.0204,0.0033 0.0423,0.0066 0.0631,0.0099 0.7102,0.1152 1.3935,0.3342 1.9848,0.6357"/>
   <path id="_76731016" fill="none" stroke="black" stroke-width="0.0762" d="M125.537 93.7608c0.0142,0.0149 0.0298,0.0307 0.0444,0.0459 0.4976,0.5196 0.9113,1.1059 1.2018,1.7027"/>
   <path id="_65728056" fill="none" stroke="black" stroke-width="0.0762" d="M126.883 92.935c0.0204,0.0033 0.0423,0.0065 0.0631,0.0099 0.7102,0.1152 1.3935,0.3342 1.9848,0.6357"/>
   <path id="_65905304" fill="none" stroke="black" stroke-width="0.0762" d="M120.651 91.0222c-0.0203,0.0028 -0.0423,0.0061 -0.0632,0.0089 -0.713,0.0959 -1.4304,0.0847 -2.0838,-0.0322"/>
   <path id="_77335872" fill="none" stroke="black" stroke-width="0.0762" d="M127.366 90.8248c0.0173,0.0111 0.0362,0.0227 0.054,0.0341 0.6067,0.3868 1.1474,0.8583 1.5712,1.3692"/>
   <path id="_65905544" fill="none" stroke="black" stroke-width="0.0762" d="M128.301 89.8184c-0.0152,0.014 -0.0313,0.0291 -0.0469,0.0433 -0.5309,0.4857 -1.1264,0.8857 -1.7296,1.1625"/>
   <path id="_77335360" fill="none" stroke="black" stroke-width="0.0762" d="M126.477 87.493c0,-0.0205 -0.0003,-0.0427 -0.0003,-0.0638 0,-0.7195 0.1068,-1.429 0.3098,-2.0609"/>
   <path id="_66503168" fill="none" stroke="black" stroke-width="0.0762" d="M125.304 90.6644c-0.0172,-0.0112 -0.036,-0.0229 -0.0537,-0.0344 -0.6039,-0.3911 -1.1414,-0.8664 -1.5616,-1.3802"/>
   <path id="_66503408" fill="none" stroke="black" stroke-width="0.0762" d="M122.237 94.6375c-0.0173,-0.0112 -0.036,-0.023 -0.0537,-0.0344 -0.604,-0.3911 -1.1415,-0.8664 -1.5616,-1.3802"/>
   <path id="_76631760" fill="none" stroke="black" stroke-width="0.0762" d="M114.624 92.3042c-0.0173,-0.0112 -0.0361,-0.0229 -0.0538,-0.0344 -0.6039,-0.3911 -1.1414,-0.8664 -1.5615,-1.3802"/>
   <path id="_78093952" fill="none" stroke="black" stroke-width="0.0762" d="M127.853 94.8383c-0.0172,-0.0112 -0.036,-0.023 -0.0537,-0.0345 -0.604,-0.391 -1.1415,-0.8663 -1.5616,-1.3802"/>
   <path id="_66503648" fill="none" stroke="black" stroke-width="0.0762" d="M117.763 93.8801c0.0204,-0.0028 0.0423,-0.0059 0.0633,-0.0086 0.7134,-0.0924 1.4308,-0.0775 2.0836,0.0427"/>
   <path id="_66870624" fill="none" stroke="black" stroke-width="0.0762" d="M120.255 90.8297c0.0203,-0.0027 0.0422,-0.0058 0.0631,-0.0086 0.7136,-0.0923 1.4309,-0.0774 2.0836,0.0429"/>
   <path id="_66870864" fill="none" stroke="black" stroke-width="0.0762" d="M125.22 92.138c0.0204,-0.0027 0.0423,-0.0058 0.0631,-0.0085 0.7137,-0.0923 1.431,-0.0775 2.0838,0.0426"/>
   <path id="_66871104" fill="none" stroke="black" stroke-width="0.0762" d="M123.553 94.2078c0,-0.0206 -0.0003,-0.0427 -0.0003,-0.0638 0,-0.7195 0.1068,-1.429 0.3098,-2.061"/>
   <path id="_66871616" fill="none" stroke="black" stroke-width="0.0762" d="M124.227 95.8793c0,-0.0206 -0.0004,-0.0427 -0.0004,-0.0638 0,-0.7195 0.1069,-1.429 0.3098,-2.061"/>
   <path id="_66872128" fill="none" stroke="black" stroke-width="0.0762" d="M121.165 92.494c0,-0.0206 -0.0003,-0.0428 -0.0003,-0.0639 0,-0.7195 0.1068,-1.4289 0.3098,-2.0609"/>
   <path id="_65792120" fill="none" stroke="black" stroke-width="0.0762" d="M113.569 92.7044c0,-0.0205 -0.0003,-0.0427 -0.0003,-0.0638 0,-0.7195 0.1068,-1.429 0.3097,-2.0609"/>
   <path id="_77269624" fill="none" stroke="black" stroke-width="0.0762" d="M124.78 94.7012c0,-0.0206 -0.0003,-0.0427 -0.0003,-0.0638 0,-0.7195 0.1068,-1.429 0.3098,-2.061"/>
   <path id="_77273584" fill="none" stroke="black" stroke-width="0.0762" d="M120.013 94.6485c0,-0.0206 -0.0003,-0.0428 -0.0003,-0.0639 0,-0.7195 0.1068,-1.429 0.3098,-2.0609"/>
   <path id="_77286504" fill="none" stroke="black" stroke-width="0.0762" d="M124.714 87.0632c0,-0.0206 -0.0004,-0.0427 -0.0004,-0.0638 0,-0.7195 0.1069,-1.429 0.3098,-2.061"/>
   <path id="_76860576" fill="none" stroke="black" stroke-width="0.0762" d="M121.012 90.1882c0,-0.0206 -0.0003,-0.0427 -0.0003,-0.0638 0,-0.7195 0.1068,-1.429 0.3097,-2.061"/>
   <path id="_77275752" fill="none" stroke="black" stroke-width="0.0762" d="M123.444 90.8727c0,-0.0206 -0.0003,-0.0428 -0.0003,-0.0639 0,-0.7195 0.1068,-1.429 0.3098,-2.0609"/>
   <path id="_76630376" fill="none" stroke="black" stroke-width="0.0762" d="M120.932 96.5162c0,-0.0205 -0.0003,-0.0427 -0.0003,-0.0638 0,-0.7195 0.1068,-1.429 0.3098,-2.0609"/>
   <path id="_77275240" fill="none" stroke="black" stroke-width="0.0762" d="M123.509 88.123c0,-0.0206 -0.0003,-0.0428 -0.0003,-0.0639 0,-0.7195 0.1068,-1.429 0.3098,-2.0609"/>
   <path id="_77139288" fill="none" stroke="black" stroke-width="0.0762" d="M122.325 87.3847c0,-0.0206 -0.0003,-0.0428 -0.0003,-0.0639 0,-0.7195 0.1068,-1.429 0.3098,-2.0609"/>
   <path id="_76583592" fill="none" stroke="black" stroke-width="0.0762" d="M125.86 86.9818c0.0203,-0.0025 0.0424,-0.0057 0.0632,-0.0085 0.7135,-0.0924 1.4309,-0.0774 2.0837,0.0428"/>
   <path id="_76639336" fill="none" stroke="black" stroke-width="0.0762" d="M126.436 88.4502c0.0204,-0.0026 0.0422,-0.0059 0.0631,-0.0085 0.7137,-0.0923 1.431,-0.0775 2.0837,0.0427"/>
   <path id="_77284336" fill="none" stroke="black" stroke-width="0.0762" d="M125.446 91.1452c0.0111,-0.0173 0.0229,-0.0361 0.0344,-0.0538 0.3906,-0.6042 0.8655,-1.142 1.3791,-1.5625"/>
   <path id="_76996216" fill="none" stroke="black" stroke-width="0.0762" d="M122.047 91.3738c0.0112,-0.0173 0.0229,-0.0361 0.0344,-0.0538 0.3907,-0.6042 0.8656,-1.142 1.3791,-1.5625"/>
   <path id="_66288128" fill="none" stroke="black" stroke-width="0.0762" d="M123.819 85.8777c0.0112,-0.0172 0.023,-0.036 0.0344,-0.0537 0.3907,-0.6043 0.8656,-1.1421 1.3791,-1.5626"/>
   <path id="_76866016" fill="none" stroke="black" stroke-width="0.0762" d="M125.138 90.6518c0.0112,-0.0173 0.0229,-0.0361 0.0344,-0.0538 0.3906,-0.6042 0.8656,-1.142 1.3791,-1.5625"/>
   <path id="_76766968" fill="none" stroke="black" stroke-width="0.0762" d="M126.879 89.2711c0.0112,-0.0173 0.0229,-0.0361 0.0344,-0.0538 0.3906,-0.6042 0.8656,-1.142 1.3791,-1.5625"/>
   <path id="_66826192" fill="none" stroke="black" stroke-width="0.0762" d="M124.469 89.6615c0.0111,-0.0173 0.0229,-0.036 0.0344,-0.0537 0.3906,-0.6043 0.8656,-1.1421 1.3791,-1.5626"/>
   <path id="_67092904" fill="none" stroke="black" stroke-width="0.0762" d="M126.27 87.8529c0.0111,-0.0173 0.0229,-0.0361 0.0344,-0.0538 0.3906,-0.6042 0.8655,-1.142 1.3791,-1.5625"/>
   <path id="_77490600" fill="none" stroke="black" stroke-width="0.0762" d="M118.63 95.9437c0.0112,-0.0173 0.023,-0.0361 0.0344,-0.0538 0.3907,-0.6042 0.8656,-1.142 1.3791,-1.5625"/>
   <path id="_76923016" fill="none" stroke="black" stroke-width="0.0762" d="M127.386 91.6461c0.0112,-0.0173 0.023,-0.0361 0.0344,-0.0538 0.3907,-0.6043 0.8656,-1.1421 1.3791,-1.5626"/>
   <path id="_78143160" fill="none" stroke="black" stroke-width="0.0762" d="M119.466 92.908c0.0111,-0.0173 0.0229,-0.036 0.0344,-0.0537 0.3906,-0.6043 0.8655,-1.1421 1.3791,-1.5626"/>
   <path id="_77021664" fill="none" stroke="black" stroke-width="0.0762" d="M128.295 94.0512c-0.0172,-0.0112 -0.036,-0.023 -0.0537,-0.0345 -0.6039,-0.391 -1.1414,-0.8663 -1.5616,-1.3802"/>
   <path id="_66400640" fill="none" stroke="black" stroke-width="0.0762" d="M123.286 91.3813c0.0204,0.0033 0.0423,0.0065 0.0631,0.0099 0.7103,0.1152 1.3935,0.3342 1.9848,0.6357"/>
   <path id="_76527536" fill="none" stroke="black" stroke-width="0.0762" d="M127.026 90.4352c0.0203,0.0032 0.0422,0.0065 0.0631,0.0098 0.7102,0.1152 1.3934,0.3342 1.9847,0.6357"/>
   <path id="_76646272" fill="none" stroke="black" stroke-width="0.0762" d="M120.425 88.5764c0.0204,0.0033 0.0423,0.0065 0.0631,0.0099 0.7102,0.1152 1.3935,0.3342 1.9848,0.6357"/>
   <path id="_78565040" fill="none" stroke="black" stroke-width="0.0762" d="M127.031 92.5625c0.0203,0.0033 0.0422,0.0066 0.0631,0.0099 0.7102,0.1152 1.3934,0.3342 1.9847,0.6357"/>
   <path id="_78256328" fill="none" stroke="black" stroke-width="0.0762" d="M124.353 87.4012c0.0023,0.0205 0.005,0.0425 0.0073,0.0635 0.0787,0.7152 0.0502,1.4321 -0.0825,2.0824"/>
   <path id="_76907040" fill="none" stroke="black" stroke-width="0.0762" d="M118.87 93.8128c-0.0172,-0.0112 -0.036,-0.023 -0.0537,-0.0345 -0.6039,-0.391 -1.1414,-0.8663 -1.5616,-1.3802"/>
   <path id="_76466456" fill="none" stroke="black" stroke-width="0.0762" d="M126.061 89.2337c0.0023,0.0205 0.005,0.0425 0.0073,0.0635 0.0787,0.7152 0.0501,1.4321 -0.0825,2.0824"/>
   <path id="_66518576" fill="none" stroke="black" stroke-width="0.0762" d="M125.518 85.6636c0.0022,0.0204 0.005,0.0424 0.0073,0.0634 0.0787,0.7152 0.0501,1.4321 -0.0825,2.0824"/>
   <path id="_77604520" fill="none" stroke="black" stroke-width="0.0762" d="M119.023 90.2522c0.0203,0.0033 0.0422,0.0065 0.063,0.0099 0.7103,0.1152 1.3935,0.3342 1.9848,0.6357"/>
   <path id="_65776456" fill="none" stroke="black" stroke-width="0.0762" d="M123.522 85.9245c-0.0173,-0.0112 -0.0361,-0.023 -0.0538,-0.0344 -0.6039,-0.3911 -1.1414,-0.8664 -1.5615,-1.3802"/>
   <path id="_66730792" fill="none" stroke="black" stroke-width="0.0762" d="M125.904 89.0737c-0.0151,0.0139 -0.0313,0.0291 -0.0468,0.0433 -0.5309,0.4857 -1.1266,0.8857 -1.7298,1.1625"/>
   <path id="_77341168" fill="none" stroke="black" stroke-width="0.0762" d="M118.505 90.6167c0.0174,0.0111 0.0362,0.0227 0.054,0.0341 0.6067,0.3868 1.1475,0.8583 1.5712,1.3692"/>
   <path id="_76638064" fill="none" stroke="black" stroke-width="0.0762" d="M127.043 89.0304c0.0174,0.011 0.0363,0.0227 0.0541,0.0341 0.6066,0.3868 1.1474,0.8583 1.5711,1.3692"/>
   <path id="_76485352" fill="none" stroke="black" stroke-width="0.0762" d="M124.298 90.8014c-0.0204,0.0027 -0.0423,0.006 -0.0632,0.0088 -0.7131,0.0959 -1.4305,0.0847 -2.0838,-0.0322"/>
   <path id="_76474016" fill="none" stroke="black" stroke-width="0.0762" d="M129.381 92.2121c-0.0203,0.0028 -0.0423,0.006 -0.0632,0.0088 -0.7131,0.096 -1.4305,0.0847 -2.0838,-0.0321"/>
   <path id="_76559808" fill="none" stroke="black" stroke-width="0.0762" d="M122.426 89.5338c-0.0021,-0.0205 -0.0046,-0.0425 -0.0068,-0.0635 -0.073,-0.7158 -0.0388,-1.4324 0.0989,-2.0817"/>
   <path id="_76425648" fill="none" stroke="black" stroke-width="0.0762" d="M113.424 91.7426c-0.0141,0.011 -0.0294,0.0227 -0.0438,0.0341 -0.4928,0.3868 -0.9321,0.8583 -1.2763,1.3692"/>
   <path id="_67143160" fill="none" stroke="black" stroke-width="0.0762" d="M112.403 89.9838c-0.0165,0.0033 -0.0343,0.0066 -0.0512,0.0099 -0.5769,0.1152 -1.132,0.3342 -1.6123,0.6357"/>
   <path id="_77054848" fill="none" stroke="black" stroke-width="0.0762" d="M114.129 89.5721c-0.0018,0.0204 -0.004,0.0424 -0.0059,0.0634 -0.0639,0.7152 -0.0407,1.4321 0.067,2.0824"/>
   <path id="_66430632" fill="none" stroke="black" stroke-width="0.0762" d="M114.389 92.077c-0.0116,0.0149 -0.0242,0.0307 -0.0361,0.0459 -0.4042,0.5196 -0.7402,1.1059 -0.9762,1.7027"/>
   <path id="_76659712" fill="none" stroke="black" stroke-width="0.0762" d="M112.643 91.6871c-0.0165,0.0033 -0.0343,0.0065 -0.0512,0.0099 -0.5769,0.1152 -1.1319,0.3342 -1.6122,0.6357"/>
   <path id="_78031240" fill="none" stroke="black" stroke-width="0.0762" d="M112.876 89.5782c-0.0141,0.0111 -0.0294,0.0227 -0.0439,0.0341 -0.4928,0.3868 -0.9321,0.8583 -1.2763,1.3692"/>
   <path id="_77814896" fill="none" stroke="black" stroke-width="0.0762" d="M111.295 87.6972c0.0123,0.014 0.0254,0.0291 0.0381,0.0433 0.4312,0.4857 0.915,0.8857 1.405,1.1625"/>
   <path id="_76724896" fill="none" stroke="black" stroke-width="0.0762" d="M111.165 90.3617c0.0204,0.0024 0.0424,0.0054 0.0633,0.0079 0.7143,0.087 1.429,0.0866 2.0763,-0.0007"/>
   <path id="_76694360" fill="none" stroke="black" stroke-width="0.0762" d="M111.983 93.8104c0.014,-0.0112 0.0292,-0.023 0.0436,-0.0345 0.4906,-0.391 0.9272,-0.8663 1.2685,-1.3802"/>
   <path id="_77206672" fill="none" stroke="black" stroke-width="0.0762" d="M114.841 91.2815c-0.0165,-0.0027 -0.0343,-0.0058 -0.0512,-0.0085 -0.5797,-0.0923 -1.1624,-0.0775 -1.6927,0.0426"/>
   <path id="_67206744" fill="none" stroke="black" stroke-width="0.0762" d="M113.474 85.7339c-0.0166,-0.0025 -0.0345,-0.0057 -0.0514,-0.0085 -0.5796,-0.0924 -1.1624,-0.0774 -1.6926,0.0428"/>
   <path id="_76602928" fill="none" stroke="black" stroke-width="0.0762" d="M113.006 87.2023c-0.0166,-0.0026 -0.0343,-0.0059 -0.0513,-0.0085 -0.5797,-0.0923 -1.1624,-0.0775 -1.6925,0.0427"/>
   <path id="_76414888" fill="none" stroke="black" stroke-width="0.0762" d="M113.81 89.8973c-0.009,-0.0173 -0.0186,-0.0361 -0.0279,-0.0538 -0.3173,-0.6042 -0.7031,-1.142 -1.1202,-1.5625"/>
   <path id="_76475808" fill="none" stroke="black" stroke-width="0.0762" d="M114.061 89.4039c-0.0091,-0.0173 -0.0186,-0.0361 -0.0279,-0.0538 -0.3174,-0.6042 -0.7031,-1.142 -1.1203,-1.5625"/>
   <path id="_78093680" fill="none" stroke="black" stroke-width="0.0762" d="M112.646 88.0232c-0.0091,-0.0173 -0.0187,-0.0361 -0.028,-0.0538 -0.3173,-0.6042 -0.7031,-1.142 -1.1202,-1.5625"/>
   <path id="_77229024" fill="none" stroke="black" stroke-width="0.0762" d="M113.141 86.605c-0.009,-0.0173 -0.0186,-0.0361 -0.0279,-0.0538 -0.3173,-0.6042 -0.7031,-1.142 -1.1203,-1.5625"/>
   <path id="_66527232" fill="none" stroke="black" stroke-width="0.0762" d="M113.07 87.7116c-0.0091,-0.0173 -0.0187,-0.0361 -0.028,-0.0538 -0.3173,-0.6043 -0.7031,-1.1421 -1.1202,-1.5626"/>
   <path id="_66915448" fill="none" stroke="black" stroke-width="0.0762" d="M111.496 92.8033c0.014,-0.0112 0.0293,-0.023 0.0437,-0.0345 0.4905,-0.391 0.9271,-0.8663 1.2684,-1.3802"/>
   <path id="_78030304" fill="none" stroke="black" stroke-width="0.0762" d="M112.527 89.1873c-0.0165,0.0032 -0.0343,0.0065 -0.0512,0.0098 -0.5769,0.1152 -1.1319,0.3342 -1.6123,0.6357"/>
   <path id="_77254704" fill="none" stroke="black" stroke-width="0.0762" d="M112.522 91.3146c-0.0165,0.0033 -0.0343,0.0066 -0.0512,0.0099 -0.577,0.1152 -1.132,0.3342 -1.6123,0.6357"/>
   <path id="_66453056" fill="none" stroke="black" stroke-width="0.0762" d="M113.31 87.9858c-0.0018,0.0205 -0.004,0.0425 -0.0059,0.0635 -0.064,0.7152 -0.0407,1.4321 0.067,2.0824"/>
   <path id="_77780280" fill="none" stroke="black" stroke-width="0.0762" d="M113.308 84.4328c-0.0019,0.0204 -0.0041,0.0424 -0.006,0.0634 -0.0639,0.7152 -0.0407,1.4321 0.0671,2.0824"/>
   <path id="_66788568" fill="none" stroke="black" stroke-width="0.0762" d="M112.539 88.5174c-0.0141,0.011 -0.0294,0.0227 -0.0438,0.0341 -0.4928,0.3868 -0.9321,0.8583 -1.2763,1.3692"/>
   <path id="_76487944" fill="none" stroke="black" stroke-width="0.0762" d="M111.844 90.7837c0.0165,0.0028 0.0343,0.006 0.0513,0.0088 0.5793,0.096 1.162,0.0847 1.6927,-0.0321"/>
  </g>
  <g id="StpAsp_Lacin" onclick="parent.replacechar('StpAsp_Lacin')" onmousemove="parent.showtooltip('StpAsp_Lacin', 'Stipule dissected or laciniate')" onmouseout="parent.hidetooltip('StpAsp_Lacin')" cursor="pointer" >
   <path id="_66850232" fill="#99FF00" stroke="black" stroke-width="0.0762" d="M115.494 31.4379c0.1596,-1.6841 -0.3936,-3.5806 -1.5407,-4.5967 -2.4058,-2.0076 -5.2812,-3.5721 -7.2173,-6.023 1.7986,2.4192 4.6219,3.8714 7.3171,5.4445 0.9381,0.1103 1.7722,-0.4884 1.7409,-1.3199 -0.3979,-2.9876 -1.9197,-5.8833 -2.8155,-8.8854 0.9955,2.9081 1.8129,6.2263 4.3122,7.3923 0.7074,0.2278 2.0773,0.8587 2.1615,-0.1355 0.1336,-2.9041 0.6239,-6.6379 1.9253,-9.0482 -1.1137,2.3679 -1.1705,9.1252 0.1262,9.4061 0.7736,0.1676 3.9697,-8.4674 4.1652,-8.4484 -1.8525,3.6756 -2.8012,8.6835 -2.0806,8.9536 0.7886,-0.142 3.3405,-4.1995 6.8093,-5.9123 -2.9606,2.0095 -4.1937,4.3545 -5.818,7.0523 -0.8604,1.0271 0.1251,2.1083 1.0574,2.8966 -0.4337,1.9881 -3.4675,4.7871 -10.4457,5.2187 0.1258,-0.8455 0.826,-1.1793 0.3027,-1.9947z"/>
   <path id="_76748208" fill="#BF9B76" stroke="#AAA9A9" stroke-width="0.0762" d="M120.695 4.3489c3.8527,0 6.9777,1.0125 6.9777,2.261 0,1.2483 -3.125,2.2607 -6.9777,2.2607 -3.8535,0 -6.9784,-1.0124 -6.9784,-2.2607 0,-1.2485 3.1249,-2.261 6.9784,-2.261z"/>
   <g clip-path="url(#id0)">
    <polygon id="_78555584" fill="#B8A58F" points="88.2808,-18.7869 153.073,-18.7869 153.073,81.0511 88.2808,81.0511 "/>
    <g id="Layer_x0020_1_2">
     <metadata id="CorelCorpID_1Corel-Layer"/>
     <polygon id="_766563201" fill="none" points="-0.0001,180 240,180 240,-0.0001 -0.0001,-0.0001 "/>
     <g id="StpAsp_Entire_3">
      <g id="feuille_2_4">
       <path id="_76839632" fill="#B89A7B" stroke="#8F7152" stroke-width="0.0762" d="M125.873 150.482c1.5461,-1.9349 22.9785,-9.1053 24.9295,-10.1001 -0.1995,0.5983 -1.7772,0.0763 -1.606,-0.5123l-25.6538 9.2134c0.1767,0.1584 0.6325,0.1947 1.4724,0.5942 0.9074,0.7355 0.4914,0.6164 0.8579,0.8048z"/>
       <path id="_65726384" fill="#B89A7B" stroke="#8F7152" stroke-width="0.0762" d="M140.632 137.009c6.5561,0.5672 8.4443,2.8812 8.5517,2.8637 -5.9226,2.0942 -8.6255,3.1828 -14.6239,5.2528 -4.7755,-2.3399 -3.9443,-6.3644 6.0722,-8.1165z"/>
       <path id="_67155488" fill="#B89A7B" stroke="#8F7152" stroke-width="0.0762" d="M136.765 146.068c-0.7419,-0.2762 0.0391,0.0087 -0.5668,-0.2422 -3.8629,1.4435 -9.1404,3.3313 -10.3247,4.6559 0,0 -0.171,0.5618 -0.3141,0.7834 1.4088,-1.105 8.3881,-4.4505 11.2056,-5.1971z"/>
       <path id="_78487824" fill="#B89A7B" stroke="#8F7152" stroke-width="0.0762" d="M136.198 145.826c5.8713,-2.1085 8.7333,-3.3355 14.6047,-5.4442 4.1621,0.0729 9.7602,2.1287 11.2556,4.5264 -10.2668,2.2642 -16.4369,5.0557 -25.8603,0.9178z"/>
      </g>
      <g>
       <path id="_77816000" fill="#A97C4E" stroke="#9E8F7D" stroke-width="0.0762" d="M120.695 124.349c3.8527,0 6.9777,1.0125 6.9777,2.261 0,1.2483 -3.125,2.2607 -6.9777,2.2607 -3.8535,0 -6.9784,-1.0124 -6.9784,-2.2607 0,-1.2485 3.1249,-2.261 6.9784,-2.261z"/>
       <path id="_77909096" fill="#A97C4E" stroke="#9E8F7D" stroke-width="0.0762" d="M113.717 126.613c-0.1256,15.5069 0.1258,31.2805 0,46.7875 0.1876,2.7857 13.4203,3.2124 13.9561,0l-0.0184 -46.7875c-0.4376,3.0284 -13.6568,2.9889 -13.9377,0z"/>
      </g>
      <path id="_76644712" fill="#99A41F" stroke="#5C3D1F" stroke-width="0.0762" d="M117.992 154.247c0.1778,-1.4536 1.4245,-3.2159 2.529,-4.1894 1.2865,-1.2076 2.947,-4.6853 3.0491,-5.9779 0.1355,-1.7141 -0.1319,0.6691 1.2194,1.8775 1.3585,1.0403 3.3969,2.0192 3.4186,4.837 -0.0844,2.6646 -0.2246,2.3142 -0.5414,2.8237 -2.3769,2.4029 -8.8456,1.7206 -10.2461,1.6552 0.2862,-0.3215 0.5186,-0.5362 0.5714,-1.0261z"/>
      <path id="_76736080" fill="#99A41F" fill-opacity="0.501961" stroke="#5C3D1F" stroke-width="0.0762" stroke-dasharray="0.762000 0.228600" stroke-opacity="0.501961" d="M113.718 145.912c1.4546,-0.7757 2.9818,-2.5422 3.9864,-3.7477 1.0958,1.7754 2.0638,1.9197 3.2207,2.7306 0.9644,0.6525 3.0836,2.8834 2.6177,4.1878 -0.6796,0.4076 -0.7512,0.3803 -0.8993,0.9943 -2.4902,-0.146 -5.4314,1.0602 -7.2722,1.7151 0.1018,-1.0289 -1.1571,-2.8272 -1.6448,-3.7478 -0.0035,-0.9361 -0.014,-0.7423 -0.0085,-2.1323z"/>
      <path id="_76860032" fill="#99A41F" fill-opacity="0.360784" stroke="#5C3D1F" stroke-width="0.0762" stroke-dasharray="0.762000 0.228600" stroke-opacity="0.360784" d="M124.65 145.821c0.5478,1.6751 1.0941,2.7442 1.2229,4.6603 -0.1247,0.3744 -0.1979,0.5917 -0.3141,0.7834 -0.0674,0.1311 2.1071,0.4246 2.1078,2.3528 0.6905,-1.0955 0.5289,-3.3148 0.4504,-3.7655 -0.3472,-1.9932 -1.9734,-2.9081 -3.467,-4.031z"/>
      <path id="_76496240" fill="#99A41F" stroke="#5C3D1F" stroke-width="0.0762" d="M113.152 146.379c0.2682,-0.4202 0.1793,-0.1908 0.5658,-0.4674 -0.0003,1.0948 -0.0006,1.0353 0.0053,2.1254 -0.3174,-0.6929 -0.4067,-0.9812 -0.5711,-1.658z"/>
      <path id="_78080664" fill="#99A41F" stroke="#5C3D1F" stroke-width="0.0762" d="M113.429 154.141c1.3981,-0.7535 1.6376,-1.0298 1.7391,-1.1307 0.906,-2.6988 -1.2903,-3.4297 -2.016,-6.6313 -2.0786,4.3565 -0.8249,5.6552 0.2769,7.762z"/>
      <g id="feuille_5">
       <path id="_76478040" fill="#B89A7B" stroke="#8F7152" stroke-width="0.0762" d="M115.168 153.011c-1.364,1.5805 -22.3504,10.7084 -23.9886,11.7418 -0.1118,0.6392 1.1354,0.8549 1.2274,0.4962l25.5851 -11.0017c-0.2469,-0.2066 -1.0143,-0.1335 -1.7863,-0.4176 -0.8585,-0.5748 -0.8976,-0.9771 -1.0376,-0.8187z"/>
       <path id="_66384144" fill="#B89A7B" stroke="#8F7152" stroke-width="0.0762" d="M105.713 170.117c-3.5523,-4.1603 -10.604,-5.2901 -13.3059,-4.8681l15.5885 -6.7329c4.3947,1.6761 6.3986,9.2506 -2.2826,11.601z"/>
       <path id="_77229928" fill="#B89A7B" stroke="#8F7152" stroke-width="0.0762" d="M108.715 158.845c-0.2584,-0.138 -0.4256,-0.2143 -0.7197,-0.3292l9.9966 -4.2688c-0.3122,2.4698 -6.7334,2.7436 -9.2769,4.598z"/>
       <path id="_66423480" fill="#B89A7B" stroke="#8F7152" stroke-width="0.0762" d="M115.909 153.062c0.0273,-0.1149 0.8835,-0.8117 1.1811,-0.7602 0.3085,0.12 0.6675,1.5595 0.1449,1.5016 -0.1303,-0.0144 -0.6139,-0.076 -0.839,-0.2015 -0.2717,-0.1514 -0.5045,-0.4661 -0.487,-0.5399z"/>
       <path id="_67081496" fill="#B89A7B" stroke="#8F7152" stroke-width="0.0762" d="M106.184 157.761c-5.0001,2.3309 -10.0001,4.6619 -15.0002,6.9929 -0.8719,-1.0439 -8.0586,-2.8176 -12.8633,-1.6878 8.2995,-3.7572 19.23,-8.1904 27.8635,-5.3051z"/>
       <path id="_77649816" fill="#B89A7B" stroke="#8F7152" stroke-width="0.0762" d="M105.713 170.117c-3.5577,-3.0358 -9.635,-4.7484 -13.5554,-3.7175 -0.0951,0.4554 -1.355,-0.1086 -1.2235,-0.5152 -2.1219,-1.567 -4.1292,-3.469 -12.9924,-2.6994 3.9591,-1.1528 11.4334,-0.2399 13.2423,1.5697 -0.0906,0.4085 1.1304,0.9116 1.2231,0.4943 3.8763,-0.7604 11.0721,1.7436 13.3059,4.8681z"/>
      </g>
      <path id="_67135272" fill="#99A41F" fill-opacity="0.501961" stroke="#5C3D1F" stroke-width="0.0762" stroke-dasharray="0.762000 0.228600" stroke-opacity="0.501961" d="M113.429 154.141c1.5103,-0.8117 1.7392,-1.1307 1.7392,-1.1307 -0.2261,0.7612 -0.3365,1.2365 -0.3123,1.8442 -0.623,0.0356 -1.216,-0.3945 -1.4269,-0.7135z"/>
     </g>
     <g id="StpAsp_Hairy_6">
      <g id="interpet_7">
       <g id="feuille_2_8">
        <path id="_65746096" fill="#B89A7B" stroke="#8F7152" stroke-width="0.0762" d="M125.873 90.4815c1.5462,-1.9349 22.9786,-9.1054 24.9295,-10.1001 -0.1995,0.5983 -1.7772,0.0763 -1.6059,-0.5123l-25.6538 9.2133c0.1767,0.1584 0.6325,0.1948 1.4723,0.5942 0.9074,0.7356 0.4915,0.6165 0.8579,0.8049z"/>
        <path id="_78610880" fill="#B89A7B" stroke="#8F7152" stroke-width="0.0762" d="M140.632 77.0094c6.5561,0.5672 8.4443,2.8811 8.5517,2.8636 -5.9226,2.0942 -8.6256,3.1829 -14.6239,5.2529 -4.7756,-2.3399 -3.9444,-6.3645 6.0722,-8.1165z"/>
        <path id="_77133656" fill="#B89A7B" stroke="#8F7152" stroke-width="0.0762" d="M136.765 86.0678c-0.7419,-0.2763 0.0391,0.0086 -0.5668,-0.2422 -3.8629,1.4435 -9.1404,3.3312 -10.3248,4.6559 0,-0.0001 -0.1709,0.5617 -0.3141,0.7834 1.4088,-1.1051 8.3882,-4.4506 11.2057,-5.1971z"/>
        <path id="_77671600" fill="#B89A7B" stroke="#8F7152" stroke-width="0.0762" d="M136.198 85.8256c5.8714,-2.1086 8.7333,-3.3356 14.6047,-5.4442 4.1622,0.0729 9.7602,2.1287 11.2557,4.5263 -10.2669,2.2643 -16.4369,5.0558 -25.8604,0.9179z"/>
       </g>
       <g>
        <path id="_77789520" fill="#A97C4E" stroke="#9E8F7D" stroke-width="0.0762" d="M120.695 64.3489c3.8527,0 6.9778,1.0125 6.9778,2.261 0,1.2482 -3.1251,2.2607 -6.9778,2.2607 -3.8535,0 -6.9783,-1.0125 -6.9783,-2.2607 0,-1.2485 3.1248,-2.261 6.9783,-2.261z"/>
        <path id="_79683064" fill="#A97C4E" stroke="#9E8F7D" stroke-width="0.0762" d="M113.717 66.6131c-0.1257,15.5069 0.1258,31.2805 0,46.7875 0.1876,2.7856 13.4203,3.2124 13.9561,0l-0.0185 -46.7875c-0.4376,3.0283 -13.6568,2.9889 -13.9376,0z"/>
       </g>
       <path id="_76491424" fill="#99A41F" stroke="#5C3D1F" stroke-width="0.0762" d="M117.992 94.2468c0.1778,-1.4536 1.4246,-3.2159 2.529,-4.1894 1.2866,-1.2076 2.9471,-4.6853 3.0492,-5.9779 0.1355,-1.7141 -0.132,0.669 1.2194,1.8775 1.3585,1.0402 3.3968,2.0192 3.4185,4.837 -0.0843,2.6646 -0.2245,2.3142 -0.5413,2.8237 -2.3769,2.4028 -8.8456,1.7205 -10.2462,1.6552 0.2863,-0.3215 0.5186,-0.5362 0.5714,-1.0261z"/>
       <path id="_66523216" fill="#99A41F" fill-opacity="0.501961" stroke="#5C3D1F" stroke-width="0.0762" stroke-dasharray="0.762000 0.228600" stroke-opacity="0.501961" d="M113.718 85.9118c1.4546,-0.7758 2.9817,-2.5422 3.9863,-3.7477 1.0959,1.7754 2.0638,1.9197 3.2208,2.7305 0.9644,0.6526 3.0835,2.8835 2.6177,4.1878 -0.6797,0.4076 -0.7513,0.3803 -0.8994,0.9944 -2.4901,-0.1461 -5.4313,1.0601 -7.2721,1.7151 0.1017,-1.0289 -1.1571,-2.8273 -1.6448,-3.7478 -0.0035,-0.9361 -0.0141,-0.7424 -0.0085,-2.1323z"/>
       <path id="_66499088" fill="#99A41F" fill-opacity="0.360784" stroke="#5C3D1F" stroke-width="0.0762" stroke-dasharray="0.762000 0.228600" stroke-opacity="0.360784" d="M124.65 85.8211c0.5477,1.6751 1.094,2.7443 1.2228,4.6604 -0.1247,0.3743 -0.1979,0.5916 -0.3141,0.7834 -0.0673,0.1311 2.1071,0.4246 2.1079,2.3528 0.6905,-1.0955 0.5288,-3.3148 0.4503,-3.7655 -0.3471,-1.9933 -1.9734,-2.9082 -3.4669,-4.0311z"/>
       <path id="_76821840" fill="#99A41F" stroke="#5C3D1F" stroke-width="0.0762" d="M113.152 86.3792c0.2682,-0.4203 0.1794,-0.1909 0.5659,-0.4674 -0.0003,1.0948 -0.0007,1.0352 0.0053,2.1254 -0.3174,-0.6929 -0.4068,-0.9812 -0.5712,-1.658z"/>
       <path id="_66515432" fill="#99A41F" stroke="#5C3D1F" stroke-width="0.0762" d="M113.429 94.1412c1.398,-0.7535 1.6375,-1.0298 1.7391,-1.1307 0.9059,-2.6988 -1.2903,-3.4297 -2.0161,-6.6313 -2.0786,4.3565 -0.8248,5.6552 0.277,7.762z"/>
       <g id="feuille_9">
        <path id="_66518024" fill="#B89A7B" stroke="#8F7152" stroke-width="0.0762" d="M115.168 93.0105c-1.3641,1.5805 -22.3504,10.7084 -23.9887,11.7417 -0.1117,0.6392 1.1354,0.855 1.2274,0.4963l25.5851 -11.0017c-0.2468,-0.2066 -1.0143,-0.1335 -1.7862,-0.4176 -0.8585,-0.5748 -0.8976,-0.9771 -1.0376,-0.8187z"/>
        <path id="_67226744" fill="#B89A7B" stroke="#8F7152" stroke-width="0.0762" d="M105.713 110.117c-3.5523,-4.1602 -10.6041,-5.2901 -13.306,-4.868l15.5885 -6.7329c4.3948,1.6761 6.3987,9.2506 -2.2825,11.6009z"/>
        <path id="_76893440" fill="#B89A7B" stroke="#8F7152" stroke-width="0.0762" d="M108.715 98.8448c-0.2585,-0.138 -0.4256,-0.2144 -0.7198,-0.3292l9.9966 -4.2688c-0.3121,2.4698 -6.7333,2.7436 -9.2768,4.598z"/>
        <path id="_76710616" fill="#B89A7B" stroke="#8F7152" stroke-width="0.0762" d="M115.909 93.0617c0.0273,-0.1149 0.8835,-0.8116 1.1812,-0.7601 0.3084,0.1199 0.6674,1.5595 0.1448,1.5016 -0.1302,-0.0145 -0.6138,-0.076 -0.8389,-0.2015 -0.2718,-0.1514 -0.5046,-0.4662 -0.4871,-0.54z"/>
        <path id="_45386144" fill="#B89A7B" stroke="#8F7152" stroke-width="0.0762" d="M106.184 97.7612c-5,2.331 -10,4.662 -15.0001,6.993 -0.8719,-1.0439 -8.0587,-2.8176 -12.8634,-1.6879 8.2995,-3.7572 19.2301,-8.1903 27.8635,-5.3051z"/>
        <path id="_67148056" fill="#B89A7B" stroke="#8F7152" stroke-width="0.0762" d="M105.713 110.117c-3.5578,-3.0357 -9.6351,-4.7483 -13.5554,-3.7175 -0.0952,0.4554 -1.355,-0.1085 -1.2235,-0.5152 -2.1219,-1.5669 -4.1292,-3.469 -12.9925,-2.6993 3.9592,-1.1529 11.4335,-0.2399 13.2424,1.5697 -0.0906,0.4085 1.1304,0.9116 1.223,0.4943 3.8764,-0.7604 11.0721,1.7435 13.306,4.868z"/>
       </g>
       <path id="_78079664" fill="#99A41F" fill-opacity="0.501961" stroke="#5C3D1F" stroke-width="0.0762" stroke-dasharray="0.762000 0.228600" stroke-opacity="0.501961" d="M113.429 94.1412c1.5103,-0.8117 1.7391,-1.1307 1.7391,-1.1307 -0.226,0.7612 -0.3364,1.2364 -0.3122,1.8442 -0.623,0.0356 -1.2161,-0.3945 -1.4269,-0.7135z"/>
      </g>
      <path id="_76605248" fill="none" stroke="#5C3D1F" stroke-width="0.0762" d="M121.997 89.0543c-0.0021,-0.0205 -0.0046,-0.0425 -0.0068,-0.0635 -0.073,-0.7158 -0.0388,-1.4324 0.0989,-2.0817"/>
      <path id="_77282112" fill="none" stroke="#5C3D1F" stroke-width="0.0762" d="M122.712 96.4035c-0.002,-0.0205 -0.0046,-0.0425 -0.0068,-0.0635 -0.073,-0.7158 -0.0388,-1.4324 0.0989,-2.0817"/>
      <path id="_66923880" fill="none" stroke="#5C3D1F" stroke-width="0.0762" d="M124.454 90.9957c-0.0021,-0.0205 -0.0046,-0.0425 -0.0068,-0.0635 -0.073,-0.7158 -0.0388,-1.4324 0.0989,-2.0817"/>
      <path id="_77331192" fill="none" stroke="#5C3D1F" stroke-width="0.0762" d="M123.664 96.0663c-0.0021,-0.0205 -0.0047,-0.0425 -0.0068,-0.0635 -0.0731,-0.7158 -0.0389,-1.4324 0.0988,-2.0817"/>
      <path id="_76876080" fill="none" stroke="#5C3D1F" stroke-width="0.0762" d="M124.068 92.2312c-0.0203,0.0027 -0.0423,0.006 -0.0632,0.0088 -0.713,0.0959 -1.4304,0.0847 -2.0838,-0.0322"/>
      <path id="_77496280" fill="none" stroke="#5C3D1F" stroke-width="0.0762" d="M120.748 90.2878c0.0173,0.0111 0.0362,0.0227 0.054,0.0341 0.6066,0.3868 1.1474,0.8583 1.5711,1.3692"/>
      <path id="_66459616" fill="none" stroke="#5C3D1F" stroke-width="0.0762" d="M124.263 91.2077c0.0173,0.0111 0.0362,0.0227 0.054,0.0341 0.6066,0.3868 1.1474,0.8583 1.5712,1.3692"/>
      <path id="_77491992" fill="none" stroke="#5C3D1F" stroke-width="0.0762" d="M126.381 93.3031c0.0174,0.011 0.0362,0.0227 0.054,0.0341 0.6067,0.3868 1.1475,0.8583 1.5712,1.3692"/>
      <path id="_76630768" fill="none" stroke="#5C3D1F" stroke-width="0.0762" d="M120.929 94.8043c-0.0152,0.0139 -0.0313,0.0291 -0.0469,0.0433 -0.5309,0.4857 -1.1265,0.8857 -1.7298,1.1625"/>
      <path id="_66306816" fill="none" stroke="#5C3D1F" stroke-width="0.0762" d="M123.064 92.7305c-0.0151,0.0139 -0.0313,0.0291 -0.0468,0.0433 -0.5309,0.4856 -1.1266,0.8857 -1.7298,1.1624"/>
      <path id="_78081184" fill="none" stroke="#5C3D1F" stroke-width="0.0762" d="M119.808 92.6203c-0.0173,-0.0112 -0.0361,-0.023 -0.0538,-0.0345 -0.6039,-0.391 -1.1414,-0.8663 -1.5615,-1.3802"/>
      <path id="_77631456" fill="none" stroke="#5C3D1F" stroke-width="0.0762" d="M126.459 95.4859c-0.0173,-0.0111 -0.0361,-0.0229 -0.0538,-0.0344 -0.6039,-0.3911 -1.1414,-0.8664 -1.5615,-1.3802"/>
      <path id="_76953144" fill="none" stroke="#5C3D1F" stroke-width="0.0762" d="M122.479 91.147c0.0204,0.0033 0.0423,0.0065 0.0631,0.0099 0.7102,0.1152 1.3935,0.3342 1.9848,0.6357"/>
      <path id="_77803240" fill="none" stroke="#5C3D1F" stroke-width="0.0762" d="M124.522 87.6982c0.0203,0.0033 0.0423,0.0066 0.0631,0.0099 0.7102,0.1152 1.3935,0.3342 1.9848,0.6357"/>
      <path id="_66873488" fill="none" stroke="#5C3D1F" stroke-width="0.0762" d="M121.015 89.7529c0.0203,0.0033 0.0422,0.0065 0.0631,0.0099 0.7102,0.1152 1.3934,0.3342 1.9847,0.6357"/>
      <path id="_76664952" fill="none" stroke="#5C3D1F" stroke-width="0.0762" d="M127.179 91.2317c0.0203,0.0033 0.0423,0.0066 0.0631,0.0099 0.7102,0.1152 1.3935,0.3342 1.9848,0.6357"/>
      <path id="_77339680" fill="none" stroke="#5C3D1F" stroke-width="0.0762" d="M125.054 90.82c0.0023,0.0204 0.005,0.0424 0.0073,0.0634 0.0787,0.7152 0.0501,1.4321 -0.0825,2.0824"/>
      <path id="_77268600" fill="none" stroke="#5C3D1F" stroke-width="0.0762" d="M124.992 92.0786c-0.0173,-0.0112 -0.0361,-0.023 -0.0538,-0.0344 -0.6039,-0.3911 -1.1414,-0.8664 -1.5615,-1.3802"/>
      <path id="_77330528" fill="none" stroke="#5C3D1F" stroke-width="0.0762" d="M121.805 93.5336c-0.0173,-0.0112 -0.0361,-0.023 -0.0538,-0.0344 -0.6039,-0.3911 -1.1414,-0.8664 -1.5615,-1.3802"/>
      <path id="_65496312" fill="none" stroke="#5C3D1F" stroke-width="0.0762" d="M121.54 92.1282c-0.0173,-0.0112 -0.0361,-0.023 -0.0538,-0.0344 -0.6039,-0.3911 -1.1414,-0.8664 -1.5615,-1.3803"/>
      <path id="_77269112" fill="none" stroke="#5C3D1F" stroke-width="0.0762" d="M122.725 94.1496c-0.0172,-0.0112 -0.036,-0.023 -0.0537,-0.0345 -0.604,-0.391 -1.1414,-0.8663 -1.5616,-1.3802"/>
      <path id="_77274728" fill="none" stroke="#5C3D1F" stroke-width="0.0762" d="M123.774 92.6387c-0.0172,-0.0112 -0.036,-0.023 -0.0537,-0.0345 -0.604,-0.3911 -1.1414,-0.8663 -1.5616,-1.3802"/>
      <path id="_76869280" fill="none" stroke="#5C3D1F" stroke-width="0.0762" d="M121.885 93.5776c0,-0.0206 -0.0003,-0.0428 -0.0003,-0.0639 0,-0.7195 0.1068,-1.429 0.3098,-2.0609"/>
      <path id="_76903560" fill="none" stroke="#5C3D1F" stroke-width="0.0762" d="M124.696 96.1306c0,-0.0206 -0.0003,-0.0428 -0.0003,-0.0639 0,-0.7195 0.1068,-1.4289 0.3097,-2.0609"/>
      <path id="_77274216" fill="none" stroke="#5C3D1F" stroke-width="0.0762" d="M120.763 93.9314c0,-0.0206 -0.0003,-0.0428 -0.0003,-0.0639 0,-0.7195 0.1068,-1.429 0.3098,-2.0609"/>
      <path id="_67085560" fill="none" stroke="#5C3D1F" stroke-width="0.0762" d="M117.6 92.1326c0.0203,0.0033 0.0422,0.0065 0.0631,0.0099 0.7102,0.1152 1.3934,0.3342 1.9847,0.6357"/>
      <path id="_77445288" fill="none" stroke="#5C3D1F" stroke-width="0.0762" d="M122.322 84.6231c0.0203,0.0032 0.0422,0.0065 0.063,0.0098 0.7103,0.1152 1.3935,0.3342 1.9848,0.6357"/>
      <path id="_76966328" fill="none" stroke="#5C3D1F" stroke-width="0.0762" d="M119.605 89.234c0.0204,0.0033 0.0423,0.0066 0.0631,0.0099 0.7102,0.1152 1.3935,0.3342 1.9848,0.6357"/>
      <path id="_76731016" fill="none" stroke="#5C3D1F" stroke-width="0.0762" d="M125.537 93.7608c0.0142,0.0149 0.0298,0.0307 0.0444,0.0459 0.4976,0.5196 0.9113,1.1059 1.2018,1.7027"/>
      <path id="_65728056" fill="none" stroke="#5C3D1F" stroke-width="0.0762" d="M126.883 92.935c0.0204,0.0033 0.0423,0.0065 0.0631,0.0099 0.7102,0.1152 1.3935,0.3342 1.9848,0.6357"/>
      <path id="_65905304" fill="none" stroke="#5C3D1F" stroke-width="0.0762" d="M120.651 91.0222c-0.0203,0.0028 -0.0423,0.0061 -0.0632,0.0089 -0.713,0.0959 -1.4304,0.0847 -2.0838,-0.0322"/>
      <path id="_77335872" fill="none" stroke="#5C3D1F" stroke-width="0.0762" d="M127.366 90.8248c0.0173,0.0111 0.0362,0.0227 0.054,0.0341 0.6067,0.3868 1.1474,0.8583 1.5712,1.3692"/>
      <path id="_65905544" fill="none" stroke="#5C3D1F" stroke-width="0.0762" d="M128.301 89.8184c-0.0152,0.014 -0.0313,0.0291 -0.0469,0.0433 -0.5309,0.4857 -1.1264,0.8857 -1.7296,1.1625"/>
      <path id="_77335360" fill="none" stroke="#5C3D1F" stroke-width="0.0762" d="M126.477 87.493c0,-0.0205 -0.0003,-0.0427 -0.0003,-0.0638 0,-0.7195 0.1068,-1.429 0.3098,-2.0609"/>
      <path id="_66503168" fill="none" stroke="#5C3D1F" stroke-width="0.0762" d="M125.304 90.6644c-0.0172,-0.0112 -0.036,-0.0229 -0.0537,-0.0344 -0.6039,-0.3911 -1.1414,-0.8664 -1.5616,-1.3802"/>
      <path id="_66503408" fill="none" stroke="#5C3D1F" stroke-width="0.0762" d="M122.237 94.6375c-0.0173,-0.0112 -0.036,-0.023 -0.0537,-0.0344 -0.604,-0.3911 -1.1415,-0.8664 -1.5616,-1.3802"/>
      <path id="_76631760" fill="none" stroke="#5C3D1F" stroke-width="0.0762" d="M114.624 92.3042c-0.0173,-0.0112 -0.0361,-0.0229 -0.0538,-0.0344 -0.6039,-0.3911 -1.1414,-0.8664 -1.5615,-1.3802"/>
      <path id="_78093952" fill="none" stroke="#5C3D1F" stroke-width="0.0762" d="M127.853 94.8383c-0.0172,-0.0112 -0.036,-0.023 -0.0537,-0.0345 -0.604,-0.391 -1.1415,-0.8663 -1.5616,-1.3802"/>
      <path id="_66503648" fill="none" stroke="#5C3D1F" stroke-width="0.0762" d="M117.763 93.8801c0.0204,-0.0028 0.0423,-0.0059 0.0633,-0.0086 0.7134,-0.0924 1.4308,-0.0775 2.0836,0.0427"/>
      <path id="_66870624" fill="none" stroke="#5C3D1F" stroke-width="0.0762" d="M120.255 90.8297c0.0203,-0.0027 0.0422,-0.0058 0.0631,-0.0086 0.7136,-0.0923 1.4309,-0.0774 2.0836,0.0429"/>
      <path id="_66870864" fill="none" stroke="#5C3D1F" stroke-width="0.0762" d="M125.22 92.138c0.0204,-0.0027 0.0423,-0.0058 0.0631,-0.0085 0.7137,-0.0923 1.431,-0.0775 2.0838,0.0426"/>
      <path id="_66871104" fill="none" stroke="#5C3D1F" stroke-width="0.0762" d="M123.553 94.2078c0,-0.0206 -0.0003,-0.0427 -0.0003,-0.0638 0,-0.7195 0.1068,-1.429 0.3098,-2.061"/>
      <path id="_66871616" fill="none" stroke="#5C3D1F" stroke-width="0.0762" d="M124.227 95.8793c0,-0.0206 -0.0004,-0.0427 -0.0004,-0.0638 0,-0.7195 0.1069,-1.429 0.3098,-2.061"/>
      <path id="_66872128" fill="none" stroke="#5C3D1F" stroke-width="0.0762" d="M121.165 92.494c0,-0.0206 -0.0003,-0.0428 -0.0003,-0.0639 0,-0.7195 0.1068,-1.4289 0.3098,-2.0609"/>
      <path id="_65792120" fill="none" stroke="#5C3D1F" stroke-width="0.0762" d="M113.569 92.7044c0,-0.0205 -0.0003,-0.0427 -0.0003,-0.0638 0,-0.7195 0.1068,-1.429 0.3097,-2.0609"/>
      <path id="_77269624" fill="none" stroke="#5C3D1F" stroke-width="0.0762" d="M124.78 94.7012c0,-0.0206 -0.0003,-0.0427 -0.0003,-0.0638 0,-0.7195 0.1068,-1.429 0.3098,-2.061"/>
      <path id="_77273584" fill="none" stroke="#5C3D1F" stroke-width="0.0762" d="M120.013 94.6485c0,-0.0206 -0.0003,-0.0428 -0.0003,-0.0639 0,-0.7195 0.1068,-1.429 0.3098,-2.0609"/>
      <path id="_77286504" fill="none" stroke="#5C3D1F" stroke-width="0.0762" d="M124.714 87.0632c0,-0.0206 -0.0004,-0.0427 -0.0004,-0.0638 0,-0.7195 0.1069,-1.429 0.3098,-2.061"/>
      <path id="_76860576" fill="none" stroke="#5C3D1F" stroke-width="0.0762" d="M121.012 90.1882c0,-0.0206 -0.0003,-0.0427 -0.0003,-0.0638 0,-0.7195 0.1068,-1.429 0.3097,-2.061"/>
      <path id="_77275752" fill="none" stroke="#5C3D1F" stroke-width="0.0762" d="M123.444 90.8727c0,-0.0206 -0.0003,-0.0428 -0.0003,-0.0639 0,-0.7195 0.1068,-1.429 0.3098,-2.0609"/>
      <path id="_76630376" fill="none" stroke="#5C3D1F" stroke-width="0.0762" d="M120.932 96.5162c0,-0.0205 -0.0003,-0.0427 -0.0003,-0.0638 0,-0.7195 0.1068,-1.429 0.3098,-2.0609"/>
      <path id="_77275240" fill="none" stroke="#5C3D1F" stroke-width="0.0762" d="M123.509 88.123c0,-0.0206 -0.0003,-0.0428 -0.0003,-0.0639 0,-0.7195 0.1068,-1.429 0.3098,-2.0609"/>
      <path id="_77139288" fill="none" stroke="#5C3D1F" stroke-width="0.0762" d="M122.325 87.3847c0,-0.0206 -0.0003,-0.0428 -0.0003,-0.0639 0,-0.7195 0.1068,-1.429 0.3098,-2.0609"/>
      <path id="_76583592" fill="none" stroke="#5C3D1F" stroke-width="0.0762" d="M125.86 86.9818c0.0203,-0.0025 0.0424,-0.0057 0.0632,-0.0085 0.7135,-0.0924 1.4309,-0.0774 2.0837,0.0428"/>
      <path id="_76639336" fill="none" stroke="#5C3D1F" stroke-width="0.0762" d="M126.436 88.4502c0.0204,-0.0026 0.0422,-0.0059 0.0631,-0.0085 0.7137,-0.0923 1.431,-0.0775 2.0837,0.0427"/>
      <path id="_77284336" fill="none" stroke="#5C3D1F" stroke-width="0.0762" d="M125.446 91.1452c0.0111,-0.0173 0.0229,-0.0361 0.0344,-0.0538 0.3906,-0.6042 0.8655,-1.142 1.3791,-1.5625"/>
      <path id="_76996216" fill="none" stroke="#5C3D1F" stroke-width="0.0762" d="M122.047 91.3738c0.0112,-0.0173 0.0229,-0.0361 0.0344,-0.0538 0.3907,-0.6042 0.8656,-1.142 1.3791,-1.5625"/>
      <path id="_66288128" fill="none" stroke="#5C3D1F" stroke-width="0.0762" d="M123.819 85.8777c0.0112,-0.0172 0.023,-0.036 0.0344,-0.0537 0.3907,-0.6043 0.8656,-1.1421 1.3791,-1.5626"/>
      <path id="_76866016" fill="none" stroke="#5C3D1F" stroke-width="0.0762" d="M125.138 90.6518c0.0112,-0.0173 0.0229,-0.0361 0.0344,-0.0538 0.3906,-0.6042 0.8656,-1.142 1.3791,-1.5625"/>
      <path id="_76766968" fill="none" stroke="#5C3D1F" stroke-width="0.0762" d="M126.879 89.2711c0.0112,-0.0173 0.0229,-0.0361 0.0344,-0.0538 0.3906,-0.6042 0.8656,-1.142 1.3791,-1.5625"/>
      <path id="_66826192" fill="none" stroke="#5C3D1F" stroke-width="0.0762" d="M124.469 89.6615c0.0111,-0.0173 0.0229,-0.036 0.0344,-0.0537 0.3906,-0.6043 0.8656,-1.1421 1.3791,-1.5626"/>
      <path id="_67092904" fill="none" stroke="#5C3D1F" stroke-width="0.0762" d="M126.27 87.8529c0.0111,-0.0173 0.0229,-0.0361 0.0344,-0.0538 0.3906,-0.6042 0.8655,-1.142 1.3791,-1.5625"/>
      <path id="_77490600" fill="none" stroke="#5C3D1F" stroke-width="0.0762" d="M118.63 95.9437c0.0112,-0.0173 0.023,-0.0361 0.0344,-0.0538 0.3907,-0.6042 0.8656,-1.142 1.3791,-1.5625"/>
      <path id="_76923016" fill="none" stroke="#5C3D1F" stroke-width="0.0762" d="M127.386 91.6461c0.0112,-0.0173 0.023,-0.0361 0.0344,-0.0538 0.3907,-0.6043 0.8656,-1.1421 1.3791,-1.5626"/>
      <path id="_78143160" fill="none" stroke="#5C3D1F" stroke-width="0.0762" d="M119.466 92.908c0.0111,-0.0173 0.0229,-0.036 0.0344,-0.0537 0.3906,-0.6043 0.8655,-1.1421 1.3791,-1.5626"/>
      <path id="_77021664" fill="none" stroke="#5C3D1F" stroke-width="0.0762" d="M128.295 94.0512c-0.0172,-0.0112 -0.036,-0.023 -0.0537,-0.0345 -0.6039,-0.391 -1.1414,-0.8663 -1.5616,-1.3802"/>
      <path id="_66400640" fill="none" stroke="#5C3D1F" stroke-width="0.0762" d="M123.286 91.3813c0.0204,0.0033 0.0423,0.0065 0.0631,0.0099 0.7103,0.1152 1.3935,0.3342 1.9848,0.6357"/>
      <path id="_76527536" fill="none" stroke="#5C3D1F" stroke-width="0.0762" d="M127.026 90.4352c0.0203,0.0032 0.0422,0.0065 0.0631,0.0098 0.7102,0.1152 1.3934,0.3342 1.9847,0.6357"/>
      <path id="_76646272" fill="none" stroke="#5C3D1F" stroke-width="0.0762" d="M120.425 88.5764c0.0204,0.0033 0.0423,0.0065 0.0631,0.0099 0.7102,0.1152 1.3935,0.3342 1.9848,0.6357"/>
      <path id="_78565040" fill="none" stroke="#5C3D1F" stroke-width="0.0762" d="M127.031 92.5625c0.0203,0.0033 0.0422,0.0066 0.0631,0.0099 0.7102,0.1152 1.3934,0.3342 1.9847,0.6357"/>
      <path id="_78256328" fill="none" stroke="#5C3D1F" stroke-width="0.0762" d="M124.353 87.4012c0.0023,0.0205 0.005,0.0425 0.0073,0.0635 0.0787,0.7152 0.0502,1.4321 -0.0825,2.0824"/>
      <path id="_76907040" fill="none" stroke="#5C3D1F" stroke-width="0.0762" d="M118.87 93.8128c-0.0172,-0.0112 -0.036,-0.023 -0.0537,-0.0345 -0.6039,-0.391 -1.1414,-0.8663 -1.5616,-1.3802"/>
      <path id="_76466456" fill="none" stroke="#5C3D1F" stroke-width="0.0762" d="M126.061 89.2337c0.0023,0.0205 0.005,0.0425 0.0073,0.0635 0.0787,0.7152 0.0501,1.4321 -0.0825,2.0824"/>
      <path id="_66518576" fill="none" stroke="#5C3D1F" stroke-width="0.0762" d="M125.518 85.6636c0.0022,0.0204 0.005,0.0424 0.0073,0.0634 0.0787,0.7152 0.0501,1.4321 -0.0825,2.0824"/>
      <path id="_77604520" fill="none" stroke="#5C3D1F" stroke-width="0.0762" d="M119.023 90.2522c0.0203,0.0033 0.0422,0.0065 0.063,0.0099 0.7103,0.1152 1.3935,0.3342 1.9848,0.6357"/>
      <path id="_65776456" fill="none" stroke="#5C3D1F" stroke-width="0.0762" d="M123.522 85.9245c-0.0173,-0.0112 -0.0361,-0.023 -0.0538,-0.0344 -0.6039,-0.3911 -1.1414,-0.8664 -1.5615,-1.3802"/>
      <path id="_66730792" fill="none" stroke="#5C3D1F" stroke-width="0.0762" d="M125.904 89.0737c-0.0151,0.0139 -0.0313,0.0291 -0.0468,0.0433 -0.5309,0.4857 -1.1266,0.8857 -1.7298,1.1625"/>
      <path id="_77341168" fill="none" stroke="#5C3D1F" stroke-width="0.0762" d="M118.505 90.6167c0.0174,0.0111 0.0362,0.0227 0.054,0.0341 0.6067,0.3868 1.1475,0.8583 1.5712,1.3692"/>
      <path id="_76638064" fill="none" stroke="#5C3D1F" stroke-width="0.0762" d="M127.043 89.0304c0.0174,0.011 0.0363,0.0227 0.0541,0.0341 0.6066,0.3868 1.1474,0.8583 1.5711,1.3692"/>
      <path id="_76485352" fill="none" stroke="#5C3D1F" stroke-width="0.0762" d="M124.298 90.8014c-0.0204,0.0027 -0.0423,0.006 -0.0632,0.0088 -0.7131,0.0959 -1.4305,0.0847 -2.0838,-0.0322"/>
      <path id="_76474016" fill="none" stroke="#5C3D1F" stroke-width="0.0762" d="M129.381 92.2121c-0.0203,0.0028 -0.0423,0.006 -0.0632,0.0088 -0.7131,0.096 -1.4305,0.0847 -2.0838,-0.0321"/>
      <path id="_76559808" fill="none" stroke="#5C3D1F" stroke-width="0.0762" d="M122.426 89.5338c-0.0021,-0.0205 -0.0046,-0.0425 -0.0068,-0.0635 -0.073,-0.7158 -0.0388,-1.4324 0.0989,-2.0817"/>
      <path id="_76425648" fill="none" stroke="#5C3D1F" stroke-width="0.0762" d="M113.424 91.7426c-0.0141,0.011 -0.0294,0.0227 -0.0438,0.0341 -0.4928,0.3868 -0.9321,0.8583 -1.2763,1.3692"/>
      <path id="_67143160" fill="none" stroke="#5C3D1F" stroke-width="0.0762" d="M112.403 89.9838c-0.0165,0.0033 -0.0343,0.0066 -0.0512,0.0099 -0.5769,0.1152 -1.132,0.3342 -1.6123,0.6357"/>
      <path id="_77054848" fill="none" stroke="#5C3D1F" stroke-width="0.0762" d="M114.129 89.5721c-0.0018,0.0204 -0.004,0.0424 -0.0059,0.0634 -0.0639,0.7152 -0.0407,1.4321 0.067,2.0824"/>
      <path id="_66430632" fill="none" stroke="#5C3D1F" stroke-width="0.0762" d="M114.389 92.077c-0.0116,0.0149 -0.0242,0.0307 -0.0361,0.0459 -0.4042,0.5196 -0.7402,1.1059 -0.9762,1.7027"/>
      <path id="_76659712" fill="none" stroke="#5C3D1F" stroke-width="0.0762" d="M112.643 91.6871c-0.0165,0.0033 -0.0343,0.0065 -0.0512,0.0099 -0.5769,0.1152 -1.1319,0.3342 -1.6122,0.6357"/>
      <path id="_78031240" fill="none" stroke="#5C3D1F" stroke-width="0.0762" d="M112.876 89.5782c-0.0141,0.0111 -0.0294,0.0227 -0.0439,0.0341 -0.4928,0.3868 -0.9321,0.8583 -1.2763,1.3692"/>
      <path id="_77814896" fill="none" stroke="#5C3D1F" stroke-width="0.0762" d="M111.295 87.6972c0.0123,0.014 0.0254,0.0291 0.0381,0.0433 0.4312,0.4857 0.915,0.8857 1.405,1.1625"/>
      <path id="_76724896" fill="none" stroke="#5C3D1F" stroke-width="0.0762" d="M111.165 90.3617c0.0204,0.0024 0.0424,0.0054 0.0633,0.0079 0.7143,0.087 1.429,0.0866 2.0763,-0.0007"/>
      <path id="_76694360" fill="none" stroke="#5C3D1F" stroke-width="0.0762" d="M111.983 93.8104c0.014,-0.0112 0.0292,-0.023 0.0436,-0.0345 0.4906,-0.391 0.9272,-0.8663 1.2685,-1.3802"/>
      <path id="_77206672" fill="none" stroke="#5C3D1F" stroke-width="0.0762" d="M114.841 91.2815c-0.0165,-0.0027 -0.0343,-0.0058 -0.0512,-0.0085 -0.5797,-0.0923 -1.1624,-0.0775 -1.6927,0.0426"/>
      <path id="_67206744" fill="none" stroke="#5C3D1F" stroke-width="0.0762" d="M113.474 85.7339c-0.0166,-0.0025 -0.0345,-0.0057 -0.0514,-0.0085 -0.5796,-0.0924 -1.1624,-0.0774 -1.6926,0.0428"/>
      <path id="_76602928" fill="none" stroke="#5C3D1F" stroke-width="0.0762" d="M113.006 87.2023c-0.0166,-0.0026 -0.0343,-0.0059 -0.0513,-0.0085 -0.5797,-0.0923 -1.1624,-0.0775 -1.6925,0.0427"/>
      <path id="_76414888" fill="none" stroke="#5C3D1F" stroke-width="0.0762" d="M113.81 89.8973c-0.009,-0.0173 -0.0186,-0.0361 -0.0279,-0.0538 -0.3173,-0.6042 -0.7031,-1.142 -1.1202,-1.5625"/>
      <path id="_76475808" fill="none" stroke="#5C3D1F" stroke-width="0.0762" d="M114.061 89.4039c-0.0091,-0.0173 -0.0186,-0.0361 -0.0279,-0.0538 -0.3174,-0.6042 -0.7031,-1.142 -1.1203,-1.5625"/>
      <path id="_78093680" fill="none" stroke="#5C3D1F" stroke-width="0.0762" d="M112.646 88.0232c-0.0091,-0.0173 -0.0187,-0.0361 -0.028,-0.0538 -0.3173,-0.6042 -0.7031,-1.142 -1.1202,-1.5625"/>
      <path id="_77229024" fill="none" stroke="#5C3D1F" stroke-width="0.0762" d="M113.141 86.605c-0.009,-0.0173 -0.0186,-0.0361 -0.0279,-0.0538 -0.3173,-0.6042 -0.7031,-1.142 -1.1203,-1.5625"/>
      <path id="_66527232" fill="none" stroke="#5C3D1F" stroke-width="0.0762" d="M113.07 87.7116c-0.0091,-0.0173 -0.0187,-0.0361 -0.028,-0.0538 -0.3173,-0.6043 -0.7031,-1.1421 -1.1202,-1.5626"/>
      <path id="_66915448" fill="none" stroke="#5C3D1F" stroke-width="0.0762" d="M111.496 92.8033c0.014,-0.0112 0.0293,-0.023 0.0437,-0.0345 0.4905,-0.391 0.9271,-0.8663 1.2684,-1.3802"/>
      <path id="_78030304" fill="none" stroke="#5C3D1F" stroke-width="0.0762" d="M112.527 89.1873c-0.0165,0.0032 -0.0343,0.0065 -0.0512,0.0098 -0.5769,0.1152 -1.1319,0.3342 -1.6123,0.6357"/>
      <path id="_77254704" fill="none" stroke="#5C3D1F" stroke-width="0.0762" d="M112.522 91.3146c-0.0165,0.0033 -0.0343,0.0066 -0.0512,0.0099 -0.577,0.1152 -1.132,0.3342 -1.6123,0.6357"/>
      <path id="_66453056" fill="none" stroke="#5C3D1F" stroke-width="0.0762" d="M113.31 87.9858c-0.0018,0.0205 -0.004,0.0425 -0.0059,0.0635 -0.064,0.7152 -0.0407,1.4321 0.067,2.0824"/>
      <path id="_77780280" fill="none" stroke="#5C3D1F" stroke-width="0.0762" d="M113.308 84.4328c-0.0019,0.0204 -0.0041,0.0424 -0.006,0.0634 -0.0639,0.7152 -0.0407,1.4321 0.0671,2.0824"/>
      <path id="_66788568" fill="none" stroke="#5C3D1F" stroke-width="0.0762" d="M112.539 88.5174c-0.0141,0.011 -0.0294,0.0227 -0.0438,0.0341 -0.4928,0.3868 -0.9321,0.8583 -1.2763,1.3692"/>
      <path id="_76487944" fill="none" stroke="#5C3D1F" stroke-width="0.0762" d="M111.844 90.7837c0.0165,0.0028 0.0343,0.006 0.0513,0.0088 0.5793,0.096 1.162,0.0847 1.6927,-0.0321"/>
     </g>
     <g id="StpAsp_Lacin_10">
      <path id="_66850232" fill="#99A41F" stroke="#5C3D1F" stroke-width="0.0762" d="M115.494 31.4379c0.1596,-1.6841 -0.3936,-3.5806 -1.5407,-4.5967 -2.4058,-2.0076 -5.2812,-3.5721 -7.2173,-6.023 1.7986,2.4192 4.6219,3.8714 7.3171,5.4445 0.9381,0.1103 1.7722,-0.4884 1.7409,-1.3199 -0.3979,-2.9876 -1.9197,-5.8833 -2.8155,-8.8854 0.9955,2.9081 1.8129,6.2263 4.3122,7.3923 0.7074,0.2278 2.0773,0.8587 2.1615,-0.1355 0.1336,-2.9041 0.6239,-6.6379 1.9253,-9.0482 -1.1137,2.3679 -1.1705,9.1252 0.1262,9.4061 0.7736,0.1676 3.9697,-8.4674 4.1652,-8.4484 -1.8525,3.6756 -2.8012,8.6835 -2.0806,8.9536 0.7886,-0.142 3.3405,-4.1995 6.8093,-5.9123 -2.9606,2.0095 -4.1937,4.3545 -5.818,7.0523 -0.8604,1.0271 0.1251,2.1083 1.0574,2.8966 -0.4337,1.9881 -3.4675,4.7871 -10.4457,5.2187 0.1258,-0.8455 0.826,-1.1793 0.3027,-1.9947z"/>
      <path id="_76748208" fill="#A97C4E" stroke="#9E8F7D" stroke-width="0.0762" d="M120.695 4.3489c3.8527,0 6.9777,1.0125 6.9777,2.261 0,1.2483 -3.125,2.2607 -6.9777,2.2607 -3.8535,0 -6.9784,-1.0124 -6.9784,-2.2607 0,-1.2485 3.1249,-2.261 6.9784,-2.261z"/>
     </g>
    </g>
   </g>
   <path fill="none" stroke="#AAA9A9" stroke-width="0.0762" d="M113.717 6.6131c-0.1256,15.5069 0.1258,31.2805 0,46.7875 0.1876,2.7857 13.4203,3.2124 13.9561,0l-0.0184 -46.7875c-0.4376,3.0284 -13.6568,2.9889 -13.9377,0z"/>
   <g id="feuille_2_11">
    <path id="_66866952" fill="#E5E5E5" stroke="#7F7F7F" stroke-width="0.0762" d="M125.873 30.4815c1.5461,-1.9349 22.9785,-9.1053 24.9295,-10.1001 -0.1995,0.5983 -1.7772,0.0763 -1.606,-0.5123l-25.6538 9.2134c0.1767,0.1584 0.6325,0.1947 1.4724,0.5942 0.9074,0.7355 0.4914,0.6164 0.8579,0.8048z"/>
    <path id="_76507008" fill="#E5E5E5" stroke="#7F7F7F" stroke-width="0.0762" d="M140.632 17.0094c6.5561,0.5672 8.4443,2.8812 8.5517,2.8637 -5.9226,2.0942 -8.6255,3.1828 -14.6239,5.2528 -4.7755,-2.3399 -3.9443,-6.3644 6.0722,-8.1165z"/>
    <path id="_77171200" fill="#E5E5E5" stroke="#7F7F7F" stroke-width="0.0762" d="M136.765 26.0678c-0.7419,-0.2762 0.0391,0.0087 -0.5668,-0.2422 -3.8629,1.4435 -9.1404,3.3313 -10.3247,4.6559 0,0 -0.171,0.5618 -0.3141,0.7834 1.4088,-1.105 8.3881,-4.4505 11.2056,-5.1971z"/>
    <path id="_66405808" fill="#E5E5E5" stroke="#7F7F7F" stroke-width="0.0762" d="M136.198 25.8256c5.8713,-2.1085 8.7333,-3.3355 14.6047,-5.4442 4.1621,0.0729 9.7602,2.1287 11.2556,4.5264 -10.2668,2.2642 -16.4369,5.0557 -25.8603,0.9178z"/>
   </g>
   <g id="feuille_12">
    <path id="_76696296" fill="#E5E5E5" stroke="#7F7F7F" stroke-width="0.0762" d="M115.168 33.0105c-1.364,1.5805 -22.3504,10.7084 -23.9886,11.7418 -0.1118,0.6392 1.1354,0.8549 1.2274,0.4962l25.5851 -11.0017c-0.2469,-0.2066 -1.0143,-0.1335 -1.7863,-0.4176 -0.8585,-0.5748 -0.8976,-0.9771 -1.0376,-0.8187z"/>
    <path id="_76447352" fill="#E5E5E5" stroke="#7F7F7F" stroke-width="0.0762" d="M105.713 50.1166c-3.5523,-4.1603 -10.604,-5.2901 -13.3059,-4.8681l15.5885 -6.7329c4.3947,1.6761 6.3986,9.2506 -2.2826,11.601z"/>
    <path id="_78497168" fill="#E5E5E5" stroke="#7F7F7F" stroke-width="0.0762" d="M108.715 38.8448c-0.2584,-0.138 -0.4256,-0.2143 -0.7197,-0.3292l9.9966 -4.2688c-0.3122,2.4698 -6.7334,2.7436 -9.2769,4.598z"/>
    <path id="_77860024" fill="#E5E5E5" stroke="#7F7F7F" stroke-width="0.0762" d="M115.909 33.0618c0.0273,-0.1149 0.8835,-0.8117 1.1811,-0.7602 0.3085,0.12 0.6675,1.5595 0.1449,1.5016 -0.1303,-0.0144 -0.6139,-0.076 -0.839,-0.2015 -0.2717,-0.1514 -0.5045,-0.4661 -0.487,-0.5399z"/>
    <path id="_77495520" fill="#E5E5E5" stroke="#7F7F7F" stroke-width="0.0762" d="M106.184 37.7613c-5.0001,2.3309 -10.0001,4.6619 -15.0002,6.9929 -0.8719,-1.0439 -8.0586,-2.8176 -12.8633,-1.6878 8.2995,-3.7572 19.23,-8.1904 27.8635,-5.3051z"/>
    <path id="_77853360" fill="#E5E5E5" stroke="#7F7F7F" stroke-width="0.0762" d="M105.713 50.1166c-3.5577,-3.0358 -9.635,-4.7484 -13.5554,-3.7175 -0.0951,0.4554 -1.355,-0.1086 -1.2235,-0.5152 -2.1219,-1.567 -4.1292,-3.469 -12.9924,-2.6994 3.9591,-1.1528 11.4334,-0.2399 13.2423,1.5697 -0.0906,0.4085 1.1304,0.9116 1.2231,0.4943 3.8763,-0.7604 11.0721,1.7436 13.3059,4.8681z"/>
   </g>
   <path id="_77596888" fill="#99FF00" stroke="black" stroke-width="0.0762" d="M117.774 33.5204c0.1321,-1.3944 -0.3259,-2.9645 -1.2756,-3.8057 -1.9918,-1.6622 -4.3724,-2.9575 -5.9753,-4.9866 1.4891,2.0029 3.8265,3.2053 6.0579,4.5077 0.7767,0.0913 1.4672,-0.4044 1.4414,-1.0928 -0.3294,-2.4735 -1.5894,-4.8709 -2.331,-7.3564 0.8241,2.4077 1.5009,5.1549 3.5701,6.1202 0.5857,0.1886 1.7198,0.711 1.7895,-0.1122 0.1106,-2.4043 0.5166,-5.4956 1.594,-7.4911 -0.922,1.9604 -0.969,7.5548 0.1045,7.7874 0.6405,0.1388 3.2866,-7.0103 3.4484,-6.9945 -1.5336,3.0431 -2.3191,7.1892 -1.7225,7.4128 0.6529,-0.1176 2.7656,-3.4769 5.6375,-4.8949 -2.4511,1.6637 -3.472,3.6052 -4.8168,5.8387 -0.7123,0.8504 0.1036,1.7455 0.8754,2.3982 -0.359,1.6459 -2.8708,3.9633 -8.6481,4.3206 0.1042,-0.7 0.6839,-0.9763 0.2506,-1.6514z"/>
  </g>
 </g>
<image xlink:href="tick.gif" id="imgtick" x="-100" y="-100" width="15" height="15"/>
<rect id="recttooltip" x="-100" y="-100" width="55" height="6" fill-opacity="0.4" pointer-events="none"/>
<text id="textboxid" x="-100" y="-100" pointer-events="none"> </text>
</a></svg>
