<?xml version="1.0" encoding="UTF-8"?>
<!DOCTYPE svg PUBLIC "-//W3C//DTD SVG 1.1//EN" "http://www.w3.org/Graphics/SVG/1.1/DTD/svg11.dtd">
<!-- Creator: CorelDRAW -->
<svg xmlns="http://www.w3.org/2000/svg" xml:space="preserve" shape-rendering="geometricPrecision" text-rendering="geometricPrecision" image-rendering="optimizeQuality" fill-rule="evenodd" clip-rule="evenodd"
viewBox="0 0 240 180"
 xmlns:xlink="http://www.w3.org/1999/xlink">
<a>
 <g id="Plan_x0020_1">
  <metadata id="CorelCorpID_0Corel-Layer"/>
  <rect fill="none" x="-0.0001" y="-0.0001" width="240" height="180"/>
  <g id="StpAsp_Special" onclick="parent.replacechar('StpAsp_Special')" onmousemove="parent.showtooltip('StpAsp_Special', 'Stipule with special forms')" onmouseout="parent.hidetooltip('StpAsp_Special')" cursor="pointer" >
   <g>
    <path id="_77267936" fill="#BF9B76" stroke="#AAA9A9" stroke-width="0.0762" d="M226.57 80.3131c2.7187,0 4.9234,0.7144 4.9234,1.5951 0,0.8809 -2.2047,1.5953 -4.9234,1.5953 -2.7184,0 -4.9232,-0.7144 -4.9232,-1.5953 0,-0.8807 2.2048,-1.5951 4.9232,-1.5951z"/>
    <path id="_78503216" fill="#BF9B76" stroke="#AAA9A9" stroke-width="0.0762" d="M221.647 81.9105c-0.0886,10.9409 0.0888,22.0698 0,33.0109 0.1324,1.9652 9.4684,2.2661 9.8466,0l-0.0129 -33.0107c-0.3086,2.1365 -9.6354,2.1089 -9.8337,-0.0002z"/>
   </g>
   <path id="_76547344" fill="#99FF00" stroke="#1F1A17" stroke-width="0.0762" d="M222.389 101.263c-0.1599,-2.6177 -2.81,-2.2021 -3.0244,-0.9564 -0.3732,2.1684 1.6268,4.9637 2.7522,4.056 1.0749,-0.8669 1.3132,-2.2963 0.2722,-3.0996z"/>
   <path id="_66886192" fill="#99FF00" stroke="#1F1A17" stroke-width="0.0762" d="M223.116 99.1776c-0.2529,-1.5207 -0.1806,-2.3494 -0.5581,-3.168 -0.1232,-0.2673 -0.1996,0.507 -0.4933,3.0033 -0.1932,1.642 -0.0632,1.6047 0.7223,2.5486 1.1361,0.3587 0.4316,-1.7675 0.3291,-2.3839z"/>
   <g id="feuille">
    <path id="_77214240" fill="#E5E5E5" stroke="#838281" stroke-width="0.0762" d="M222.886 100.906c-0.82,0.9501 -13.4362,6.4375 -14.4211,7.0587 -0.0672,0.3842 0.6826,0.5139 0.7379,0.2983l15.3808 -6.6138c-0.1484,-0.1242 -0.6098,-0.0802 -1.0738,-0.251 -0.5161,-0.3456 -0.5397,-0.5875 -0.6238,-0.4922z"/>
    <path id="_77552136" fill="#E5E5E5" stroke="#838281" stroke-width="0.0762" d="M217.202 111.189c-2.1355,-2.501 -6.3748,-3.1802 -7.999,-2.9265l9.3712 -4.0476c2.6419,1.0077 3.8466,5.5612 -1.3722,6.9741z"/>
    <path id="_77552344" fill="#E5E5E5" stroke="#838281" stroke-width="0.0762" d="M219.006 104.413c-0.1554,-0.083 -0.2559,-0.1289 -0.4327,-0.198l6.0096 -2.5662c-0.1877,1.4847 -4.0479,1.6494 -5.5769,2.7642z"/>
    <path id="_76645112" fill="#E5E5E5" stroke="#838281" stroke-width="0.0762" d="M223.331 100.937c0.0164,-0.0691 0.5311,-0.4879 0.7101,-0.457 0.1854,0.0721 0.4012,0.9375 0.087,0.9027 -0.0782,-0.0087 -0.369,-0.0457 -0.5043,-0.1211 -0.1634,-0.091 -0.3033,-0.2802 -0.2928,-0.3246z"/>
    <path id="_78503504" fill="#E5E5E5" stroke="#838281" stroke-width="0.0762" d="M217.485 103.762c-3.0059,1.4012 -6.0117,2.8025 -9.0176,4.2038 -0.5241,-0.6275 -4.8445,-1.6938 -7.7329,-1.0146 4.9893,-2.2587 11.5603,-4.9238 16.7505,-3.1892z"/>
    <path id="_78080720" fill="#E5E5E5" stroke="#838281" stroke-width="0.0762" d="M217.202 111.189c-2.1388,-1.825 -5.7922,-2.8545 -8.149,-2.2348 -0.0572,0.2737 -0.8146,-0.0653 -0.7355,-0.3097 -1.2756,-0.942 -2.4823,-2.0855 -7.8106,-1.6228 2.3801,-0.693 6.8734,-0.1442 7.9608,0.9436 -0.0544,0.2456 0.6796,0.5481 0.7353,0.2972 2.3303,-0.4571 6.6561,1.0482 7.999,2.9265z"/>
   </g>
   <path id="_66470920" fill="#99FF00" stroke="#1F1A17" stroke-width="0.0762" d="M224.598 99.4864c0.2529,-1.5207 0.1806,-2.3494 0.5581,-3.168 0.1232,-0.2673 0.1996,0.507 0.4933,3.0033 0.1932,1.642 0.0632,1.6047 -0.7223,2.5486 -1.1361,0.3587 -0.4316,-1.7675 -0.3291,-2.3839z"/>
   <path id="_78079616" fill="#99FF00" stroke="#1F1A17" stroke-width="0.0762" d="M224.874 101.931c1.713,-1.9858 3.5697,-0.0498 2.9857,1.0712 -1.0166,1.9514 -4.3012,2.9638 -4.6468,1.5599 -0.3301,-1.3409 0.3462,-2.6225 1.6611,-2.6311z"/>
  </g>
  <g id="StpAsp_Sheat" onclick="parent.replacechar('StpAsp_Sheat')" onmousemove="parent.showtooltip('StpAsp_Sheat', 'Stipule sheathing')" onmouseout="parent.hidetooltip('StpAsp_Sheat')" cursor="pointer" >
   <g id="feuille_2">
    <path id="_65726760" fill="#E5E5E5" stroke="#7F7F7F" stroke-width="0.0762" d="M168.904 101.594c-1.0973,-2.3825 -16.7586,-17.2273 -18.1763,-18.895 0.1336,0.6299 1.3105,0.7513 1.1975,0.1412l18.7315 18.3521c-0.1341,0.0789 -0.4715,-0.0621 -1.1008,-0.0143 -0.6868,0.333 -0.377,0.3821 -0.6519,0.416z"/>
    <path id="_76494944" fill="#E5E5E5" stroke="#7F7F7F" stroke-width="0.0762" d="M158.315 83.4753c-4.854,-1.9867 -6.3012,-0.5691 -6.3801,-0.6264 4.3252,4.2065 6.2961,6.2492 10.6779,10.4624 3.5798,-0.3356 3.0582,-4.3778 -4.2978,-9.836z"/>
    <path id="_77768320" fill="#E5E5E5" stroke="#7F7F7F" stroke-width="0.0762" d="M160.963 93.338c0.5541,0.0286 -0.0291,-0.0069 0.4241,-0.0069 2.8192,2.8154 6.6729,6.5837 7.517,8.263 0,0 0.1134,0.5853 0.214,0.8452 -1.015,-1.5621 -6.0918,-7.3312 -8.1551,-9.1013z"/>
    <path id="_66802520" fill="#E5E5E5" stroke="#7F7F7F" stroke-width="0.0762" d="M161.387 93.3311c-4.287,-4.2002 -6.3722,-6.4318 -10.6592,-10.632 -3.075,-1.527 -7.2556,-1.7694 -8.4148,-0.1238 7.529,6.0279 12.021,10.9744 19.074,10.7558z"/>
   </g>
   <g id="feuille_0">
    <path id="_66472792" fill="#E5E5E5" stroke="#7F7F7F" stroke-width="0.0762" d="M174.001 87.7185c0.4291,-1.5005 11.1492,-10.8748 12.0419,-11.9273 0.0295,0.3964 -1.0147,0.4761 -1.0581,0.0923l-12.6783 11.5875c0.141,0.0491 0.415,-0.0402 1.0004,-0.0121 0.7062,0.207 0.4354,0.2391 0.6941,0.2596z"/>
    <path id="_77256536" fill="#E5E5E5" stroke="#7F7F7F" stroke-width="0.0762" d="M179.311 76.3008c3.9496,-1.2625 5.6095,-0.3758 5.6677,-0.4118 -2.935,2.656 -4.2422,3.9454 -7.2269,6.6057 -3.3452,-0.2006 -3.8393,-2.7425 1.5592,-6.1939z"/>
    <path id="_27683688" fill="#E5E5E5" stroke="#7F7F7F" stroke-width="0.0762" d="M179.262 82.5069c-0.4984,0.0196 0.0249,-0.0044 -0.3884,-0.0031 -1.8954,1.7774 -4.5054,4.1568 -4.8724,5.2147 0,0 0.037,0.3681 0.0078,0.5318 0.5506,-0.9848 3.7962,-4.625 5.253,-5.7434z"/>
    <path id="_66518416" fill="#E5E5E5" stroke="#7F7F7F" stroke-width="0.0762" d="M178.874 82.5038c2.9018,-2.6519 4.2678,-4.0604 7.1695,-6.7126 2.4378,-0.9683 6.1919,-1.1327 7.6437,-0.1017 -5.4193,3.8099 -8.329,6.9316 -14.8132,6.8143z"/>
   </g>
   <path id="_27622264" fill="#BF9B76" stroke="#AAA9A9" stroke-width="0.0762" d="M168.115 85.3031c0.0177,4.7393 0.044,19.2873 -0.0111,30.0526 0.013,1.565 5.9685,1.5108 5.992,-0.0014l0.0125 -30.1858c-0.001,2.2815 -5.9869,2.1929 -5.9934,0.1346z"/>
   <path id="_77488248" fill="#663300" stroke="black" stroke-width="0.0762" d="M174.101 103.232c-0.5577,1.2661 -5.8309,1.2946 -5.9693,0.0012 0.0009,-0.1986 -0.0007,-0.2643 0.0002,-0.463 0.0388,1.2525 5.6581,1.4275 5.9693,-0.0014 -0.0009,0.1986 0.0007,0.2646 -0.0002,0.4632z"/>
   <path id="_67089944" fill="#663300" fill-opacity="0.501961" stroke="black" stroke-width="0.0762" stroke-linejoin="round" stroke-dasharray="0.762000 0.228600" stroke-opacity="0.501961" d="M174.102 101.902c-0.5425,-0.9132 -2.6276,-1.0419 -3.8291,-0.9053 -0.0562,0.2794 -0.0734,0.228 -0.0878,0.5336 1.1947,-0.3598 3.7717,-0.2063 3.9167,0.8349 -0.001,-0.1986 0.0011,-0.2646 0.0002,-0.4632z"/>
   <path id="_76905472" fill="#E5E5E5" stroke="#7F7F7F" stroke-width="0.0762" stroke-linejoin="round" d="M171.857 73.4357c-5.7836,15.1112 -0.6772,13.6559 2.2712,12.3618 0.3302,-5.9504 -1.9453,-9.5664 -2.2712,-12.3618z"/>
   <path id="_66376976" fill="#E5E5E5" fill-opacity="0.501961" stroke="black" stroke-width="0.0762" stroke-linejoin="round" stroke-dasharray="0.762000 0.381000" stroke-opacity="0.501961" d="M171.632 81.9243c0.8717,1.4585 2.0314,4.4743 -0.1219,5.0741 -0.2963,-0.0095 -0.6501,-0.0759 -1.0699,-0.2102 -0.5145,-1.5603 -0.93,-1.0391 1.1918,-4.8639z"/>
   <path id="_76479152" fill="#663300" fill-opacity="0.501961" stroke="black" stroke-width="0.0762" stroke-linejoin="round" stroke-dasharray="0.762000 0.228600" stroke-opacity="0.501961" d="M168.132 102.306c0.121,-0.1016 0.442,-0.2814 0.575,-0.3211 0.0863,0.1202 0.1652,0.2259 0.326,0.3375 -0.2201,-0.1012 -0.7099,0.1192 -0.9008,0.4469 0.0009,-0.1987 -0.0011,-0.2646 -0.0002,-0.4633z"/>
   <path id="_77133656" fill="#663300" stroke="black" stroke-width="0.0762" d="M174.101 87.746c-0.5577,1.266 -5.8309,1.2945 -5.9693,0.0011 0.0009,-0.1986 -0.0007,-0.2643 0.0002,-0.4629 0.0388,1.2525 5.6581,1.4274 5.9693,-0.0015 -0.0009,0.1987 0.0007,0.2646 -0.0002,0.4633z"/>
   <path id="stipule" fill="#99FF00" stroke="black" stroke-width="0.0762" stroke-linejoin="round" d="M168.213 87.7154c0.7319,2.1854 6.577,0.2993 5.8399,-2.1808 -1.4494,0.1889 -3.4339,-4.4502 -6.2182,-11.2251 -0.5758,4.6437 -0.9768,6.5581 0.3783,13.4059z"/>
  </g>
  <g id="StpAsp_Leea" onclick="parent.replacechar('StpAsp_Leea')" onmousemove="parent.showtooltip('StpAsp_Leea', 'Stipule of Leea type')" onmouseout="parent.hidetooltip('StpAsp_Leea')" cursor="pointer" >
   <g id="tige">
    <path id="_66523216" fill="#BF9B76" stroke="#AAA9A9" stroke-width="0.0762" d="M135.14 89.3535c1.4163,0 2.565,0.3722 2.565,0.8311 0,0.4589 -1.1487,0.831 -2.565,0.831 -1.4163,0 -2.5649,-0.3721 -2.5649,-0.831 0,-0.4589 1.1486,-0.8311 2.5649,-0.8311z"/>
    <path id="_76821864" fill="#BF9B76" stroke="#AAA9A9" stroke-width="0.0762" d="M132.598 90.3179c0.0151,4.0336 0.0362,16.0472 -0.0108,25.2096 0.0111,1.3319 5.0798,1.2858 5.0998,-0.0012l0.0105 -25.4033c-0.1601,1.2149 -4.4632,1.1148 -5.0995,0.1949z"/>
   </g>
   <g id="feuille_1">
    <path id="_67226744" fill="#E5E5E5" stroke="#7F7F7F" stroke-width="0.0762" d="M132.572 111.653c-0.6532,-3.8095 -17.2821,-30.9103 -18.6639,-33.8247 -0.0502,0.9476 1.5786,1.5692 1.6505,0.6577l19.6612 33.2637c-0.2209,0.0611 -0.6474,-0.2683 -1.5613,-0.4402 -1.1046,0.212 -0.6823,0.4001 -1.0865,0.3435z"/>
    <path id="_76893440" fill="#E5E5E5" stroke="#7F7F7F" stroke-width="0.0762" d="M124.411 81.8269c-6.151,-4.6787 -8.7514,-3.2129 -8.8418,-3.3246 4.5517,7.6365 6.5779,11.2954 11.2075,18.963 5.223,0.8876 6.0223,-5.0644 -2.3657,-15.6384z"/>
    <path id="_76605248" fill="#E5E5E5" stroke="#7F7F7F" stroke-width="0.0762" d="M124.418 96.8741c0.7778,0.2521 -0.0387,-0.0209 0.6063,0.1519 2.9389,5.0822 6.9865,11.9153 7.5475,14.6273 0.0001,0 -0.0619,0.8763 -0.0177,1.2846 -0.8489,-2.6104 -5.8745,-12.7575 -8.1361,-16.0638z"/>
    <path id="_66923856" fill="#E5E5E5" stroke="#7F7F7F" stroke-width="0.0762" d="M125.024 97.026c-4.4999,-7.6129 -6.6165,-11.5844 -11.1163,-19.1974 -3.7943,-3.346 -9.652,-5.2853 -11.9294,-3.3853 8.417,11.4508 12.9239,20.204 23.0457,22.5827z"/>
   </g>
   <path id="stipule_2" fill="#99FF00" stroke="black" stroke-width="0.0762" stroke-linejoin="round" d="M132.47 111.018c3.5096,2.9399 5.4807,0.2679 5.5517,-1.7892 -0.2135,-4.1709 -8.554,-15.4382 -8.9445,-5.6168 0.0998,1.3567 3.0276,5.8044 3.3928,7.406z"/>
  </g>
  <g id="StpAsp_Entire" onclick="parent.replacechar('StpAsp_Entire')" onmousemove="parent.showtooltip('StpAsp_Entire', 'Stipule entire')" onmouseout="parent.hidetooltip('StpAsp_Entire')" cursor="pointer" >
   <g>
    <path id="_76664952" fill="#BF9B76" stroke="#AAA9A9" stroke-width="0.0762" d="M84.9397 79.4375c2.784,0 5.0422,0.7316 5.0422,1.6338 0,0.902 -2.2582,1.6336 -5.0422,1.6336 -2.7846,0 -5.0426,-0.7316 -5.0426,-1.6336 0,-0.9022 2.258,-1.6338 5.0426,-1.6338z"/>
    <path id="_76703296" fill="#BF9B76" stroke="#AAA9A9" stroke-width="0.0762" d="M79.8971 81.0736c-0.0908,11.2055 0.0909,22.6037 0,33.8092 0.1355,2.0129 9.6976,2.3213 10.0848,0l-0.0134 -33.8091c-0.3162,2.1882 -9.8685,2.1597 -10.0714,-0.0001z"/>
   </g>
   <g id="feuille_3">
    <path id="_76881256" fill="#E5E5E5" stroke="#7F7F7F" stroke-width="0.0762" d="M80.9184 100.957c-0.9856,1.1421 -16.1506,7.738 -17.3344,8.4847 -0.0808,0.4619 0.8204,0.6178 0.8869,0.3586l18.4881 -7.95c-0.1784,-0.1492 -0.733,-0.0964 -1.2908,-0.3017 -0.6203,-0.4154 -0.6486,-0.7061 -0.7498,-0.5916z"/>
    <path id="_27616936" fill="#E5E5E5" stroke="#7F7F7F" stroke-width="0.0762" d="M74.0859 113.318c-2.5669,-3.0063 -7.6626,-3.8227 -9.615,-3.5177l11.2644 -4.8653c3.1757,1.2112 4.6238,6.6846 -1.6494,8.383z"/>
    <path id="_77666544" fill="#E5E5E5" stroke="#7F7F7F" stroke-width="0.0762" d="M76.2554 105.172c-0.1868,-0.0997 -0.3075,-0.1549 -0.5201,-0.2379l7.2237 -3.0847c-0.2256,1.7847 -4.8656,1.9826 -6.7036,3.3226z"/>
    <path id="_78595144" fill="#E5E5E5" stroke="#7F7F7F" stroke-width="0.0762" d="M81.4533 100.994c0.0197,-0.083 0.6385,-0.5865 0.8535,-0.5493 0.2229,0.0867 0.4823,1.1269 0.1047,1.0851 -0.0941,-0.0105 -0.4435,-0.055 -0.6062,-0.1456 -0.1964,-0.1094 -0.3646,-0.3369 -0.352,-0.3902z"/>
    <path id="_77818432" fill="#E5E5E5" stroke="#7F7F7F" stroke-width="0.0762" d="M74.4264 104.389c-3.6131,1.6844 -7.2262,3.3688 -10.8393,5.0532 -0.63,-0.7544 -5.8233,-2.036 -9.2952,-1.2197 5.9973,-2.715 13.8959,-5.9184 20.1345,-3.8335z"/>
    <path id="_76609216" fill="#E5E5E5" stroke="#7F7F7F" stroke-width="0.0762" d="M74.0859 113.318c-2.5709,-2.1937 -6.9624,-3.4312 -9.7952,-2.6863 -0.0688,0.329 -0.9792,-0.0785 -0.8842,-0.3723 -1.5333,-1.1323 -2.9838,-2.5068 -9.3884,-1.9506 2.8609,-0.8331 8.2619,-0.1734 9.569,1.1343 -0.0654,0.2952 0.8169,0.6587 0.8838,0.3572 2.8011,-0.5495 8.0008,1.2599 9.615,3.5177z"/>
   </g>
   <g>
    <path id="_76617904" fill="#99FF00" stroke="black" stroke-width="0.0762" d="M79.9355 99.7293c-0.0039,-1.259 -0.0091,-2.1069 -0.0121,-3.0714 -0.278,-0.3181 -0.3482,-0.4733 -0.4493,-0.7306 -0.2284,0.6671 0.1074,0.7436 -0.3211,1.3554 -0.0275,0.841 0.438,1.9137 0.7825,2.4466z"/>
    <path id="_77872448" fill="#99FF00" stroke="black" stroke-width="0.0762" d="M79.9423 101.915c0.1255,-0.0742 0.4135,-0.2439 0.483,-0.3254 0.8754,-0.7277 -1.2642,-1.9818 -1.2723,-4.3068 -2.2295,2.1508 1.2066,3.248 0.7893,4.6322z"/>
    <path id="_66392784" fill="#99FF00" fill-opacity="0.501961" stroke="black" stroke-width="0.0762" stroke-linejoin="round" stroke-dasharray="0.762000 0.381000" stroke-opacity="0.501961" d="M79.9416 101.662c-0.0069,-2.0678 -0.0213,-2.9372 -0.0282,-5.005 0.8056,1.3891 3.9007,1.0366 3.4347,3.5618 -0.015,0.0814 -0.1458,0.3365 -0.0397,0.4434 -0.8782,-0.1109 -3.3245,0.3034 -3.3668,0.9998z"/>
    <path id="_66805352" fill="#99FF00" stroke="black" stroke-width="0.0762" d="M81.9975 102.188c0.1464,-0.1732 0.1666,-0.2346 0.178,-0.3374 -0.9107,-3.408 3.482,-3.9364 3.8966,-5.3881 2.2567,4.0825 0.0094,4.0012 -0.5068,5.1067 -0.2632,0.5638 -2.1545,0.8869 -3.5678,0.6188z"/>
   </g>
   <g id="loupe">
    <ellipse id="domatia" fill="white" stroke="black" stroke-width="0.0762" cx="80" cy="55.686" rx="11.147" ry="10.687"/>
    <path id="_77596888" fill="#99FF00" stroke="black" stroke-width="0.0762" d="M72.3981 63.5016c-1.9728,-1.862 -2.8456,-3.323 -3.4083,-6.1366 3.9624,-3.8591 10.3008,-5.8924 11.2138,-9.089 8.0888,14.6332 0.1884,14.0439 -1.6615,18.0064 -3.5976,-0.4992 -4.7425,-1.7145 -6.144,-2.7808z"/>
   </g>
   <g>
    <path id="_65790824" fill="#663333" fill-rule="nonzero" d="M67.9698 67.8971l0.678 0.1902 -0.309 1.1631 -0.2695 1.1369 -0.2283 1.1113 -0.1909 1.0848 -0.1533 1.0608 -0.1169 1.0372 -0.0814 1.0144 -0.0485 0.9924 -0.0154 0.9712 0.0167 0.9504 0.0476 0.9292 0.076 0.9114 0.1049 0.8929 0.1322 0.8738 0.1574 0.8581 0.1842 0.8419 0.207 0.8275 0.23 0.8114 0.2522 0.7985 0.2717 0.7851 0.2927 0.7737 0.3101 0.7617 0.329 0.7504 0.3441 0.7412 0.3607 0.7313 0.375 0.7236 0.3866 0.7151 0.4001 0.7074 0.4108 0.7017 0.422 0.6955 0.4293 0.6899 0.4381 0.6864 -0.5926 0.3804 -0.4409 -0.692 -0.4347 -0.6981 -0.4248 -0.7037 -0.4164 -0.7101 -0.4055 -0.7184 -0.395 -0.7261 -0.3804 -0.7346 -0.3663 -0.7451 -0.3523 -0.755 -0.3346 -0.767 -0.3183 -0.7781 -0.2983 -0.7903 -0.2799 -0.8045 -0.2576 -0.8177 -0.2356 -0.8334 -0.2126 -0.8469 -0.1868 -0.8639 -0.163 -0.8801 -0.135 -0.8986 -0.1075 -0.9149 -0.0788 -0.9336 -0.0476 -0.954 -0.0167 -0.9724 0.0154 -0.9932 0.0485 -1.0144 0.0842 -1.0366 0.1195 -1.0592 0.1561 -1.0828 0.1937 -1.107 0.2337 -1.1305 0.2723 -1.1561 0.3146 -1.1825zm1.0079 -2.2902l0.703 5.3167 -0.1098 -0.0972 -0.111 -0.0932 -0.1121 -0.0893 -0.1132 -0.0854 -0.1143 -0.0813 -0.1155 -0.0774 -0.1165 -0.0734 -0.1177 -0.0694 -0.1187 -0.0654 -0.1199 -0.0615 -0.121 -0.0575 -0.1222 -0.0535 -0.1232 -0.0496 -0.1243 -0.0456 -0.1255 -0.0416 -0.1266 -0.0376 -0.1277 -0.0337 -0.1288 -0.0297 -0.1299 -0.0257 -0.131 -0.0218 -0.1322 -0.0178 -0.1332 -0.0138 -0.1344 -0.0098 -0.1355 -0.0059 -0.1366 -0.0018 -0.1377 0.0021 -0.1388 0.006 -0.14 0.0101 -0.141 0.014 -0.1422 0.0179 -0.1433 0.022 -0.1444 0.0259 0 0 3.3652 -4.1758z"/>
   </g>
  </g>
  <g id="StpAsp_Hairy" onclick="parent.replacechar('StpAsp_Hairy')" onmousemove="parent.showtooltip('StpAsp_Hairy', 'Stipule hairy')" onmouseout="parent.hidetooltip('StpAsp_Hairy')" cursor="pointer" >
   <g id="_66495984">
    <path id="_76640280" fill="#BF9B76" stroke="#AAA9A9" stroke-width="0.0762" d="M38.7379 78.6792c2.8414,0 5.1456,0.7466 5.1456,1.6672 0,0.9206 -2.3042,1.6671 -5.1456,1.6671 -2.8413,0 -5.1455,-0.7465 -5.1455,-1.6671 0,-0.9206 2.3042,-1.6672 5.1455,-1.6672z"/>
    <path id="_77003792" fill="#BF9B76" stroke="#AAA9A9" stroke-width="0.0762" d="M33.5924 80.3487c-0.0926,11.435 0.0926,23.0662 0,34.5011 0.1383,2.0539 9.8958,2.3684 10.2911,0l-0.0135 -34.5009c-0.3226,2.233 -10.0704,2.2041 -10.2776,-0.0002z"/>
   </g>
   <g id="feuille_4">
    <path id="_76667136" fill="#E5E5E5" stroke="#838281" stroke-width="0.0762" d="M35.153 98.8192c-1.1372,1.3176 -18.634,8.9278 -19.9999,9.7893 -0.0931,0.5329 0.9467,0.7128 1.0234,0.4137l21.3308 -9.1723c-0.2058,-0.1723 -0.8457,-0.1113 -1.4893,-0.3482 -0.7157,-0.4792 -0.7483,-0.8146 -0.865,-0.6825z"/>
    <path id="_65713248" fill="#E5E5E5" stroke="#838281" stroke-width="0.0762" d="M27.2699 113.081c-2.9616,-3.4685 -8.8408,-4.4104 -11.0934,-4.0586l12.9964 -5.6133c3.664,1.3974 5.3347,7.7124 -1.903,9.6719z"/>
    <path id="_78659320" fill="#E5E5E5" stroke="#838281" stroke-width="0.0762" d="M29.7729 103.683c-0.2154,-0.1151 -0.3547,-0.1788 -0.6,-0.2745l8.3344 -3.559c-0.2602,2.0591 -5.6138,2.2874 -7.7344,3.8335z"/>
    <path id="_78612000" fill="#E5E5E5" stroke="#838281" stroke-width="0.0762" d="M35.7701 98.8619c0.0228,-0.0958 0.7366,-0.6767 0.9848,-0.6338 0.2571,0.1 0.5565,1.3002 0.1207,1.2519 -0.1085,-0.012 -0.5117,-0.0633 -0.6994,-0.168 -0.2265,-0.1261 -0.4207,-0.3886 -0.4061,-0.4501z"/>
    <path id="_78139000" fill="#E5E5E5" stroke="#838281" stroke-width="0.0762" d="M27.6626 102.78c-4.1685,1.9434 -8.3371,3.8868 -12.5058,5.8302 -0.727,-0.8703 -6.7187,-2.3491 -10.7245,-1.4072 6.9195,-3.1324 16.0325,-6.8284 23.2303,-4.423z"/>
    <path id="_66384120" fill="#E5E5E5" stroke="#838281" stroke-width="0.0762" d="M27.2699 113.081c-2.9662,-2.531 -8.0329,-3.9588 -11.3014,-3.0993 -0.0794,0.3796 -1.1298,-0.0905 -1.0201,-0.4296 -1.769,-1.3064 -3.4426,-2.8922 -10.8321,-2.2505 3.3009,-0.9611 9.5323,-0.2 11.0405,1.3087 -0.0755,0.3406 0.9424,0.7601 1.0197,0.4121 3.2318,-0.6339 9.231,1.4537 11.0934,4.0586z"/>
   </g>
   <g id="_67155464">
    <path id="_76966472" fill="#99FF00" stroke="black" stroke-width="0.0762" d="M33.5866 98.149c-0.0039,-1.259 -0.0091,-2.1068 -0.0121,-3.0714 -0.278,-0.318 -0.3482,-0.4733 -0.4493,-0.7305 -0.2284,0.667 0.1074,0.7435 -0.3211,1.3553 -0.0275,0.841 0.438,1.9137 0.7825,2.4466z"/>
    <path id="_67139720" fill="#99FF00" stroke="black" stroke-width="0.0762" d="M33.5934 100.335c0.1255,-0.0742 0.4135,-0.2438 0.483,-0.3253 0.8754,-0.7278 -1.2642,-1.9818 -1.2723,-4.3069 -2.2295,2.1509 1.2066,3.2481 0.7893,4.6322z"/>
    <path id="_77815976" fill="#99FF00" fill-opacity="0.501961" stroke="black" stroke-width="0.0762" stroke-linejoin="round" stroke-dasharray="0.762000 0.381000" stroke-opacity="0.501961" d="M33.5927 100.082c-0.0069,-2.0677 -0.0213,-2.9372 -0.0282,-5.005 0.8056,1.3891 3.9006,1.0366 3.4347,3.5618 -0.015,0.0815 -0.1458,0.3366 -0.0398,0.4434 -0.8781,-0.1109 -3.3244,0.3034 -3.3667,0.9998z"/>
    <path id="_78863424" fill="#99FF00" stroke="black" stroke-width="0.0762" d="M35.6486 100.607c0.1464,-0.1731 0.1666,-0.2346 0.178,-0.3374 -0.9107,-3.4079 3.482,-3.9364 3.8966,-5.388 2.2567,4.0825 0.0093,4.0012 -0.5068,5.1067 -0.2632,0.5637 -2.1545,0.8869 -3.5678,0.6187z"/>
   </g>
   <g id="loupe_5">
    <ellipse id="domatia_6" fill="white" stroke="black" stroke-width="0.0762" cx="32" cy="55.6856" rx="11.147" ry="10.687"/>
    <path id="_76583592" fill="#99FF00" stroke="black" stroke-width="0.0762" d="M24.3981 63.5012c-1.9728,-1.862 -2.8456,-3.323 -3.4083,-6.1366 3.9624,-3.8591 10.3008,-5.8924 11.2138,-9.089 8.0888,14.6332 0.1884,14.0439 -1.6615,18.0064 -3.5976,-0.4992 -4.7425,-1.7145 -6.144,-2.7808z"/>
    <g id="poils">
     <g id="poils_7">
      <path id="_77284336" fill="none" stroke="black" stroke-width="0.0762" d="M30.9658 50.2049c0.0038,-0.017 0.0076,-0.0353 0.0116,-0.0527 0.1335,-0.5926 0.3531,-1.1571 0.6375,-1.64"/>
      <path id="_78432544" fill="none" stroke="black" stroke-width="0.0762" d="M29.1846 51.6239c0.0038,-0.017 0.0077,-0.0353 0.0116,-0.0527 0.1335,-0.5926 0.3531,-1.1571 0.6375,-1.64"/>
      <path id="_66501520" fill="none" stroke="black" stroke-width="0.0762" d="M23.0159 55.8824c-0.0171,-0.0032 -0.0355,-0.0065 -0.053,-0.0098 -0.5966,-0.1145 -1.1679,-0.3159 -1.6596,-0.5847"/>
      <path id="_77171608" fill="none" stroke="black" stroke-width="0.0762" d="M24.5917 53.1186c0.0109,0.0135 0.0229,0.0279 0.0341,0.0417 0.3819,0.4724 0.6883,0.995 0.8905,1.5176"/>
      <path id="_77542832" fill="none" stroke="black" stroke-width="0.0762" d="M30.2329 48.4664c0.011,0.0136 0.0229,0.0279 0.0341,0.0418 0.3819,0.4724 0.6884,0.9949 0.8906,1.5176"/>
      <path id="_27683456" fill="none" stroke="black" stroke-width="0.0762" d="M27.4705 53.4875c-0.0108,-0.0136 -0.0227,-0.0281 -0.0338,-0.042 -0.3786,-0.4751 -0.6814,-0.9997 -0.8799,-1.5238"/>
      <path id="_78517296" fill="none" stroke="black" stroke-width="0.0762" d="M32.126 48.4977c-0.0108,-0.0136 -0.0227,-0.028 -0.0338,-0.042 -0.3786,-0.475 -0.6814,-0.9997 -0.8799,-1.5237"/>
      <path id="_66747992" fill="none" stroke="black" stroke-width="0.0762" d="M24.9496 52.7622c0.0154,0.0081 0.0321,0.0166 0.0479,0.0249 0.5376,0.2827 1.0259,0.6413 1.4184,1.0412"/>
      <path id="_77606680" fill="none" stroke="black" stroke-width="0.0762" d="M26.5987 52.3648c-0.0037,0.017 -0.0074,0.0353 -0.0112,0.0527 -0.1288,0.5937 -0.344,1.1599 -0.6246,1.645"/>
      <path id="_27684552" fill="none" stroke="black" stroke-width="0.0762" d="M31.6556 49.3881c-0.0109,-0.0136 -0.0227,-0.0281 -0.0338,-0.042 -0.3786,-0.4751 -0.6814,-0.9997 -0.88,-1.5238"/>
      <path id="_77453288" fill="none" stroke="black" stroke-width="0.0762" d="M27.1906 53.9523c-0.0108,-0.0136 -0.0227,-0.0281 -0.0338,-0.042 -0.3786,-0.4751 -0.6814,-0.9997 -0.8799,-1.5238"/>
      <path id="_66441488" fill="none" stroke="black" stroke-width="0.0762" d="M24.7328 54.8046c-0.0108,-0.0136 -0.0227,-0.0281 -0.0338,-0.042 -0.3786,-0.4751 -0.6814,-0.9997 -0.8799,-1.5238"/>
      <path id="_65721640" fill="none" stroke="black" stroke-width="0.0762" d="M23.2141 55.8094c-0.0108,-0.0136 -0.0227,-0.0281 -0.0338,-0.042 -0.3786,-0.4751 -0.6814,-0.9997 -0.8799,-1.5238"/>
      <path id="_67139624" fill="none" stroke="black" stroke-width="0.0762" d="M23.1776 55.6059c0.0055,-0.0165 0.0112,-0.0343 0.0168,-0.0512 0.193,-0.576 0.4688,-1.1154 0.8008,-1.5668"/>
      <path id="_66423480" fill="none" stroke="black" stroke-width="0.0762" d="M28.557 52.0577c0.0055,-0.0164 0.0112,-0.0343 0.0169,-0.0512 0.193,-0.576 0.4688,-1.1153 0.8008,-1.5668"/>
      <path id="_67135272" fill="none" stroke="black" stroke-width="0.0762" d="M25.3112 54.1787c0.0055,-0.0165 0.0112,-0.0343 0.0169,-0.0512 0.193,-0.576 0.4688,-1.1153 0.8007,-1.5668"/>
      <path id="_78610880" fill="none" stroke="black" stroke-width="0.0762" d="M27.651 50.8124c0.0154,0.008 0.0321,0.0165 0.0479,0.0248 0.5377,0.2827 1.0259,0.6413 1.4184,1.0412"/>
      <path id="_78079664" fill="none" stroke="black" stroke-width="0.0762" d="M29.6662 49.0282c0.0154,0.0081 0.0321,0.0165 0.0478,0.0248 0.5377,0.2827 1.026,0.6413 1.4185,1.0413"/>
      <path id="_76866016" fill="none" stroke="black" stroke-width="0.0762" d="M26.7749 51.7601c0.0154,0.0081 0.0321,0.0166 0.0479,0.0248 0.5376,0.2828 1.0259,0.6413 1.4184,1.0413"/>
      <path id="_67092904" fill="none" stroke="black" stroke-width="0.0762" d="M25.1299 54.5948c-0.017,-0.0032 -0.0354,-0.0065 -0.0529,-0.0098 -0.5966,-0.1145 -1.1679,-0.3159 -1.6596,-0.5847"/>
      <path id="_78143160" fill="none" stroke="black" stroke-width="0.0762" d="M23.9785 55.2509c-0.0108,-0.0135 -0.0227,-0.028 -0.0338,-0.0419 -0.3786,-0.4751 -0.6814,-0.9998 -0.8799,-1.5238"/>
      <path id="_76527536" fill="none" stroke="black" stroke-width="0.0762" d="M22.5383 56.4166c-0.0108,-0.0136 -0.0227,-0.028 -0.0338,-0.042 -0.3786,-0.475 -0.6814,-0.9997 -0.8799,-1.5237"/>
      <path id="_78256328" fill="none" stroke="black" stroke-width="0.0762" d="M28.663 50.1675c0.017,0.0032 0.0355,0.0066 0.053,0.0101 0.5959,0.1174 1.1662,0.3217 1.6566,0.593"/>
      <path id="_66518576" fill="none" stroke="black" stroke-width="0.0762" d="M24.0524 53.4204c0.017,0.0033 0.0353,0.0067 0.0528,0.01 0.596,0.1176 1.1663,0.3219 1.6566,0.5932"/>
      <path id="_77341168" fill="none" stroke="black" stroke-width="0.0762" d="M21.3993 57.0577c0.0055,-0.0165 0.0112,-0.0343 0.0169,-0.0512 0.193,-0.576 0.4688,-1.1153 0.8008,-1.5668"/>
      <path id="_76474016" fill="none" stroke="black" stroke-width="0.0762" d="M24.3342 54.9967c0.0055,-0.0165 0.0112,-0.0343 0.0168,-0.0512 0.193,-0.576 0.4688,-1.1153 0.8008,-1.5668"/>
      <path id="_77054848" fill="none" stroke="black" stroke-width="0.0762" d="M30.3246 50.7221c0.0055,-0.0165 0.0112,-0.0343 0.0168,-0.0512 0.193,-0.576 0.4688,-1.1153 0.8008,-1.5668"/>
      <path id="_78031240" fill="none" stroke="black" stroke-width="0.0762" d="M27.2948 52.9031c0.0055,-0.0165 0.0112,-0.0343 0.0169,-0.0512 0.193,-0.576 0.4688,-1.1153 0.8008,-1.5668"/>
     </g>
     <path id="_76602928" fill="none" stroke="black" stroke-width="0.0762" d="M35.3284 57.5597c0.0098,0.0143 0.0207,0.0296 0.0308,0.0442 0.3452,0.4999 0.6114,1.044 0.7737,1.5804"/>
     <path id="_66527232" fill="none" stroke="black" stroke-width="0.0762" d="M35.547 56.1938c0.016,0.0068 0.0333,0.0139 0.0497,0.0209 0.5588,0.2382 1.0745,0.5559 1.4982,0.9227"/>
     <path id="_77254704" fill="none" stroke="black" stroke-width="0.0762" d="M32.5307 49.3114c0.0062,-0.0162 0.0128,-0.0337 0.0192,-0.0503 0.2202,-0.5662 0.5213,-1.0918 0.8743,-1.527"/>
     <path id="_76487944" fill="none" stroke="black" stroke-width="0.0762" d="M34.9652 51.3596c-0.0153,0.0083 -0.0316,0.0175 -0.0472,0.026 -0.5335,0.2905 -1.1027,0.4977 -1.6533,0.6024"/>
     <path id="_76748208" fill="none" stroke="black" stroke-width="0.0762" d="M37.1032 58.1993c-0.0173,-0.0011 -0.036,-0.002 -0.0538,-0.0032 -0.6062,-0.0394 -1.1981,-0.1683 -1.7194,-0.3739"/>
     <path id="_76507008" fill="none" stroke="black" stroke-width="0.0762" d="M34.0834 54.1248c0.0153,-0.0082 0.0317,-0.0173 0.0474,-0.0257 0.5355,-0.2868 1.1061,-0.49 1.6574,-0.5908"/>
     <path id="_65830328" fill="none" stroke="black" stroke-width="0.0762" d="M35.3468 59.5728c0.0173,0.0013 0.036,0.0024 0.0537,0.0036 0.6059,0.0437 1.1969,0.1767 1.7168,0.386"/>
     <path id="_77495520" fill="none" stroke="black" stroke-width="0.0762" d="M35.2512 51.7759c-0.0107,0.0137 -0.0221,0.0286 -0.0331,0.0426 -0.375,0.4779 -0.8157,0.8935 -1.2799,1.2075"/>
     <path id="_66782864" fill="none" stroke="black" stroke-width="0.0762" d="M35.3448 53.4696c-0.016,-0.0067 -0.0334,-0.0137 -0.0498,-0.0205 -0.5607,-0.2337 -1.0789,-0.5475 -1.5054,-0.9109"/>
     <path id="_67104224" fill="none" stroke="black" stroke-width="0.0762" d="M35.4613 58.6205c0.0173,0.0013 0.036,0.0024 0.0538,0.0036 0.6059,0.0437 1.1969,0.1767 1.7167,0.386"/>
     <path id="_76429072" fill="none" stroke="black" stroke-width="0.0762" d="M33.6766 53.7657c0.0153,-0.0082 0.0317,-0.0173 0.0474,-0.0257 0.5355,-0.2867 1.1062,-0.49 1.6574,-0.5908"/>
     <path id="_77289664" fill="none" stroke="black" stroke-width="0.0762" d="M33.2814 51.1945c0.0153,-0.0082 0.0317,-0.0173 0.0474,-0.0257 0.5355,-0.2867 1.1061,-0.49 1.6574,-0.5908"/>
     <path id="_76955088" fill="none" stroke="black" stroke-width="0.0762" d="M32.5668 49.5195c0.0153,-0.0082 0.0317,-0.0172 0.0474,-0.0256 0.5355,-0.2868 1.1062,-0.49 1.6574,-0.5908"/>
     <path id="_77228920" fill="none" stroke="black" stroke-width="0.0762" d="M32.7736 49.5203c0.0152,0.0084 0.0317,0.0172 0.0473,0.0258 0.5318,0.2937 1.0125,0.6622 1.3968,1.0701"/>
     <path id="_77730456" fill="none" stroke="black" stroke-width="0.0762" d="M35.2938 55.4512c0.0152,0.0084 0.0317,0.0172 0.0473,0.0258 0.5318,0.2937 1.0126,0.6622 1.3968,1.0701"/>
     <path id="_77825776" fill="none" stroke="black" stroke-width="0.0762" d="M33.7927 51.8762c0.0152,0.0084 0.0317,0.0172 0.0473,0.0259 0.5318,0.2936 1.0126,0.6621 1.3968,1.0701"/>
     <path id="_66039352" fill="none" stroke="black" stroke-width="0.0762" d="M36.6821 54.7846c-0.0107,0.0137 -0.022,0.0286 -0.033,0.0426 -0.3751,0.4779 -0.8158,0.8935 -1.2799,1.2075"/>
     <path id="_77448912" fill="none" stroke="black" stroke-width="0.0762" d="M37.0744 57.4019c-0.0164,0.0058 -0.0339,0.0123 -0.0507,0.0183 -0.5723,0.2037 -1.1669,0.3196 -1.727,0.3371"/>
     <path id="_66254648" fill="none" stroke="black" stroke-width="0.0762" d="M35.9078 53.752c-0.0107,0.0137 -0.022,0.0285 -0.033,0.0426 -0.375,0.4779 -0.8158,0.8935 -1.2799,1.2074"/>
     <path id="_76627792" fill="none" stroke="black" stroke-width="0.0762" d="M33.4161 51.6229c0.0063,-0.0162 0.0128,-0.0337 0.0193,-0.0503 0.2201,-0.5662 0.5212,-1.0918 0.8742,-1.527"/>
     <path id="_77176688" fill="none" stroke="black" stroke-width="0.0762" d="M32.9783 50.3721c0.0153,-0.0082 0.0317,-0.0173 0.0474,-0.0257 0.5355,-0.2867 1.1062,-0.49 1.6574,-0.5908"/>
     <path id="_76750256" fill="none" stroke="black" stroke-width="0.0762" d="M32.0913 48.7453c0.0154,-0.0082 0.0317,-0.0173 0.0474,-0.0257 0.5356,-0.2867 1.1062,-0.49 1.6575,-0.5908"/>
     <path id="_66015072" fill="none" stroke="black" stroke-width="0.0762" d="M36.9168 55.8921c-0.0139,0.0103 -0.0289,0.0215 -0.0434,0.0321 -0.4902,0.3585 -1.027,0.6393 -1.5589,0.8159"/>
     <path id="_66899232" fill="none" stroke="black" stroke-width="0.0762" d="M34.7655 50.7748c-0.0063,0.016 -0.0129,0.0335 -0.0194,0.0501 -0.223,0.5651 -0.5268,1.0892 -0.8821,1.5225"/>
     <path id="_76609016" fill="none" stroke="black" stroke-width="0.0762" d="M33.1643 50.7677c0.0152,0.0084 0.0317,0.0172 0.0473,0.0259 0.5317,0.2936 1.0125,0.6621 1.3967,1.0701"/>
     <path id="_76888720" fill="none" stroke="black" stroke-width="0.0762" d="M35.3827 56.7377c0.0084,0.0152 0.0177,0.0315 0.0262,0.0471 0.2927,0.5323 0.5023,1.1007 0.6092,1.6508"/>
     <path id="_76544184" fill="none" stroke="black" stroke-width="0.0762" d="M34.6898 54.0573c0.0152,0.0084 0.0318,0.0172 0.0473,0.0258 0.5318,0.2937 1.0126,0.6622 1.3968,1.0701"/>
     <path id="_66500040" fill="none" stroke="black" stroke-width="0.0762" d="M35.4706 60.2973c0.001,0.0173 0.0022,0.036 0.0032,0.0538 0.0327,0.6066 -0.0252,1.2095 -0.1676,1.7516"/>
     <path id="_78552176" fill="none" stroke="black" stroke-width="0.0762" d="M36.52 61.728c-0.0141,-0.0101 -0.0296,-0.0207 -0.0441,-0.031 -0.496,-0.3507 -0.933,-0.7702 -1.2697,-1.2182"/>
     <path id="_76949224" fill="none" stroke="black" stroke-width="0.0762" d="M34.6935 61.7c0.0141,0.0101 0.0295,0.0208 0.0439,0.0312 0.4935,0.3542 0.9276,0.7768 1.2611,1.2271"/>
     <path id="_65713080" fill="none" stroke="black" stroke-width="0.0762" d="M35.0335 61.1006c0.0141,0.0101 0.0294,0.0208 0.0439,0.0312 0.4935,0.3542 0.9275,0.7768 1.2611,1.2271"/>
     <path id="_78536592" fill="none" stroke="black" stroke-width="0.0762" d="M36.9244 60.9639c-0.017,-0.0036 -0.0353,-0.0072 -0.0528,-0.0109 -0.5942,-0.1259 -1.1616,-0.3382 -1.6481,-0.6164"/>
     <path id="_65728176" fill="none" stroke="black" stroke-width="0.0762" d="M37.309 59.2773c-0.0173,0.0016 -0.036,0.0033 -0.0538,0.0047 -0.6054,0.049 -1.2097,0.0075 -1.7554,-0.1203"/>
     <path id="_77823808" fill="none" stroke="black" stroke-width="0.0762" d="M35.7263 59.5609c-0.0008,0.0173 -0.0014,0.036 -0.0023,0.0538 -0.0291,0.6068 -0.1478,1.2008 -0.3446,1.7255"/>
     <path id="_78861552" fill="none" stroke="black" stroke-width="0.0762" d="M33.8167 62.3399c-0.0058,0.0164 -0.0117,0.0342 -0.0175,0.051 -0.2,0.5736 -0.4823,1.1096 -0.8197,1.557"/>
     <path id="_65739688" fill="none" stroke="black" stroke-width="0.0762" d="M34.3473 64.1503c-0.0094,-0.0146 -0.0196,-0.0303 -0.0292,-0.0453 -0.3257,-0.5127 -0.5709,-1.0667 -0.7124,-1.6089"/>
     <path id="_76734152" fill="none" stroke="black" stroke-width="0.0762" d="M32.47 63.9042c0.0092,0.0147 0.0194,0.0305 0.0288,0.0456 0.3222,0.515 0.5634,1.0706 0.7011,1.6138"/>
     <path id="_27631480" fill="none" stroke="black" stroke-width="0.0762" d="M33.0385 63.0731c0.0092,0.0147 0.0194,0.0304 0.0288,0.0455 0.3222,0.515 0.5635,1.0707 0.7012,1.6139"/>
     <path id="_76445408" fill="none" stroke="black" stroke-width="0.0762" d="M34.9741 63.6566c-0.0143,-0.0098 -0.0299,-0.0201 -0.0447,-0.0301 -0.502,-0.342 -0.9464,-0.7537 -1.2909,-1.1956"/>
     <path id="_76949160" fill="none" stroke="black" stroke-width="0.0762" d="M36.1003 62.6387c-0.0166,-0.0052 -0.0345,-0.0106 -0.0515,-0.0161 -0.5787,-0.1843 -1.1221,-0.4521 -1.5785,-0.7774"/>
     <path id="_66413296" fill="none" stroke="black" stroke-width="0.0762" d="M34.5125 61.8989c-0.0074,0.0157 -0.0151,0.0328 -0.0226,0.0489 -0.2572,0.5504 -0.5925,1.0549 -0.9736,1.4657"/>
     <path id="_67227216" fill="none" stroke="black" stroke-width="0.0762" d="M31.6008 64.4305c-0.0044,0.0168 -0.0088,0.035 -0.0133,0.0523 -0.1523,0.588 -0.3897,1.1453 -0.6893,1.6189"/>
     <path id="_77781136" fill="none" stroke="black" stroke-width="0.0762" d="M32.4167 65.9197c-0.0105,-0.0138 -0.022,-0.0286 -0.0328,-0.0428 -0.3667,-0.4843 -0.6564,-1.0163 -0.8418,-1.5451"/>
     <path id="_78184376" fill="none" stroke="black" stroke-width="0.0762" d="M33.001 65.3763c-0.0151,-0.0085 -0.0315,-0.0175 -0.0471,-0.0263 -0.5283,-0.2997 -1.0049,-0.6736 -1.3845,-1.0859"/>
     <path id="_78564072" fill="none" stroke="black" stroke-width="0.0762" d="M34.04 64.2695c-0.017,-0.0037 -0.0353,-0.0077 -0.0527,-0.0118 -0.5919,-0.1363 -1.1554,-0.3586 -1.6369,-0.6454"/>
     <path id="_76628280" fill="none" stroke="black" stroke-width="0.0762" d="M32.3969 63.6623c-0.0061,0.0163 -0.0123,0.0339 -0.0185,0.0506 -0.2112,0.5696 -0.5041,1.0999 -0.8502,1.5406"/>
    </g>
   </g>
   <g>
    <path fill="#663333" fill-rule="nonzero" d="M19.9698 67.8971l0.678 0.1902 -0.309 1.1631 -0.2695 1.1369 -0.2283 1.1113 -0.1909 1.0848 -0.1533 1.0608 -0.1169 1.0372 -0.0814 1.0144 -0.0485 0.9924 -0.0154 0.9712 0.0167 0.9504 0.0476 0.9292 0.076 0.9114 0.1049 0.8929 0.1322 0.8738 0.1574 0.8581 0.1842 0.8419 0.207 0.8275 0.23 0.8114 0.2522 0.7985 0.2717 0.7851 0.2927 0.7737 0.3101 0.7617 0.329 0.7504 0.3441 0.7412 0.3607 0.7313 0.375 0.7236 0.3866 0.7151 0.4001 0.7074 0.4108 0.7017 0.422 0.6955 0.4293 0.6899 0.4381 0.6864 -0.5926 0.3804 -0.4409 -0.692 -0.4347 -0.6981 -0.4248 -0.7037 -0.4164 -0.7101 -0.4055 -0.7184 -0.395 -0.7261 -0.3804 -0.7346 -0.3663 -0.7451 -0.3523 -0.755 -0.3346 -0.767 -0.3183 -0.7781 -0.2983 -0.7903 -0.2799 -0.8045 -0.2576 -0.8177 -0.2356 -0.8334 -0.2126 -0.8469 -0.1868 -0.8639 -0.163 -0.8801 -0.135 -0.8986 -0.1075 -0.9149 -0.0788 -0.9336 -0.0476 -0.954 -0.0167 -0.9724 0.0154 -0.9932 0.0485 -1.0144 0.0842 -1.0366 0.1195 -1.0592 0.1561 -1.0828 0.1937 -1.107 0.2337 -1.1305 0.2723 -1.1561 0.3146 -1.1825zm1.0079 -2.2902l0.703 5.3167 -0.1098 -0.0972 -0.111 -0.0932 -0.1121 -0.0893 -0.1132 -0.0854 -0.1143 -0.0813 -0.1155 -0.0774 -0.1165 -0.0734 -0.1177 -0.0694 -0.1187 -0.0654 -0.1199 -0.0615 -0.121 -0.0575 -0.1222 -0.0535 -0.1232 -0.0496 -0.1243 -0.0456 -0.1255 -0.0416 -0.1266 -0.0376 -0.1277 -0.0337 -0.1288 -0.0297 -0.1299 -0.0257 -0.131 -0.0218 -0.1322 -0.0178 -0.1332 -0.0138 -0.1344 -0.0098 -0.1355 -0.0059 -0.1366 -0.0018 -0.1377 0.0021 -0.1388 0.006 -0.14 0.0101 -0.141 0.014 -0.1422 0.0179 -0.1433 0.022 -0.1444 0.0259 0 0 3.3652 -4.1758z"/>
   </g>
  </g>
 </g>
<image xlink:href="tick.gif" id="imgtick" x="-100" y="-100" width="15" height="15"/>
<rect id="recttooltip" x="-100" y="-100" width="55" height="6" fill-opacity="0.4" pointer-events="none"/>
<text id="textboxid" x="-100" y="-100" pointer-events="none"> </text>
</a></svg>
