<?xml version="1.0" encoding="UTF-8"?>
<!DOCTYPE svg PUBLIC "-//W3C//DTD SVG 1.1//EN" "http://www.w3.org/Graphics/SVG/1.1/DTD/svg11.dtd">
<!-- Creator: CorelDRAW -->
<svg xmlns="http://www.w3.org/2000/svg" xml:space="preserve" shape-rendering="geometricPrecision" text-rendering="geometricPrecision" image-rendering="optimizeQuality" fill-rule="evenodd" clip-rule="evenodd"
viewBox="0 0 240 180"
 xmlns:xlink="http://www.w3.org/1999/xlink">
<a>
 <defs>
     <clipPath id="id0">
      <path d="M120.853 7.5328c4.7288,0 8.5644,0.8523 8.5644,1.9033 0,1.0507 -3.8356,1.903 -8.5644,1.903 -4.7296,0 -8.5649,-0.8523 -8.5649,-1.903 0,-1.051 3.8353,-1.9033 8.5649,-1.9033z"/>
     </clipPath>
     <clipPath id="id1">
      <path d="M112.288 9.4387c-0.1543,13.0533 0.1544,26.331 0,39.3844 0.2302,2.3448 16.4717,2.704 17.1293,0l-0.0227 -39.3843c-0.5371,2.5491 -16.762,2.5159 -17.1066,-0.0001z"/>
     </clipPath>
     <clipPath id="id2">
      <path d="M129.395 9.5742l-0.0001 -0.1354c-0.0867,0.4115 -0.5841,0.7554 -1.3558,1.0327 0.7656,-0.2618 1.2495,-0.568 1.3559,-0.8973zm-6.3333 1.7009c-0.9647,0.0551 -1.9697,0.0738 -2.9613,0.0566 0.2481,0.0048 0.4991,0.0074 0.7528,0.0074 0.7636,0 1.5038,-0.0222 2.2085,-0.064zm-10.4329 -1.3065c-0.1951,-0.1622 -0.3139,-0.3384 -0.3403,-0.5291 0.0015,0.1836 0.1204,0.3611 0.3403,0.5291z"/>
     </clipPath>
 </defs>
 <g id="Plan_x0020_1">
  <metadata id="CorelCorpID_0Corel-Layer"/>
  <rect fill="none" x="-0.0001" y="-0.0001" width="240" height="180"/>
  <g id="StpPos_Inter" onclick="parent.replacechar('StpPos_Inter')" onmousemove="parent.showtooltip('StpPos_Inter', 'Stipule interpetiolar')" onmouseout="parent.hidetooltip('StpPos_Inter')" cursor="pointer" >
   <g id="feuille_2">
    <path id="_76602928" fill="#E5E5E5" stroke="#7F7F7F" stroke-width="0.0762" d="M127.209 151.064c1.8978,-2.3749 28.2033,-11.1757 30.5978,-12.3966 -0.2448,0.7343 -2.1813,0.0936 -1.9711,-0.6288l-31.4867 11.3082c0.2168,0.1945 0.7762,0.2391 1.8071,0.7293 1.1137,0.9028 0.6032,0.7567 1.0529,0.9879z"/>
    <path id="_76487944" fill="#E5E5E5" stroke="#7F7F7F" stroke-width="0.0762" d="M145.323 134.528c8.0467,0.6963 10.3643,3.5363 10.496,3.5148 -7.2692,2.5704 -10.5867,3.9066 -17.9489,6.4473 -5.8614,-2.8719 -4.8412,-7.8116 7.4529,-9.9621z"/>
    <path id="_77495520" fill="#E5E5E5" stroke="#7F7F7F" stroke-width="0.0762" d="M140.577 145.646c-0.9106,-0.339 0.0479,0.0106 -0.6957,-0.2972 -4.7413,1.7716 -11.2187,4.0886 -12.6724,5.7145 0,-0.0001 -0.2098,0.6895 -0.3855,0.9615 1.7292,-1.3563 10.2954,-5.4625 13.7536,-6.3788z"/>
    <path id="_76429072" fill="#E5E5E5" stroke="#7F7F7F" stroke-width="0.0762" d="M139.881 145.349c7.2064,-2.588 10.7191,-4.094 17.9254,-6.6821 5.1086,0.0895 11.9795,2.6127 13.8149,5.5555 -12.6012,2.7791 -20.1741,6.2053 -31.7403,1.1266z"/>
   </g>
   <g>
    <path id="_66039352" fill="#BF9B76" stroke="#AAA9A9" stroke-width="0.0762" d="M120.853 124.837c4.7287,0 8.5643,0.8523 8.5643,1.9032 0,1.0507 -3.8356,1.903 -8.5643,1.903 -4.7296,0 -8.565,-0.8523 -8.565,-1.903 0,-1.0509 3.8354,-1.9032 8.565,-1.9032z"/>
    <path id="_76627792" fill="#BF9B76" stroke="#AAA9A9" stroke-width="0.0762" d="M112.288 126.743c-0.1542,13.0531 0.1544,26.3307 0,39.3839 0.2302,2.3448 16.4717,2.704 17.1293,0l-0.0226 -39.3839c-0.5371,2.5491 -16.762,2.5159 -17.1067,0z"/>
   </g>
   <path id="_76609016" fill="#99FF00" stroke="black" stroke-width="0.0762" d="M117.536 155.685c0.2183,-1.7841 1.7485,-3.9471 3.104,-5.1419 1.5792,-1.4822 3.6172,-5.7507 3.7425,-7.3372 0.1663,-2.1038 -0.162,0.8212 1.4966,2.3044 1.6674,1.2768 4.1692,2.4783 4.1959,5.9368 -0.1035,3.2705 -0.2756,2.8404 -0.6644,3.4658 -2.9174,2.9492 -10.8569,2.1117 -12.5759,2.0315 0.3513,-0.3946 0.6365,-0.6581 0.7013,-1.2594z"/>
   <path id="_76949224" fill="#99FF00" fill-opacity="0.501961" stroke="black" stroke-width="0.0762" stroke-dasharray="0.762000 0.228600" stroke-opacity="0.501961" d="M112.29 145.455c1.7853,-0.9521 3.6597,-3.1202 4.8927,-4.5998 1.345,2.1791 2.5331,2.3562 3.9531,3.3514 1.1836,0.8009 3.7846,3.5391 3.2129,5.14 -0.8342,0.5003 -0.9221,0.4668 -1.1039,1.2205 -3.0563,-0.1793 -6.6663,1.3012 -8.9256,2.105 0.1248,-1.2628 -1.4202,-3.4701 -2.0188,-4.5999 -0.0043,-1.149 -0.0172,-0.9112 -0.0104,-2.6172z"/>
   <path id="_65739688" fill="#99FF00" fill-opacity="0.360784" stroke="black" stroke-width="0.0762" stroke-dasharray="0.762000 0.228600" stroke-opacity="0.360784" d="M125.708 145.344c0.6723,2.056 1.3428,3.3682 1.5008,5.72 -0.153,0.4594 -0.2429,0.7261 -0.3855,0.9615 -0.0826,0.1609 2.5862,0.5212 2.5872,2.8878 0.8475,-1.3446 0.649,-4.0685 0.5527,-4.6217 -0.4261,-2.4465 -2.4221,-3.5694 -4.2552,-4.9476z"/>
   <path id="_76949160" fill="#99FF00" stroke="black" stroke-width="0.0762" d="M111.595 146.029c0.3292,-0.5158 0.2201,-0.2342 0.6945,-0.5737 -0.0004,1.3438 -0.0009,1.2707 0.0064,2.6087 -0.3895,-0.8504 -0.4992,-1.2043 -0.7009,-2.035z"/>
   <path id="_77781136" fill="#99FF00" stroke="black" stroke-width="0.0762" d="M111.935 155.555c1.716,-0.9249 2.01,-1.264 2.1346,-1.3878 1.112,-3.3124 -1.5837,-4.2095 -2.4744,-8.1391 -2.5513,5.3471 -1.0124,6.9411 0.3398,9.5269z"/>
   <g id="feuille">
    <path id="_77197704" fill="#E5E5E5" stroke="#7F7F7F" stroke-width="0.0762" d="M114.07 154.168c-1.6742,1.9399 -27.4323,13.1432 -29.4431,14.4115 -0.1371,0.7845 1.3936,1.0493 1.5066,0.6091l31.4024 -13.5032c-0.303,-0.2535 -1.2449,-0.1638 -2.1924,-0.5126 -1.0537,-0.7054 -1.1017,-1.1992 -1.2735,-1.0048z"/>
    <path id="_66397664" fill="#E5E5E5" stroke="#7F7F7F" stroke-width="0.0762" d="M102.465 175.163c-4.36,-5.1062 -13.0151,-6.4929 -16.3313,-5.9749l19.1328 -8.2638c5.394,2.0572 7.8536,11.354 -2.8015,14.2387z"/>
    <path id="_77728536" fill="#E5E5E5" stroke="#7F7F7F" stroke-width="0.0762" d="M106.15 161.328c-0.3173,-0.1694 -0.5224,-0.2631 -0.8835,-0.4041l12.2696 -5.2394c-0.3831,3.0313 -8.2644,3.3675 -11.3861,5.6435z"/>
    <path id="_76711784" fill="#E5E5E5" stroke="#7F7F7F" stroke-width="0.0762" d="M114.978 154.231c0.0335,-0.141 1.0845,-0.9962 1.4498,-0.933 0.3785,0.1472 0.8192,1.9141 0.1777,1.843 -0.1598,-0.0177 -0.7533,-0.0933 -1.0297,-0.2472 -0.3335,-0.1859 -0.6192,-0.5722 -0.5978,-0.6628z"/>
    <path id="_78502720" fill="#E5E5E5" stroke="#7F7F7F" stroke-width="0.0762" d="M103.043 159.999c-6.1369,2.8609 -12.2738,5.7219 -18.4108,8.5829 -1.0701,-1.2813 -9.891,-3.4582 -15.7881,-2.0716 10.1865,-4.6115 23.6024,-10.0526 34.1989,-6.5113z"/>
    <path id="_76445608" fill="#E5E5E5" stroke="#7F7F7F" stroke-width="0.0762" d="M102.465 175.163c-4.3667,-3.7259 -11.8258,-5.828 -16.6375,-4.5628 -0.1168,0.559 -1.6631,-0.1331 -1.5017,-0.6323 -2.6044,-1.9232 -5.0681,-4.2577 -15.9466,-3.3131 4.8593,-1.415 14.0331,-0.2945 16.2533,1.9266 -0.1112,0.5014 1.3874,1.1189 1.5012,0.6067 4.7576,-0.9333 13.5896,2.14 16.3313,5.9749z"/>
   </g>
   <path id="_65729960" fill="#99FF00" fill-opacity="0.501961" stroke="black" stroke-width="0.0762" stroke-dasharray="0.762000 0.228600" stroke-opacity="0.501961" d="M111.935 155.555c1.8538,-0.9962 2.1347,-1.3878 2.1347,-1.3878 -0.2775,0.9343 -0.413,1.5176 -0.3833,2.2636 -0.7646,0.0436 -1.4925,-0.4843 -1.7514,-0.8758z"/>
  </g>
  <g id="StpPos_Intra" onclick="parent.replacechar('StpPos_Intra')" onmousemove="parent.showtooltip('StpPos_Intra', 'Stipule intrapetiolar')" onmouseout="parent.hidetooltip('StpPos_Intra')" cursor="pointer" >
   <g id="feuille_2_0">
    <path id="_66730136" fill="#E5E5E5" stroke="#7F7F7F" stroke-width="0.0762" d="M127.209 91.0636c1.8978,-2.3749 28.2033,-11.1757 30.5978,-12.3966 -0.2448,0.7343 -2.1813,0.0936 -1.9711,-0.6288l-31.4867 11.3082c0.2168,0.1945 0.7762,0.2391 1.8071,0.7293 1.1137,0.9028 0.6032,0.7567 1.0529,0.9879z"/>
    <path id="_76646808" fill="#E5E5E5" stroke="#7F7F7F" stroke-width="0.0762" d="M145.323 74.5282c8.0467,0.6963 10.3643,3.5363 10.496,3.5148 -7.2692,2.5704 -10.5867,3.9066 -17.9489,6.4473 -5.8614,-2.8719 -4.8412,-7.8116 7.4529,-9.9621z"/>
    <path id="_77606112" fill="#E5E5E5" stroke="#7F7F7F" stroke-width="0.0762" d="M140.577 85.6463c-0.9106,-0.339 0.0479,0.0106 -0.6957,-0.2972 -4.7413,1.7716 -11.2187,4.0886 -12.6724,5.7145 0,-0.0001 -0.2098,0.6895 -0.3855,0.9615 1.7292,-1.3563 10.2954,-5.4625 13.7536,-6.3788z"/>
    <path id="_65728280" fill="#E5E5E5" stroke="#7F7F7F" stroke-width="0.0762" d="M139.881 85.3491c7.2064,-2.588 10.7191,-4.094 17.9254,-6.6821 5.1086,0.0895 11.9795,2.6127 13.8149,5.5555 -12.6012,2.7791 -20.1741,6.2053 -31.7403,1.1266z"/>
   </g>
   <g>
    <path id="_27685624" fill="#BF9B76" stroke="#AAA9A9" stroke-width="0.0762" d="M120.853 64.8368c4.7287,0 8.5643,0.8523 8.5643,1.9032 0,1.0507 -3.8356,1.903 -8.5643,1.903 -4.7296,0 -8.565,-0.8523 -8.565,-1.903 0,-1.0509 3.8354,-1.9032 8.565,-1.9032z"/>
    <path id="_78213104" fill="#BF9B76" stroke="#AAA9A9" stroke-width="0.0762" d="M112.288 66.7427c-0.1542,13.0531 0.1544,26.3307 0,39.3839 0.2302,2.3448 16.4717,2.704 17.1293,0l-0.0226 -39.3839c-0.5371,2.5491 -16.762,2.5159 -17.1067,0z"/>
   </g>
   <path id="_66787152" fill="#99FF00" stroke="black" stroke-width="0.0762" d="M112.428 94.1263c0.303,-2.4772 -0.7546,-12.1103 -0.11,-14.8302 0.6899,-4.7983 1.6633,-4.2721 2.2792,-6.4749 2.8325,6.3489 14.7522,7.7721 14.8098,15.2648 -0.1437,4.541 0.5424,3.388 0.0025,4.2563 -2.1363,0.9631 -17.3666,5.3565 -16.9815,1.784z"/>
   <g id="feuille_1">
    <path id="_45415376" fill="#E5E5E5" stroke="#7F7F7F" stroke-width="0.0762" d="M114.07 94.1676c-1.6742,1.9399 -27.4323,13.1432 -29.4431,14.4115 -0.1371,0.7845 1.3936,1.0493 1.5066,0.6091l31.4024 -13.5032c-0.303,-0.2535 -1.2449,-0.1638 -2.1924,-0.5126 -1.0537,-0.7054 -1.1017,-1.1992 -1.2735,-1.0048z"/>
    <path id="_76643432" fill="#E5E5E5" stroke="#7F7F7F" stroke-width="0.0762" d="M102.465 115.163c-4.36,-5.1062 -13.0151,-6.4929 -16.3313,-5.9749l19.1328 -8.2638c5.394,2.0572 7.8536,11.354 -2.8015,14.2387z"/>
    <path id="_78025120" fill="#E5E5E5" stroke="#7F7F7F" stroke-width="0.0762" d="M106.15 101.329c-0.3173,-0.1694 -0.5224,-0.2631 -0.8835,-0.4041l12.2696 -5.2394c-0.3831,3.0313 -8.2644,3.3675 -11.3861,5.6435z"/>
    <path id="_77500672" fill="#E5E5E5" stroke="#7F7F7F" stroke-width="0.0762" d="M114.978 94.2305c0.0335,-0.141 1.0845,-0.9962 1.4498,-0.933 0.3785,0.1472 0.8192,1.9141 0.1777,1.843 -0.1598,-0.0177 -0.7533,-0.0933 -1.0297,-0.2472 -0.3335,-0.1859 -0.6192,-0.5722 -0.5978,-0.6628z"/>
    <path id="_77065496" fill="#E5E5E5" stroke="#7F7F7F" stroke-width="0.0762" d="M103.043 99.9986c-6.1369,2.8609 -12.2738,5.7219 -18.4108,8.5829 -1.0701,-1.2813 -9.891,-3.4582 -15.7881,-2.0716 10.1865,-4.6115 23.6024,-10.0526 34.1989,-6.5113z"/>
    <path id="_66874992" fill="#E5E5E5" stroke="#7F7F7F" stroke-width="0.0762" d="M102.465 115.163c-4.3667,-3.7259 -11.8258,-5.828 -16.6375,-4.5628 -0.1168,0.559 -1.6631,-0.1331 -1.5017,-0.6323 -2.6044,-1.9232 -5.0681,-4.2577 -15.9466,-3.3131 4.8593,-1.415 14.0331,-0.2945 16.2533,1.9266 -0.1112,0.5014 1.3874,1.1189 1.5012,0.6067 4.7576,-0.9333 13.5896,2.14 16.3313,5.9749z"/>
   </g>
  </g>
  <g id="StpPos_Lat" onclick="parent.replacechar('StpPos_Lat')" onmousemove="parent.showtooltip('StpPos_Lat', 'Stipule lateral')" onmouseout="parent.hidetooltip('StpPos_Lat')" cursor="pointer" >
   <g id="feuille_2_2">
    <path id="_66364856" fill="#E5E5E5" stroke="#7F7F7F" stroke-width="0.0762" d="M127.209 20.0611c1.8977,-2.3748 28.2032,-11.1756 30.5978,-12.3965 -0.2449,0.7343 -2.1813,0.0936 -1.9711,-0.6288l-31.4868 11.3082c0.2169,0.1944 0.7763,0.239 1.8071,0.7293 1.1137,0.9028 0.6032,0.7566 1.053,0.9878z"/>
    <path id="_66859536" fill="#E5E5E5" stroke="#7F7F7F" stroke-width="0.0762" d="M145.323 3.5258c8.0468,0.6962 10.3643,3.5363 10.4961,3.5148 -7.2693,2.5704 -10.5868,3.9065 -17.949,6.4472 -5.8613,-2.8719 -4.8412,-7.8115 7.4529,-9.962z"/>
    <path id="_67131280" fill="#E5E5E5" stroke="#7F7F7F" stroke-width="0.0762" d="M140.577 14.6438c-0.9106,-0.339 0.048,0.0107 -0.6957,-0.2972 -4.7412,1.7717 -11.2187,4.0887 -12.6723,5.7145 0,0 -0.2098,0.6895 -0.3855,0.9616 1.7291,-1.3563 10.2953,-5.4625 13.7535,-6.3789z"/>
    <path id="_76609040" fill="#E5E5E5" stroke="#7F7F7F" stroke-width="0.0762" d="M139.881 14.3466c7.2063,-2.588 10.719,-4.0939 17.9254,-6.682 5.1085,0.0894 11.9794,2.6127 13.8148,5.5555 -12.6012,2.779 -20.1741,6.2052 -31.7402,1.1265z"/>
   </g>
   <path id="_77762448" fill="#99FF00" stroke="black" stroke-width="0.0762" d="M127.702 0.4671c-3.5015,5.8196 -9.3643,7.2507 -9.3908,11.6213 0.0818,3.2704 0.9483,3.2508 1.2558,3.8761 2.3077,2.9492 6.3161,1.4962 7.6759,1.416 -0.7729,-5.791 -0.2948,-12.3273 0.4591,-16.9134z"/>
   <g>
    <g clip-path="url(#id0)">
     <polygon id="_77134688" fill="#C2B09B" points="86.8883,-17.8672 154.818,-17.8672 154.818,36.7391 86.8883,36.7391 "/>
     <g id="Plan_x0020_1_3">
      <metadata id="CorelCorpID_1Corel-Layer"/>
      <polygon id="_764740161" fill="none" points="-0.0001,180 240,180 240,-0.0001 -0.0001,-0.0001 "/>
      <g id="StpPos_Inter_4">
       <g id="feuille_2_5">
        <path id="_76602928" fill="#BFA68C" stroke="#8C7359" stroke-width="0.0762" d="M127.209 151.064c1.8978,-2.3749 28.2033,-11.1757 30.5978,-12.3966 -0.2448,0.7343 -2.1813,0.0936 -1.9711,-0.6288l-31.4867 11.3082c0.2168,0.1945 0.7762,0.2391 1.8071,0.7293 1.1137,0.9028 0.6032,0.7567 1.0529,0.9879z"/>
        <path id="_76487944" fill="#BFA68C" stroke="#8C7359" stroke-width="0.0762" d="M145.323 134.528c8.0467,0.6963 10.3643,3.5363 10.496,3.5148 -7.2692,2.5704 -10.5867,3.9066 -17.9489,6.4473 -5.8614,-2.8719 -4.8412,-7.8116 7.4529,-9.9621z"/>
        <path id="_77495520" fill="#BFA68C" stroke="#8C7359" stroke-width="0.0762" d="M140.577 145.646c-0.9106,-0.339 0.0479,0.0106 -0.6957,-0.2972 -4.7413,1.7716 -11.2187,4.0886 -12.6724,5.7145 0,-0.0001 -0.2098,0.6895 -0.3855,0.9615 1.7292,-1.3563 10.2954,-5.4625 13.7536,-6.3788z"/>
        <path id="_76429072" fill="#BFA68C" stroke="#8C7359" stroke-width="0.0762" d="M139.881 145.349c7.2064,-2.588 10.7191,-4.094 17.9254,-6.6821 5.1086,0.0895 11.9795,2.6127 13.8149,5.5555 -12.6012,2.7791 -20.1741,6.2053 -31.7403,1.1266z"/>
       </g>
       <g>
        <path id="_66039352" fill="#AC8155" stroke="#A09483" stroke-width="0.0762" d="M120.853 124.837c4.7287,0 8.5643,0.8523 8.5643,1.9032 0,1.0507 -3.8356,1.903 -8.5643,1.903 -4.7296,0 -8.565,-0.8523 -8.565,-1.903 0,-1.0509 3.8354,-1.9032 8.565,-1.9032z"/>
        <path id="_76627792" fill="#AC8155" stroke="#A09483" stroke-width="0.0762" d="M112.288 126.743c-0.1542,13.0531 0.1544,26.3307 0,39.3839 0.2302,2.3448 16.4717,2.704 17.1293,0l-0.0226 -39.3839c-0.5371,2.5491 -16.762,2.5159 -17.1067,0z"/>
       </g>
       <path id="_76609016" fill="#99B31A" stroke="#4D331A" stroke-width="0.0762" d="M117.536 155.685c0.2183,-1.7841 1.7485,-3.9471 3.104,-5.1419 1.5792,-1.4822 3.6172,-5.7507 3.7425,-7.3372 0.1663,-2.1038 -0.162,0.8212 1.4966,2.3044 1.6674,1.2768 4.1692,2.4783 4.1959,5.9368 -0.1035,3.2705 -0.2756,2.8404 -0.6644,3.4658 -2.9174,2.9492 -10.8569,2.1117 -12.5759,2.0315 0.3513,-0.3946 0.6365,-0.6581 0.7013,-1.2594z"/>
       <path id="_76949224" fill="#99B31A" fill-opacity="0.501961" stroke="#4D331A" stroke-width="0.0762" stroke-dasharray="0.762000 0.228600" stroke-opacity="0.501961" d="M112.29 145.455c1.7853,-0.9521 3.6597,-3.1202 4.8927,-4.5998 1.345,2.1791 2.5331,2.3562 3.9531,3.3514 1.1836,0.8009 3.7846,3.5391 3.2129,5.14 -0.8342,0.5003 -0.9221,0.4668 -1.1039,1.2205 -3.0563,-0.1793 -6.6663,1.3012 -8.9256,2.105 0.1248,-1.2628 -1.4202,-3.4701 -2.0188,-4.5999 -0.0043,-1.149 -0.0172,-0.9112 -0.0104,-2.6172z"/>
       <path id="_65739688" fill="#99B31A" fill-opacity="0.360784" stroke="#4D331A" stroke-width="0.0762" stroke-dasharray="0.762000 0.228600" stroke-opacity="0.360784" d="M125.708 145.344c0.6723,2.056 1.3428,3.3682 1.5008,5.72 -0.153,0.4594 -0.2429,0.7261 -0.3855,0.9615 -0.0826,0.1609 2.5862,0.5212 2.5872,2.8878 0.8475,-1.3446 0.649,-4.0685 0.5527,-4.6217 -0.4261,-2.4465 -2.4221,-3.5694 -4.2552,-4.9476z"/>
       <path id="_76949160" fill="#99B31A" stroke="#4D331A" stroke-width="0.0762" d="M111.595 146.029c0.3292,-0.5158 0.2201,-0.2342 0.6945,-0.5737 -0.0004,1.3438 -0.0009,1.2707 0.0064,2.6087 -0.3895,-0.8504 -0.4992,-1.2043 -0.7009,-2.035z"/>
       <path id="_77781136" fill="#99B31A" stroke="#4D331A" stroke-width="0.0762" d="M111.935 155.555c1.716,-0.9249 2.01,-1.264 2.1346,-1.3878 1.112,-3.3124 -1.5837,-4.2095 -2.4744,-8.1391 -2.5513,5.3471 -1.0124,6.9411 0.3398,9.5269z"/>
       <g id="feuille_6">
        <path id="_77197704" fill="#BFA68C" stroke="#8C7359" stroke-width="0.0762" d="M114.07 154.168c-1.6742,1.9399 -27.4323,13.1432 -29.4431,14.4115 -0.1371,0.7845 1.3936,1.0493 1.5066,0.6091l31.4024 -13.5032c-0.303,-0.2535 -1.2449,-0.1638 -2.1924,-0.5126 -1.0537,-0.7054 -1.1017,-1.1992 -1.2735,-1.0048z"/>
        <path id="_66397664" fill="#BFA68C" stroke="#8C7359" stroke-width="0.0762" d="M102.465 175.163c-4.36,-5.1062 -13.0151,-6.4929 -16.3313,-5.9749l19.1328 -8.2638c5.394,2.0572 7.8536,11.354 -2.8015,14.2387z"/>
        <path id="_77728536" fill="#BFA68C" stroke="#8C7359" stroke-width="0.0762" d="M106.15 161.328c-0.3173,-0.1694 -0.5224,-0.2631 -0.8835,-0.4041l12.2696 -5.2394c-0.3831,3.0313 -8.2644,3.3675 -11.3861,5.6435z"/>
        <path id="_76711784" fill="#BFA68C" stroke="#8C7359" stroke-width="0.0762" d="M114.978 154.231c0.0335,-0.141 1.0845,-0.9962 1.4498,-0.933 0.3785,0.1472 0.8192,1.9141 0.1777,1.843 -0.1598,-0.0177 -0.7533,-0.0933 -1.0297,-0.2472 -0.3335,-0.1859 -0.6192,-0.5722 -0.5978,-0.6628z"/>
        <path id="_78502720" fill="#BFA68C" stroke="#8C7359" stroke-width="0.0762" d="M103.043 159.999c-6.1369,2.8609 -12.2738,5.7219 -18.4108,8.5829 -1.0701,-1.2813 -9.891,-3.4582 -15.7881,-2.0716 10.1865,-4.6115 23.6024,-10.0526 34.1989,-6.5113z"/>
        <path id="_76445608" fill="#BFA68C" stroke="#8C7359" stroke-width="0.0762" d="M102.465 175.163c-4.3667,-3.7259 -11.8258,-5.828 -16.6375,-4.5628 -0.1168,0.559 -1.6631,-0.1331 -1.5017,-0.6323 -2.6044,-1.9232 -5.0681,-4.2577 -15.9466,-3.3131 4.8593,-1.415 14.0331,-0.2945 16.2533,1.9266 -0.1112,0.5014 1.3874,1.1189 1.5012,0.6067 4.7576,-0.9333 13.5896,2.14 16.3313,5.9749z"/>
       </g>
       <path id="_65729960" fill="#99B31A" fill-opacity="0.501961" stroke="#4D331A" stroke-width="0.0762" stroke-dasharray="0.762000 0.228600" stroke-opacity="0.501961" d="M111.935 155.555c1.8538,-0.9962 2.1347,-1.3878 2.1347,-1.3878 -0.2775,0.9343 -0.413,1.5176 -0.3833,2.2636 -0.7646,0.0436 -1.4925,-0.4843 -1.7514,-0.8758z"/>
      </g>
      <g id="StpPos_Intra_7">
       <g id="feuille_2_8">
        <path id="_66730136" fill="#BFA68C" stroke="#8C7359" stroke-width="0.0762" d="M127.209 91.0636c1.8978,-2.3749 28.2033,-11.1757 30.5978,-12.3966 -0.2448,0.7343 -2.1813,0.0936 -1.9711,-0.6288l-31.4867 11.3082c0.2168,0.1945 0.7762,0.2391 1.8071,0.7293 1.1137,0.9028 0.6032,0.7567 1.0529,0.9879z"/>
        <path id="_76646808" fill="#BFA68C" stroke="#8C7359" stroke-width="0.0762" d="M145.323 74.5282c8.0467,0.6963 10.3643,3.5363 10.496,3.5148 -7.2692,2.5704 -10.5867,3.9066 -17.9489,6.4473 -5.8614,-2.8719 -4.8412,-7.8116 7.4529,-9.9621z"/>
        <path id="_77606112" fill="#BFA68C" stroke="#8C7359" stroke-width="0.0762" d="M140.577 85.6463c-0.9106,-0.339 0.0479,0.0106 -0.6957,-0.2972 -4.7413,1.7716 -11.2187,4.0886 -12.6724,5.7145 0,-0.0001 -0.2098,0.6895 -0.3855,0.9615 1.7292,-1.3563 10.2954,-5.4625 13.7536,-6.3788z"/>
        <path id="_65728280" fill="#BFA68C" stroke="#8C7359" stroke-width="0.0762" d="M139.881 85.3491c7.2064,-2.588 10.7191,-4.094 17.9254,-6.6821 5.1086,0.0895 11.9795,2.6127 13.8149,5.5555 -12.6012,2.7791 -20.1741,6.2053 -31.7403,1.1266z"/>
       </g>
       <g>
        <path id="_27685624" fill="#AC8155" stroke="#A09483" stroke-width="0.0762" d="M120.853 64.8368c4.7287,0 8.5643,0.8523 8.5643,1.9032 0,1.0507 -3.8356,1.903 -8.5643,1.903 -4.7296,0 -8.565,-0.8523 -8.565,-1.903 0,-1.0509 3.8354,-1.9032 8.565,-1.9032z"/>
        <path id="_78213104" fill="#AC8155" stroke="#A09483" stroke-width="0.0762" d="M112.288 66.7427c-0.1542,13.0531 0.1544,26.3307 0,39.3839 0.2302,2.3448 16.4717,2.704 17.1293,0l-0.0226 -39.3839c-0.5371,2.5491 -16.762,2.5159 -17.1067,0z"/>
       </g>
       <path id="_66787152" fill="#99B31A" stroke="#4D331A" stroke-width="0.0762" d="M112.428 94.1263c0.303,-2.4772 -0.7546,-12.1103 -0.11,-14.8302 0.6899,-4.7983 1.6633,-4.2721 2.2792,-6.4749 2.8325,6.3489 14.7522,7.7721 14.8098,15.2648 -0.1437,4.541 0.5424,3.388 0.0025,4.2563 -2.1363,0.9631 -17.3666,5.3565 -16.9815,1.784z"/>
       <g id="feuille_9">
        <path id="_45415376" fill="#BFA68C" stroke="#8C7359" stroke-width="0.0762" d="M114.07 94.1676c-1.6742,1.9399 -27.4323,13.1432 -29.4431,14.4115 -0.1371,0.7845 1.3936,1.0493 1.5066,0.6091l31.4024 -13.5032c-0.303,-0.2535 -1.2449,-0.1638 -2.1924,-0.5126 -1.0537,-0.7054 -1.1017,-1.1992 -1.2735,-1.0048z"/>
        <path id="_76643432" fill="#BFA68C" stroke="#8C7359" stroke-width="0.0762" d="M102.465 115.163c-4.36,-5.1062 -13.0151,-6.4929 -16.3313,-5.9749l19.1328 -8.2638c5.394,2.0572 7.8536,11.354 -2.8015,14.2387z"/>
        <path id="_78025120" fill="#BFA68C" stroke="#8C7359" stroke-width="0.0762" d="M106.15 101.329c-0.3173,-0.1694 -0.5224,-0.2631 -0.8835,-0.4041l12.2696 -5.2394c-0.3831,3.0313 -8.2644,3.3675 -11.3861,5.6435z"/>
        <path id="_77500672" fill="#BFA68C" stroke="#8C7359" stroke-width="0.0762" d="M114.978 94.2305c0.0335,-0.141 1.0845,-0.9962 1.4498,-0.933 0.3785,0.1472 0.8192,1.9141 0.1777,1.843 -0.1598,-0.0177 -0.7533,-0.0933 -1.0297,-0.2472 -0.3335,-0.1859 -0.6192,-0.5722 -0.5978,-0.6628z"/>
        <path id="_77065496" fill="#BFA68C" stroke="#8C7359" stroke-width="0.0762" d="M103.043 99.9986c-6.1369,2.8609 -12.2738,5.7219 -18.4108,8.5829 -1.0701,-1.2813 -9.891,-3.4582 -15.7881,-2.0716 10.1865,-4.6115 23.6024,-10.0526 34.1989,-6.5113z"/>
        <path id="_66874992" fill="#BFA68C" stroke="#8C7359" stroke-width="0.0762" d="M102.465 115.163c-4.3667,-3.7259 -11.8258,-5.828 -16.6375,-4.5628 -0.1168,0.559 -1.6631,-0.1331 -1.5017,-0.6323 -2.6044,-1.9232 -5.0681,-4.2577 -15.9466,-3.3131 4.8593,-1.415 14.0331,-0.2945 16.2533,1.9266 -0.1112,0.5014 1.3874,1.1189 1.5012,0.6067 4.7576,-0.9333 13.5896,2.14 16.3313,5.9749z"/>
       </g>
      </g>
      <g id="StpPos_Lat_10">
       <g id="feuille_2_11">
        <path id="_66364856" fill="#BFA68C" stroke="#8C7359" stroke-width="0.0762" d="M127.209 20.0611c1.8977,-2.3748 28.2032,-11.1756 30.5978,-12.3965 -0.2449,0.7343 -2.1813,0.0936 -1.9711,-0.6288l-31.4868 11.3082c0.2169,0.1944 0.7763,0.239 1.8071,0.7293 1.1137,0.9028 0.6032,0.7566 1.053,0.9878z"/>
        <path id="_66859536" fill="#BFA68C" stroke="#8C7359" stroke-width="0.0762" d="M145.323 3.5258c8.0468,0.6962 10.3643,3.5363 10.4961,3.5148 -7.2693,2.5704 -10.5868,3.9065 -17.949,6.4472 -5.8613,-2.8719 -4.8412,-7.8115 7.4529,-9.962z"/>
        <path id="_67131280" fill="#BFA68C" stroke="#8C7359" stroke-width="0.0762" d="M140.577 14.6438c-0.9106,-0.339 0.048,0.0107 -0.6957,-0.2972 -4.7412,1.7717 -11.2187,4.0887 -12.6723,5.7145 0,0 -0.2098,0.6895 -0.3855,0.9616 1.7291,-1.3563 10.2953,-5.4625 13.7535,-6.3789z"/>
        <path id="_76609040" fill="#BFA68C" stroke="#8C7359" stroke-width="0.0762" d="M139.881 14.3466c7.2063,-2.588 10.719,-4.0939 17.9254,-6.682 5.1085,0.0894 11.9794,2.6127 13.8148,5.5555 -12.6012,2.779 -20.1741,6.2052 -31.7402,1.1265z"/>
       </g>
       <path id="_77762448" fill="#99B31A" stroke="#4D331A" stroke-width="0.0762" d="M127.702 0.4671c-3.5015,5.8196 -9.3643,7.2507 -9.3908,11.6213 0.0818,3.2704 0.9483,3.2508 1.2558,3.8761 2.3077,2.9492 6.3161,1.4962 7.6759,1.416 -0.7729,-5.791 -0.2948,-12.3273 0.4591,-16.9134z"/>
       <g>
       </g>
      </g>
     </g>
    </g>
    <path fill="none" stroke="#AAA9A9" stroke-width="0.0762" d="M120.853 7.5328c4.7288,0 8.5644,0.8523 8.5644,1.9033 0,1.0507 -3.8356,1.903 -8.5644,1.903 -4.7296,0 -8.5649,-0.8523 -8.5649,-1.903 0,-1.051 3.8353,-1.9033 8.5649,-1.9033z"/>
    <g clip-path="url(#id1)">
     <polygon id="_65832816" fill="#C2B09B" points="86.8439,-15.9613 154.818,-15.9613 154.818,76.1174 86.8439,76.1174 "/>
     <g id="Plan_x0020_1_12">
      <metadata id="CorelCorpID_2Corel-Layer"/>
      <polygon id="_764740161" fill="none" points="-0.0001,180 240,180 240,-0.0001 -0.0001,-0.0001 "/>
      <g id="StpPos_Inter_13">
       <g id="feuille_2_14">
        <path id="_76602928" fill="#BFA68C" stroke="#8C7359" stroke-width="0.0762" d="M127.209 151.064c1.8978,-2.3749 28.2033,-11.1757 30.5978,-12.3966 -0.2448,0.7343 -2.1813,0.0936 -1.9711,-0.6288l-31.4867 11.3082c0.2168,0.1945 0.7762,0.2391 1.8071,0.7293 1.1137,0.9028 0.6032,0.7567 1.0529,0.9879z"/>
        <path id="_76487944" fill="#BFA68C" stroke="#8C7359" stroke-width="0.0762" d="M145.323 134.528c8.0467,0.6963 10.3643,3.5363 10.496,3.5148 -7.2692,2.5704 -10.5867,3.9066 -17.9489,6.4473 -5.8614,-2.8719 -4.8412,-7.8116 7.4529,-9.9621z"/>
        <path id="_77495520" fill="#BFA68C" stroke="#8C7359" stroke-width="0.0762" d="M140.577 145.646c-0.9106,-0.339 0.0479,0.0106 -0.6957,-0.2972 -4.7413,1.7716 -11.2187,4.0886 -12.6724,5.7145 0,-0.0001 -0.2098,0.6895 -0.3855,0.9615 1.7292,-1.3563 10.2954,-5.4625 13.7536,-6.3788z"/>
        <path id="_76429072" fill="#BFA68C" stroke="#8C7359" stroke-width="0.0762" d="M139.881 145.349c7.2064,-2.588 10.7191,-4.094 17.9254,-6.6821 5.1086,0.0895 11.9795,2.6127 13.8149,5.5555 -12.6012,2.7791 -20.1741,6.2053 -31.7403,1.1266z"/>
       </g>
       <g>
        <path id="_66039352" fill="#AC8155" stroke="#A09483" stroke-width="0.0762" d="M120.853 124.837c4.7287,0 8.5643,0.8523 8.5643,1.9032 0,1.0507 -3.8356,1.903 -8.5643,1.903 -4.7296,0 -8.565,-0.8523 -8.565,-1.903 0,-1.0509 3.8354,-1.9032 8.565,-1.9032z"/>
        <path id="_76627792" fill="#AC8155" stroke="#A09483" stroke-width="0.0762" d="M112.288 126.743c-0.1542,13.0531 0.1544,26.3307 0,39.3839 0.2302,2.3448 16.4717,2.704 17.1293,0l-0.0226 -39.3839c-0.5371,2.5491 -16.762,2.5159 -17.1067,0z"/>
       </g>
       <path id="_76609016" fill="#99B31A" stroke="#4D331A" stroke-width="0.0762" d="M117.536 155.685c0.2183,-1.7841 1.7485,-3.9471 3.104,-5.1419 1.5792,-1.4822 3.6172,-5.7507 3.7425,-7.3372 0.1663,-2.1038 -0.162,0.8212 1.4966,2.3044 1.6674,1.2768 4.1692,2.4783 4.1959,5.9368 -0.1035,3.2705 -0.2756,2.8404 -0.6644,3.4658 -2.9174,2.9492 -10.8569,2.1117 -12.5759,2.0315 0.3513,-0.3946 0.6365,-0.6581 0.7013,-1.2594z"/>
       <path id="_76949224" fill="#99B31A" fill-opacity="0.501961" stroke="#4D331A" stroke-width="0.0762" stroke-dasharray="0.762000 0.228600" stroke-opacity="0.501961" d="M112.29 145.455c1.7853,-0.9521 3.6597,-3.1202 4.8927,-4.5998 1.345,2.1791 2.5331,2.3562 3.9531,3.3514 1.1836,0.8009 3.7846,3.5391 3.2129,5.14 -0.8342,0.5003 -0.9221,0.4668 -1.1039,1.2205 -3.0563,-0.1793 -6.6663,1.3012 -8.9256,2.105 0.1248,-1.2628 -1.4202,-3.4701 -2.0188,-4.5999 -0.0043,-1.149 -0.0172,-0.9112 -0.0104,-2.6172z"/>
       <path id="_65739688" fill="#99B31A" fill-opacity="0.360784" stroke="#4D331A" stroke-width="0.0762" stroke-dasharray="0.762000 0.228600" stroke-opacity="0.360784" d="M125.708 145.344c0.6723,2.056 1.3428,3.3682 1.5008,5.72 -0.153,0.4594 -0.2429,0.7261 -0.3855,0.9615 -0.0826,0.1609 2.5862,0.5212 2.5872,2.8878 0.8475,-1.3446 0.649,-4.0685 0.5527,-4.6217 -0.4261,-2.4465 -2.4221,-3.5694 -4.2552,-4.9476z"/>
       <path id="_76949160" fill="#99B31A" stroke="#4D331A" stroke-width="0.0762" d="M111.595 146.029c0.3292,-0.5158 0.2201,-0.2342 0.6945,-0.5737 -0.0004,1.3438 -0.0009,1.2707 0.0064,2.6087 -0.3895,-0.8504 -0.4992,-1.2043 -0.7009,-2.035z"/>
       <path id="_77781136" fill="#99B31A" stroke="#4D331A" stroke-width="0.0762" d="M111.935 155.555c1.716,-0.9249 2.01,-1.264 2.1346,-1.3878 1.112,-3.3124 -1.5837,-4.2095 -2.4744,-8.1391 -2.5513,5.3471 -1.0124,6.9411 0.3398,9.5269z"/>
       <g id="feuille_15">
        <path id="_77197704" fill="#BFA68C" stroke="#8C7359" stroke-width="0.0762" d="M114.07 154.168c-1.6742,1.9399 -27.4323,13.1432 -29.4431,14.4115 -0.1371,0.7845 1.3936,1.0493 1.5066,0.6091l31.4024 -13.5032c-0.303,-0.2535 -1.2449,-0.1638 -2.1924,-0.5126 -1.0537,-0.7054 -1.1017,-1.1992 -1.2735,-1.0048z"/>
        <path id="_66397664" fill="#BFA68C" stroke="#8C7359" stroke-width="0.0762" d="M102.465 175.163c-4.36,-5.1062 -13.0151,-6.4929 -16.3313,-5.9749l19.1328 -8.2638c5.394,2.0572 7.8536,11.354 -2.8015,14.2387z"/>
        <path id="_77728536" fill="#BFA68C" stroke="#8C7359" stroke-width="0.0762" d="M106.15 161.328c-0.3173,-0.1694 -0.5224,-0.2631 -0.8835,-0.4041l12.2696 -5.2394c-0.3831,3.0313 -8.2644,3.3675 -11.3861,5.6435z"/>
        <path id="_76711784" fill="#BFA68C" stroke="#8C7359" stroke-width="0.0762" d="M114.978 154.231c0.0335,-0.141 1.0845,-0.9962 1.4498,-0.933 0.3785,0.1472 0.8192,1.9141 0.1777,1.843 -0.1598,-0.0177 -0.7533,-0.0933 -1.0297,-0.2472 -0.3335,-0.1859 -0.6192,-0.5722 -0.5978,-0.6628z"/>
        <path id="_78502720" fill="#BFA68C" stroke="#8C7359" stroke-width="0.0762" d="M103.043 159.999c-6.1369,2.8609 -12.2738,5.7219 -18.4108,8.5829 -1.0701,-1.2813 -9.891,-3.4582 -15.7881,-2.0716 10.1865,-4.6115 23.6024,-10.0526 34.1989,-6.5113z"/>
        <path id="_76445608" fill="#BFA68C" stroke="#8C7359" stroke-width="0.0762" d="M102.465 175.163c-4.3667,-3.7259 -11.8258,-5.828 -16.6375,-4.5628 -0.1168,0.559 -1.6631,-0.1331 -1.5017,-0.6323 -2.6044,-1.9232 -5.0681,-4.2577 -15.9466,-3.3131 4.8593,-1.415 14.0331,-0.2945 16.2533,1.9266 -0.1112,0.5014 1.3874,1.1189 1.5012,0.6067 4.7576,-0.9333 13.5896,2.14 16.3313,5.9749z"/>
       </g>
       <path id="_65729960" fill="#99B31A" fill-opacity="0.501961" stroke="#4D331A" stroke-width="0.0762" stroke-dasharray="0.762000 0.228600" stroke-opacity="0.501961" d="M111.935 155.555c1.8538,-0.9962 2.1347,-1.3878 2.1347,-1.3878 -0.2775,0.9343 -0.413,1.5176 -0.3833,2.2636 -0.7646,0.0436 -1.4925,-0.4843 -1.7514,-0.8758z"/>
      </g>
      <g id="StpPos_Intra_16">
       <g id="feuille_2_17">
        <path id="_66730136" fill="#BFA68C" stroke="#8C7359" stroke-width="0.0762" d="M127.209 91.0636c1.8978,-2.3749 28.2033,-11.1757 30.5978,-12.3966 -0.2448,0.7343 -2.1813,0.0936 -1.9711,-0.6288l-31.4867 11.3082c0.2168,0.1945 0.7762,0.2391 1.8071,0.7293 1.1137,0.9028 0.6032,0.7567 1.0529,0.9879z"/>
        <path id="_76646808" fill="#BFA68C" stroke="#8C7359" stroke-width="0.0762" d="M145.323 74.5282c8.0467,0.6963 10.3643,3.5363 10.496,3.5148 -7.2692,2.5704 -10.5867,3.9066 -17.9489,6.4473 -5.8614,-2.8719 -4.8412,-7.8116 7.4529,-9.9621z"/>
        <path id="_77606112" fill="#BFA68C" stroke="#8C7359" stroke-width="0.0762" d="M140.577 85.6463c-0.9106,-0.339 0.0479,0.0106 -0.6957,-0.2972 -4.7413,1.7716 -11.2187,4.0886 -12.6724,5.7145 0,-0.0001 -0.2098,0.6895 -0.3855,0.9615 1.7292,-1.3563 10.2954,-5.4625 13.7536,-6.3788z"/>
        <path id="_65728280" fill="#BFA68C" stroke="#8C7359" stroke-width="0.0762" d="M139.881 85.3491c7.2064,-2.588 10.7191,-4.094 17.9254,-6.6821 5.1086,0.0895 11.9795,2.6127 13.8149,5.5555 -12.6012,2.7791 -20.1741,6.2053 -31.7403,1.1266z"/>
       </g>
       <g>
        <path id="_27685624" fill="#AC8155" stroke="#A09483" stroke-width="0.0762" d="M120.853 64.8368c4.7287,0 8.5643,0.8523 8.5643,1.9032 0,1.0507 -3.8356,1.903 -8.5643,1.903 -4.7296,0 -8.565,-0.8523 -8.565,-1.903 0,-1.0509 3.8354,-1.9032 8.565,-1.9032z"/>
        <path id="_78213104" fill="#AC8155" stroke="#A09483" stroke-width="0.0762" d="M112.288 66.7427c-0.1542,13.0531 0.1544,26.3307 0,39.3839 0.2302,2.3448 16.4717,2.704 17.1293,0l-0.0226 -39.3839c-0.5371,2.5491 -16.762,2.5159 -17.1067,0z"/>
       </g>
       <path id="_66787152" fill="#99B31A" stroke="#4D331A" stroke-width="0.0762" d="M112.428 94.1263c0.303,-2.4772 -0.7546,-12.1103 -0.11,-14.8302 0.6899,-4.7983 1.6633,-4.2721 2.2792,-6.4749 2.8325,6.3489 14.7522,7.7721 14.8098,15.2648 -0.1437,4.541 0.5424,3.388 0.0025,4.2563 -2.1363,0.9631 -17.3666,5.3565 -16.9815,1.784z"/>
       <g id="feuille_18">
        <path id="_45415376" fill="#BFA68C" stroke="#8C7359" stroke-width="0.0762" d="M114.07 94.1676c-1.6742,1.9399 -27.4323,13.1432 -29.4431,14.4115 -0.1371,0.7845 1.3936,1.0493 1.5066,0.6091l31.4024 -13.5032c-0.303,-0.2535 -1.2449,-0.1638 -2.1924,-0.5126 -1.0537,-0.7054 -1.1017,-1.1992 -1.2735,-1.0048z"/>
        <path id="_76643432" fill="#BFA68C" stroke="#8C7359" stroke-width="0.0762" d="M102.465 115.163c-4.36,-5.1062 -13.0151,-6.4929 -16.3313,-5.9749l19.1328 -8.2638c5.394,2.0572 7.8536,11.354 -2.8015,14.2387z"/>
        <path id="_78025120" fill="#BFA68C" stroke="#8C7359" stroke-width="0.0762" d="M106.15 101.329c-0.3173,-0.1694 -0.5224,-0.2631 -0.8835,-0.4041l12.2696 -5.2394c-0.3831,3.0313 -8.2644,3.3675 -11.3861,5.6435z"/>
        <path id="_77500672" fill="#BFA68C" stroke="#8C7359" stroke-width="0.0762" d="M114.978 94.2305c0.0335,-0.141 1.0845,-0.9962 1.4498,-0.933 0.3785,0.1472 0.8192,1.9141 0.1777,1.843 -0.1598,-0.0177 -0.7533,-0.0933 -1.0297,-0.2472 -0.3335,-0.1859 -0.6192,-0.5722 -0.5978,-0.6628z"/>
        <path id="_77065496" fill="#BFA68C" stroke="#8C7359" stroke-width="0.0762" d="M103.043 99.9986c-6.1369,2.8609 -12.2738,5.7219 -18.4108,8.5829 -1.0701,-1.2813 -9.891,-3.4582 -15.7881,-2.0716 10.1865,-4.6115 23.6024,-10.0526 34.1989,-6.5113z"/>
        <path id="_66874992" fill="#BFA68C" stroke="#8C7359" stroke-width="0.0762" d="M102.465 115.163c-4.3667,-3.7259 -11.8258,-5.828 -16.6375,-4.5628 -0.1168,0.559 -1.6631,-0.1331 -1.5017,-0.6323 -2.6044,-1.9232 -5.0681,-4.2577 -15.9466,-3.3131 4.8593,-1.415 14.0331,-0.2945 16.2533,1.9266 -0.1112,0.5014 1.3874,1.1189 1.5012,0.6067 4.7576,-0.9333 13.5896,2.14 16.3313,5.9749z"/>
       </g>
      </g>
      <g id="StpPos_Lat_19">
       <g id="feuille_2_20">
        <path id="_66364856" fill="#BFA68C" stroke="#8C7359" stroke-width="0.0762" d="M127.209 20.0611c1.8977,-2.3748 28.2032,-11.1756 30.5978,-12.3965 -0.2449,0.7343 -2.1813,0.0936 -1.9711,-0.6288l-31.4868 11.3082c0.2169,0.1944 0.7763,0.239 1.8071,0.7293 1.1137,0.9028 0.6032,0.7566 1.053,0.9878z"/>
        <path id="_66859536" fill="#BFA68C" stroke="#8C7359" stroke-width="0.0762" d="M145.323 3.5258c8.0468,0.6962 10.3643,3.5363 10.4961,3.5148 -7.2693,2.5704 -10.5868,3.9065 -17.949,6.4472 -5.8613,-2.8719 -4.8412,-7.8115 7.4529,-9.962z"/>
        <path id="_67131280" fill="#BFA68C" stroke="#8C7359" stroke-width="0.0762" d="M140.577 14.6438c-0.9106,-0.339 0.048,0.0107 -0.6957,-0.2972 -4.7412,1.7717 -11.2187,4.0887 -12.6723,5.7145 0,0 -0.2098,0.6895 -0.3855,0.9616 1.7291,-1.3563 10.2953,-5.4625 13.7535,-6.3789z"/>
        <path id="_76609040" fill="#BFA68C" stroke="#8C7359" stroke-width="0.0762" d="M139.881 14.3466c7.2063,-2.588 10.719,-4.0939 17.9254,-6.682 5.1085,0.0894 11.9794,2.6127 13.8148,5.5555 -12.6012,2.779 -20.1741,6.2052 -31.7402,1.1265z"/>
       </g>
       <path id="_77762448" fill="#99B31A" stroke="#4D331A" stroke-width="0.0762" d="M127.702 0.4671c-3.5015,5.8196 -9.3643,7.2507 -9.3908,11.6213 0.0818,3.2704 0.9483,3.2508 1.2558,3.8761 2.3077,2.9492 6.3161,1.4962 7.6759,1.416 -0.7729,-5.791 -0.2948,-12.3273 0.4591,-16.9134z"/>
       <g>
        <path id="_77134688" fill="none" stroke="#A09483" stroke-width="0.0762" d="M120.853 7.5328c4.7288,0 8.5644,0.8523 8.5644,1.9033 0,1.0507 -3.8356,1.903 -8.5644,1.903 -4.7296,0 -8.5649,-0.8523 -8.5649,-1.903 0,-1.051 3.8353,-1.9033 8.5649,-1.9033z"/>
       </g>
      </g>
     </g>
    </g>
    <path fill="none" stroke="#AAA9A9" stroke-width="0.0762" d="M112.288 9.4387c-0.1543,13.0533 0.1544,26.331 0,39.3844 0.2302,2.3448 16.4717,2.704 17.1293,0l-0.0227 -39.3843c-0.5371,2.5491 -16.762,2.5159 -17.1066,-0.0001z"/>
    <g clip-path="url(#id2)">
     <polygon id="1" fill="#AA967D" points="86.8886,-15.9612 154.795,-15.9612 154.795,36.7489 86.8886,36.7489 "/>
     <g id="Plan_x0020_1_21">
      <metadata id="CorelCorpID_3Corel-Layer"/>
      <polygon id="_764740162" fill="none" points="-0.0001,180 240,180 240,-0.0001 -0.0001,-0.0001 "/>
      <g id="StpPos_Inter_22">
       <g id="feuille_2_23">
        <path id="_76602928" fill="#AC8660" stroke="#936D46" stroke-width="0.0762" d="M127.209 151.064c1.8978,-2.3749 28.2033,-11.1757 30.5978,-12.3966 -0.2448,0.7343 -2.1813,0.0936 -1.9711,-0.6288l-31.4867 11.3082c0.2168,0.1945 0.7762,0.2391 1.8071,0.7293 1.1137,0.9028 0.6032,0.7567 1.0529,0.9879z"/>
        <path id="_76487944" fill="#AC8660" stroke="#936D46" stroke-width="0.0762" d="M145.323 134.528c8.0467,0.6963 10.3643,3.5363 10.496,3.5148 -7.2692,2.5704 -10.5867,3.9066 -17.9489,6.4473 -5.8614,-2.8719 -4.8412,-7.8116 7.4529,-9.9621z"/>
        <path id="_77495520" fill="#AC8660" stroke="#936D46" stroke-width="0.0762" d="M140.577 145.646c-0.9106,-0.339 0.0479,0.0106 -0.6957,-0.2972 -4.7413,1.7716 -11.2187,4.0886 -12.6724,5.7145 0,-0.0001 -0.2098,0.6895 -0.3855,0.9615 1.7292,-1.3563 10.2954,-5.4625 13.7536,-6.3788z"/>
        <path id="_76429072" fill="#AC8660" stroke="#936D46" stroke-width="0.0762" d="M139.881 145.349c7.2064,-2.588 10.7191,-4.094 17.9254,-6.6821 5.1086,0.0895 11.9795,2.6127 13.8149,5.5555 -12.6012,2.7791 -20.1741,6.2053 -31.7403,1.1266z"/>
       </g>
       <g>
        <path id="_66039352" fill="#A37444" stroke="#9C8A74" stroke-width="0.0762" d="M120.853 124.837c4.7287,0 8.5643,0.8523 8.5643,1.9032 0,1.0507 -3.8356,1.903 -8.5643,1.903 -4.7296,0 -8.565,-0.8523 -8.565,-1.903 0,-1.0509 3.8354,-1.9032 8.565,-1.9032z"/>
        <path id="_76627792" fill="#A37444" stroke="#9C8A74" stroke-width="0.0762" d="M112.288 126.743c-0.1542,13.0531 0.1544,26.3307 0,39.3839 0.2302,2.3448 16.4717,2.704 17.1293,0l-0.0226 -39.3839c-0.5371,2.5491 -16.762,2.5159 -17.1067,0z"/>
       </g>
       <path id="_76609016" fill="#998D27" stroke="#734D27" stroke-width="0.0762" d="M117.536 155.685c0.2183,-1.7841 1.7485,-3.9471 3.104,-5.1419 1.5792,-1.4822 3.6172,-5.7507 3.7425,-7.3372 0.1663,-2.1038 -0.162,0.8212 1.4966,2.3044 1.6674,1.2768 4.1692,2.4783 4.1959,5.9368 -0.1035,3.2705 -0.2756,2.8404 -0.6644,3.4658 -2.9174,2.9492 -10.8569,2.1117 -12.5759,2.0315 0.3513,-0.3946 0.6365,-0.6581 0.7013,-1.2594z"/>
       <path id="_76949224" fill="#998D27" fill-opacity="0.501961" stroke="#734D27" stroke-width="0.0762" stroke-dasharray="0.762000 0.228600" stroke-opacity="0.501961" d="M112.29 145.455c1.7853,-0.9521 3.6597,-3.1202 4.8927,-4.5998 1.345,2.1791 2.5331,2.3562 3.9531,3.3514 1.1836,0.8009 3.7846,3.5391 3.2129,5.14 -0.8342,0.5003 -0.9221,0.4668 -1.1039,1.2205 -3.0563,-0.1793 -6.6663,1.3012 -8.9256,2.105 0.1248,-1.2628 -1.4202,-3.4701 -2.0188,-4.5999 -0.0043,-1.149 -0.0172,-0.9112 -0.0104,-2.6172z"/>
       <path id="_65739688" fill="#998D27" fill-opacity="0.360784" stroke="#734D27" stroke-width="0.0762" stroke-dasharray="0.762000 0.228600" stroke-opacity="0.360784" d="M125.708 145.344c0.6723,2.056 1.3428,3.3682 1.5008,5.72 -0.153,0.4594 -0.2429,0.7261 -0.3855,0.9615 -0.0826,0.1609 2.5862,0.5212 2.5872,2.8878 0.8475,-1.3446 0.649,-4.0685 0.5527,-4.6217 -0.4261,-2.4465 -2.4221,-3.5694 -4.2552,-4.9476z"/>
       <path id="_76949160" fill="#998D27" stroke="#734D27" stroke-width="0.0762" d="M111.595 146.029c0.3292,-0.5158 0.2201,-0.2342 0.6945,-0.5737 -0.0004,1.3438 -0.0009,1.2707 0.0064,2.6087 -0.3895,-0.8504 -0.4992,-1.2043 -0.7009,-2.035z"/>
       <path id="_77781136" fill="#998D27" stroke="#734D27" stroke-width="0.0762" d="M111.935 155.555c1.716,-0.9249 2.01,-1.264 2.1346,-1.3878 1.112,-3.3124 -1.5837,-4.2095 -2.4744,-8.1391 -2.5513,5.3471 -1.0124,6.9411 0.3398,9.5269z"/>
       <g id="feuille_24">
        <path id="_77197704" fill="#AC8660" stroke="#936D46" stroke-width="0.0762" d="M114.07 154.168c-1.6742,1.9399 -27.4323,13.1432 -29.4431,14.4115 -0.1371,0.7845 1.3936,1.0493 1.5066,0.6091l31.4024 -13.5032c-0.303,-0.2535 -1.2449,-0.1638 -2.1924,-0.5126 -1.0537,-0.7054 -1.1017,-1.1992 -1.2735,-1.0048z"/>
        <path id="_66397664" fill="#AC8660" stroke="#936D46" stroke-width="0.0762" d="M102.465 175.163c-4.36,-5.1062 -13.0151,-6.4929 -16.3313,-5.9749l19.1328 -8.2638c5.394,2.0572 7.8536,11.354 -2.8015,14.2387z"/>
        <path id="_77728536" fill="#AC8660" stroke="#936D46" stroke-width="0.0762" d="M106.15 161.328c-0.3173,-0.1694 -0.5224,-0.2631 -0.8835,-0.4041l12.2696 -5.2394c-0.3831,3.0313 -8.2644,3.3675 -11.3861,5.6435z"/>
        <path id="_76711784" fill="#AC8660" stroke="#936D46" stroke-width="0.0762" d="M114.978 154.231c0.0335,-0.141 1.0845,-0.9962 1.4498,-0.933 0.3785,0.1472 0.8192,1.9141 0.1777,1.843 -0.1598,-0.0177 -0.7533,-0.0933 -1.0297,-0.2472 -0.3335,-0.1859 -0.6192,-0.5722 -0.5978,-0.6628z"/>
        <path id="_78502720" fill="#AC8660" stroke="#936D46" stroke-width="0.0762" d="M103.043 159.999c-6.1369,2.8609 -12.2738,5.7219 -18.4108,8.5829 -1.0701,-1.2813 -9.891,-3.4582 -15.7881,-2.0716 10.1865,-4.6115 23.6024,-10.0526 34.1989,-6.5113z"/>
        <path id="_76445608" fill="#AC8660" stroke="#936D46" stroke-width="0.0762" d="M102.465 175.163c-4.3667,-3.7259 -11.8258,-5.828 -16.6375,-4.5628 -0.1168,0.559 -1.6631,-0.1331 -1.5017,-0.6323 -2.6044,-1.9232 -5.0681,-4.2577 -15.9466,-3.3131 4.8593,-1.415 14.0331,-0.2945 16.2533,1.9266 -0.1112,0.5014 1.3874,1.1189 1.5012,0.6067 4.7576,-0.9333 13.5896,2.14 16.3313,5.9749z"/>
       </g>
       <path id="_65729960" fill="#998D27" fill-opacity="0.501961" stroke="#734D27" stroke-width="0.0762" stroke-dasharray="0.762000 0.228600" stroke-opacity="0.501961" d="M111.935 155.555c1.8538,-0.9962 2.1347,-1.3878 2.1347,-1.3878 -0.2775,0.9343 -0.413,1.5176 -0.3833,2.2636 -0.7646,0.0436 -1.4925,-0.4843 -1.7514,-0.8758z"/>
      </g>
      <g id="StpPos_Intra_25">
       <g id="feuille_2_26">
        <path id="_66730136" fill="#AC8660" stroke="#936D46" stroke-width="0.0762" d="M127.209 91.0636c1.8978,-2.3749 28.2033,-11.1757 30.5978,-12.3966 -0.2448,0.7343 -2.1813,0.0936 -1.9711,-0.6288l-31.4867 11.3082c0.2168,0.1945 0.7762,0.2391 1.8071,0.7293 1.1137,0.9028 0.6032,0.7567 1.0529,0.9879z"/>
        <path id="_76646808" fill="#AC8660" stroke="#936D46" stroke-width="0.0762" d="M145.323 74.5282c8.0467,0.6963 10.3643,3.5363 10.496,3.5148 -7.2692,2.5704 -10.5867,3.9066 -17.9489,6.4473 -5.8614,-2.8719 -4.8412,-7.8116 7.4529,-9.9621z"/>
        <path id="_77606112" fill="#AC8660" stroke="#936D46" stroke-width="0.0762" d="M140.577 85.6463c-0.9106,-0.339 0.0479,0.0106 -0.6957,-0.2972 -4.7413,1.7716 -11.2187,4.0886 -12.6724,5.7145 0,-0.0001 -0.2098,0.6895 -0.3855,0.9615 1.7292,-1.3563 10.2954,-5.4625 13.7536,-6.3788z"/>
        <path id="_65728280" fill="#AC8660" stroke="#936D46" stroke-width="0.0762" d="M139.881 85.3491c7.2064,-2.588 10.7191,-4.094 17.9254,-6.6821 5.1086,0.0895 11.9795,2.6127 13.8149,5.5555 -12.6012,2.7791 -20.1741,6.2053 -31.7403,1.1266z"/>
       </g>
       <g>
        <path id="_27685624" fill="#A37444" stroke="#9C8A74" stroke-width="0.0762" d="M120.853 64.8368c4.7287,0 8.5643,0.8523 8.5643,1.9032 0,1.0507 -3.8356,1.903 -8.5643,1.903 -4.7296,0 -8.565,-0.8523 -8.565,-1.903 0,-1.0509 3.8354,-1.9032 8.565,-1.9032z"/>
        <path id="_78213104" fill="#A37444" stroke="#9C8A74" stroke-width="0.0762" d="M112.288 66.7427c-0.1542,13.0531 0.1544,26.3307 0,39.3839 0.2302,2.3448 16.4717,2.704 17.1293,0l-0.0226 -39.3839c-0.5371,2.5491 -16.762,2.5159 -17.1067,0z"/>
       </g>
       <path id="_66787152" fill="#998D27" stroke="#734D27" stroke-width="0.0762" d="M112.428 94.1263c0.303,-2.4772 -0.7546,-12.1103 -0.11,-14.8302 0.6899,-4.7983 1.6633,-4.2721 2.2792,-6.4749 2.8325,6.3489 14.7522,7.7721 14.8098,15.2648 -0.1437,4.541 0.5424,3.388 0.0025,4.2563 -2.1363,0.9631 -17.3666,5.3565 -16.9815,1.784z"/>
       <g id="feuille_27">
        <path id="_45415376" fill="#AC8660" stroke="#936D46" stroke-width="0.0762" d="M114.07 94.1676c-1.6742,1.9399 -27.4323,13.1432 -29.4431,14.4115 -0.1371,0.7845 1.3936,1.0493 1.5066,0.6091l31.4024 -13.5032c-0.303,-0.2535 -1.2449,-0.1638 -2.1924,-0.5126 -1.0537,-0.7054 -1.1017,-1.1992 -1.2735,-1.0048z"/>
        <path id="_76643432" fill="#AC8660" stroke="#936D46" stroke-width="0.0762" d="M102.465 115.163c-4.36,-5.1062 -13.0151,-6.4929 -16.3313,-5.9749l19.1328 -8.2638c5.394,2.0572 7.8536,11.354 -2.8015,14.2387z"/>
        <path id="_78025120" fill="#AC8660" stroke="#936D46" stroke-width="0.0762" d="M106.15 101.329c-0.3173,-0.1694 -0.5224,-0.2631 -0.8835,-0.4041l12.2696 -5.2394c-0.3831,3.0313 -8.2644,3.3675 -11.3861,5.6435z"/>
        <path id="_77500672" fill="#AC8660" stroke="#936D46" stroke-width="0.0762" d="M114.978 94.2305c0.0335,-0.141 1.0845,-0.9962 1.4498,-0.933 0.3785,0.1472 0.8192,1.9141 0.1777,1.843 -0.1598,-0.0177 -0.7533,-0.0933 -1.0297,-0.2472 -0.3335,-0.1859 -0.6192,-0.5722 -0.5978,-0.6628z"/>
        <path id="_77065496" fill="#AC8660" stroke="#936D46" stroke-width="0.0762" d="M103.043 99.9986c-6.1369,2.8609 -12.2738,5.7219 -18.4108,8.5829 -1.0701,-1.2813 -9.891,-3.4582 -15.7881,-2.0716 10.1865,-4.6115 23.6024,-10.0526 34.1989,-6.5113z"/>
        <path id="_66874992" fill="#AC8660" stroke="#936D46" stroke-width="0.0762" d="M102.465 115.163c-4.3667,-3.7259 -11.8258,-5.828 -16.6375,-4.5628 -0.1168,0.559 -1.6631,-0.1331 -1.5017,-0.6323 -2.6044,-1.9232 -5.0681,-4.2577 -15.9466,-3.3131 4.8593,-1.415 14.0331,-0.2945 16.2533,1.9266 -0.1112,0.5014 1.3874,1.1189 1.5012,0.6067 4.7576,-0.9333 13.5896,2.14 16.3313,5.9749z"/>
       </g>
      </g>
      <g id="StpPos_Lat_28">
       <g id="feuille_2_29">
        <path id="_66364856" fill="#AC8660" stroke="#936D46" stroke-width="0.0762" d="M127.209 20.0611c1.8977,-2.3748 28.2032,-11.1756 30.5978,-12.3965 -0.2449,0.7343 -2.1813,0.0936 -1.9711,-0.6288l-31.4868 11.3082c0.2169,0.1944 0.7763,0.239 1.8071,0.7293 1.1137,0.9028 0.6032,0.7566 1.053,0.9878z"/>
        <path id="_66859536" fill="#AC8660" stroke="#936D46" stroke-width="0.0762" d="M145.323 3.5258c8.0468,0.6962 10.3643,3.5363 10.4961,3.5148 -7.2693,2.5704 -10.5868,3.9065 -17.949,6.4472 -5.8613,-2.8719 -4.8412,-7.8115 7.4529,-9.962z"/>
        <path id="_67131280" fill="#AC8660" stroke="#936D46" stroke-width="0.0762" d="M140.577 14.6438c-0.9106,-0.339 0.048,0.0107 -0.6957,-0.2972 -4.7412,1.7717 -11.2187,4.0887 -12.6723,5.7145 0,0 -0.2098,0.6895 -0.3855,0.9616 1.7291,-1.3563 10.2953,-5.4625 13.7535,-6.3789z"/>
        <path id="_76609040" fill="#AC8660" stroke="#936D46" stroke-width="0.0762" d="M139.881 14.3466c7.2063,-2.588 10.719,-4.0939 17.9254,-6.682 5.1085,0.0894 11.9794,2.6127 13.8148,5.5555 -12.6012,2.779 -20.1741,6.2052 -31.7402,1.1265z"/>
       </g>
       <path id="_77762448" fill="#998D27" stroke="#734D27" stroke-width="0.0762" d="M127.702 0.4671c-3.5015,5.8196 -9.3643,7.2507 -9.3908,11.6213 0.0818,3.2704 0.9483,3.2508 1.2558,3.8761 2.3077,2.9492 6.3161,1.4962 7.6759,1.416 -0.7729,-5.791 -0.2948,-12.3273 0.4591,-16.9134z"/>
       <g>
        <path id="_77134688" fill="none" stroke="#A09483" stroke-width="0.0762" d="M120.853 7.5328c4.7288,0 8.5644,0.8523 8.5644,1.9033 0,1.0507 -3.8356,1.903 -8.5644,1.903 -4.7296,0 -8.5649,-0.8523 -8.5649,-1.903 0,-1.051 3.8353,-1.9033 8.5649,-1.9033z"/>
       </g>
      </g>
     </g>
    </g>
    <path fill="none" stroke="#AAA9A9" stroke-width="0.0762" d="M112.288 9.4387c-0.1543,13.0533 0.1544,26.331 0,39.3844 0.2302,2.3448 16.4717,2.704 17.1293,0l-0.0227 -39.3843c-0.5371,2.5491 -16.762,2.5159 -17.1066,-0.0001z"/>
   </g>
   <path id="_66862688" fill="#99FF00" stroke="black" stroke-width="0.0762" d="M117.536 40.0546c0.2182,-1.7841 1.7484,-3.9471 3.104,-5.1419 1.5791,-1.4822 3.6171,-5.7506 3.7425,-7.3372 0.1662,-2.1038 -0.162,0.8212 1.4966,2.3045 1.6674,1.2767 2.2201,2.6834 2.2468,6.1419 -0.1036,3.2705 -1.1989,3.2508 -1.5877,3.8761 -2.9173,2.9492 -7.9845,1.4962 -9.7036,1.416 0.3514,-0.3946 0.6365,-0.6581 0.7014,-1.2594z"/>
   <path id="_66397032" fill="#99FF00" fill-opacity="0.501961" stroke="black" stroke-width="0.0762" stroke-dasharray="0.762000 0.228600" stroke-opacity="0.501961" d="M112.29 29.8245c1.7853,-0.9522 3.6597,-3.1202 4.8928,-4.5999 1.345,2.1791 2.533,2.3563 3.953,3.3515 1.1837,0.8009 3.7847,3.539 3.2129,5.14 -0.8342,0.5002 -0.9221,0.4667 -1.1038,1.2204 -3.0564,-0.1793 -6.6663,1.3012 -8.9257,2.105 0.1249,-1.2628 -1.4202,-3.47 -2.0187,-4.5999 -0.0044,-1.1489 -0.0173,-0.9111 -0.0105,-2.6171z"/>
   <path id="_66514536" fill="#99FF00" stroke="black" stroke-width="0.0762" d="M111.595 30.3981c0.3292,-0.5157 0.2201,-0.2342 0.6945,-0.5736 -0.0003,1.3437 -0.0008,1.2706 0.0065,2.6086 -0.3895,-0.8504 -0.4992,-1.2043 -0.701,-2.035z"/>
   <path id="_66280464" fill="#99FF00" stroke="black" stroke-width="0.0762" d="M111.935 39.925c1.716,-0.9248 2.0099,-1.2639 2.1346,-1.3877 1.1119,-3.3125 -1.5838,-4.2096 -2.4745,-8.1392 -2.5512,5.3471 -1.0124,6.9411 0.3399,9.5269z"/>
   <g id="feuille_30">
    <path id="_77042664" fill="#E5E5E5" stroke="#7F7F7F" stroke-width="0.0762" d="M114.07 38.5373c-1.6742,1.9398 -27.4324,13.1431 -29.4431,14.4114 -0.1372,0.7846 1.3936,1.0494 1.5065,0.6092l31.4025 -13.5033c-0.303,-0.2535 -1.245,-0.1638 -2.1924,-0.5125 -1.0537,-0.7055 -1.1018,-1.1993 -1.2735,-1.0048z"/>
    <path id="_67085592" fill="#E5E5E5" stroke="#7F7F7F" stroke-width="0.0762" d="M102.465 59.5328c-4.36,-5.1062 -13.0152,-6.493 -16.3314,-5.9749l19.1329 -8.2638c5.394,2.0572 7.8536,11.3539 -2.8015,14.2387z"/>
    <path id="_76466432" fill="#E5E5E5" stroke="#7F7F7F" stroke-width="0.0762" d="M106.15 45.6981c-0.3172,-0.1694 -0.5224,-0.2631 -0.8834,-0.404l12.2696 -5.2395c-0.3831,3.0314 -8.2644,3.3675 -11.3862,5.6435z"/>
    <path id="_76599920" fill="#E5E5E5" stroke="#7F7F7F" stroke-width="0.0762" d="M114.978 38.6001c0.0335,-0.141 1.0844,-0.9962 1.4497,-0.9329 0.3786,0.1472 0.8192,1.914 0.1778,1.843 -0.1598,-0.0178 -0.7534,-0.0933 -1.0297,-0.2473 -0.3335,-0.1858 -0.6193,-0.5722 -0.5978,-0.6628z"/>
    <path id="_76955048" fill="#E5E5E5" stroke="#7F7F7F" stroke-width="0.0762" d="M103.043 44.3682c-6.137,2.8609 -12.2739,5.7219 -18.4108,8.5829 -1.0702,-1.2812 -9.891,-3.4582 -15.7882,-2.0716 10.1866,-4.6115 23.6025,-10.0526 34.199,-6.5113z"/>
    <path id="_66730400" fill="#E5E5E5" stroke="#7F7F7F" stroke-width="0.0762" d="M102.465 59.5328c-4.3668,-3.726 -11.8259,-5.8281 -16.6376,-4.5628 -0.1168,0.5589 -1.6631,-0.1332 -1.5017,-0.6324 -2.6043,-1.9232 -5.0681,-4.2577 -15.9465,-3.3131 4.8593,-1.4149 14.033,-0.2944 16.2533,1.9266 -0.1112,0.5015 1.3874,1.1189 1.5011,0.6068 4.7577,-0.9334 13.5896,2.1399 16.3314,5.9749z"/>
   </g>
   <path id="_78612056" fill="#99FF00" fill-opacity="0.501961" stroke="black" stroke-width="0.0762" stroke-dasharray="0.762000 0.228600" stroke-opacity="0.501961" d="M111.935 39.925c1.8537,-0.9962 2.1346,-1.3878 2.1346,-1.3878 -0.2775,0.9343 -0.4129,1.5176 -0.3832,2.2636 -0.7647,0.0436 -1.4926,-0.4842 -1.7514,-0.8758z"/>
   <path id="_77180816" fill="#99FF00" stroke="black" stroke-width="0.0762" d="M130.318 2.2505c-3.5015,5.8196 -9.3643,7.2506 -9.3909,11.6212 0.0819,3.2705 0.9483,3.2508 1.2559,3.8762 2.3077,2.9492 6.316,1.4962 7.6758,1.416 -0.7728,-5.791 -0.2947,-12.3273 0.4592,-16.9134z"/>
  </g>
 </g>
<image xlink:href="tick.gif" id="imgtick" x="-100" y="-100" width="15" height="15"/>
<rect id="recttooltip" x="-100" y="-100" width="55" height="6" fill-opacity="0.4" pointer-events="none"/>
<text id="textboxid" x="-100" y="-100" pointer-events="none"> </text>
</a></svg>
