<?xml version="1.0" encoding="UTF-8"?>
<!DOCTYPE svg PUBLIC "-//W3C//DTD SVG 1.1//EN" "http://www.w3.org/Graphics/SVG/1.1/DTD/svg11.dtd">
<!-- Creator: CorelDRAW -->
<svg xmlns="http://www.w3.org/2000/svg" xml:space="preserve" shape-rendering="geometricPrecision" text-rendering="geometricPrecision" image-rendering="optimizeQuality" fill-rule="evenodd" clip-rule="evenodd"
viewBox="0 0 240 180"
 xmlns:xlink="http://www.w3.org/1999/xlink">
<a>
 <g id="Layer_x0020_1">
  <metadata id="CorelCorpID_0Corel-Layer"/>
  <rect fill="none" x="-0.0001" y="-0.0001" width="240" height="180"/>
  <g id="Stp_Annul_B" onclick="parent.replacechar('Stp_Annul_B')" onmousemove="parent.showtooltip('Stp_Annul_B', 'Ficus type of annular stipule')" onmouseout="parent.hidetooltip('Stp_Annul_B')" cursor="pointer" >
   <g id="feuille_2">
    <path id="_76646272" fill="#E5E5E5" stroke="#AAA9A9" stroke-width="0.0762" d="M181.338 103.974c-2.3158,-5.028 -35.3666,-36.3559 -38.3585,-39.8754 0.2818,1.3295 2.7656,1.5857 2.5272,0.298l39.5301 38.7296c-0.283,0.1664 -0.995,-0.1311 -2.323,-0.0302 -1.4495,0.7028 -0.7957,0.8065 -1.3758,0.878z"/>
    <path id="_78613288" fill="#E5E5E5" stroke="#AAA9A9" stroke-width="0.0762" d="M158.991 65.7371c-10.2436,-4.1926 -13.2978,-1.2009 -13.4642,-1.3218 9.1277,8.8772 13.287,13.188 22.534,22.0793 7.5547,-0.7082 6.4541,-9.2386 -9.0698,-20.7575z"/>
    <path id="_77821576" fill="#E5E5E5" stroke="#AAA9A9" stroke-width="0.0762" d="M164.58 86.551c1.1694,0.0604 -0.0613,-0.0147 0.895,-0.0146 5.9496,5.9414 14.0822,13.894 15.8636,17.438 0,0 0.2392,1.2352 0.4516,1.7837 -2.1419,-3.2967 -12.8559,-15.4715 -17.2102,-19.2071z"/>
    <path id="_77448560" fill="#E5E5E5" stroke="#AAA9A9" stroke-width="0.0762" d="M165.474 86.5363c-9.0473,-8.8637 -13.4476,-13.5733 -22.4948,-22.4373 -6.4894,-3.2225 -15.312,-3.734 -17.7582,-0.2613 15.8889,12.7212 25.3686,23.16 40.253,22.6986z"/>
   </g>
   <g id="feuille">
    <path id="_77851008" fill="#E5E5E5" stroke="#AAA9A9" stroke-width="0.0762" d="M192.096 74.6919c0.9055,-3.1666 23.5289,-22.9499 25.4127,-25.1709 0.0623,0.8365 -2.1413,1.0046 -2.2328,0.1948l-26.7559 24.4537c0.2975,0.1037 0.8759,-0.0848 2.1113,-0.0255 1.4904,0.4369 0.9187,0.5045 1.4647,0.5479z"/>
    <path id="_76727016" fill="#E5E5E5" stroke="#AAA9A9" stroke-width="0.0762" d="M203.3 50.5963c8.335,-2.6643 11.8379,-0.7929 11.9609,-0.869 -6.1939,5.6051 -8.9526,8.3262 -15.2514,13.9405 -7.0596,-0.4234 -8.1023,-5.7878 3.2905,-13.0715z"/>
    <path id="_66401272" fill="#E5E5E5" stroke="#AAA9A9" stroke-width="0.0762" d="M203.198 63.6934c-1.0518,0.0415 0.0526,-0.0092 -0.8196,-0.0064 -4,3.7508 -9.5081,8.7723 -10.2826,11.0049 0,0 0.0781,0.7768 0.0166,1.1221 1.1618,-2.0782 8.0112,-9.7603 11.0856,-12.1206z"/>
    <path id="_78565040" fill="#E5E5E5" stroke="#AAA9A9" stroke-width="0.0762" d="M202.378 63.687c6.1237,-5.5965 9.0066,-8.5691 15.1301,-14.166 5.1448,-2.0436 13.0673,-2.3905 16.131,-0.2147 -11.4366,8.0404 -17.5771,14.6281 -31.2611,14.3807z"/>
   </g>
   <path id="_77813056" fill="#BF9B76" stroke="#838281" stroke-width="0.0762" d="M179.673 69.5944c0.0373,10.0016 0.0928,40.7031 -0.0235,63.4219 0.0274,3.3026 12.5956,3.1883 12.6452,-0.0029l0.0265 -63.7031c-0.0021,4.815 -12.6346,4.6278 -12.6482,0.2841z"/>
   <path id="_77780488" fill="#663300" stroke="black" stroke-width="0.0762" d="M192.306 107.431c-1.1771,2.6719 -12.3053,2.732 -12.5975,0.0025 0.002,-0.4191 -0.0015,-0.5578 0.0004,-0.977 0.0819,2.6432 11.9406,3.0124 12.5974,-0.0031 -0.0019,0.4192 0.0016,0.5585 -0.0003,0.9776z"/>
   <path id="_78567016" fill="#663300" fill-opacity="0.501961" stroke="black" stroke-width="0.0762" stroke-linejoin="round" stroke-dasharray="0.762000 0.228600" stroke-opacity="0.501961" d="M192.307 104.625c-1.1447,-1.9272 -5.545,-2.1988 -8.0806,-1.9106 -0.1186,0.5897 -0.155,0.4812 -0.1854,1.1261 2.5213,-0.7594 7.9598,-0.4354 8.2656,1.762 -0.0019,-0.4192 0.0023,-0.5584 0.0004,-0.9775z"/>
   <path id="_77197704" fill="#E5E5E5" stroke="#AAA9A9" stroke-width="0.0762" stroke-linejoin="round" d="M187.57 44.5499c-12.2056,31.8901 -1.429,28.819 4.7931,26.0879 0.6967,-12.5574 -4.1053,-20.1885 -4.7931,-26.0879z"/>
   <path id="_65728152" fill="#E5E5E5" fill-opacity="0.501961" stroke="#AAA9A9" stroke-width="0.0762" stroke-linejoin="round" stroke-dasharray="0.762000 0.381000" stroke-opacity="0.501961" d="M187.096 62.464c1.8396,3.0779 4.2869,9.4423 -0.2572,10.7081 -0.6253,-0.0201 -1.3721,-0.1602 -2.2579,-0.4436 -1.0859,-3.2927 -1.9627,-2.1928 2.5151,-10.2645z"/>
   <path id="_78256328" fill="#663300" fill-opacity="0.501961" stroke="black" stroke-width="0.0762" stroke-linejoin="round" stroke-dasharray="0.762000 0.228600" stroke-opacity="0.501961" d="M179.71 105.477c0.2553,-0.2144 0.9328,-0.5939 1.2133,-0.6778 0.1822,0.2537 0.3488,0.4769 0.6881,0.7123 -0.4644,-0.2135 -1.4982,0.2517 -1.901,0.943 0.0019,-0.4192 -0.0023,-0.5584 -0.0004,-0.9775z"/>
   <path id="_76843864" fill="#663300" stroke="black" stroke-width="0.0762" d="M192.306 74.7498c-1.1771,2.6718 -12.3053,2.7319 -12.5975,0.0025 0.002,-0.4192 -0.0015,-0.5579 0.0004,-0.9771 0.0819,2.6433 11.9406,3.0125 12.5974,-0.0031 -0.0019,0.4192 0.0016,0.5585 -0.0003,0.9777z"/>
   <path id="stipule" fill="#99FF00" stroke="black" stroke-width="0.0762" stroke-linejoin="round" d="M179.879 74.6852c1.5446,4.612 13.8798,0.6317 12.3244,-4.6023 -10.5913,7.5819 -12.5321,-4.6277 -13.1227,-23.6889 -1.2151,9.8 -2.0613,13.84 0.7983,28.2912z"/>
  </g>
  <g id="Stp_Annul_A" onclick="parent.replacechar('Stp_Annul_A')" onmousemove="parent.showtooltip('Stp_Annul_A', 'Special annular stipule')" onmouseout="parent.hidetooltip('Stp_Annul_A')" cursor="pointer" >
   <g>
    <path id="_76491472" fill="#BF9B76" stroke="#838281" stroke-width="0.0762" d="M64.5197 86.4295c3.6819,0 6.6678,0.9675 6.6678,2.1603 0,1.193 -2.9859,2.1604 -6.6678,2.1604 -3.6816,0 -6.6676,-0.9674 -6.6676,-2.1604 0,-1.1928 2.986,-2.1603 6.6676,-2.1603z"/>
    <path id="_76466456" fill="#BF9B76" stroke="#838281" stroke-width="0.0762" d="M57.8521 88.5929c-0.12,14.8175 0.1202,29.8896 0,44.7073 0.1794,2.6615 12.8233,3.069 13.3354,0l-0.0174 -44.707c-0.418,2.8934 -13.0495,2.8561 -13.318,-0.0003z"/>
   </g>
   <path id="_77445688" fill="#99FF00" stroke="black" stroke-width="0.0762" d="M54.2389 107.952c1.621,0.8684 5.0922,1.323 5.2907,6.3664 -0.1239,0.1552 -0.485,0.3762 -0.7695,0.5509 -1.3885,-1.5872 -3.4106,-4.8352 -4.5212,-6.9173z"/>
   <path id="_76633160" fill="#99FF00" stroke="black" stroke-width="0.0762" d="M61.8287 115.325c-0.0187,0.2724 -0.2386,0.7108 -0.7201,1.0426 7.0481,0.4298 13.7537,-2.699 14.0203,-10.7212 -2.3693,6.6636 -10.4657,-0.2517 -13.3002,9.6786z"/>
   <path id="_67138568" fill="#99FF00" stroke="black" stroke-width="0.0762" d="M57.8539 109.928c-0.0026,-0.6808 -0.0109,-7.5121 -0.0153,-7.4742 -5.3177,1.0851 -4.2875,3.4562 -3.5997,5.4983 1.5562,0.6843 2.9124,1.2358 3.615,1.9759z"/>
   <path id="_66518576" fill="#99FF00" stroke="black" stroke-width="0.0762" d="M71.1803 108.926c-0.0009,-2.3285 -0.0018,-4.3909 -0.0027,-6.7195 2.9255,0.7688 4.0226,2.5026 3.9495,3.4403 -0.2713,0.7776 -0.9276,2.7053 -3.9468,3.2792z"/>
   <path id="_77488456" fill="#99FF00" fill-opacity="0.501961" stroke="black" stroke-width="0.0762" stroke-linejoin="round" stroke-dasharray="0.762000 0.381000" stroke-opacity="0.501961" d="M57.8635 113.554c-0.0142,-4.1737 -0.0289,-7.88 -0.0415,-11.1004 4.0703,-1.0967 11.2843,-0.9661 13.3408,-0.2477 0.0016,3.9822 0.0029,7.3768 0.0104,11.3475 -0.2625,-2.8634 -13.0719,-2.8576 -13.3097,0.0006z"/>
   <g id="feuille_0">
    <path id="_77604520" fill="#E5E5E5" stroke="#AAA9A9" stroke-width="0.0762" d="M59.5296 114.319c-1.1106,1.2868 -18.197,8.7184 -19.5308,9.5597 -0.091,0.5204 0.9244,0.6961 0.9993,0.4041l20.8306 -8.9573c-0.201,-0.1681 -0.8259,-0.1086 -1.4544,-0.3399 -0.6989,-0.468 -0.7308,-0.7956 -0.8447,-0.6666z"/>
    <path id="_76615088" fill="#E5E5E5" stroke="#AAA9A9" stroke-width="0.0762" d="M51.8314 128.246c-2.8922,-3.3872 -8.6335,-4.3071 -10.8333,-3.9634l12.6916 -5.4817c3.5781,1.3646 5.2096,7.5315 -1.8583,9.4451z"/>
    <path id="_76636112" fill="#E5E5E5" stroke="#AAA9A9" stroke-width="0.0762" d="M54.2757 119.069c-0.2104,-0.1123 -0.3465,-0.1745 -0.586,-0.268l8.139 -3.4756c-0.2542,2.0109 -5.4821,2.2338 -7.553,3.7436z"/>
    <path id="_76528152" fill="#E5E5E5" stroke="#AAA9A9" stroke-width="0.0762" d="M60.1322 114.36c0.0223,-0.0935 0.7194,-0.6608 0.9617,-0.6189 0.2511,0.0977 0.5434,1.2697 0.1179,1.2226 -0.106,-0.0118 -0.4997,-0.0619 -0.683,-0.164 -0.2213,-0.1233 -0.4108,-0.3796 -0.3966,-0.4397z"/>
    <path id="_66506928" fill="#E5E5E5" stroke="#AAA9A9" stroke-width="0.0762" d="M52.215 118.187c-4.0709,1.8978 -8.1417,3.7956 -12.2126,5.6934 -0.7099,-0.8499 -6.5611,-2.294 -10.473,-1.3742 6.7572,-3.0589 15.6565,-6.6683 22.6856,-4.3192z"/>
    <path id="_65776456" fill="#E5E5E5" stroke="#AAA9A9" stroke-width="0.0762" d="M51.8314 128.246c-2.8966,-2.4716 -7.8446,-3.866 -11.0364,-3.0267 -0.0774,0.3708 -1.1032,-0.0883 -0.9961,-0.4195 -1.7276,-1.2757 -3.3619,-2.8243 -10.578,-2.1977 3.2234,-0.9386 9.3087,-0.1953 10.7815,1.278 -0.0738,0.3326 0.9203,0.7422 0.9957,0.4025 3.156,-0.6191 9.0145,1.4195 10.8333,3.9634z"/>
   </g>
   <path id="_77745376" fill="#99FF00" fill-opacity="0.501961" stroke="black" stroke-width="0.0762" stroke-linejoin="round" stroke-dasharray="0.762000 0.381000" stroke-opacity="0.501961" d="M59.5296 114.319c-0.1081,0.2893 -0.2659,0.8631 -0.1822,1.1665 -0.0645,-0.2352 -0.4804,-0.4917 -0.5873,-0.6156 0.323,-0.2019 0.5944,-0.3565 0.7695,-0.5509z"/>
  </g>
 </g>
<image xlink:href="tick.gif" id="imgtick" x="-100" y="-100" width="15" height="15"/>
<rect id="recttooltip" x="-100" y="-100" width="55" height="6" fill-opacity="0.4" pointer-events="none"/>
<text id="textboxid" x="-100" y="-100" pointer-events="none"> </text>
</a></svg>
