<?xml version="1.0" encoding="UTF-8"?>
<!DOCTYPE svg PUBLIC "-//W3C//DTD SVG 1.1//EN" "http://www.w3.org/Graphics/SVG/1.1/DTD/svg11.dtd">
<!-- Creator: CorelDRAW -->
<svg xmlns="http://www.w3.org/2000/svg" xml:space="preserve" shape-rendering="geometricPrecision" text-rendering="geometricPrecision" image-rendering="optimizeQuality" fill-rule="evenodd" clip-rule="evenodd"
viewBox="0 0 240 180"
 xmlns:xlink="http://www.w3.org/1999/xlink">
<a>
 <g id="Layer_x0020_1">
  <metadata id="CorelCorpID_0Corel-Layer"/>
  <rect fill="none" width="240" height="180"/>
  <g id="VenIntra_No" onclick="parent.replacechar('VenIntra_No')" onmousemove="parent.showtooltip('VenIntra_No', 'Secondary nerves not looped')" onmouseout="parent.hidetooltip('VenIntra_No')" cursor="pointer" >
   <path id="pas_x0020_visible" fill="#B9CC76" stroke="#4C4C4C" stroke-width="0.0762" stroke-linejoin="bevel" d="M203.721 132.938l-0.3593 -4.4913c-4.2814,-2.8745 -9.7011,-3.8925 -12.9047,-8.7134 -3.204,-4.7907 -6.4377,-13.2041 -6.4976,-20.3605 -0.0297,-7.1861 1.5873,-15.0308 4.671,-23.6541 3.1738,-8.6832 8.0602,-19.1641 15.4858,-28.6559 7.665,9.0127 10.863,19.1047 14.5158,27.9076 3.4134,8.3837 5.1803,16.6774 4.9704,25.3308 -0.2094,7.4855 -3.2936,15.0309 -6.6169,19.5222 -3.3238,4.6407 -7.6954,6.1081 -11.7076,8.6831l-0.4791 4.4315 -1.0778 0z"/>
   <g id="nervures_x0020_droite">
    <path id="nervure" fill="none" stroke="#4C4C4C" stroke-width="0.0762" d="M203.935 124.162c-5.1944,-2.3159 -13.2688,-6.5144 -16.8909,-14.1886"/>
    <path id="nervure_0" fill="none" stroke="#4C4C4C" stroke-width="0.0762" d="M203.935 119.593c-9.4149,-5.8891 -16.5692,-12.0646 -18.6581,-21.9705"/>
    <path id="nervure_1" fill="none" stroke="#4C4C4C" stroke-width="0.0762" d="M203.935 113.822c-12.5996,-11.1779 -14.6511,-16.774 -17.2264,-27.5575"/>
    <path id="nervure_2" fill="none" stroke="#4C4C4C" stroke-width="0.0762" d="M203.935 104.266c-9.7876,-9.4278 -11.7873,-14.7268 -14.6155,-27.6304"/>
    <path id="nervure_3" fill="none" stroke="#4C4C4C" stroke-width="0.0762" d="M203.935 93.1265c-8.0169,-8.1564 -10.4822,-16.2827 -11.1693,-26.3277"/>
    <path id="nervure_4" fill="none" stroke="#4C4C4C" stroke-width="0.0762" d="M203.969 82.6709c-5.5743,-6.6825 -8.0123,-17.7116 -7.3013,-23.0292"/>
    <path id="nervure_5" fill="none" stroke="#4C4C4C" stroke-width="0.0762" d="M203.984 71.919c-3.9841,-5.792 -5.9102,-14.0916 -4.9675,-17.1378"/>
    <path id="nervure_6" fill="none" stroke="#4C4C4C" stroke-width="0.0762" d="M204.02 63.7716c-2.6176,-4.6491 -3.3979,-9.108 -2.8668,-12.0894"/>
    <path id="nervure_7" fill="none" stroke="#4C4C4C" stroke-width="0.0762" d="M203.978 57.7964c-2.2466,-4.1589 -1.5652,-6.8303 -1.3581,-7.9451"/>
   </g>
   <g id="nervures_x0020_gauche">
    <path id="nervure_8" fill="none" stroke="#4C4C4C" stroke-width="0.0762" d="M204.615 125.216c5.1376,-2.5867 13.1932,-8.2726 16.4937,-16.1282"/>
    <path id="nervure_9" fill="none" stroke="#4C4C4C" stroke-width="0.0762" d="M204.509 120.249c9.2333,-6.3777 16.2873,-13.9067 17.9355,-23.9106"/>
    <path id="nervure_10" fill="none" stroke="#4C4C4C" stroke-width="0.0762" d="M204.388 114.555c12.203,-11.8277 14.636,-17.6621 16.7346,-28.5681"/>
    <path id="nervure_11" fill="none" stroke="#4C4C4C" stroke-width="0.0762" d="M204.186 105.073c9.4449,-9.9316 11.7362,-16.0245 13.9915,-29.0614"/>
    <path id="nervure_12" fill="none" stroke="#4C4C4C" stroke-width="0.0762" d="M204.046 93.7482c7.7159,-8.5687 9.8964,-17.3484 10.1225,-27.4174"/>
    <path id="nervure_13" fill="none" stroke="#4C4C4C" stroke-width="0.0762" d="M203.715 82.921c5.3179,-6.9679 7.6457,-18.8666 6.6801,-24.1402"/>
    <path id="nervure_14" fill="none" stroke="#4C4C4C" stroke-width="0.0762" d="M204.348 71.0743c3.7537,-5.9946 5.4205,-14.7049 4.3268,-17.6978"/>
    <path id="nervure_15" fill="none" stroke="#4C4C4C" stroke-width="0.0762" d="M204.269 62.9475c2.4268,-4.7813 3.0072,-9.2758 2.3321,-12.2256"/>
    <path id="nervure_16" fill="none" stroke="#4C4C4C" stroke-width="0.0762" d="M204.521 57.1878c2.0751,-3.6315 1.2988,-6.1315 1.0378,-7.0687"/>
   </g>
   <rect id="nerv_x0020_I" fill="#B9CC76" stroke="#4C4C4C" stroke-width="0.0762" x="203.963" y="48.0375" width="0.530049" height="79.5074"/>
   <g id="margin">
    <path id="limbe" fill="#A6D10D" stroke="#7F7F7F" stroke-width="0.0762" d="M219.535 53.5371c6.202,6.9031 9.3231,20.4348 11.6531,27.9648 -6.9007,6.5629 -17.5745,6.7622 -24.5827,0.1302 -4.3483,-4.3084 -8.1501,-12.8895 -1.3797,-21.8362 4.1605,-5.0218 9.2276,-6.4117 14.3093,-6.2588z"/>
    <g id="n_x0020_sommet_x0020_II">
     <path id="_76631712" fill="none" fill-rule="nonzero" stroke="#CCCCCC" stroke-width="0.0762" d="M210.694 78.8915c-3.4369,-5.7336 -6.15,-10.6594 -7.1552,-15.3821 0.3993,1.3916 0.12,0.5307 0,-0.0001 1.0038,4.7162 3.779,9.628 7.2134,15.3575l-0.0582 0.0247z"/>
     <path id="_65782888" fill="none" fill-rule="nonzero" stroke="#CCCCCC" stroke-width="0.0762" d="M210.753 65.5447c-2.4074,-5.3885 -2.8956,-5.6889 -3.2403,-8.0026l-0.0222 -0.1438c0.3452,2.3079 0.9231,2.7474 3.3273,8.1288l-0.0648 0.0176z"/>
    </g>
    <g id="nerv">
     <path id="_76981592" fill="none" stroke="#1F1A17" stroke-width="0.0762" d="M215.629 86.2333c0.8131,-1.2426 11.1927,-23.2602 9.4736,-23.3439"/>
     <path id="_76639008" fill="none" stroke="#1F1A17" stroke-width="0.0762" d="M210.653 77.467c0.8131,-1.2426 11.1927,-23.2602 9.4736,-23.3439"/>
     <path id="_78092528" fill="none" stroke="#1F1A17" stroke-width="0.0762" d="M224.573 85.5639c0.3823,-0.5842 5.2622,-10.9356 4.4539,-10.9749"/>
     <path id="_77353456" fill="none" stroke="#1F1A17" stroke-width="0.0762" d="M210.972 64.8259c0.3823,-0.5842 5.2622,-10.9356 4.454,-10.975"/>
    </g>
    <polygon id="nerv_x0020_I_17" fill="#CCCCCC" points="210.965,55.5923 210.971,84.5501 210.19,84.1145 210.19,55.5923 "/>
   </g>
   <ellipse id="domatia" fill="none" stroke="black" stroke-width="0.0762" cx="218.797" cy="70" rx="17.244" ry="16.5402"/>
  </g>
  <g id="VenIntra_Looped" onclick="parent.replacechar('VenIntra_Looped')" onmousemove="parent.showtooltip('VenIntra_Looped', 'Secondary nerves looped')" onmouseout="parent.hidetooltip('VenIntra_Looped')" cursor="pointer" >
   <g id="looped">
    <path id="pas_x0020_visible_18" fill="#B9CC76" stroke="#4C4C4C" stroke-width="0.0762" stroke-linejoin="bevel" d="M143.873 133.518l-0.3649 -4.5608c-4.3476,-2.919 -9.8512,-3.9527 -13.1043,-8.8481 -3.2536,-4.8649 -6.5373,-13.4085 -6.5981,-20.6756 -0.0302,-7.2972 1.6118,-15.2633 4.7432,-24.02 3.2229,-8.8175 8.4201,-19.2926 15.9605,-28.9312 7.7836,9.1521 10.7959,19.2322 14.5053,28.1714 3.4662,8.5134 5.2604,16.9354 5.0473,25.7227 -0.2126,7.6012 -3.3446,15.2633 -6.7193,19.8241 -3.3753,4.7125 -7.4723,6.3928 -11.5466,9.0077l-0.8286 4.3098 -1.0945 0z"/>
    <g id="nerv_x0020_droite">
     <path id="nervure_19" fill="none" stroke="#4C4C4C" stroke-width="0.0762" d="M144.983 103.885c12.7425,-20.9179 14.8559,-28.0036 8.0909,-39.3519"/>
     <path id="nervure_20" fill="none" stroke="#4C4C4C" stroke-width="0.0762" d="M144.983 92.1466c8.6852,-15.373 10.9994,-26.9711 5.1877,-33.8617"/>
     <path id="nervure_21" fill="none" stroke="#4C4C4C" stroke-width="0.0762" d="M144.746 79.4054c5.1682,-10.5295 8.7419,-20.0051 2.7583,-25.204"/>
     <path id="nervure_22" fill="none" stroke="#4C4C4C" stroke-width="0.0762" d="M144.851 67.8722c4.1642,-14.4879 2.9771,-16.314 -0.1332,-18.9911"/>
     <path id="nervure_23" fill="none" stroke="#4C4C4C" stroke-width="0.0762" d="M144.709 68.468c-4.6327,-15.1575 -3.9122,-16.8781 -0.3772,-19.4662"/>
     <path id="nervure_24" fill="none" stroke="#4C4C4C" stroke-width="0.0762" d="M144.854 111.86c16.9184,-16.0604 17.6428,-25.5228 11.6303,-39.2962"/>
     <path id="nervure_25" fill="none" stroke="#4C4C4C" stroke-width="0.0762" d="M144.854 120.163c16.9183,-16.0605 18.2243,-21.988 14.9085,-36.584"/>
     <path id="nervure_26" fill="none" stroke="#4C4C4C" stroke-width="0.0762" d="M144.854 128.934c13.936,-10.3728 19.6709,-21.2133 16.3551,-35.8093"/>
    </g>
    <g id="nerv_x0020_gauche">
     <path id="nervure_27" fill="none" stroke="#4C4C4C" stroke-width="0.0762" d="M144.958 107.067c-15.9546,-18.9677 -16.9612,-29.3847 -10.1269,-40.0779"/>
     <path id="nervure_28" fill="none" stroke="#4C4C4C" stroke-width="0.0762" d="M144.301 93.4949c-9.771,-14.8956 -12.8966,-26.0356 -6.1037,-32.7138"/>
     <path id="nervure_29" fill="none" stroke="#4C4C4C" stroke-width="0.0762" d="M144.762 81.1482c-5.7938,-10.2027 -10.1377,-20.6281 -3.172,-25.667"/>
     <path id="nervure_30" fill="none" stroke="#4C4C4C" stroke-width="0.0762" d="M144.594 113.213c-16.8521,-15.6555 -19.5003,-21.866 -13.7236,-35.2449"/>
     <path id="nervure_31" fill="none" stroke="#4C4C4C" stroke-width="0.0762" d="M144.652 121.489c-11.3568,-12.5062 -21.9017,-18.2774 -16.5499,-32.9973"/>
     <path id="nervure_32" fill="none" stroke="#4C4C4C" stroke-width="0.0762" d="M144.437 128.311c-13.8814,-10.1112 -19.9569,-16.0423 -17.5984,-30.1757"/>
    </g>
    <rect id="nerv_x0020_I_33" fill="#B9CC76" stroke="#4C4C4C" stroke-width="0.0762" x="144.419" y="48.1964" width="0.538249" height="80.7374"/>
   </g>
   <path id="limbe_34" fill="#A6D10D" stroke="#7F7F7F" stroke-width="0.0762" d="M159.688 53.537c6.2021,6.9031 9.3232,20.4348 11.6532,27.9648 -6.9008,6.5629 -17.5745,6.7622 -24.5828,0.1302 -4.3483,-4.3084 -8.1501,-12.8895 -1.3796,-21.8362 4.1604,-5.0218 9.2276,-6.4117 14.3092,-6.2588z"/>
   <path id="_66390864" fill="none" fill-rule="nonzero" stroke="black" stroke-width="0.0762" d="M167.183 79.114c1.2239,-5.9322 -0.5402,-10.9033 -4.3394,-16.7023l-0.061 -0.2152c4.0609,6.1984 5.9219,11.6406 4.1826,18.1299 -0.4945,1.8448 -0.8556,2.9669 -1.8914,5.0932l-0.089 0.0333c1.0396,-2.1317 1.4181,-3.2911 1.9134,-5.1391 0.1084,-0.4045 0.2033,-0.8043 0.2848,-1.1998"/>
   <path id="_77039672" fill="none" fill-rule="nonzero" stroke="black" stroke-width="0.0762" d="M162.788 69.3669c1.0157,-5.8182 -0.4646,-10.7047 -4.2274,-14.2945l-0.0712 -0.1809c3.9627,3.7805 5.5239,9.1333 4.1963,15.3505m0 0c-0.9551,4.4725 -3.1896,9.5473 -6.5731,15.1819l-0.0748 0c3.389,-5.6397 5.6269,-10.718 6.5822,-15.1919 0.0621,-0.2906 0.118,-0.579 0.168,-0.8651"/>
   <path id="_78030304" fill="none" fill-rule="nonzero" stroke="black" stroke-width="0.0762" d="M158.712 62.7103c0.7808,-3.4303 0.5908,-6.4879 -1.0579,-9.0142l0.0793 0c1.6402,2.5328 1.8271,5.5937 1.0462,9.025 -1.1091,4.8731 -4.1705,10.4939 -7.7902,16.4102l-0.0611 -0.0264c3.6171,-5.9122 6.6762,-11.5282 7.7837,-16.3946"/>
   <path id="_76679296" fill="none" fill-rule="nonzero" stroke="black" stroke-width="0.0762" d="M154.648 56.8295c0.3378,-1.1614 0.5295,-2.1291 0.5809,-2.9631l0.07 -0.0141c-0.1495,2.4336 -1.4877,6.0094 -4.1618,12.1845l-0.0645 -0.0193c1.753,-4.0478 2.9306,-6.971 3.5754,-9.188"/>
   <g id="n_x0020_sommet_x0020_II_35">
    <path id="_76527536" fill="none" fill-rule="nonzero" stroke="#CCCCCC" stroke-width="0.0762" d="M150.848 78.8914c-3.437,-5.7336 -6.1501,-10.6594 -7.1552,-15.3821 0.3993,1.3916 0.1199,0.5307 0,-0.0001 1.0037,4.7162 3.7789,9.628 7.2134,15.3575l-0.0582 0.0247z"/>
    <path id="_77268272" fill="none" fill-rule="nonzero" stroke="#CCCCCC" stroke-width="0.0762" d="M150.906 65.5446c-2.4074,-5.3885 -2.8956,-5.6889 -3.2403,-8.0026l-0.0221 -0.1438c0.3451,2.3079 0.9231,2.7474 3.3272,8.1288l-0.0648 0.0176z"/>
   </g>
   <polygon id="nerv_x0020_I_36" fill="#CCCCCC" points="151.119,55.5922 151.125,84.55 150.343,84.1144 150.343,55.5922 "/>
   <ellipse id="domatia_37" fill="none" stroke="black" stroke-width="0.0762" cx="158.95" cy="69.9999" rx="17.244" ry="16.5402"/>
  </g>
  <g id="VenIntra_Double" onclick="parent.replacechar('VenIntra_Double')" onmousemove="parent.showtooltip('VenIntra_Double', 'Intra marginal vein double')" onmouseout="parent.hidetooltip('VenIntra_Double')" cursor="pointer" >
   <g id="double">
    <g>
     <path id="_66280464" fill="#B9CC76" stroke="#4C4C4C" stroke-width="0.0762" stroke-linejoin="bevel" d="M83.7247 132.963l-0.3594 -4.4913c-4.2813,-2.8745 -9.7011,-3.8924 -12.9046,-8.7133 -3.204,-4.7907 -6.4377,-13.2042 -6.4976,-20.3606 -0.0297,-7.1861 1.5872,-15.0308 4.671,-23.6541 3.1738,-8.6831 8.2751,-19.2149 15.7006,-28.7068 7.6651,9.0128 10.6482,19.1557 14.301,27.9586 3.4134,8.3837 5.1802,16.6774 4.9704,25.3308 -0.2094,7.4854 -3.2937,15.0308 -6.6169,19.5221 -3.3239,4.6407 -7.6954,6.1082 -11.7076,8.6832l-0.4791 4.4314 -1.0778 0z"/>
     <rect id="nerv_x0020_I_38" fill="#4C4C4C" stroke="#4C4C4C" stroke-width="0.0762" x="84.0721" y="48.0182" width="0.530049" height="79.5074"/>
    </g>
    <path id="_77553448" fill="none" stroke="#4C4C4C" stroke-width="0.0762" stroke-linejoin="bevel" d="M84.0721 127.526c-4.1613,-2.7938 -10.1286,-3.6274 -13.2423,-8.3131 -3.1142,-4.6564 -6.2572,-12.8339 -6.3154,-19.7896 -0.0289,-6.9846 1.5427,-14.6094 4.54,-22.9908 3.0848,-8.4397 8.0655,-19.1882 15.2828,-28.4139 7.4501,8.76 10.3271,19.1305 13.8776,27.6866 3.3176,8.1486 5.0349,16.2098 4.831,24.6205 -0.2035,7.2755 -3.2013,14.6094 -6.4314,18.9747 -3.2306,4.5106 -8.3777,5.7227 -12.2774,8.2255l-0.2649 0.0001z"/>
    <path id="_79259744" fill="none" stroke="#4C4C4C" stroke-width="0.0762" stroke-linejoin="bevel" d="M84.0722 127.376c-3.9338,-2.6411 -9.5927,-4.848 -12.5362,-9.2775 -2.9439,-4.4018 -5.9151,-12.1323 -5.9701,-18.7077 -0.0273,-6.6028 1.4584,-13.8107 4.2918,-21.7339 2.9161,-7.9783 7.5085,-19.8977 14.3312,-28.619 7.0428,8.2811 9.8786,19.8431 13.2349,27.9315 3.1362,7.7031 4.7597,15.3235 4.5669,23.2745 -0.1924,6.8777 -3.0263,13.8106 -6.0798,17.9373 -3.054,4.264 -7.6221,6.7104 -11.3086,9.0764l-0.5301 0.1184z"/>
   </g>
   <g id="margin_39">
    <path id="limbe_40" fill="#A6D10D" stroke="black" stroke-width="0.0762" d="M99.4767 53.4725c6.202,6.9031 9.325,20.4227 11.6549,27.9527 -6.9007,6.5629 -17.1925,6.8587 -24.5307,0.2708 -4.3045,-4.7496 -8.0349,-12.5545 -1.5066,-21.8541 4.1605,-5.0218 9.3007,-6.5224 14.3824,-6.3694z"/>
    <g id="n_x0020_sommet_x0020_II_41">
     <path id="_77211760" fill="#CCCCCC" fill-rule="nonzero" stroke="#CCCCCC" stroke-width="0.0762" d="M101.937 85.5169c0.8258,-2.1317 1.1265,-3.2911 1.5199,-5.1391 1.3782,-6.473 0.1819,-11.562 -3.0373,-17.7477l0.0477 -0.0278c3.2259,6.1984 4.4245,11.2988 3.0428,17.7881 -0.3927,1.8448 -0.6796,2.9668 -1.5024,5.0932l-0.0707 0.0333z"/>
     <path id="_66397664" fill="#CCCCCC" fill-rule="nonzero" stroke="#CCCCCC" stroke-width="0.0762" d="M94.8293 85.4878c2.6921,-5.6397 4.4698,-10.718 5.2287,-15.1918 1.0517,-6.1995 0.1473,-11.2388 -2.9888,-15.0052l0.0396 -0.0374c3.1478,3.7805 4.056,8.8354 3.0013,15.0525 -0.7586,4.4726 -2.5337,9.5474 -5.2214,15.1819l-0.0594 0z"/>
     <path id="_66481160" fill="#CCCCCC" fill-rule="nonzero" stroke="#CCCCCC" stroke-width="0.0762" d="M90.7707 79.1688c2.8733,-5.9121 5.3034,-11.5281 6.1831,-16.3945 0.6202,-3.4303 0.4693,-6.488 -0.8404,-9.0142l0.0631 0c1.3028,2.5328 1.4513,5.5936 0.831,9.025 -0.881,4.8731 -3.3129,10.4938 -6.1883,16.4102l-0.0485 -0.0265z"/>
     <path id="_77268248" fill="#CCCCCC" fill-rule="nonzero" stroke="#CCCCCC" stroke-width="0.0762" d="M90.8856 66.0815c2.1219,-6.1682 3.1827,-9.7246 3.3016,-12.1512l0.0556 -0.014c-0.1187,2.4336 -1.1817,6.0094 -3.306,12.1844l-0.0512 -0.0192z"/>
    </g>
    <g id="n_x0020_sommet_x0020_II_42">
     <path id="_77543464" fill="#CCCCCC" fill-rule="nonzero" stroke="#CCCCCC" stroke-width="0.0762" d="M90.6902 78.9554c-3.4369,-5.7336 -6.15,-10.6594 -7.1552,-15.3821 0.3993,1.3916 0.12,0.5307 0,-0.0002 1.0038,4.7162 3.779,9.6281 7.2134,15.3576l-0.0582 0.0247z"/>
     <path id="_27656448" fill="#CCCCCC" fill-rule="nonzero" stroke="#CCCCCC" stroke-width="0.0762" d="M90.7485 65.6086c-2.4074,-5.3886 -2.8956,-5.689 -3.2403,-8.0027l-0.0221 -0.1438c0.3451,2.3079 0.923,2.7475 3.3272,8.1288l-0.0648 0.0177z"/>
    </g>
    <polygon id="nerv_x0020_I_43" fill="#CCCCCC" points="90.9613,55.6562 90.9669,84.614 90.1854,84.1784 90.1854,55.6562 "/>
    <path id="_77053768" fill="none" stroke="#1F1A17" stroke-width="0.1763" d="M98.2936 53.4677c2.3446,2.3482 6.4029,10.4747 7.5948,13.689 1.8595,5.0142 2.7934,9.5593 4.5064,14.9347"/>
    <path id="_66254648" fill="none" stroke="#1F1A17" stroke-width="0.1763" d="M97.4591 53.5994c2.3446,2.3483 6.4029,10.4748 7.5948,13.6891 1.8595,5.0142 2.9212,10.0058 4.6341,15.3813"/>
   </g>
   <ellipse id="domatia_44" fill="none" stroke="black" stroke-width="0.0762" cx="98.7928" cy="70" rx="17.244" ry="16.5402"/>
  </g>
  <g id="VenIntra_Single" onclick="parent.replacechar('VenIntra_Single')" onmousemove="parent.showtooltip('VenIntra_Single', 'Intra marginal vein single')" onmouseout="parent.hidetooltip('VenIntra_Single')" cursor="pointer" >
   <g id="single">
    <g>
     <path id="_66524848" fill="#B9CC76" stroke="#4C4C4C" stroke-width="0.0762" stroke-linejoin="bevel" d="M23.7205 132.963l-0.3593 -4.4913c-4.2814,-2.8745 -9.7012,-3.8924 -12.9047,-8.7133 -3.204,-4.7907 -6.4377,-13.2042 -6.4976,-20.3606 -0.0297,-7.1861 1.5873,-15.0308 4.671,-23.6541 3.1738,-8.6831 8.2751,-19.2149 15.7006,-28.7068 7.6651,9.0128 10.6482,19.1557 14.301,27.9586 3.4134,8.3837 5.1802,16.6774 4.9704,25.3308 -0.2094,7.4854 -3.2936,15.0308 -6.6169,19.5221 -3.3239,4.6407 -7.6954,6.1082 -11.7076,8.6832l-0.4791 4.4314 -1.0778 0z"/>
     <rect id="nerv_x0020_I_45" fill="#4C4C4C" stroke="#4C4C4C" stroke-width="0.0762" x="24.0679" y="48.0182" width="0.530049" height="79.5074"/>
    </g>
    <path id="_77871960" fill="none" stroke="#4C4C4C" stroke-width="0.0762" stroke-linejoin="bevel" d="M24.068 127.332c-3.9962,-2.683 -9.5984,-4.6586 -12.5886,-9.1583 -2.9906,-4.4717 -6.0088,-12.3247 -6.0647,-19.0043 -0.0278,-6.7075 1.4815,-14.0297 4.3598,-22.0785 2.9623,-8.1048 7.6275,-20.2132 14.5584,-29.0727 7.1545,8.4123 10.0352,20.1577 13.4448,28.3743 3.1859,7.8252 4.8351,15.5665 4.6393,23.6435 -0.1955,6.9868 -3.0743,14.0296 -6.1762,18.2217 -3.1024,4.3316 -7.8978,6.6274 -11.6427,9.031l-0.5301 0.0433z"/>
   </g>
   <g>
    <g id="margin_46">
     <path id="limbe_47" fill="#A6D10D" stroke="black" stroke-width="0.0762" d="M39.4728 53.4721c6.2051,6.9032 9.3296,20.4231 11.6607,27.9532 -6.9042,6.563 -17.2009,6.8589 -24.5428,0.2708 -4.3065,-4.7497 -8.0388,-12.5547 -1.5073,-21.8544 4.1625,-5.022 9.3053,-6.5226 14.3894,-6.3696z"/>
     <g id="n_x0020_sommet_x0020_II_48">
      <path id="_77874480" fill="#CCCCCC" fill-rule="nonzero" stroke="#CCCCCC" stroke-width="0.0762" d="M44.0206 85.5171c0.9805,-2.1317 1.3375,-3.2911 1.8047,-5.1392 1.6363,-6.4731 0.2159,-11.5622 -3.6064,-17.748l0.0567 -0.0278c3.8302,6.1985 5.2533,11.299 3.6128,17.7884 -0.4663,1.8448 -0.8069,2.9669 -1.7838,5.0933l-0.084 0.0333z"/>
      <path id="_66280512" fill="#CCCCCC" fill-rule="nonzero" stroke="#CCCCCC" stroke-width="0.0762" d="M35.5815 85.4881c3.1965,-5.6399 5.3072,-10.7183 6.2083,-15.1922 1.2487,-6.1996 0.1749,-11.239 -3.5487,-15.0055l0.047 -0.0374c3.7375,3.7806 4.8158,8.8356 3.5636,15.0529 -0.9008,4.4726 -3.0084,9.5475 -6.1996,15.1822l-0.0706 0z"/>
      <path id="_76646808" fill="#CCCCCC" fill-rule="nonzero" stroke="#CCCCCC" stroke-width="0.0762" d="M30.7626 79.1689c3.4116,-5.9122 6.2969,-11.5283 7.3415,-16.3948 0.7364,-3.4304 0.5572,-6.4881 -0.9979,-9.0144l0.0749 0c1.5469,2.5328 1.7232,5.5938 0.9867,9.0252 -1.0461,4.8732 -3.9336,10.494 -7.3477,16.4105l-0.0575 -0.0265z"/>
      <path id="_77500672" fill="#CCCCCC" fill-rule="nonzero" stroke="#CCCCCC" stroke-width="0.0762" d="M30.8991 66.0813c2.5194,-6.1683 3.7789,-9.7247 3.9201,-12.1513l0.066 -0.0141c-0.141,2.4337 -1.4031,6.0095 -3.9254,12.1847l-0.0607 -0.0193z"/>
     </g>
     <g id="n_x0020_sommet_x0020_II_49">
      <path id="_66468328" fill="#CCCCCC" fill-rule="nonzero" stroke="#CCCCCC" stroke-width="0.0762" d="M30.6821 78.9555c-3.4387,-5.7337 -6.1531,-10.6596 -7.1587,-15.3824 0.3995,1.3916 0.1199,0.5307 0,-0.0002 1.0042,4.7163 3.7807,9.6283 7.2169,15.3579l-0.0582 0.0247z"/>
      <path id="_77211680" fill="#CCCCCC" fill-rule="nonzero" stroke="#CCCCCC" stroke-width="0.0762" d="M30.7404 65.6084c-2.4086,-5.3886 -2.8971,-5.689 -3.242,-8.0028l-0.0221 -0.1438c0.3453,2.308 0.9236,2.7475 3.3289,8.129l-0.0648 0.0176z"/>
     </g>
     <polygon id="nerv_x0020_I_50" fill="#CCCCCC" points="30.9532,55.6559 30.9589,84.6142 30.177,84.1786 30.177,55.6559 "/>
    </g>
    <ellipse id="domatia_51" fill="none" stroke="black" stroke-width="0.0762" cx="38.7886" cy="69.9999" rx="17.2525" ry="16.5405"/>
    <path id="_66788744" fill="none" stroke="#1F1A17" stroke-width="0.1763" d="M38.2892 53.4673c2.3457,2.3483 6.406,10.475 7.5985,13.6893 1.8604,5.0143 2.7947,9.5594 4.5085,14.935"/>
   </g>
  </g>
 </g>
<image xlink:href="tick.gif" id="imgtick" x="-100" y="-100" width="15" height="15"/>
<rect id="recttooltip" x="-100" y="-100" width="55" height="6" fill-opacity="0.4" pointer-events="none"/>
<text id="textboxid" x="-100" y="-100" pointer-events="none"> </text>
</a></svg>
