<?xml version="1.0" encoding="UTF-8"?>
<!DOCTYPE svg PUBLIC "-//W3C//DTD SVG 1.1//EN" "http://www.w3.org/Graphics/SVG/1.1/DTD/svg11.dtd">
<!-- Creator: CorelDRAW -->
<svg xmlns="http://www.w3.org/2000/svg" xml:space="preserve" shape-rendering="geometricPrecision" text-rendering="geometricPrecision" image-rendering="optimizeQuality" fill-rule="evenodd" clip-rule="evenodd"
viewBox="0 0 240 180"
 xmlns:xlink="http://www.w3.org/1999/xlink">
<a>
 <g id="Layer_x0020_1">
  <metadata id="CorelCorpID_0Corel-Layer"/>
  <rect fill="none" transform="matrix(3.24291E-013 -17.1512 10.3131 3.82591E-013 -1.55692E-005 180)" width="10.4949" height="23.2713"/>
  <g id="Verticil_No" onclick="parent.replacechar('Verticil_No')" onmousemove="parent.showtooltip('Verticil_No', 'Not verticilate branches')" onmouseout="parent.hidetooltip('Verticil_No')" cursor="pointer" >
   <path id="_78100056" fill="#CC6633" stroke="black" stroke-width="0.0762" d="M172.802 171.904c1.1567,-5.2058 1.8772,-9.7925 1.7836,-14.9982l3.3358 -78.6509c-17.3982,-1.311 -13.6981,-1.6573 -36.3878,-3.3918 -0.736,-0.4833 -0.9793,-0.9526 0.1904,-1.4581l36.698 1.289 0.63 -15.3077c-15.5102,-4.4321 -17.356,-3.4767 -32.2062,-6.643 -0.4124,0.187 -0.8824,-1.5431 0.3531,-1.5472l31.9154 6.3397 0.0238 -18.8148c-2.95,-1.0161 -12.9667,-4.2316 -19.5406,-7.0586 -0.3675,-0.6395 -0.2161,-1.1052 0.7774,-1.0419l18.736 6.4628c0,-1.16 0.1763,-16.7637 0.1763,-17.9237 0.2087,-0.6024 1.2982,-0.5477 1.4609,-0.034l-0.0247 10.0103c5.9623,-3.3044 4.4601,-2.4688 10.3665,-5.6664 0.8976,0.2158 0.8756,0.7383 0.2468,1.4316l-10.5711 5.7424 0.1896 16.5889c12.638,-5.2815 14.9997,-6.2842 22.9308,-9.6364 0.8576,-0.001 1.1408,0.6616 0.4269,1.293l-23.2916 10.1506 0.172 17.6367c12.5811,-3.3367 23.6616,-6.076 34.0185,-8.2899 0.9616,0.2004 1.2714,0.7779 0.3187,1.46l-34.226 9.1315 0.4253 16.155c13.8028,-0.6831 26.7807,-0.4382 40.5835,-1.1213 0.7633,0.5026 0.7882,1.0897 0.0119,1.5077 -9.3336,0.3979 -29.9438,2.3744 -40.6496,2.7661l-0.2872 67.9588c-0.0149,5.1294 -0.0024,10.4785 1.3246,15.6598 -3.0785,0 -6.8325,0 -9.911,0z"/>
   <path id="_78923480" fill="#84C225" fill-opacity="0.501961" d="M215.368 100.444c15.9576,-4.5619 14.5035,-24.1109 3.1226,-27.527 11.1238,-10.5253 3.3993,-20.7542 -7.5702,-23.8058 6.9572,-11.4478 -2.4784,-19.9968 -14.2652,-19.512 0.7716,-18.8966 -26.622,-21.8254 -27.9022,-5.1836 -7.6955,-2.2767 -17.4136,3.9061 -17.1058,17.4867 -13.768,0.9574 -17.9433,17.0698 -9.607,24.2507 -22.6622,10.5124 1.8628,40.7705 37.0271,27.9218 7.0943,6.807 23.391,8.6418 36.3007,6.3692z"/>
   <path id="_77776840" fill="none" stroke="#1F1A17" d="M147.502 94.3691c-18.7185,-7.7734 -18.456,-22.2374 -5.4623,-28.2164 -9.1798,-9.5288 -4.161,-23.2933 9.607,-24.2507 -1.2356,-7.462 4.4077,-20.2575 17.1058,-17.4867 -2.9457,-11.9681 26.1109,-19.1001 27.9022,5.1836 7.2351,-0.3931 22.8124,4.7302 14.2652,19.512 14.2074,3.9375 16.671,15.9514 7.5702,23.8058 11.8513,3.4794 12.5803,23.2628 -3.1226,27.5271"/>
   <line id="sol" fill="none" stroke="black" stroke-width="0.0762" x1="139.075" y1="171.904" x2="221.391" y2= "171.904" />
  </g>
  <g id="Verticil_Yes" onclick="parent.replacechar('Verticil_Yes')" onmousemove="parent.showtooltip('Verticil_Yes', 'Verticilate branches')" onmouseout="parent.hidetooltip('Verticil_Yes')" cursor="pointer" >
   <line id="sol_0" fill="none" stroke="black" stroke-width="0.0762" x1="15.4215" y1="172.364" x2="97.7376" y2= "172.364" />
   <path id="_78080048" fill="none" stroke="#1F1A17" d="M23.0359 88.8225c-9.5204,1.0336 -10.4282,-15.9667 -2.818,-20.9904 -7.1479,-6.1901 -5.1295,-16.8437 7.7516,-16.7429 -9.2149,-3.0412 -3.4155,-22.2212 7.8859,-23.0071 -1.8031,-10.8892 13.4229,-17.4367 21.807,-14.1466 5.0562,-2.4196 24.1101,-1.2708 18.2387,13.8672 10.9779,-5.1032 24.305,10.0846 14.0352,19.8926 11.6621,3.2321 14.5752,15.6547 3.6299,20.833 6.3216,2.9372 14.1821,10.9351 1.6277,21.0559"/>
   <rect id="_67227216" fill="#CC6633" stroke="#1F1A17" stroke-width="0.0762" transform="matrix(-0.29642 0.535974 0.535974 0.29642 29.179 58.6549)" width="1.2582" height="48.231"/>
   <rect id="_77196864" fill="#CC6633" stroke="#1F1A17" stroke-width="0.0762" transform="matrix(0.313135 0.566197 -0.566197 0.313135 84.9876 57.9545)" width="1.2582" height="48.231"/>
   <rect id="_65495872" fill="#CC6633" stroke="#1F1A17" stroke-width="0.0762" transform="matrix(-0.29642 0.535974 0.535974 0.29642 29.9732 42.485)" width="1.2582" height="48.231"/>
   <rect id="_76429072" fill="#CC6633" stroke="#1F1A17" stroke-width="0.0762" transform="matrix(-0.185016 0.334537 0.334537 0.185016 39.5931 31.4816)" width="1.2582" height="48.231"/>
   <rect id="_65782944" fill="#CC6633" stroke="#1F1A17" stroke-width="0.0762" transform="matrix(-0.120801 0.218428 0.218428 0.120801 45.0354 17.5519)" width="1.2582" height="48.231"/>
   <rect id="_77339360" fill="#CC6633" stroke="#1F1A17" stroke-width="0.0762" transform="matrix(0.291975 0.527936 -0.527936 0.291975 83.0892 42.897)" width="1.2582" height="48.231"/>
   <rect id="_65748344" fill="#CC6633" stroke="#1F1A17" stroke-width="0.0762" transform="matrix(0.20335 0.367688 -0.367688 0.20335 75.0511 30.6055)" width="1.2582" height="48.231"/>
   <rect id="_76656472" fill="#CC6633" stroke="#1F1A17" stroke-width="0.0762" transform="matrix(0.149434 0.130665 -0.130665 0.149434 63.0673 16.0782)" width="1.2582" height="48.231"/>
   <path id="_66401256" fill="#CC6633" stroke="#1F1A17" stroke-width="0.0762" d="M51.7056 160.926c0.3805,-56.8304 2.3184,-77.8106 2.5689,-85.1593 -8.7724,-0.3854 -15.249,-1.6214 -31.6045,-2.5331 -0.7069,-0.3174 -0.7192,-1.0857 0.0912,-1.3516 11.2404,0.5127 21.361,0.8471 32.0621,1.4007 0.0369,-3.1248 0.557,-11.5148 0.5947,-14.8412 -13.1576,-1.5868 -13.7642,-1.9938 -30.883,-3.5461 -0.9062,-0.3538 -1.184,-1.065 -0.219,-1.2485 16.6426,1.4098 18.8884,2.0871 31.13,3.5862 0,-4.2636 -0.0053,-11.0988 -0.0053,-15.3625 -11.7013,-3.3437 -13.7958,-4.4576 -24.9992,-6.8464 -0.3111,0.1411 -0.6656,-1.1641 0.2664,-1.1672 10.5554,2.5187 14.8273,3.646 24.7798,6.6176 0.0198,-3.7041 0.0056,-12.33 -0.0321,-15.7051 -2.2255,-0.7666 -4.9251,-2.1496 -9.8847,-4.2824 -0.4587,-0.1942 -0.5109,-0.4698 0.2537,-0.6344 3.5902,1.1445 7.2584,2.6474 9.5498,3.5599 0,-0.8751 0.2699,-6.4954 0.2699,-7.3705 0.2413,-0.3873 0.9624,-0.1681 1.0852,0.2195l0.201 7.1611c4.6775,-2.2238 5.2398,-2.3233 10.8918,-4.6459 0.5425,-0.0698 0.7653,0.5119 0.2909,0.8849 -4.3159,1.9809 -7.5442,3.2334 -11.1509,5.0638 -0.0225,4.1065 0.5435,11.6796 0.5211,15.7861 9.8733,-2.7535 13.0953,-4.1124 23.7042,-7.2097 0.5857,0.0453 0.9223,1.0812 0.4177,1.4233 -3.0349,0.5862 -12.6388,3.3888 -24.2353,7.2209 0.0223,3.7475 0.1466,11.3772 0.1691,15.1247 9.0327,-0.9061 23.3944,-2.5296 31.2862,-3.6755 0.6862,0.049 0.9593,0.5869 0.2405,1.1014 -6.523,0.9269 -20.2286,2.3668 -31.4706,3.9636 -0.0225,4.1738 0.1842,10.7095 0.1618,14.8833 6.055,-0.0656 22.3828,-0.895 32.7876,-1.3444 0.5717,0.0729 0.7193,1.0634 0.1205,1.3167 -5.3603,0.0973 -24.3765,2.4951 -32.4124,2.5749l-0.2311 84.6597 0.8766 11.8142 -8.2631 0 1.0705 -11.4387z"/>
   <path id="_77722272" fill="#84C225" fill-opacity="0.301961" d="M95.1939 89.5842c9.7305,-7.8626 7.7143,-18.2518 -1.6277,-21.0559 12.4974,-6.5912 5.762,-18.7157 -3.6299,-20.833 9.6106,-8.7509 -1.4658,-25.1703 -14.0352,-19.8926 6.1267,-16.5155 -13.6695,-14.9541 -18.2387,-13.8672 -8.3842,-3.2901 -23.6101,3.2574 -21.807,14.1466 -11.3014,0.7859 -17.0544,19.6968 -7.8859,23.0071 -13.8789,0.0365 -14.3915,11.4516 -7.7516,16.7429 -8.6814,6.3627 -5.0956,21.7562 2.818,20.9904 9.8569,4.5841 28.1765,3.3218 35.2821,-3.0311 5.8233,5.5875 28.989,11.7561 36.8759,3.7928z"/>
  </g>
 </g>
<image xlink:href="tick.gif" id="imgtick" x="-100" y="-100" width="15" height="15"/>
<rect id="recttooltip" x="-100" y="-100" width="55" height="6" fill-opacity="0.4" pointer-events="none"/>
<text id="textboxid" x="-100" y="-100" pointer-events="none"> </text>
</a></svg>
