<?xml version="1.0" encoding="UTF-8"?>
<!DOCTYPE svg PUBLIC "-//W3C//DTD SVG 1.1//EN" "http://www.w3.org/Graphics/SVG/1.1/DTD/svg11.dtd">
<!-- Creator: CorelDRAW -->
<svg xmlns="http://www.w3.org/2000/svg" xml:space="preserve" shape-rendering="geometricPrecision" text-rendering="geometricPrecision" image-rendering="optimizeQuality" fill-rule="evenodd" clip-rule="evenodd"
viewBox="0 0 240 180"
 xmlns:xlink="http://www.w3.org/1999/xlink">
<a>
 <g id="Plan_x0020_1">
  <metadata id="CorelCorpID_0Corel-Layer"/>
  <rect fill="none" width="240" height="180"/>
  <g id="VenIII_Reticulate" onclick="parent.replacechar('VenIII_Reticulate')" onmousemove="parent.showtooltip('VenIII_Reticulate', 'Tertiary veins finelly reticulate')" onmouseout="parent.hidetooltip('VenIII_Reticulate')" cursor="pointer" >
   <path id="limbe" fill="#A6D10D" stroke="black" stroke-width="0.0762" d="M211.458 106.988c7.3237,13.3606 11.866,26.9505 17.0612,39.4704 2.2961,5.6396 4.2406,11.2606 5.8125,16.8921l-49.323 0 0 -56.3625 26.4493 0z"/>
   <g id="veins">
    <g>
     <polygon id="_79226408" fill="none" stroke="#1F1A17" stroke-width="0.0762" points="204.497,135.644 206.376,136.483 206.562,137.976 204.881,139.122 202.738,139.114 "/>
     <polygon id="_79225280" fill="none" stroke="#1F1A17" stroke-width="0.0762" points="206.25,131.259 208.024,131.877 208.279,134.93 206.376,136.483 204.403,135.602 "/>
     <polygon id="_79224144" fill="none" stroke="#1F1A17" stroke-width="0.0762" points="207.632,126.413 209.608,127.188 210.069,130.217 208.024,131.877 206.25,131.259 "/>
     <polygon id="_79223016" fill="none" stroke="#1F1A17" stroke-width="0.0762" points="208.839,121.42 210.873,122.024 211.592,125.002 209.608,127.188 207.632,126.413 "/>
     <polygon id="_79221232" fill="none" stroke="#1F1A17" stroke-width="0.0762" points="212.065,130.609 210.069,130.217 208.024,131.877 208.279,134.93 211.003,135.431 "/>
    </g>
    <g>
     <polygon id="_79219912" fill="none" stroke="#1F1A17" stroke-width="0.0762" points="201.065,127.445 202.656,128.371 202.525,131.636 198.688,132.12 "/>
     <polygon id="_79218784" fill="none" stroke="#1F1A17" stroke-width="0.0762" points="203.046,123.165 204.786,123.967 204.714,127.03 202.656,128.371 201.065,127.446 "/>
     <polygon id="_79217656" fill="none" stroke="#1F1A17" stroke-width="0.0762" points="204.629,118.38 206.571,119.237 206.906,122.283 204.792,123.856 203.046,123.165 "/>
     <polygon id="_79216384" fill="none" stroke="#1F1A17" stroke-width="0.0762" points="205.421,113.25 207.492,113.716 208.409,116.639 206.571,119.237 204.629,118.38 "/>
     <polygon id="_79215256" fill="none" stroke="#1F1A17" stroke-width="0.0762" points="208.459,122.989 206.905,122.283 204.786,123.967 204.714,127.03 207.203,127.77 "/>
     <polygon id="_79214128" fill="none" stroke="#1F1A17" stroke-width="0.0762" points="207.094,127.737 204.714,127.03 202.656,128.371 202.525,131.636 205.34,132.685 "/>
     <polygon id="_79213000" fill="none" stroke="#1F1A17" stroke-width="0.0762" points="205.34,132.685 202.525,131.636 201.078,133.221 201.206,136.611 203.093,137.581 "/>
     <polygon id="_79211216" fill="none" stroke="#1F1A17" stroke-width="0.0762" points="198.688,132.12 200.606,131.878 201.078,133.221 201.206,136.611 198.732,139.114 "/>
    </g>
    <polygon id="_79210048" fill="none" stroke="#1F1A17" stroke-width="0.0762" points="198.047,117.48 195.759,118.672 195.381,121.917 198.047,122.689 "/>
    <polygon id="_79208920" fill="none" stroke="#1F1A17" stroke-width="0.0762" points="196.643,113.347 194.341,113.99 193.936,117.027 195.759,118.672 198.047,117.48 "/>
    <polygon id="_79207792" fill="none" stroke="#1F1A17" stroke-width="0.0762" points="195.367,108.496 193.315,109.04 192.51,111.996 194.352,113.88 196.643,113.347 "/>
    <polygon id="_79206664" fill="none" stroke="#1F1A17" stroke-width="0.0762" points="192.732,107.296 193.315,109.04 195.31,108.47 195.122,107.296 "/>
    <polygon id="_79205536" fill="none" stroke="#1F1A17" stroke-width="0.0762" points="189.118,107.191 190.38,107.309 191.511,109.769 190.594,112.448 187.9,111.788 187.83,110.781 "/>
    <polygon id="_79204272" fill="none" stroke="#1F1A17" stroke-width="0.0762" points="192.454,117.225 193.936,117.027 195.759,118.672 195.381,121.917 194.118,122.174 "/>
    <polygon id="_79203144" fill="none" stroke="#1F1A17" stroke-width="0.0762" points="194.118,122.174 195.381,121.917 196.563,123.709 195.909,127.037 195.981,126.671 "/>
    <polygon id="_79202016" fill="none" stroke="#1F1A17" stroke-width="0.0762" points="198.047,122.689 197.239,122.455 196.563,123.709 196,126.577 198.047,130.378 "/>
    <polygon id="_79200888" fill="none" stroke="#1F1A17" stroke-width="0.0762" points="198.06,109.156 196.58,109.245 196.149,110.478 196.821,113.043 198.084,112.96 "/>
    <polygon id="_79199752" fill="none" stroke="#1F1A17" stroke-width="0.0762" points="198.729,109.14 200.833,109.256 201.446,110.864 200.491,114.21 198.696,114.102 "/>
    <polygon id="_79198624" fill="none" stroke="#1F1A17" stroke-width="0.0762" points="198.24,131.713 196.321,131.471 195.849,132.814 195.721,136.203 198.196,138.707 "/>
    <polygon id="_79197496" fill="none" stroke="#1F1A17" stroke-width="0.0762" points="191.588,132.278 194.403,131.228 195.849,132.814 195.721,136.203 193.834,137.173 "/>
    <polygon id="_79196368" fill="none" stroke="#1F1A17" stroke-width="0.0762" points="190.646,127.089 192.213,126.623 194.271,127.964 194.403,131.228 191.588,132.278 "/>
    <polygon id="_79195240" fill="none" stroke="#1F1A17" stroke-width="0.0762" points="190.646,124.579 190.646,122.34 192.141,123.56 192.213,126.623 190.674,127.08 "/>
    <polygon id="_79194112" fill="none" stroke="#1F1A17" stroke-width="0.0762" points="191.506,112.843 190.646,113.036 190.674,118.69 192.298,117.973 "/>
    <polygon id="_79192848" fill="none" stroke="#1F1A17" stroke-width="0.0762" points="192.298,117.973 190.646,118.702 190.646,122.34 192.135,123.449 193.882,122.758 "/>
    <polygon id="_79191712" fill="none" stroke="#1F1A17" stroke-width="0.0762" points="193.882,122.758 192.141,123.56 192.213,126.623 194.271,127.964 195.863,127.038 "/>
    <polygon id="_79190584" fill="none" stroke="#1F1A17" stroke-width="0.0762" points="195.863,127.038 194.271,127.964 194.403,131.228 198.24,131.713 "/>
    <g>
     <polygon id="_79189456" fill="none" stroke="#1F1A17" stroke-width="0.0762" points="199.025,118.392 201.094,119.47 201.473,122.716 198.807,123.487 "/>
     <polygon id="_79188328" fill="none" stroke="#1F1A17" stroke-width="0.0762" points="200.491,114.21 202.513,114.789 202.918,117.825 201.094,119.47 199.024,118.392 "/>
     <polygon id="_79187200" fill="none" stroke="#1F1A17" stroke-width="0.0762" points="201.856,109.392 203.539,109.838 204.344,112.794 202.501,114.678 200.491,114.21 "/>
     <polygon id="_79186072" fill="none" stroke="#1F1A17" stroke-width="0.0762" points="204.152,107.296 203.539,109.838 201.856,109.392 202.151,107.296 "/>
     <polygon id="_79184944" fill="none" stroke="#1F1A17" stroke-width="0.0762" points="205.316,113.1 204.344,112.794 202.513,114.788 202.918,117.826 204.4,118.023 "/>
     <polygon id="_79183816" fill="none" stroke="#1F1A17" stroke-width="0.0762" points="204.399,118.023 202.918,117.825 201.094,119.47 201.473,122.716 202.736,122.972 "/>
     <polygon id="_79182688" fill="none" stroke="#1F1A17" stroke-width="0.0762" points="202.736,122.972 201.473,122.716 200.291,124.507 200.945,127.835 200.873,127.469 "/>
     <polygon id="_79171568" fill="none" stroke="#1F1A17" stroke-width="0.0762" points="198.807,123.487 199.615,123.253 200.291,124.507 200.854,127.375 198.807,131.176 "/>
     <polygon id="_79171448" fill="none" stroke="#1F1A17" stroke-width="0.0762" points="201.005,107.156 200.833,109.256 198.729,109.14 198.704,107.067 "/>
    </g>
    <polygon id="_79170280" fill="none" stroke="#1F1A17" stroke-width="0.0762" points="196.406,107.156 196.529,109.256 198.029,109.14 198.047,107.067 "/>
    <g>
     <polygon id="_79169152" fill="none" stroke="#1F1A17" stroke-width="0.0762" points="206.232,139.108 207.759,140.201 207.142,143.202 204.879,144.154 203.234,142.753 "/>
     <polygon id="_79166304" fill="none" stroke="#1F1A17" stroke-width="0.0762" points="208,134.236 210.602,136.149 210.19,139.185 207.759,140.201 206.232,139.108 "/>
     <polygon id="_79166344" fill="none" stroke="#1F1A17" stroke-width="0.0762" points="211.085,140.971 210.19,139.185 207.759,140.201 207.142,143.202 209.805,145.629 "/>
    </g>
    <polygon id="_79164904" fill="none" stroke="#1F1A17" stroke-width="0.0762" points="192.167,134.737 190.674,135.405 190.726,136.808 192.454,139.114 193.725,138.538 "/>
    <polygon id="_79163776" fill="none" stroke="#1F1A17" stroke-width="0.0762" points="207.895,151.394 209.775,152.232 209.96,153.726 208.279,154.872 206.136,154.863 "/>
    <polygon id="_79162648" fill="none" stroke="#1F1A17" stroke-width="0.0762" points="209.648,147.009 211.422,147.626 211.677,150.679 209.775,152.232 207.801,151.352 "/>
    <polygon id="_79161520" fill="none" stroke="#1F1A17" stroke-width="0.0762" points="211.03,142.162 213.006,142.937 213.468,145.966 211.422,147.626 209.648,147.009 "/>
    <polygon id="_79160256" fill="none" stroke="#1F1A17" stroke-width="0.0762" points="212.237,137.169 214.271,137.773 214.99,140.751 213.006,142.937 211.03,142.162 "/>
    <polygon id="_79159128" fill="none" stroke="#1F1A17" stroke-width="0.0762" points="215.463,146.358 213.468,145.966 211.422,147.626 211.677,150.679 214.402,151.18 "/>
    <polygon id="_79158000" fill="none" stroke="#1F1A17" stroke-width="0.0762" points="200.94,159.641 202.532,160.567 202.421,163.301 199.127,163.206 "/>
    <polygon id="_79156872" fill="none" stroke="#1F1A17" stroke-width="0.0762" points="202.921,155.361 204.662,156.163 204.589,159.226 202.532,160.567 200.94,159.641 "/>
    <polygon id="_79155744" fill="none" stroke="#1F1A17" stroke-width="0.0762" points="204.504,150.576 206.446,151.433 206.781,154.478 204.668,156.052 202.921,155.361 "/>
    <polygon id="_79154600" fill="none" stroke="#1F1A17" stroke-width="0.0762" points="205.297,145.446 207.367,145.911 208.284,148.835 206.446,151.433 204.504,150.576 "/>
    <polygon id="_79153472" fill="none" stroke="#1F1A17" stroke-width="0.0762" points="208.335,155.185 206.781,154.478 204.662,156.163 204.589,159.226 207.079,159.965 "/>
    <polygon id="_79152344" fill="none" stroke="#1F1A17" stroke-width="0.0762" points="206.969,159.933 204.589,159.226 202.532,160.567 202.421,163.301 205.654,163.301 "/>
    <polygon id="_77655600" fill="none" stroke="#1F1A17" stroke-width="0.0762" points="197.922,149.676 195.635,150.868 195.257,154.113 197.922,154.885 "/>
    <polygon id="_77735144" fill="none" stroke="#1F1A17" stroke-width="0.0762" points="196.518,145.543 194.216,146.186 193.811,149.223 195.635,150.868 197.922,149.676 "/>
    <polygon id="_66868632" fill="none" stroke="#1F1A17" stroke-width="0.0762" points="195.242,140.692 193.19,141.236 192.385,144.192 194.228,146.075 196.518,145.542 "/>
    <polygon id="_77192912" fill="none" stroke="#1F1A17" stroke-width="0.0762" points="192.607,139.491 193.19,141.236 195.185,140.666 194.997,139.491 "/>
    <polygon id="_77192848" fill="none" stroke="#1F1A17" stroke-width="0.0762" points="191.632,144.401 192.385,144.192 194.216,146.186 193.811,149.223 192.33,149.42 "/>
    <polygon id="_76629872" fill="none" stroke="#1F1A17" stroke-width="0.0762" points="192.33,149.42 193.811,149.223 195.635,150.868 195.257,154.113 193.993,154.37 "/>
    <polygon id="_77663488" fill="none" stroke="#1F1A17" stroke-width="0.0762" points="193.993,154.37 195.257,154.113 196.438,155.905 195.784,159.233 195.856,158.867 "/>
    <polygon id="_76532552" fill="none" stroke="#1F1A17" stroke-width="0.0762" points="197.922,154.885 197.114,154.651 196.438,155.905 195.875,158.772 197.922,162.574 "/>
    <polygon id="_76678904" fill="none" stroke="#1F1A17" stroke-width="0.0762" points="197.936,141.351 196.455,141.44 196.024,142.673 196.696,145.239 197.959,145.156 "/>
    <polygon id="_77194272" fill="none" stroke="#1F1A17" stroke-width="0.0762" points="198.604,141.336 200.709,141.452 201.321,143.06 200.366,146.406 198.571,146.298 "/>
    <polygon id="_77172248" fill="none" stroke="#1F1A17" stroke-width="0.0762" points="190,141.336 188.081,141.094 187.609,142.437 187.481,145.826 189.956,148.33 "/>
    <polygon id="_77172184" fill="none" stroke="#1F1A17" stroke-width="0.0762" points="185.056,140.371 187.147,140.613 187.593,142.662 186.509,145.678 185.029,145.757 "/>
    <polygon id="_67148696" fill="none" stroke="#1F1A17" stroke-width="0.0762" points="190.521,159.285 192.089,158.819 194.146,160.159 194.273,163.301 191.91,163.301 "/>
    <polygon id="_76541040" fill="none" stroke="#1F1A17" stroke-width="0.0762" points="190.521,156.774 190.521,154.535 192.016,155.756 192.089,158.819 190.549,159.276 "/>
    <polygon id="_77542680" fill="none" stroke="#1F1A17" stroke-width="0.0762" points="191.381,145.039 190.521,145.232 190.549,150.886 192.174,150.168 "/>
    <polygon id="_66420216" fill="none" stroke="#1F1A17" stroke-width="0.0762" points="192.174,150.168 190.521,150.898 190.521,154.535 192.01,155.644 193.757,154.953 "/>
    <polygon id="_65904584" fill="none" stroke="#1F1A17" stroke-width="0.0762" points="193.757,154.953 192.016,155.756 192.089,158.819 194.146,160.159 195.738,159.234 "/>
    <polygon id="_76649768" fill="none" stroke="#1F1A17" stroke-width="0.0762" points="195.738,159.234 194.146,160.159 194.273,163.301 197.806,163.301 "/>
    <polygon id="_76649704" fill="none" stroke="#1F1A17" stroke-width="0.0762" points="198.9,150.587 200.97,151.666 201.348,154.911 198.683,155.683 "/>
    <polygon id="_27623136" fill="none" stroke="#1F1A17" stroke-width="0.0762" points="200.366,146.406 202.388,146.984 202.793,150.021 200.97,151.666 198.9,150.587 "/>
    <polygon id="_65793624" fill="none" stroke="#1F1A17" stroke-width="0.0762" points="201.731,141.587 203.414,142.034 204.219,144.99 202.376,146.873 200.366,146.406 "/>
    <polygon id="_76459944" fill="none" stroke="#1F1A17" stroke-width="0.0762" points="204.028,139.491 203.414,142.034 201.731,141.587 202.026,139.491 "/>
    <polygon id="_65760768" fill="none" stroke="#1F1A17" stroke-width="0.0762" points="205.191,145.295 204.219,144.99 202.388,146.984 202.793,150.021 204.275,150.218 "/>
    <polygon id="_66729440" fill="none" stroke="#1F1A17" stroke-width="0.0762" points="204.275,150.218 202.793,150.021 200.97,151.666 201.348,154.911 202.611,155.168 "/>
    <polygon id="_27612144" fill="none" stroke="#1F1A17" stroke-width="0.0762" points="202.612,155.168 201.348,154.911 200.166,156.703 200.82,160.031 200.748,159.665 "/>
    <polygon id="_27612080" fill="none" stroke="#1F1A17" stroke-width="0.0762" points="198.683,155.683 199.49,155.449 200.166,156.703 200.73,159.57 198.682,163.372 "/>
    <polygon id="_77731944" fill="none" stroke="#1F1A17" stroke-width="0.0762" points="200.88,139.352 200.709,141.452 198.604,141.336 198.579,139.262 "/>
    <polygon id="_66311312" fill="none" stroke="#1F1A17" stroke-width="0.0762" points="196.282,139.352 196.404,141.452 197.904,141.336 197.922,139.262 "/>
    <polygon id="_77259696" fill="none" stroke="#1F1A17" stroke-width="0.0762" points="185.058,158.45 187.191,159.11 187.447,162.163 185.799,163.301 185.155,163.12 "/>
    <polygon id="_66247168" fill="none" stroke="#1F1A17" stroke-width="0.0762" points="185.058,153.263 187.728,154.348 188.914,157.522 187.191,159.11 185.058,158.45 "/>
    <polygon id="_76898728" fill="none" stroke="#1F1A17" stroke-width="0.0762" points="189.69,159.103 188.914,157.522 187.191,159.11 187.447,162.163 191.236,163.223 "/>
    <polygon id="_64651112" fill="none" stroke="#1F1A17" stroke-width="0.0762" points="190.478,148.38 188.843,148.428 188.356,149.745 189.076,152.536 190.47,152.487 "/>
    <polygon id="_64651048" fill="none" stroke="#1F1A17" stroke-width="0.0762" points="211.519,124.612 213.573,124.75 214.263,126.088 213.081,127.744 211.066,128.476 "/>
    <polygon id="_76906488" fill="none" stroke="#1F1A17" stroke-width="0.0762" points="211.651,119.892 213.529,119.859 214.822,122.636 213.573,124.75 211.417,124.605 "/>
    <polygon id="_79118280" fill="none" stroke="#1F1A17" stroke-width="0.0762" points="211.275,114.866 213.397,114.911 214.876,117.595 213.529,119.859 211.651,119.892 "/>
    <polygon id="_27669448" fill="none" stroke="#1F1A17" stroke-width="0.0762" points="210.684,109.763 212.802,109.628 214.504,112.175 213.397,114.911 211.275,114.866 "/>
    <polygon id="_27685768" fill="none" stroke="#1F1A17" stroke-width="0.0762" points="216.884,117.274 214.876,117.595 213.529,119.859 214.823,122.636 217.552,122.166 "/>
    <polygon id="_77266224" fill="none" stroke="#1F1A17" stroke-width="0.0762" points="221.801,155.113 223.743,155.991 223.986,159.249 220.229,160.17 "/>
    <polygon id="_77179880" fill="none" stroke="#1F1A17" stroke-width="0.0762" points="222.94,150.492 225.355,151.372 225.633,154.423 223.743,155.991 221.801,155.113 "/>
    <polygon id="_76568984" fill="none" stroke="#1F1A17" stroke-width="0.0762" points="223.371,145.501 226.586,146.469 227.267,149.456 225.348,151.261 222.94,150.492 "/>
    <polygon id="_66750048" fill="none" stroke="#1F1A17" stroke-width="0.0762" points="223.175,140.512 226.237,140.816 227.42,143.775 226.586,146.469 223.371,145.501 "/>
    <polygon id="_66749984" fill="none" stroke="#1F1A17" stroke-width="0.0762" points="228.892,149.98 227.267,149.456 225.355,151.372 225.634,154.424 228.191,154.873 "/>
    <polygon id="_77260432" fill="none" stroke="#1F1A17" stroke-width="0.0762" points="228.079,154.853 225.634,154.424 223.743,155.991 223.986,159.249 226.903,159.97 "/>
    <polygon id="_77136088" fill="none" stroke="#1F1A17" stroke-width="0.0762" points="227.351,160.121 223.986,159.249 222.731,160.99 226.136,162.979 "/>
    <polygon id="_76988368" fill="none" stroke="#1F1A17" stroke-width="0.0762" points="220.229,160.17 222.108,159.709 222.731,160.99 223.086,163.301 219.038,163.301 "/>
    <polygon id="_78851736" fill="none" stroke="#1F1A17" stroke-width="0.0762" points="190.581,120.772 188.293,121.964 187.915,125.209 190.581,125.981 "/>
    <polygon id="_66892576" fill="none" stroke="#1F1A17" stroke-width="0.0762" points="189.177,116.639 186.875,117.282 186.47,120.319 188.293,121.964 190.581,120.772 "/>
    <polygon id="_66892512" fill="none" stroke="#1F1A17" stroke-width="0.0762" points="187.9,111.788 185.849,112.332 185.044,115.288 186.886,117.171 189.177,116.639 "/>
    <polygon id="_78237160" fill="none" stroke="#1F1A17" stroke-width="0.0762" points="186.073,108.686 188.05,108.571 188.501,107.226 187.157,107.108 "/>
    <polygon id="_65728664" fill="none" stroke="#1F1A17" stroke-width="0.0762" points="185.044,115.288 186.887,117.171 186.47,120.319 184.988,120.517 "/>
    <polygon id="_76497208" fill="none" stroke="#1F1A17" stroke-width="0.0762" points="184.988,120.517 186.47,120.319 188.293,121.964 187.915,125.209 186.652,125.466 "/>
    <polygon id="_78502472" fill="none" stroke="#1F1A17" stroke-width="0.0762" points="186.651,125.466 187.915,125.209 189.097,127.001 188.443,130.329 188.515,129.963 "/>
    <polygon id="_67140632" fill="none" stroke="#1F1A17" stroke-width="0.0762" points="190.581,125.981 189.773,125.747 189.097,127.001 188.533,129.869 190.581,133.67 "/>
    <polygon id="_66422320" fill="none" stroke="#1F1A17" stroke-width="0.0762" points="190.594,112.448 189.113,112.537 188.683,113.77 189.355,116.335 190.618,116.253 "/>
    <polygon id="_66786840" fill="none" stroke="#1F1A17" stroke-width="0.0762" points="190.774,135.005 188.855,134.763 188.383,136.106 188.255,139.495 190.73,141.999 "/>
    <polygon id="_78607752" fill="none" stroke="#1F1A17" stroke-width="0.0762" points="185.009,135.966 186.937,134.52 188.383,136.106 188.255,139.495 186.368,140.465 "/>
    <polygon id="_65731912" fill="none" stroke="#1F1A17" stroke-width="0.0762" points="185.058,130.381 186.871,131.256 186.937,134.52 185.058,135.17 "/>
    <polygon id="_78488640" fill="none" stroke="#1F1A17" stroke-width="0.0762" points="185.173,121.065 185.058,125.717 185.567,126.622 186.696,125.8 "/>
    <polygon id="_66745592" fill="none" stroke="#1F1A17" stroke-width="0.0762" points="186.415,126.05 185.058,126.965 185.058,130.117 186.805,131.256 188.397,130.33 "/>
    <polygon id="_76951728" fill="none" stroke="#1F1A17" stroke-width="0.0762" points="188.397,130.33 186.805,131.256 186.937,134.52 190.774,135.005 "/>
    <polygon id="_66478392" fill="none" stroke="#1F1A17" stroke-width="0.0762" points="211.386,161.667 213.456,162.745 213.89,163.301 211.168,163.301 "/>
    <polygon id="_76899928" fill="none" stroke="#1F1A17" stroke-width="0.0762" points="212.852,157.485 214.853,157.95 215.253,160.901 213.456,162.745 211.386,161.667 "/>
    <polygon id="_77009144" fill="none" stroke="#1F1A17" stroke-width="0.0762" points="214.217,152.667 215.9,153.113 216.655,155.888 214.853,157.95 212.852,157.485 "/>
    <polygon id="_76732520" fill="none" stroke="#1F1A17" stroke-width="0.0762" points="216.513,150.571 215.9,153.113 214.217,152.667 214.512,150.571 "/>
    <polygon id="_27669288" fill="none" stroke="#1F1A17" stroke-width="0.0762" points="217.644,156.174 216.672,155.869 214.841,157.863 215.247,160.9 216.728,161.098 "/>
    <polygon id="_76909512" fill="none" stroke="#1F1A17" stroke-width="0.0762" points="217.582,161.249 215.253,160.901 214.277,161.972 214.669,163.301 216.202,163.301 "/>
    <polygon id="_78954224" fill="none" stroke="#1F1A17" stroke-width="0.0762" points="220.463,157.481 217.814,155.264 217.186,158.636 218.599,161.978 "/>
    <polygon id="_77728328" fill="none" stroke="#1F1A17" stroke-width="0.0762" points="210.017,155.152 210.825,154.918 211.5,156.171 212.064,159.039 210.017,162.841 "/>
    <polygon id="_78032760" fill="none" stroke="#1F1A17" stroke-width="0.0762" points="213.366,153.193 213.195,155.293 211.09,155.177 211.065,153.104 "/>
    <polygon id="_77758376" fill="none" stroke="#1F1A17" stroke-width="0.0762" points="205.809,107.543 205.931,109.643 207.432,109.527 207.449,107.454 "/>
    <polygon id="_78514560" fill="none" stroke="#1F1A17" stroke-width="0.0762" points="227.983,158.636 229.757,159.254 230.012,162.307 228.039,163.351 226.081,163.214 "/>
    <polygon id="_78567008" fill="none" stroke="#1F1A17" stroke-width="0.0762" points="228.305,153.463 231.341,154.565 231.803,157.594 229.757,159.254 227.983,158.636 "/>
    <polygon id="_76655312" fill="none" stroke="#1F1A17" stroke-width="0.0762" points="233.059,159.053 231.803,157.594 229.757,159.254 230.012,162.307 233.111,163.301 "/>
    <polygon id="_67138520" fill="none" stroke="#1F1A17" stroke-width="0.0762" points="186.064,149.451 187.617,148.938 188.524,150.009 188.802,152.878 187.475,153.309 "/>
    <polygon id="_77458744" fill="none" stroke="#1F1A17" stroke-width="0.0762" points="215.942,139.557 217.954,139.992 218.442,141.416 217.032,142.882 214.933,143.314 "/>
    <polygon id="_78287888" fill="none" stroke="#1F1A17" stroke-width="0.0762" points="216.759,134.905 218.622,135.146 219.498,138.082 217.954,139.992 215.842,139.535 "/>
    <polygon id="_78413800" fill="none" stroke="#1F1A17" stroke-width="0.0762" points="217.117,129.878 219.21,130.232 220.283,133.102 218.622,135.146 216.759,134.905 "/>
    <polygon id="_78090728" fill="none" stroke="#1F1A17" stroke-width="0.0762" points="217.274,124.744 219.389,124.918 220.703,127.685 219.21,130.232 217.117,129.878 "/>
    <polygon id="_66865808" fill="none" stroke="#1F1A17" stroke-width="0.0762" points="222.317,133.076 220.283,133.102 218.622,135.146 219.498,138.082 222.267,138.013 "/>
    <polygon id="_78093608" fill="none" stroke="#1F1A17" stroke-width="0.0762" points="219.96,153.081 218.235,152.86 217.445,153.856 218.154,155.422 219.704,156.357 "/>
    <polygon id="_78555536" fill="none" stroke="#1F1A17" stroke-width="0.0762" points="220.621,149.147 219.071,148.813 217.545,150.904 218.235,152.86 220.046,153.092 "/>
    <polygon id="_66802888" fill="none" stroke="#1F1A17" stroke-width="0.0762" points="221.754,145.043 219.988,144.734 218.324,146.716 219.07,148.813 220.621,149.147 "/>
    <polygon id="_67226776" fill="none" stroke="#1F1A17" stroke-width="0.0762" points="223.077,140.91 221.344,140.452 219.517,142.285 219.988,144.734 221.754,145.043 "/>
    <polygon id="_78241440" fill="none" stroke="#1F1A17" stroke-width="0.0762" points="216.712,146.122 218.324,146.716 219.07,148.813 217.545,150.904 215.359,150.068 "/>
    <polygon id="_78241376" fill="none" stroke="#1F1A17" stroke-width="0.0762" points="215.649,134.937 213.91,134.944 213.257,136.035 214.166,137.494 215.825,138.218 "/>
    <polygon id="_78083032" fill="none" stroke="#1F1A17" stroke-width="0.0762" points="215.789,130.95 214.208,130.822 212.969,133.095 213.91,134.944 215.736,134.937 "/>
    <polygon id="_66520112" fill="none" stroke="#1F1A17" stroke-width="0.0762" points="216.375,126.733 214.583,126.658 213.193,128.842 214.208,130.822 215.789,130.95 "/>
    <polygon id="_65830656" fill="none" stroke="#1F1A17" stroke-width="0.0762" points="217.145,122.463 215.367,122.236 213.796,124.292 214.583,126.658 216.375,126.733 "/>
    <polygon id="_78444528" fill="none" stroke="#1F1A17" stroke-width="0.0762" points="211.517,128.464 213.193,128.842 214.208,130.822 212.969,133.095 210.693,132.553 "/>
    <polygon id="_79067584" fill="none" stroke="#1F1A17" stroke-width="0.0762" points="209.342,109.137 207.291,109.681 206.486,112.637 208.328,114.52 210.618,113.988 "/>
   </g>
   <path id="cadre" fill="#CCCCCC" fill-rule="nonzero" stroke="#CCCCCC" stroke-width="0.0762" d="M185.009 106.988l50.0034 0 0 56.3625 -50.0034 0 0 -56.3625zm49.9537 0.0498l-49.904 0 0 56.263 49.904 0 0 -56.263z"/>
   <g id="n_x0020_sommet_x0020_II">
    <path id="_76562816" fill="#CCCCCC" fill-rule="nonzero" stroke="#C2C1C1" stroke-width="0.3528" d="M218.686 162.895c1.5078,-3.6307 2.6104,-6.9713 3.3288,-10.119 2.5164,-11.0249 0.3321,-19.6927 -5.546,-30.2283l0.0872 -0.0473c5.8902,10.5573 8.0787,19.2444 5.5559,30.2971 -0.7172,3.1421 -1.8161,6.4758 -3.3184,10.0975l-0.1075 0z"/>
    <path id="_66804480" fill="#CCCCCC" fill-rule="nonzero" stroke="#C2C1C1" stroke-width="0.3528" d="M205.963 162.959c5.0569,-9.8816 8.3961,-18.7796 9.8215,-26.6184 1.9755,-10.8626 0.2768,-19.6922 -5.614,-26.2915l0.0743 -0.0655c5.9129,6.624 7.6187,15.4811 5.6377,26.3744 -1.4251,7.8366 -4.7593,16.7284 -9.8078,26.601l-0.1117 0z"/>
    <path id="_66902472" fill="#CCCCCC" fill-rule="nonzero" stroke="#C2C1C1" stroke-width="0.3528" d="M198.851 150.717c5.2464,-10.0696 9.6835,-19.635 11.2899,-27.9235 1.1324,-5.8427 0.8569,-11.0505 -1.5345,-15.3534l0.1151 0c2.3789,4.314 2.65,9.5273 1.5173,15.3718 -1.6086,8.2999 -6.0491,17.8733 -11.2993,27.9502l-0.0885 -0.0451z"/>
    <path id="_77758576" fill="#CCCCCC" fill-rule="nonzero" stroke="#C2C1C1" stroke-width="0.3528" d="M199.061 128.426c3.8744,-10.5058 5.8294,-16.8532 6.0464,-20.9862l0.0998 0c-0.2168,4.145 -2.174,10.5014 -6.0528,21.019l-0.0934 -0.0328z"/>
   </g>
   <g id="n_x0020_sommet_x0020_II_0">
    <path id="_77546640" fill="#CCCCCC" fill-rule="nonzero" stroke="#C2C1C1" stroke-width="0.3528" d="M191.33 162.991c-2.3626,-5.1006 -4.3135,-9.9451 -5.8284,-14.5241l0 -0.2974c1.5301,4.6661 3.5153,9.6098 5.9312,14.8215l-0.1028 0zm-5.8284 -50.6739c0.7237,-1.2359 1.5515,-2.4116 2.4877,-3.5247l0.0679 0.066c-0.9659,1.1485 -1.8167,2.3636 -2.5556,3.6436l0 -0.1849z"/>
    <path id="_77736008" fill="#CCCCCC" fill-rule="nonzero" stroke="#C2C1C1" stroke-width="0.3528" d="M198.73 150.353c-5.2422,-10.2692 -9.6614,-20.0253 -11.1945,-28.484 -0.9801,-5.4083 -0.7805,-10.2861 1.1356,-14.4294l0.1103 0c-1.9252,4.1339 -2.1277,9.0065 -1.1479,14.4121 1.5309,8.447 5.9468,18.1952 11.1853,28.457l-0.0888 0.0443z"/>
    <path id="_79887464" fill="#CCCCCC" fill-rule="nonzero" stroke="#C2C1C1" stroke-width="0.3528" d="M198.819 127.621c-3.4919,-9.7693 -5.4521,-15.9862 -5.9521,-20.1809l0.1 0c0.5007,4.1842 2.4589,10.3926 5.9461,20.1488l-0.094 0.0321z"/>
   </g>
   <polygon id="nerv_x0020_I" fill="#CCCCCC" points="199.127,106.988 199.127,163.351 198.002,163.351 198.002,106.988 "/>
  </g>
  <g id="VenIII_BroadRet" onclick="parent.replacechar('VenIII_BroadRet')" onmousemove="parent.showtooltip('VenIII_BroadRet', 'Tertiary veins broadly reticulate')" onmouseout="parent.hidetooltip('VenIII_BroadRet')" cursor="pointer" >
   <path id="limbe_1" fill="#A6D10D" stroke="black" stroke-width="0.0762" d="M151.448 107.01c7.3237,13.3606 11.8659,26.9505 17.0612,39.4703 2.296,5.6396 4.2406,11.2606 5.8125,16.8922l-49.323 0 0 -56.3625 26.4493 0z"/>
   <g id="veins_2">
    <g>
     <polygon id="_78962632" fill="none" stroke="#1F1A17" stroke-width="0.0762" points="149.316,157.231 152.616,158.703 152.942,161.325 149.99,163.337 146.228,163.322 "/>
     <polygon id="_76630328" fill="none" stroke="#1F1A17" stroke-width="0.0762" points="152.394,149.532 155.508,150.617 155.956,155.977 152.616,158.703 149.151,157.158 "/>
     <polygon id="_66872080" fill="none" stroke="#1F1A17" stroke-width="0.0762" points="154.82,141.024 158.289,142.385 159.099,147.702 155.508,150.617 152.394,149.533 "/>
     <polygon id="_66446080" fill="none" stroke="#1F1A17" stroke-width="0.0762" points="156.939,132.258 160.511,133.318 161.772,138.547 158.289,142.385 154.82,141.024 "/>
     <polygon id="_66820544" fill="none" stroke="#1F1A17" stroke-width="0.0762" points="162.603,148.39 159.1,147.702 155.508,150.617 155.956,155.977 160.739,156.856 "/>
    </g>
    <g>
     <polygon id="_66804768" fill="none" stroke="#1F1A17" stroke-width="0.0762" points="143.29,142.837 146.085,144.462 145.854,150.193 139.117,151.044 "/>
     <polygon id="_78580072" fill="none" stroke="#1F1A17" stroke-width="0.0762" points="146.769,135.322 149.824,136.73 149.697,142.108 146.085,144.462 143.29,142.837 "/>
     <polygon id="_76900784" fill="none" stroke="#1F1A17" stroke-width="0.0762" points="149.548,126.921 152.957,128.426 153.545,133.773 149.835,136.535 146.769,135.322 "/>
     <polygon id="_67234392" fill="none" stroke="#1F1A17" stroke-width="0.0762" points="150.939,117.915 154.574,118.733 156.184,123.865 152.957,128.426 149.548,126.921 "/>
     <polygon id="_77529216" fill="none" stroke="#1F1A17" stroke-width="0.0762" points="156.273,135.013 153.545,133.773 149.824,136.73 149.697,142.108 154.068,143.406 "/>
     <polygon id="_67081088" fill="none" stroke="#1F1A17" stroke-width="0.0762" points="153.876,143.349 149.697,142.108 146.085,144.462 145.854,150.193 150.796,152.036 "/>
     <polygon id="_65781224" fill="none" stroke="#1F1A17" stroke-width="0.0762" points="150.796,152.036 145.854,150.193 143.315,152.977 143.539,158.927 146.852,160.63 "/>
     <polygon id="_78522624" fill="none" stroke="#1F1A17" stroke-width="0.0762" points="139.117,151.044 142.485,150.618 143.315,152.977 143.539,158.927 139.195,163.322 "/>
    </g>
    <g>
     <polygon id="_66840616" fill="none" stroke="#1F1A17" stroke-width="0.0762" points="137.992,125.342 133.976,127.434 133.313,133.131 137.992,134.487 "/>
     <polygon id="_78233568" fill="none" stroke="#1F1A17" stroke-width="0.0762" points="135.528,118.085 131.486,119.215 130.775,124.546 133.976,127.434 137.992,125.342 "/>
     <polygon id="_76869008" fill="none" stroke="#1F1A17" stroke-width="0.0762" points="133.287,109.568 129.685,110.524 128.272,115.714 131.506,119.02 135.528,118.085 "/>
     <polygon id="_77247104" fill="none" stroke="#1F1A17" stroke-width="0.0762" points="128.661,107.461 129.685,110.524 133.187,109.523 132.857,107.461 "/>
     <polygon id="_78572928" fill="none" stroke="#1F1A17" stroke-width="0.0762" points="126.949,116.081 128.272,115.714 131.486,119.215 130.774,124.546 128.174,124.893 "/>
     <polygon id="_77450792" fill="none" stroke="#1F1A17" stroke-width="0.0762" points="128.174,124.893 130.774,124.546 133.976,127.434 133.313,133.132 131.094,133.582 "/>
     <polygon id="_77338656" fill="none" stroke="#1F1A17" stroke-width="0.0762" points="131.094,133.582 133.313,133.132 135.387,136.277 134.239,142.119 134.365,141.477 "/>
     <polygon id="_78381040" fill="none" stroke="#1F1A17" stroke-width="0.0762" points="137.992,134.487 136.574,134.076 135.387,136.277 134.398,141.311 137.992,147.986 "/>
     <polygon id="_66365000" fill="none" stroke="#1F1A17" stroke-width="0.0762" points="138.016,110.727 135.416,110.883 134.66,113.047 135.84,117.551 138.057,117.407 "/>
     <polygon id="_76552120" fill="none" stroke="#1F1A17" stroke-width="0.0762" points="139.189,110.699 142.884,110.903 143.96,113.726 142.283,119.6 139.131,119.411 "/>
     <polygon id="_76858768" fill="none" stroke="#1F1A17" stroke-width="0.0762" points="138.331,150.329 134.963,149.903 134.134,152.262 133.909,158.212 138.254,162.607 "/>
     <polygon id="_66749136" fill="none" stroke="#1F1A17" stroke-width="0.0762" points="126.652,151.321 131.595,149.478 134.134,152.262 133.909,158.212 130.596,159.915 "/>
     <polygon id="_66884240" fill="none" stroke="#1F1A17" stroke-width="0.0762" points="124.998,142.211 127.751,141.393 131.363,143.747 131.595,149.478 126.652,151.321 "/>
     <polygon id="_77782304" fill="none" stroke="#1F1A17" stroke-width="0.0762" points="124.999,137.804 124.998,133.873 127.624,136.015 127.751,141.393 125.048,142.196 "/>
     <polygon id="_67152432" fill="none" stroke="#1F1A17" stroke-width="0.0762" points="126.509,117.2 124.998,117.54 125.048,127.465 127.9,126.206 "/>
     <polygon id="_78053768" fill="none" stroke="#1F1A17" stroke-width="0.0762" points="127.9,126.206 124.998,127.487 124.998,133.873 127.614,135.82 130.679,134.607 "/>
     <polygon id="_77791168" fill="none" stroke="#1F1A17" stroke-width="0.0762" points="130.679,134.607 127.624,136.015 127.751,141.393 131.363,143.746 134.158,142.122 "/>
     <polygon id="_77889352" fill="none" stroke="#1F1A17" stroke-width="0.0762" points="134.158,142.122 131.363,143.746 131.595,149.478 138.331,150.329 "/>
    </g>
    <g>
     <polygon id="_77529904" fill="none" stroke="#1F1A17" stroke-width="0.0762" points="139.709,126.941 143.343,128.835 144.006,134.533 139.327,135.888 "/>
     <polygon id="_78476848" fill="none" stroke="#1F1A17" stroke-width="0.0762" points="142.283,119.6 145.833,120.616 146.544,125.947 143.343,128.835 139.709,126.941 "/>
     <polygon id="_79177824" fill="none" stroke="#1F1A17" stroke-width="0.0762" points="144.679,111.141 147.634,111.925 149.047,117.115 145.813,120.421 142.283,119.6 "/>
     <polygon id="_76888680" fill="none" stroke="#1F1A17" stroke-width="0.0762" points="148.711,107.461 147.634,111.925 144.679,111.141 145.197,107.461 "/>
     <polygon id="_76704768" fill="none" stroke="#1F1A17" stroke-width="0.0762" points="150.754,117.651 149.047,117.115 145.833,120.616 146.545,125.948 149.145,126.294 "/>
     <polygon id="_66914352" fill="none" stroke="#1F1A17" stroke-width="0.0762" points="149.145,126.294 146.545,125.948 143.343,128.835 144.007,134.533 146.225,134.984 "/>
     <polygon id="_77755640" fill="none" stroke="#1F1A17" stroke-width="0.0762" points="146.225,134.984 144.006,134.533 141.932,137.678 143.08,143.521 142.954,142.878 "/>
     <polygon id="_79477488" fill="none" stroke="#1F1A17" stroke-width="0.0762" points="139.327,135.888 140.745,135.477 141.932,137.678 142.921,142.712 139.327,149.387 "/>
     <polygon id="_78178288" fill="none" stroke="#1F1A17" stroke-width="0.0762" points="143.185,107.216 142.884,110.903 139.189,110.699 139.146,107.059 "/>
    </g>
    <polygon id="_76726456" fill="none" stroke="#1F1A17" stroke-width="0.0762" points="135.112,107.216 135.327,110.903 137.961,110.699 137.992,107.059 "/>
    <g>
     <polygon id="_76811952" fill="none" stroke="#1F1A17" stroke-width="0.0762" points="162.559,154.109 165.673,155.193 166.121,160.554 162.781,163.28 159.316,161.734 "/>
     <polygon id="_77751256" fill="none" stroke="#1F1A17" stroke-width="0.0762" points="163.123,145.027 168.454,146.961 169.265,152.279 165.673,155.193 162.559,154.109 "/>
     <polygon id="_76462040" fill="none" stroke="#1F1A17" stroke-width="0.0762" points="171.657,154.843 169.265,152.279 165.673,155.193 166.121,160.554 171.809,163.322 "/>
    </g>
    <polygon id="_78100144" fill="none" stroke="#1F1A17" stroke-width="0.0762" points="127.67,155.638 125.048,156.81 125.14,159.274 128.174,163.322 130.405,162.31 "/>
   </g>
   <path id="cadre_3" fill="#CCCCCC" fill-rule="nonzero" stroke="#CCCCCC" stroke-width="0.0762" d="M124.998 107.01l50.0034 0 0 56.3625 -50.0034 0 0 -56.3625zm49.9536 0.0497l-49.9039 0 0 56.2631 49.9039 0 0 -56.2631z"/>
   <g id="n_x0020_sommet_x0020_II_4">
    <path id="_65722000" fill="#CCCCCC" fill-rule="nonzero" stroke="#C2C1C1" stroke-width="0.3528" d="M158.676 162.916c1.5078,-3.6308 2.6104,-6.9714 3.3288,-10.119 2.5163,-11.0249 0.3321,-19.6927 -5.546,-30.2283l0.0872 -0.0474c5.8901,10.5574 8.0787,19.2444 5.5559,30.2972 -0.7172,3.142 -1.8161,6.4758 -3.3184,10.0975l-0.1075 0z"/>
    <path id="_76606856" fill="#CCCCCC" fill-rule="nonzero" stroke="#C2C1C1" stroke-width="0.3528" d="M145.952 162.98c5.0569,-9.8817 8.3961,-18.7796 9.8215,-26.6185 1.9754,-10.8625 0.2768,-19.6921 -5.614,-26.2914l0.0743 -0.0655c5.9128,6.624 7.6187,15.481 5.6376,26.3743 -1.425,7.8367 -4.7592,16.7284 -9.8077,26.6011l-0.1117 0z"/>
    <path id="_79067416" fill="#CCCCCC" fill-rule="nonzero" stroke="#C2C1C1" stroke-width="0.3528" d="M138.841 150.738c5.2464,-10.0697 9.6835,-19.6351 11.2899,-27.9236 1.1324,-5.8426 0.8568,-11.0505 -1.5345,-15.3533l0.1151 0c2.3789,4.314 2.65,9.5273 1.5173,15.3717 -1.6086,8.2999 -6.0491,17.8733 -11.2993,27.9503l-0.0885 -0.0451z"/>
    <path id="_77545976" fill="#CCCCCC" fill-rule="nonzero" stroke="#C2C1C1" stroke-width="0.3528" d="M139.051 128.447c3.8744,-10.5057 5.8295,-16.8532 6.0465,-20.9861l0.0998 0c-0.2168,4.145 -2.1741,10.5014 -6.0528,21.0189l-0.0935 -0.0328z"/>
   </g>
   <g id="n_x0020_sommet_x0020_II_5">
    <path id="_77173416" fill="#CCCCCC" fill-rule="nonzero" stroke="#C2C1C1" stroke-width="0.3528" d="M131.32 163.012c-2.3627,-5.1006 -4.3135,-9.9451 -5.8284,-14.524l0 -0.2975c1.5301,4.6661 3.5153,9.6099 5.9311,14.8215l-0.1027 0zm-5.8284 -50.6738c0.7237,-1.2359 1.5515,-2.4116 2.4877,-3.5248l0.0679 0.0661c-0.9659,1.1485 -1.8167,2.3636 -2.5556,3.6436l0 -0.1849z"/>
    <path id="_76756296" fill="#CCCCCC" fill-rule="nonzero" stroke="#C2C1C1" stroke-width="0.3528" d="M138.72 150.374c-5.2423,-10.2693 -9.6614,-20.0253 -11.1945,-28.484 -0.9802,-5.4083 -0.7805,-10.2861 1.1356,-14.4294l0.1102 0c-1.9251,4.1338 -2.1276,9.0064 -1.1478,14.412 1.5309,8.4471 5.9468,18.1952 11.1852,28.4571l-0.0887 0.0443z"/>
    <path id="_77813040" fill="#CCCCCC" fill-rule="nonzero" stroke="#C2C1C1" stroke-width="0.3528" d="M138.809 127.642c-3.4919,-9.7692 -5.4521,-15.9862 -5.9521,-20.1808l0.1 0c0.5006,4.1841 2.4589,10.3926 5.9461,20.1488l-0.094 0.032z"/>
   </g>
   <polygon id="nerv_x0020_I_6" fill="#CCCCCC" points="139.117,107.01 139.117,163.372 137.992,163.372 137.992,107.01 "/>
  </g>
  <g id="VenIII_Ramif_ad" onclick="parent.replacechar('VenIII_Ramif_ad')" onmousemove="parent.showtooltip('VenIII_Ramif_ad', 'Tertiary veins admedial')" onmouseout="parent.hidetooltip('VenIII_Ramif_ad')" cursor="pointer" >
   <path id="limbe_7" fill="#A6D10D" stroke="black" stroke-width="0.0762" d="M91.4477 107.01c7.3237,13.3606 11.8659,26.9505 17.0611,39.4703 2.2961,5.6396 4.2406,11.2606 5.8126,16.8922l-49.3231 0 0 -56.3625 26.4494 0z"/>
   <path id="cadre_8" fill="#CCCCCC" fill-rule="nonzero" stroke="#CCCCCC" stroke-width="0.0762" d="M64.9983 107.01l50.0034 0 0 56.3625 -50.0034 0 0 -56.3625zm49.9537 0.0497l-49.9039 0 0 56.263 49.9039 0 0 -56.263z"/>
   <g id="n_x0020_sommet_x0020_II_9">
    <path id="_78542016" fill="#CCCCCC" fill-rule="nonzero" stroke="#C2C1C1" stroke-width="0.3528" d="M98.6757 162.916c1.5078,-3.6308 2.6104,-6.9714 3.3287,-10.119 2.5164,-11.025 0.3321,-19.6927 -5.546,-30.2283l0.0872 -0.0474c5.8902,10.5573 8.0787,19.2444 5.5559,30.2972 -0.7171,3.142 -1.8161,6.4758 -3.3183,10.0975l-0.1075 0z"/>
    <path id="_76545304" fill="#CCCCCC" fill-rule="nonzero" stroke="#C2C1C1" stroke-width="0.3528" d="M85.9523 162.98c5.0569,-9.8817 8.3961,-18.7796 9.8216,-26.6185 1.9754,-10.8625 0.2767,-19.6921 -5.6141,-26.2915l0.0744 -0.0655c5.9128,6.624 7.6186,15.4811 5.6376,26.3744 -1.4251,7.8367 -4.7593,16.7284 -9.8078,26.6011l-0.1117 0z"/>
    <path id="_78513464" fill="#CCCCCC" fill-rule="nonzero" stroke="#C2C1C1" stroke-width="0.3528" d="M78.8407 150.738c5.2464,-10.0697 9.6835,-19.6351 11.2899,-27.9236 1.1325,-5.8426 0.8569,-11.0505 -1.5345,-15.3533l0.1151 0c2.3789,4.3139 2.65,9.5273 1.5173,15.3717 -1.6086,8.2999 -6.0491,17.8733 -11.2993,27.9503l-0.0885 -0.0451z"/>
    <path id="_77605976" fill="#CCCCCC" fill-rule="nonzero" stroke="#C2C1C1" stroke-width="0.3528" d="M79.0506 128.447c3.8744,-10.5057 5.8294,-16.8532 6.0465,-20.9861l0.0997 0c-0.2168,4.145 -2.174,10.5014 -6.0527,21.0189l-0.0935 -0.0328z"/>
   </g>
   <g id="n_x0020_sommet_x0020_II_10">
    <path id="_78081728" fill="#CCCCCC" fill-rule="nonzero" stroke="#C2C1C1" stroke-width="0.3528" d="M71.3197 163.012c-2.3626,-5.1006 -4.3135,-9.9451 -5.8284,-14.524l0 -0.2975c1.5302,4.6661 3.5153,9.6098 5.9312,14.8215l-0.1028 0zm-5.8284 -50.6739c0.7237,-1.2359 1.5515,-2.4116 2.4877,-3.5247l0.0679 0.0661c-0.9659,1.1485 -1.8167,2.3636 -2.5556,3.6436l0 -0.185z"/>
    <path id="_78195256" fill="#CCCCCC" fill-rule="nonzero" stroke="#C2C1C1" stroke-width="0.3528" d="M78.7196 150.375c-5.2422,-10.2693 -9.6614,-20.0253 -11.1944,-28.484 -0.9802,-5.4083 -0.7806,-10.2861 1.1356,-14.4294l0.1102 0c-1.9252,4.1338 -2.1277,9.0064 -1.1479,14.412 1.531,8.447 5.9468,18.1952 11.1853,28.4571l-0.0888 0.0443z"/>
    <path id="_66882264" fill="#CCCCCC" fill-rule="nonzero" stroke="#C2C1C1" stroke-width="0.3528" d="M78.8085 127.642c-3.4918,-9.7693 -5.4521,-15.9862 -5.9521,-20.1808l0.1001 0c0.5006,4.1841 2.4589,10.3926 5.946,20.1488l-0.094 0.032z"/>
   </g>
   <polygon id="nerv_x0020_I_11" fill="#CCCCCC" points="79.1171,107.01 79.1171,163.372 77.9917,163.372 77.9917,107.01 "/>
   <g id="admedial">
    <g id="adm">
     <path id="_77529768" fill="none" stroke="black" stroke-width="0.0762" d="M88.9599 108.626c-2.9638,0.8565 -3.5828,9.5724 -3.4211,11.9532 0.3133,4.6121 -2.5254,12.8684 -4.4703,17.3924"/>
     <path id="_78525216" fill="none" stroke="black" stroke-width="0.0762" d="M85.709 116.486c-1.8355,0.3884 -2.7694,4.7594 -3.2555,5.8902"/>
     <path id="_78479536" fill="none" stroke="black" stroke-width="0.0762" d="M85.394 123.627c0.0739,0.385 1.9059,2.3487 1.5705,4.331"/>
     <path id="_78517200" fill="none" stroke="black" stroke-width="0.0762" d="M83.6511 130.975c-2.0602,0.564 -2.5724,3.687 -3.4214,4.1747"/>
     <path id="_77448008" fill="none" stroke="black" stroke-width="0.0762" d="M82.8471 133.417c-0.0772,0.3843 0.8762,2.895 -0.1839,4.6033"/>
    </g>
    <g id="adm_12">
     <path id="_77784720" fill="none" stroke="black" stroke-width="0.0762" d="M95.0162 118.826c-2.9638,0.8566 -3.5828,9.5724 -3.4211,11.9533 0.3134,4.612 -2.5253,12.8683 -4.4703,17.3924"/>
     <path id="_76674128" fill="none" stroke="black" stroke-width="0.0762" d="M91.7653 126.686c-1.8355,0.3884 -2.7693,4.7594 -3.2555,5.8902"/>
     <path id="_78443464" fill="none" stroke="black" stroke-width="0.0762" d="M91.4504 133.827c0.0738,0.385 1.9058,2.3487 1.5704,4.331"/>
     <path id="_27604832" fill="none" stroke="black" stroke-width="0.0762" d="M89.7074 141.175c-2.0602,0.5641 -2.5724,3.6871 -3.4213,4.1748"/>
     <path id="_79175712" fill="none" stroke="black" stroke-width="0.0762" d="M88.9034 143.617c-0.0772,0.3843 0.8762,2.895 -0.1839,4.6033"/>
    </g>
    <g id="adm_13">
     <path id="_66891312" fill="none" stroke="black" stroke-width="0.0762" d="M101.073 132.745c-2.9638,0.8566 -3.5828,9.5724 -3.4211,11.9533 0.3134,4.6121 -2.5253,12.8683 -4.4703,17.3924"/>
     <path id="_78089072" fill="none" stroke="black" stroke-width="0.0762" d="M97.8216 140.605c-1.8355,0.3884 -2.7693,4.7594 -3.2555,5.8902"/>
     <path id="_78608472" fill="none" stroke="black" stroke-width="0.0762" d="M97.5067 147.746c0.0738,0.385 1.9058,2.3487 1.5704,4.331"/>
     <path id="_76756536" fill="none" stroke="black" stroke-width="0.0762" d="M95.7637 155.094c-2.0602,0.5641 -2.5724,3.6871 -3.4213,4.1748"/>
     <path id="_67163832" fill="none" stroke="black" stroke-width="0.0762" d="M94.9597 157.536c-0.0772,0.3843 0.8763,2.895 -0.1838,4.6033"/>
    </g>
    <g id="adm_14">
     <path id="_67164152" fill="none" stroke="black" stroke-width="0.0762" d="M68.6645 107.596c2.9638,0.8566 3.5828,9.5724 3.4211,11.9533 -0.3133,4.612 2.5254,12.8683 4.4703,17.3924"/>
     <path id="_78969824" fill="none" stroke="black" stroke-width="0.0762" d="M71.9154 115.456c1.8355,0.3884 2.7694,4.7594 3.2555,5.8902"/>
     <path id="_78967400" fill="none" stroke="black" stroke-width="0.0762" d="M72.2304 122.597c-0.0739,0.385 -1.9059,2.3487 -1.5705,4.331"/>
     <path id="_78186736" fill="none" stroke="black" stroke-width="0.0762" d="M73.9733 129.945c2.0602,0.5641 2.5724,3.6871 3.4214,4.1748"/>
     <path id="_78189032" fill="none" stroke="black" stroke-width="0.0762" d="M74.7773 132.387c0.0772,0.3843 -0.8762,2.895 0.1839,4.6033"/>
    </g>
    <g id="adm_15">
     <path id="_78205616" fill="none" stroke="black" stroke-width="0.0762" d="M64.9984 135.437c2.5253,0.3622 4.0302,7.4292 4.1704,9.3975 0.2715,3.813 3.5416,10.2495 5.6525,13.7318"/>
     <path id="_78210136" fill="none" stroke="black" stroke-width="0.0762" d="M68.5607 141.501c1.5477,0.1079 2.8129,3.5807 3.3405,4.4511"/>
     <path id="_67104112" fill="none" stroke="black" stroke-width="0.0762" d="M69.6363 147.314c-0.0164,0.3238 -1.2919,2.1417 -0.7902,3.7268"/>
     <path id="_66499768" fill="none" stroke="black" stroke-width="0.0762" d="M71.9051 153.132c1.7518,0.226 2.5289,2.7249 3.2799,3.0272"/>
     <path id="_76497960" fill="none" stroke="black" stroke-width="0.0762" d="M72.8431 155.039c0.1072,0.3059 -0.3861,2.4712 0.6777,3.7488"/>
    </g>
   </g>
  </g>
  <g id="VenIII_RetPer" onclick="parent.replacechar('VenIII_RetPer')" onmousemove="parent.showtooltip('VenIII_RetPer', 'Tertiary veins reticulo-percurrent')" onmouseout="parent.hidetooltip('VenIII_RetPer')" cursor="pointer" >
   <path id="cadre_16" fill="#CCCCCC" fill-rule="nonzero" stroke="#CCCCCC" stroke-width="0.0762" d="M4.8925 106.771l50.2147 0 0 56.6007 -50.2147 0 0 -56.6007zm50.1648 0.05l-50.1148 0 0 56.5007 50.1148 0 0 -56.5007z"/>
   <g id="feuille">
    <path id="limbe_17" fill="#A6D10D" stroke="black" stroke-width="0.0762" d="M31.5036 106.746c7.3547,13.4171 11.9161,27.0644 17.1333,39.6371 2.3057,5.6634 4.2585,11.3082 5.8371,16.9636l-49.5315 0 0 -25.5729 0 -19.4795 0 -11.5483 26.5611 0z"/>
    <g id="n_x0020_sommet_x0020_II_18">
     <path id="_78181728" fill="#CCCCCC" fill-rule="nonzero" stroke="#C2C1C1" stroke-width="0.3528" d="M38.7622 162.888c1.5141,-3.6461 2.6214,-7.0008 3.3428,-10.1617 2.527,-11.0715 0.3335,-19.7759 -5.5694,-30.356l0.0875 -0.0476c5.9151,10.6019 8.1129,19.3257 5.5794,30.4252 -0.7202,3.1553 -1.8237,6.5031 -3.3324,10.1401l-0.1079 0z"/>
     <path id="_77139040" fill="#CCCCCC" fill-rule="nonzero" stroke="#C2C1C1" stroke-width="0.3528" d="M25.9851 162.952c5.0782,-9.9234 8.4316,-18.859 9.863,-26.7309 1.9838,-10.9085 0.2779,-19.7754 -5.6378,-26.4026l0.0747 -0.0658c5.9378,6.652 7.6509,15.5465 5.6615,26.4859 -1.4311,7.8697 -4.7794,16.799 -9.8492,26.7134l-0.1122 0z"/>
     <path id="_76880360" fill="#CCCCCC" fill-rule="nonzero" stroke="#C2C1C1" stroke-width="0.3528" d="M18.8434 150.659c5.2686,-10.1123 9.7245,-19.7181 11.3376,-28.0416 1.1373,-5.8673 0.8605,-11.0972 -1.5409,-15.4182l0.1155 0c2.389,4.3322 2.6613,9.5676 1.5238,15.4367 -1.6154,8.335 -6.0747,17.9488 -11.3471,28.0683l-0.0889 -0.0452z"/>
     <path id="_79173632" fill="#CCCCCC" fill-rule="nonzero" stroke="#C2C1C1" stroke-width="0.3528" d="M19.0542 128.274c3.8908,-10.5501 5.854,-16.9244 6.072,-21.0748l0.1002 0c-0.2177,4.1625 -2.1832,10.5458 -6.0783,21.1078l-0.0939 -0.033z"/>
    </g>
    <g id="n_x0020_sommet_x0020_II_19">
     <path id="_77273920" fill="#CCCCCC" fill-rule="nonzero" stroke="#C2C1C1" stroke-width="0.3528" d="M11.2907 162.984c-2.3727,-5.1221 -4.3318,-9.9871 -5.853,-14.5854l0 -0.2986c1.5365,4.6857 3.5301,9.6504 5.9562,14.884l-0.1032 0zm-5.853 -50.8879c0.7267,-1.2411 1.558,-2.4218 2.4981,-3.5396l0.0682 0.0663c-0.9699,1.1534 -1.8243,2.3736 -2.5663,3.659l0 -0.1857z"/>
     <path id="_77806048" fill="#CCCCCC" fill-rule="nonzero" stroke="#C2C1C1" stroke-width="0.3528" d="M18.7218 150.293c-5.2644,-10.3126 -9.7022,-20.1099 -11.2417,-28.6043 -0.9844,-5.4312 -0.7839,-10.3296 1.1404,-14.4904l0.1107 0c-1.9333,4.1513 -2.1367,9.0445 -1.1528,14.4729 1.5374,8.4828 5.972,18.2721 11.2326,28.5773l-0.0892 0.0445z"/>
     <path id="_78530888" fill="#CCCCCC" fill-rule="nonzero" stroke="#C2C1C1" stroke-width="0.3528" d="M18.8111 127.465c-3.5066,-9.8105 -5.4751,-16.0537 -5.9772,-20.2661l0.1004 0c0.5028,4.2019 2.4693,10.4365 5.9712,20.234l-0.0944 0.0321z"/>
    </g>
    <polygon id="nerv_x0020_I_20" fill="#CCCCCC" points="19.121,106.746 19.121,163.346 17.9901,163.229 17.9901,106.628 "/>
    <g id="nerv_x0020_III">
     <path id="_77776680" fill="none" stroke="#1F1A17" stroke-width="0.0762" d="M19.121 155.751c7.4706,-2.6957 9.487,-0.1458 10.0879,0.2596"/>
     <path id="_76512016" fill="none" stroke="#1F1A17" stroke-width="0.0762" d="M20.3434 147.967c6.6805,-0.155 10.6909,3.6617 10.6909,3.6617"/>
     <path id="_66871064" fill="none" stroke="#1F1A17" stroke-width="0.0762" d="M23.1694 142.614c2.8903,2.2472 4.3672,1.6129 4.8775,1.4726l6.1481 -1.6907"/>
     <path id="_77213456" fill="none" stroke="#1F1A17" stroke-width="0.0762" d="M26.5707 134.942c3.6732,8.7097 2.4176,7.9805 2.5499,8.8489"/>
     <path id="_77118064" fill="none" stroke="#1F1A17" stroke-width="0.0762" d="M27.4206 132.791c5.5644,0.9522 8.2382,3.3089 8.2382,3.3089"/>
     <path id="_77136328" fill="none" stroke="#1F1A17" stroke-width="0.0762" d="M36.2006 123.642c-2.562,-0.2937 -3.9779,2.5902 -3.8628,2.5665l-3.6147 2.9406"/>
     <path id="_76566496" fill="none" stroke="#1F1A17" stroke-width="0.0762" d="M36.3591 130.792c-1.3507,-0.5936 -1.2654,-2.4719 -4.0213,-4.5831"/>
     <path id="_76703664" fill="none" stroke="#1F1A17" stroke-width="0.0762" d="M30.9434 118.54c2.649,0.4533 4.496,1.5016 4.496,1.5016"/>
     <path id="_76568456" fill="none" stroke="#1F1A17" stroke-width="0.0762" d="M33.3921 146.443l2.6209 2.6212 0.5226 3.56c3.326,0.5819 7.9788,3.1128 10.3628,5.6062"/>
     <polyline id="_66412280" fill="none" stroke="#1F1A17" stroke-width="0.0762" points="29.5521,156.01 32.9213,155.248 36.5356,152.625 "/>
     <polyline id="_76437440" fill="none" stroke="#1F1A17" stroke-width="0.0762" points="36.013,149.065 42.9585,147.587 45.2699,148.114 "/>
     <path id="_78029416" fill="none" stroke="#1F1A17" stroke-width="0.0762" d="M35.4279 139.45c3.4358,-0.4877 7.7576,2.6292 7.7576,2.6292"/>
     <path id="_78479464" fill="none" stroke="#1F1A17" stroke-width="0.0762" d="M27.9679 159.365c5.2671,-0.7282 14.8236,3.9809 14.8236,3.9809"/>
     <path id="_76845360" fill="none" stroke="#1F1A17" stroke-width="0.0762" d="M36.2545 134.36c1.5116,0.3817 2.1289,0.1373 2.1289,0.1373l3.4428 -0.2422"/>
     <path id="_79069072" fill="none" stroke="#1F1A17" stroke-width="0.0762" d="M36.8887 129.187c4.1298,5.1827 2.7414,5.2226 2.7414,5.2226"/>
     <polyline id="_78092456" fill="none" stroke="#1F1A17" stroke-width="0.0762" points="30.0349,122.128 26.1473,121.004 25.438,118.057 23.0658,117.009 "/>
     <polyline id="_66522608" fill="none" stroke="#1F1A17" stroke-width="0.0762" points="21.6658,122.245 24.3961,122.114 26.1473,121.004 "/>
     <line id="_67087000" fill="none" stroke="#1F1A17" stroke-width="0.0762" x1="30.6381" y1="116.347" x2="25.438" y2= "118.057" />
     <path id="_78516528" fill="none" stroke="#1F1A17" stroke-width="0.0762" d="M19.121 137.908c4.3909,-1.4786 5.7495,0.1578 5.7495,0.1578"/>
     <path id="_78516480" fill="none" stroke="#1F1A17" stroke-width="0.0762" d="M19.121 132.934c5.3318,-1.8819 7.7054,0.1639 7.7054,0.1639"/>
     <path id="_77779352" fill="none" stroke="#1F1A17" stroke-width="0.0762" d="M19.9456 126.695c6.0028,-0.8687 8.6094,2.1296 8.6094,2.1296"/>
     <path id="_78544736" fill="none" stroke="#1F1A17" stroke-width="0.0762" d="M19.121 112.043c4.2151,-1.8697 11.9702,1.2287 11.316,1.1356"/>
     <path id="_78544688" fill="none" stroke="#1F1A17" stroke-width="0.0762" d="M9.6263 158.626c5.4198,-3.879 8.3646,-1.2278 8.3646,-1.2278"/>
     <path id="_77909312" fill="none" stroke="#1F1A17" stroke-width="0.0762" d="M7.0727 152.198c5.7752,-3.6551 10.9182,-0.7235 10.9182,-0.7235"/>
     <polyline id="_67165352" fill="none" stroke="#1F1A17" stroke-width="0.0762" points="15.9506,145.102 10.5639,146.465 8.7974,144.598 5.1755,144.233 "/>
     <polyline id="_76856816" fill="none" stroke="#1F1A17" stroke-width="0.0762" points="5.8797,149.176 7.5111,148.373 10.5639,146.465 "/>
     <line id="_76823208" fill="none" stroke="#1F1A17" stroke-width="0.0762" x1="13.111" y1="139.031" x2="8.7975" y2= "144.598" />
     <path id="_76479072" fill="none" stroke="#1F1A17" stroke-width="0.0762" d="M12.3768 136.166c3.7165,-3.2395 5.6141,-2.2415 5.6141,-2.2415"/>
     <path id="_78610912" fill="none" stroke="#1F1A17" stroke-width="0.0762" d="M10.6052 131.744c4.3048,-5.4597 7.3857,-3.9183 7.3857,-3.9183"/>
     <path id="_78610864" fill="none" stroke="#1F1A17" stroke-width="0.0762" d="M8.8779 126.403c4.0284,-4.2424 9.113,-4.6978 9.113,-4.6978"/>
     <path id="_65748320" fill="none" stroke="#1F1A17" stroke-width="0.0762" d="M5.1457 135.391c3.1294,2.0101 2.7372,3.0273 2.7372,3.0273"/>
     <path id="_76545512" fill="none" stroke="#1F1A17" stroke-width="0.0762" d="M5.1767 139.184c1.5556,-0.0798 2.2143,-0.507 2.2143,-0.507l4.7461 -2.3215"/>
     <path id="_76545464" fill="none" stroke="#1F1A17" stroke-width="0.0762" d="M8.4751 126.709c-3.6289,3.5472 -3.2086,3.2215 -3.4451,3.8341"/>
     <path id="_78271384" fill="none" stroke="#1F1A17" stroke-width="0.0762" d="M17.9909 116.566c-6.2148,0.1104 -10.2963,3.7741 -10.9733,4.646l-1.9741 2.5421"/>
     <line id="_78200384" fill="none" stroke="#1F1A17" stroke-width="0.0762" x1="6.2335" y1="122.211" x2="5.0377" y2= "121.685" />
     <path id="_78200336" fill="none" stroke="#1F1A17" stroke-width="0.0762" d="M7.1715 116.171c3.2531,-2.5263 10.8194,-4.2039 10.8194,-3.8006"/>
     <path id="_77208616" fill="none" stroke="#1F1A17" stroke-width="0.0762" d="M6.7423 116.432c-1.7937,1.2561 -1.7998,1.862 -1.7998,1.862"/>
     <path id="_77722376" fill="none" stroke="#1F1A17" stroke-width="0.0762" d="M7.5783 111.241c2.4745,-2.3366 9.5714,-3.4803 10.4118,-3.246"/>
     <path id="_77722328" fill="none" stroke="#1F1A17" stroke-width="0.0762" d="M5.2745 112.861c2.2029,-1.8909 1.9867,-1.3193 1.8817,-1.4243"/>
     <path id="_45510672" fill="none" stroke="#1F1A17" stroke-width="0.0762" d="M8.7723 107.54c1.2206,-1.0478 0.8828,-0.602 0.8246,-0.6602"/>
     <path id="_64490088" fill="none" stroke="#1F1A17" stroke-width="0.0762" d="M19.121 121.735c1.0888,-0.3755 1.9518,0.363 2.0247,0.2635"/>
     <path id="_66428856" fill="none" stroke="#1F1A17" stroke-width="0.0762" d="M19.1651 116.493c2.6529,-0.5203 3.7808,0.6849 3.655,0.415"/>
     <path id="_77722400" fill="none" stroke="#1F1A17" stroke-width="0.0762" d="M19.121 107.87c4.2655,-1.7183 10.7031,1.0759 10.0489,0.9829"/>
    </g>
    <path id="_77208664" fill="#CCCCCC" fill-rule="nonzero" stroke="#C2C1C1" stroke-width="0.3528" d="M47.7888 163.346c-1.5683,-11.5424 -2.8704,-18.3279 -4.6882,-22.2307l0.0917 -0.0486c1.8239,3.9137 3.1283,10.7085 4.6984,22.2638l-0.1019 0.0155z"/>
   </g>
  </g>
  <g id="VenIII_Oblique" onclick="parent.replacechar('VenIII_Oblique')" onmousemove="parent.showtooltip('VenIII_Oblique', 'Tertiary veins oblique')" onmouseout="parent.hidetooltip('VenIII_Oblique')" cursor="pointer" >
   <path id="limbe_21" fill="#A6D10D" stroke="black" stroke-width="0.0762" d="M201.476 16.8187c7.3238,13.3606 11.866,26.9505 17.0612,39.4704 2.2961,5.6395 4.2406,11.2605 5.8125,16.8921l-49.323 0 0 -56.3625 26.4493 0z"/>
   <g id="nerv_x0020_III_x0020_droite">
    <path id="_77222408" fill="none" stroke="#1F1A17" stroke-width="0.0762" d="M188.911 69.1182c6.3445,1.6399 9.103,2.3787 15.2659,4.0133"/>
    <path id="_80297824" fill="none" stroke="#1F1A17" stroke-width="0.0762" d="M188.953 64.6071c13.4715,3.4816 19.3284,5.0515 32.4136,8.5243"/>
    <path id="_77134688" fill="none" stroke="#1F1A17" stroke-width="0.0762" d="M189.09 61.9005c14.0463,3.6297 20.1528,5.2674 33.7959,8.8894"/>
    <path id="_66439848" fill="none" stroke="#1F1A17" stroke-width="0.0762" d="M189.031 58.5039c13.8642,3.582 19.8911,5.1998 33.3565,8.7768"/>
    <path id="_77128120" fill="none" stroke="#1F1A17" stroke-width="0.0762" d="M189.145 55.7855c13.4757,3.481 19.3334,5.0547 32.421,8.5334"/>
    <path id="_67099488" fill="none" stroke="#1F1A17" stroke-width="0.0762" d="M189.779 53.1969c12.7536,3.2941 18.2972,4.7842 30.6831,8.0774"/>
    <path id="_66303088" fill="none" stroke="#1F1A17" stroke-width="0.0762" d="M189.46 50.6495c12.3983,3.2018 17.787,4.6514 29.8273,7.8544"/>
    <path id="_67165424" fill="none" stroke="#1F1A17" stroke-width="0.0762" d="M189.077 47.5713c11.9745,3.0916 17.1785,4.4932 28.8064,7.5892"/>
    <path id="_77867696" fill="none" stroke="#1F1A17" stroke-width="0.0762" d="M189.082 45.0768c11.3863,2.9393 16.3345,4.2728 27.3909,7.2177"/>
    <path id="_66426872" fill="none" stroke="#1F1A17" stroke-width="0.0762" d="M189.145 41.9841c10.9027,2.8138 15.6403,4.092 26.2264,6.9139"/>
    <path id="_66859248" fill="none" stroke="#1F1A17" stroke-width="0.0762" d="M189.145 39.6988c10.5697,2.7273 15.1623,3.9676 25.4245,6.7047"/>
    <path id="_76656472" fill="none" stroke="#1F1A17" stroke-width="0.0762" d="M189.164 36.9041c10.0365,2.5893 14.3972,3.7679 24.1413,6.3683"/>
    <path id="_78304368" fill="none" stroke="#1F1A17" stroke-width="0.0762" d="M189.145 34.5482c9.6479,2.4886 13.8394,3.6225 23.2057,6.1238"/>
    <path id="_65783752" fill="none" stroke="#1F1A17" stroke-width="0.0762" d="M189.145 31.7967c9.127,2.3532 13.0915,3.4279 21.951,5.7971"/>
    <path id="_77125424" fill="none" stroke="#1F1A17" stroke-width="0.0762" d="M189.145 28.9723c8.4742,2.1845 12.1549,3.1833 20.3804,5.3844"/>
    <path id="_77648520" fill="none" stroke="#1F1A17" stroke-width="0.0762" d="M189.145 25.9496c7.8807,2.0306 11.303,2.9611 18.9515,5.0104"/>
    <path id="_77353560" fill="none" stroke="#1F1A17" stroke-width="0.0762" d="M189.145 23.2836c7.4797,1.9268 10.7276,2.8109 17.9864,4.7575"/>
    <path id="_76586792" fill="none" stroke="#1F1A17" stroke-width="0.0762" d="M188.465 20.3195c7.1289,1.8357 10.224,2.6798 17.1416,4.5373"/>
    <path id="_66527232" fill="none" stroke="#1F1A17" stroke-width="0.0762" d="M189.17 17.6067c6.0496,1.5569 8.6757,2.2748 14.5452,3.8534"/>
    <path id="_78031240" fill="none" stroke="#1F1A17" stroke-width="0.0762" d="M195.685 16.8685c2.8743,0.7395 4.1218,1.0812 6.9103,1.832"/>
   </g>
   <g id="nerv_x0020_III_x0020_gauche">
    <path id="_76691384" fill="none" stroke="#1F1A17" stroke-width="0.0762" d="M188.655 69.2244c-5.6577,1.4624 -8.1176,2.1213 -13.6133,3.5789"/>
    <path id="_76586528" fill="none" stroke="#1F1A17" stroke-width="0.0762" d="M188.613 64.7134c-5.5354,1.4305 -7.942,2.0756 -13.3187,3.5026"/>
    <path id="_76542304" fill="none" stroke="#1F1A17" stroke-width="0.0762" d="M188.476 62.0067c-5.5345,1.4302 -7.9406,2.0755 -13.3163,3.5026"/>
    <path id="_76860032" fill="none" stroke="#1F1A17" stroke-width="0.0762" d="M188.534 58.6102c-5.5328,1.4295 -7.9379,2.0751 -13.3115,3.5026"/>
    <path id="_66861184" fill="none" stroke="#1F1A17" stroke-width="0.0762" d="M188.42 55.8918c-5.5498,1.4336 -7.9621,2.0817 -13.3521,3.5143"/>
    <path id="_77196864" fill="none" stroke="#1F1A17" stroke-width="0.0762" d="M187.786 53.3032c-5.1949,1.3418 -7.453,1.9488 -12.4982,3.2902"/>
    <path id="_45629568" fill="none" stroke="#1F1A17" stroke-width="0.0762" d="M188.105 50.7557c-5.3611,1.3845 -7.6912,2.0113 -12.8974,3.3963"/>
    <path id="_27631480" fill="none" stroke="#1F1A17" stroke-width="0.0762" d="M188.489 47.6776c-5.6101,1.4484 -8.0482,2.1051 -13.4958,3.5555"/>
    <path id="_66500040" fill="none" stroke="#1F1A17" stroke-width="0.0762" d="M188.484 45.183c-5.5258,1.4265 -7.9271,2.0737 -13.2928,3.5028"/>
    <path id="_78272624" fill="none" stroke="#1F1A17" stroke-width="0.0762" d="M188.42 42.0903c-5.5463,1.4314 -7.9564,2.0817 -13.3417,3.5173"/>
    <path id="_67236672" fill="none" stroke="#1F1A17" stroke-width="0.0762" d="M188.421 39.805c-5.55,1.4321 -7.9615,2.0833 -13.35,3.5206"/>
    <path id="_76629216" fill="none" stroke="#1F1A17" stroke-width="0.0762" d="M188.402 37.0103c-5.5198,1.4241 -7.9181,2.0723 -13.2771,3.5024"/>
    <path id="_78506200" fill="none" stroke="#1F1A17" stroke-width="0.0762" d="M188.42 34.6544c-5.5508,1.4318 -7.9624,2.0842 -13.3512,3.5233"/>
    <path id="_76501920" fill="none" stroke="#1F1A17" stroke-width="0.0762" d="M188.42 31.903c-5.4505,1.4053 -7.8181,2.0471 -13.1088,3.4619"/>
    <path id="_77201568" fill="none" stroke="#1F1A17" stroke-width="0.0762" d="M188.421 29.0785c-5.4669,1.4092 -7.8414,2.0536 -13.1478,3.4736"/>
    <path id="_66499088" fill="none" stroke="#1F1A17" stroke-width="0.0762" d="M188.421 26.0559c-5.5433,1.4283 -7.9506,2.0828 -13.3305,3.5243"/>
    <path id="_77125488" fill="none" stroke="#1F1A17" stroke-width="0.0762" d="M188.421 23.3898c-5.477,1.4109 -7.8553,2.0583 -13.1706,3.4838"/>
    <path id="_77779432" fill="none" stroke="#1F1A17" stroke-width="0.0762" d="M189.1 20.4258c-5.8338,1.5022 -8.3667,2.193 -14.0276,3.713"/>
    <path id="_65763208" fill="none" stroke="#1F1A17" stroke-width="0.0762" d="M188.396 17.7129c-5.553,1.4292 -7.9634,2.0881 -13.351,3.5371"/>
    <path id="_66393472" fill="none" stroke="#1F1A17" stroke-width="0.0762" d="M181.88 16.9748c-2.8743,0.7395 -4.1218,1.0811 -6.9103,1.8319"/>
   </g>
   <path id="cadre_22" fill="#CCCCCC" fill-rule="nonzero" stroke="#CCCCCC" stroke-width="0.0762" d="M175.027 16.8187l50.0034 0 0 56.3625 -50.0034 0 0 -56.3625zm49.9537 0.0497l-49.904 0 0 56.2631 49.904 0 0 -56.2631z"/>
   <g id="n_x0020_sommet_x0020_II_23">
    <path id="_77874336" fill="#CCCCCC" fill-rule="nonzero" stroke="#C2C1C1" stroke-width="0.3528" d="M208.704 72.7251c1.5077,-3.6307 2.6103,-6.9714 3.3287,-10.119 2.5164,-11.0249 0.3321,-19.6927 -5.546,-30.2283l0.0872 -0.0474c5.8902,10.5574 8.0787,19.2444 5.5559,30.2972 -0.7171,3.142 -1.8161,6.4758 -3.3184,10.0975l-0.1074 0z"/>
    <path id="_77767024" fill="#CCCCCC" fill-rule="nonzero" stroke="#C2C1C1" stroke-width="0.3528" d="M195.981 72.789c5.0569,-9.8816 8.3961,-18.7796 9.8215,-26.6185 1.9755,-10.8625 0.2768,-19.6921 -5.614,-26.2914l0.0744 -0.0655c5.9128,6.624 7.6186,15.481 5.6376,26.3744 -1.4251,7.8366 -4.7593,16.7283 -9.8078,26.601l-0.1117 0z"/>
    <path id="_77605816" fill="#CCCCCC" fill-rule="nonzero" stroke="#C2C1C1" stroke-width="0.3528" d="M188.869 60.547c5.2464,-10.0697 9.6835,-19.6351 11.2899,-27.9236 1.1324,-5.8426 0.8569,-11.0505 -1.5345,-15.3533l0.1151 0c2.3789,4.314 2.65,9.5273 1.5173,15.3717 -1.6086,8.2999 -6.0491,17.8734 -11.2993,27.9503l-0.0885 -0.0451z"/>
    <path id="_66750448" fill="#CCCCCC" fill-rule="nonzero" stroke="#C2C1C1" stroke-width="0.3528" d="M189.079 38.2563c3.8744,-10.5058 5.8294,-16.8532 6.0464,-20.9862l0.0998 0c-0.2168,4.145 -2.174,10.5014 -6.0528,21.019l-0.0934 -0.0328z"/>
   </g>
   <g id="n_x0020_sommet_x0020_II_24">
    <path id="_77014640" fill="#CCCCCC" fill-rule="nonzero" stroke="#C2C1C1" stroke-width="0.3528" d="M181.348 72.8209c-2.3626,-5.1006 -4.3135,-9.9451 -5.8284,-14.524l0 -0.2974c1.5301,4.666 3.5153,9.6098 5.9312,14.8214l-0.1028 0zm-5.8284 -50.6738c0.7237,-1.2359 1.5515,-2.4116 2.4877,-3.5248l0.0679 0.0661c-0.9659,1.1485 -1.8167,2.3636 -2.5556,3.6436l0 -0.1849z"/>
    <path id="_77229280" fill="#CCCCCC" fill-rule="nonzero" stroke="#C2C1C1" stroke-width="0.3528" d="M188.748 60.1835c-5.2422,-10.2692 -9.6614,-20.0253 -11.1944,-28.484 -0.9802,-5.4083 -0.7806,-10.2861 1.1355,-14.4294l0.1103 0c-1.9252,4.1339 -2.1277,9.0064 -1.1479,14.412 1.5309,8.4471 5.9468,18.1952 11.1853,28.4571l-0.0888 0.0443z"/>
    <path id="_76482792" fill="#CCCCCC" fill-rule="nonzero" stroke="#C2C1C1" stroke-width="0.3528" d="M188.837 37.4509c-3.4919,-9.7692 -5.4521,-15.9861 -5.9521,-20.1808l0.1 0c0.5007,4.1842 2.459,10.3926 5.9461,20.1488l-0.094 0.032z"/>
   </g>
   <polygon id="nerv_x0020_I_25" fill="#CCCCCC" points="189.145,16.8187 189.145,73.1812 188.02,73.1812 188.02,16.8187 "/>
  </g>
  <g id="VenIII_Horizontal" onclick="parent.replacechar('VenIII_Horizontal')" onmousemove="parent.showtooltip('VenIII_Horizontal', 'Tertiary veins horizontal')" onmouseout="parent.hidetooltip('VenIII_Horizontal')" cursor="pointer" >
   <path id="limbe_26" fill="#A6D10D" stroke="black" stroke-width="0.0762" d="M121.485 16.8187c7.3237,13.3606 11.8659,26.9505 17.0612,39.4704 2.296,5.6395 4.2406,11.2605 5.8125,16.8921l-49.3231 0 0 -56.3625 26.4494 0z"/>
   <g id="nerv_x0020_III_27">
    <path id="_66254752" fill="none" stroke="#1F1A17" stroke-width="0.0762" d="M95.1777 70.4218c20.0569,-0.0294 28.7972,0.0341 48.3119,0.1287"/>
    <path id="_76578352" fill="none" stroke="#1F1A17" stroke-width="0.0762" d="M95.1741 66.0475c19.4673,-0.0295 27.9508,0.034 46.8918,0.1287"/>
    <path id="_66451312" fill="none" stroke="#1F1A17" stroke-width="0.0762" d="M95.1387 63.3944c19.1624,-0.0295 27.5129,0.034 46.1572,0.1287"/>
    <path id="_66821848" fill="none" stroke="#1F1A17" stroke-width="0.0762" d="M95.1377 60.1234c18.5962,-0.0295 26.7,0.034 44.7935,0.1287"/>
    <path id="_66739000" fill="none" stroke="#1F1A17" stroke-width="0.0762" d="M95.139 57.4648c18.1046,-0.0294 25.9942,0.0341 43.6095,0.1287"/>
    <path id="_77785128" fill="none" stroke="#1F1A17" stroke-width="0.0762" d="M95.0111 54.7992c17.8364,-0.0295 25.6091,0.034 42.9634,0.1287"/>
    <path id="_76532464" fill="none" stroke="#1F1A17" stroke-width="0.0762" d="M95.0735 52.4165c17.4094,-0.0295 24.996,0.034 41.9347,0.1287"/>
    <path id="_77742896" fill="none" stroke="#1F1A17" stroke-width="0.0762" d="M95.2014 49.5371c16.7795,-0.0295 24.0916,0.034 40.4175,0.1287"/>
    <path id="_76532360" fill="none" stroke="#1F1A17" stroke-width="0.0762" d="M95.1375 47.1229c16.512,-0.0294 23.7075,0.0341 39.7731,0.1287"/>
    <path id="_77537360" fill="none" stroke="#1F1A17" stroke-width="0.0762" d="M95.2666 44.1159c15.9681,-0.0295 22.9267,0.034 38.4631,0.1286"/>
    <path id="_77054848" fill="none" stroke="#1F1A17" stroke-width="0.0762" d="M95.2826 41.9057c15.5999,-0.0295 22.398,0.034 37.5762,0.1287"/>
    <path id="_66390864" fill="none" stroke="#1F1A17" stroke-width="0.0762" d="M95.0255 39.1974c15.2594,-0.0295 21.9092,0.034 36.7561,0.1287"/>
    <path id="_78528056" fill="none" stroke="#1F1A17" stroke-width="0.0762" d="M95.053 36.9237c14.8666,-0.0294 21.3452,0.0341 35.81,0.1287"/>
    <path id="_76710592" fill="none" stroke="#1F1A17" stroke-width="0.0762" d="M95.6469 34.2649c14.1361,-0.0295 20.2962,0.034 34.0501,0.1287"/>
    <path id="_77039672" fill="none" stroke="#1F1A17" stroke-width="0.0762" d="M95.4081 31.5329c13.7827,-0.0295 19.7888,0.034 33.1989,0.1287"/>
    <path id="_77607720" fill="none" stroke="#1F1A17" stroke-width="0.0762" d="M95.2808 28.6096c13.192,-0.0295 18.9408,0.034 31.7762,0.1287"/>
    <path id="_78555400" fill="none" stroke="#1F1A17" stroke-width="0.0762" d="M95.2804 26.0321c12.8142,-0.0295 18.3984,0.034 30.8662,0.1287"/>
    <path id="_67085616" fill="none" stroke="#1F1A17" stroke-width="0.0762" d="M95.2814 23.3403c12.3034,-0.0295 17.665,0.034 29.6358,0.1287"/>
    <path id="_78030304" fill="none" stroke="#1F1A17" stroke-width="0.0762" d="M95.2802 20.5374c11.7023,-0.0294 16.8019,0.0341 28.1878,0.1287"/>
    <path id="_77289664" fill="none" stroke="#1F1A17" stroke-width="0.0762" d="M94.9611 18.1525c11.3173,-0.0295 16.2491,0.034 27.2605,0.1287"/>
   </g>
   <path id="cadre_28" fill="#CCCCCC" fill-rule="nonzero" stroke="#CCCCCC" stroke-width="0.0762" d="M95.0355 16.8187l50.0035 0 0 56.3625 -50.0035 0 0 -56.3625zm49.9537 0.0497l-49.9039 0 0 56.2631 49.9039 0 0 -56.2631z"/>
   <g id="n_x0020_sommet_x0020_II_29">
    <path id="_76679296" fill="#CCCCCC" fill-rule="nonzero" stroke="#C2C1C1" stroke-width="0.3528" d="M128.713 72.7251c1.5078,-3.6307 2.6104,-6.9714 3.3287,-10.119 2.5164,-11.0249 0.3322,-19.6927 -5.5459,-30.2283l0.0872 -0.0474c5.8901,10.5574 8.0787,19.2444 5.5559,30.2972 -0.7172,3.142 -1.8161,6.4758 -3.3184,10.0975l-0.1075 0z"/>
    <path id="_78608192" fill="#CCCCCC" fill-rule="nonzero" stroke="#C2C1C1" stroke-width="0.3528" d="M115.99 72.789c5.0568,-9.8816 8.3961,-18.7796 9.8215,-26.6185 1.9754,-10.8625 0.2768,-19.6921 -5.6141,-26.2914l0.0744 -0.0655c5.9128,6.624 7.6187,15.481 5.6376,26.3744 -1.425,7.8366 -4.7593,16.7283 -9.8077,26.601l-0.1117 0z"/>
    <path id="_66401256" fill="#CCCCCC" fill-rule="nonzero" stroke="#C2C1C1" stroke-width="0.3528" d="M108.878 60.547c5.2464,-10.0697 9.6835,-19.6351 11.2899,-27.9236 1.1324,-5.8426 0.8568,-11.0505 -1.5345,-15.3533l0.115 0c2.379,4.314 2.6501,9.5273 1.5174,15.3717 -1.6086,8.2999 -6.0491,17.8734 -11.2993,27.9503l-0.0885 -0.0451z"/>
    <path id="_77605888" fill="#CCCCCC" fill-rule="nonzero" stroke="#C2C1C1" stroke-width="0.3528" d="M109.088 38.2563c3.8744,-10.5058 5.8294,-16.8532 6.0465,-20.9862l0.0998 0c-0.2168,4.145 -2.1741,10.5014 -6.0528,21.019l-0.0935 -0.0328z"/>
   </g>
   <g id="n_x0020_sommet_x0020_II_30">
    <path id="_66895736" fill="#CCCCCC" fill-rule="nonzero" stroke="#C2C1C1" stroke-width="0.3528" d="M101.357 72.8209c-2.3627,-5.1006 -4.3135,-9.9451 -5.8284,-14.524l0 -0.2974c1.5301,4.666 3.5153,9.6098 5.9311,14.8214l-0.1027 0zm-5.8284 -50.6738c0.7236,-1.2359 1.5515,-2.4116 2.4876,-3.5248l0.068 0.0661c-0.9659,1.1485 -1.8167,2.3636 -2.5556,3.6436l0 -0.1849z"/>
    <path id="_76527536" fill="#CCCCCC" fill-rule="nonzero" stroke="#C2C1C1" stroke-width="0.3528" d="M108.757 60.1835c-5.2423,-10.2692 -9.6614,-20.0253 -11.1945,-28.484 -0.9802,-5.4083 -0.7805,-10.2861 1.1356,-14.4294l0.1102 0c-1.9251,4.1339 -2.1277,9.0064 -1.1479,14.412 1.531,8.4471 5.9469,18.1952 11.1853,28.4571l-0.0887 0.0443z"/>
    <path id="_77786816" fill="#CCCCCC" fill-rule="nonzero" stroke="#C2C1C1" stroke-width="0.3528" d="M108.846 37.4509c-3.4919,-9.7692 -5.4522,-15.9861 -5.9521,-20.1808l0.1 0c0.5006,4.1842 2.4589,10.3926 5.9461,20.1488l-0.094 0.032z"/>
   </g>
   <polygon id="nerv_x0020_I_31" fill="#CCCCCC" points="109.154,16.8187 109.154,73.1812 108.029,73.1812 108.029,16.8187 "/>
  </g>
  <g id="VenIII_Absent" onclick="parent.replacechar('VenIII_Absent')" onmousemove="parent.showtooltip('VenIII_Absent', 'Tertiary veins absent or not visible')" onmouseout="parent.hidetooltip('VenIII_Absent')" cursor="pointer" >
   <path id="limbe_32" fill="#A6D10D" stroke="black" stroke-width="0.0762" d="M41.4476 16.8188c7.3237,13.3606 11.8659,26.9505 17.0612,39.4703 2.296,5.6396 4.2406,11.2606 5.8125,16.8922l-49.323 0 0 -56.3625 26.4493 0z"/>
   <path id="cadre_33" fill="#CCCCCC" fill-rule="nonzero" stroke="#CCCCCC" stroke-width="0.0762" d="M14.9983 16.8188l50.0034 0 0 56.3625 -50.0034 0 0 -56.3625zm49.9536 0.0497l-49.9039 0 0 56.2631 49.9039 0 0 -56.2631z"/>
   <g id="n_x0020_sommet_x0020_II_34">
    <path id="_76440784" fill="#CCCCCC" fill-rule="nonzero" stroke="#C2C1C1" stroke-width="0.3528" d="M48.6756 72.7252c1.5078,-3.6308 2.6104,-6.9714 3.3287,-10.119 2.5164,-11.0249 0.3322,-19.6927 -5.5459,-30.2283l0.0872 -0.0474c5.8901,10.5574 8.0787,19.2444 5.5559,30.2972 -0.7172,3.142 -1.8161,6.4758 -3.3184,10.0975l-0.1075 0z"/>
    <path id="_76646272" fill="#CCCCCC" fill-rule="nonzero" stroke="#C2C1C1" stroke-width="0.3528" d="M35.9523 72.7891c5.0569,-9.8816 8.3961,-18.7796 9.8215,-26.6185 1.9754,-10.8625 0.2768,-19.6921 -5.614,-26.2914l0.0743 -0.0655c5.9128,6.624 7.6187,15.481 5.6376,26.3743 -1.425,7.8367 -4.7593,16.7284 -9.8077,26.6011l-0.1117 0z"/>
    <path id="_67131280" fill="#CCCCCC" fill-rule="nonzero" stroke="#C2C1C1" stroke-width="0.3528" d="M28.8407 60.5471c5.2464,-10.0697 9.6835,-19.6351 11.2899,-27.9236 1.1324,-5.8426 0.8568,-11.0505 -1.5345,-15.3533l0.115 0c2.379,4.314 2.6501,9.5273 1.5174,15.3717 -1.6086,8.2999 -6.0491,17.8733 -11.2993,27.9503l-0.0885 -0.0451z"/>
    <path id="_66039352" fill="#CCCCCC" fill-rule="nonzero" stroke="#C2C1C1" stroke-width="0.3528" d="M29.0505 38.2563c3.8744,-10.5057 5.8294,-16.8532 6.0465,-20.9861l0.0998 0c-0.2168,4.145 -2.1741,10.5014 -6.0528,21.019l-0.0935 -0.0329z"/>
   </g>
   <g id="n_x0020_sommet_x0020_II_35">
    <path id="_27627096" fill="#CCCCCC" fill-rule="nonzero" stroke="#C2C1C1" stroke-width="0.3528" d="M21.3197 72.821c-2.3627,-5.1006 -4.3135,-9.9451 -5.8284,-14.524l0 -0.2975c1.5301,4.6661 3.5153,9.6099 5.9311,14.8215l-0.1027 0zm-5.8284 -50.6738c0.7236,-1.2359 1.5515,-2.4116 2.4876,-3.5248l0.068 0.0661c-0.9659,1.1485 -1.8167,2.3636 -2.5556,3.6436l0 -0.1849z"/>
    <path id="_76466672" fill="#CCCCCC" fill-rule="nonzero" stroke="#C2C1C1" stroke-width="0.3528" d="M28.7196 60.1836c-5.2423,-10.2693 -9.6614,-20.0253 -11.1945,-28.484 -0.9802,-5.4083 -0.7805,-10.2861 1.1356,-14.4294l0.1102 0c-1.9251,4.1338 -2.1277,9.0064 -1.1479,14.412 1.531,8.4471 5.9469,18.1952 11.1853,28.4571l-0.0887 0.0443z"/>
    <path id="_77785024" fill="#CCCCCC" fill-rule="nonzero" stroke="#C2C1C1" stroke-width="0.3528" d="M28.8085 37.451c-3.4919,-9.7692 -5.4521,-15.9862 -5.9521,-20.1808l0.1 0c0.5006,4.1841 2.4589,10.3926 5.9461,20.1488l-0.094 0.032z"/>
   </g>
   <polygon id="nerv_x0020_I_36" fill="#CCCCCC" points="29.117,16.8188 29.117,73.1813 27.9917,73.1813 27.9917,16.8188 "/>
  </g>
 </g>
<image xlink:href="tick.gif" id="imgtick" x="-100" y="-100" width="15" height="15"/>
<rect id="recttooltip" x="-100" y="-100" width="55" height="6" fill-opacity="0.4" pointer-events="none"/>
<text id="textboxid" x="-100" y="-100" pointer-events="none"> </text>
</a></svg>
