<?xml version="1.0" encoding="UTF-8"?>
<!DOCTYPE svg PUBLIC "-//W3C//DTD SVG 1.1//EN" "http://www.w3.org/Graphics/SVG/1.1/DTD/svg11.dtd">
<!-- Creator: CorelDRAW -->
<svg xmlns="http://www.w3.org/2000/svg" xml:space="preserve" shape-rendering="geometricPrecision" text-rendering="geometricPrecision" image-rendering="optimizeQuality" fill-rule="evenodd" clip-rule="evenodd"
viewBox="0 0 240 180"
 xmlns:xlink="http://www.w3.org/1999/xlink">
<a>
 <g id="Layer_x0020_1">
  <metadata id="CorelCorpID_0Corel-Layer"/>
  <rect fill="none" width="240" height="180"/>
  <g id="Ven2apex_No" onclick="parent.replacechar('Ven2apex_No')" onmousemove="parent.showtooltip('Ven2apex_No', 'Lateral main veins not reaching leaf apex')" onmouseout="parent.hidetooltip('Ven2apex_No')" cursor="pointer" >
   <path id="pas_x0020_visible" fill="#A6D10D" stroke="#CCCCCC" stroke-width="0.0762" stroke-linejoin="bevel" d="M180.748 158.758l-0.5842 -7.3024c-6.961,-4.6735 -15.7729,-6.3286 -20.9814,-14.1668 -5.2094,-7.7891 -10.467,-21.4684 -10.5644,-33.1038 -0.0483,-11.6838 2.5807,-24.4384 7.5945,-38.4588 5.1602,-14.1178 10.9538,-30.6206 23.0268,-46.0532 12.4625,14.6536 19.8132,30.5241 25.7523,44.8366 5.5497,13.6309 8.4224,27.1155 8.0813,41.1849 -0.3405,12.1704 -5.3551,24.4384 -10.7584,31.7407 -5.4042,7.5452 -11.964,10.2356 -18.4873,14.4223l-1.3268 6.9005 -1.7524 0z"/>
   <path id="nervure" fill="black" stroke="black" stroke-width="0.0762" d="M178.088 22.9483c0.1309,-0.1614 0.1789,-0.2167 0.2404,-0.2847 0.0897,0.0908 0.2201,0.2255 0.4554,0.4646l3.6523 128.072c-0.1032,0.0834 -0.2024,0.1672 -0.3097,0.2553 -0.1119,-0.0764 -0.2724,-0.1754 -0.3805,-0.2426 -2.8945,-101.497 -2.5373,-88.9729 -3.6579,-128.264z"/>
   <g id="nervures">
    <path id="nervure_0" fill="#1F1A17" d="M204.13 74.7285c0.2078,-0.1476 0.3396,0.389 0.6185,1.5727 2.0339,8.6363 3.4771,43.287 -21.8335,74.5779 -0.2662,0.329 -0.9423,0.8763 -0.857,0.5103 0.0854,-0.366 0.6262,-1.3809 1.1017,-2.0262 26.5753,-36.0536 21.5081,-66.9588 21.023,-73.1088 -0.07,-0.8874 -0.1964,-1.4239 -0.0527,-1.5259z"/>
    <g id="n_x0020_sommet">
     <path id="nervure_1" fill="none" stroke="#7F7F7F" stroke-width="0.0762" d="M181.404 111.083c18.8335,-34.3369 20.8148,-45.8996 11.2919,-63.4491"/>
     <path id="nervure_2" fill="none" stroke="#7F7F7F" stroke-width="0.0762" d="M180.855 92.1356c12.7848,-25.2043 16.0694,-43.9444 6.7129,-54.8054"/>
     <path id="nervure_3" fill="none" stroke="#7F7F7F" stroke-width="0.0762" d="M179.892 71.5804c7.5432,-17.2283 12.6567,-32.6838 3.1119,-40.8066"/>
     <path id="nervure_4" fill="none" stroke="#7F7F7F" stroke-width="0.0762" d="M179.517 52.9597c5.9083,-19.7464 5.3104,-22.405 -0.8638,-25.2553"/>
    </g>
    <g id="n_x0020_mil">
     <path id="nervure_5" fill="none" stroke="#7F7F7F" stroke-width="0.0762" d="M194.201 132.95c5.7689,-0.7518 9.3068,-3.0593 12.2335,-7.4071"/>
     <path id="nervure_6" fill="none" stroke="#7F7F7F" stroke-width="0.0762" d="M197.961 124.114c5.6657,-1.4179 8.9654,-4.1238 11.4638,-8.7876"/>
     <path id="nervure_7" fill="none" stroke="#7F7F7F" stroke-width="0.0762" d="M200.531 117.272c5.085,-3.1084 7.5737,-6.7245 8.8002,-11.974"/>
     <path id="nervure_8" fill="none" stroke="#7F7F7F" stroke-width="0.0762" d="M188.798 141.244c5.8019,-0.3119 9.4745,-2.3454 12.6636,-6.4607"/>
    </g>
   </g>
   <g id="nervures_9">
    <path id="nervure_10" fill="black" d="M155.41 76.6436c-0.2164,-0.1317 -0.3173,0.4098 -0.5276,1.6036 -1.5348,8.71 -0.9708,43.1819 26.1685,72.4321 0.2854,0.3075 0.9937,0.8026 0.8871,0.4456 -0.1067,-0.357 -0.7066,-1.3255 -1.2198,-1.932 -28.6807,-33.885 -25.4015,-64.8976 -25.2725,-71.0321 0.0186,-0.8851 0.1141,-1.4262 -0.0357,-1.5172z"/>
    <g id="n_x0020_sommet_11">
     <path id="nervure_12" fill="none" stroke="#7F7F7F" stroke-width="0.0762" d="M180.19 111.109c-20.7823,-32.7389 -23.4287,-44.071 -14.9412,-62.1543"/>
     <path id="nervure_13" fill="none" stroke="#7F7F7F" stroke-width="0.0762" d="M179.641 92.2725c-14.2174,-24.1046 -18.5799,-42.4658 -9.8713,-53.9014"/>
     <path id="nervure_14" fill="none" stroke="#7F7F7F" stroke-width="0.0762" d="M179.412 71.8109c-8.5249,-16.561 -14.5226,-31.5345 -5.4674,-40.2666"/>
     <path id="nervure_15" fill="none" stroke="#7F7F7F" stroke-width="0.0762" d="M178.709 53.3099c-7.0391,-19.1745 -6.5963,-21.8544 -0.5998,-25.1178"/>
    </g>
    <g id="n_x0020_mil_16">
     <path id="nervure_17" fill="none" stroke="#7F7F7F" stroke-width="0.0762" d="M168.685 133.708c-5.8005,-0.339 -9.4648,-2.3789 -12.6371,-6.4861"/>
     <path id="nervure_18" fill="none" stroke="#7F7F7F" stroke-width="0.0762" d="M164.422 125.206c-5.7362,-1.0072 -9.1857,-3.4591 -11.9489,-7.9101"/>
     <path id="nervure_19" fill="none" stroke="#7F7F7F" stroke-width="0.0762" d="M161.461 118.599c-5.2545,-2.7254 -7.9473,-6.1375 -9.4752,-11.2593"/>
     <path id="nervure_20" fill="none" stroke="#7F7F7F" stroke-width="0.0762" d="M174.557 141.555c-5.8081,0.0997 -9.5908,-1.6588 -13.0116,-5.5168"/>
    </g>
   </g>
  </g>
  <g id="Ven2apex_Yes" onclick="parent.replacechar('Ven2apex_Yes')" onmousemove="parent.showtooltip('Ven2apex_Yes', 'Lateral main veins reaching leaf apex')" onmouseout="parent.hidetooltip('Ven2apex_Yes')" cursor="pointer" >
   <path id="pas_x0020_visible_21" fill="#A6D10D" stroke="#CCCCCC" stroke-width="0.0762" stroke-linejoin="bevel" d="M60.1784 158.758l-0.5842 -7.3023c-6.9609,-4.6735 -15.7728,-6.3286 -20.9814,-14.1668 -5.2094,-7.7892 -10.4669,-21.4685 -10.5643,-33.1039 -0.0483,-11.6837 2.5806,-24.4383 7.5944,-38.4588 5.1602,-14.1177 10.9538,-30.6206 23.0269,-46.0532 12.4625,14.6537 19.8131,30.5241 25.7523,44.8367 5.5496,13.6309 8.4224,27.1155 8.0813,41.1849 -0.3405,12.1704 -5.3552,24.4384 -10.7585,31.7407 -5.4041,7.5452 -11.9639,10.2355 -18.4873,14.4222l-1.3267 6.9005 -1.7525 0z"/>
   <path id="nervure_22" fill="black" stroke="black" stroke-width="0.0762" d="M57.5189 22.9484c0.1309,-0.1615 0.1788,-0.2168 0.2403,-0.2847 0.0898,0.0908 0.2201,0.2255 0.4554,0.4645l3.6524 128.072c-0.1033,0.0834 -0.2025,0.1673 -0.3097,0.2554 -0.1119,-0.0765 -0.2725,-0.1754 -0.3805,-0.2426 -2.8946,-101.498 -2.5374,-88.9729 -3.6579,-128.264z"/>
   <g id="n_x0020_base">
    <path id="nervure_23" fill="none" stroke="#7F7F7F" stroke-width="0.0762" d="M73.6316 132.95c5.7689,-0.7518 9.3069,-3.0593 12.2336,-7.4071"/>
    <path id="nervure_24" fill="none" stroke="#7F7F7F" stroke-width="0.0762" d="M77.3916 124.114c5.6658,-1.418 8.9655,-4.1238 11.4638,-8.7877"/>
    <path id="nervure_25" fill="none" stroke="#7F7F7F" stroke-width="0.0762" d="M78.2502 118.309c5.085,-3.1084 7.5736,-6.7245 8.8002,-11.974"/>
    <path id="nervure_26" fill="none" stroke="#7F7F7F" stroke-width="0.0762" d="M68.2293 141.244c5.8019,-0.312 9.4745,-2.3454 12.6637,-6.4607"/>
   </g>
   <g id="nervures_x0020_gauche">
    <g id="n_x0020_sommet_27">
     <path id="nervure_28" fill="none" stroke="#7F7F7F" stroke-width="0.0762" d="M59.6209 111.109c-14.4516,-19.506 -16.9968,-28.2043 -14.8957,-41.3399"/>
     <path id="nervure_29" fill="none" stroke="#7F7F7F" stroke-width="0.0762" d="M59.072 92.2726c-14.2173,-24.1046 -11.7118,-36.7886 -6.3406,-49.1534"/>
     <path id="nervure_30" fill="none" stroke="#7F7F7F" stroke-width="0.0762" d="M58.8431 71.8109c-8.5249,-16.5609 -7.032,-29.6429 -3.3601,-41.1834"/>
     <path id="nervure_31" fill="none" stroke="#7F7F7F" stroke-width="0.0762" d="M58.1402 53.31c-3.1433,-15.7657 -3.5968,-21.674 -0.5997,-25.1178"/>
    </g>
    <g id="n_x0020_base_32">
     <path id="nervure_33" fill="none" stroke="#7F7F7F" stroke-width="0.0762" d="M48.1161 133.708c-5.8006,-0.3391 -9.4648,-2.3789 -12.6371,-6.4861"/>
     <path id="nervure_34" fill="none" stroke="#7F7F7F" stroke-width="0.0762" d="M43.8523 125.206c-5.7362,-1.0072 -9.1857,-3.4591 -11.9488,-7.91"/>
     <path id="nervure_35" fill="none" stroke="#7F7F7F" stroke-width="0.0762" d="M41.9531 116.455c-5.9032,-3.0618 -8.9284,-6.8951 -10.6449,-12.6492"/>
     <path id="nervure_36" fill="none" stroke="#7F7F7F" stroke-width="0.0762" d="M52.701 141.555c-5.2338,0.0996 -8.6426,-1.6588 -11.7252,-5.5169"/>
    </g>
   </g>
   <g id="n_x0020_sommet_37">
    <path id="nervure_38" fill="none" stroke="#7F7F7F" stroke-width="0.0762" d="M61.2235 113.606c13.3621,-20.2679 15.4274,-29.0925 12.6103,-42.0934"/>
    <path id="nervure_39" fill="none" stroke="#7F7F7F" stroke-width="0.0762" d="M60.7404 94.7673c12.8765,-24.8467 9.6804,-37.3745 3.6403,-49.4268"/>
    <path id="nervure_40" fill="none" stroke="#7F7F7F" stroke-width="0.0762" d="M59.8488 74.3239c7.6055,-17.0028 5.3988,-29.9835 1.1006,-41.3056"/>
    <path id="nervure_41" fill="none" stroke="#7F7F7F" stroke-width="0.0762" d="M59.5378 55.8122c2.2756,-15.9142 2.405,-21.8385 -0.7761,-25.113"/>
   </g>
   <path id="nervure_42" fill="black" d="M60.4814 150.68c1.0757,0.7756 0.9547,1.3078 0.887,0.3574 -0.4545,-0.9568 -0.2138,-0.6061 -1.3566,-1.5417 -35.367,-34.8415 -10.3692,-100.169 -2.0248,-126.599 -4.7324,14.782 -38.1852,93.6382 2.4944,127.784z"/>
   <path id="nervure_43" fill="black" d="M61.8507 150.621c-0.6853,0.2001 -0.6176,0.127 -0.3206,-0.513 33.9762,-36.199 6.4407,-100.499 -2.9318,-126.582 5.3073,14.5855 42.0768,89.9205 3.2524,127.095z"/>
  </g>
 </g>
<image xlink:href="tick.gif" id="imgtick" x="-100" y="-100" width="15" height="15"/>
<rect id="recttooltip" x="-100" y="-100" width="55" height="6" fill-opacity="0.4" pointer-events="none"/>
<text id="textboxid" x="-100" y="-100" pointer-events="none"> </text>
</a></svg>
