<?xml version="1.0" encoding="UTF-8"?>
<!DOCTYPE svg PUBLIC "-//W3C//DTD SVG 1.1//EN" "http://www.w3.org/Graphics/SVG/1.1/DTD/svg11.dtd">
<!-- Creator: CorelDRAW -->
<svg xmlns="http://www.w3.org/2000/svg" xml:space="preserve" shape-rendering="geometricPrecision" text-rendering="geometricPrecision" image-rendering="optimizeQuality" fill-rule="evenodd" clip-rule="evenodd"
viewBox="0 0 240 180"
 xmlns:xlink="http://www.w3.org/1999/xlink">
<a>
 <g id="Layer_x0020_1">
  <metadata id="CorelCorpID_0Corel-Layer"/>
  <rect fill="none" width="240" height="180"/>
  <g id="VenSecPara_Narrow" onclick="parent.replacechar('VenSecPara_Narrow')" onmousemove="parent.showtooltip('VenSecPara_Narrow', 'Secondary veins narrowly parallel')" onmouseout="parent.hidetooltip('VenSecPara_Narrow')" cursor="pointer" >
   <path id="_76638416" fill="#B9CC76" stroke="#4C4C4C" stroke-width="0.0762" stroke-linejoin="bevel" d="M171.173 150l-0.4995 -6.2434c-5.9515,-3.9958 -13.4856,-5.4109 -17.9388,-12.1124 -4.454,-6.6597 -8.9491,-18.3553 -9.0324,-28.3034 -0.0413,-9.9895 2.2065,-20.8945 6.4932,-32.8818 4.4119,-12.0705 11.3475,-27.2644 21.6698,-40.4591 10.6552,12.5287 14.9578,27.1819 20.0357,39.4189 4.7449,11.6543 7.201,23.1834 6.9094,35.2126 -0.2911,10.4056 -4.5786,20.8945 -9.1983,27.1379 -4.6205,6.4511 -10.6974,8.491 -16.2748,12.0705l-0.666 6.1602 -1.4983 0z"/>
   <g id="perpendicular">
    <path id="nervure" fill="none" stroke="#4C4C4C" stroke-width="0.0762" d="M172.432 133.114c5.4563,0.2901 6.7688,0.3533 12.5679,-0.1141"/>
    <path id="nervure_0" fill="none" stroke="#4C4C4C" stroke-width="0.0762" d="M171.961 127.585c8.7451,0.4661 10.2823,0.7113 16.0392,-0.2157"/>
    <path id="nervure_1" fill="none" stroke="#4C4C4C" stroke-width="0.0762" d="M172.27 122c11.8022,0.0004 16.1704,-0.0516 19.7297,-0.9213"/>
    <path id="nervure_2" fill="none" stroke="#4C4C4C" stroke-width="0.0762" d="M172.181 113.891c7.711,0.1996 16.2359,-0.3357 20.9111,-0.6607"/>
    <path id="nervure_3" fill="none" stroke="#4C4C4C" stroke-width="0.0762" d="M172.181 105.254c10.1916,0.1889 14.272,-0.0136 20.8317,-1.7119"/>
    <path id="nervure_4" fill="none" stroke="#4C4C4C" stroke-width="0.0762" d="M173 94.5873c13.2084,0.2916 15.1304,0.3366 20.7767,-1.5874"/>
    <path id="nervure_5" fill="none" stroke="#4C4C4C" stroke-width="0.0762" d="M172.181 86.3459c7.7661,0.2745 13.0588,-0.4709 18.8436,-0.962"/>
    <path id="nervure_6" fill="none" stroke="#4C4C4C" stroke-width="0.0762" d="M172.181 77.1106c7.8125,0.0923 10.5376,0.0298 16.8504,-1.39"/>
    <path id="nervure_7" fill="none" stroke="#4C4C4C" stroke-width="0.0762" d="M172.181 67.8628c4.5359,0.168 8.3605,0.123 14.3683,-1.2718"/>
    <path id="nervure_8" fill="none" stroke="#4C4C4C" stroke-width="0.0762" d="M172.181 58.0628c5.9845,0.2656 7.1551,-0.1701 10.9416,-1.1294"/>
    <path id="nervure_9" fill="none" stroke="#4C4C4C" stroke-width="0.0762" d="M172.181 51.2055c3.6875,0.1237 5.8364,-0.1359 8.1316,-0.6813"/>
    <path id="nervure_10" fill="none" stroke="#4C4C4C" stroke-width="0.0762" d="M170 129.411c-6.0548,0.2902 -7.6995,0.0566 -14.1347,-0.4109"/>
    <path id="nervure_11" fill="none" stroke="#4C4C4C" stroke-width="0.0762" d="M170.587 125.605c-9.7043,0.4662 -12.1981,0.3225 -18.5865,-0.6045"/>
    <path id="nervure_12" fill="none" stroke="#4C4C4C" stroke-width="0.0762" d="M171.109 119.869c-13.0968,0.0004 -18.159,0.0004 -22.1087,-0.8693"/>
    <path id="nervure_13" fill="none" stroke="#4C4C4C" stroke-width="0.0762" d="M171.444 112.359c-8.5635,0.6665 -18.335,-0.8035 -23.4708,-1.6484"/>
    <path id="nervure_14" fill="none" stroke="#4C4C4C" stroke-width="0.0762" d="M171.444 103.07c-11.3096,0.1888 -16.2638,0.5582 -23.543,-1.1402"/>
    <path id="nervure_15" fill="none" stroke="#4C4C4C" stroke-width="0.0762" d="M171.444 93.011c-14.6573,0.2916 -16.9301,0.5237 -23.4798,-1.0677"/>
    <path id="nervure_16" fill="none" stroke="#4C4C4C" stroke-width="0.0762" d="M171.444 84.8944c-8.6179,0.2746 -14.677,-0.4708 -21.0965,-0.9619"/>
    <path id="nervure_17" fill="none" stroke="#4C4C4C" stroke-width="0.0762" d="M171.444 75.0518c-8.6695,0.0923 -12.0375,0.0298 -19.0427,-1.39"/>
    <path id="nervure_18" fill="none" stroke="#4C4C4C" stroke-width="0.0762" d="M171.444 66.4836c-5.0334,0.168 -10.4103,0.1484 -17.0771,-1.2464"/>
    <path id="nervure_19" fill="none" stroke="#4C4C4C" stroke-width="0.0762" d="M171.067 59.5314c-6.6409,0.2656 -8.5125,-0.1701 -12.7144,-1.1295"/>
    <path id="nervure_20" fill="none" stroke="#4C4C4C" stroke-width="0.0762" d="M171.592 50.0805c-4.0921,0.1238 -6.6665,-0.1358 -9.2136,-0.6812"/>
    <path id="nervure_21" fill="none" stroke="#4C4C4C" stroke-width="0.0762" d="M171 136.114c5.4563,0.2901 6.7688,0.3533 12.5679,-0.1141"/>
    <path id="nervure_22" fill="none" stroke="#4C4C4C" stroke-width="0.0762" d="M172 130.585c8.7451,0.4661 10.2823,0.7113 16.0392,-0.2157"/>
    <path id="nervure_23" fill="none" stroke="#4C4C4C" stroke-width="0.0762" d="M172 126c11.8022,0.0004 16.1704,-0.0516 19.7297,-0.9213"/>
    <path id="nervure_24" fill="none" stroke="#4C4C4C" stroke-width="0.0762" d="M171.12 119.904c7.711,0.1996 16.2359,-0.3357 20.9111,-0.6607"/>
    <path id="nervure_25" fill="none" stroke="#4C4C4C" stroke-width="0.0762" d="M171.12 111.267c10.1916,0.1889 14.272,-0.0136 20.8317,-1.7119"/>
    <path id="nervure_26" fill="none" stroke="#4C4C4C" stroke-width="0.0762" d="M172.223 100.587c13.2084,0.2916 15.1304,0.3366 20.7767,-1.5874"/>
    <path id="nervure_27" fill="none" stroke="#4C4C4C" stroke-width="0.0762" d="M171.12 92.3588c7.7661,0.2745 13.0588,-0.4709 18.8436,-0.962"/>
    <path id="nervure_28" fill="none" stroke="#4C4C4C" stroke-width="0.0762" d="M171.12 83.1235c7.8125,0.0923 10.5376,0.0298 16.8504,-1.39"/>
    <path id="nervure_29" fill="none" stroke="#4C4C4C" stroke-width="0.0762" d="M171.12 73.8757c4.5359,0.168 8.3605,0.123 14.3683,-1.2718"/>
    <path id="nervure_30" fill="none" stroke="#4C4C4C" stroke-width="0.0762" d="M171.12 64.0757c5.9845,0.2656 7.1551,-0.1701 10.9416,-1.1294"/>
    <path id="nervure_31" fill="none" stroke="#4C4C4C" stroke-width="0.0762" d="M171.12 57.2184c3.6875,0.1237 5.8364,-0.1359 8.1316,-0.6813"/>
    <path id="nervure_32" fill="none" stroke="#4C4C4C" stroke-width="0.0762" d="M171.135 135.411c-6.0548,0.2902 -7.6995,0.0566 -14.1347,-0.4109"/>
    <path id="nervure_33" fill="none" stroke="#4C4C4C" stroke-width="0.0762" d="M171 131.742c-9.7043,0.4662 -12.1981,0.3225 -18.5865,-0.6045"/>
    <path id="nervure_34" fill="none" stroke="#4C4C4C" stroke-width="0.0762" d="M172 123.869c-13.0968,0.0004 -18.159,0.0004 -22.1087,-0.8693"/>
    <path id="nervure_35" fill="none" stroke="#4C4C4C" stroke-width="0.0762" d="M171.471 117.648c-8.5635,0.6665 -18.335,-0.8035 -23.4708,-1.6484"/>
    <path id="nervure_36" fill="none" stroke="#4C4C4C" stroke-width="0.0762" d="M170.383 109.083c-11.3096,0.1888 -16.2638,0.5582 -23.543,-1.1402"/>
    <path id="nervure_37" fill="none" stroke="#4C4C4C" stroke-width="0.0762" d="M170.383 99.0239c-14.6573,0.2916 -16.9301,0.5237 -23.4798,-1.0677"/>
    <path id="nervure_38" fill="none" stroke="#4C4C4C" stroke-width="0.0762" d="M171.096 90.9411c-8.6179,0.2746 -14.677,-0.4708 -21.0965,-0.9619"/>
    <path id="nervure_39" fill="none" stroke="#4C4C4C" stroke-width="0.0762" d="M170.383 81.0647c-8.6695,0.0923 -12.0375,0.0298 -19.0427,-1.39"/>
    <path id="nervure_40" fill="none" stroke="#4C4C4C" stroke-width="0.0762" d="M170.383 72.4965c-5.0334,0.168 -10.4103,0.1484 -17.0771,-1.2464"/>
    <path id="nervure_41" fill="none" stroke="#4C4C4C" stroke-width="0.0762" d="M169 64.1294c-6.6409,0.2656 -8.5125,-0.1701 -12.7144,-1.1295"/>
    <path id="nervure_42" fill="none" stroke="#4C4C4C" stroke-width="0.0762" d="M169.214 56.6811c-4.0921,0.1238 -6.6665,-0.1358 -9.2136,-0.6812"/>
    <path id="nervure_43" fill="none" stroke="#4C4C4C" stroke-width="0.0762" d="M171.474 134.594c5.4563,0.2901 6.7688,0.3533 12.5679,-0.1141"/>
    <path id="nervure_44" fill="none" stroke="#4C4C4C" stroke-width="0.0762" d="M171.439 129.271c8.7451,0.4661 10.2823,0.7113 16.0392,-0.2157"/>
    <path id="nervure_45" fill="none" stroke="#4C4C4C" stroke-width="0.0762" d="M171.501 124.125c11.8022,0.0004 16.1704,-0.0516 19.7297,-0.9213"/>
    <path id="nervure_46" fill="none" stroke="#4C4C4C" stroke-width="0.0762" d="M171.474 117.074c7.711,0.1996 16.2359,-0.3357 20.9111,-0.6607"/>
    <path id="nervure_47" fill="none" stroke="#4C4C4C" stroke-width="0.0762" d="M171.474 108.437c10.1916,0.1889 14.272,-0.0136 20.8317,-1.7119"/>
    <path id="nervure_48" fill="none" stroke="#4C4C4C" stroke-width="0.0762" d="M172.19 97.8727c13.2084,0.2916 15.1304,0.3366 20.7767,-1.5874"/>
    <path id="nervure_49" fill="none" stroke="#4C4C4C" stroke-width="0.0762" d="M171.474 89.5292c7.7661,0.2745 13.0588,-0.4709 18.8436,-0.962"/>
    <path id="nervure_50" fill="none" stroke="#4C4C4C" stroke-width="0.0762" d="M171.474 80.2939c7.8125,0.0923 10.5376,0.0298 16.8504,-1.39"/>
    <path id="nervure_51" fill="none" stroke="#4C4C4C" stroke-width="0.0762" d="M171.474 71.0461c4.5359,0.168 8.3605,0.123 14.3683,-1.2718"/>
    <path id="nervure_52" fill="none" stroke="#4C4C4C" stroke-width="0.0762" d="M171.474 61.2461c5.9845,0.2656 7.1551,-0.1701 10.9416,-1.1294"/>
    <path id="nervure_53" fill="none" stroke="#4C4C4C" stroke-width="0.0762" d="M171.474 54.3888c3.6875,0.1237 5.8364,-0.1359 8.1316,-0.6813"/>
    <path id="nervure_54" fill="none" stroke="#4C4C4C" stroke-width="0.0762" d="M170.737 133.48c-6.0548,0.2902 -7.6995,0.0566 -14.1347,-0.4109"/>
    <path id="nervure_55" fill="none" stroke="#4C4C4C" stroke-width="0.0762" d="M170.737 127.802c-9.7043,0.4662 -12.1981,0.3225 -18.5865,-0.6045"/>
    <path id="nervure_56" fill="none" stroke="#4C4C4C" stroke-width="0.0762" d="M172 121.869c-13.0968,0.0004 -18.159,0.0004 -22.1087,-0.8693"/>
    <path id="nervure_57" fill="none" stroke="#4C4C4C" stroke-width="0.0762" d="M171.471 114.648c-8.5635,0.6665 -18.335,-0.8035 -23.4708,-1.6484"/>
    <path id="nervure_58" fill="none" stroke="#4C4C4C" stroke-width="0.0762" d="M170.737 106.253c-11.3096,0.1888 -16.2638,0.5582 -23.543,-1.1402"/>
    <path id="nervure_59" fill="none" stroke="#4C4C4C" stroke-width="0.0762" d="M170.737 96.1943c-14.6573,0.2916 -16.9301,0.5237 -23.4798,-1.0677"/>
    <path id="nervure_60" fill="none" stroke="#4C4C4C" stroke-width="0.0762" d="M170.737 88.0777c-8.6179,0.2746 -14.677,-0.4708 -21.0965,-0.9619"/>
    <path id="nervure_61" fill="none" stroke="#4C4C4C" stroke-width="0.0762" d="M170.737 78.2351c-8.6695,0.0923 -12.0375,0.0298 -19.0427,-1.39"/>
    <path id="nervure_62" fill="none" stroke="#4C4C4C" stroke-width="0.0762" d="M170.737 69.6669c-5.0334,0.168 -10.4103,0.1484 -17.0771,-1.2464"/>
    <path id="nervure_63" fill="none" stroke="#4C4C4C" stroke-width="0.0762" d="M170 61.9234c-6.6409,0.2656 -8.5125,-0.1701 -12.7144,-1.1295"/>
    <path id="nervure_64" fill="none" stroke="#4C4C4C" stroke-width="0.0762" d="M171 53.6811c-4.0921,0.1238 -6.6665,-0.1358 -9.2136,-0.6812"/>
   </g>
   <rect id="nerv_x0020_I" fill="#7F7F7F" stroke="#4C4C4C" stroke-width="0.0762" x="171.444" y="31.9464" width="0.736825" height="110.524"/>
   <g>
    <g id="margin">
     <path id="limbe" fill="#A6D10D" stroke="black" stroke-width="0.0762" d="M193.171 38.9873c8.6615,9.6405 13.0228,28.5214 16.2768,39.0374 -9.6373,9.1654 -24.0103,9.5786 -34.2585,0.3781 -6.0114,-6.633 -11.2212,-17.5329 -2.104,-30.5203 5.8103,-7.0132 12.9889,-9.1088 20.0857,-8.8952z"/>
     <polygon id="nerv_x0020_I_65" fill="black" points="181.279,42.037 181.286,82.478 180.195,81.8697 180.195,42.037 "/>
    </g>
    <ellipse id="domatia" fill="none" stroke="black" stroke-width="0.0762" cx="192.216" cy="62.0688" rx="24.0822" ry="23.0993"/>
   </g>
   <path id="nervure_66" fill="none" stroke="black" stroke-width="0.1763" d="M181 72.9999c6.561,0.1132 12.9998,0.0002 22.9999,-0.9998"/>
   <path id="nervure_67" fill="none" stroke="black" stroke-width="0.1763" d="M181.283 65.6851c5.4383,-0.1676 9.8839,-0.0302 19.6738,-1.3159"/>
   <path id="nervure_68" fill="none" stroke="black" stroke-width="0.1763" d="M181.282 57.5447c6.2803,-0.1676 9.5341,-1.2752 16.5873,-1.6904"/>
   <path id="nervure_69" fill="none" stroke="black" stroke-width="0.1763" d="M181.28 49.4305c5.7126,-0.3438 8.1978,-0.1529 14.0346,-1.0358"/>
   <path id="nervure_70" fill="none" stroke="black" stroke-width="0.1763" d="M181.437 80.9362c6.561,0.1131 13.701,1.0446 23.5627,0.0638"/>
   <path id="nervure_71" fill="none" stroke="black" stroke-width="0.1763" d="M180.195 60.0925c-6.2803,-0.1676 -9.5247,0.062 -11.9468,-0.0583"/>
   <path id="nervure_72" fill="none" stroke="black" stroke-width="0.1763" d="M180.195 68.8458c-5.4383,-0.1676 -7.8743,0.2092 -10.9101,-0.1346"/>
   <path id="nervure_73" fill="none" stroke="black" stroke-width="0.1763" d="M180.195 52.3779c-2.4845,0.171 -8.6099,0.0346 -9.7822,-0.1297"/>
   <path id="nervure_74" fill="none" stroke="black" stroke-width="0.1763" d="M180.083 76.4144c-0.9262,-0.0569 -6.4088,-0.4067 -7.0188,-0.4969"/>
   <path id="nervure_75" fill="none" stroke="black" stroke-width="0.1763" d="M181.136 68.1595c6.561,0.1131 12.806,-0.4376 22.6663,-2.2562"/>
   <path id="nervure_76" fill="none" stroke="black" stroke-width="0.1763" d="M181.135 60.0146c5.4383,-0.1676 9.8839,-0.0302 19.6738,-1.3159"/>
   <path id="nervure_77" fill="none" stroke="black" stroke-width="0.1763" d="M181.133 51.8742c6.2803,-0.1676 9.5341,-1.2752 16.5873,-1.6904"/>
   <path id="nervure_78" fill="none" stroke="black" stroke-width="0.1763" d="M181.132 43.76c5.7126,-0.3438 8.1978,-0.1529 14.0346,-1.0358"/>
   <path id="nervure_79" fill="none" stroke="black" stroke-width="0.1763" d="M181.289 75.2657c6.561,0.1131 13.85,0.7152 23.7117,-0.2656"/>
   <path id="nervure_80" fill="none" stroke="black" stroke-width="0.1763" d="M180.533 54.4221c-6.2803,-0.1676 -8.5522,0.0619 -10.9743,-0.0584"/>
   <path id="nervure_81" fill="none" stroke="black" stroke-width="0.1763" d="M180 63.0001c-5.4382,-0.1676 -8.9643,0.3437 -12,-0.0001"/>
   <path id="nervure_82" fill="none" stroke="black" stroke-width="0.1763" d="M180 47.9999c-2.8038,0.2083 -8.057,0.4322 -7,0.0002"/>
   <path id="nervure_83" fill="none" stroke="black" stroke-width="0.1763" d="M180.417 50.1768c-1.6494,0.1366 -6.9472,0.2653 -8.9472,0.2652"/>
   <path id="nervure_84" fill="none" stroke="black" stroke-width="0.1763" d="M181.036 70.7223c6.561,0.1131 12.806,-0.4376 22.6663,-2.2562"/>
   <path id="nervure_85" fill="none" stroke="black" stroke-width="0.1763" d="M181.035 62.5774c5.4383,-0.1676 9.8839,-0.0302 19.6738,-1.3159"/>
   <path id="nervure_86" fill="none" stroke="black" stroke-width="0.1763" d="M181.034 54.437c6.2803,-0.1676 9.5341,-1.2752 16.5873,-1.6904"/>
   <path id="nervure_87" fill="none" stroke="black" stroke-width="0.1763" d="M181.032 46.3228c5.7126,-0.3438 8.1978,-0.1529 14.0346,-1.0358"/>
   <path id="nervure_88" fill="none" stroke="black" stroke-width="0.1763" d="M181.189 77.8285c6.561,0.1131 14.9493,1.1523 24.811,0.1715"/>
   <path id="nervure_89" fill="none" stroke="black" stroke-width="0.1763" d="M181 57.0001c-6.2804,-0.1676 -11,-0.0002 -12.0001,-0.0001"/>
   <path id="nervure_90" fill="none" stroke="black" stroke-width="0.1763" d="M180 66c-5.4383,-0.1676 -8.4579,0.124 -11.4936,-0.2198"/>
   <path id="nervure_91" fill="none" stroke="black" stroke-width="0.1763" d="M180 71.1297c-2.4845,0.171 -8.6099,0.0346 -9.7822,-0.1297"/>
   <path id="nervure_92" fill="none" stroke="black" stroke-width="0.1763" d="M180.233 73.3951c-0.9263,-0.0569 -8.2652,0.0353 -8.8753,-0.0549"/>
  </g>
  <g id="VenSecPara_Broad" onclick="parent.replacechar('VenSecPara_Broad')" onmousemove="parent.showtooltip('VenSecPara_Broad', 'Secondary veins broadly parallel')" onmouseout="parent.hidetooltip('VenSecPara_Broad')" cursor="pointer" >
   <g id="Perpendicular">
    <path id="_78506096" fill="#B9CC76" stroke="#4C4C4C" stroke-width="0.0762" stroke-linejoin="bevel" d="M51.1729 150l-0.4995 -6.2434c-5.9515,-3.9958 -13.4855,-5.4109 -17.9388,-12.1124 -4.454,-6.6597 -8.9491,-18.3553 -9.0323,-28.3034 -0.0414,-9.9895 2.2064,-20.8945 6.4931,-32.8818 4.4119,-12.0705 11.3475,-27.2643 21.6698,-40.459 10.6552,12.5286 14.9578,27.1818 20.0357,39.4189 4.7449,11.6542 7.2011,23.1834 6.9094,35.2125 -0.2911,10.4056 -4.5786,20.8945 -9.1983,27.1379 -4.6205,6.4511 -10.6974,8.491 -16.2747,12.0706l-0.666 6.1601 -1.4984 0z"/>
    <path id="nervure_93" fill="none" stroke="#4C4C4C" stroke-width="0.0762" d="M52.181 131.41c5.4563,0.2902 6.7688,0.3533 12.5679,-0.1141"/>
    <path id="nervure_94" fill="none" stroke="#4C4C4C" stroke-width="0.0762" d="M52.1459 126.088c8.7451,0.4661 10.2823,0.7113 16.0392,-0.2157"/>
    <path id="nervure_95" fill="none" stroke="#4C4C4C" stroke-width="0.0762" d="M52.2078 120.941c11.8022,0.0004 16.1704,-0.0516 19.7297,-0.9213"/>
    <path id="nervure_96" fill="none" stroke="#4C4C4C" stroke-width="0.0762" d="M52.1809 113.891c7.711,0.1996 16.236,-0.3357 20.9111,-0.6607"/>
    <path id="nervure_97" fill="none" stroke="#4C4C4C" stroke-width="0.0762" d="M52.1809 105.254c10.1916,0.1889 14.272,-0.0135 20.8317,-1.7119"/>
    <path id="nervure_98" fill="none" stroke="#4C4C4C" stroke-width="0.0762" d="M52.1809 94.6454c13.2084,0.2916 15.1305,0.3366 20.7767,-1.5874"/>
    <path id="nervure_99" fill="none" stroke="#4C4C4C" stroke-width="0.0762" d="M52.181 86.3459c7.7661,0.2745 13.0588,-0.4709 18.8437,-0.962"/>
    <path id="nervure_100" fill="none" stroke="#4C4C4C" stroke-width="0.0762" d="M52.1809 77.1106c7.8125,0.0923 10.5376,0.0298 16.8504,-1.39"/>
    <path id="nervure_101" fill="none" stroke="#4C4C4C" stroke-width="0.0762" d="M52.1809 67.8628c4.5359,0.168 8.3605,0.123 14.3683,-1.2718"/>
    <path id="nervure_102" fill="none" stroke="#4C4C4C" stroke-width="0.0762" d="M52.1809 58.0629c5.9845,0.2655 7.1551,-0.1702 10.9416,-1.1295"/>
    <path id="nervure_103" fill="none" stroke="#4C4C4C" stroke-width="0.0762" d="M52.181 51.2055c3.6876,0.1237 5.8364,-0.1359 8.1316,-0.6813"/>
    <rect id="nerv_x0020_I_104" fill="#7F7F7F" stroke="#4C4C4C" stroke-width="0.0762" x="51.4441" y="31.9464" width="0.736825" height="110.524"/>
    <path id="nervure_105" fill="none" stroke="#4C4C4C" stroke-width="0.0762" d="M51.4442 130.297c-6.0548,0.2902 -7.6995,0.0566 -14.1347,-0.4109"/>
    <path id="nervure_106" fill="none" stroke="#4C4C4C" stroke-width="0.0762" d="M51.4441 124.619c-9.7043,0.4662 -12.1981,0.3225 -18.5865,-0.6045"/>
    <path id="nervure_107" fill="none" stroke="#4C4C4C" stroke-width="0.0762" d="M51.4441 118.554c-13.0968,0.0004 -18.1589,0.0004 -22.1087,-0.8693"/>
    <path id="nervure_108" fill="none" stroke="#4C4C4C" stroke-width="0.0762" d="M51.4442 112.359c-8.5635,0.6665 -18.3349,-0.8035 -23.4708,-1.6484"/>
    <path id="nervure_109" fill="none" stroke="#4C4C4C" stroke-width="0.0762" d="M51.4442 103.07c-11.3096,0.1889 -16.2638,0.5582 -23.543,-1.1402"/>
    <path id="nervure_110" fill="none" stroke="#4C4C4C" stroke-width="0.0762" d="M51.4441 93.011c-14.6572,0.2916 -16.9301,0.5237 -23.4798,-1.0677"/>
    <path id="nervure_111" fill="none" stroke="#4C4C4C" stroke-width="0.0762" d="M51.4441 84.8945c-8.6179,0.2745 -14.677,-0.4709 -21.0965,-0.962"/>
    <path id="nervure_112" fill="none" stroke="#4C4C4C" stroke-width="0.0762" d="M51.4441 75.0518c-8.6695,0.0923 -12.0375,0.0299 -19.0427,-1.39"/>
    <path id="nervure_113" fill="none" stroke="#4C4C4C" stroke-width="0.0762" d="M51.444 66.4836c-5.0334,0.168 -10.4103,0.1484 -17.0771,-1.2464"/>
    <path id="nervure_114" fill="none" stroke="#4C4C4C" stroke-width="0.0762" d="M51.4441 60.2986c-6.6409,0.2656 -8.5125,-0.1701 -12.7144,-1.1295"/>
    <path id="nervure_115" fill="none" stroke="#4C4C4C" stroke-width="0.0762" d="M51.4441 52.9526c-4.0921,0.1237 -6.6665,-0.1359 -9.2136,-0.6813"/>
   </g>
   <g>
    <g>
     <g id="margin_116">
      <path id="limbe_117" fill="#A6D10D" stroke="black" stroke-width="0.0762" d="M73.1707 38.9873c8.6615,9.6406 13.0228,28.5214 16.2768,39.0374 -9.6373,9.1654 -24.0103,9.5786 -34.2585,0.3782 -6.0114,-6.6331 -11.2212,-17.533 -2.104,-30.5204 5.8103,-7.0132 12.9889,-9.1088 20.0857,-8.8952z"/>
      <polygon id="nerv_x0020_I_118" fill="black" points="61.2785,42.037 61.2864,82.478 60.1949,81.8697 60.1949,42.037 "/>
     </g>
     <ellipse id="domatia_119" fill="none" stroke="black" stroke-width="0.0762" cx="72.2156" cy="62.0688" rx="24.0822" ry="23.0993"/>
    </g>
    <path id="nervure_120" fill="none" stroke="black" stroke-width="0.1763" d="M61.2847 73.83c6.561,0.1131 12.806,-0.4376 22.6663,-2.2562"/>
    <path id="nervure_121" fill="none" stroke="black" stroke-width="0.1763" d="M61.2831 65.6851c5.4383,-0.1676 9.8839,-0.0302 19.6738,-1.3159"/>
    <path id="nervure_122" fill="none" stroke="black" stroke-width="0.1763" d="M61.2817 57.5447c6.2803,-0.1675 9.5341,-1.2752 16.5873,-1.6903"/>
    <path id="nervure_123" fill="none" stroke="black" stroke-width="0.1763" d="M61.2802 49.4305c5.7126,-0.3437 8.1978,-0.1529 14.0346,-1.0358"/>
    <path id="nervure_124" fill="none" stroke="black" stroke-width="0.1763" d="M61.4371 80.9362c6.561,0.1132 12.9918,0.5024 22.8535,-0.4784"/>
    <path id="nervure_125" fill="none" stroke="black" stroke-width="0.1763" d="M60.195 60.0925c-6.2803,-0.1676 -9.5246,0.062 -11.9468,-0.0582"/>
    <path id="nervure_126" fill="none" stroke="black" stroke-width="0.1763" d="M60.195 68.8458c-5.4382,-0.1676 -7.8743,0.2092 -10.9101,-0.1346"/>
    <path id="nervure_127" fill="none" stroke="black" stroke-width="0.1763" d="M60.195 52.3779c-2.4844,0.171 -8.6099,0.0347 -9.7822,-0.1297"/>
    <path id="nervure_128" fill="none" stroke="black" stroke-width="0.1763" d="M60.0829 76.4144c-0.9263,-0.0569 -6.4089,-0.4067 -7.0189,-0.4969"/>
   </g>
  </g>
 </g>
<image xlink:href="tick.gif" id="imgtick" x="-100" y="-100" width="15" height="15"/>
<rect id="recttooltip" x="-100" y="-100" width="55" height="6" fill-opacity="0.4" pointer-events="none"/>
<text id="textboxid" x="-100" y="-100" pointer-events="none"> </text>
</a></svg>
