<?xml version="1.0" encoding="UTF-8"?>
<!DOCTYPE svg PUBLIC "-//W3C//DTD SVG 1.1//EN" "http://www.w3.org/Graphics/SVG/1.1/DTD/svg11.dtd">
<!-- Creator: CorelDRAW -->
<svg xmlns="http://www.w3.org/2000/svg" xml:space="preserve" shape-rendering="geometricPrecision" text-rendering="geometricPrecision" image-rendering="optimizeQuality" fill-rule="evenodd" clip-rule="evenodd"
viewBox="0 0 240 180"
 xmlns:xlink="http://www.w3.org/1999/xlink">
<a>
 <g id="Layer_x0020_1">
  <metadata id="CorelCorpID_0Corel-Layer"/>
  <rect fill="none" width="240" height="180"/>
  <g id="VenPrim_Suprabasal" onclick="parent.replacechar('VenPrim_Suprabasal')" onmousemove="parent.showtooltip('VenPrim_Suprabasal', 'Suprabasally 3, 5-7 nerved')" onmouseout="parent.hidetooltip('VenPrim_Suprabasal')" cursor="pointer" >
   <g id="palmee_x0020_suprabasales">
    <path id="pas_x0020_visible" fill="#A6D10D" stroke="#CCCCCC" stroke-width="0.0762" stroke-linejoin="bevel" d="M189.178 174.275l-0.2634 -3.2921c-3.1381,-2.1069 -7.1107,-2.8531 -9.4589,-6.3867 -2.3485,-3.5115 -4.7187,-9.6785 -4.7626,-14.924 -0.0218,-5.2673 1.1634,-11.0174 3.4237,-17.3381 2.3264,-6.3646 6.0607,-15.1708 11.5035,-22.1282 5.6183,6.6062 7.8098,15.1274 10.4873,21.5798 2.5019,6.1451 3.797,12.2242 3.6432,18.5671 -0.1535,5.4866 -2.4142,11.0173 -4.8501,14.3094 -2.4363,3.4015 -5.6406,4.4771 -8.5815,6.3646l-0.3511 3.2482 -0.7901 0z"/>
    <g id="palmée_x0020_sécante">
     <g id="nervures">
      <path id="nervure" fill="black" d="M201.051 153.372c0.5671,-0.0181 -1.4832,11.1378 -11.0245,13.0779 -0.1096,0.0223 -0.3458,0.0572 -0.2984,-0.0123 0.0474,-0.0695 0.249,-0.203 0.445,-0.2624 9.9984,-3.0326 10.442,-12.7893 10.8779,-12.8032z"/>
      <path id="nervure_0" fill="black" d="M197.803 135.348c0.0896,-0.0639 0.1629,0.1452 0.3193,0.6068 1.1409,3.3682 2.6959,17.058 -7.8751,30.1169 -0.1112,0.1373 -0.4011,0.3718 -0.3723,0.2246 0.0288,-0.1473 0.2457,-0.5635 0.4428,-0.8316 11.0155,-14.9788 7.9278,-27.0898 7.5488,-29.5136 -0.0546,-0.3497 -0.1256,-0.559 -0.0635,-0.6031z"/>
      <g id="n_x0020_sommet">
       <path id="nervure_1" fill="none" stroke="#7F7F7F" stroke-width="0.0762" d="M190.018 147.182c8.7425,-13.4881 9.7208,-18.0624 5.5578,-25.0975"/>
       <path id="nervure_2" fill="none" stroke="#7F7F7F" stroke-width="0.0762" d="M189.91 139.658c5.9486,-9.9084 7.5674,-17.3214 3.43,-21.7009"/>
       <path id="nervure_3" fill="none" stroke="#7F7F7F" stroke-width="0.0762" d="M189.628 131.494c3.5271,-6.7816 5.9461,-12.8777 1.7036,-16.1718"/>
       <path id="nervure_4" fill="none" stroke="#7F7F7F" stroke-width="0.0762" d="M189.596 124.101c2.8089,-7.7931 2.559,-8.8526 -0.2031,-10.0294"/>
      </g>
      <g id="n_x0020_mil">
       <path id="nervure_5" fill="none" stroke="#7F7F7F" stroke-width="0.0762" d="M198.374 149.694c2.3303,-1.1245 3.4896,-2.5018 4.092,-4.5495"/>
       <path id="nervure_6" fill="none" stroke="#7F7F7F" stroke-width="0.0762" d="M198.673 145.853c2.1894,-1.3574 3.1896,-2.8482 3.5646,-4.9509"/>
       <path id="nervure_7" fill="none" stroke="#7F7F7F" stroke-width="0.0762" d="M198.76 142.928c1.6966,-1.902 2.2207,-3.6131 1.9722,-5.7477"/>
       <path id="nervure_8" fill="none" stroke="#7F7F7F" stroke-width="0.0762" d="M197.302 153.574c2.4086,-0.9655 3.6649,-2.2604 4.4123,-4.2599"/>
      </g>
     </g>
     <g id="nervures_9">
      <path id="nervure_10" fill="#1F1A17" d="M178.038 153.695c-0.5678,-0.0039 1.7453,11.0886 11.3371,12.7888 0.1102,0.0195 0.3474,0.0485 0.2983,-0.0198 -0.0491,-0.0682 -0.2539,-0.1965 -0.4514,-0.251 -10.0748,-2.7801 -10.7475,-12.515 -11.184,-12.518z"/>
      <path id="nervure_11" fill="black" d="M180.588 135.544c-0.092,-0.0608 -0.1586,0.1505 -0.2999,0.6169 -1.0311,3.4025 -2.1322,17.1286 8.9013,29.8181 0.1161,0.1334 0.4146,0.358 0.3807,0.2119 -0.0338,-0.1461 -0.2651,-0.5546 -0.4716,-0.8158 -11.5434,-14.5923 -8.853,-26.7929 -8.5541,-29.2265 0.0431,-0.3512 0.1072,-0.5626 0.0436,-0.6046z"/>
      <g id="n_x0020_sommet_12">
       <path id="nervure_13" fill="none" stroke="#7F7F7F" stroke-width="0.0762" d="M189.859 145.913c-8.9794,-12.5272 -10.1228,-16.8634 -6.4556,-23.7827"/>
       <path id="nervure_14" fill="none" stroke="#7F7F7F" stroke-width="0.0762" d="M189.622 138.706c-6.1429,-9.2234 -7.6336,-16.244 -3.8709,-20.6198"/>
       <path id="nervure_15" fill="none" stroke="#7F7F7F" stroke-width="0.0762" d="M189.523 130.876c-3.6834,-6.3369 -5.9113,-12.0857 -1.9988,-15.4269"/>
       <path id="nervure_16" fill="none" stroke="#7F7F7F" stroke-width="0.0762" d="M189.219 123.797c-3.0414,-7.337 -2.4256,-8.6018 0.1737,-9.7256"/>
      </g>
      <g id="n_x0020_mil_17">
       <path id="nervure_18" fill="none" stroke="#7F7F7F" stroke-width="0.0762" d="M180.932 149.845c-2.3929,-0.9993 -3.6287,-2.3119 -4.3446,-4.3219"/>
       <path id="nervure_19" fill="none" stroke="#7F7F7F" stroke-width="0.0762" d="M180.42 146.031c-2.2648,-1.239 -3.3478,-2.673 -3.8394,-4.7498"/>
       <path id="nervure_20" fill="none" stroke="#7F7F7F" stroke-width="0.0762" d="M180.171 143.12c-1.8023,-1.8077 -2.4212,-3.4862 -2.2909,-5.6274"/>
       <path id="nervure_21" fill="none" stroke="#7F7F7F" stroke-width="0.0762" d="M182.22 153.657c-2.4624,-0.8367 -3.7906,-2.0621 -4.6489,-4.0166"/>
      </g>
     </g>
    </g>
    <rect id="nerv_x0020_I" fill="black" stroke="black" stroke-width="0.0762" x="189.468" y="111.264" width="0.391" height="58.65"/>
   </g>
   <g id="_3_x0020_suprabasales">
    <path id="pas_x0020_visible_22" fill="#A6D10D" stroke="#CCCCCC" stroke-width="0.0762" stroke-linejoin="bevel" d="M170.815 163.688l-0.2651 -3.3131c-3.1582,-2.1204 -7.1562,-2.8713 -9.5193,-6.4275 -2.3636,-3.534 -4.7489,-9.7403 -4.7931,-15.0194 -0.0219,-5.3009 1.1708,-11.0877 3.4456,-17.4488 2.3412,-6.4053 6.1166,-14.0147 11.5942,-21.0165 5.6542,6.6484 7.8424,13.9709 10.5371,20.4645 2.5178,6.1844 3.8212,12.3024 3.6665,18.6857 -0.1545,5.5218 -2.4297,11.0878 -4.8812,14.4009 -2.4518,3.4233 -5.428,4.6439 -8.3877,6.5434l-0.602 3.1308 -0.795 0z"/>
    <g id="nervures_23">
     <path id="nervure_24" fill="#1F1A17" d="M181.424 123.782c0.0942,-0.0614 0.1541,0.1618 0.2805,0.6541 0.9229,3.5923 1.5776,18.0052 -9.9059,31.0206 -0.1207,0.1369 -0.4275,0.3645 -0.3888,0.2123 0.0388,-0.1523 0.2841,-0.5744 0.4999,-0.8428 12.0572,-14.9965 9.7583,-27.8514 9.5382,-30.4095 -0.0318,-0.3691 -0.0892,-0.5923 -0.0239,-0.6347z"/>
     <g id="n_x0020_sommet_25">
      <path id="nervure_26" fill="none" stroke="#7F7F7F" stroke-width="0.0762" d="M171.69 138.856c8.9915,-14.05 10.0416,-18.8336 5.953,-26.2447"/>
      <path id="nervure_27" fill="none" stroke="#7F7F7F" stroke-width="0.0762" d="M171.69 130.972c6.1285,-10.3257 7.8638,-18.0778 3.763,-22.7061"/>
      <path id="nervure_28" fill="none" stroke="#7F7F7F" stroke-width="0.0762" d="M171.522 122.414c3.6469,-7.0724 6.1686,-13.437 1.9464,-16.929"/>
      <path id="nervure_29" fill="none" stroke="#7F7F7F" stroke-width="0.0762" d="M171.596 114.667c2.9384,-8.139 2.7021,-9.2516 -0.0606,-10.5109"/>
     </g>
     <g id="n_x0020_mil_30">
      <path id="nervure_31" fill="none" stroke="#7F7F7F" stroke-width="0.0762" d="M176.919 147.999c2.6174,-0.3127 4.2225,-1.2725 5.5504,-3.081"/>
      <path id="nervure_32" fill="none" stroke="#7F7F7F" stroke-width="0.0762" d="M178.625 144.324c2.5706,-0.5898 4.0677,-1.7153 5.2012,-3.6552"/>
      <path id="nervure_33" fill="none" stroke="#7F7F7F" stroke-width="0.0762" d="M179.791 141.478c2.3071,-1.2929 3.4362,-2.797 3.9927,-4.9805"/>
      <path id="nervure_34" fill="none" stroke="#7F7F7F" stroke-width="0.0762" d="M174.468 151.449c2.6323,-0.1298 4.2986,-0.9756 5.7455,-2.6874"/>
     </g>
    </g>
    <g id="nervures_35">
     <path id="nervure_36" fill="black" d="M160.437 124.227c-0.0961,-0.0578 -0.1502,0.1659 -0.2639,0.6592 -0.8296,3.5993 -1.1029,17.9375 10.7542,30.479 0.1247,0.1319 0.4383,0.3477 0.3954,0.1978 -0.0428,-0.15 -0.3,-0.561 -0.5234,-0.8204 -12.485,-14.4899 -10.5221,-27.336 -10.3694,-29.8843 0.022,-0.3677 0.0736,-0.5913 0.0071,-0.6313z"/>
     <g id="n_x0020_sommet_37">
      <path id="nervure_38" fill="none" stroke="#7F7F7F" stroke-width="0.0762" d="M171.603 142.385c-10.0271,-13.4005 -10.5578,-22.5483 -6.2626,-30.1028"/>
      <path id="nervure_39" fill="none" stroke="#7F7F7F" stroke-width="0.0762" d="M171.19 130.995c-6.1409,-10.5236 -7.8128,-18.4249 -3.5436,-23.1429"/>
      <path id="nervure_40" fill="none" stroke="#7F7F7F" stroke-width="0.0762" d="M171.48 122.272c-3.6413,-7.2081 -6.1388,-13.6949 -1.7609,-17.2549"/>
      <path id="nervure_41" fill="none" stroke="#7F7F7F" stroke-width="0.0762" d="M171.512 114.376c-2.9001,-8.2953 -2.7596,-9.376 0.0907,-10.66"/>
     </g>
     <g id="n_x0020_mil_42">
      <path id="nervure_43" fill="none" stroke="#7F7F7F" stroke-width="0.0762" d="M165.342 148.314c-2.6317,-0.141 -4.2942,-0.9895 -5.7335,-2.6979"/>
      <path id="nervure_44" fill="none" stroke="#7F7F7F" stroke-width="0.0762" d="M163.408 144.778c-2.6025,-0.4189 -4.1675,-1.4388 -5.4212,-3.2902"/>
      <path id="nervure_45" fill="none" stroke="#7F7F7F" stroke-width="0.0762" d="M162.065 142.03c-2.384,-1.1337 -3.6057,-2.5529 -4.2989,-4.6833"/>
      <path id="nervure_46" fill="none" stroke="#7F7F7F" stroke-width="0.0762" d="M168.006 151.579c-2.6351,0.0414 -4.3513,-0.69 -5.9034,-2.2947"/>
     </g>
    </g>
    <rect id="nerv_x0020_I_47" fill="black" stroke="black" stroke-width="0.0762" x="171.212" y="101.708" width="0.391" height="58.65"/>
   </g>
  </g>
  <g id="VenPrim_Basal" onclick="parent.replacechar('VenPrim_Basal')" onmousemove="parent.showtooltip('VenPrim_Basal', 'Basally 3, 5-7 nerved')" onmouseout="parent.hidetooltip('VenPrim_Basal')" cursor="pointer" >
   <g id="palmee_x0020_basales">
    <path id="pas_x0020_visible_48" fill="#A6D10D" stroke="#CCCCCC" stroke-width="0.0762" stroke-linejoin="bevel" d="M68.8363 175.194l-0.2634 -3.2921c-3.1381,-2.1069 -7.1107,-2.8531 -9.4589,-6.3867 -2.3485,-3.5115 -4.7187,-9.6785 -4.7626,-14.924 -0.0218,-5.2673 1.1634,-11.0174 3.4237,-17.3381 2.3264,-6.3646 6.0607,-15.1708 11.5035,-22.1282 5.6183,6.6062 7.8098,15.1274 10.4873,21.5798 2.5019,6.1451 3.797,12.2242 3.6432,18.5671 -0.1535,5.4866 -2.4142,11.0173 -4.8501,14.3094 -2.4363,3.4015 -5.6406,4.4771 -8.5815,6.3646l-0.3511 3.2482 -0.7901 0z"/>
    <g id="palmée_x0020_sécante_49">
     <g id="nervures_50">
      <path id="nervure_51" fill="black" d="M80.7098 156.846c0.5671,-0.0193 -1.4832,11.8621 -11.0245,13.9283 -0.1096,0.0237 -0.3458,0.0609 -0.2984,-0.0131 0.0474,-0.0741 0.249,-0.2162 0.445,-0.2795 9.9984,-3.2298 10.442,-13.6209 10.8779,-13.6357z"/>
      <path id="nervure_52" fill="black" d="M77.4618 137.65c0.0896,-0.068 0.1629,0.1547 0.3193,0.6464 1.1409,3.5872 2.6959,18.1671 -7.8751,32.0751 -0.1112,0.1462 -0.4011,0.396 -0.3723,0.2392 0.0288,-0.1568 0.2457,-0.6001 0.4428,-0.8856 11.0155,-15.9528 7.9278,-28.8513 7.5488,-31.4327 -0.0546,-0.3724 -0.1256,-0.5953 -0.0635,-0.6424z"/>
      <g id="n_x0020_sommet_53">
       <path id="nervure_54" fill="none" stroke="#7F7F7F" stroke-width="0.0762" d="M69.6765 150.253c8.7425,-14.3651 9.7208,-19.2368 5.5578,-26.7294"/>
       <path id="nervure_55" fill="none" stroke="#7F7F7F" stroke-width="0.0762" d="M69.5688 142.241c5.9486,-10.5526 7.5674,-18.4477 3.43,-23.112"/>
       <path id="nervure_56" fill="none" stroke="#7F7F7F" stroke-width="0.0762" d="M69.2864 133.545c3.5271,-7.2226 5.9461,-13.715 1.7036,-17.2233"/>
       <path id="nervure_57" fill="none" stroke="#7F7F7F" stroke-width="0.0762" d="M69.2543 125.672c2.8089,-8.2998 2.559,-9.4282 -0.2031,-10.6815"/>
      </g>
      <g id="n_x0020_mil_58">
       <path id="nervure_59" fill="none" stroke="#7F7F7F" stroke-width="0.0762" d="M78.0329 152.929c2.3303,-1.1976 3.4896,-2.6645 4.092,-4.8453"/>
       <path id="nervure_60" fill="none" stroke="#7F7F7F" stroke-width="0.0762" d="M78.3316 148.838c2.1894,-1.4457 3.1896,-3.0334 3.5646,-5.2728"/>
       <path id="nervure_61" fill="none" stroke="#7F7F7F" stroke-width="0.0762" d="M78.4184 145.724c1.6966,-2.0257 2.2207,-3.8481 1.9722,-6.1215"/>
       <path id="nervure_62" fill="none" stroke="#7F7F7F" stroke-width="0.0762" d="M76.9601 157.061c2.4086,-1.0283 3.6649,-2.4074 4.4123,-4.537"/>
      </g>
     </g>
     <g id="nervures_63">
      <path id="nervure_64" fill="#1F1A17" d="M57.6966 157.19c-0.5678,-0.0042 1.7453,11.8095 11.3371,13.6203 0.1102,0.0208 0.3474,0.0516 0.2983,-0.0211 -0.0491,-0.0727 -0.2539,-0.2093 -0.4514,-0.2673 -10.0748,-2.9609 -10.7475,-13.3287 -11.184,-13.3319z"/>
      <path id="nervure_65" fill="black" d="M60.2464 137.858c-0.092,-0.0648 -0.1586,0.1603 -0.2999,0.657 -1.0311,3.6237 -2.1322,18.2423 8.9013,31.757 0.1161,0.1421 0.4146,0.3812 0.3807,0.2256 -0.0338,-0.1556 -0.2651,-0.5907 -0.4716,-0.8688 -11.5434,-15.5412 -8.853,-28.535 -8.5541,-31.1269 0.0431,-0.374 0.1072,-0.5991 0.0436,-0.6439z"/>
      <g id="n_x0020_sommet_66">
       <path id="nervure_67" fill="none" stroke="#7F7F7F" stroke-width="0.0762" d="M69.5172 148.903c-8.9794,-13.3417 -10.1228,-17.9598 -6.4556,-25.3291"/>
       <path id="nervure_68" fill="none" stroke="#7F7F7F" stroke-width="0.0762" d="M69.2801 141.226c-6.1429,-9.8231 -7.6336,-17.3003 -3.8709,-21.9605"/>
       <path id="nervure_69" fill="none" stroke="#7F7F7F" stroke-width="0.0762" d="M69.1812 132.888c-3.6834,-6.7489 -5.9113,-12.8715 -1.9988,-16.43"/>
       <path id="nervure_70" fill="none" stroke="#7F7F7F" stroke-width="0.0762" d="M68.8775 125.348c-3.0414,-7.8141 -2.4256,-9.1611 0.1737,-10.358"/>
      </g>
      <g id="n_x0020_mil_71">
       <path id="nervure_72" fill="none" stroke="#7F7F7F" stroke-width="0.0762" d="M60.5903 153.09c-2.3929,-1.0643 -3.6287,-2.4622 -4.3446,-4.6029"/>
       <path id="nervure_73" fill="none" stroke="#7F7F7F" stroke-width="0.0762" d="M60.0787 149.028c-2.2648,-1.3196 -3.3478,-2.8469 -3.8394,-5.0586"/>
       <path id="nervure_74" fill="none" stroke="#7F7F7F" stroke-width="0.0762" d="M59.8299 145.928c-1.8023,-1.9253 -2.4212,-3.7129 -2.2909,-5.9933"/>
       <path id="nervure_75" fill="none" stroke="#7F7F7F" stroke-width="0.0762" d="M61.8782 157.15c-2.4624,-0.8912 -3.7906,-2.1963 -4.6489,-4.2778"/>
      </g>
     </g>
    </g>
    <rect id="nerv_x0020_I_76" fill="black" stroke="black" stroke-width="0.0762" x="69.1262" y="112.183" width="0.391" height="58.65"/>
   </g>
   <g id="_3_x0020_basales">
    <path id="pas_x0020_visible_77" fill="#A6D10D" stroke="#CCCCCC" stroke-width="0.0762" stroke-linejoin="bevel" d="M51.1564 163.688l-0.2651 -3.3131c-3.1582,-2.1204 -7.1562,-2.8713 -9.5193,-6.4275 -2.3636,-3.534 -4.7489,-9.7403 -4.7931,-15.0194 -0.0219,-5.3009 1.1708,-11.0877 3.4456,-17.4488 2.3412,-6.4053 6.1166,-14.0147 11.5942,-21.0165 5.6542,6.6484 7.8424,13.9709 10.5371,20.4645 2.5178,6.1844 3.8212,12.3024 3.6665,18.6857 -0.1545,5.5218 -2.4297,11.0878 -4.8812,14.4009 -2.4518,3.4233 -5.428,4.6439 -8.3877,6.5434l-0.602 3.1308 -0.795 0z"/>
    <g id="nervures_78">
     <path id="nervure_79" fill="#1F1A17" d="M61.7652 125.563c0.0942,-0.0669 0.1541,0.1765 0.2805,0.7136 0.9229,3.9183 1.5776,19.6394 -9.9059,33.8362 -0.1207,0.1493 -0.4275,0.3976 -0.3888,0.2315 0.0388,-0.166 0.2841,-0.6265 0.4999,-0.9193 12.0572,-16.3576 9.7583,-30.3794 9.5382,-33.1697 -0.0318,-0.4026 -0.0892,-0.646 -0.0239,-0.6923z"/>
     <g id="n_x0020_sommet_80">
      <path id="nervure_81" fill="none" stroke="#7F7F7F" stroke-width="0.0762" d="M52.0313 142.006c8.9915,-15.3253 10.0416,-20.5431 5.953,-28.6269"/>
      <path id="nervure_82" fill="none" stroke="#7F7F7F" stroke-width="0.0762" d="M52.0308 133.406c6.1285,-11.2628 7.8638,-19.7186 3.763,-24.767"/>
      <path id="nervure_83" fill="none" stroke="#7F7F7F" stroke-width="0.0762" d="M51.8636 124.071c3.6469,-7.7143 6.1686,-14.6566 1.9464,-18.4655"/>
      <path id="nervure_84" fill="none" stroke="#7F7F7F" stroke-width="0.0762" d="M51.9374 115.622c2.9384,-8.8778 2.7021,-10.0914 -0.0606,-11.465"/>
     </g>
     <g id="n_x0020_mil_85">
      <path id="nervure_86" fill="none" stroke="#7F7F7F" stroke-width="0.0762" d="M57.2601 151.979c2.6174,-0.3411 4.2225,-1.3881 5.5504,-3.3607"/>
      <path id="nervure_87" fill="none" stroke="#7F7F7F" stroke-width="0.0762" d="M58.966 147.97c2.5706,-0.6433 4.0677,-1.871 5.2012,-3.987"/>
      <path id="nervure_88" fill="none" stroke="#7F7F7F" stroke-width="0.0762" d="M60.1319 144.866c2.3071,-1.4103 3.4362,-3.0509 3.9927,-5.4326"/>
      <path id="nervure_89" fill="none" stroke="#7F7F7F" stroke-width="0.0762" d="M54.8091 155.742c2.6323,-0.1416 4.2986,-1.0641 5.7455,-2.9313"/>
     </g>
    </g>
    <g id="nervures_90">
     <path id="nervure_91" fill="black" d="M40.7778 126.048c-0.0961,-0.063 -0.1502,0.181 -0.2639,0.7191 -0.8296,3.9259 -1.1029,19.5656 10.7542,33.2455 0.1247,0.1438 0.4383,0.3792 0.3954,0.2156 -0.0428,-0.1635 -0.3,-0.6118 -0.5234,-0.8947 -12.485,-15.8051 -10.5221,-29.8173 -10.3694,-32.5969 0.022,-0.4011 0.0736,-0.645 0.0071,-0.6886z"/>
     <g id="n_x0020_sommet_92">
      <path id="nervure_93" fill="none" stroke="#7F7F7F" stroke-width="0.0762" d="M51.9442 145.854c-9.7797,-14.2561 -10.2973,-23.988 -6.1081,-32.0249"/>
      <path id="nervure_94" fill="none" stroke="#7F7F7F" stroke-width="0.0762" d="M51.5418 133.738c-5.9894,-11.1955 -7.62,-19.6012 -3.4562,-24.6205"/>
      <path id="nervure_95" fill="none" stroke="#7F7F7F" stroke-width="0.0762" d="M51.8247 124.458c-3.5515,-7.6683 -5.9873,-14.5693 -1.7176,-18.3565"/>
      <path id="nervure_96" fill="none" stroke="#7F7F7F" stroke-width="0.0762" d="M51.8556 116.058c-2.8285,-8.825 -2.6915,-9.9746 0.0885,-11.3406"/>
     </g>
     <g id="n_x0020_mil_97">
      <path id="nervure_98" fill="none" stroke="#7F7F7F" stroke-width="0.0762" d="M45.6836 152.322c-2.6317,-0.1538 -4.2942,-1.0793 -5.7335,-2.9428"/>
      <path id="nervure_99" fill="none" stroke="#7F7F7F" stroke-width="0.0762" d="M43.7491 148.465c-2.6025,-0.457 -4.1675,-1.5694 -5.4212,-3.5888"/>
      <path id="nervure_100" fill="none" stroke="#7F7F7F" stroke-width="0.0762" d="M42.406 145.468c-2.384,-1.2365 -3.6057,-2.7846 -4.2989,-5.1083"/>
      <path id="nervure_101" fill="none" stroke="#7F7F7F" stroke-width="0.0762" d="M48.3474 155.883c-2.6351,0.0452 -4.3513,-0.7526 -5.9034,-2.503"/>
     </g>
    </g>
    <rect id="nerv_x0020_I_102" fill="black" stroke="black" stroke-width="0.0762" x="51.5533" y="101.708" width="0.391" height="58.65"/>
   </g>
  </g>
  <g id="VenPrim_One" onclick="parent.replacechar('VenPrim_One')" onmousemove="parent.showtooltip('VenPrim_One', 'Primary nerve with single midrib')" onmouseout="parent.hidetooltip('VenPrim_One')" cursor="pointer" >
   <g id="pennée">
    <path id="pas_x0020_visible_103" fill="#A6D10D" stroke="#CCCCCC" stroke-width="0.0762" stroke-linejoin="bevel" d="M189.322 83.6508l-0.265 -3.3131c-3.1582,-2.1204 -7.1562,-2.8713 -9.5193,-6.4275 -2.3636,-3.534 -4.7489,-9.7403 -4.7931,-15.0193 -0.0219,-5.301 1.1708,-11.0878 3.4456,-17.4489 2.3412,-6.4053 5.9458,-14.1367 11.4233,-21.1385 5.6543,6.6484 8.0133,14.0929 10.7079,20.5866 2.5179,6.1844 3.8213,12.3023 3.6665,18.6857 -0.1544,5.5217 -2.4296,11.0877 -4.8811,14.4008 -2.4519,3.4233 -5.6766,4.5058 -8.6363,6.4053l-0.3534 3.2689 -0.7951 0z"/>
    <g id="nervures_x0020_droite">
     <path id="nervure_104" fill="none" stroke="#7F7F7F" stroke-width="0.0762" d="M189.48 77.1773c-3.8317,-1.7084 -9.788,-4.8055 -12.4599,-10.4664"/>
     <path id="nervure_105" fill="none" stroke="#7F7F7F" stroke-width="0.0762" d="M189.48 73.8067c-6.945,-4.3441 -12.2225,-8.8996 -13.7634,-16.2069"/>
     <path id="nervure_106" fill="none" stroke="#7F7F7F" stroke-width="0.0762" d="M189.48 69.5497c-9.2943,-8.2455 -10.8076,-12.3736 -12.7073,-20.3282"/>
     <path id="nervure_107" fill="none" stroke="#7F7F7F" stroke-width="0.0762" d="M189.48 62.5004c-7.22,-6.9546 -8.6951,-10.8635 -10.7813,-20.3821"/>
     <path id="nervure_108" fill="none" stroke="#7F7F7F" stroke-width="0.0762" d="M189.48 54.2835c-5.9138,-6.0167 -7.7324,-12.0112 -8.2392,-19.4211"/>
     <path id="nervure_109" fill="none" stroke="#7F7F7F" stroke-width="0.0762" d="M189.505 46.5707c-4.1119,-4.9295 -5.9104,-13.0652 -5.3859,-16.9878"/>
     <path id="nervure_110" fill="none" stroke="#7F7F7F" stroke-width="0.0762" d="M189.517 38.6394c-2.939,-4.2725 -4.3598,-10.3949 -3.6644,-12.642"/>
     <path id="nervure_111" fill="none" stroke="#7F7F7F" stroke-width="0.0762" d="M189.542 32.6293c-1.9308,-3.4295 -2.5065,-6.7186 -2.1147,-8.9179"/>
     <path id="nervure_112" fill="none" stroke="#7F7F7F" stroke-width="0.0762" d="M189.512 28.2216c-1.6573,-3.0679 -1.1547,-5.0385 -1.0019,-5.8608"/>
    </g>
    <g id="nervures_x0020_gauche">
     <path id="nervure_113" fill="none" stroke="#7F7F7F" stroke-width="0.0762" d="M189.981 77.9547c3.7899,-1.9081 9.7322,-6.1024 12.1669,-11.8972"/>
     <path id="nervure_114" fill="none" stroke="#7F7F7F" stroke-width="0.0762" d="M189.903 74.291c6.8111,-4.7046 12.0146,-10.2585 13.2304,-17.638"/>
     <path id="nervure_115" fill="none" stroke="#7F7F7F" stroke-width="0.0762" d="M189.814 70.0909c9.0018,-8.7249 10.7965,-13.0287 12.3446,-21.0738"/>
     <path id="nervure_116" fill="none" stroke="#7F7F7F" stroke-width="0.0762" d="M189.665 63.0958c6.9672,-7.3263 8.6574,-11.8208 10.321,-21.4377"/>
     <path id="nervure_117" fill="none" stroke="#7F7F7F" stroke-width="0.0762" d="M189.562 54.7421c5.6919,-6.3208 7.3003,-12.7973 7.4671,-20.2249"/>
     <path id="nervure_118" fill="none" stroke="#7F7F7F" stroke-width="0.0762" d="M189.318 46.7553c3.9229,-5.1401 5.64,-13.9173 4.9277,-17.8075"/>
     <path id="nervure_119" fill="none" stroke="#7F7F7F" stroke-width="0.0762" d="M189.785 38.0163c2.769,-4.422 3.9985,-10.8473 3.1917,-13.0551"/>
     <path id="nervure_120" fill="none" stroke="#7F7F7F" stroke-width="0.0762" d="M189.726 32.0214c1.7902,-3.527 2.2183,-6.8425 1.7203,-9.0184"/>
     <path id="nervure_121" fill="none" stroke="#7F7F7F" stroke-width="0.0762" d="M189.912 27.7727c1.5307,-2.6788 0.9581,-4.523 0.7655,-5.2143"/>
    </g>
    <rect id="nerv_x0020_I_122" fill="black" stroke="black" stroke-width="0.0762" x="189.501" y="21.0228" width="0.391" height="58.65"/>
   </g>
   <path id="_27631392" fill="#A6D10D" stroke="#CCCCCC" stroke-width="0.0762" stroke-linejoin="bevel" d="M170.578 72.7215l-0.2651 -3.3131c-3.1582,-2.1204 -7.1562,-2.8713 -9.5193,-6.4275 -2.3635,-3.534 -4.7489,-9.7403 -4.7931,-15.0193 -0.0219,-5.301 1.1709,-11.0878 3.4457,-17.4489 2.3411,-6.4053 6.1042,-14.1742 11.5818,-21.1761 5.6542,6.6484 7.8548,14.1305 10.5494,20.6241 2.5179,6.1844 3.8213,12.3024 3.6665,18.6858 -0.1545,5.5217 -2.4297,11.0877 -4.8811,14.4008 -2.4519,3.4233 -5.6766,4.5058 -8.6363,6.4053l-0.3534 3.2689 -0.7951 0z"/>
   <rect id="nerv_x0020_I_123" fill="black" stroke="black" stroke-width="0.0762" x="170.834" y="10.0604" width="0.391" height="58.65"/>
  </g>
  <g id="VenPrim_Parallel" onclick="parent.replacechar('VenPrim_Parallel')" onmousemove="parent.showtooltip('VenPrim_Parallel', 'Parallel venation')" onmouseout="parent.hidetooltip('VenPrim_Parallel')" cursor="pointer" >
   <path id="_66398568" fill="#A6D10D" stroke="#CCCCCC" stroke-width="0.0762" stroke-linejoin="bevel" d="M59.9497 75.7678l-0.265 -3.3131c-3.1582,-2.1204 -7.1562,-2.8713 -9.5193,-6.4275 -2.3636,-3.534 -4.7489,-9.7403 -4.7931,-15.0193 -0.022,-5.301 1.1708,-11.0878 3.4456,-17.4489 2.3412,-6.4053 4.9698,-13.8927 10.4473,-20.8945 5.6543,6.6484 8.9893,13.8489 11.6839,20.3425 2.5179,6.1844 3.8213,12.3024 3.6665,18.6858 -0.1544,5.5217 -2.4296,11.0877 -4.8811,14.4008 -2.4519,3.4233 -5.6766,4.5058 -8.6363,6.4053l-0.3534 3.2689 -0.7951 0z"/>
   <g id="nervures_124">
    <path id="_77809240" fill="none" stroke="#7F7F7F" stroke-width="0.0762" d="M59.1757 13.0587c-3.097,22.962 -7.7522,39.6075 1.2226,59.093"/>
    <path id="_78307096" fill="none" stroke="#7F7F7F" stroke-width="0.0762" d="M59.0804 13.2337c-5.2073,19.7297 -13.3503,45.8553 1.3166,59.0864"/>
    <path id="_77551528" fill="none" stroke="#7F7F7F" stroke-width="0.0762" d="M59.1877 12.9805c-10.3641,25.3418 -17.9365,46.7728 1.2235,59.4779"/>
    <path id="_66519080" fill="none" stroke="#7F7F7F" stroke-width="0.0762" d="M59.3063 13.0384c1.2648,22.1064 12.1545,38.5269 1.1286,59.1434"/>
    <path id="_66437976" fill="none" stroke="#7F7F7F" stroke-width="0.0762" d="M59.3484 13.2577c2.4075,19.6441 21.92,38.8352 1.0845,59.0662"/>
    <path id="_77065496" fill="none" stroke="#7F7F7F" stroke-width="0.0762" d="M59.3538 13.004c2.7743,12.4226 27.9532,40.6569 1.084,59.4513"/>
    <path id="_66787152" fill="none" stroke="#7F7F7F" stroke-width="0.0762" d="M59.1757 13.0588c0.2874,12.9841 0.7967,39.8631 1.2225,59.0929"/>
   </g>
  </g>
 </g>
<image xlink:href="tick.gif" id="imgtick" x="-100" y="-100" width="15" height="15"/>
<rect id="recttooltip" x="-100" y="-100" width="55" height="6" fill-opacity="0.4" pointer-events="none"/>
<text id="textboxid" x="-100" y="-100" pointer-events="none"> </text>
</a></svg>
