<?xml version="1.0" encoding="UTF-8"?>
<!DOCTYPE svg PUBLIC "-//W3C//DTD SVG 1.1//EN" "http://www.w3.org/Graphics/SVG/1.1/DTD/svg11.dtd">
<!-- Creator: CorelDRAW -->
<svg xmlns="http://www.w3.org/2000/svg" xml:space="preserve" shape-rendering="geometricPrecision" text-rendering="geometricPrecision" image-rendering="optimizeQuality" fill-rule="evenodd" clip-rule="evenodd"
viewBox="0 0 240 180"
 xmlns:xlink="http://www.w3.org/1999/xlink">
<a>
 <g id="Layer_x0020_1">
  <metadata id="CorelCorpID_0Corel-Layer"/>
  <rect fill="none" width="240" height="180"/>
  <g id="VenSec_Oblique" onclick="parent.replacechar('VenSec_Oblique')" onmousemove="parent.showtooltip('VenSec_Oblique', 'Secondary veins acute')" onmouseout="parent.hidetooltip('VenSec_Oblique')" cursor="pointer" >
   <path id="pas_x0020_visible" fill="#B9CC76" stroke="#4C4C4C" stroke-width="0.0762" stroke-linejoin="bevel" d="M203.719 110.103l-0.3594 -4.4922c-4.2823,-2.8751 -9.7032,-3.8933 -12.9074,-8.7152 -3.2047,-4.7917 -6.439,-13.2069 -6.4989,-20.3648 -0.0298,-7.1876 1.5875,-15.0339 4.6719,-23.659 3.1745,-8.685 8.2935,-19.2012 15.7206,-28.695 7.6667,9.0146 10.6337,19.1418 14.2873,27.9466 3.414,8.3855 5.1813,16.6809 4.9715,25.3361 -0.2095,7.487 -3.2944,15.034 -6.6184,19.5262 -3.3245,4.6416 -7.6969,6.1094 -11.71,8.685l-0.4792 4.4323 -1.078 0z"/>
   <path id="nervure" fill="none" stroke="#4C4C4C" stroke-width="0.0762" d="M204.056 101.494c-4.7831,-4.1033 -12.1445,-12.2632 -15.6875,-18.2992"/>
   <path id="nervure_0" fill="none" stroke="#4C4C4C" stroke-width="0.0762" d="M204.056 97.279c-7.7217,-9.1432 -14.9991,-18.0428 -16.3553,-23.644"/>
   <path id="nervure_1" fill="none" stroke="#4C4C4C" stroke-width="0.0762" d="M204.055 91.0158c-8.7538,-11.8216 -13.2418,-19.5463 -16.4353,-27.9624"/>
   <path id="nervure_2" fill="none" stroke="#4C4C4C" stroke-width="0.0762" d="M204.215 81.6328c-7.5447,-11.5373 -11.9729,-16.7916 -14.6185,-27.6362"/>
   <path id="nervure_3" fill="none" stroke="#4C4C4C" stroke-width="0.0762" d="M203.981 70.3953c-5.1203,-9.3381 -10.5288,-16.3551 -11.2189,-26.4448"/>
   <path id="nervure_4" fill="none" stroke="#4C4C4C" stroke-width="0.0762" d="M204.056 59.3567c-3.7256,-7.6895 -8.121,-17.7647 -7.4003,-23.1544"/>
   <path id="nervure_5" fill="none" stroke="#4C4C4C" stroke-width="0.0762" d="M204.056 49.2449c-3.0687,-6.9843 -5.9598,-14.2815 -5.0169,-17.3283"/>
   <path id="nervure_6" fill="none" stroke="#4C4C4C" stroke-width="0.0762" d="M204.056 41.2541c-1.7477,-5.429 -3.4116,-9.5213 -2.8803,-12.5032"/>
   <path id="nervure_7" fill="none" stroke="#4C4C4C" stroke-width="0.0762" d="M204.055 34.7613c-1.2181,-4.5604 -1.4447,-6.7341 -1.2564,-7.7477"/>
   <path id="nervure_8" fill="none" stroke="#4C4C4C" stroke-width="0.0762" d="M204.613 102.38c5.322,-5.7481 13.0129,-14.4144 16.7263,-23.693"/>
   <path id="nervure_9" fill="none" stroke="#4C4C4C" stroke-width="0.0762" d="M204.586 96.8886c5.0202,-5.8749 12.5352,-15.544 16.2454,-24.4064"/>
   <path id="nervure_10" fill="none" stroke="#4C4C4C" stroke-width="0.0762" d="M204.586 91.5492c7.5324,-11.6928 12.6978,-19.4682 15.8047,-28.7729"/>
   <path id="nervure_11" fill="none" stroke="#4C4C4C" stroke-width="0.0762" d="M204.184 82.2324c6.2397,-10.7128 10.6392,-17.036 13.9943,-29.0675"/>
   <path id="nervure_12" fill="none" stroke="#4C4C4C" stroke-width="0.0762" d="M203.998 70.9056c5.9308,-11.8233 9.9443,-17.352 10.1705,-27.4231"/>
   <path id="nervure_13" fill="none" stroke="#4C4C4C" stroke-width="0.0762" d="M204.586 59.9205c3.4863,-8.9394 7.6368,-19.085 6.671,-24.3598"/>
   <path id="nervure_14" fill="none" stroke="#4C4C4C" stroke-width="0.0762" d="M204.602 49.1395c2.0136,-6.9122 5.4216,-14.708 4.3277,-17.7015"/>
   <path id="nervure_15" fill="none" stroke="#4C4C4C" stroke-width="0.0762" d="M204.586 40.2593c1.5111,-5.4237 3.03,-8.7916 2.3547,-11.742"/>
   <path id="nervure_16" fill="none" stroke="#4C4C4C" stroke-width="0.0762" d="M204.586 33.8145c0.9012,-4.4776 1.3007,-6.365 1.0663,-7.355"/>
   <rect id="nerv_x0020_I" fill="#7F7F7F" stroke="#4C4C4C" stroke-width="0.0762" x="204.056" y="25.3503" width="0.53016" height="79.524"/>
   <g>
    <path id="_56554344" fill="#1F1A17" fill-rule="nonzero" d="M189.437 166.452l-1.1246 0.1242c-0.0268,-0.2314 -0.0988,-0.4021 -0.2145,-0.5136 -0.1157,-0.1101 -0.2667,-0.1651 -0.4516,-0.1651 -0.2441,0 -0.4515,0.11 -0.6223,0.3316 -0.1693,0.2201 -0.2751,0.6787 -0.3203,1.3758 0.2907,-0.3415 0.6491,-0.5122 1.0795,-0.5122 0.4854,0 0.9003,0.1849 1.246,0.5546 0.3458,0.3683 0.5193,0.8452 0.5193,1.4294 0,0.6209 -0.182,1.1176 -0.5461,1.493 -0.3626,0.3739 -0.8311,0.5616 -1.4012,0.5616 -0.611,0 -1.1148,-0.2371 -1.5085,-0.7126 -0.3937,-0.4755 -0.5913,-1.2545 -0.5913,-2.3382 0,-1.1106 0.2046,-1.9107 0.6153,-2.4017 0.4106,-0.4911 0.944,-0.7366 1.6002,-0.7366 0.46,0 0.841,0.1298 1.143,0.3866 0.302,0.2582 0.4939,0.6322 0.5771,1.1232zm-2.6331 2.5344c0,0.3768 0.0861,0.6689 0.2596,0.8735 0.1736,0.206 0.3726,0.309 0.5955,0.309 0.2159,0 0.3937,-0.0846 0.5377,-0.2526 0.1439,-0.1679 0.2145,-0.4445 0.2145,-0.8269 0,-0.3937 -0.0762,-0.683 -0.2315,-0.8664 -0.1538,-0.1834 -0.3471,-0.2752 -0.5785,-0.2752 -0.223,0 -0.4121,0.0875 -0.5659,0.2625 -0.1552,0.175 -0.2314,0.4346 -0.2314,0.7761z"/>
    <path id="_565543441" fill="#1F1A17" fill-rule="nonzero" d="M192.173 164.942c0.5884,0 1.047,0.2102 1.3772,0.6293 0.3937,0.4953 0.5913,1.318 0.5913,2.4681 0,1.1458 -0.199,1.9699 -0.5955,2.4722 -0.3274,0.4135 -0.7846,0.6195 -1.373,0.6195 -0.5884,0 -1.064,-0.2258 -1.4252,-0.6801 -0.3613,-0.453 -0.5419,-1.2616 -0.5419,-2.4243 0,-1.1416 0.199,-1.9629 0.5955,-2.4639 0.3274,-0.4134 0.7846,-0.6208 1.3716,-0.6208zm0 0.9637c-0.1397,0 -0.2653,0.0452 -0.3754,0.1341 -0.11,0.0903 -0.1961,0.2512 -0.2568,0.4826 -0.079,0.3006 -0.1199,0.8058 -0.1199,1.517 0,0.7112 0.0367,1.1994 0.1072,1.4647 0.072,0.2667 0.1623,0.4431 0.271,0.532 0.11,0.0875 0.2342,0.1326 0.3739,0.1326 0.1411,0 0.2667,-0.0451 0.3768,-0.1354 0.11,-0.0889 0.1961,-0.2498 0.2568,-0.4812 0.079,-0.2978 0.1199,-0.8015 0.1199,-1.5127 0,-0.7112 -0.0367,-1.1995 -0.1072,-1.4662 -0.072,-0.2653 -0.1623,-0.4431 -0.2709,-0.5334 -0.1101,-0.0889 -0.2343,-0.1341 -0.3754,-0.1341z"/>
    <path id="_5655434412" fill="#1F1A17" fill-rule="nonzero" d="M194.915 166.183c0,-0.3655 0.1284,-0.6773 0.3866,-0.9341 0.2583,-0.2554 0.5687,-0.3839 0.9328,-0.3839 0.3627,0 0.6745,0.1285 0.9313,0.3867 0.2583,0.2568 0.3867,0.5687 0.3867,0.9313 0,0.3641 -0.1284,0.6745 -0.3867,0.9328 -0.2568,0.2582 -0.5686,0.3866 -0.9313,0.3866 -0.3641,0 -0.6745,-0.1284 -0.9328,-0.3866 -0.2582,-0.2583 -0.3866,-0.5687 -0.3866,-0.9328zm0.6858 0c0,0.1736 0.0621,0.3232 0.1863,0.4473 0.1241,0.1242 0.2723,0.1863 0.4473,0.1863 0.1736,0 0.3217,-0.0621 0.4459,-0.1863 0.1242,-0.1241 0.1863,-0.2737 0.1863,-0.4473 0,-0.1735 -0.0621,-0.3217 -0.1863,-0.4459 -0.1242,-0.1242 -0.2723,-0.1863 -0.4459,-0.1863 -0.175,0 -0.3232,0.0621 -0.4473,0.1863 -0.1242,0.1242 -0.1863,0.2724 -0.1863,0.4459z"/>
    <polygon id="_56554344123" fill="#1F1A17" fill-rule="nonzero" points="204.845,170.338 200.69,168.531 200.69,167.53 204.845,165.732 204.845,166.911 201.947,168.018 204.845,169.168 "/>
    <polygon id="_565543441234" fill="#1F1A17" fill-rule="nonzero" points="219.699,170.338 215.543,168.531 215.543,167.53 219.699,165.732 219.699,166.911 216.8,168.018 219.699,169.168 "/>
    <path id="_5655434412345" fill="#1F1A17" fill-rule="nonzero" d="M222.831 169.627l1.1247 -0.1242c0.0282,0.2286 0.1002,0.3979 0.2159,0.508 0.1157,0.1101 0.2681,0.1651 0.4586,0.1651 0.2399,0 0.4431,-0.1101 0.611,-0.3302 0.1693,-0.2201 0.2766,-0.6774 0.3232,-1.373 -0.2921,0.34 -0.6576,0.5094 -1.0951,0.5094 -0.4769,0 -0.889,-0.1849 -1.2347,-0.5518 -0.3457,-0.3683 -0.5193,-0.8466 -0.5193,-1.4365 0,-0.6152 0.1835,-1.1105 0.5489,-1.4873 0.3641,-0.3754 0.8298,-0.5644 1.3942,-0.5644 0.6153,0 1.119,0.2384 1.5141,0.714 0.3937,0.4755 0.5913,1.2573 0.5913,2.3453 0,1.1091 -0.206,1.9078 -0.6167,2.3989 -0.4106,0.4896 -0.9454,0.7351 -1.6044,0.7351 -0.4741,0 -0.8565,-0.1255 -1.1486,-0.3781 -0.2921,-0.2526 -0.4798,-0.6294 -0.5631,-1.1303zm2.6303 -2.5386c0,-0.3754 -0.086,-0.6661 -0.2582,-0.8721 -0.1721,-0.2074 -0.3725,-0.3105 -0.5983,-0.3105 -0.2145,0 -0.3937,0.0847 -0.5348,0.254 -0.1425,0.1694 -0.2131,0.4474 -0.2131,0.834 0,0.3909 0.0776,0.6788 0.2314,0.8608 0.1538,0.1834 0.3472,0.2752 0.5786,0.2752 0.2229,0 0.412,-0.0875 0.5644,-0.2639 0.1538,-0.1764 0.23,-0.436 0.23,-0.7775z"/>
    <path id="_56554344123456" fill="#1F1A17" fill-rule="nonzero" d="M229.479 164.942c0.5884,0 1.047,0.2102 1.3772,0.6293 0.3937,0.4953 0.5913,1.318 0.5913,2.4681 0,1.1458 -0.199,1.9699 -0.5955,2.4722 -0.3274,0.4135 -0.7846,0.6195 -1.373,0.6195 -0.5884,0 -1.064,-0.2258 -1.4252,-0.6801 -0.3613,-0.453 -0.5419,-1.2616 -0.5419,-2.4243 0,-1.1416 0.199,-1.9629 0.5955,-2.4639 0.3274,-0.4134 0.7846,-0.6208 1.3716,-0.6208zm0 0.9637c-0.1397,0 -0.2653,0.0452 -0.3754,0.1341 -0.11,0.0903 -0.1961,0.2512 -0.2568,0.4826 -0.079,0.3006 -0.1199,0.8058 -0.1199,1.517 0,0.7112 0.0367,1.1994 0.1072,1.4647 0.072,0.2667 0.1623,0.4431 0.271,0.532 0.11,0.0875 0.2342,0.1326 0.3739,0.1326 0.1411,0 0.2667,-0.0451 0.3768,-0.1354 0.11,-0.0889 0.1961,-0.2498 0.2568,-0.4812 0.079,-0.2978 0.1199,-0.8015 0.1199,-1.5127 0,-0.7112 -0.0367,-1.1995 -0.1072,-1.4662 -0.072,-0.2653 -0.1623,-0.4431 -0.2709,-0.5334 -0.1101,-0.0889 -0.2343,-0.1341 -0.3754,-0.1341z"/>
    <path id="_565543441234567" fill="#1F1A17" fill-rule="nonzero" d="M232.221 166.183c0,-0.3655 0.1284,-0.6773 0.3866,-0.9341 0.2583,-0.2554 0.5687,-0.3839 0.9328,-0.3839 0.3627,0 0.6745,0.1285 0.9313,0.3867 0.2583,0.2568 0.3867,0.5687 0.3867,0.9313 0,0.3641 -0.1284,0.6745 -0.3867,0.9328 -0.2568,0.2582 -0.5686,0.3866 -0.9313,0.3866 -0.3641,0 -0.6745,-0.1284 -0.9328,-0.3866 -0.2582,-0.2583 -0.3866,-0.5687 -0.3866,-0.9328zm0.6858 0c0,0.1736 0.0621,0.3232 0.1863,0.4473 0.1241,0.1242 0.2723,0.1863 0.4473,0.1863 0.1736,0 0.3217,-0.0621 0.4459,-0.1863 0.1242,-0.1241 0.1863,-0.2737 0.1863,-0.4473 0,-0.1735 -0.0621,-0.3217 -0.1863,-0.4459 -0.1242,-0.1242 -0.2723,-0.1863 -0.4459,-0.1863 -0.175,0 -0.3232,0.0621 -0.4473,0.1863 -0.1242,0.1242 -0.1863,0.2724 -0.1863,0.4459z"/>
    <path id="_5655434412345678" fill="#1F1A17" fill-rule="nonzero" d="M211.526 166.638l0.9962 0c-0.1566,0.3189 -0.2878,0.7282 -0.3951,1.2249 -0.1058,0.4981 -0.158,0.8452 -0.158,1.0442 0,0.2568 0.0479,0.5912 0.1439,1.0047 0.0974,0.4135 0.2173,0.786 0.3641,1.1162l-0.9751 0c-0.0141,-0.055 -0.0395,-0.1326 -0.0748,-0.2314 -0.0579,-0.1651 -0.1073,-0.3302 -0.1496,-0.4967 -0.3387,0.5517 -0.8227,0.8269 -1.4506,0.8269 -0.5927,0 -1.0584,-0.2399 -1.3998,-0.7211 -0.3401,-0.4812 -0.5095,-1.0428 -0.5095,-1.6849 0,-0.6053 0.1694,-1.1218 0.508,-1.5451 0.3387,-0.4248 0.81,-0.6379 1.414,-0.6379 0.5955,0 1.0767,0.2865 1.4421,0.8566 0.0494,-0.2018 0.1313,-0.453 0.2442,-0.7564zm-2.4187 2.207c0,0.405 0.0861,0.7338 0.2583,0.9864 0.1721,0.2526 0.3965,0.3782 0.6716,0.3782 0.2653,0 0.4812,-0.1115 0.6492,-0.3345 0.1693,-0.2243 0.2525,-0.5673 0.2525,-1.0301 0,-0.4544 -0.0889,-0.7987 -0.2681,-1.0329 -0.1792,-0.2343 -0.3965,-0.3514 -0.6491,-0.3514 -0.2653,0 -0.484,0.1214 -0.6561,0.3627 -0.1722,0.2427 -0.2583,0.5842 -0.2583,1.0216z"/>
    <polygon id="nerv_x0020_I_17" fill="none" stroke="#1F1A17" stroke-width="1.0583" points="204.287,123.337 204.287,156.663 "/>
    <path id="_57601280" fill="#C2C1C1" stroke="#1F1A17" stroke-width="1.0583" d="M204.387 151.888l0 -21c3.6843,0 7.3094,0.9716 10.4987,2.8126l-10.4987 18.1874z"/>
    <path id="_24011848" fill="none" stroke="#1F1A17" stroke-width="1.0583" d="M204.387 151.888l10.4987 -18.1875c3.1894,1.8408 5.848,4.4969 7.6887,7.6862l-18.1874 10.5013z"/>
    <path id="_24011728" fill="none" stroke="#1F1A17" stroke-width="1.0583" d="M204.387 151.888l18.1875 -10.5013c1.8409,3.1894 2.8125,6.817 2.8125,10.5013l-21 0z"/>
    <polygon id="nerv_x0020_I_18" fill="none" stroke="#1F1A17" stroke-width="1.0583" points="197.784,151.888 231.11,151.888 "/>
    <polygon id="_58021928" fill="#1F1A17" fill-rule="nonzero" points="200.988,148.622 194.928,148.622 194.928,146.791 199.062,145.692 194.928,144.605 194.928,142.769 200.988,142.769 200.988,143.905 196.217,143.905 200.988,145.109 200.988,146.287 196.217,147.486 200.988,147.486 "/>
    <path id="_580219281" fill="#1F1A17" fill-rule="nonzero" d="M196.003 141.561l-1.0752 0 0 -1.1613 1.0752 0 0 1.1613zm4.9855 0l-4.39 0 0 -1.1613 4.39 0 0 1.1613z"/>
    <path id="_5802192812" fill="#1F1A17" fill-rule="nonzero" d="M200.988 135.183l0 1.0781 -0.6449 0c0.2512,0.1792 0.4375,0.3909 0.5602,0.635 0.1228,0.2441 0.1835,0.4896 0.1835,0.738 0,0.5052 -0.2032,0.937 -0.6096,1.2968 -0.4064,0.3584 -0.9737,0.5391 -1.7004,0.5391 -0.7451,0 -1.3109,-0.175 -1.6976,-0.525 -0.3866,-0.3499 -0.5814,-0.793 -0.5814,-1.3278 0,-0.4897 0.2046,-0.9144 0.6125,-1.2729l-2.183 0 0 -1.1613 6.0607 0zm-2.2902 3.1002c0.4684,0 0.8071,-0.0649 1.0174,-0.1947 0.3034,-0.1863 0.4544,-0.4488 0.4544,-0.7846 0,-0.2681 -0.1143,-0.4953 -0.3415,-0.683 -0.2272,-0.1862 -0.5673,-0.2808 -1.0189,-0.2808 -0.5037,0 -0.8678,0.0917 -1.0893,0.2724 -0.2216,0.182 -0.3331,0.4148 -0.3331,0.6999 0,0.2751 0.1101,0.5051 0.3288,0.6914 0.2187,0.1863 0.5461,0.2794 0.9822,0.2794z"/>
    <path id="_58021928123" fill="#1F1A17" fill-rule="nonzero" d="M200.988 132.925l0 1.1614 -4.39 0 0 -1.0781 0.6237 0c-0.2949,-0.1849 -0.4896,-0.3514 -0.5828,-0.4981 -0.0931,-0.1482 -0.1411,-0.3147 -0.1411,-0.5024 0,-0.2653 0.0734,-0.5193 0.2202,-0.7648l1.0117 0.3598c-0.1256,0.1948 -0.1891,0.3768 -0.1891,0.5447 0,0.1637 0.0438,0.3006 0.1341,0.4135 0.0889,0.1143 0.2512,0.2018 0.4854,0.2667 0.2343,0.0649 0.7253,0.0973 1.4718,0.0973l1.3561 0z"/>
    <path id="_580219281234" fill="#1F1A17" fill-rule="nonzero" d="M196.003 130.742l-1.0752 0 0 -1.1613 1.0752 0 0 1.1613zm4.9855 0l-4.39 0 0 -1.1613 4.39 0 0 1.1613z"/>
    <path id="_5802192812345" fill="#1F1A17" fill-rule="nonzero" d="M200.988 128.439l-6.0607 0 0 -1.1614 2.183 0c-0.4079,-0.3584 -0.6125,-0.7817 -0.6125,-1.2728 0,-0.5348 0.1948,-0.9765 0.5814,-1.3278 0.3867,-0.35 0.9426,-0.525 1.6679,-0.525 0.7493,0 1.3279,0.1792 1.7329,0.5362 0.405,0.3571 0.6068,0.7903 0.6068,1.2997 0,0.2512 -0.0621,0.4981 -0.1877,0.7422 -0.1256,0.2442 -0.3104,0.4544 -0.556,0.6308l0.6449 0 0 1.0781zm-2.2902 -1.1529c0.4543,0 0.7902,-0.072 1.0089,-0.2145 0.309,-0.2018 0.4629,-0.4685 0.4629,-0.8029 0,-0.2554 -0.1101,-0.4741 -0.3288,-0.6548 -0.2188,-0.1806 -0.5645,-0.2709 -1.0358,-0.2709 -0.5009,0 -0.8636,0.0917 -1.0851,0.2738 -0.2216,0.1806 -0.3331,0.4134 -0.3331,0.6985 0,0.278 0.1087,0.5094 0.3246,0.6942 0.2173,0.1849 0.5447,0.2766 0.9864,0.2766z"/>
   </g>
   <g>
    <path id="_57751376" fill="black" fill-opacity="0.101961" d="M211.019 59c-9.3872,0 -17,7.6128 -17,17 0,9.3872 7.6128,17 17,17 9.3872,0 17,-7.6128 17,-17 0,-9.3872 -7.6128,-17 -17,-17z"/>
    <path id="_577513761" fill="none" stroke="#1F1A17" stroke-width="0.0762" d="M211.019 59c-9.3872,0 -17,7.6128 -17,17 0,9.3872 7.6128,17 17,17 9.3872,0 17,-7.6128 17,-17 0,-9.3872 -7.6128,-17 -17,-17z"/>
   </g>
  </g>
  <g id="VenSec_Obtuse" onclick="parent.replacechar('VenSec_Obtuse')" onmousemove="parent.showtooltip('VenSec_Obtuse', 'Secondary veins obtuse')" onmouseout="parent.hidetooltip('VenSec_Obtuse')" cursor="pointer" >
   <path id="pas_x0020_visible_19" fill="#B9CC76" stroke="#4C4C4C" stroke-width="0.0762" stroke-linejoin="bevel" d="M143.719 110.103l-0.3594 -4.4922c-4.2823,-2.8751 -9.7032,-3.8933 -12.9073,-8.7152 -3.2048,-4.7917 -6.4391,-13.2069 -6.499,-20.3648 -0.0297,-7.1876 1.5876,-15.0339 4.6719,-23.659 3.1745,-8.685 8.2936,-19.2012 15.7206,-28.695 7.6667,9.0146 10.6337,19.1418 14.2874,27.9466 3.414,8.3855 5.1812,16.6809 4.9714,25.3361 -0.2095,7.487 -3.2944,15.034 -6.6184,19.5262 -3.3245,4.6416 -7.6969,6.1094 -11.71,8.685l-0.4792 4.4323 -1.078 0z"/>
   <path id="nervure_20" fill="none" stroke="#4C4C4C" stroke-width="0.0762" d="M144.055 101.176c-5.1116,-1.8481 -8.5263,-3.7986 -13.6263,-7.0784"/>
   <path id="nervure_21" fill="none" stroke="#4C4C4C" stroke-width="0.0762" d="M144.055 96.7555c-3.8578,-1.0865 -12.4797,-6.478 -14.1995,-7.7684"/>
   <path id="nervure_22" fill="none" stroke="#4C4C4C" stroke-width="0.0762" d="M144.055 91.1326c-4.3914,-1.3546 -12.9905,-7.1344 -15.7497,-9.5623"/>
   <path id="nervure_23" fill="none" stroke="#4C4C4C" stroke-width="0.0762" d="M144.056 81.58c-4.2855,-2.8167 -12.5042,-7.194 -15.9461,-9.4984"/>
   <path id="nervure_24" fill="none" stroke="#4C4C4C" stroke-width="0.0762" d="M144.056 70.0214c-7.9609,-3.6112 -8.7078,-5.0419 -13.7421,-7.8504"/>
   <path id="nervure_25" fill="none" stroke="#4C4C4C" stroke-width="0.0762" d="M144.056 59.5438c-2.8563,-1.8385 -5.3738,-3.2355 -10.4399,-7.2139"/>
   <path id="nervure_26" fill="none" stroke="#4C4C4C" stroke-width="0.0762" d="M144.056 49.1136c-3.2622,-1.3479 -4.5277,-2.4372 -7.7583,-4.4549"/>
   <path id="nervure_27" fill="none" stroke="#4C4C4C" stroke-width="0.0762" d="M144.043 40.8427c-3.4427,-1.6263 -3.2802,-2.3317 -5.0899,-3.0174"/>
   <path id="nervure_28" fill="none" stroke="#4C4C4C" stroke-width="0.0762" d="M144.056 35.5925c-1.9667,-0.9934 -3.2986,-1.9938 -3.5841,-2.2297"/>
   <path id="nervure_29" fill="none" stroke="#4C4C4C" stroke-width="0.0762" d="M144.67 100.089c4.039,-1.121 5.6934,-2.7851 11.4138,-6.3224"/>
   <path id="nervure_30" fill="none" stroke="#4C4C4C" stroke-width="0.0762" d="M144.586 95.773c7.418,-3.3317 7.8065,-4.3952 14.0845,-8.5381"/>
   <path id="nervure_31" fill="none" stroke="#4C4C4C" stroke-width="0.0762" d="M144.67 89.4455c6.8665,-4.2531 10.0629,-5.8561 15.522,-9.6789"/>
   <path id="nervure_32" fill="none" stroke="#4C4C4C" stroke-width="0.0762" d="M144.251 80.0837c7.889,-4.2526 10.6789,-5.5836 15.8262,-10.5935"/>
   <path id="nervure_33" fill="none" stroke="#4C4C4C" stroke-width="0.0762" d="M144.586 70.5989c9.1836,-5.0885 9.0551,-5.4225 13.5184,-9.0159"/>
   <path id="nervure_34" fill="none" stroke="#4C4C4C" stroke-width="0.0762" d="M144.575 59.706c6.1437,-3.6707 7.5658,-5.0312 11.0382,-7.7973"/>
   <path id="nervure_35" fill="none" stroke="#4C4C4C" stroke-width="0.0762" d="M144.602 49.1395c3.4037,-2.3118 4.4794,-3.2126 8.2886,-5.7551"/>
   <path id="nervure_36" fill="none" stroke="#4C4C4C" stroke-width="0.0762" d="M144.608 40.7455c3.252,-2.125 3.696,-2.8523 5.7127,-4.0754"/>
   <path id="nervure_37" fill="none" stroke="#4C4C4C" stroke-width="0.0762" d="M144.586 33.9267c1.7009,-1.0735 2.9032,-1.6153 3.4018,-2.1471"/>
   <rect id="nerv_x0020_I_38" fill="#7F7F7F" stroke="#4C4C4C" stroke-width="0.0762" x="144.056" y="25.3503" width="0.53016" height="79.524"/>
   <g id="_24057344">
    <path id="_56645296" fill="#1F1A17" fill-rule="nonzero" d="M125.461 169.422l1.1233 -0.1354c0.0367,0.2864 0.1326,0.5051 0.2907,0.6561 0.1566,0.1524 0.3471,0.2286 0.57,0.2286 0.2399,0 0.4417,-0.0917 0.6054,-0.2737 0.1637,-0.1821 0.2455,-0.4262 0.2455,-0.7352 0,-0.2921 -0.0776,-0.5235 -0.2356,-0.6943 -0.1566,-0.1721 -0.3486,-0.2568 -0.5743,-0.2568 -0.1482,0 -0.326,0.0282 -0.5334,0.0861l0.1284 -0.9455c0.3147,0.0071 0.5545,-0.0607 0.7196,-0.2046 0.1651,-0.1453 0.2484,-0.3372 0.2484,-0.5771 0,-0.2047 -0.0607,-0.3669 -0.182,-0.4883 -0.1214,-0.1213 -0.2837,-0.182 -0.484,-0.182 -0.199,0 -0.3683,0.0691 -0.508,0.2074 -0.1412,0.1369 -0.2272,0.3387 -0.2569,0.6026l-1.071 -0.1807c0.0748,-0.3669 0.1863,-0.6604 0.3372,-0.8791 0.1496,-0.2187 0.3599,-0.3909 0.628,-0.5165 0.2695,-0.1255 0.5701,-0.189 0.9031,-0.189 0.5715,0 1.0287,0.182 1.373,0.5461 0.2837,0.2977 0.4262,0.6335 0.4262,1.0089 0,0.532 -0.2907,0.9567 -0.8721,1.2728 0.3471,0.0748 0.6237,0.2413 0.8326,0.501 0.2074,0.2582 0.3118,0.5715 0.3118,0.9384 0,0.532 -0.1947,0.9849 -0.5828,1.3603 -0.388,0.3739 -0.872,0.5616 -1.4506,0.5616 -0.5489,0 -1.0033,-0.158 -1.3645,-0.4727 -0.3613,-0.3161 -0.5701,-0.7281 -0.628,-1.239z"/>
    <path id="_566452961" fill="#1F1A17" fill-rule="nonzero" d="M132.173 164.944c0.5884,0 1.047,0.2102 1.3772,0.6293 0.3937,0.4953 0.5913,1.318 0.5913,2.4681 0,1.1458 -0.199,1.9699 -0.5955,2.4722 -0.3274,0.4135 -0.7846,0.6195 -1.373,0.6195 -0.5884,0 -1.064,-0.2258 -1.4252,-0.6801 -0.3613,-0.453 -0.5419,-1.2616 -0.5419,-2.4243 0,-1.1416 0.199,-1.9629 0.5955,-2.4639 0.3274,-0.4134 0.7846,-0.6208 1.3716,-0.6208zm0 0.9637c-0.1397,0 -0.2653,0.0452 -0.3754,0.1341 -0.11,0.0903 -0.1961,0.2512 -0.2568,0.4826 -0.079,0.3006 -0.1199,0.8058 -0.1199,1.517 0,0.7112 0.0367,1.1994 0.1072,1.4647 0.072,0.2667 0.1623,0.4431 0.271,0.532 0.11,0.0875 0.2342,0.1326 0.3739,0.1326 0.1411,0 0.2667,-0.0451 0.3768,-0.1354 0.11,-0.0889 0.1961,-0.2498 0.2568,-0.4812 0.079,-0.2978 0.1199,-0.8015 0.1199,-1.5127 0,-0.7112 -0.0367,-1.1995 -0.1072,-1.4662 -0.072,-0.2653 -0.1623,-0.4431 -0.2709,-0.5334 -0.1101,-0.0889 -0.2343,-0.1341 -0.3754,-0.1341z"/>
    <path id="_5664529612" fill="#1F1A17" fill-rule="nonzero" d="M134.915 166.185c0,-0.3655 0.1284,-0.6773 0.3866,-0.9341 0.2583,-0.2554 0.5687,-0.3839 0.9328,-0.3839 0.3627,0 0.6745,0.1285 0.9313,0.3867 0.2583,0.2568 0.3867,0.5687 0.3867,0.9313 0,0.3641 -0.1284,0.6745 -0.3867,0.9328 -0.2568,0.2582 -0.5686,0.3866 -0.9313,0.3866 -0.3641,0 -0.6745,-0.1284 -0.9328,-0.3866 -0.2582,-0.2583 -0.3866,-0.5687 -0.3866,-0.9328zm0.6858 0c0,0.1736 0.0621,0.3232 0.1863,0.4473 0.1241,0.1242 0.2723,0.1863 0.4473,0.1863 0.1736,0 0.3217,-0.0621 0.4459,-0.1863 0.1242,-0.1241 0.1863,-0.2737 0.1863,-0.4473 0,-0.1735 -0.0621,-0.3217 -0.1863,-0.4459 -0.1242,-0.1242 -0.2723,-0.1863 -0.4459,-0.1863 -0.175,0 -0.3232,0.0621 -0.4473,0.1863 -0.1242,0.1242 -0.1863,0.2724 -0.1863,0.4459z"/>
    <polygon id="_56645296123" fill="#1F1A17" fill-rule="nonzero" points="144.845,170.34 140.69,168.533 140.69,167.532 144.845,165.735 144.845,166.913 141.947,168.021 144.845,169.171 "/>
    <polygon id="_566452961234" fill="#1F1A17" fill-rule="nonzero" points="159.699,170.34 155.543,168.533 155.543,167.532 159.699,165.735 159.699,166.913 156.8,168.021 159.699,169.171 "/>
    <path id="_5664529612345" fill="#1F1A17" fill-rule="nonzero" d="M166.743 166.454l-1.1246 0.1242c-0.0268,-0.2314 -0.0988,-0.4021 -0.2145,-0.5136 -0.1157,-0.1101 -0.2667,-0.1651 -0.4516,-0.1651 -0.2441,0 -0.4515,0.11 -0.6223,0.3316 -0.1693,0.2201 -0.2751,0.6787 -0.3203,1.3758 0.2907,-0.3415 0.6491,-0.5122 1.0795,-0.5122 0.4854,0 0.9003,0.1849 1.246,0.5546 0.3458,0.3683 0.5193,0.8452 0.5193,1.4294 0,0.6209 -0.182,1.1176 -0.5461,1.493 -0.3626,0.3739 -0.8311,0.5616 -1.4012,0.5616 -0.611,0 -1.1148,-0.2371 -1.5085,-0.7126 -0.3937,-0.4755 -0.5913,-1.2545 -0.5913,-2.3382 0,-1.1106 0.2046,-1.9107 0.6153,-2.4017 0.4106,-0.4911 0.944,-0.7366 1.6002,-0.7366 0.46,0 0.841,0.1298 1.143,0.3866 0.302,0.2582 0.4939,0.6322 0.5771,1.1232zm-2.6331 2.5344c0,0.3768 0.0861,0.6689 0.2596,0.8735 0.1736,0.206 0.3726,0.309 0.5955,0.309 0.2159,0 0.3937,-0.0846 0.5377,-0.2526 0.1439,-0.1679 0.2145,-0.4445 0.2145,-0.8269 0,-0.3937 -0.0762,-0.683 -0.2315,-0.8664 -0.1538,-0.1834 -0.3471,-0.2752 -0.5785,-0.2752 -0.223,0 -0.4121,0.0875 -0.5659,0.2625 -0.1552,0.175 -0.2314,0.4346 -0.2314,0.7761z"/>
    <path id="_56645296123456" fill="#1F1A17" fill-rule="nonzero" d="M169.479 164.944c0.5884,0 1.047,0.2102 1.3772,0.6293 0.3937,0.4953 0.5913,1.318 0.5913,2.4681 0,1.1458 -0.199,1.9699 -0.5955,2.4722 -0.3274,0.4135 -0.7846,0.6195 -1.373,0.6195 -0.5884,0 -1.064,-0.2258 -1.4252,-0.6801 -0.3613,-0.453 -0.5419,-1.2616 -0.5419,-2.4243 0,-1.1416 0.199,-1.9629 0.5955,-2.4639 0.3274,-0.4134 0.7846,-0.6208 1.3716,-0.6208zm0 0.9637c-0.1397,0 -0.2653,0.0452 -0.3754,0.1341 -0.11,0.0903 -0.1961,0.2512 -0.2568,0.4826 -0.079,0.3006 -0.1199,0.8058 -0.1199,1.517 0,0.7112 0.0367,1.1994 0.1072,1.4647 0.072,0.2667 0.1623,0.4431 0.271,0.532 0.11,0.0875 0.2342,0.1326 0.3739,0.1326 0.1411,0 0.2667,-0.0451 0.3768,-0.1354 0.11,-0.0889 0.1961,-0.2498 0.2568,-0.4812 0.079,-0.2978 0.1199,-0.8015 0.1199,-1.5127 0,-0.7112 -0.0367,-1.1995 -0.1072,-1.4662 -0.072,-0.2653 -0.1623,-0.4431 -0.2709,-0.5334 -0.1101,-0.0889 -0.2343,-0.1341 -0.3754,-0.1341z"/>
    <path id="_566452961234567" fill="#1F1A17" fill-rule="nonzero" d="M172.221 166.185c0,-0.3655 0.1284,-0.6773 0.3866,-0.9341 0.2583,-0.2554 0.5687,-0.3839 0.9328,-0.3839 0.3627,0 0.6745,0.1285 0.9313,0.3867 0.2583,0.2568 0.3867,0.5687 0.3867,0.9313 0,0.3641 -0.1284,0.6745 -0.3867,0.9328 -0.2568,0.2582 -0.5686,0.3866 -0.9313,0.3866 -0.3641,0 -0.6745,-0.1284 -0.9328,-0.3866 -0.2582,-0.2583 -0.3866,-0.5687 -0.3866,-0.9328zm0.6858 0c0,0.1736 0.0621,0.3232 0.1863,0.4473 0.1241,0.1242 0.2723,0.1863 0.4473,0.1863 0.1736,0 0.3217,-0.0621 0.4459,-0.1863 0.1242,-0.1241 0.1863,-0.2737 0.1863,-0.4473 0,-0.1735 -0.0621,-0.3217 -0.1863,-0.4459 -0.1242,-0.1242 -0.2723,-0.1863 -0.4459,-0.1863 -0.175,0 -0.3232,0.0621 -0.4473,0.1863 -0.1242,0.1242 -0.1863,0.2724 -0.1863,0.4459z"/>
    <path id="_5664529612345678" fill="#1F1A17" fill-rule="nonzero" d="M151.525 166.64l0.9962 0c-0.1566,0.3189 -0.2878,0.7282 -0.3951,1.2249 -0.1058,0.4981 -0.158,0.8452 -0.158,1.0442 0,0.2568 0.0479,0.5912 0.1439,1.0047 0.0974,0.4135 0.2173,0.786 0.3641,1.1162l-0.9751 0c-0.0141,-0.055 -0.0395,-0.1326 -0.0748,-0.2314 -0.0579,-0.1651 -0.1073,-0.3302 -0.1496,-0.4967 -0.3387,0.5517 -0.8227,0.8269 -1.4506,0.8269 -0.5927,0 -1.0584,-0.2399 -1.3998,-0.7211 -0.3401,-0.4812 -0.5095,-1.0428 -0.5095,-1.6849 0,-0.6053 0.1694,-1.1218 0.508,-1.5451 0.3387,-0.4248 0.81,-0.6379 1.414,-0.6379 0.5955,0 1.0767,0.2865 1.4421,0.8566 0.0494,-0.2018 0.1313,-0.453 0.2442,-0.7564zm-2.4187 2.207c0,0.405 0.0861,0.7338 0.2583,0.9864 0.1721,0.2526 0.3965,0.3782 0.6716,0.3782 0.2653,0 0.4812,-0.1115 0.6492,-0.3345 0.1693,-0.2243 0.2525,-0.5673 0.2525,-1.0301 0,-0.4544 -0.0889,-0.7987 -0.2681,-1.0329 -0.1792,-0.2343 -0.3965,-0.3514 -0.6491,-0.3514 -0.2653,0 -0.484,0.1214 -0.6561,0.3627 -0.1722,0.2427 -0.2583,0.5842 -0.2583,1.0216z"/>
    <polygon id="nerv_x0020_I_39" fill="none" stroke="#1F1A17" stroke-width="1.0583" points="144.335,123.337 144.335,156.663 "/>
    <path id="_68813376" fill="none" stroke="#1F1A17" stroke-width="1.0583" d="M144.435 151.888l0 -21c3.6843,0 7.3094,0.9716 10.4987,2.8126l-10.4987 18.1874z"/>
    <path id="_68653888" fill="#C2C1C1" stroke="#1F1A17" stroke-width="1.0583" d="M144.435 151.888l10.4987 -18.1875c3.1894,1.8408 5.848,4.4969 7.6887,7.6862l-18.1874 10.5013z"/>
    <path id="_57717104" fill="none" stroke="#1F1A17" stroke-width="1.0583" d="M144.435 151.888l18.1875 -10.5013c1.8409,3.1894 2.8125,6.817 2.8125,10.5013l-21 0z"/>
    <polygon id="nerv_x0020_I_40" fill="none" stroke="#1F1A17" stroke-width="1.0583" points="137.832,151.888 171.159,151.888 "/>
    <polygon id="_57195016" fill="#1F1A17" fill-rule="nonzero" points="141.036,148.622 134.976,148.622 134.976,146.791 139.11,145.692 134.976,144.605 134.976,142.769 141.036,142.769 141.036,143.905 136.265,143.905 141.036,145.109 141.036,146.287 136.265,147.486 141.036,147.486 "/>
    <path id="_571950161" fill="#1F1A17" fill-rule="nonzero" d="M136.051 141.561l-1.0752 0 0 -1.1613 1.0752 0 0 1.1613zm4.9855 0l-4.39 0 0 -1.1613 4.39 0 0 1.1613z"/>
    <path id="_5719501612" fill="#1F1A17" fill-rule="nonzero" d="M141.036 135.183l0 1.0781 -0.6449 0c0.2512,0.1792 0.4375,0.3909 0.5602,0.635 0.1228,0.2441 0.1835,0.4896 0.1835,0.738 0,0.5052 -0.2032,0.937 -0.6096,1.2968 -0.4064,0.3584 -0.9737,0.5391 -1.7004,0.5391 -0.7451,0 -1.3109,-0.175 -1.6976,-0.525 -0.3866,-0.3499 -0.5814,-0.793 -0.5814,-1.3278 0,-0.4897 0.2046,-0.9144 0.6125,-1.2729l-2.183 0 0 -1.1613 6.0607 0zm-2.2902 3.1002c0.4684,0 0.8071,-0.0649 1.0174,-0.1947 0.3034,-0.1863 0.4544,-0.4488 0.4544,-0.7846 0,-0.2681 -0.1143,-0.4953 -0.3415,-0.683 -0.2272,-0.1862 -0.5673,-0.2808 -1.0189,-0.2808 -0.5037,0 -0.8678,0.0917 -1.0893,0.2724 -0.2216,0.182 -0.3331,0.4148 -0.3331,0.6999 0,0.2751 0.1101,0.5051 0.3288,0.6914 0.2187,0.1863 0.5461,0.2794 0.9822,0.2794z"/>
    <path id="_57195016123" fill="#1F1A17" fill-rule="nonzero" d="M141.036 132.925l0 1.1614 -4.39 0 0 -1.0781 0.6237 0c-0.2949,-0.1849 -0.4896,-0.3514 -0.5828,-0.4981 -0.0931,-0.1482 -0.1411,-0.3147 -0.1411,-0.5024 0,-0.2653 0.0734,-0.5193 0.2202,-0.7648l1.0117 0.3598c-0.1256,0.1948 -0.1891,0.3768 -0.1891,0.5447 0,0.1637 0.0438,0.3006 0.1341,0.4135 0.0889,0.1143 0.2512,0.2018 0.4854,0.2667 0.2343,0.0649 0.7253,0.0973 1.4718,0.0973l1.3561 0z"/>
    <path id="_571950161234" fill="#1F1A17" fill-rule="nonzero" d="M136.051 130.742l-1.0752 0 0 -1.1613 1.0752 0 0 1.1613zm4.9855 0l-4.39 0 0 -1.1613 4.39 0 0 1.1613z"/>
    <path id="_5719501612345" fill="#1F1A17" fill-rule="nonzero" d="M141.036 128.439l-6.0607 0 0 -1.1614 2.183 0c-0.4079,-0.3584 -0.6125,-0.7817 -0.6125,-1.2728 0,-0.5348 0.1948,-0.9765 0.5814,-1.3278 0.3867,-0.35 0.9426,-0.525 1.6679,-0.525 0.7493,0 1.3279,0.1792 1.7329,0.5362 0.405,0.3571 0.6068,0.7903 0.6068,1.2997 0,0.2512 -0.0621,0.4981 -0.1877,0.7422 -0.1256,0.2442 -0.3104,0.4544 -0.556,0.6308l0.6449 0 0 1.0781zm-2.2902 -1.1529c0.4543,0 0.7902,-0.072 1.0089,-0.2145 0.309,-0.2018 0.4629,-0.4685 0.4629,-0.8029 0,-0.2554 -0.1101,-0.4741 -0.3288,-0.6548 -0.2188,-0.1806 -0.5645,-0.2709 -1.0358,-0.2709 -0.5009,0 -0.8636,0.0917 -1.0851,0.2738 -0.2216,0.1806 -0.3331,0.4134 -0.3331,0.6985 0,0.278 0.1087,0.5094 0.3246,0.6942 0.2173,0.1849 0.5447,0.2766 0.9864,0.2766z"/>
   </g>
   <g>
    <path fill="black" fill-opacity="0.101961" d="M151.951 59c-9.3872,0 -17,7.6128 -17,17 0,9.3872 7.6128,17 17,17 9.3872,0 17,-7.6128 17,-17 0,-9.3872 -7.6128,-17 -17,-17z"/>
    <path id="1" fill="none" stroke="#1F1A17" stroke-width="0.0762" d="M151.951 59c-9.3872,0 -17,7.6128 -17,17 0,9.3872 7.6128,17 17,17 9.3872,0 17,-7.6128 17,-17 0,-9.3872 -7.6128,-17 -17,-17z"/>
   </g>
  </g>
  <g id="VenSec_Perp" onclick="parent.replacechar('VenSec_Perp')" onmousemove="parent.showtooltip('VenSec_Perp', 'Secondary veins perpendicular to midrib')" onmouseout="parent.hidetooltip('VenSec_Perp')" cursor="pointer" >
   <path fill="#B9CC76" stroke="#4C4C4C" stroke-width="0.0762" stroke-linejoin="bevel" d="M83.6793 110.103l-0.3577 -4.4705c-4.2616,-2.8613 -9.6563,-3.8745 -12.845,-8.6731 -3.1893,-4.7687 -6.408,-13.1433 -6.4677,-20.2667 -0.0296,-7.1529 1.5799,-14.9614 4.6495,-23.5449 3.1591,-8.6431 8.1253,-19.5226 15.5166,-28.9707 7.6297,8.9712 10.7105,19.4636 14.3465,28.2259 3.3976,8.345 5.1563,16.6004 4.9475,25.2139 -0.2084,7.4509 -3.2785,14.9615 -6.5864,19.4321 -3.3085,4.6192 -7.6599,6.0799 -11.6536,8.6431l-0.4768 4.4109 -1.0729 0z"/>
   <path id="nervure_41" fill="none" stroke="#4C4C4C" stroke-width="0.0762" d="M84.4011 96.7918c3.907,0.2078 4.8468,0.253 8.9993,-0.0817"/>
   <path id="nervure_42" fill="none" stroke="#4C4C4C" stroke-width="0.0762" d="M84.376 92.9805c6.2619,0.3338 7.3626,0.5093 11.4848,-0.1545"/>
   <path id="nervure_43" fill="none" stroke="#4C4C4C" stroke-width="0.0762" d="M84.4203 89.2955c8.4509,0.0003 11.5788,-0.0369 14.1275,-0.6597"/>
   <path id="nervure_44" fill="none" stroke="#4C4C4C" stroke-width="0.0762" d="M84.4011 84.2473c5.5214,0.1429 11.6257,-0.2404 14.9733,-0.4731"/>
   <path id="nervure_45" fill="none" stroke="#4C4C4C" stroke-width="0.0762" d="M84.401 78.0624c7.2977,0.1353 10.2195,-0.0097 14.9165,-1.2258"/>
   <path id="nervure_46" fill="none" stroke="#4C4C4C" stroke-width="0.0762" d="M84.401 70.4664c9.4579,0.2088 10.8342,0.2411 14.8772,-1.1366"/>
   <path id="nervure_47" fill="none" stroke="#4C4C4C" stroke-width="0.0762" d="M84.4011 64.5236c5.5609,0.1966 9.3507,-0.3372 13.493,-0.6889"/>
   <path id="nervure_48" fill="none" stroke="#4C4C4C" stroke-width="0.0762" d="M84.401 57.9107c5.5942,0.066 7.5455,0.0213 12.0657,-0.9954"/>
   <path id="nervure_49" fill="none" stroke="#4C4C4C" stroke-width="0.0762" d="M84.4011 51.2888c3.2479,0.1203 5.9865,0.088 10.2883,-0.9107"/>
   <path id="nervure_50" fill="none" stroke="#4C4C4C" stroke-width="0.0762" d="M84.4011 44.2715c4.2852,0.1902 5.1233,-0.1218 7.8347,-0.8087"/>
   <path id="nervure_51" fill="none" stroke="#4C4C4C" stroke-width="0.0762" d="M84.4011 39.3613c2.6405,0.0886 4.1791,-0.0973 5.8227,-0.4878"/>
   <rect id="nerv_x0020_I_52" fill="#7F7F7F" stroke="#4C4C4C" stroke-width="0.0762" x="83.8735" y="25.5709" width="0.527603" height="79.1405"/>
   <path id="nervure_53" fill="none" stroke="#4C4C4C" stroke-width="0.0762" d="M83.8735 95.9947c-4.3355,0.2078 -5.5132,0.0405 -10.1211,-0.2942"/>
   <path id="nervure_54" fill="none" stroke="#4C4C4C" stroke-width="0.0762" d="M83.8735 91.9291c-6.9488,0.3338 -8.7345,0.2309 -13.3089,-0.4329"/>
   <path id="nervure_55" fill="none" stroke="#4C4C4C" stroke-width="0.0762" d="M83.8735 87.5861c-9.378,0.0004 -13.0027,0.0003 -15.831,-0.6224"/>
   <path id="nervure_56" fill="none" stroke="#4C4C4C" stroke-width="0.0762" d="M83.8735 83.1499c-6.1319,0.4772 -13.1287,-0.5754 -16.8062,-1.1803"/>
   <path id="nervure_57" fill="none" stroke="#4C4C4C" stroke-width="0.0762" d="M83.8735 76.4986c-8.0982,0.1353 -11.6456,0.3997 -16.8579,-0.8164"/>
   <path id="nervure_58" fill="none" stroke="#4C4C4C" stroke-width="0.0762" d="M83.8735 69.2961c-10.4953,0.2088 -12.1228,0.375 -16.8127,-0.7645"/>
   <path id="nervure_59" fill="none" stroke="#4C4C4C" stroke-width="0.0762" d="M83.8735 63.4843c-6.1709,0.1965 -10.5095,-0.3372 -15.1061,-0.6889"/>
   <path id="nervure_60" fill="none" stroke="#4C4C4C" stroke-width="0.0762" d="M83.8735 56.4365c-6.2078,0.066 -8.6195,0.0213 -13.6356,-0.9954"/>
   <path id="nervure_61" fill="none" stroke="#4C4C4C" stroke-width="0.0762" d="M83.8734 50.3012c-3.6041,0.1203 -7.4543,0.1063 -12.228,-0.8925"/>
   <path id="nervure_62" fill="none" stroke="#4C4C4C" stroke-width="0.0762" d="M83.8735 45.8724c-4.7553,0.1902 -6.0954,-0.1218 -9.1042,-0.8087"/>
   <path id="nervure_63" fill="none" stroke="#4C4C4C" stroke-width="0.0762" d="M83.8735 40.6123c-2.9302,0.0886 -4.7736,-0.0973 -6.5974,-0.4878"/>
   <g>
    <path fill="#1F1A17" fill-rule="nonzero" d="M69.8189 164.944c0.5884,0 1.047,0.2102 1.3772,0.6293 0.3937,0.4953 0.5913,1.318 0.5913,2.4681 0,1.1458 -0.199,1.9699 -0.5955,2.4722 -0.3274,0.4135 -0.7846,0.6195 -1.373,0.6195 -0.5884,0 -1.064,-0.2258 -1.4252,-0.6801 -0.3613,-0.453 -0.5419,-1.2616 -0.5419,-2.4243 0,-1.1416 0.199,-1.9629 0.5955,-2.4639 0.3274,-0.4134 0.7846,-0.6208 1.3716,-0.6208zm0 0.9637c-0.1397,0 -0.2653,0.0452 -0.3754,0.1341 -0.11,0.0903 -0.1961,0.2512 -0.2568,0.4826 -0.079,0.3006 -0.1199,0.8058 -0.1199,1.517 0,0.7112 0.0367,1.1994 0.1072,1.4647 0.072,0.2667 0.1623,0.4431 0.271,0.532 0.11,0.0875 0.2342,0.1326 0.3739,0.1326 0.1411,0 0.2667,-0.0451 0.3768,-0.1354 0.11,-0.0889 0.1961,-0.2498 0.2568,-0.4812 0.079,-0.2978 0.1199,-0.8015 0.1199,-1.5127 0,-0.7112 -0.0367,-1.1995 -0.1072,-1.4662 -0.072,-0.2653 -0.1623,-0.4431 -0.2709,-0.5334 -0.1101,-0.0889 -0.2343,-0.1341 -0.3754,-0.1341z"/>
    <path id="1" fill="#1F1A17" fill-rule="nonzero" d="M72.5607 166.185c0,-0.3655 0.1284,-0.6773 0.3866,-0.9341 0.2583,-0.2554 0.5687,-0.3839 0.9328,-0.3839 0.3627,0 0.6745,0.1285 0.9313,0.3867 0.2583,0.2568 0.3867,0.5687 0.3867,0.9313 0,0.3641 -0.1284,0.6745 -0.3867,0.9328 -0.2568,0.2582 -0.5686,0.3866 -0.9313,0.3866 -0.3641,0 -0.6745,-0.1284 -0.9328,-0.3866 -0.2582,-0.2583 -0.3866,-0.5687 -0.3866,-0.9328zm0.6858 0c0,0.1736 0.0621,0.3232 0.1863,0.4473 0.1241,0.1242 0.2723,0.1863 0.4473,0.1863 0.1736,0 0.3217,-0.0621 0.4459,-0.1863 0.1242,-0.1241 0.1863,-0.2737 0.1863,-0.4473 0,-0.1735 -0.0621,-0.3217 -0.1863,-0.4459 -0.1242,-0.1242 -0.2723,-0.1863 -0.4459,-0.1863 -0.175,0 -0.3232,0.0621 -0.4473,0.1863 -0.1242,0.1242 -0.1863,0.2724 -0.1863,0.4459z"/>
    <polygon id="12" fill="#1F1A17" fill-rule="nonzero" points="82.4907,170.34 78.335,168.533 78.335,167.532 82.4907,165.735 82.4907,166.913 79.5923,168.021 82.4907,169.171 "/>
    <polygon id="123" fill="#1F1A17" fill-rule="nonzero" points="97.3441,170.34 93.1884,168.533 93.1884,167.532 97.3441,165.735 97.3441,166.913 94.4457,168.021 97.3441,169.171 "/>
    <path id="1234" fill="#1F1A17" fill-rule="nonzero" d="M100.412 169.422l1.1233 -0.1354c0.0367,0.2864 0.1326,0.5051 0.2907,0.6561 0.1566,0.1524 0.3471,0.2286 0.57,0.2286 0.2399,0 0.4417,-0.0917 0.6054,-0.2737 0.1637,-0.1821 0.2455,-0.4262 0.2455,-0.7352 0,-0.2921 -0.0776,-0.5235 -0.2356,-0.6943 -0.1566,-0.1721 -0.3486,-0.2568 -0.5743,-0.2568 -0.1482,0 -0.326,0.0282 -0.5334,0.0861l0.1284 -0.9455c0.3147,0.0071 0.5545,-0.0607 0.7196,-0.2046 0.1651,-0.1453 0.2484,-0.3372 0.2484,-0.5771 0,-0.2047 -0.0607,-0.3669 -0.182,-0.4883 -0.1214,-0.1213 -0.2837,-0.182 -0.484,-0.182 -0.199,0 -0.3683,0.0691 -0.508,0.2074 -0.1412,0.1369 -0.2272,0.3387 -0.2569,0.6026l-1.071 -0.1807c0.0748,-0.3669 0.1863,-0.6604 0.3372,-0.8791 0.1496,-0.2187 0.3599,-0.3909 0.628,-0.5165 0.2695,-0.1255 0.5701,-0.189 0.9031,-0.189 0.5715,0 1.0287,0.182 1.373,0.5461 0.2837,0.2977 0.4262,0.6335 0.4262,1.0089 0,0.532 -0.2907,0.9567 -0.8721,1.2728 0.3471,0.0748 0.6237,0.2413 0.8326,0.501 0.2074,0.2582 0.3118,0.5715 0.3118,0.9384 0,0.532 -0.1947,0.9849 -0.5828,1.3603 -0.388,0.3739 -0.872,0.5616 -1.4506,0.5616 -0.5489,0 -1.0033,-0.158 -1.3645,-0.4727 -0.3613,-0.3161 -0.5701,-0.7281 -0.628,-1.239z"/>
    <path id="12345" fill="#1F1A17" fill-rule="nonzero" d="M107.125 164.944c0.5884,0 1.047,0.2102 1.3772,0.6293 0.3937,0.4953 0.5913,1.318 0.5913,2.4681 0,1.1458 -0.199,1.9699 -0.5955,2.4722 -0.3274,0.4135 -0.7846,0.6195 -1.373,0.6195 -0.5884,0 -1.064,-0.2258 -1.4252,-0.6801 -0.3613,-0.453 -0.5419,-1.2616 -0.5419,-2.4243 0,-1.1416 0.199,-1.9629 0.5955,-2.4639 0.3274,-0.4134 0.7846,-0.6208 1.3716,-0.6208zm0 0.9637c-0.1397,0 -0.2653,0.0452 -0.3754,0.1341 -0.11,0.0903 -0.1961,0.2512 -0.2568,0.4826 -0.079,0.3006 -0.1199,0.8058 -0.1199,1.517 0,0.7112 0.0367,1.1994 0.1072,1.4647 0.072,0.2667 0.1623,0.4431 0.271,0.532 0.11,0.0875 0.2342,0.1326 0.3739,0.1326 0.1411,0 0.2667,-0.0451 0.3768,-0.1354 0.11,-0.0889 0.1961,-0.2498 0.2568,-0.4812 0.079,-0.2978 0.1199,-0.8015 0.1199,-1.5127 0,-0.7112 -0.0367,-1.1995 -0.1072,-1.4662 -0.072,-0.2653 -0.1623,-0.4431 -0.2709,-0.5334 -0.1101,-0.0889 -0.2343,-0.1341 -0.3754,-0.1341z"/>
    <path id="123456" fill="#1F1A17" fill-rule="nonzero" d="M109.866 166.185c0,-0.3655 0.1284,-0.6773 0.3866,-0.9341 0.2583,-0.2554 0.5687,-0.3839 0.9328,-0.3839 0.3627,0 0.6745,0.1285 0.9313,0.3867 0.2583,0.2568 0.3867,0.5687 0.3867,0.9313 0,0.3641 -0.1284,0.6745 -0.3867,0.9328 -0.2568,0.2582 -0.5686,0.3866 -0.9313,0.3866 -0.3641,0 -0.6745,-0.1284 -0.9328,-0.3866 -0.2582,-0.2583 -0.3866,-0.5687 -0.3866,-0.9328zm0.6858 0c0,0.1736 0.0621,0.3232 0.1863,0.4473 0.1241,0.1242 0.2723,0.1863 0.4473,0.1863 0.1736,0 0.3217,-0.0621 0.4459,-0.1863 0.1242,-0.1241 0.1863,-0.2737 0.1863,-0.4473 0,-0.1735 -0.0621,-0.3217 -0.1863,-0.4459 -0.1242,-0.1242 -0.2723,-0.1863 -0.4459,-0.1863 -0.175,0 -0.3232,0.0621 -0.4473,0.1863 -0.1242,0.1242 -0.1863,0.2724 -0.1863,0.4459z"/>
    <path id="1234567" fill="#1F1A17" fill-rule="nonzero" d="M89.171 166.64l0.9962 0c-0.1566,0.3189 -0.2878,0.7282 -0.3951,1.2249 -0.1058,0.4981 -0.158,0.8452 -0.158,1.0442 0,0.2568 0.0479,0.5912 0.1439,1.0047 0.0974,0.4135 0.2173,0.786 0.3641,1.1162l-0.9751 0c-0.0141,-0.055 -0.0395,-0.1326 -0.0748,-0.2314 -0.0579,-0.1651 -0.1073,-0.3302 -0.1496,-0.4967 -0.3387,0.5517 -0.8227,0.8269 -1.4506,0.8269 -0.5927,0 -1.0584,-0.2399 -1.3998,-0.7211 -0.3401,-0.4812 -0.5095,-1.0428 -0.5095,-1.6849 0,-0.6053 0.1694,-1.1218 0.508,-1.5451 0.3387,-0.4248 0.81,-0.6379 1.414,-0.6379 0.5955,0 1.0767,0.2865 1.4421,0.8566 0.0494,-0.2018 0.1313,-0.453 0.2442,-0.7564zm-2.4187 2.207c0,0.405 0.0861,0.7338 0.2583,0.9864 0.1721,0.2526 0.3965,0.3782 0.6716,0.3782 0.2653,0 0.4812,-0.1115 0.6492,-0.3345 0.1693,-0.2243 0.2525,-0.5673 0.2525,-1.0301 0,-0.4544 -0.0889,-0.7987 -0.2681,-1.0329 -0.1792,-0.2343 -0.3965,-0.3514 -0.6491,-0.3514 -0.2653,0 -0.484,0.1214 -0.6561,0.3627 -0.1722,0.2427 -0.2583,0.5842 -0.2583,1.0216z"/>
    <polygon id="nerv_x0020_I_64" fill="none" stroke="#1F1A17" stroke-width="1.0583" points="84.2059,123.337 84.2059,156.663 "/>
    <path fill="none" stroke="#1F1A17" stroke-width="1.0583" d="M84.3059 151.888l0 -21c3.6843,0 7.3094,0.9716 10.4987,2.8126l-10.4987 18.1874z"/>
    <path fill="none" stroke="#1F1A17" stroke-width="1.0583" d="M84.3059 151.888l10.4987 -18.1875c3.1894,1.8408 5.848,4.4969 7.6887,7.6862l-18.1874 10.5013z"/>
    <path fill="#C2C1C1" stroke="#1F1A17" stroke-width="1.0583" d="M84.3058 151.888l18.1875 -10.5013c1.8409,3.1894 2.8125,6.817 2.8125,10.5013l-21 0z"/>
    <polygon id="nerv_x0020_I_65" fill="none" stroke="#1F1A17" stroke-width="1.0583" points="77.7025,151.888 111.029,151.888 "/>
    <polygon fill="#1F1A17" fill-rule="nonzero" points="80.9071,148.622 74.8464,148.622 74.8464,146.791 78.9809,145.692 74.8464,144.605 74.8464,142.769 80.9071,142.769 80.9071,143.905 76.1361,143.905 80.9071,145.109 80.9071,146.287 76.1361,147.486 80.9071,147.486 "/>
    <path id="1" fill="#1F1A17" fill-rule="nonzero" d="M75.9216 141.561l-1.0752 0 0 -1.1613 1.0752 0 0 1.1613zm4.9855 0l-4.39 0 0 -1.1613 4.39 0 0 1.1613z"/>
    <path id="12" fill="#1F1A17" fill-rule="nonzero" d="M80.9071 135.183l0 1.0781 -0.6449 0c0.2512,0.1792 0.4375,0.3909 0.5602,0.635 0.1228,0.2441 0.1835,0.4896 0.1835,0.738 0,0.5052 -0.2032,0.937 -0.6096,1.2968 -0.4064,0.3584 -0.9737,0.5391 -1.7004,0.5391 -0.7451,0 -1.3109,-0.175 -1.6976,-0.525 -0.3866,-0.3499 -0.5814,-0.793 -0.5814,-1.3278 0,-0.4897 0.2046,-0.9144 0.6125,-1.2729l-2.183 0 0 -1.1613 6.0607 0zm-2.2902 3.1002c0.4684,0 0.8071,-0.0649 1.0174,-0.1947 0.3034,-0.1863 0.4544,-0.4488 0.4544,-0.7846 0,-0.2681 -0.1143,-0.4953 -0.3415,-0.683 -0.2272,-0.1862 -0.5673,-0.2808 -1.0189,-0.2808 -0.5037,0 -0.8678,0.0917 -1.0893,0.2724 -0.2216,0.182 -0.3331,0.4148 -0.3331,0.6999 0,0.2751 0.1101,0.5051 0.3288,0.6914 0.2187,0.1863 0.5461,0.2794 0.9822,0.2794z"/>
    <path id="123" fill="#1F1A17" fill-rule="nonzero" d="M80.9071 132.925l0 1.1614 -4.39 0 0 -1.0781 0.6237 0c-0.2949,-0.1849 -0.4896,-0.3514 -0.5828,-0.4981 -0.0931,-0.1482 -0.1411,-0.3147 -0.1411,-0.5024 0,-0.2653 0.0734,-0.5193 0.2202,-0.7648l1.0117 0.3598c-0.1256,0.1948 -0.1891,0.3768 -0.1891,0.5447 0,0.1637 0.0438,0.3006 0.1341,0.4135 0.0889,0.1143 0.2512,0.2018 0.4854,0.2667 0.2343,0.0649 0.7253,0.0973 1.4718,0.0973l1.3561 0z"/>
    <path id="1234" fill="#1F1A17" fill-rule="nonzero" d="M75.9216 130.742l-1.0752 0 0 -1.1613 1.0752 0 0 1.1613zm4.9855 0l-4.39 0 0 -1.1613 4.39 0 0 1.1613z"/>
    <path id="12345" fill="#1F1A17" fill-rule="nonzero" d="M80.9071 128.439l-6.0607 0 0 -1.1614 2.183 0c-0.4079,-0.3584 -0.6125,-0.7817 -0.6125,-1.2728 0,-0.5348 0.1948,-0.9765 0.5814,-1.3278 0.3867,-0.35 0.9426,-0.525 1.6679,-0.525 0.7493,0 1.3279,0.1792 1.7329,0.5362 0.405,0.3571 0.6068,0.7903 0.6068,1.2997 0,0.2512 -0.0621,0.4981 -0.1877,0.7422 -0.1256,0.2442 -0.3104,0.4544 -0.556,0.6308l0.6449 0 0 1.0781zm-2.2902 -1.1529c0.4543,0 0.7902,-0.072 1.0089,-0.2145 0.309,-0.2018 0.4629,-0.4685 0.4629,-0.8029 0,-0.2554 -0.1101,-0.4741 -0.3288,-0.6548 -0.2188,-0.1806 -0.5645,-0.2709 -1.0358,-0.2709 -0.5009,0 -0.8636,0.0917 -1.0851,0.2738 -0.2216,0.1806 -0.3331,0.4134 -0.3331,0.6985 0,0.278 0.1087,0.5094 0.3246,0.6942 0.2173,0.1849 0.5447,0.2766 0.9864,0.2766z"/>
   </g>
   <g>
    <path fill="black" fill-opacity="0.101961" d="M92.1756 59c-9.3872,0 -17,7.6128 -17,17 0,9.3872 7.6128,17 17,17 9.3872,0 17,-7.6128 17,-17 0,-9.3872 -7.6128,-17 -17,-17z"/>
    <path id="1" fill="none" stroke="#1F1A17" stroke-width="0.0762" d="M92.1756 59c-9.3872,0 -17,7.6128 -17,17 0,9.3872 7.6128,17 17,17 9.3872,0 17,-7.6128 17,-17 0,-9.3872 -7.6128,-17 -17,-17z"/>
   </g>
  </g>
  <g id="VenSec_No" onclick="parent.replacechar('VenSec_No')" onmousemove="parent.showtooltip('VenSec_No', 'Secondary veins absent or not visible')" onmouseout="parent.hidetooltip('VenSec_No')" cursor="pointer" >
   <path fill="#B9CC76" stroke="#4C4C4C" stroke-width="0.0762" stroke-linejoin="bevel" d="M23.5548 110.103l-0.3533 -4.4156c-4.2092,-2.8261 -9.5377,-3.8269 -12.6872,-8.5665 -3.1501,-4.71 -6.3293,-12.9817 -6.3881,-20.0175 -0.0293,-7.0651 1.5605,-14.7776 4.5922,-23.2556 3.1203,-8.5368 7.9258,-20.3389 15.2262,-29.6708 7.5359,8.8609 10.6787,20.2806 14.27,28.9352 3.3558,8.2424 5.0929,16.3964 4.8866,24.904 -0.2058,7.3593 -3.2382,14.7776 -6.5054,19.1932 -3.2679,4.5625 -7.5657,6.0052 -11.5103,8.5369l-0.4711 4.3567 -1.0596 0z"/>
   <rect id="nerv_x0020_I_66" fill="#7F7F7F" stroke="#4C4C4C" stroke-width="0.0762" x="23.7294" y="25.779" width="0.521118" height="78.1678"/>
  </g>
 </g>
<image xlink:href="tick.gif" id="imgtick" x="-100" y="-100" width="15" height="15"/>
<rect id="recttooltip" x="-100" y="-100" width="55" height="6" fill-opacity="0.4" pointer-events="none"/>
<text id="textboxid" x="-100" y="-100" pointer-events="none"> </text>
</a></svg>
